<?xml version="1.0" standalone="no"?>
<!DOCTYPE svg PUBLIC "-//W3C//DTD SVG 1.1//EN" "http://www.w3.org/Graphics/SVG/1.1/DTD/svg11.dtd" >
<svg xmlns="http://www.w3.org/2000/svg" xmlns:xlink="http://www.w3.org/1999/xlink" version="1.1">
<metadata>
Created by FontForge 20141024 at Tue Oct 27 07:22:38 2015
 By Jimmy Warting
Copyright (c) 2000 Adobe Systems Incorporated. All Rights Reserved.Myriad is a registered trademark of Adobe Systems Incorporated.
</metadata>
<defs>
<font id="MyriadPro-It" horiz-adv-x="383" >
  <font-face 
    font-family="Myriad Pro"
    font-weight="400"
    font-style="italic"
    font-stretch="normal"
    units-per-em="1000"
    panose-1="2 11 5 3 3 4 3 9 2 4"
    ascent="750"
    descent="-250"
    x-height="484"
    cap-height="674"
    bbox="-112 -250 1090 873"
    underline-thickness="50"
    underline-position="-50"
    slope="-11"
    stemh="65"
    stemv="88"
    unicode-range="U+0020-FB04"
  />
<missing-glyph horiz-adv-x="500" 
d="M0 0v700h500v-700h-500zM250 395l170 255h-340zM280 350l170 -255v510zM80 50h340l-170 255zM50 605v-510l170 255z" />
    <glyph glyph-name="fi" unicode="fi" horiz-adv-x="499" 
d="M123 0h-83l79 419h-64l12 65h65l4 24c25 132 106 212 232 212c45 0 92 -13 110 -26l-26 -65c-21 11 -55 22 -96 22c-87 0 -125 -66 -138 -145l-4 -22h260l-92 -484h-83l79 419h-176z" />
    <glyph glyph-name="fl" unicode="fl" horiz-adv-x="499" 
d="M123 0h-83l79 419h-64l13 65h64l4 21c13 68 40 128 94 170c39 30 93 46 150 46c48 0 103 -12 133 -31l-131 -690h-83l122 640c-13 8 -30 13 -64 13c-80 0 -123 -62 -138 -143l-5 -26h103l-13 -65h-102z" />
    <glyph glyph-name="ff" unicode="ff" horiz-adv-x="561" 
d="M676 708l-18 -66c-13 6 -30 9 -49 9c-66 0 -98 -64 -112 -144l-4 -23h108l-13 -65h-108l-79 -419h-83l80 419h-196l-79 -419h-83l79 419h-64l12 65h65l4 21c11 57 32 119 72 159c29 28 67 46 118 46c25 0 47 -6 62 -14l-25 -65c-10 6 -25 10 -40 10
c-66 0 -92 -68 -105 -139l-4 -18h197l4 26c12 67 36 129 79 168c31 28 73 43 116 43c33 0 55 -6 66 -13z" />
    <glyph glyph-name="ffi" unicode="ffi" horiz-adv-x="777" 
d="M756 694l-26 -65c-20 11 -55 22 -96 22c-86 0 -125 -66 -138 -144l-4 -23h260l-93 -484h-82l79 419h-176l-79 -419h-83l79 419h-195l-80 -419h-82l79 419h-64l12 65h65l4 23c11 56 34 114 72 153c30 30 71 50 125 50c32 0 60 -11 74 -21l-29 -63c-13 9 -32 15 -50 15
c-26 0 -47 -9 -63 -25c-24 -24 -38 -64 -47 -112l-4 -20h196l4 24c25 132 106 212 232 212c45 0 93 -13 110 -26z" />
    <glyph glyph-name="ffl" unicode="ffl" horiz-adv-x="777" 
d="M411 690l-30 -63c-14 9 -33 14 -51 14c-27 0 -48 -10 -64 -26c-27 -27 -41 -71 -48 -111l-4 -20h196l4 21c12 68 40 128 94 170c39 30 93 46 150 46c48 0 103 -12 133 -31l-131 -690h-83l122 640c-13 8 -30 13 -64 13c-80 0 -123 -62 -138 -143l-5 -26h103l-13 -65h-102
l-79 -419h-83l79 419h-195l-80 -419h-82l79 419h-64l12 65h65l4 22c10 57 34 115 73 154c30 31 71 50 125 50c34 0 61 -11 77 -20z" />
    <glyph glyph-name="f_j" unicode="fj" horiz-adv-x="478" 
d="M478 694l-26 -65c-21 11 -55 22 -96 22c-87 0 -125 -66 -138 -145l-4 -22h260l-92 -482c-15 -81 -33 -132 -62 -164c-28 -32 -69 -47 -111 -47c-20 0 -38 1 -54 6l10 65c8 -3 21 -4 38 -4c42 0 74 26 93 126l83 435h-177l-79 -419h-83l79 419h-64l12 65h65l4 24
c25 132 106 212 232 212c46 0 93 -13 110 -26z" />
    <glyph glyph-name="f_f_j" unicode="ffj" horiz-adv-x="756" 
d="M756 694l-26 -65c-21 11 -55 22 -96 22c-87 0 -125 -66 -138 -145l-4 -22h260l-92 -482c-15 -81 -33 -132 -62 -164c-28 -32 -69 -47 -111 -47c-20 0 -38 1 -54 6l10 65c9 -3 22 -4 38 -4c42 0 75 26 94 126l82 435h-177l-79 -419h-83l79 419h-195l-80 -419h-82l79 419
h-64l12 65h65l4 23c11 56 34 114 72 153c30 30 71 50 125 50c33 0 60 -11 75 -21l-30 -63c-13 9 -32 15 -50 15c-26 0 -47 -9 -63 -25c-24 -24 -38 -64 -47 -112l-4 -20h196l4 24c25 132 106 212 232 212c45 0 93 -13 110 -26z" />
    <glyph glyph-name=".notdef" horiz-adv-x="500" 
d="M0 0v700h500v-700h-500zM250 395l170 255h-340zM280 350l170 -255v510zM80 50h340l-170 255zM50 605v-510l170 255z" />
    <glyph glyph-name="space" unicode=" " horiz-adv-x="182" 
 />
    <glyph glyph-name="space" unicode="&#xa0;" horiz-adv-x="182" 
 />
    <glyph glyph-name="exclam" unicode="!" horiz-adv-x="236" 
d="M142 194h-66l79 480h94zM78 -11h-1c-32 0 -54 26 -54 58c0 37 26 67 62 67c34 0 56 -26 56 -59c0 -37 -26 -66 -63 -66z" />
    <glyph glyph-name="quotedbl" unicode="&#x22;" horiz-adv-x="304" 
d="M121 692h87l-62 -242h-55zM271 692h86l-62 -242h-55z" />
    <glyph glyph-name="numbersign" unicode="#" horiz-adv-x="492" 
d="M193 254h91l45 147h-90zM114 0h-58l60 197h-82l10 57h91l46 147h-87l10 57h94l60 192h58l-60 -192h91l60 192h58l-60 -192h82l-10 -57h-90l-45 -147h86l-10 -57h-95l-60 -197h-59l61 197h-90z" />
    <glyph glyph-name="dollar" unicode="$" horiz-adv-x="492" 
d="M211 -85h-61l19 100c-48 2 -104 23 -131 44l27 65c33 -23 76 -43 134 -43c72 0 130 44 130 111c0 44 -21 79 -84 112c-83 43 -129 92 -129 160c0 89 74 164 176 174l19 97h61l-19 -97c49 -2 90 -19 109 -34l-28 -62c-21 12 -56 32 -115 32c-71 0 -115 -44 -115 -98
c0 -45 24 -70 97 -109c76 -42 116 -93 116 -159c0 -111 -82 -180 -187 -193z" />
    <glyph glyph-name="percent" unicode="%" horiz-adv-x="773" 
d="M256 661h1c82 0 119 -66 119 -136c0 -142 -75 -262 -184 -262c-77 0 -123 58 -123 143c0 123 72 255 187 255zM247 608h-1c-67 0 -109 -115 -109 -203c0 -47 14 -89 63 -89c67 0 108 118 108 205c0 39 -12 87 -61 87zM186 -12h-60l490 674h60zM617 392h1
c82 0 119 -65 119 -134c0 -143 -75 -265 -184 -265c-76 0 -122 58 -122 145c0 124 72 254 186 254zM608 339h-1c-66 0 -108 -113 -108 -203c0 -46 14 -90 63 -90c67 0 107 120 107 207c0 39 -12 86 -61 86z" />
    <glyph glyph-name="ampersand" unicode="&#x26;" horiz-adv-x="589" 
d="M533 0h-98c-17 20 -30 38 -46 62c-56 -51 -116 -73 -190 -73c-116 0 -182 75 -182 168c0 106 84 178 167 218v3c-24 43 -37 82 -37 123c0 100 75 184 179 184c90 0 136 -61 136 -133c0 -80 -57 -142 -173 -196v-3c37 -63 86 -137 121 -187c41 51 73 117 102 202h78
c-37 -108 -80 -192 -142 -256c25 -35 52 -72 85 -112zM221 54h1c53 0 98 24 132 60c-32 47 -90 129 -140 213c-44 -27 -113 -75 -113 -157c0 -65 43 -116 120 -116zM318 626h-1c-51 0 -93 -50 -93 -116c0 -38 10 -72 32 -107c81 39 129 83 129 147c0 39 -18 76 -67 76z" />
    <glyph glyph-name="quoteright" unicode="&#x2019;" horiz-adv-x="194" 
d="M161 682l91 10c-37 -84 -97 -192 -131 -238l-58 -6c31 59 75 162 98 234z" />
    <glyph glyph-name="parenleft" unicode="(" horiz-adv-x="284" 
d="M279 691h71c-105 -119 -210 -304 -210 -534c0 -91 14 -178 55 -276h-63c-41 82 -64 171 -64 278c0 238 112 424 211 532z" />
    <glyph glyph-name="parenright" unicode=")" horiz-adv-x="284" 
d="M25 -119h-71c105 120 210 305 210 536c0 90 -14 178 -55 274h64c41 -81 63 -170 63 -276c0 -239 -112 -425 -211 -534z" />
    <glyph glyph-name="asterisk" unicode="*" horiz-adv-x="414" 
d="M338 685l57 -35l-110 -123l1 -2l152 19l-14 -67l-143 18l-1 -3l82 -120l-64 -36l-48 140h-2l-79 -141l-53 37l109 121v3l-150 -19l13 67l140 -19v3l-79 122l64 34l48 -138h2z" />
    <glyph glyph-name="plus" unicode="+" horiz-adv-x="596" 
d="M274 532h62v-235h219v-59h-219v-238h-62v238h-219v59h219v235z" />
    <glyph glyph-name="comma" unicode="," horiz-adv-x="211" 
d="M21 -117l-64 -7c31 60 77 167 98 240l99 10c-36 -85 -98 -196 -133 -243z" />
    <glyph glyph-name="hyphen" unicode="-" horiz-adv-x="307" 
d="M48 302h239l-12 -64h-239z" />
    <glyph glyph-name="hyphen" unicode="&#xad;" horiz-adv-x="307" 
d="M48 302h239l-12 -64h-239z" />
    <glyph glyph-name="period" unicode="." horiz-adv-x="211" 
d="M77 -10h-1c-33 0 -55 26 -55 59c0 37 26 67 63 67c34 0 56 -26 56 -60c0 -37 -26 -66 -63 -66z" />
    <glyph glyph-name="slash" unicode="/" horiz-adv-x="326" 
d="M13 -40h-67l402 725h68z" />
    <glyph glyph-name="zero" unicode="0" horiz-adv-x="492" 
d="M207 -11h-1c-120 0 -163 98 -163 223c0 216 113 449 284 449c124 0 161 -103 161 -204c0 -213 -100 -468 -281 -468zM216 56h1c122 0 188 265 188 396c0 51 -7 142 -87 142c-113 0 -192 -227 -192 -386c0 -69 13 -152 90 -152z" />
    <glyph glyph-name="one" unicode="1" horiz-adv-x="492" 
d="M181 0l108 566h-2l-111 -56l-9 66l147 74h71l-124 -650h-80z" />
    <glyph glyph-name="two" unicode="2" horiz-adv-x="492" 
d="M393 0h-393l10 55l97 81c174 147 276 248 276 355c0 47 -26 99 -101 99c-58 0 -104 -26 -134 -47l-21 60c45 34 112 58 173 58c122 0 169 -81 169 -159c0 -138 -126 -258 -281 -386l-55 -43v-2h273z" />
    <glyph glyph-name="three" unicode="3" horiz-adv-x="492" 
d="M16 30l28 66c25 -15 66 -36 125 -36c111 0 162 76 162 143c0 81 -63 115 -139 115h-33l13 65h33c61 0 161 40 161 126c0 50 -30 81 -92 81c-49 0 -94 -16 -123 -36l-18 63c41 25 98 44 155 44c109 0 166 -65 166 -140c0 -85 -69 -147 -144 -168v-2
c71 -17 109 -78 109 -147c0 -123 -111 -215 -253 -215c-70 0 -128 21 -150 41z" />
    <glyph glyph-name="four" unicode="4" horiz-adv-x="492" 
d="M335 0h-78l34 181h-280l11 56l346 413h91l-77 -403h88l-13 -66h-88zM113 247h190l43 215c7 35 16 70 24 104h-3c-27 -39 -46 -71 -73 -106l-181 -211v-2z" />
    <glyph glyph-name="five" unicode="5" horiz-adv-x="492" 
d="M487 650l-14 -72h-223l-51 -165c11 1 21 2 32 2c28 0 77 -9 114 -31c53 -30 77 -88 77 -143c0 -158 -126 -252 -267 -252c-63 0 -118 19 -140 36l26 66c23 -15 69 -31 122 -31c92 0 173 73 173 163c0 70 -36 125 -157 125c-27 0 -47 -2 -73 -4l90 306h291z" />
    <glyph glyph-name="six" unicode="6" horiz-adv-x="492" 
d="M470 660l-12 -71c-16 1 -36 0 -60 -5c-117 -20 -214 -110 -258 -236l2 -1c38 49 101 82 160 82c102 0 157 -78 157 -177c0 -127 -99 -263 -239 -263c-124 0 -185 91 -185 214c0 150 80 289 164 358c65 55 141 86 215 95c23 4 42 4 56 4zM225 56h1c86 0 147 99 147 191
c0 76 -38 116 -103 116c-51 0 -104 -34 -137 -89c-6 -9 -11 -21 -12 -31c-2 -15 -4 -32 -4 -52c0 -78 37 -135 108 -135z" />
    <glyph glyph-name="seven" unicode="7" horiz-adv-x="492" 
d="M134 650h389l-11 -58c-125 -197 -250 -394 -377 -592h-92c126 193 251 385 375 577l-1 2h-297z" />
    <glyph glyph-name="eight" unicode="8" horiz-adv-x="492" 
d="M314 661h1c95 0 164 -57 164 -147c0 -77 -52 -134 -127 -169l-1 -3c67 -36 96 -95 96 -154c0 -128 -115 -199 -228 -199c-122 0 -195 69 -195 161c0 100 72 165 152 196l1 3c-52 37 -72 81 -72 128c0 105 95 184 209 184zM224 52h1c76 0 136 52 136 129
c0 64 -37 105 -114 132c-67 -18 -136 -68 -136 -153c0 -56 37 -108 113 -108zM303 598h-1c-66 0 -116 -54 -116 -115c0 -51 31 -87 95 -110c64 21 116 69 116 131c0 44 -22 94 -94 94z" />
    <glyph glyph-name="nine" unicode="9" horiz-adv-x="492" 
d="M56 -10l10 71c17 -1 38 1 62 4c45 7 94 28 138 64c48 38 91 95 119 172h-3c-40 -46 -97 -70 -148 -70c-107 0 -158 83 -158 168c0 133 106 262 241 262c123 0 175 -94 175 -205c0 -162 -92 -309 -168 -374c-57 -48 -128 -78 -195 -87c-28 -4 -52 -6 -73 -5zM308 594h-1
c-80 0 -146 -91 -146 -185c0 -65 33 -113 98 -113c53 0 100 30 129 75c6 8 11 17 13 28c4 17 7 43 7 67c0 74 -28 128 -100 128z" />
    <glyph glyph-name="colon" unicode=":" horiz-adv-x="211" 
d="M143 342h-1c-32 0 -54 26 -54 58c0 37 26 67 62 67c34 0 56 -25 56 -59c0 -37 -26 -66 -63 -66zM76 -11h-1c-32 0 -54 26 -54 58c0 37 26 67 62 67c34 0 56 -25 56 -59c0 -37 -26 -66 -63 -66z" />
    <glyph glyph-name="semicolon" unicode=";" horiz-adv-x="211" 
d="M20 -117l-63 -7c31 60 76 167 98 240l98 10c-36 -85 -97 -196 -133 -243zM148 342h-1c-32 0 -54 26 -54 58c0 37 26 67 62 67c34 0 56 -25 56 -59c0 -37 -26 -66 -63 -66z" />
    <glyph glyph-name="less" unicode="&#x3c;" horiz-adv-x="596" 
d="M78 239v54l448 239v-68l-375 -197v-2l375 -197v-68z" />
    <glyph glyph-name="equal" unicode="=" horiz-adv-x="596" 
d="M556 338h-500v59h500v-59zM556 141h-500v59h500v-59z" />
    <glyph glyph-name="greater" unicode="&#x3e;" horiz-adv-x="596" 
d="M541 294v-56l-448 -238v68l378 197v2l-378 197v68z" />
    <glyph glyph-name="question" unicode="?" horiz-adv-x="384" 
d="M208 192h-81c1 9 2 17 3 26c5 54 34 115 97 182c45 47 87 92 87 146c0 35 -18 70 -76 70c-38 0 -72 -10 -100 -28l-16 61c38 23 85 37 137 37c97 0 141 -64 141 -125c0 -78 -49 -135 -109 -197c-49 -51 -72 -93 -79 -144c-1 -9 -2 -19 -4 -28zM137 -11h-1
c-32 0 -54 26 -54 58c0 37 26 67 62 67c34 0 56 -26 56 -59c0 -37 -26 -66 -63 -66z" />
    <glyph glyph-name="at" unicode="@" horiz-adv-x="720" 
d="M440 255l21 112c-10 4 -27 8 -50 8c-89 0 -161 -83 -161 -180c0 -44 23 -76 67 -76c58 0 112 74 123 136zM499 -21l16 -44c-54 -30 -112 -40 -175 -40c-172 0 -305 120 -305 313c0 206 142 384 364 384c175 0 291 -122 291 -289c0 -150 -84 -238 -178 -238
c-40 0 -76 26 -74 88h-3c-36 -59 -82 -88 -142 -88c-58 0 -108 47 -108 126c0 124 98 237 237 237c43 0 82 -9 107 -21l-33 -181c-15 -76 -4 -111 30 -112c51 -2 108 67 108 182c0 146 -88 250 -243 250c-164 0 -300 -129 -300 -332c0 -167 105 -271 260 -271
c52 0 108 13 148 36z" />
    <glyph glyph-name="A" unicode="A" horiz-adv-x="568" 
d="M401 213h-233l-107 -213h-87l348 674h98l93 -674h-85zM199 279h196l-27 195c-3 35 -8 85 -11 124h-3c-18 -40 -35 -82 -55 -123z" />
    <glyph glyph-name="B" unicode="B" horiz-adv-x="519" 
d="M33 5l124 660c42 8 90 14 145 14c69 0 120 -14 155 -46c32 -26 49 -62 49 -105c0 -86 -69 -149 -145 -169v-2c60 -18 110 -69 110 -150c0 -70 -36 -124 -80 -157c-54 -40 -128 -55 -219 -55c-58 0 -108 4 -139 10zM229 607l-42 -219h62c97 0 171 50 171 132
c0 65 -49 93 -122 93c-31 0 -56 -2 -69 -6zM174 325l-48 -259c21 -3 45 -4 68 -4c98 -1 190 41 190 149c0 79 -67 114 -142 114h-68z" />
    <glyph glyph-name="C" unicode="C" horiz-adv-x="555" 
d="M486 90l11 -68c-38 -17 -99 -32 -175 -32c-170 0 -273 107 -273 279c0 127 51 248 143 325c70 59 156 90 255 90c74 0 128 -19 146 -32l-27 -67c-25 15 -73 28 -133 28c-70 0 -141 -27 -193 -75c-63 -60 -103 -155 -103 -257c0 -120 55 -220 205 -220c51 0 107 10 144 29
z" />
    <glyph glyph-name="D" unicode="D" horiz-adv-x="647" 
d="M33 4l125 661c52 9 109 14 168 14c112 0 198 -32 248 -90c36 -37 63 -98 63 -183c0 -122 -49 -243 -135 -317c-78 -65 -176 -94 -306 -94c-59 0 -120 3 -163 9zM230 604l-102 -535c30 -4 62 -5 87 -5c107 0 185 31 241 89c61 62 92 154 92 249c0 120 -58 209 -226 209
c-30 0 -68 -2 -92 -7z" />
    <glyph glyph-name="E" unicode="E" horiz-adv-x="470" 
d="M433 387l-14 -70h-245l-46 -246h276l-14 -71h-359l128 674h344l-14 -71h-260l-41 -216h245z" />
    <glyph glyph-name="F" unicode="F" horiz-adv-x="465" 
d="M31 0l128 674h342l-14 -71h-258l-44 -227h238l-14 -70h-238l-57 -306h-83z" />
    <glyph glyph-name="G" unicode="G" horiz-adv-x="623" 
d="M588 352l-61 -323c-39 -16 -111 -36 -190 -36c-95 0 -169 27 -220 84c-51 56 -68 130 -68 196c0 112 45 230 131 308c73 63 170 100 278 100c82 0 138 -19 159 -31l-28 -70c-34 17 -80 29 -141 29c-80 0 -153 -29 -209 -82c-63 -59 -101 -156 -101 -247
c0 -130 65 -216 215 -216c40 0 78 8 102 19l39 201h-137l13 68h218z" />
    <glyph glyph-name="H" unicode="H" horiz-adv-x="627" 
d="M159 674h83l-54 -284h310l54 284h83l-128 -674h-83l59 317h-309l-60 -317h-83z" />
    <glyph glyph-name="I" unicode="I" horiz-adv-x="233" 
d="M158 674h83l-128 -674h-83z" />
    <glyph glyph-name="J" unicode="J" horiz-adv-x="364" 
d="M210 220l86 454h83l-88 -464c-30 -157 -96 -221 -222 -221c-41 0 -83 9 -100 18l18 71c22 -10 49 -15 85 -15c71 0 115 37 138 157z" />
    <glyph glyph-name="K" unicode="K" horiz-adv-x="515" 
d="M31 0l128 674h82l-62 -328l4 1c24 28 46 52 67 75l237 252h104l-284 -290l173 -384h-90l-147 331l-81 -75l-49 -256h-82z" />
    <glyph glyph-name="L" unicode="L" horiz-adv-x="442" 
d="M31 0l128 674h83l-115 -602h272l-14 -72h-354z" />
    <glyph glyph-name="M" unicode="M" horiz-adv-x="780" 
d="M676 0h-80l48 364c9 64 24 163 36 228h-3c-31 -68 -69 -148 -105 -217l-201 -371h-63l-50 363c-10 78 -17 156 -21 225h-3c-14 -62 -35 -164 -51 -228l-92 -364h-78l175 674h106l53 -387c7 -57 14 -119 16 -169h3c21 50 50 111 79 167l208 389h109z" />
    <glyph glyph-name="N" unicode="N" horiz-adv-x="632" 
d="M109 0h-78l128 674h91l154 -382c30 -77 45 -130 59 -188l2 1c4 61 11 117 29 211l68 358h78l-128 -674h-82l-154 381c-32 83 -47 130 -62 194l-3 -1c-7 -63 -18 -130 -35 -222z" />
    <glyph glyph-name="O" unicode="O" horiz-adv-x="668" 
d="M305 -11h-1c-174 0 -256 131 -256 274c0 119 47 250 129 331c58 56 141 91 226 91c181 0 255 -132 255 -276c0 -117 -43 -246 -123 -326c-60 -59 -138 -94 -230 -94zM315 59h1c58 0 112 25 154 67c63 64 100 185 100 279c0 96 -31 210 -178 210c-60 0 -113 -26 -154 -67
c-65 -65 -102 -184 -102 -278c0 -110 48 -211 179 -211z" />
    <glyph glyph-name="P" unicode="P" horiz-adv-x="507" 
d="M31 0l127 665c37 8 91 14 146 14c65 0 127 -16 165 -52c32 -29 49 -68 49 -121c0 -75 -37 -139 -81 -175c-52 -44 -128 -65 -204 -65c-26 0 -48 2 -69 5l-51 -271h-82zM227 605l-50 -264c23 -5 43 -6 67 -6c114 0 190 70 190 165c0 80 -57 112 -134 112
c-33 0 -58 -3 -73 -7z" />
    <glyph glyph-name="Q" unicode="Q" horiz-adv-x="668" 
d="M589 -25l-32 -69c-88 21 -198 54 -234 71c-31 11 -40 13 -46 13c-127 8 -229 106 -229 274c0 115 45 245 125 325c59 60 145 96 230 96c183 0 254 -136 254 -276c0 -110 -41 -242 -118 -319c-36 -36 -85 -66 -129 -78v-3c59 -13 122 -26 179 -34zM312 59h1
c61 0 114 25 155 65c66 66 102 191 102 283c0 88 -30 208 -178 208c-59 0 -112 -25 -152 -66c-66 -66 -104 -188 -104 -281c0 -107 46 -209 176 -209z" />
    <glyph glyph-name="R" unicode="R" horiz-adv-x="523" 
d="M31 0l127 665c41 9 97 14 147 14c67 0 125 -16 161 -49c31 -26 50 -65 50 -111c0 -99 -75 -172 -160 -196l-1 -2c48 -16 70 -66 75 -135c7 -94 12 -159 21 -186h-86c-4 14 -11 85 -16 163c-5 93 -39 131 -106 131h-74l-55 -294h-83zM229 606l-47 -248h74
c105 0 173 69 173 150c0 72 -54 105 -130 105c-33 0 -54 -3 -70 -7z" />
    <glyph glyph-name="S" unicode="S" horiz-adv-x="466" 
d="M12 37l30 68c36 -25 87 -43 143 -43c76 0 146 45 146 126c0 50 -28 87 -99 126c-86 46 -134 100 -134 173c0 120 104 197 228 197c66 0 115 -19 138 -35l-30 -68c-21 13 -63 33 -116 32c-84 0 -134 -55 -134 -110s34 -86 105 -125c83 -44 128 -97 128 -180
c0 -116 -91 -208 -243 -208c-68 1 -134 22 -162 47z" />
    <glyph glyph-name="T" unicode="T" horiz-adv-x="474" 
d="M148 0l114 602h-197l14 72h478l-14 -72h-198l-114 -602h-83z" />
    <glyph glyph-name="U" unicode="U" horiz-adv-x="621" 
d="M158 674h83l-76 -399c-5 -28 -8 -57 -8 -85c0 -86 50 -130 125 -130c92 0 159 62 188 214l77 400h83l-77 -403c-39 -201 -139 -282 -282 -282c-111 0 -197 60 -197 199c0 29 3 62 9 93z" />
    <glyph glyph-name="V" unicode="V" horiz-adv-x="539" 
d="M259 0h-92l-83 674h85l49 -432c7 -69 12 -108 12 -152h3c17 42 38 92 74 163l215 421h91z" />
    <glyph glyph-name="W" unicode="W" horiz-adv-x="829" 
d="M219 0h-89l-33 674h83l15 -404c2 -87 1 -133 0 -175h2c16 44 32 87 69 170l187 409h89l14 -388c3 -87 3 -146 1 -190h2c20 58 40 112 66 173l182 405h87l-313 -674h-88l-17 383c-4 79 -3 117 2 194h-3c-22 -64 -40 -116 -68 -177z" />
    <glyph glyph-name="X" unicode="X" horiz-adv-x="521" 
d="M466 0h-88l-64 167c-18 45 -32 83 -43 118h-2c-21 -32 -45 -69 -79 -116l-121 -169h-99l263 343l-126 331h87l64 -173c14 -40 25 -71 34 -102h2c22 33 45 68 69 102l129 173h99l-260 -330z" />
    <glyph glyph-name="Y" unicode="Y" horiz-adv-x="517" 
d="M243 0h-82l53 280l-130 394h89l65 -218c17 -60 23 -87 28 -113h2c17 28 40 66 72 116l146 215h97l-287 -393z" />
    <glyph glyph-name="Z" unicode="Z" horiz-adv-x="523" 
d="M-20 0l9 51l458 549l-1 3h-320l14 71h432l-11 -53l-454 -547l1 -3h354l-13 -71h-469z" />
    <glyph glyph-name="bracketleft" unicode="[" horiz-adv-x="284" 
d="M194 -111h-175l152 797h175l-10 -54h-108l-131 -689h107z" />
    <glyph glyph-name="backslash" unicode="\" horiz-adv-x="329" 
d="M310 -40h-65l-184 725h65z" />
    <glyph glyph-name="bracketright" unicode="]" horiz-adv-x="284" 
d="M109 686h175l-152 -797h-175l10 54h108l131 689h-107z" />
    <glyph glyph-name="asciicircum" unicode="^" horiz-adv-x="596" 
d="M534 189h-68l-164 388h-2l-164 -388h-67l202 461l61 -1z" />
    <glyph glyph-name="underscore" unicode="_" horiz-adv-x="500" 
d="M-49 -75h500l-10 -50h-500z" />
    <glyph glyph-name="quoteleft" unicode="&#x2018;" horiz-adv-x="194" 
d="M164 458l-91 -10c37 84 97 192 131 238l58 6c-31 -59 -76 -162 -98 -234z" />
    <glyph glyph-name="a" unicode="a" horiz-adv-x="522" 
d="M426 0h-77c0 29 5 75 11 125h-2c-53 -101 -120 -136 -188 -136c-86 0 -139 68 -139 160c0 169 124 346 335 346c46 0 96 -8 130 -18l-50 -253c-16 -84 -22 -170 -20 -224zM375 276l28 146c-12 4 -30 7 -58 7c-125 0 -228 -130 -228 -265c0 -54 19 -107 83 -107
c69 0 151 90 175 219z" />
    <glyph glyph-name="b" unicode="b" horiz-adv-x="525" 
d="M159 710h83l-64 -314h2c43 65 105 99 170 99c106 0 146 -88 146 -174c0 -149 -107 -332 -301 -332c-85 0 -149 35 -149 124c0 24 4 53 9 76zM148 238l-11 -51c-4 -17 -7 -36 -6 -62c0 -46 27 -71 78 -71c125 0 201 149 201 257c0 60 -26 115 -92 115
c-72 0 -146 -74 -170 -188z" />
    <glyph glyph-name="c" unicode="c" horiz-adv-x="423" 
d="M353 85l8 -65c-25 -13 -75 -30 -140 -30c-125 0 -186 84 -186 187c0 165 122 318 296 318c45 0 86 -13 101 -22l-24 -65c-19 9 -46 18 -82 18c-126 0 -205 -124 -205 -238c0 -79 41 -130 120 -130c50 0 87 15 112 27z" />
    <glyph glyph-name="d" unicode="d" horiz-adv-x="525" 
d="M460 710h83l-107 -556c-9 -51 -17 -107 -20 -154h-76l13 96h-2c-44 -69 -105 -107 -175 -107c-93 0 -144 77 -144 176c0 172 128 330 299 330c31 0 65 -7 86 -17zM371 239l32 169c-16 12 -44 21 -79 21c-116 0 -206 -124 -206 -253c0 -58 20 -119 91 -119
c64 0 141 73 162 182z" />
    <glyph glyph-name="e" unicode="e" horiz-adv-x="453" 
d="M365 90l12 -62c-36 -20 -95 -38 -160 -38c-128 0 -184 87 -184 194c0 146 108 311 264 311c92 0 142 -55 142 -125c0 -127 -143 -160 -322 -157c-4 -21 -1 -66 10 -91c19 -44 58 -65 108 -65c57 0 100 17 130 33zM359 368v1c0 39 -30 61 -74 61c-79 0 -138 -77 -158 -153
c130 -2 232 16 232 91z" />
    <glyph glyph-name="f" unicode="f" horiz-adv-x="283" 
d="M123 0h-83l79 419h-64l12 65h65l4 26c12 67 36 129 79 168c31 28 73 43 115 43c34 0 55 -6 67 -13l-18 -66c-13 6 -30 9 -49 9c-66 0 -98 -64 -112 -144l-4 -23h108l-13 -65h-107z" />
    <glyph glyph-name="g" unicode="g" horiz-adv-x="524" 
d="M10 -175l23 65c29 -19 78 -32 128 -32c82 0 146 41 174 172l16 73h-2c-43 -69 -102 -103 -168 -103c-98 0 -148 82 -148 168c0 165 120 327 307 327c56 0 118 -16 156 -34l-75 -400c-19 -103 -47 -173 -97 -217c-49 -41 -114 -53 -169 -53c-59 0 -115 14 -145 34z
M374 251l31 161c-16 8 -46 17 -80 17c-121 0 -205 -127 -205 -247c-1 -54 19 -116 93 -116c71 0 143 90 161 185z" />
    <glyph glyph-name="h" unicode="h" horiz-adv-x="534" 
d="M111 0h-83l135 710h83l-60 -311h2c41 59 100 96 173 96c55 0 120 -33 120 -130c0 -25 -3 -57 -8 -81l-54 -284h-83l54 280c3 17 6 40 6 67c0 44 -21 79 -75 79c-64 0 -145 -75 -165 -183z" />
    <glyph glyph-name="i" unicode="i" horiz-adv-x="229" 
d="M111 0h-83l93 484h82zM184 566h-1c-29 0 -47 22 -47 52c1 32 25 56 55 56c29 0 49 -22 49 -52c-1 -33 -24 -56 -56 -56z" />
    <glyph glyph-name="j" unicode="j" horiz-adv-x="227" 
d="M125 484h83l-92 -483c-15 -80 -33 -131 -62 -163c-28 -32 -69 -47 -111 -47c-21 0 -39 1 -55 6l10 65c9 -3 22 -4 39 -4c42 0 74 26 93 126zM184 566h-1c-29 0 -47 22 -47 52c1 32 25 56 55 56c29 0 49 -22 49 -52c-1 -33 -24 -56 -56 -56z" />
    <glyph glyph-name="k" unicode="k" horiz-adv-x="456" 
d="M110 0h-82l135 710h83l-85 -446h2c14 17 32 35 45 49l170 171h103l-211 -200l144 -284h-91l-117 238l-61 -55z" />
    <glyph glyph-name="l" unicode="l" horiz-adv-x="229" 
d="M112 0h-83l135 710h83z" />
    <glyph glyph-name="m" unicode="m" horiz-adv-x="808" 
d="M109 0h-81l65 343c10 54 17 101 22 141h73l-13 -91h3c45 68 106 102 170 102c74 0 109 -47 113 -108c43 70 105 107 177 108c56 0 118 -36 118 -127c0 -22 -3 -55 -8 -82l-54 -286h-81l52 279c4 19 7 43 7 63c0 51 -19 84 -73 84c-60 0 -132 -70 -152 -178l-46 -248h-80
l54 284c4 22 6 40 6 59c0 41 -11 83 -72 83s-136 -80 -155 -183z" />
    <glyph glyph-name="n" unicode="n" horiz-adv-x="534" 
d="M111 0h-82l64 343c11 54 18 101 23 141h75l-13 -95h2c44 68 109 106 180 106c57 0 122 -33 122 -134c0 -22 -4 -52 -9 -78l-54 -283h-82l53 280c3 19 6 41 6 62c0 48 -19 84 -76 84c-59 0 -143 -71 -165 -191z" />
    <glyph glyph-name="o" unicode="o" horiz-adv-x="522" 
d="M225 -11h-1c-121 0 -189 90 -189 199c0 160 111 307 268 307c131 0 190 -99 190 -201c0 -150 -106 -305 -268 -305zM234 55h1c98 0 172 126 172 239c0 56 -26 135 -113 135c-104 0 -173 -127 -173 -238c0 -79 44 -136 113 -136z" />
    <glyph glyph-name="p" unicode="p" horiz-adv-x="525" 
d="M68 -198h-83l97 510c11 58 21 124 27 173h76l-13 -92h2c43 64 107 102 174 102c104 0 148 -86 148 -175c0 -171 -122 -331 -283 -331c-51 0 -85 11 -104 22h-2zM146 216l-25 -135c22 -17 53 -27 93 -27c107 0 196 133 196 260c0 51 -22 112 -93 112
c-65 0 -146 -74 -171 -210z" />
    <glyph glyph-name="q" unicode="q" horiz-adv-x="525" 
d="M370 -198h-83l59 286h-2c-41 -64 -107 -99 -168 -99c-96 0 -144 81 -144 176c0 162 120 330 308 330c64 0 120 -16 155 -32zM372 244l31 168c-15 9 -44 17 -80 17c-111 0 -205 -118 -205 -254c0 -75 33 -118 84 -118c78 0 151 88 170 187z" />
    <glyph glyph-name="r" unicode="r" horiz-adv-x="318" 
d="M111 0h-83l59 312c12 63 19 127 25 172h73c-4 -34 -8 -68 -14 -105h3c32 66 83 116 148 116c8 0 17 -1 24 -2l-16 -82c-6 1 -13 2 -23 2c-71 0 -135 -87 -156 -199z" />
    <glyph glyph-name="s" unicode="s" horiz-adv-x="373" 
d="M9 23l24 61c22 -14 64 -30 104 -30c56 0 92 36 92 79c0 38 -17 61 -68 89c-56 31 -87 74 -87 123c0 85 73 150 176 150c43 0 82 -12 100 -24l-23 -63c-17 10 -47 22 -83 22c-51 0 -87 -31 -87 -73c0 -35 23 -57 67 -81c54 -31 90 -73 90 -127c0 -102 -82 -159 -185 -159
c-52 1 -98 16 -120 33z" />
    <glyph glyph-name="t" unicode="t" horiz-adv-x="313" 
d="M155 573l87 27l-22 -116h116l-13 -65h-116l-44 -235c-6 -27 -10 -52 -10 -77c0 -29 14 -47 46 -47c15 0 28 1 39 4l-4 -65c-15 -6 -40 -9 -64 -9c-73 0 -102 44 -102 94c0 28 4 55 11 90l47 245h-69l12 65h69z" />
    <glyph glyph-name="u" unicode="u" horiz-adv-x="526" 
d="M418 484h83l-66 -343c-10 -54 -17 -101 -21 -141h-75l13 91h-2c-44 -63 -107 -102 -171 -102c-62 0 -128 30 -128 140c0 23 3 50 9 82l53 273h82l-51 -270c-5 -27 -8 -50 -8 -71c0 -50 20 -84 77 -84c61 0 138 71 158 177z" />
    <glyph glyph-name="v" unicode="v" horiz-adv-x="455" 
d="M52 484h84l42 -276c7 -55 14 -93 15 -119h3c11 26 24 58 52 113l147 282h91l-269 -484h-81z" />
    <glyph glyph-name="w" unicode="w" horiz-adv-x="707" 
d="M61 484h82l17 -272c4 -60 3 -91 2 -130h3c11 31 29 73 53 121l143 281h73l30 -276c5 -53 8 -94 8 -126h2c13 39 26 76 46 123l131 279h84l-239 -484h-77l-32 263c-5 45 -7 86 -7 129h-2c-20 -47 -34 -83 -56 -126l-139 -266h-77z" />
    <glyph glyph-name="x" unicode="x" horiz-adv-x="441" 
d="M63 484h90l47 -105c14 -32 23 -55 32 -78h3c19 27 30 44 53 73l89 110h96l-204 -235l114 -249h-90l-49 110c-16 36 -23 55 -34 86h-3c-14 -23 -29 -46 -50 -74l-98 -122h-96l212 250z" />
    <glyph glyph-name="y" unicode="y" horiz-adv-x="441" 
d="M48 484h86l48 -260c11 -56 17 -92 22 -128h2c13 31 27 65 52 119l124 269h88l-182 -368c-52 -104 -101 -189 -167 -254c-54 -55 -113 -78 -140 -84l-21 72c21 7 56 20 89 46c33 25 68 64 94 112c4 8 4 13 2 22z" />
    <glyph glyph-name="z" unicode="z" horiz-adv-x="415" 
d="M-21 0l9 51l235 262c41 45 68 70 101 100v3h-248l14 68h347l-11 -55l-231 -258c-44 -47 -70 -72 -100 -100l-1 -3h269l-14 -68h-370z" />
    <glyph glyph-name="braceleft" unicode="{" horiz-adv-x="284" 
d="M33 264l9 51c68 0 85 39 92 74c10 54 6 111 17 166c17 92 77 131 159 131h23l-10 -54h-18c-52 0 -79 -32 -90 -86c-9 -48 -4 -95 -13 -147c-11 -66 -44 -98 -91 -109v-2c38 -10 54 -39 54 -71c0 -34 -12 -74 -25 -111c-14 -38 -26 -74 -26 -100c0 -36 17 -62 60 -63h18
l-11 -54h-18c-70 0 -117 34 -117 102c0 39 14 79 27 117s26 74 26 102c0 19 -7 55 -66 54z" />
    <glyph glyph-name="bar" unicode="|" horiz-adv-x="217" 
d="M95 750h62v-1000h-62v1000z" />
    <glyph glyph-name="braceright" unicode="}" horiz-adv-x="284" 
d="M264 313l-9 -51c-68 0 -85 -39 -92 -75c-10 -54 -6 -111 -17 -167c-17 -92 -77 -131 -159 -131h-23l10 54h18c52 0 79 32 90 87c9 48 4 95 13 148c11 65 44 97 91 109v2c-38 11 -54 40 -54 71c0 32 14 71 26 109c13 38 25 74 25 100c0 36 -17 62 -60 63h-18l11 54h18
c70 0 117 -34 117 -102c0 -40 -13 -80 -27 -117c-13 -38 -26 -72 -26 -101c0 -19 7 -54 66 -53z" />
    <glyph glyph-name="asciitilde" unicode="~" horiz-adv-x="596" 
d="M123 213h-60c-3 97 51 146 118 146c37 0 76 -12 134 -42c49 -25 86 -42 123 -42c36 0 53 28 54 81h59c5 -109 -52 -147 -115 -147c-36 0 -80 13 -139 45c-38 19 -80 40 -117 40c-34 0 -56 -30 -57 -81z" />
    <glyph glyph-name="exclamdown" unicode="&#xa1;" horiz-adv-x="236" 
d="M83 -195h-94l106 477h66zM159 488h1c32 0 54 -26 54 -58c0 -37 -26 -67 -62 -67c-34 0 -56 26 -56 59c0 37 26 66 63 66z" />
    <glyph glyph-name="cent" unicode="&#xa2;" horiz-adv-x="492" 
d="M272 -14h-61l20 102c-53 8 -90 33 -115 66c-24 34 -35 78 -35 122c0 153 111 279 246 297l18 101h61l-19 -99c32 0 73 -12 91 -24l-29 -64c-22 13 -51 23 -95 23c-93 0 -185 -97 -185 -227c0 -75 43 -131 124 -131c43 0 78 12 103 23l8 -62c-23 -13 -70 -26 -113 -26z
" />
    <glyph glyph-name="sterling" unicode="&#xa3;" horiz-adv-x="492" 
d="M427 0h-403l9 51c65 31 115 95 131 162c6 24 8 52 9 82h-90l12 63h80c0 34 2 78 11 123c23 111 96 180 208 180c41 0 75 -12 91 -23l-25 -64c-18 10 -45 17 -75 17c-70 0 -110 -49 -123 -121c-7 -41 -8 -78 -8 -112h148l-12 -63h-139c-1 -25 -4 -50 -11 -79
c-13 -56 -43 -105 -92 -143v-2h291z" />
    <glyph glyph-name="fraction" unicode="&#x2044;" horiz-adv-x="400" 
d="M4 -11h-61l487 672h61z" />
    <glyph glyph-name="fraction" unicode="&#x2215;" horiz-adv-x="400" 
d="M4 -11h-61l487 672h61z" />
    <glyph glyph-name="yen" unicode="&#xa5;" horiz-adv-x="492" 
d="M234 0h-78l33 176h-146l9 49h146l14 73h-146l10 49h122l-103 303h85l59 -206c9 -34 17 -61 23 -92h4c15 29 34 61 56 94l141 204h91l-228 -303h121l-9 -49h-148l-14 -73h148l-10 -49h-147z" />
    <glyph glyph-name="florin" unicode="&#x192;" horiz-adv-x="492" 
d="M125 339l10 62h93l13 47c27 106 73 213 204 213c32 -1 53 -7 67 -16l-23 -61c-15 6 -32 11 -54 11c-62 0 -96 -64 -116 -152l-10 -42h116l-10 -62h-121l-51 -207c-32 -127 -78 -216 -189 -216c-32 0 -62 9 -75 18l19 60c14 -8 36 -12 56 -12c53 0 85 56 111 163l49 194
h-89z" />
    <glyph glyph-name="section" unicode="&#xa7;" horiz-adv-x="501" 
d="M152 351v-1c0 -36 15 -62 83 -95c39 -18 71 -36 91 -51c32 20 57 54 57 89c0 31 -14 62 -74 94c-30 15 -69 33 -94 50c-38 -19 -63 -53 -63 -86zM473 652l-24 -55c-25 15 -62 30 -112 30c-57 0 -106 -33 -106 -81c0 -43 34 -62 100 -92c74 -34 125 -72 125 -141
c0 -67 -40 -111 -88 -143c16 -19 23 -45 23 -71c0 -110 -99 -159 -196 -159c-57 0 -115 15 -148 40l25 57c28 -18 69 -39 126 -39c66 0 115 35 115 89c0 35 -20 63 -98 100c-78 36 -137 76 -137 142c0 56 38 106 100 141c-15 19 -23 41 -23 64c0 94 90 151 191 151
c53 0 102 -16 127 -33z" />
    <glyph glyph-name="currency" unicode="&#xa4;" horiz-adv-x="492" 
d="M263 534h1c45 0 88 -16 114 -40l71 74l44 -46l-77 -70c19 -27 35 -69 35 -119c0 -54 -17 -96 -35 -121l75 -72l-44 -46l-69 76c-30 -28 -76 -42 -116 -42c-41 0 -86 14 -112 39l-67 -73l-45 46l73 69c-20 26 -37 67 -37 120c0 54 18 95 39 123l-76 70l45 46l69 -74
c27 25 69 40 112 40zM262 474h-1c-73 0 -119 -65 -119 -143c0 -101 67 -143 120 -143c59 0 121 41 121 144c0 73 -42 142 -121 142z" />
    <glyph glyph-name="quotesingle" unicode="'" horiz-adv-x="166" 
d="M128 692h86l-62 -242h-54z" />
    <glyph glyph-name="quotedblleft" unicode="&#x201c;" horiz-adv-x="342" 
d="M163 458l-91 -10c37 84 97 192 131 238l58 6c-31 -59 -75 -162 -98 -234zM312 458l-91 -10c37 84 97 192 131 238l58 6c-31 -59 -76 -162 -98 -234z" />
    <glyph glyph-name="guillemotleft" unicode="&#xab;" horiz-adv-x="409" 
d="M253 437l-151 -186l101 -182h-66l-104 184l148 184h72zM417 437l-152 -186l102 -182h-67l-103 184l147 184h73z" />
    <glyph glyph-name="guilsinglleft" unicode="&#x2039;" horiz-adv-x="245" 
d="M253 437l-152 -186l102 -182h-66l-104 184l147 184h73z" />
    <glyph glyph-name="guilsinglright" unicode="&#x203a;" horiz-adv-x="245" 
d="M160 255l-102 182h66l104 -184l-148 -185h-72z" />
    <glyph glyph-name="endash" unicode="&#x2013;" horiz-adv-x="500" 
d="M41 284h440l-12 -60h-440z" />
    <glyph glyph-name="dagger" unicode="&#x2020;" horiz-adv-x="483" 
d="M286 674h80l-49 -211l168 8l-14 -72l-165 8l-79 -457h-80l95 457l-167 -8l14 72l164 -8z" />
    <glyph glyph-name="daggerdbl" unicode="&#x2021;" horiz-adv-x="483" 
d="M286 674h79l-46 -201l167 8l-14 -72l-163 8l-39 -205l166 8l-14 -72l-163 8l-33 -206h-79l46 206l-166 -8l14 72l163 -8l39 205l-166 -8l14 72l163 -8z" />
    <glyph glyph-name="periodcentered" unicode="&#xb7;" horiz-adv-x="211" 
d="M106 198h-1c-33 0 -55 26 -55 59c0 37 26 67 63 67c34 0 56 -26 56 -60c0 -37 -26 -66 -63 -66z" />
    <glyph glyph-name="periodcentered" unicode="&#x2219;" horiz-adv-x="211" 
d="M106 198h-1c-33 0 -55 26 -55 59c0 37 26 67 63 67c34 0 56 -26 56 -60c0 -37 -26 -66 -63 -66z" />
    <glyph glyph-name="paragraph" unicode="&#xb6;" horiz-adv-x="494" 
d="M222 -50h-61l61 314c-3 0 -7 1 -10 1c-58 8 -137 61 -137 170c0 137 111 239 307 239c49 0 88 -3 110 -8l-138 -716h-60l127 666h-72z" />
    <glyph glyph-name="bullet" unicode="&#x2022;" horiz-adv-x="277" 
d="M145 161h-1c-57 0 -104 46 -104 105c-1 58 47 105 105 105s105 -46 105 -105c0 -58 -47 -105 -105 -105z" />
    <glyph glyph-name="quotesinglbase" unicode="&#x201a;" horiz-adv-x="194" 
d="M7 -115l-60 -7c31 60 77 165 99 238l94 10c-37 -85 -98 -194 -133 -241z" />
    <glyph glyph-name="quotedblbase" unicode="&#x201e;" horiz-adv-x="342" 
d="M5 -115l-60 -7c32 60 77 165 99 238l94 10c-37 -85 -98 -194 -133 -241zM160 -115l-60 -7c31 60 77 165 99 238l94 10c-37 -85 -98 -194 -133 -241z" />
    <glyph glyph-name="quotedblright" unicode="&#x201d;" horiz-adv-x="342" 
d="M161 682l91 10c-37 -84 -97 -192 -131 -238l-58 -6c31 59 76 162 98 234zM310 682l91 10c-37 -84 -97 -192 -131 -238l-58 -6c31 59 76 162 98 234z" />
    <glyph glyph-name="guillemotright" unicode="&#xbb;" horiz-adv-x="408" 
d="M159 255l-102 182h67l103 -184l-147 -185h-73zM322 255l-101 182h66l104 -184l-148 -185h-72z" />
    <glyph glyph-name="ellipsis" unicode="&#x2026;" horiz-adv-x="1000" 
d="M128 -10h-1c-33 0 -55 26 -55 59c0 37 26 67 63 67c34 0 56 -26 56 -60c0 -37 -26 -66 -63 -66zM461 -10h-1c-33 0 -55 26 -55 59c0 37 26 67 63 67c34 0 56 -26 56 -60c0 -37 -26 -66 -63 -66zM794 -10h-1c-33 0 -55 26 -55 59c0 37 26 67 63 67c34 0 56 -26 56 -60
c0 -37 -26 -66 -63 -66z" />
    <glyph glyph-name="perthousand" unicode="&#x2030;" horiz-adv-x="1124" 
d="M257 661h1c82 0 119 -66 119 -135c0 -142 -75 -263 -184 -263c-77 0 -123 58 -123 144c0 123 72 254 187 254zM248 608h-1c-67 0 -109 -114 -109 -202c0 -47 14 -90 63 -90c67 0 108 119 108 205c0 39 -12 87 -61 87zM186 -12h-60l491 674h60zM617 392h1
c82 0 119 -66 119 -136c0 -142 -75 -263 -184 -263c-76 0 -122 58 -122 145c0 122 72 254 186 254zM608 339h-1c-66 0 -108 -114 -108 -203c0 -47 14 -90 63 -90c67 0 107 119 107 206c0 39 -12 87 -61 87zM970 392h1c82 0 119 -66 119 -136c0 -142 -75 -263 -184 -263
c-76 0 -122 58 -122 145c0 122 72 254 186 254zM961 339h-1c-66 0 -108 -114 -108 -203c0 -47 14 -90 63 -90c67 0 107 119 107 206c0 39 -12 87 -61 87z" />
    <glyph glyph-name="questiondown" unicode="&#xbf;" horiz-adv-x="384" 
d="M191 285h81c-1 -8 -2 -17 -3 -26c-4 -54 -35 -115 -98 -181c-46 -47 -86 -94 -86 -146c0 -36 18 -71 76 -71c37 0 71 9 100 27l16 -61c-37 -21 -85 -36 -135 -36c-101 0 -143 68 -143 130c0 70 46 131 108 193c49 50 73 92 80 143zM261 488h1c32 0 54 -26 54 -58
c0 -37 -26 -67 -63 -67c-33 0 -55 26 -55 59c0 37 26 66 63 66z" />
    <glyph glyph-name="grave" unicode="`" 
d="M144 686h94l66 -143h-60z" />
    <glyph glyph-name="acute" unicode="&#xb4;" 
d="M300 686h100l-133 -143h-65z" />
    <glyph glyph-name="circumflex" unicode="&#x2c6;" 
d="M245 686h59l69 -143h-62l-43 91h-2l-70 -91h-67z" />
    <glyph glyph-name="tilde" unicode="&#x2dc;" 
d="M186 568h-48c7 58 34 100 77 100c26 0 40 -10 61 -22c15 -9 27 -17 40 -17c17 0 24 9 30 42h47c-8 -62 -30 -96 -77 -96c-23 0 -43 10 -59 20c-14 9 -27 18 -42 18c-17 0 -24 -19 -29 -45z" />
    <glyph glyph-name="macron" unicode="&#xaf;" 
d="M162 646h219l-10 -53h-219z" />
    <glyph glyph-name="macron" unicode="&#x2c9;" 
d="M162 646h219l-10 -53h-219z" />
    <glyph glyph-name="breve" unicode="&#x2d8;" 
d="M159 683h50c-2 -37 16 -68 55 -68c48 0 71 35 80 68h52c-12 -73 -65 -121 -134 -121c-88 0 -111 60 -103 121z" />
    <glyph glyph-name="dotaccent" unicode="&#x2d9;" 
d="M262 569h-1c-26 0 -46 21 -46 49c0 31 23 54 52 54s47 -22 47 -49c0 -31 -21 -54 -52 -54z" />
    <glyph glyph-name="dieresis" unicode="&#xa8;" 
d="M173 570h-1c-27 0 -47 21 -47 49c0 30 23 53 52 53s47 -22 47 -49c0 -29 -21 -53 -51 -53zM355 570h-1c-27 0 -46 21 -46 49c0 30 23 53 52 53s47 -22 47 -49c0 -29 -21 -53 -52 -53z" />
    <glyph glyph-name="ring" unicode="&#x2da;" horiz-adv-x="384" 
d="M271 720h1c53 0 95 -35 95 -91c-1 -58 -50 -95 -104 -95s-95 36 -96 88c-1 57 44 98 104 98zM268 682h-1c-29 0 -50 -25 -50 -58c0 -27 19 -52 48 -52c30 0 52 25 52 58c0 29 -19 52 -49 52z" />
    <glyph glyph-name="cedilla" unicode="&#xb8;" 
d="M132 2h53l-39 -53c32 -7 54 -31 54 -63c0 -56 -52 -87 -109 -87c-27 0 -52 8 -65 17l18 43c15 -9 34 -14 52 -14c23 0 44 12 44 36c0 21 -23 34 -66 38z" />
    <glyph glyph-name="hungarumlaut" unicode="&#x2dd;" 
d="M242 686h88l-125 -143h-56zM387 686h88l-126 -143h-55z" />
    <glyph glyph-name="ogonek" unicode="&#x2db;" 
d="M137 1h62c-36 -28 -74 -74 -74 -111c0 -23 14 -37 38 -37c16 0 31 4 44 10l9 -45c-25 -17 -53 -24 -81 -24c-49 0 -78 29 -78 72c0 59 53 112 80 135z" />
    <glyph glyph-name="caron" unicode="&#x2c7;" 
d="M284 543h-59l-70 143h62l43 -92h3l71 92h67z" />
    <glyph glyph-name="emdash" unicode="&#x2014;" horiz-adv-x="1000" 
d="M41 284h940l-12 -60h-940z" />
    <glyph glyph-name="AE" unicode="&#xc6;" horiz-adv-x="773" 
d="M37 0h-88l448 674h380l-14 -71h-251l-23 -218h238l-13 -70h-230l-26 -244h257l-13 -71h-329l24 238h-202zM238 307h165l21 195c3 32 7 75 12 109h-4c-18 -32 -41 -71 -64 -106z" />
    <glyph glyph-name="ordfeminine" unicode="&#xaa;" horiz-adv-x="350" 
d="M325 267h-59c0 18 1 41 4 64h-2c-28 -45 -70 -69 -116 -69c-57 0 -94 46 -94 114c0 108 74 215 214 215c33 0 76 -9 97 -17l-36 -206c-7 -37 -8 -75 -8 -101zM280 422l20 112c-12 5 -26 7 -45 7c-71 0 -131 -68 -131 -154c0 -37 14 -73 55 -73c44 0 90 49 101 108z" />
    <glyph glyph-name="Lslash" unicode="&#x141;" horiz-adv-x="448" 
d="M391 0h-354l51 269l-95 -61l13 68l95 61l64 337h83l-53 -278l142 93l-13 -69l-142 -92l-48 -256h271z" />
    <glyph glyph-name="Oslash" unicode="&#xd8;" horiz-adv-x="667" 
d="M64 -42l-41 39l77 88c-34 50 -52 104 -52 183c0 118 45 238 121 316c62 64 147 101 232 101c73 0 126 -19 166 -57l76 85l45 -36l-80 -91c34 -49 49 -108 49 -176c0 -118 -45 -244 -119 -322c-60 -62 -145 -99 -231 -99c-69 0 -123 19 -165 57zM160 155l357 412
c-27 30 -64 48 -124 48c-112 0 -206 -95 -242 -218c-23 -78 -25 -166 6 -242h3zM547 512l-354 -407c29 -30 66 -46 126 -46c101 0 193 85 232 207c23 73 31 165 -1 246h-3z" />
    <glyph glyph-name="OE" unicode="&#x152;" horiz-adv-x="867" 
d="M799 71l-13 -71h-324c-19 0 -39 -2 -62 -3c-21 -3 -43 -4 -72 -4c-192 0 -282 130 -282 284c0 204 138 404 408 404c31 0 52 -1 77 -3c28 -3 45 -4 67 -4h300l-13 -71h-269l-41 -217h253l-13 -70h-253l-46 -245h283zM433 71l100 532c-20 5 -40 8 -85 8
c-204 0 -314 -159 -314 -328c0 -120 59 -220 218 -220c30 0 54 3 81 8z" />
    <glyph glyph-name="ordmasculine" unicode="&#xba;" horiz-adv-x="345" 
d="M230 591h1c91 0 136 -63 136 -135c0 -110 -78 -194 -181 -194c-87 0 -134 64 -134 132c0 113 81 197 178 197zM224 541h-1c-58 0 -104 -69 -104 -145c0 -54 31 -85 73 -85c56 0 107 62 107 148c0 37 -15 82 -75 82z" />
    <glyph glyph-name="ae" unicode="&#xe6;" horiz-adv-x="718" 
d="M631 89l10 -60c-36 -22 -91 -40 -159 -40c-78 0 -137 39 -158 107h-2c-39 -67 -106 -107 -183 -107c-86 0 -132 56 -133 124c0 129 135 196 315 189l3 19c8 45 -11 111 -92 111c-49 0 -89 -16 -126 -40l-17 56c50 32 106 47 153 47c77 0 126 -37 138 -102h2
c42 68 113 102 184 102c94 0 139 -58 139 -116c0 -135 -150 -152 -322 -146c-7 -39 -9 -77 5 -112c19 -43 60 -65 111 -65c65 0 101 17 132 33zM301 189l9 54c-84 4 -220 -15 -220 -119c0 -43 28 -69 71 -69c60 0 123 45 140 134zM623 372v1c0 30 -24 58 -71 58
c-86 0 -142 -81 -157 -137c120 -4 228 1 228 78z" />
    <glyph glyph-name="dotlessi" unicode="&#x131;" horiz-adv-x="229" 
d="M111 0h-83l92 484h83z" />
    <glyph glyph-name="lslash" unicode="&#x142;" horiz-adv-x="237" 
d="M116 0h-82l54 284l-76 -54l13 68l76 53l68 359h83l-56 -293l79 57l-13 -68l-79 -56z" />
    <glyph glyph-name="oslash" unicode="&#xf8;" horiz-adv-x="523" 
d="M52 -38l-30 30l56 66c-31 37 -43 84 -43 136c0 155 112 301 266 301c51 0 89 -14 116 -35l55 61l33 -28l-55 -64c31 -41 43 -91 43 -133c0 -169 -121 -307 -261 -307c-56 0 -94 14 -123 39zM139 125l230 277c-17 18 -42 29 -77 29c-106 0 -172 -129 -172 -227
c0 -33 4 -56 17 -79h2zM390 359l-232 -275c19 -20 46 -31 81 -31c88 0 168 115 169 228c0 29 -5 54 -15 78h-3z" />
    <glyph glyph-name="oe" unicode="&#x153;" horiz-adv-x="800" 
d="M712 90l13 -61c-36 -22 -95 -40 -155 -40c-77 0 -139 37 -161 114h-3c-44 -77 -115 -114 -190 -114c-112 0 -182 88 -182 200c0 161 109 306 260 306c85 0 141 -47 159 -118h2c44 77 122 118 194 118c102 0 137 -65 137 -119c0 -138 -161 -156 -318 -157
c-7 -32 -3 -70 9 -98c18 -40 55 -64 110 -64s97 17 125 33zM231 55h1c103 0 168 140 168 240c0 67 -24 135 -107 135c-107 0 -173 -126 -173 -237c0 -81 43 -138 111 -138zM707 370v1c0 35 -27 60 -74 60c-79 0 -135 -78 -155 -149c112 1 229 9 229 88z" />
    <glyph glyph-name="germandbls" unicode="&#xdf;" horiz-adv-x="538" 
d="M111 0h-83l88 461c27 144 94 260 246 260c98 0 157 -62 157 -142c0 -43 -20 -87 -41 -107c-46 -17 -87 -47 -87 -93c0 -33 15 -54 37 -84c29 -39 51 -82 51 -130c0 -111 -90 -176 -197 -176c-40 0 -76 9 -100 23l23 63c23 -13 53 -20 77 -20c64 0 112 40 112 102
c0 26 -9 55 -37 92c-35 44 -51 78 -51 113c0 66 49 114 108 140c11 11 23 35 23 69c0 41 -25 82 -87 82c-73 0 -126 -61 -149 -180z" />
    <glyph glyph-name="onesuperior" unicode="&#xb9;" horiz-adv-x="228" 
d="M203 407h-69l63 328h-2l-72 -32l-6 49l100 44h60z" />
    <glyph glyph-name="logicalnot" unicode="&#xac;" horiz-adv-x="596" 
d="M49 399h501v-279h-63v220h-438v59z" />
    <glyph glyph-name="mu" unicode="&#xb5;" horiz-adv-x="525" 
d="M195 484l-53 -287c-16 -83 7 -138 81 -138c51 0 99 53 124 102c10 18 18 39 22 60l49 263h83l-65 -344c-12 -62 -3 -81 28 -84l-18 -63c-10 -3 -13 -4 -27 -4c-39 0 -67 25 -63 100h-3c-29 -51 -81 -98 -146 -98c-43 0 -82 19 -98 58l-12 -65c-9 -53 -23 -141 -20 -182
h-75c-5 28 1 100 17 180l94 502h82z" />
    <glyph glyph-name="trademark" unicode="&#x2122;" horiz-adv-x="669" 
d="M104 674h227v-45h-87v-227h-54v227h-86v45zM679 402h-54l-10 160c-1 21 -1 46 -2 76h-3c-7 -24 -15 -56 -23 -81l-49 -151h-56l-48 155c-5 20 -14 53 -20 77h-3c0 -25 -1 -52 -2 -76l-10 -160h-52l20 272h82l46 -133c7 -21 12 -41 18 -69h2c6 24 13 48 18 67l47 135h79z
" />
    <glyph glyph-name="Eth" unicode="&#xd0;" horiz-adv-x="654" 
d="M14 317l14 70h84l52 278c56 9 114 14 171 14c108 0 195 -31 244 -88c37 -38 64 -100 64 -184c0 -120 -51 -242 -140 -315c-75 -63 -175 -95 -301 -95c-60 0 -120 4 -163 9l59 311h-84zM361 387l-14 -70h-166l-47 -246c30 -4 62 -5 91 -5c94 0 177 32 234 90
c61 61 95 155 95 248c0 118 -58 207 -225 207c-31 0 -64 -1 -93 -5l-41 -219h166z" />
    <glyph glyph-name="onehalf" unicode="&#xbd;" horiz-adv-x="751" 
d="M195 267h-69l62 328h-1l-72 -32l-7 49l100 44h61zM140 -11h-61l488 672h61zM661 0h-263l7 40l73 58c93 75 156 129 156 188c0 26 -14 53 -60 53c-33 0 -66 -17 -84 -30l-16 44c31 24 75 42 121 42c71 0 112 -44 112 -100c0 -79 -80 -143 -165 -209l-36 -29v-2h165z" />
    <glyph glyph-name="plusminus" unicode="&#xb1;" horiz-adv-x="596" 
d="M275 572h62v-195h219v-59h-219v-201h-62v201h-219v59h219v195zM56 59h500v-59h-500v59z" />
    <glyph glyph-name="Thorn" unicode="&#xde;" horiz-adv-x="507" 
d="M32 0l128 674h81l-25 -132c22 5 49 7 80 7c66 0 119 -17 153 -52c30 -29 45 -68 45 -113c0 -153 -133 -233 -276 -233c-27 0 -54 2 -76 5l-29 -156h-81zM203 474l-47 -249c23 -5 47 -6 70 -6c98 0 184 61 184 155c0 75 -55 108 -133 108c-29 0 -60 -4 -74 -8z" />
    <glyph glyph-name="onequarter" unicode="&#xbc;" horiz-adv-x="751" 
d="M616 0h-66l19 103h-192l8 40l232 252h73l-46 -243h58l-9 -49h-58zM578 152l23 119c4 23 10 44 15 62h-2c-16 -21 -29 -40 -43 -56l-113 -124l1 -1h119zM198 267h-69l63 328h-2l-71 -32l-7 49l100 44h60zM159 -11h-62l486 672h62z" />
    <glyph glyph-name="divide" unicode="&#xf7;" horiz-adv-x="596" 
d="M306 386h-1c-31 0 -52 24 -52 55c0 33 22 56 53 56c32 0 53 -23 53 -56c0 -31 -21 -55 -53 -55zM556 237h-500v59h500v-59zM306 36h-1c-31 0 -52 24 -52 55c0 33 22 56 53 56c32 0 53 -23 53 -56c0 -31 -21 -55 -53 -55z" />
    <glyph glyph-name="brokenbar" unicode="&#xa6;" horiz-adv-x="217" 
d="M95 174h62v-350h-62v350zM95 674h62v-350h-62v350z" />
    <glyph glyph-name="degree" unicode="&#xb0;" horiz-adv-x="318" 
d="M225 685h1c79 0 127 -60 127 -125c0 -80 -67 -135 -133 -135c-76 0 -127 58 -127 127c0 73 60 133 132 133zM224 638h-1c-48 0 -76 -47 -76 -86c0 -45 33 -80 75 -80c43 0 77 38 77 86c0 35 -20 80 -75 80z" />
    <glyph glyph-name="thorn" unicode="&#xfe;" horiz-adv-x="526" 
d="M-15 -198l164 868h83l-53 -273h2c40 60 100 98 167 98c103 0 149 -82 149 -176c0 -176 -127 -330 -284 -330c-36 0 -79 8 -103 22h-3l-39 -209h-83zM146 216l-26 -136c21 -17 58 -26 94 -26c107 0 196 132 196 258c0 53 -23 114 -91 114c-64 0 -146 -70 -173 -210z" />
    <glyph glyph-name="threequarters" unicode="&#xbe;" horiz-adv-x="751" 
d="M193 -11h-62l486 672h62zM123 582l-10 45c25 18 68 34 111 34c72 0 110 -40 110 -86c0 -47 -39 -81 -91 -97v-2c41 -10 71 -45 71 -88c-1 -76 -68 -126 -164 -126c-46 0 -89 13 -109 29l22 47c17 -11 50 -25 87 -25c59 0 93 35 93 74c0 46 -44 65 -91 65h-19l8 45h21
c45 0 100 26 100 68c0 25 -15 45 -57 45c-29 0 -62 -14 -82 -28zM627 0h-66l19 103h-192l8 40l232 252h74l-46 -243h57l-9 -49h-58zM590 152l22 119c5 24 10 44 15 62h-2c-16 -21 -28 -39 -43 -56l-113 -124l1 -1h120z" />
    <glyph glyph-name="twosuperior" unicode="&#xb2;" horiz-adv-x="298" 
d="M310 407h-263l7 40l73 58c93 74 156 127 156 187c0 26 -14 53 -60 53c-33 0 -66 -17 -85 -30l-16 44c32 24 76 42 122 42c71 0 112 -44 112 -101c0 -79 -80 -143 -165 -208l-36 -28v-2h166z" />
    <glyph glyph-name="registered" unicode="&#xae;" horiz-adv-x="395" 
d="M226 499v-65h-38v164c15 2 36 5 63 5c32 0 46 -5 57 -13c10 -7 17 -19 17 -35c0 -20 -15 -33 -34 -39v-2c16 -5 24 -18 29 -40c5 -25 9 -34 12 -40h-40c-5 6 -8 20 -13 40c-3 17 -14 25 -35 25h-18zM227 573v-47h18c22 0 39 7 39 24c0 15 -11 25 -36 25
c-10 0 -17 -1 -21 -2zM253 683h1c93 0 166 -72 166 -164s-73 -165 -167 -165s-169 73 -169 165s75 164 169 164zM252 650h-1c-71 0 -125 -59 -125 -131c0 -73 54 -131 127 -131c72 -1 125 58 125 130c0 73 -53 132 -126 132z" />
    <glyph glyph-name="minus" unicode="&#x2212;" horiz-adv-x="596" 
d="M57 297h500v-59h-500v59z" />
    <glyph glyph-name="eth" unicode="&#xf0;" horiz-adv-x="516" 
d="M227 54h1c99 0 169 120 171 244c1 28 -1 52 -15 75c-16 26 -44 48 -92 48c-104 0 -173 -124 -173 -236c0 -71 36 -131 108 -131zM165 507l-17 42l128 58c-25 25 -57 46 -89 62l39 50c48 -22 83 -48 121 -80l130 59l18 -43l-112 -50c64 -70 103 -158 103 -269
c0 -213 -126 -347 -264 -347c-132 0 -189 95 -189 195c0 160 113 298 255 300c33 0 77 -8 105 -47l3 1c-18 53 -45 97 -85 136z" />
    <glyph glyph-name="multiply" unicode="&#xd7;" horiz-adv-x="596" 
d="M63 483l43 44l204 -222l205 222l43 -43l-207 -220l207 -220l-44 -44l-205 223l-205 -223l-41 45l205 219z" />
    <glyph glyph-name="threesuperior" unicode="&#xb3;" horiz-adv-x="291" 
d="M137 722l-11 45c25 18 68 34 111 34c72 0 110 -40 110 -86c0 -47 -39 -81 -90 -97v-2c41 -10 71 -45 71 -88c-1 -76 -68 -126 -164 -126c-46 0 -89 13 -109 29l22 47c17 -11 50 -25 87 -25c59 0 93 35 93 74c0 46 -44 65 -91 65h-20l8 45h21c45 0 100 26 100 68
c0 25 -15 45 -57 45c-29 0 -62 -14 -81 -28z" />
    <glyph glyph-name="copyright" unicode="&#xa9;" horiz-adv-x="675" 
d="M367 648h1c167 0 298 -138 298 -308c0 -172 -131 -310 -299 -310c-170 0 -303 138 -303 310c0 170 133 308 303 308zM366 607h-1c-141 0 -252 -117 -252 -270c0 -150 111 -266 253 -266c141 -2 251 116 251 269c0 150 -110 267 -251 267zM501 493l-12 -40
c-14 8 -50 24 -98 24c-93 0 -139 -60 -139 -140c0 -78 49 -141 140 -141c41 0 79 11 103 27l11 -38c-35 -24 -82 -32 -123 -32c-116 0 -183 79 -183 181c0 114 90 186 190 186c53 0 97 -15 111 -27z" />
    <glyph glyph-name="Aacute" unicode="&#xc1;" horiz-adv-x="568" 
d="M401 213h-233l-107 -213h-87l348 674h98l93 -674h-85zM199 279h196l-27 195c-3 35 -8 85 -11 124h-3c-18 -40 -35 -82 -55 -123zM424 828h108l-136 -118h-74z" />
    <glyph glyph-name="Acircumflex" unicode="&#xc2;" horiz-adv-x="568" 
d="M401 213h-233l-107 -213h-87l348 674h98l93 -674h-85zM199 279h196l-27 195c-3 35 -8 85 -11 124h-3c-18 -40 -35 -82 -55 -123zM357 828h65l80 -118h-68l-49 72h-2l-72 -72h-74z" />
    <glyph glyph-name="Adieresis" unicode="&#xc4;" horiz-adv-x="568" 
d="M401 213h-233l-107 -213h-87l348 674h98l93 -674h-85zM199 279h196l-27 195c-3 35 -8 85 -11 124h-3c-18 -40 -35 -82 -55 -123zM285 720h-1c-25 0 -46 21 -46 48c0 29 23 53 52 53s47 -24 47 -48c0 -29 -23 -53 -52 -53zM469 720h-1c-25 0 -46 21 -46 48
c0 29 23 53 52 53s47 -24 47 -48c0 -29 -23 -53 -52 -53z" />
    <glyph glyph-name="Agrave" unicode="&#xc0;" horiz-adv-x="568" 
d="M401 213h-233l-107 -213h-87l348 674h98l93 -674h-85zM199 279h196l-27 195c-3 35 -8 85 -11 124h-3c-18 -40 -35 -82 -55 -123zM234 828h103l75 -117h-68z" />
    <glyph glyph-name="Aring" unicode="&#xc5;" horiz-adv-x="568" 
d="M401 213h-233l-107 -213h-87l348 674h98l93 -674h-85zM199 279h196l-27 195c-3 35 -8 85 -11 124h-3c-18 -40 -35 -82 -55 -123zM385 873h1c55 0 94 -34 94 -87c-1 -56 -47 -91 -103 -91c-54 0 -93 34 -94 83c-1 55 42 95 102 95zM382 837h-1c-28 0 -47 -24 -47 -56
c0 -27 18 -50 45 -50c29 0 49 23 49 54c0 30 -17 52 -46 52z" />
    <glyph glyph-name="Atilde" unicode="&#xc3;" horiz-adv-x="568" 
d="M401 213h-233l-107 -213h-87l348 674h98l93 -674h-85zM199 279h196l-27 195c-3 35 -8 85 -11 124h-3c-18 -40 -35 -82 -55 -123zM292 715h-47c10 59 41 100 82 100c27 0 42 -9 60 -21c15 -10 29 -18 44 -18c16 0 27 13 35 40h46c-11 -62 -38 -96 -83 -96
c-26 0 -40 8 -60 20c-17 10 -27 19 -43 18c-16 0 -27 -16 -34 -43z" />
    <glyph glyph-name="Ccedilla" unicode="&#xc7;" horiz-adv-x="558" 
d="M486 91l11 -68c-35 -16 -92 -31 -152 -33l-31 -40c33 -8 54 -33 54 -65c0 -56 -55 -85 -108 -85c-28 0 -53 8 -67 18l18 41c15 -9 33 -14 51 -14c22 0 44 11 44 35c0 21 -21 35 -65 39l52 72c-156 11 -244 119 -244 279c0 126 51 248 144 324c70 59 156 90 254 90
c75 0 129 -19 146 -32l-27 -67c-25 15 -73 28 -132 28c-71 0 -142 -27 -194 -76c-64 -58 -103 -155 -103 -255c0 -121 56 -221 205 -221c51 0 107 11 144 30z" />
    <glyph glyph-name="Eacute" unicode="&#xc9;" horiz-adv-x="470" 
d="M433 387l-14 -70h-245l-46 -246h276l-14 -71h-359l128 674h344l-14 -71h-260l-41 -216h245zM388 828h108l-136 -118h-74z" />
    <glyph glyph-name="Ecircumflex" unicode="&#xca;" horiz-adv-x="470" 
d="M433 387l-14 -70h-245l-46 -246h276l-14 -71h-359l128 674h344l-14 -71h-260l-41 -216h245zM322 828h65l80 -118h-68l-49 72h-2l-72 -72h-74z" />
    <glyph glyph-name="Edieresis" unicode="&#xcb;" horiz-adv-x="470" 
d="M433 387l-14 -70h-245l-46 -246h276l-14 -71h-359l128 674h344l-14 -71h-260l-41 -216h245zM253 720h-1c-25 0 -46 21 -46 48c0 29 23 53 52 53s47 -24 47 -48c0 -29 -23 -53 -52 -53zM437 720h-1c-25 0 -46 21 -46 48c0 29 23 53 52 53s47 -24 47 -48
c0 -29 -23 -53 -52 -53z" />
    <glyph glyph-name="Egrave" unicode="&#xc8;" horiz-adv-x="470" 
d="M433 387l-14 -70h-245l-46 -246h276l-14 -71h-359l128 674h344l-14 -71h-260l-41 -216h245zM214 828h103l75 -117h-68z" />
    <glyph glyph-name="Iacute" unicode="&#xcd;" horiz-adv-x="233" 
d="M158 674h83l-128 -674h-83zM253 828h108l-136 -118h-74z" />
    <glyph glyph-name="Icircumflex" unicode="&#xce;" horiz-adv-x="233" 
d="M158 674h83l-128 -674h-83zM186 828h65l80 -118h-68l-49 72h-2l-72 -72h-74z" />
    <glyph glyph-name="Idieresis" unicode="&#xcf;" horiz-adv-x="233" 
d="M158 674h83l-128 -674h-83zM121 720h-1c-25 0 -46 21 -46 48c0 29 23 53 52 53s47 -24 47 -48c0 -29 -23 -53 -52 -53zM305 720h-1c-25 0 -46 21 -46 48c0 29 23 53 52 53s47 -24 47 -48c0 -29 -23 -53 -52 -53z" />
    <glyph glyph-name="Igrave" unicode="&#xcc;" horiz-adv-x="233" 
d="M158 674h83l-128 -674h-83zM79 828h103l75 -117h-68z" />
    <glyph glyph-name="Ntilde" unicode="&#xd1;" horiz-adv-x="632" 
d="M109 0h-78l128 674h91l154 -382c30 -77 45 -130 59 -188l2 1c4 61 11 117 29 211l68 358h78l-128 -674h-82l-154 381c-32 83 -47 130 -62 194l-3 -1c-7 -63 -18 -130 -35 -222zM331 716h-47c10 59 41 100 82 100c27 0 42 -9 60 -21c15 -10 29 -18 44 -18
c16 0 27 13 35 40h46c-11 -62 -38 -96 -83 -96c-26 0 -40 8 -60 20c-17 10 -27 19 -43 18c-16 0 -27 -16 -34 -43z" />
    <glyph glyph-name="Oacute" unicode="&#xd3;" horiz-adv-x="668" 
d="M305 -11h-1c-174 0 -256 131 -256 274c0 119 47 250 129 331c58 56 141 91 226 91c181 0 255 -132 255 -276c0 -117 -43 -246 -123 -326c-60 -59 -138 -94 -230 -94zM315 59h1c58 0 112 25 154 67c63 64 100 185 100 279c0 96 -31 210 -178 210c-60 0 -113 -26 -154 -67
c-65 -65 -102 -184 -102 -278c0 -110 48 -211 179 -211zM470 829h108l-136 -118h-74z" />
    <glyph glyph-name="Ocircumflex" unicode="&#xd4;" horiz-adv-x="668" 
d="M305 -11h-1c-174 0 -256 131 -256 274c0 119 47 250 129 331c58 56 141 91 226 91c181 0 255 -132 255 -276c0 -117 -43 -246 -123 -326c-60 -59 -138 -94 -230 -94zM315 59h1c58 0 112 25 154 67c63 64 100 185 100 279c0 96 -31 210 -178 210c-60 0 -113 -26 -154 -67
c-65 -65 -102 -184 -102 -278c0 -110 48 -211 179 -211zM402 828h65l80 -118h-68l-49 72h-2l-72 -72h-74z" />
    <glyph glyph-name="Odieresis" unicode="&#xd6;" horiz-adv-x="668" 
d="M305 -11h-1c-174 0 -256 131 -256 274c0 119 47 250 129 331c58 56 141 91 226 91c181 0 255 -132 255 -276c0 -117 -43 -246 -123 -326c-60 -59 -138 -94 -230 -94zM315 59h1c58 0 112 25 154 67c63 64 100 185 100 279c0 96 -31 210 -178 210c-60 0 -113 -26 -154 -67
c-65 -65 -102 -184 -102 -278c0 -110 48 -211 179 -211zM336 720h-1c-25 0 -46 21 -46 48c0 29 23 53 52 53s47 -24 47 -48c0 -29 -23 -53 -52 -53zM520 720h-1c-25 0 -46 21 -46 48c0 29 23 53 52 53s47 -24 47 -48c0 -29 -23 -53 -52 -53z" />
    <glyph glyph-name="Ograve" unicode="&#xd2;" horiz-adv-x="668" 
d="M305 -11h-1c-174 0 -256 131 -256 274c0 119 47 250 129 331c58 56 141 91 226 91c181 0 255 -132 255 -276c0 -117 -43 -246 -123 -326c-60 -59 -138 -94 -230 -94zM315 59h1c58 0 112 25 154 67c63 64 100 185 100 279c0 96 -31 210 -178 210c-60 0 -113 -26 -154 -67
c-65 -65 -102 -184 -102 -278c0 -110 48 -211 179 -211zM288 828h103l75 -117h-68z" />
    <glyph glyph-name="Otilde" unicode="&#xd5;" horiz-adv-x="668" 
d="M305 -11h-1c-174 0 -256 131 -256 274c0 119 47 250 129 331c58 56 141 91 226 91c181 0 255 -132 255 -276c0 -117 -43 -246 -123 -326c-60 -59 -138 -94 -230 -94zM315 59h1c58 0 112 25 154 67c63 64 100 185 100 279c0 96 -31 210 -178 210c-60 0 -113 -26 -154 -67
c-65 -65 -102 -184 -102 -278c0 -110 48 -211 179 -211zM344 716h-47c10 59 41 100 82 100c27 0 42 -9 60 -21c15 -10 29 -18 44 -18c16 0 27 13 35 40h46c-11 -62 -38 -96 -83 -96c-26 0 -40 8 -60 20c-17 10 -27 19 -43 18c-16 0 -27 -16 -34 -43z" />
    <glyph glyph-name="Scaron" unicode="&#x160;" horiz-adv-x="466" 
d="M12 37l30 68c36 -25 87 -43 143 -43c76 0 146 45 146 126c0 50 -28 87 -99 126c-86 46 -134 100 -134 173c0 120 104 197 228 197c66 0 115 -19 138 -35l-30 -68c-21 13 -63 33 -116 32c-84 0 -134 -55 -134 -110s34 -86 105 -125c83 -44 128 -97 128 -180
c0 -116 -91 -208 -243 -208c-68 1 -134 22 -162 47zM350 710h-65l-80 117h69l47 -72h3l72 72h74z" />
    <glyph glyph-name="Uacute" unicode="&#xda;" horiz-adv-x="621" 
d="M158 674h83l-76 -399c-5 -28 -8 -57 -8 -85c0 -86 50 -130 125 -130c92 0 159 62 188 214l77 400h83l-77 -403c-39 -201 -139 -282 -282 -282c-111 0 -197 60 -197 199c0 29 3 62 9 93zM438 828h108l-136 -118h-74z" />
    <glyph glyph-name="Ucircumflex" unicode="&#xdb;" horiz-adv-x="621" 
d="M158 674h83l-76 -399c-5 -28 -8 -57 -8 -85c0 -86 50 -130 125 -130c92 0 159 62 188 214l77 400h83l-77 -403c-39 -201 -139 -282 -282 -282c-111 0 -197 60 -197 199c0 29 3 62 9 93zM389 828h65l80 -118h-68l-49 72h-2l-72 -72h-74z" />
    <glyph glyph-name="Udieresis" unicode="&#xdc;" horiz-adv-x="621" 
d="M158 674h83l-76 -399c-5 -28 -8 -57 -8 -85c0 -86 50 -130 125 -130c92 0 159 62 188 214l77 400h83l-77 -403c-39 -201 -139 -282 -282 -282c-111 0 -197 60 -197 199c0 29 3 62 9 93zM313 720h-1c-25 0 -46 21 -46 48c0 29 23 53 52 53s47 -24 47 -48
c0 -29 -23 -53 -52 -53zM497 720h-1c-25 0 -46 21 -46 48c0 29 23 53 52 53s47 -24 47 -48c0 -29 -23 -53 -52 -53z" />
    <glyph glyph-name="Ugrave" unicode="&#xd9;" horiz-adv-x="621" 
d="M158 674h83l-76 -399c-5 -28 -8 -57 -8 -85c0 -86 50 -130 125 -130c92 0 159 62 188 214l77 400h83l-77 -403c-39 -201 -139 -282 -282 -282c-111 0 -197 60 -197 199c0 29 3 62 9 93zM273 828h103l75 -117h-68z" />
    <glyph glyph-name="Yacute" unicode="&#xdd;" horiz-adv-x="517" 
d="M243 0h-82l53 280l-130 394h89l65 -218c17 -60 23 -87 28 -113h2c17 28 40 66 72 116l146 215h97l-287 -393zM386 828h108l-136 -118h-74z" />
    <glyph glyph-name="Ydieresis" unicode="&#x178;" horiz-adv-x="517" 
d="M243 0h-82l53 280l-130 394h89l65 -218c17 -60 23 -87 28 -113h2c17 28 40 66 72 116l146 215h97l-287 -393zM252 720h-1c-25 0 -46 21 -46 48c0 29 23 53 52 53s47 -24 47 -48c0 -29 -23 -53 -52 -53zM436 720h-1c-25 0 -46 21 -46 48c0 29 23 53 52 53s47 -24 47 -48
c0 -29 -23 -53 -52 -53z" />
    <glyph glyph-name="Zcaron" unicode="&#x17d;" horiz-adv-x="523" 
d="M-20 0l9 51l458 549l-1 3h-320l14 71h432l-11 -53l-454 -547l1 -3h354l-13 -71h-469zM391 710h-65l-80 117h69l47 -72h3l72 72h74z" />
    <glyph glyph-name="aacute" unicode="&#xe1;" horiz-adv-x="522" 
d="M426 0h-77c0 29 5 75 11 125h-2c-53 -101 -120 -136 -188 -136c-86 0 -139 68 -139 160c0 169 124 346 335 346c46 0 96 -8 130 -18l-50 -253c-16 -84 -22 -170 -20 -224zM375 276l28 146c-12 4 -30 7 -58 7c-125 0 -228 -130 -228 -265c0 -54 19 -107 83 -107
c69 0 151 90 175 219zM395 686h100l-133 -143h-65z" />
    <glyph glyph-name="acircumflex" unicode="&#xe2;" horiz-adv-x="522" 
d="M426 0h-77c0 29 5 75 11 125h-2c-53 -101 -120 -136 -188 -136c-86 0 -139 68 -139 160c0 169 124 346 335 346c46 0 96 -8 130 -18l-50 -253c-16 -84 -22 -170 -20 -224zM375 276l28 146c-12 4 -30 7 -58 7c-125 0 -228 -130 -228 -265c0 -54 19 -107 83 -107
c69 0 151 90 175 219zM329 686h59l69 -143h-62l-43 91h-2l-70 -91h-67z" />
    <glyph glyph-name="adieresis" unicode="&#xe4;" horiz-adv-x="522" 
d="M426 0h-77c0 29 5 75 11 125h-2c-53 -101 -120 -136 -188 -136c-86 0 -139 68 -139 160c0 169 124 346 335 346c46 0 96 -8 130 -18l-50 -253c-16 -84 -22 -170 -20 -224zM375 276l28 146c-12 4 -30 7 -58 7c-125 0 -228 -130 -228 -265c0 -54 19 -107 83 -107
c69 0 151 90 175 219zM246 570h-1c-27 0 -47 21 -47 49c0 30 23 53 52 53s47 -22 47 -49c0 -29 -21 -53 -51 -53zM428 570h-1c-27 0 -46 21 -46 49c0 30 23 53 52 53s47 -22 47 -49c0 -29 -21 -53 -52 -53z" />
    <glyph glyph-name="agrave" unicode="&#xe0;" horiz-adv-x="522" 
d="M426 0h-77c0 29 5 75 11 125h-2c-53 -101 -120 -136 -188 -136c-86 0 -139 68 -139 160c0 169 124 346 335 346c46 0 96 -8 130 -18l-50 -253c-16 -84 -22 -170 -20 -224zM375 276l28 146c-12 4 -30 7 -58 7c-125 0 -228 -130 -228 -265c0 -54 19 -107 83 -107
c69 0 151 90 175 219zM226 686h94l66 -143h-60z" />
    <glyph glyph-name="aring" unicode="&#xe5;" horiz-adv-x="522" 
d="M426 0h-77c0 29 5 75 11 125h-2c-53 -101 -120 -136 -188 -136c-86 0 -139 68 -139 160c0 169 124 346 335 346c46 0 96 -8 130 -18l-50 -253c-16 -84 -22 -170 -20 -224zM375 276l28 146c-12 4 -30 7 -58 7c-125 0 -228 -130 -228 -265c0 -54 19 -107 83 -107
c69 0 151 90 175 219zM343 720h1c53 0 95 -35 95 -91c-1 -58 -50 -95 -104 -95s-95 36 -96 88c-1 57 44 98 104 98zM340 682h-1c-29 0 -50 -25 -50 -58c0 -27 19 -52 48 -52c30 0 52 25 52 58c0 29 -19 52 -49 52z" />
    <glyph glyph-name="atilde" unicode="&#xe3;" horiz-adv-x="522" 
d="M426 0h-77c0 29 5 75 11 125h-2c-53 -101 -120 -136 -188 -136c-86 0 -139 68 -139 160c0 169 124 346 335 346c46 0 96 -8 130 -18l-50 -253c-16 -84 -22 -170 -20 -224zM375 276l28 146c-12 4 -30 7 -58 7c-125 0 -228 -130 -228 -265c0 -54 19 -107 83 -107
c69 0 151 90 175 219zM259 568h-48c7 58 34 100 77 100c26 0 40 -10 61 -22c15 -9 27 -17 40 -17c17 0 24 9 30 42h47c-8 -62 -30 -96 -77 -96c-23 0 -43 10 -59 20c-14 9 -27 18 -42 18c-17 0 -24 -19 -29 -45z" />
    <glyph glyph-name="ccedilla" unicode="&#xe7;" horiz-adv-x="423" 
d="M352 85l8 -64c-21 -10 -61 -26 -106 -29l-31 -42c32 -8 54 -32 54 -65c0 -55 -53 -86 -108 -86c-27 0 -54 8 -67 17l18 43c16 -9 35 -14 53 -14c23 0 43 13 43 36c0 22 -22 35 -66 39l51 71c-117 7 -167 93 -167 186c0 165 122 318 297 318c45 0 86 -13 100 -22l-24 -65
c-19 9 -46 18 -82 18c-125 0 -205 -124 -205 -239c0 -77 41 -129 120 -129c52 0 88 16 112 27z" />
    <glyph glyph-name="eacute" unicode="&#xe9;" horiz-adv-x="453" 
d="M365 90l12 -62c-36 -20 -95 -38 -160 -38c-128 0 -184 87 -184 194c0 146 108 311 264 311c92 0 142 -55 142 -125c0 -127 -143 -160 -322 -157c-4 -21 -1 -66 10 -91c19 -44 58 -65 108 -65c57 0 100 17 130 33zM359 368v1c0 39 -30 61 -74 61c-79 0 -138 -77 -158 -153
c130 -2 232 16 232 91zM350 686h100l-133 -143h-65z" />
    <glyph glyph-name="ecircumflex" unicode="&#xea;" horiz-adv-x="453" 
d="M365 90l12 -62c-36 -20 -95 -38 -160 -38c-128 0 -184 87 -184 194c0 146 108 311 264 311c92 0 142 -55 142 -125c0 -127 -143 -160 -322 -157c-4 -21 -1 -66 10 -91c19 -44 58 -65 108 -65c57 0 100 17 130 33zM359 368v1c0 39 -30 61 -74 61c-79 0 -138 -77 -158 -153
c130 -2 232 16 232 91zM296 686h59l69 -143h-62l-43 91h-2l-70 -91h-67z" />
    <glyph glyph-name="edieresis" unicode="&#xeb;" horiz-adv-x="453" 
d="M365 90l12 -62c-36 -20 -95 -38 -160 -38c-128 0 -184 87 -184 194c0 146 108 311 264 311c92 0 142 -55 142 -125c0 -127 -143 -160 -322 -157c-4 -21 -1 -66 10 -91c19 -44 58 -65 108 -65c57 0 100 17 130 33zM359 368v1c0 39 -30 61 -74 61c-79 0 -138 -77 -158 -153
c130 -2 232 16 232 91zM222 570h-1c-27 0 -47 21 -47 49c0 30 23 53 52 53s47 -22 47 -49c0 -29 -21 -53 -51 -53zM404 570h-1c-27 0 -46 21 -46 49c0 30 23 53 52 53s47 -22 47 -49c0 -29 -21 -53 -52 -53z" />
    <glyph glyph-name="egrave" unicode="&#xe8;" horiz-adv-x="453" 
d="M365 90l12 -62c-36 -20 -95 -38 -160 -38c-128 0 -184 87 -184 194c0 146 108 311 264 311c92 0 142 -55 142 -125c0 -127 -143 -160 -322 -157c-4 -21 -1 -66 10 -91c19 -44 58 -65 108 -65c57 0 100 17 130 33zM359 368v1c0 39 -30 61 -74 61c-79 0 -138 -77 -158 -153
c130 -2 232 16 232 91zM190 686h94l66 -143h-60z" />
    <glyph glyph-name="iacute" unicode="&#xed;" horiz-adv-x="229" 
d="M111 0h-83l92 484h83zM223 686h100l-133 -143h-65z" />
    <glyph glyph-name="icircumflex" unicode="&#xee;" horiz-adv-x="229" 
d="M111 0h-83l92 484h83zM162 686h59l69 -143h-62l-43 91h-2l-70 -91h-67z" />
    <glyph glyph-name="idieresis" unicode="&#xef;" horiz-adv-x="229" 
d="M111 0h-83l92 484h83zM91 570h-1c-27 0 -47 21 -47 49c0 30 23 53 52 53s47 -22 47 -49c0 -29 -21 -53 -51 -53zM273 570h-1c-27 0 -46 21 -46 49c0 30 23 53 52 53s47 -22 47 -49c0 -29 -21 -53 -52 -53z" />
    <glyph glyph-name="igrave" unicode="&#xec;" horiz-adv-x="229" 
d="M111 0h-83l92 484h83zM50 686h94l66 -143h-60z" />
    <glyph glyph-name="ntilde" unicode="&#xf1;" horiz-adv-x="534" 
d="M111 0h-82l64 343c11 54 18 101 23 141h75l-13 -95h2c44 68 109 106 180 106c57 0 122 -33 122 -134c0 -22 -4 -52 -9 -78l-54 -283h-82l53 280c3 19 6 41 6 62c0 48 -19 84 -76 84c-59 0 -143 -71 -165 -191zM252 568h-48c7 58 34 100 77 100c26 0 40 -10 61 -22
c15 -9 27 -17 40 -17c17 0 24 9 30 42h47c-8 -62 -30 -96 -77 -96c-23 0 -43 10 -59 20c-14 9 -27 18 -42 18c-17 0 -24 -19 -29 -45z" />
    <glyph glyph-name="oacute" unicode="&#xf3;" horiz-adv-x="522" 
d="M225 -11h-1c-121 0 -189 90 -189 199c0 160 111 307 268 307c131 0 190 -99 190 -201c0 -150 -106 -305 -268 -305zM234 55h1c98 0 172 126 172 239c0 56 -26 135 -113 135c-104 0 -173 -127 -173 -238c0 -79 44 -136 113 -136zM366 686h100l-133 -143h-65z" />
    <glyph glyph-name="ocircumflex" unicode="&#xf4;" horiz-adv-x="522" 
d="M225 -11h-1c-121 0 -189 90 -189 199c0 160 111 307 268 307c131 0 190 -99 190 -201c0 -150 -106 -305 -268 -305zM234 55h1c98 0 172 126 172 239c0 56 -26 135 -113 135c-104 0 -173 -127 -173 -238c0 -79 44 -136 113 -136zM313 686h59l69 -143h-62l-43 91h-2
l-70 -91h-67z" />
    <glyph glyph-name="odieresis" unicode="&#xf6;" horiz-adv-x="522" 
d="M225 -11h-1c-121 0 -189 90 -189 199c0 160 111 307 268 307c131 0 190 -99 190 -201c0 -150 -106 -305 -268 -305zM234 55h1c98 0 172 126 172 239c0 56 -26 135 -113 135c-104 0 -173 -127 -173 -238c0 -79 44 -136 113 -136zM240 570h-1c-27 0 -47 21 -47 49
c0 30 23 53 52 53s47 -22 47 -49c0 -29 -21 -53 -51 -53zM422 570h-1c-27 0 -46 21 -46 49c0 30 23 53 52 53s47 -22 47 -49c0 -29 -21 -53 -52 -53z" />
    <glyph glyph-name="ograve" unicode="&#xf2;" horiz-adv-x="522" 
d="M225 -11h-1c-121 0 -189 90 -189 199c0 160 111 307 268 307c131 0 190 -99 190 -201c0 -150 -106 -305 -268 -305zM234 55h1c98 0 172 126 172 239c0 56 -26 135 -113 135c-104 0 -173 -127 -173 -238c0 -79 44 -136 113 -136zM195 686h94l66 -143h-60z" />
    <glyph glyph-name="otilde" unicode="&#xf5;" horiz-adv-x="522" 
d="M225 -11h-1c-121 0 -189 90 -189 199c0 160 111 307 268 307c131 0 190 -99 190 -201c0 -150 -106 -305 -268 -305zM234 55h1c98 0 172 126 172 239c0 56 -26 135 -113 135c-104 0 -173 -127 -173 -238c0 -79 44 -136 113 -136zM237 568h-48c7 58 34 100 77 100
c26 0 40 -10 61 -22c15 -9 27 -17 40 -17c17 0 24 9 30 42h47c-8 -62 -30 -96 -77 -96c-23 0 -43 10 -59 20c-14 9 -27 18 -42 18c-17 0 -24 -19 -29 -45z" />
    <glyph glyph-name="scaron" unicode="&#x161;" horiz-adv-x="373" 
d="M9 23l24 61c22 -14 64 -30 104 -30c56 0 92 36 92 79c0 38 -17 61 -68 89c-56 31 -87 74 -87 123c0 85 73 150 176 150c43 0 82 -12 100 -24l-23 -63c-17 10 -47 22 -83 22c-51 0 -87 -31 -87 -73c0 -35 23 -57 67 -81c54 -31 90 -73 90 -127c0 -102 -82 -159 -185 -159
c-52 1 -98 16 -120 33zM274 543h-59l-70 143h62l43 -92h3l71 92h67z" />
    <glyph glyph-name="uacute" unicode="&#xfa;" horiz-adv-x="526" 
d="M418 484h83l-66 -343c-10 -54 -17 -101 -21 -141h-75l13 91h-2c-44 -63 -107 -102 -171 -102c-62 0 -128 30 -128 140c0 23 3 50 9 82l53 273h82l-51 -270c-5 -27 -8 -50 -8 -71c0 -50 20 -84 77 -84c61 0 138 71 158 177zM360 686h100l-133 -143h-65z" />
    <glyph glyph-name="ucircumflex" unicode="&#xfb;" horiz-adv-x="526" 
d="M418 484h83l-66 -343c-10 -54 -17 -101 -21 -141h-75l13 91h-2c-44 -63 -107 -102 -171 -102c-62 0 -128 30 -128 140c0 23 3 50 9 82l53 273h82l-51 -270c-5 -27 -8 -50 -8 -71c0 -50 20 -84 77 -84c61 0 138 71 158 177zM315 686h59l69 -143h-62l-43 91h-2l-70 -91h-67
z" />
    <glyph glyph-name="udieresis" unicode="&#xfc;" horiz-adv-x="526" 
d="M418 484h83l-66 -343c-10 -54 -17 -101 -21 -141h-75l13 91h-2c-44 -63 -107 -102 -171 -102c-62 0 -128 30 -128 140c0 23 3 50 9 82l53 273h82l-51 -270c-5 -27 -8 -50 -8 -71c0 -50 20 -84 77 -84c61 0 138 71 158 177zM238 570h-1c-27 0 -47 21 -47 49
c0 30 23 53 52 53s47 -22 47 -49c0 -29 -21 -53 -51 -53zM420 570h-1c-27 0 -46 21 -46 49c0 30 23 53 52 53s47 -22 47 -49c0 -29 -21 -53 -52 -53z" />
    <glyph glyph-name="ugrave" unicode="&#xf9;" horiz-adv-x="526" 
d="M418 484h83l-66 -343c-10 -54 -17 -101 -21 -141h-75l13 91h-2c-44 -63 -107 -102 -171 -102c-62 0 -128 30 -128 140c0 23 3 50 9 82l53 273h82l-51 -270c-5 -27 -8 -50 -8 -71c0 -50 20 -84 77 -84c61 0 138 71 158 177zM195 686h94l66 -143h-60z" />
    <glyph glyph-name="yacute" unicode="&#xfd;" horiz-adv-x="441" 
d="M48 484h86l48 -260c11 -56 17 -92 22 -128h2c13 31 27 65 52 119l124 269h88l-182 -368c-52 -104 -101 -189 -167 -254c-54 -55 -113 -78 -140 -84l-21 72c21 7 56 20 89 46c33 25 68 64 94 112c4 8 4 13 2 22zM320 686h100l-133 -143h-65z" />
    <glyph glyph-name="ydieresis" unicode="&#xff;" horiz-adv-x="441" 
d="M48 484h86l48 -260c11 -56 17 -92 22 -128h2c13 31 27 65 52 119l124 269h88l-182 -368c-52 -104 -101 -189 -167 -254c-54 -55 -113 -78 -140 -84l-21 72c21 7 56 20 89 46c33 25 68 64 94 112c4 8 4 13 2 22zM190 570h-1c-27 0 -47 21 -47 49c0 30 23 53 52 53
s47 -22 47 -49c0 -29 -21 -53 -51 -53zM372 570h-1c-27 0 -46 21 -46 49c0 30 23 53 52 53s47 -22 47 -49c0 -29 -21 -53 -52 -53z" />
    <glyph glyph-name="zcaron" unicode="&#x17e;" horiz-adv-x="415" 
d="M-21 0l9 51l235 262c41 45 68 70 101 100v3h-248l14 68h347l-11 -55l-231 -258c-44 -47 -70 -72 -100 -100l-1 -3h269l-14 -68h-370zM301 543h-59l-70 143h62l43 -92h3l71 92h67z" />
    <glyph glyph-name="dollarsuperior" unicode="&#xf6e4;" horiz-adv-x="286" 
d="M190 355h-45l11 58c-33 1 -71 16 -89 31l21 49c22 -16 52 -29 92 -29c41 0 74 22 74 57c0 23 -13 43 -54 61c-51 24 -86 53 -86 98c0 58 49 104 116 110l12 57h45l-12 -57c33 -1 61 -13 74 -22l-22 -48c-13 8 -38 21 -77 21c-42 0 -66 -24 -66 -51c0 -23 16 -37 63 -60
c49 -23 77 -54 77 -99c0 -69 -55 -109 -122 -118z" />
    <glyph glyph-name="parenleftsuperior" unicode="&#x207d;" horiz-adv-x="181" 
d="M231 832h51c-62 -73 -123 -185 -123 -321c0 -54 8 -106 32 -164h-47c-24 48 -38 102 -38 164c0 143 63 254 125 321z" />
    <glyph glyph-name="parenrightsuperior" unicode="&#x207e;" horiz-adv-x="181" 
d="M92 347h-50c61 74 123 185 123 322c0 54 -9 105 -32 163h47c24 -47 39 -101 39 -163c0 -142 -64 -253 -127 -322z" />
    <glyph glyph-name="zerooldstyle" unicode="&#xf730;" horiz-adv-x="512" 
d="M218 -11h-1c-104 0 -181 78 -181 199c0 146 100 308 262 308c101 0 182 -80 182 -199c0 -149 -99 -308 -262 -308zM229 56h1c106 0 166 135 166 238c0 78 -40 135 -109 135c-109 0 -167 -137 -167 -238c0 -80 39 -135 109 -135z" />
    <glyph glyph-name="oneoldstyle" unicode="&#xf731;" horiz-adv-x="351" 
d="M300 487l-92 -487h-80l77 406h-2l-139 -67l-6 67l172 81h70z" />
    <glyph glyph-name="twooldstyle" unicode="&#xf732;" horiz-adv-x="444" 
d="M389 69l-12 -69h-392l9 47l102 68c142 96 208 160 208 227c0 59 -39 87 -91 87c-48 0 -96 -28 -121 -44l-22 51c38 30 98 62 172 62c81 0 149 -50 149 -143c0 -86 -65 -154 -201 -248l-58 -40v-2c24 2 55 4 77 4h180z" />
    <glyph glyph-name="threeoldstyle" unicode="&#xf733;" horiz-adv-x="427" 
d="M-26 -90l20 63c24 -10 68 -19 106 -19c100 0 176 49 176 125c0 65 -61 97 -127 97c-23 0 -41 -1 -58 -2l12 63c6 1 13 1 19 1c72 6 174 45 174 122c0 44 -35 68 -87 68c-47 0 -87 -16 -114 -31l-17 54c35 24 93 45 155 45c81 0 148 -44 148 -124
c-1 -81 -69 -132 -141 -152v-3c68 -13 122 -58 122 -133c0 -131 -132 -198 -256 -198c-56 0 -106 11 -132 24z" />
    <glyph glyph-name="fouroldstyle" unicode="&#xf734;" horiz-adv-x="496" 
d="M349 52l-31 -166h-77l31 166h-276l11 56l335 384h90l-70 -374h88l-13 -66h-88zM284 118l38 195c6 33 13 69 21 99h-3c-19 -31 -43 -63 -64 -89l-178 -201l1 -4h185z" />
    <glyph glyph-name="fiveoldstyle" unicode="&#xf735;" horiz-adv-x="421" 
d="M-15 -93l19 64c25 -10 64 -17 102 -17c96 0 175 51 175 137c0 27 -10 53 -29 71c-41 39 -129 44 -197 39l91 284h271l-24 -71h-198l-50 -151c66 2 136 -14 178 -57c28 -27 44 -64 44 -107c0 -131 -115 -213 -259 -213c-52 0 -101 11 -123 21z" />
    <glyph glyph-name="sixoldstyle" unicode="&#xf736;" horiz-adv-x="506" 
d="M231 56h1c74 0 143 75 143 167c0 70 -46 109 -102 109c-62 0 -102 -33 -125 -69c-16 -22 -23 -49 -23 -79c0 -77 42 -128 106 -128zM472 605l6 -63c-111 -11 -197 -50 -250 -103c-37 -36 -59 -73 -74 -113h2c31 34 83 67 153 67c80 0 151 -60 151 -161
c0 -134 -104 -243 -237 -243c-99 0 -180 67 -180 205c0 75 33 192 120 279c70 70 171 124 309 132z" />
    <glyph glyph-name="sevenoldstyle" unicode="&#xf737;" horiz-adv-x="443" 
d="M445 485l-10 -55c-61 -129 -234 -386 -363 -544l-80 20c105 120 282 371 350 505v2h-282l12 72h373z" />
    <glyph glyph-name="eightoldstyle" unicode="&#xf738;" horiz-adv-x="515" 
d="M307 607h1c101 0 171 -61 171 -143c0 -70 -52 -111 -125 -147v-2c64 -34 105 -83 105 -144c0 -114 -115 -182 -226 -182c-120 0 -198 64 -198 159c0 83 75 135 153 170v2c-50 27 -81 70 -81 121c0 97 94 166 200 166zM299 545h-1c-60 0 -112 -36 -112 -93
c0 -52 44 -84 105 -108c60 25 107 60 107 115c0 45 -32 86 -99 86zM237 52h1c74 0 134 49 134 111c0 57 -46 93 -120 125c-62 -24 -130 -67 -130 -135c0 -62 49 -101 115 -101z" />
    <glyph glyph-name="nineoldstyle" unicode="&#xf739;" horiz-adv-x="507" 
d="M233 153h1c49 0 99 31 128 71c13 17 23 48 23 80c0 84 -46 127 -109 127c-73 0 -139 -75 -139 -167c0 -71 42 -111 96 -111zM45 -112l-5 65c26 2 54 4 81 9c140 28 210 115 240 199l-3 1c-28 -35 -86 -69 -150 -69c-94 0 -156 66 -156 162c0 132 107 243 239 243
c104 0 177 -81 177 -206c0 -181 -117 -362 -356 -399c-24 -3 -47 -5 -67 -5z" />
    <glyph glyph-name="commasuperior" unicode="&#xf6e2;" horiz-adv-x="140" 
d="M78 338l-48 -5c22 43 49 106 63 155l73 6c-24 -56 -62 -121 -88 -156z" />
    <glyph glyph-name="periodsuperior" unicode="&#xf6e8;" horiz-adv-x="140" 
d="M114 401h-1c-22 0 -38 18 -38 41c0 27 18 48 46 48c24 0 40 -17 40 -42c0 -27 -19 -47 -47 -47z" />
    <glyph glyph-name="centsuperior" unicode="&#xf6e0;" horiz-adv-x="283" 
d="M226 397h-45l12 61c-34 5 -57 19 -73 41c-16 21 -24 48 -24 77c0 94 71 164 155 176l10 60h46l-11 -58c19 0 45 -7 57 -15l-21 -48c-14 7 -31 13 -59 13c-55 0 -108 -50 -108 -121c0 -46 29 -76 76 -76c26 0 46 7 62 14l6 -48c-16 -8 -45 -16 -71 -16z" />
    <glyph glyph-name="parenleftinferior" unicode="&#x208d;" horiz-adv-x="181" 
d="M125 282h51c-62 -73 -123 -185 -123 -321c0 -54 8 -106 32 -164h-47c-24 48 -38 102 -38 164c0 143 63 254 125 321z" />
    <glyph glyph-name="parenrightinferior" unicode="&#x208e;" horiz-adv-x="181" 
d="M-14 -203h-50c61 74 123 185 123 322c0 54 -9 105 -32 163h47c24 -47 39 -101 39 -163c0 -142 -64 -253 -127 -322z" />
    <glyph glyph-name="hyphensuperior" unicode="&#xf6e6;" horiz-adv-x="192" 
d="M95 612h152l-9 -47h-152z" />
    <glyph glyph-name="hypheninferior" unicode="&#xf6e5;" horiz-adv-x="192" 
d="M-11 62h152l-9 -47h-152z" />
    <glyph glyph-name="zerosuperior" unicode="&#x2070;" horiz-adv-x="323" 
d="M201 401h-1c-77 0 -112 59 -112 139c0 135 75 262 184 262c79 0 111 -61 111 -127c0 -139 -71 -274 -182 -274zM208 453h1c68 0 106 139 106 215c0 33 -7 82 -51 82c-63 0 -108 -125 -108 -211c0 -39 9 -86 52 -86z" />
    <glyph glyph-name="foursuperior" unicode="&#x2074;" horiz-adv-x="318" 
d="M290 407h-65l20 103h-180l8 40l216 248h76l-46 -239h55l-10 -49h-54zM255 559l22 116c4 22 10 45 15 64h-2c-16 -23 -29 -44 -44 -62l-101 -116l-1 -2h111z" />
    <glyph glyph-name="fivesuperior" unicode="&#x2075;" horiz-adv-x="295" 
d="M364 796l-12 -55h-142l-27 -85c9 1 16 1 23 1c18 0 46 -4 68 -15c39 -18 56 -54 56 -89c0 -97 -82 -152 -177 -152c-43 0 -79 12 -94 22l18 50c15 -9 45 -19 80 -19c55 0 101 38 101 88c0 36 -23 67 -97 67c-18 0 -32 -2 -49 -3l56 190h196z" />
    <glyph glyph-name="sixsuperior" unicode="&#x2076;" horiz-adv-x="320" 
d="M370 801l-9 -53c-11 1 -27 0 -42 -3c-74 -13 -125 -60 -148 -124l1 -1c22 27 61 46 94 46c69 0 103 -49 103 -109c0 -80 -67 -156 -156 -156c-80 0 -126 56 -126 133c0 91 52 171 106 212c35 25 77 43 124 50c17 3 36 5 53 5zM217 451h1c46 0 83 48 83 103
c0 40 -22 64 -61 64c-28 0 -57 -18 -75 -46c-4 -6 -7 -12 -8 -18c-3 -8 -3 -20 -3 -30c0 -42 22 -73 63 -73z" />
    <glyph glyph-name="sevensuperior" unicode="&#x2077;" horiz-adv-x="282" 
d="M123 796h254l-8 -43c-50 -78 -167 -253 -229 -346h-73c67 99 172 253 227 333l-1 2h-181z" />
    <glyph glyph-name="eightsuperior" unicode="&#x2078;" horiz-adv-x="323" 
d="M269 802h1c60 0 110 -32 110 -91c0 -44 -34 -77 -78 -97v-1c43 -22 62 -56 62 -91c0 -81 -80 -121 -152 -121c-80 0 -129 41 -129 98s44 96 94 114v2c-31 20 -46 45 -46 74c0 67 63 113 138 113zM217 448h1c42 0 76 28 76 69c0 35 -21 58 -66 72c-38 -9 -76 -34 -76 -81
c0 -31 22 -60 65 -60zM260 755h-1c-36 0 -63 -29 -63 -61c0 -26 16 -47 57 -60c34 10 63 34 63 69c0 23 -13 52 -56 52z" />
    <glyph glyph-name="ninesuperior" unicode="&#x2079;" horiz-adv-x="315" 
d="M90 401l8 54c11 -1 28 -1 45 1c27 3 54 14 81 33c29 21 54 52 70 92l-1 1c-24 -27 -60 -40 -90 -40c-66 0 -104 48 -104 105c0 82 71 156 156 156c81 0 120 -59 120 -131c0 -96 -55 -179 -104 -218c-38 -30 -86 -47 -132 -52c-17 -2 -35 -2 -49 -1zM249 752h-1
c-43 0 -81 -46 -81 -100c0 -34 20 -62 58 -62c30 0 55 16 72 39c4 5 7 11 8 18c2 9 4 22 4 34c0 40 -19 71 -60 71z" />
    <glyph glyph-name="zeroinferior" unicode="&#x2080;" horiz-adv-x="323" 
d="M95 -149h-1c-77 0 -112 59 -112 139c0 135 75 262 184 262c79 0 111 -61 111 -127c0 -139 -71 -274 -182 -274zM102 -97h1c68 0 106 139 106 215c0 33 -7 82 -51 82c-63 0 -108 -125 -108 -211c0 -39 9 -86 52 -86z" />
    <glyph glyph-name="oneinferior" unicode="&#x2081;" horiz-adv-x="228" 
d="M97 -143h-69l63 328h-2l-72 -32l-6 49l100 44h60z" />
    <glyph glyph-name="twoinferior" unicode="&#x2082;" horiz-adv-x="298" 
d="M204 -143h-263l7 40l73 58c93 74 156 127 156 187c0 26 -14 53 -60 53c-33 0 -66 -17 -85 -30l-16 44c32 24 76 42 122 42c71 0 112 -44 112 -101c0 -79 -80 -143 -165 -208l-36 -28v-2h166z" />
    <glyph glyph-name="threeinferior" unicode="&#x2083;" horiz-adv-x="291" 
d="M31 172l-11 45c25 18 68 34 111 34c72 0 110 -40 110 -86c0 -47 -39 -81 -90 -97v-2c41 -10 71 -45 71 -88c-1 -76 -68 -126 -164 -126c-46 0 -89 13 -109 29l22 47c17 -11 50 -25 87 -25c59 0 93 35 93 74c0 46 -44 65 -91 65h-20l8 45h21c45 0 100 26 100 68
c0 25 -15 45 -57 45c-29 0 -62 -14 -81 -28z" />
    <glyph glyph-name="fourinferior" unicode="&#x2084;" horiz-adv-x="318" 
d="M184 -143h-65l20 103h-180l8 40l216 248h76l-46 -239h55l-10 -49h-54zM149 9l22 116c4 22 10 45 15 64h-2c-16 -23 -29 -44 -44 -62l-101 -116l-1 -2h111z" />
    <glyph glyph-name="fiveinferior" unicode="&#x2085;" horiz-adv-x="295" 
d="M258 246l-12 -55h-142l-27 -85c9 1 16 1 23 1c18 0 46 -4 68 -15c39 -18 56 -54 56 -89c0 -97 -82 -152 -177 -152c-43 0 -79 12 -94 22l18 50c15 -9 45 -19 80 -19c55 0 101 38 101 88c0 36 -23 67 -97 67c-18 0 -32 -2 -49 -3l56 190h196z" />
    <glyph glyph-name="sixinferior" unicode="&#x2086;" horiz-adv-x="320" 
d="M264 251l-9 -53c-11 1 -27 0 -42 -3c-74 -13 -125 -60 -148 -124l1 -1c22 27 61 46 94 46c69 0 103 -49 103 -109c0 -80 -67 -156 -156 -156c-80 0 -126 56 -126 133c0 91 52 171 106 212c35 25 77 43 124 50c17 3 36 5 53 5zM111 -99h1c46 0 83 48 83 103
c0 40 -22 64 -61 64c-28 0 -57 -18 -75 -46c-4 -6 -7 -12 -8 -18c-3 -8 -3 -20 -3 -30c0 -42 22 -73 63 -73z" />
    <glyph glyph-name="seveninferior" unicode="&#x2087;" horiz-adv-x="282" 
d="M17 246h254l-8 -43c-50 -78 -167 -253 -229 -346h-73c67 99 172 253 227 333l-1 2h-181z" />
    <glyph glyph-name="eightinferior" unicode="&#x2088;" horiz-adv-x="323" 
d="M163 252h1c60 0 110 -32 110 -91c0 -44 -34 -77 -78 -97v-1c43 -22 62 -56 62 -91c0 -81 -80 -121 -152 -121c-80 0 -129 41 -129 98s44 96 94 114v2c-31 20 -46 45 -46 74c0 67 63 113 138 113zM111 -102h1c42 0 76 28 76 69c0 35 -21 58 -66 72c-38 -9 -76 -34 -76 -81
c0 -31 22 -60 65 -60zM154 205h-1c-36 0 -63 -29 -63 -61c0 -26 16 -47 57 -60c34 10 63 34 63 69c0 23 -13 52 -56 52z" />
    <glyph glyph-name="nineinferior" unicode="&#x2089;" horiz-adv-x="315" 
d="M-16 -149l8 54c11 -1 28 -1 45 1c27 3 54 14 81 33c29 21 54 52 70 92l-1 1c-24 -27 -60 -40 -90 -40c-66 0 -104 48 -104 105c0 82 71 156 156 156c81 0 120 -59 120 -131c0 -96 -55 -179 -104 -218c-38 -30 -86 -47 -132 -52c-17 -2 -35 -2 -49 -1zM143 202h-1
c-43 0 -81 -46 -81 -100c0 -34 20 -62 58 -62c30 0 55 16 72 39c4 5 7 11 8 18c2 9 4 22 4 34c0 40 -19 71 -60 71z" />
    <glyph glyph-name="centinferior" unicode="&#xf6df;" horiz-adv-x="283" 
d="M120 -153h-45l12 61c-34 5 -57 19 -73 41c-16 21 -24 48 -24 77c0 94 71 164 155 176l10 60h46l-11 -58c19 0 45 -7 57 -15l-21 -48c-14 7 -31 13 -59 13c-55 0 -108 -50 -108 -121c0 -46 29 -76 76 -76c26 0 46 7 62 14l6 -48c-16 -8 -45 -16 -71 -16z" />
    <glyph glyph-name="dollarinferior" unicode="&#xf6e3;" horiz-adv-x="286" 
d="M84 -195h-45l11 58c-33 1 -71 16 -89 31l21 49c22 -16 52 -29 92 -29c41 0 74 22 74 57c0 23 -13 43 -54 61c-51 24 -86 53 -86 98c0 58 49 104 116 110l12 57h45l-12 -57c33 -1 61 -13 74 -22l-22 -48c-13 8 -38 21 -77 21c-42 0 -66 -24 -66 -51c0 -23 16 -37 63 -60
c49 -23 77 -54 77 -99c0 -69 -55 -109 -122 -118z" />
    <glyph glyph-name="periodinferior" unicode="&#xf6e7;" horiz-adv-x="140" 
d="M8 -149h-1c-22 0 -38 18 -38 41c0 27 18 48 46 48c24 0 40 -17 40 -42c0 -27 -19 -47 -47 -47z" />
    <glyph glyph-name="commainferior" unicode="&#xf6e1;" horiz-adv-x="140" 
d="M-28 -212l-48 -5c22 43 49 106 63 155l73 6c-24 -56 -62 -121 -88 -156z" />
    <glyph glyph-name="commaaccent" unicode="&#xf6c3;" 
d="M49 -221l-10 42c41 6 87 29 87 75c0 21 -11 38 -24 49l66 13c14 -10 28 -33 28 -59c0 -78 -77 -114 -147 -120z" />
    <glyph glyph-name="Abreve" unicode="&#x102;" horiz-adv-x="568" 
d="M401 213h-233l-107 -213h-87l348 674h98l93 -674h-85zM199 279h196l-27 195c-3 35 -8 85 -11 124h-3c-18 -40 -35 -82 -55 -123zM270 824h52c-1 -28 14 -54 61 -54c45 0 68 24 75 54h55c-10 -57 -52 -106 -134 -106c-86 0 -116 49 -109 106z" />
    <glyph glyph-name="Amacron" unicode="&#x100;" horiz-adv-x="568" 
d="M401 213h-233l-107 -213h-87l348 674h98l93 -674h-85zM199 279h196l-27 195c-3 35 -8 85 -11 124h-3c-18 -40 -35 -82 -55 -123zM272 787h231l-10 -54h-231z" />
    <glyph glyph-name="Aogonek" unicode="&#x104;" horiz-adv-x="568" 
d="M419 674l94 -674h-33c-30 -34 -54 -75 -54 -107c0 -24 16 -40 40 -40c14 0 30 4 43 10l9 -44c-22 -19 -53 -25 -80 -25c-51 0 -80 30 -80 77c0 53 50 110 68 133l-25 209h-233l-107 -213h-87l348 674h97zM198 279h196l-26 195c-3 35 -8 85 -12 124h-2
c-18 -40 -35 -82 -55 -123z" />
    <glyph glyph-name="AEacute" unicode="&#x1fc;" horiz-adv-x="773" 
d="M37 0h-88l448 674h380l-14 -71h-251l-23 -218h238l-13 -70h-230l-26 -244h257l-13 -71h-329l24 238h-202zM238 307h165l21 195c3 32 7 75 12 109h-4c-18 -32 -41 -71 -64 -106zM587 828h108l-136 -118h-74z" />
    <glyph glyph-name="Cacute" unicode="&#x106;" horiz-adv-x="555" 
d="M486 90l11 -68c-38 -17 -99 -32 -175 -32c-170 0 -273 107 -273 279c0 127 51 248 143 325c70 59 156 90 255 90c74 0 128 -19 146 -32l-27 -67c-25 15 -73 28 -133 28c-70 0 -141 -27 -193 -75c-63 -60 -103 -155 -103 -257c0 -120 55 -220 205 -220c51 0 107 10 144 29
zM461 832h108l-136 -118h-74z" />
    <glyph glyph-name="Ccaron" unicode="&#x10c;" horiz-adv-x="555" 
d="M486 90l11 -68c-38 -17 -99 -32 -175 -32c-170 0 -273 107 -273 279c0 127 51 248 143 325c70 59 156 90 255 90c74 0 128 -19 146 -32l-27 -67c-25 15 -73 28 -133 28c-70 0 -141 -27 -193 -75c-63 -60 -103 -155 -103 -257c0 -120 55 -220 205 -220c51 0 107 10 144 29
zM446 714h-65l-80 117h69l47 -72h3l72 72h74z" />
    <glyph glyph-name="Ccircumflex" unicode="&#x108;" horiz-adv-x="555" 
d="M486 90l11 -68c-38 -17 -99 -32 -175 -32c-170 0 -273 107 -273 279c0 127 51 248 143 325c70 59 156 90 255 90c74 0 128 -19 146 -32l-27 -67c-25 15 -73 28 -133 28c-70 0 -141 -27 -193 -75c-63 -60 -103 -155 -103 -257c0 -120 55 -220 205 -220c51 0 107 10 144 29
zM399 829h65l80 -118h-68l-49 72h-2l-72 -72h-74z" />
    <glyph glyph-name="Cdotaccent" unicode="&#x10a;" horiz-adv-x="555" 
d="M486 90l11 -68c-38 -17 -99 -32 -175 -32c-170 0 -273 107 -273 279c0 127 51 248 143 325c70 59 156 90 255 90c74 0 128 -19 146 -32l-27 -67c-25 15 -73 28 -133 28c-70 0 -141 -27 -193 -75c-63 -60 -103 -155 -103 -257c0 -120 55 -220 205 -220c51 0 107 10 144 29
zM431 721h-1c-26 0 -47 22 -47 49c0 28 23 53 52 53s48 -24 48 -49c0 -29 -23 -53 -52 -53z" />
    <glyph glyph-name="Dcaron" unicode="&#x10e;" horiz-adv-x="647" 
d="M33 4l125 661c52 9 109 14 168 14c112 0 198 -32 248 -90c36 -37 63 -98 63 -183c0 -122 -49 -243 -135 -317c-78 -65 -176 -94 -306 -94c-59 0 -120 3 -163 9zM230 604l-102 -535c30 -4 62 -5 87 -5c107 0 185 31 241 89c61 62 92 154 92 249c0 120 -58 209 -226 209
c-30 0 -68 -2 -92 -7zM403 710h-65l-80 117h69l47 -72h3l72 72h74z" />
    <glyph glyph-name="Dcroat" unicode="&#x110;" horiz-adv-x="654" 
d="M14 317l14 70h84l52 278c56 9 114 14 171 14c108 0 195 -31 244 -88c37 -38 64 -100 64 -184c0 -120 -51 -242 -140 -315c-75 -63 -175 -95 -301 -95c-60 0 -120 4 -163 9l59 311h-84zM361 387l-14 -70h-166l-47 -246c30 -4 62 -5 91 -5c94 0 177 32 234 90
c61 61 95 155 95 248c0 118 -58 207 -225 207c-31 0 -64 -1 -93 -5l-41 -219h166z" />
    <glyph glyph-name="Ebreve" unicode="&#x114;" horiz-adv-x="470" 
d="M433 387l-14 -70h-245l-46 -246h276l-14 -71h-359l128 674h344l-14 -71h-260l-41 -216h245zM227 830h52c-1 -28 14 -54 61 -54c45 0 68 24 75 54h55c-10 -57 -52 -106 -134 -106c-86 0 -116 49 -109 106z" />
    <glyph glyph-name="Ecaron" unicode="&#x11a;" horiz-adv-x="470" 
d="M433 387l-14 -70h-245l-46 -246h276l-14 -71h-359l128 674h344l-14 -71h-260l-41 -216h245zM363 710h-65l-80 117h69l47 -72h3l72 72h74z" />
    <glyph glyph-name="Edotaccent" unicode="&#x116;" horiz-adv-x="470" 
d="M433 387l-14 -70h-245l-46 -246h276l-14 -71h-359l128 674h344l-14 -71h-260l-41 -216h245zM341 720h-1c-26 0 -47 22 -47 49c0 28 23 53 52 53s48 -24 48 -49c0 -29 -23 -53 -52 -53z" />
    <glyph glyph-name="Emacron" unicode="&#x112;" horiz-adv-x="470" 
d="M433 387l-14 -70h-245l-46 -246h276l-14 -71h-359l128 674h344l-14 -71h-260l-41 -216h245zM231 787h231l-10 -54h-231z" />
    <glyph glyph-name="Eng" unicode="&#x14a;" horiz-adv-x="632" 
d="M291 -196l-6 67c75 6 124 40 144 128l-153 382c-33 83 -47 130 -62 194l-3 -1c-7 -63 -18 -130 -35 -222l-67 -352h-78l128 674h91l154 -382c30 -76 45 -130 59 -188l2 2c4 60 11 116 29 210l68 358h78l-123 -647c-33 -176 -120 -219 -226 -223z" />
    <glyph glyph-name="Eogonek" unicode="&#x118;" horiz-adv-x="470" 
d="M32 0l128 674h343l-14 -71h-260l-41 -216h245l-14 -70h-244l-47 -246h276l-14 -71h-17c-46 -30 -87 -77 -87 -116c0 -20 12 -32 32 -32c16 0 32 4 45 10l12 -45c-25 -17 -52 -24 -82 -24c-48 0 -76 30 -76 71c0 58 56 111 91 136h-276z" />
    <glyph glyph-name="Gbreve" unicode="&#x11e;" horiz-adv-x="623" 
d="M588 352l-61 -323c-39 -16 -111 -36 -190 -36c-95 0 -169 27 -220 84c-51 56 -68 130 -68 196c0 112 45 230 131 308c73 63 170 100 278 100c82 0 138 -19 159 -31l-28 -70c-34 17 -80 29 -141 29c-80 0 -153 -29 -209 -82c-63 -59 -101 -156 -101 -247
c0 -130 65 -216 215 -216c40 0 78 8 102 19l39 201h-137l13 68h218zM315 831h52c-1 -28 14 -54 61 -54c45 0 68 24 75 54h55c-10 -57 -52 -106 -134 -106c-86 0 -116 49 -109 106z" />
    <glyph glyph-name="Gcircumflex" unicode="&#x11c;" horiz-adv-x="623" 
d="M588 352l-61 -323c-39 -16 -111 -36 -190 -36c-95 0 -169 27 -220 84c-51 56 -68 130 -68 196c0 112 45 230 131 308c73 63 170 100 278 100c82 0 138 -19 159 -31l-28 -70c-34 17 -80 29 -141 29c-80 0 -153 -29 -209 -82c-63 -59 -101 -156 -101 -247
c0 -130 65 -216 215 -216c40 0 78 8 102 19l39 201h-137l13 68h218zM419 828h65l80 -118h-68l-49 72h-2l-72 -72h-74z" />
    <glyph glyph-name="Gcommaaccent" unicode="&#x122;" horiz-adv-x="623" 
d="M588 352l-61 -323c-39 -16 -111 -36 -190 -36c-95 0 -169 27 -220 84c-51 56 -68 130 -68 196c0 112 45 230 131 308c73 63 170 100 278 100c82 0 138 -19 159 -31l-28 -70c-34 17 -80 29 -141 29c-80 0 -153 -29 -209 -82c-63 -59 -101 -156 -101 -247
c0 -130 65 -216 215 -216c40 0 78 8 102 19l39 201h-137l13 68h218zM193 -221l-10 42c41 6 87 29 87 75c0 21 -11 38 -24 49l66 13c14 -10 28 -33 28 -59c0 -78 -77 -114 -147 -120z" />
    <glyph glyph-name="Gdotaccent" unicode="&#x120;" horiz-adv-x="623" 
d="M588 352l-61 -323c-39 -16 -111 -36 -190 -36c-95 0 -169 27 -220 84c-51 56 -68 130 -68 196c0 112 45 230 131 308c73 63 170 100 278 100c82 0 138 -19 159 -31l-28 -70c-34 17 -80 29 -141 29c-80 0 -153 -29 -209 -82c-63 -59 -101 -156 -101 -247
c0 -130 65 -216 215 -216c40 0 78 8 102 19l39 201h-137l13 68h218zM443 720h-1c-26 0 -47 22 -47 49c0 28 23 53 52 53s48 -24 48 -49c0 -29 -23 -53 -52 -53z" />
    <glyph glyph-name="Hbar" unicode="&#x126;" horiz-adv-x="627" 
d="M515 480h-310l-20 -103h310zM60 536h73l26 138h83l-26 -138h310l26 138h83l-26 -138h65l-11 -56h-65l-91 -480h-83l57 304h-310l-57 -304h-83l91 480h-73z" />
    <glyph glyph-name="Hcircumflex" unicode="&#x124;" horiz-adv-x="627" 
d="M159 674h83l-54 -284h310l54 284h83l-128 -674h-83l59 317h-309l-60 -317h-83zM391 828h65l80 -118h-68l-49 72h-2l-72 -72h-74z" />
    <glyph glyph-name="Ibreve" unicode="&#x12c;" horiz-adv-x="233" 
d="M158 674h83l-128 -674h-83zM107 833h52c-1 -28 14 -54 61 -54c45 0 68 24 75 54h55c-10 -57 -52 -106 -134 -106c-86 0 -116 49 -109 106z" />
    <glyph glyph-name="IJ" unicode="&#x132;" horiz-adv-x="597" 
d="M158 674h83l-128 -674h-83zM443 220l86 454h83l-88 -464c-30 -157 -96 -221 -222 -221c-41 0 -83 9 -100 18l18 71c22 -10 49 -15 85 -15c71 0 115 37 138 157z" />
    <glyph glyph-name="Imacron" unicode="&#x12a;" horiz-adv-x="233" 
d="M158 674h83l-128 -674h-83zM106 787h231l-10 -54h-231z" />
    <glyph glyph-name="Iogonek" unicode="&#x12e;" horiz-adv-x="233" 
d="M241 674l-129 -674h-28c-30 -34 -54 -75 -54 -107c0 -24 16 -40 40 -40c14 0 30 4 43 10l9 -44c-22 -19 -53 -25 -80 -25c-51 0 -80 30 -80 77c0 53 50 110 68 133l128 670h83z" />
    <glyph glyph-name="Itilde" unicode="&#x128;" horiz-adv-x="233" 
d="M158 674h83l-128 -674h-83zM131 715h-47c10 59 41 100 82 100c27 0 42 -9 60 -21c15 -10 29 -18 44 -18c16 0 27 13 35 40h46c-11 -62 -38 -96 -83 -96c-26 0 -40 8 -60 20c-17 10 -27 19 -43 18c-16 0 -27 -16 -34 -43z" />
    <glyph glyph-name="Jcircumflex" unicode="&#x134;" horiz-adv-x="364" 
d="M210 220l86 454h83l-88 -464c-30 -157 -96 -221 -222 -221c-41 0 -83 9 -100 18l18 71c22 -10 49 -15 85 -15c71 0 115 37 138 157zM331 828h65l80 -118h-68l-49 72h-2l-72 -72h-74z" />
    <glyph glyph-name="Kcommaaccent" unicode="&#x136;" horiz-adv-x="515" 
d="M31 0l128 674h82l-62 -328l4 1c24 28 46 52 67 75l237 252h104l-284 -290l173 -384h-90l-147 331l-81 -75l-49 -256h-82zM115 -221l-10 42c41 6 87 29 87 75c0 21 -11 38 -24 49l66 13c14 -10 28 -33 28 -59c0 -78 -77 -114 -147 -120z" />
    <glyph glyph-name="Lacute" unicode="&#x139;" horiz-adv-x="442" 
d="M31 0l128 674h83l-115 -602h272l-14 -72h-354zM281 828h108l-136 -118h-74z" />
    <glyph glyph-name="Lcaron" unicode="&#x13d;" horiz-adv-x="442" 
d="M31 0l128 674h83l-115 -602h272l-14 -72h-354zM288 499l-10 42c41 6 87 29 87 75c0 21 -11 38 -24 49l66 13c14 -10 28 -33 28 -59c0 -78 -77 -114 -147 -120z" />
    <glyph glyph-name="Lcommaaccent" unicode="&#x13b;" horiz-adv-x="442" 
d="M31 0l128 674h83l-115 -602h272l-14 -72h-354zM93 -221l-10 42c41 6 87 29 87 75c0 21 -11 38 -24 49l66 13c14 -10 28 -33 28 -59c0 -78 -77 -114 -147 -120z" />
    <glyph glyph-name="Ldot" unicode="&#x13f;" horiz-adv-x="443" 
d="M31 0l128 674h83l-115 -602h272l-14 -72h-354zM337 315h-1c-26 0 -47 22 -47 49c0 28 23 53 52 53s48 -24 48 -49c0 -29 -23 -53 -52 -53z" />
    <glyph glyph-name="Nacute" unicode="&#x143;" horiz-adv-x="632" 
d="M109 0h-78l128 674h91l154 -382c30 -77 45 -130 59 -188l2 1c4 61 11 117 29 211l68 358h78l-128 -674h-82l-154 381c-32 83 -47 130 -62 194l-3 -1c-7 -63 -18 -130 -35 -222zM450 828h108l-136 -118h-74z" />
    <glyph glyph-name="Ncaron" unicode="&#x147;" horiz-adv-x="632" 
d="M109 0h-78l128 674h91l154 -382c30 -77 45 -130 59 -188l2 1c4 61 11 117 29 211l68 358h78l-128 -674h-82l-154 381c-32 83 -47 130 -62 194l-3 -1c-7 -63 -18 -130 -35 -222zM440 710h-65l-80 117h69l47 -72h3l72 72h74z" />
    <glyph glyph-name="Ncommaaccent" unicode="&#x145;" horiz-adv-x="632" 
d="M109 0h-78l128 674h91l154 -382c30 -77 45 -130 59 -188l2 1c4 61 11 117 29 211l68 358h78l-128 -674h-82l-154 381c-32 83 -47 130 -62 194l-3 -1c-7 -63 -18 -130 -35 -222zM182 -221l-10 42c41 6 87 29 87 75c0 21 -11 38 -24 49l66 13c14 -10 28 -33 28 -59
c0 -78 -77 -114 -147 -120z" />
    <glyph glyph-name="Obreve" unicode="&#x14e;" horiz-adv-x="668" 
d="M305 -11h-1c-174 0 -256 131 -256 274c0 119 47 250 129 331c58 56 141 91 226 91c181 0 255 -132 255 -276c0 -117 -43 -246 -123 -326c-60 -59 -138 -94 -230 -94zM315 59h1c58 0 112 25 154 67c63 64 100 185 100 279c0 96 -31 210 -178 210c-60 0 -113 -26 -154 -67
c-65 -65 -102 -184 -102 -278c0 -110 48 -211 179 -211zM322 834h52c-1 -28 14 -54 61 -54c45 0 68 24 75 54h55c-10 -57 -52 -106 -134 -106c-86 0 -116 49 -109 106z" />
    <glyph glyph-name="Ohungarumlaut" unicode="&#x150;" horiz-adv-x="668" 
d="M305 -11h-1c-174 0 -256 131 -256 274c0 119 47 250 129 331c58 56 141 91 226 91c181 0 255 -132 255 -276c0 -117 -43 -246 -123 -326c-60 -59 -138 -94 -230 -94zM315 59h1c58 0 112 25 154 67c63 64 100 185 100 279c0 96 -31 210 -178 210c-60 0 -113 -26 -154 -67
c-65 -65 -102 -184 -102 -278c0 -110 48 -211 179 -211zM397 828h95l-127 -113h-64zM545 828h95l-127 -113h-64z" />
    <glyph glyph-name="Omacron" unicode="&#x14c;" horiz-adv-x="668" 
d="M305 -11h-1c-174 0 -256 131 -256 274c0 119 47 250 129 331c58 56 141 91 226 91c181 0 255 -132 255 -276c0 -117 -43 -246 -123 -326c-60 -59 -138 -94 -230 -94zM315 59h1c58 0 112 25 154 67c63 64 100 185 100 279c0 96 -31 210 -178 210c-60 0 -113 -26 -154 -67
c-65 -65 -102 -184 -102 -278c0 -110 48 -211 179 -211zM321 787h231l-10 -54h-231z" />
    <glyph glyph-name="Oslashacute" unicode="&#x1fe;" horiz-adv-x="667" 
d="M64 -42l-41 39l77 88c-34 50 -52 104 -52 183c0 118 45 238 121 316c62 64 147 101 232 101c73 0 126 -19 166 -57l76 85l45 -36l-80 -91c34 -49 49 -108 49 -176c0 -118 -45 -244 -119 -322c-60 -62 -145 -99 -231 -99c-69 0 -123 19 -165 57zM160 155l357 412
c-27 30 -64 48 -124 48c-112 0 -206 -95 -242 -218c-23 -78 -25 -166 6 -242h3zM547 512l-354 -407c29 -30 66 -46 126 -46c101 0 193 85 232 207c23 73 31 165 -1 246h-3zM469 832h108l-136 -118h-74z" />
    <glyph glyph-name="Racute" unicode="&#x154;" horiz-adv-x="523" 
d="M31 0l127 665c41 9 97 14 147 14c67 0 125 -16 161 -49c31 -26 50 -65 50 -111c0 -99 -75 -172 -160 -196l-1 -2c48 -16 70 -66 75 -135c7 -94 12 -159 21 -186h-86c-4 14 -11 85 -16 163c-5 93 -39 131 -106 131h-74l-55 -294h-83zM229 606l-47 -248h74
c105 0 173 69 173 150c0 72 -54 105 -130 105c-33 0 -54 -3 -70 -7zM376 828h108l-136 -118h-74z" />
    <glyph glyph-name="Rcaron" unicode="&#x158;" horiz-adv-x="523" 
d="M31 0l127 665c41 9 97 14 147 14c67 0 125 -16 161 -49c31 -26 50 -65 50 -111c0 -99 -75 -172 -160 -196l-1 -2c48 -16 70 -66 75 -135c7 -94 12 -159 21 -186h-86c-4 14 -11 85 -16 163c-5 93 -39 131 -106 131h-74l-55 -294h-83zM229 606l-47 -248h74
c105 0 173 69 173 150c0 72 -54 105 -130 105c-33 0 -54 -3 -70 -7zM353 710h-65l-80 117h69l47 -72h3l72 72h74z" />
    <glyph glyph-name="Rcommaaccent" unicode="&#x156;" horiz-adv-x="523" 
d="M31 0l127 665c41 9 97 14 147 14c67 0 125 -16 161 -49c31 -26 50 -65 50 -111c0 -99 -75 -172 -160 -196l-1 -2c48 -16 70 -66 75 -135c7 -94 12 -159 21 -186h-86c-4 14 -11 85 -16 163c-5 93 -39 131 -106 131h-74l-55 -294h-83zM229 606l-47 -248h74
c105 0 173 69 173 150c0 72 -54 105 -130 105c-33 0 -54 -3 -70 -7zM119 -221l-10 42c41 6 87 29 87 75c0 21 -11 38 -24 49l66 13c14 -10 28 -33 28 -59c0 -78 -77 -114 -147 -120z" />
    <glyph glyph-name="Sacute" unicode="&#x15a;" horiz-adv-x="466" 
d="M12 37l30 68c36 -25 87 -43 143 -43c76 0 146 45 146 126c0 50 -28 87 -99 126c-86 46 -134 100 -134 173c0 120 104 197 228 197c66 0 115 -19 138 -35l-30 -68c-21 13 -63 33 -116 32c-84 0 -134 -55 -134 -110s34 -86 105 -125c83 -44 128 -97 128 -180
c0 -116 -91 -208 -243 -208c-68 1 -134 22 -162 47zM367 829h108l-136 -118h-74z" />
    <glyph glyph-name="Scedilla" unicode="&#x15e;" horiz-adv-x="466" 
d="M464 649l-30 -68c-21 13 -63 32 -116 32c-84 0 -134 -55 -134 -110s34 -86 104 -125c84 -44 129 -97 129 -180c0 -98 -65 -180 -178 -202l-34 -46c32 -7 54 -32 54 -65c0 -55 -52 -86 -109 -86c-28 0 -53 8 -66 17l19 44c15 -10 33 -15 52 -15c23 0 44 13 44 36
c0 22 -23 35 -67 39l50 71c-5 0 -9 -1 -14 -1c-50 0 -124 19 -156 47l30 68c36 -25 87 -43 143 -43c76 0 146 45 146 126c0 50 -28 87 -99 126c-86 46 -134 100 -134 173c0 120 104 197 228 197c66 0 115 -19 138 -35z" />
    <glyph glyph-name="Scedilla" unicode="&#xf6c1;" horiz-adv-x="466" 
d="M464 649l-30 -68c-21 13 -63 32 -116 32c-84 0 -134 -55 -134 -110s34 -86 104 -125c84 -44 129 -97 129 -180c0 -98 -65 -180 -178 -202l-34 -46c32 -7 54 -32 54 -65c0 -55 -52 -86 -109 -86c-28 0 -53 8 -66 17l19 44c15 -10 33 -15 52 -15c23 0 44 13 44 36
c0 22 -23 35 -67 39l50 71c-5 0 -9 -1 -14 -1c-50 0 -124 19 -156 47l30 68c36 -25 87 -43 143 -43c76 0 146 45 146 126c0 50 -28 87 -99 126c-86 46 -134 100 -134 173c0 120 104 197 228 197c66 0 115 -19 138 -35z" />
    <glyph glyph-name="Scircumflex" unicode="&#x15c;" horiz-adv-x="466" 
d="M12 37l30 68c36 -25 87 -43 143 -43c76 0 146 45 146 126c0 50 -28 87 -99 126c-86 46 -134 100 -134 173c0 120 104 197 228 197c66 0 115 -19 138 -35l-30 -68c-21 13 -63 33 -116 32c-84 0 -134 -55 -134 -110s34 -86 105 -125c83 -44 128 -97 128 -180
c0 -116 -91 -208 -243 -208c-68 1 -134 22 -162 47zM311 828h65l80 -118h-68l-49 72h-2l-72 -72h-74z" />
    <glyph glyph-name="Scommaaccent" unicode="&#x218;" horiz-adv-x="466" 
d="M12 37l30 68c36 -25 87 -43 143 -43c76 0 146 45 146 126c0 50 -28 87 -99 126c-86 46 -134 100 -134 173c0 120 104 197 228 197c66 0 115 -19 138 -35l-30 -68c-21 13 -63 33 -116 32c-84 0 -134 -55 -134 -110s34 -86 105 -125c83 -44 128 -97 128 -180
c0 -116 -91 -208 -243 -208c-68 1 -134 22 -162 47zM91 -221l-10 42c41 6 87 29 87 75c0 21 -11 38 -24 49l66 13c14 -10 28 -33 28 -59c0 -78 -77 -114 -147 -120z" />
    <glyph glyph-name="Tbar" unicode="&#x166;" horiz-adv-x="474" 
d="M423 321h-131l-61 -321h-83l61 321h-126l12 58h125l42 223h-197l14 72h478l-14 -72h-198l-43 -223h133z" />
    <glyph glyph-name="Tcaron" unicode="&#x164;" horiz-adv-x="474" 
d="M148 0l114 602h-197l14 72h478l-14 -72h-198l-114 -602h-83zM357 710h-65l-80 117h69l47 -72h3l72 72h74z" />
    <glyph glyph-name="Tcommaaccent" unicode="&#x162;" horiz-adv-x="474" 
d="M148 0l114 602h-197l14 72h478l-14 -72h-198l-114 -602h-83zM91 -221l-10 42c41 6 87 29 87 75c0 21 -11 38 -24 49l66 13c14 -10 28 -33 28 -59c0 -78 -77 -114 -147 -120z" />
    <glyph glyph-name="Tcommaaccent" unicode="&#x21a;" horiz-adv-x="474" 
d="M148 0l114 602h-197l14 72h478l-14 -72h-198l-114 -602h-83zM91 -221l-10 42c41 6 87 29 87 75c0 21 -11 38 -24 49l66 13c14 -10 28 -33 28 -59c0 -78 -77 -114 -147 -120z" />
    <glyph glyph-name="Ubreve" unicode="&#x16c;" horiz-adv-x="621" 
d="M158 674h83l-76 -399c-5 -28 -8 -57 -8 -85c0 -86 50 -130 125 -130c92 0 159 62 188 214l77 400h83l-77 -403c-39 -201 -139 -282 -282 -282c-111 0 -197 60 -197 199c0 29 3 62 9 93zM299 830h52c-1 -28 14 -54 61 -54c45 0 68 24 75 54h55c-10 -57 -52 -106 -134 -106
c-86 0 -116 49 -109 106z" />
    <glyph glyph-name="Uhungarumlaut" unicode="&#x170;" horiz-adv-x="621" 
d="M158 674h83l-76 -399c-5 -28 -8 -57 -8 -85c0 -86 50 -130 125 -130c92 0 159 62 188 214l77 400h83l-77 -403c-39 -201 -139 -282 -282 -282c-111 0 -197 60 -197 199c0 29 3 62 9 93zM376 828h95l-127 -113h-64zM524 828h95l-127 -113h-64z" />
    <glyph glyph-name="Umacron" unicode="&#x16a;" horiz-adv-x="621" 
d="M158 674h83l-76 -399c-5 -28 -8 -57 -8 -85c0 -86 50 -130 125 -130c92 0 159 62 188 214l77 400h83l-77 -403c-39 -201 -139 -282 -282 -282c-111 0 -197 60 -197 199c0 29 3 62 9 93zM299 787h231l-10 -54h-231z" />
    <glyph glyph-name="Uogonek" unicode="&#x172;" horiz-adv-x="621" 
d="M366 -125l10 -48c-22 -13 -48 -19 -76 -19c-50 0 -80 27 -80 72c0 39 29 79 63 111c-8 -1 -16 -1 -24 -1c-104 4 -185 64 -185 198c0 29 3 62 9 93l75 393h84l-77 -399c-5 -28 -8 -57 -8 -85c0 -86 51 -130 126 -130c91 0 159 62 188 214l76 400h83l-77 -403
c-26 -136 -79 -217 -158 -255c-21 -10 -45 -25 -60 -38c-28 -23 -46 -53 -46 -78c0 -22 15 -33 34 -33c16 0 31 3 43 8z" />
    <glyph glyph-name="Uring" unicode="&#x16e;" horiz-adv-x="621" 
d="M158 674h83l-76 -399c-5 -28 -8 -57 -8 -85c0 -86 50 -130 125 -130c92 0 159 62 188 214l77 400h83l-77 -403c-39 -201 -139 -282 -282 -282c-111 0 -197 60 -197 199c0 29 3 62 9 93zM408 872h1c55 0 94 -34 94 -87c-1 -56 -47 -91 -103 -91c-54 0 -93 34 -94 83
c-1 55 42 95 102 95zM405 836h-1c-28 0 -47 -24 -47 -56c0 -27 18 -50 45 -50c29 0 49 23 49 54c0 30 -17 52 -46 52z" />
    <glyph glyph-name="Utilde" unicode="&#x168;" horiz-adv-x="621" 
d="M158 674h83l-76 -399c-5 -28 -8 -57 -8 -85c0 -86 50 -130 125 -130c92 0 159 62 188 214l77 400h83l-77 -403c-39 -201 -139 -282 -282 -282c-111 0 -197 60 -197 199c0 29 3 62 9 93zM328 716h-47c10 59 41 100 82 100c27 0 42 -9 60 -21c15 -10 29 -18 44 -18
c16 0 27 13 35 40h46c-11 -62 -38 -96 -83 -96c-26 0 -40 8 -60 20c-17 10 -27 19 -43 18c-16 0 -27 -16 -34 -43z" />
    <glyph glyph-name="Wacute" unicode="&#x1e82;" horiz-adv-x="829" 
d="M219 0h-89l-33 674h83l15 -404c2 -87 1 -133 0 -175h2c16 44 32 87 69 170l187 409h89l14 -388c3 -87 3 -146 1 -190h2c20 58 40 112 66 173l182 405h87l-313 -674h-88l-17 383c-4 79 -3 117 2 194h-3c-22 -64 -40 -116 -68 -177zM551 828h108l-136 -118h-74z" />
    <glyph glyph-name="Wcircumflex" unicode="&#x174;" horiz-adv-x="829" 
d="M219 0h-89l-33 674h83l15 -404c2 -87 1 -133 0 -175h2c16 44 32 87 69 170l187 409h89l14 -388c3 -87 3 -146 1 -190h2c20 58 40 112 66 173l182 405h87l-313 -674h-88l-17 383c-4 79 -3 117 2 194h-3c-22 -64 -40 -116 -68 -177zM491 828h65l80 -118h-68l-49 72h-2
l-72 -72h-74z" />
    <glyph glyph-name="Wdieresis" unicode="&#x1e84;" horiz-adv-x="829" 
d="M219 0h-89l-33 674h83l15 -404c2 -87 1 -133 0 -175h2c16 44 32 87 69 170l187 409h89l14 -388c3 -87 3 -146 1 -190h2c20 58 40 112 66 173l182 405h87l-313 -674h-88l-17 383c-4 79 -3 117 2 194h-3c-22 -64 -40 -116 -68 -177zM420 720h-1c-25 0 -46 21 -46 48
c0 29 23 53 52 53s47 -24 47 -48c0 -29 -23 -53 -52 -53zM604 720h-1c-25 0 -46 21 -46 48c0 29 23 53 52 53s47 -24 47 -48c0 -29 -23 -53 -52 -53z" />
    <glyph glyph-name="Wgrave" unicode="&#x1e80;" horiz-adv-x="829" 
d="M219 0h-89l-33 674h83l15 -404c2 -87 1 -133 0 -175h2c16 44 32 87 69 170l187 409h89l14 -388c3 -87 3 -146 1 -190h2c20 58 40 112 66 173l182 405h87l-313 -674h-88l-17 383c-4 79 -3 117 2 194h-3c-22 -64 -40 -116 -68 -177zM365 828h103l75 -117h-68z" />
    <glyph glyph-name="Ycircumflex" unicode="&#x176;" horiz-adv-x="517" 
d="M243 0h-82l53 280l-130 394h89l65 -218c17 -60 23 -87 28 -113h2c17 28 40 66 72 116l146 215h97l-287 -393zM320 828h65l80 -118h-68l-49 72h-2l-72 -72h-74z" />
    <glyph glyph-name="Ygrave" unicode="&#x1ef2;" horiz-adv-x="517" 
d="M243 0h-82l53 280l-130 394h89l65 -218c17 -60 23 -87 28 -113h2c17 28 40 66 72 116l146 215h97l-287 -393zM207 828h103l75 -117h-68z" />
    <glyph glyph-name="Zacute" unicode="&#x179;" horiz-adv-x="523" 
d="M-20 0l9 51l458 549l-1 3h-320l14 71h432l-11 -53l-454 -547l1 -3h354l-13 -71h-469zM408 828h108l-136 -118h-74z" />
    <glyph glyph-name="Zdotaccent" unicode="&#x17b;" horiz-adv-x="523" 
d="M-20 0l9 51l458 549l-1 3h-320l14 71h432l-11 -53l-454 -547l1 -3h354l-13 -71h-469zM359 720h-1c-26 0 -47 22 -47 49c0 28 23 53 52 53s48 -24 48 -49c0 -29 -23 -53 -52 -53z" />
    <glyph glyph-name="Idotaccent" unicode="&#x130;" horiz-adv-x="233" 
d="M158 674h83l-128 -674h-83zM217 720h-1c-26 0 -47 22 -47 49c0 28 23 53 52 53s48 -24 48 -49c0 -29 -23 -53 -52 -53z" />
    <glyph glyph-name="abreve" unicode="&#x103;" horiz-adv-x="522" 
d="M426 0h-77c0 29 5 75 11 125h-2c-53 -101 -120 -136 -188 -136c-86 0 -139 68 -139 160c0 169 124 346 335 346c46 0 96 -8 130 -18l-50 -253c-16 -84 -22 -170 -20 -224zM375 276l28 146c-12 4 -30 7 -58 7c-125 0 -228 -130 -228 -265c0 -54 19 -107 83 -107
c69 0 151 90 175 219zM229 683h50c-2 -37 16 -68 55 -68c48 0 71 35 80 68h52c-12 -73 -65 -121 -134 -121c-88 0 -111 60 -103 121z" />
    <glyph glyph-name="amacron" unicode="&#x101;" horiz-adv-x="522" 
d="M426 0h-77c0 29 5 75 11 125h-2c-53 -101 -120 -136 -188 -136c-86 0 -139 68 -139 160c0 169 124 346 335 346c46 0 96 -8 130 -18l-50 -253c-16 -84 -22 -170 -20 -224zM375 276l28 146c-12 4 -30 7 -58 7c-125 0 -228 -130 -228 -265c0 -54 19 -107 83 -107
c69 0 151 90 175 219zM235 646h219l-10 -53h-219z" />
    <glyph glyph-name="aogonek" unicode="&#x105;" horiz-adv-x="522" 
d="M496 477l-49 -253c-16 -84 -22 -171 -20 -224h-20c-31 -34 -57 -76 -57 -109c0 -23 15 -38 37 -38c16 0 32 4 45 10l9 -44c-22 -19 -53 -25 -80 -25c-50 0 -79 30 -79 77c0 53 50 110 68 133c1 30 5 74 11 121h-2c-53 -101 -120 -136 -188 -136c-86 0 -139 68 -139 160
c0 169 124 346 334 346c46 0 97 -8 130 -18zM375 276l28 146c-12 4 -29 7 -57 7c-125 0 -228 -130 -228 -265c0 -54 19 -107 82 -107c70 0 152 90 175 219z" />
    <glyph glyph-name="aeacute" unicode="&#x1fd;" horiz-adv-x="718" 
d="M631 89l10 -60c-36 -22 -91 -40 -159 -40c-78 0 -137 39 -158 107h-2c-39 -67 -106 -107 -183 -107c-86 0 -132 56 -133 124c0 129 135 196 315 189l3 19c8 45 -11 111 -92 111c-49 0 -89 -16 -126 -40l-17 56c50 32 106 47 153 47c77 0 126 -37 138 -102h2
c42 68 113 102 184 102c94 0 139 -58 139 -116c0 -135 -150 -152 -322 -146c-7 -39 -9 -77 5 -112c19 -43 60 -65 111 -65c65 0 101 17 132 33zM301 189l9 54c-84 4 -220 -15 -220 -119c0 -43 28 -69 71 -69c60 0 123 45 140 134zM623 372v1c0 30 -24 58 -71 58
c-86 0 -142 -81 -157 -137c120 -4 228 1 228 78zM468 686h100l-133 -143h-65z" />
    <glyph glyph-name="cacute" unicode="&#x107;" horiz-adv-x="423" 
d="M353 85l8 -65c-25 -13 -75 -30 -140 -30c-125 0 -186 84 -186 187c0 165 122 318 296 318c45 0 86 -13 101 -22l-24 -65c-19 9 -46 18 -82 18c-126 0 -205 -124 -205 -238c0 -79 41 -130 120 -130c50 0 87 15 112 27zM344 686h100l-133 -143h-65z" />
    <glyph glyph-name="ccaron" unicode="&#x10d;" horiz-adv-x="423" 
d="M353 85l8 -65c-25 -13 -75 -30 -140 -30c-125 0 -186 84 -186 187c0 165 122 318 296 318c45 0 86 -13 101 -22l-24 -65c-19 9 -46 18 -82 18c-126 0 -205 -124 -205 -238c0 -79 41 -130 120 -130c50 0 87 15 112 27zM330 543h-59l-70 143h62l43 -92h3l71 92h67z" />
    <glyph glyph-name="ccircumflex" unicode="&#x109;" horiz-adv-x="423" 
d="M353 85l8 -65c-25 -13 -75 -30 -140 -30c-125 0 -186 84 -186 187c0 165 122 318 296 318c45 0 86 -13 101 -22l-24 -65c-19 9 -46 18 -82 18c-126 0 -205 -124 -205 -238c0 -79 41 -130 120 -130c50 0 87 15 112 27zM285 686h59l69 -143h-62l-43 91h-2l-70 -91h-67z" />
    <glyph glyph-name="cdotaccent" unicode="&#x10b;" horiz-adv-x="423" 
d="M353 85l8 -65c-25 -13 -75 -30 -140 -30c-125 0 -186 84 -186 187c0 165 122 318 296 318c45 0 86 -13 101 -22l-24 -65c-19 9 -46 18 -82 18c-126 0 -205 -124 -205 -238c0 -79 41 -130 120 -130c50 0 87 15 112 27zM318 569h-1c-26 0 -46 21 -46 49c0 31 23 54 52 54
s47 -22 47 -49c0 -31 -21 -54 -52 -54z" />
    <glyph glyph-name="dcaron" unicode="&#x10f;" horiz-adv-x="534" 
d="M460 710h83l-106 -556c-10 -51 -18 -107 -21 -154h-76l13 96h-2c-44 -69 -105 -107 -174 -107c-94 0 -145 77 -145 176c0 172 128 330 299 330c31 0 65 -7 86 -17zM371 239l33 169c-17 12 -45 21 -80 21c-116 0 -206 -124 -206 -253c0 -58 20 -119 91 -119
c64 0 141 73 162 182zM570 529l-24 37c29 16 56 45 56 88c0 20 -9 39 -20 49l63 14c13 -10 26 -36 26 -61c0 -67 -54 -111 -101 -127z" />
    <glyph glyph-name="dcroat" unicode="&#x111;" horiz-adv-x="525" 
d="M371 239l32 169c-16 12 -44 21 -79 21c-116 0 -206 -124 -206 -253c0 -58 20 -119 91 -119c64 0 140 73 162 182zM246 606h195l19 104h83l-20 -104h80l-10 -53h-80l-77 -399c-9 -51 -17 -107 -20 -154h-76l13 96h-2c-44 -69 -105 -107 -175 -107c-93 0 -144 77 -144 176
c0 172 128 330 299 330c31 0 65 -7 86 -17l14 75h-196z" />
    <glyph glyph-name="ebreve" unicode="&#x115;" horiz-adv-x="453" 
d="M365 90l12 -62c-36 -20 -95 -38 -160 -38c-128 0 -184 87 -184 194c0 146 108 311 264 311c92 0 142 -55 142 -125c0 -127 -143 -160 -322 -157c-4 -21 -1 -66 10 -91c19 -44 58 -65 108 -65c57 0 100 17 130 33zM359 368v1c0 39 -30 61 -74 61c-79 0 -138 -77 -158 -153
c130 -2 232 16 232 91zM194 683h50c-2 -37 16 -68 55 -68c48 0 71 35 80 68h52c-12 -73 -65 -121 -134 -121c-88 0 -111 60 -103 121z" />
    <glyph glyph-name="ecaron" unicode="&#x11b;" horiz-adv-x="453" 
d="M365 90l12 -62c-36 -20 -95 -38 -160 -38c-128 0 -184 87 -184 194c0 146 108 311 264 311c92 0 142 -55 142 -125c0 -127 -143 -160 -322 -157c-4 -21 -1 -66 10 -91c19 -44 58 -65 108 -65c57 0 100 17 130 33zM359 368v1c0 39 -30 61 -74 61c-79 0 -138 -77 -158 -153
c130 -2 232 16 232 91zM319 543h-59l-70 143h62l43 -92h3l71 92h67z" />
    <glyph glyph-name="edotaccent" unicode="&#x117;" horiz-adv-x="453" 
d="M365 90l12 -62c-36 -20 -95 -38 -160 -38c-128 0 -184 87 -184 194c0 146 108 311 264 311c92 0 142 -55 142 -125c0 -127 -143 -160 -322 -157c-4 -21 -1 -66 10 -91c19 -44 58 -65 108 -65c57 0 100 17 130 33zM359 368v1c0 39 -30 61 -74 61c-79 0 -138 -77 -158 -153
c130 -2 232 16 232 91zM307 569h-1c-26 0 -46 21 -46 49c0 31 23 54 52 54s47 -22 47 -49c0 -31 -21 -54 -52 -54z" />
    <glyph glyph-name="emacron" unicode="&#x113;" horiz-adv-x="453" 
d="M365 90l12 -62c-36 -20 -95 -38 -160 -38c-128 0 -184 87 -184 194c0 146 108 311 264 311c92 0 142 -55 142 -125c0 -127 -143 -160 -322 -157c-4 -21 -1 -66 10 -91c19 -44 58 -65 108 -65c57 0 100 17 130 33zM359 368v1c0 39 -30 61 -74 61c-79 0 -138 -77 -158 -153
c130 -2 232 16 232 91zM197 646h219l-10 -53h-219z" />
    <glyph glyph-name="eng" unicode="&#x14b;" horiz-adv-x="534" 
d="M208 -176l-8 69c71 11 124 40 147 162l43 225c3 19 6 41 6 62c0 48 -19 84 -76 84c-59 0 -143 -71 -165 -191l-44 -235h-82l64 343c10 54 18 101 23 141h75l-13 -95h2c44 68 109 106 179 106c58 0 123 -33 123 -135c0 -21 -4 -51 -9 -77l-44 -231
c-31 -164 -111 -218 -221 -228z" />
    <glyph glyph-name="eogonek" unicode="&#x119;" horiz-adv-x="453" 
d="M359 368v1c0 39 -30 61 -74 61c-79 0 -138 -77 -158 -153c130 -2 232 16 232 91zM313 -129l10 -47c-26 -14 -55 -21 -82 -21c-48 0 -74 30 -74 72c0 45 34 88 72 115v1c-10 -1 -19 -1 -29 -1c-124 3 -177 90 -177 194c0 146 108 311 264 311c92 0 142 -55 142 -125
c0 -127 -143 -160 -322 -157c-4 -21 -1 -66 10 -91c20 -44 58 -65 107 -65c58 0 101 17 131 33l12 -62c-8 -4 -18 -9 -36 -17c-49 -26 -105 -69 -105 -114c0 -22 12 -36 32 -36c16 0 31 3 45 10z" />
    <glyph glyph-name="gbreve" unicode="&#x11f;" horiz-adv-x="524" 
d="M10 -175l23 65c29 -19 78 -32 128 -32c82 0 146 41 174 172l16 73h-2c-43 -69 -102 -103 -168 -103c-98 0 -148 82 -148 168c0 165 120 327 307 327c56 0 118 -16 156 -34l-75 -400c-19 -103 -47 -173 -97 -217c-49 -41 -114 -53 -169 -53c-59 0 -115 14 -145 34z
M374 251l31 161c-16 8 -46 17 -80 17c-121 0 -205 -127 -205 -247c-1 -54 19 -116 93 -116c71 0 143 90 161 185zM230 683h50c-2 -37 16 -68 55 -68c48 0 71 35 80 68h52c-12 -73 -65 -121 -134 -121c-88 0 -111 60 -103 121z" />
    <glyph glyph-name="gcircumflex" unicode="&#x11d;" horiz-adv-x="524" 
d="M10 -175l23 65c29 -19 78 -32 128 -32c82 0 146 41 174 172l16 73h-2c-43 -69 -102 -103 -168 -103c-98 0 -148 82 -148 168c0 165 120 327 307 327c56 0 118 -16 156 -34l-75 -400c-19 -103 -47 -173 -97 -217c-49 -41 -114 -53 -169 -53c-59 0 -115 14 -145 34z
M374 251l31 161c-16 8 -46 17 -80 17c-121 0 -205 -127 -205 -247c-1 -54 19 -116 93 -116c71 0 143 90 161 185zM316 686h59l69 -143h-62l-43 91h-2l-70 -91h-67z" />
    <glyph glyph-name="gcommaaccent" unicode="&#x123;" horiz-adv-x="524" 
d="M10 -175l23 65c29 -19 78 -32 128 -32c82 0 146 41 174 172l16 73h-3c-42 -69 -100 -103 -167 -103c-98 0 -148 82 -148 168c0 165 120 327 307 327c56 0 117 -16 155 -34l-74 -400c-19 -103 -47 -173 -97 -217c-48 -41 -114 -53 -169 -53c-59 0 -115 14 -145 34z
M373 251l31 161c-15 8 -45 17 -79 17c-121 0 -205 -127 -205 -247c-1 -54 19 -116 93 -116c71 0 142 90 160 185zM426 711l10 -42c-42 -6 -88 -28 -88 -75c0 -21 11 -38 24 -49l-63 -14c-14 11 -28 33 -28 59c0 79 77 115 145 121z" />
    <glyph glyph-name="gdotaccent" unicode="&#x121;" horiz-adv-x="524" 
d="M10 -175l23 65c29 -19 78 -32 128 -32c82 0 146 41 174 172l16 73h-2c-43 -69 -102 -103 -168 -103c-98 0 -148 82 -148 168c0 165 120 327 307 327c56 0 118 -16 156 -34l-75 -400c-19 -103 -47 -173 -97 -217c-49 -41 -114 -53 -169 -53c-59 0 -115 14 -145 34z
M374 251l31 161c-16 8 -46 17 -80 17c-121 0 -205 -127 -205 -247c-1 -54 19 -116 93 -116c71 0 143 90 161 185zM336 569h-1c-26 0 -46 21 -46 49c0 31 23 54 52 54s47 -22 47 -49c0 -31 -21 -54 -52 -54z" />
    <glyph glyph-name="hbar" unicode="&#x127;" horiz-adv-x="534" 
d="M57 606h87l19 104h83l-20 -104h185l-10 -53h-185l-30 -154h2c41 59 100 96 173 96c55 0 120 -33 120 -130c0 -25 -3 -57 -8 -81l-54 -284h-83l54 280c3 17 6 40 6 67c0 44 -21 79 -75 79c-64 0 -145 -75 -165 -183l-45 -243h-83l106 553h-87z" />
    <glyph glyph-name="hcircumflex" unicode="&#x125;" horiz-adv-x="534" 
d="M111 0h-83l135 710h83l-60 -311h2c41 59 100 96 173 96c55 0 120 -33 120 -130c0 -25 -3 -57 -8 -81l-54 -284h-83l54 280c3 17 6 40 6 67c0 44 -21 79 -75 79c-64 0 -145 -75 -165 -183zM192 854h65l80 -118h-68l-49 72h-2l-72 -72h-74z" />
    <glyph glyph-name="ibreve" unicode="&#x12d;" horiz-adv-x="229" 
d="M111 0h-83l92 484h83zM82 683h50c-2 -37 16 -68 55 -68c48 0 71 35 80 68h52c-12 -73 -65 -121 -134 -121c-88 0 -111 60 -103 121z" />
    <glyph glyph-name="ij" unicode="&#x133;" horiz-adv-x="456" 
d="M111 0h-83l93 484h82zM184 566h-1c-29 0 -47 22 -47 52c1 32 25 56 55 56c29 0 49 -22 49 -52c-1 -33 -24 -56 -56 -56zM354 484h83l-92 -483c-15 -80 -33 -131 -62 -163c-28 -32 -69 -47 -111 -47c-21 0 -39 1 -55 6l10 65c9 -3 22 -4 39 -4c42 0 74 26 93 126zM413 566
h-1c-29 0 -47 22 -47 52c1 32 25 56 55 56c29 0 49 -22 49 -52c-1 -33 -24 -56 -56 -56z" />
    <glyph glyph-name="imacron" unicode="&#x12b;" horiz-adv-x="229" 
d="M111 0h-83l92 484h83zM85 646h219l-10 -53h-219z" />
    <glyph glyph-name="iogonek" unicode="&#x12f;" horiz-adv-x="229" 
d="M184 571h-1c-29 0 -49 23 -49 54c1 33 26 59 57 59s52 -23 52 -54c-1 -35 -26 -59 -59 -59zM204 484l-93 -484h-28c-30 -34 -54 -75 -54 -107c0 -24 16 -40 40 -40c14 0 30 4 43 10l9 -44c-22 -19 -53 -25 -80 -25c-51 0 -80 30 -80 77c0 53 50 110 68 133l92 480h83z
" />
    <glyph glyph-name="itilde" unicode="&#x129;" horiz-adv-x="229" 
d="M111 0h-83l92 484h83zM109 568h-48c7 58 34 100 77 100c26 0 40 -10 61 -22c15 -9 27 -17 40 -17c17 0 24 9 30 42h47c-8 -62 -30 -96 -77 -96c-23 0 -43 10 -59 20c-14 9 -27 18 -42 18c-17 0 -24 -19 -29 -45z" />
    <glyph glyph-name="jcircumflex" unicode="&#x135;" horiz-adv-x="227" 
d="M126 484h82l-91 -483c-15 -80 -33 -131 -62 -163c-28 -32 -69 -47 -111 -47c-21 0 -39 1 -55 6l10 65c9 -3 22 -4 38 -4c42 0 75 26 94 126zM166 686h58l69 -143h-62l-42 94h-2l-70 -94h-67z" />
    <glyph glyph-name="kcommaaccent" unicode="&#x137;" horiz-adv-x="456" 
d="M110 0h-82l135 710h83l-85 -446h2c14 17 32 35 45 49l170 171h103l-211 -200l144 -284h-91l-117 238l-61 -55zM86 -221l-10 42c41 6 87 29 87 75c0 21 -11 38 -24 49l66 13c14 -10 28 -33 28 -59c0 -78 -77 -114 -147 -120z" />
    <glyph glyph-name="lacute" unicode="&#x13a;" horiz-adv-x="229" 
d="M112 0h-83l135 710h83zM262 861h108l-136 -118h-74z" />
    <glyph glyph-name="lcaron" unicode="&#x13e;" horiz-adv-x="236" 
d="M111 0h-83l136 710h83zM276 529l-26 36c26 15 56 45 56 89c0 20 -9 39 -20 49l63 14c13 -10 26 -36 26 -61c0 -71 -56 -114 -99 -127z" />
    <glyph glyph-name="lcommaaccent" unicode="&#x13c;" horiz-adv-x="229" 
d="M112 0h-83l135 710h83zM-30 -221l-10 42c41 6 87 29 87 75c0 21 -11 38 -24 49l66 13c14 -10 28 -33 28 -59c0 -78 -77 -114 -147 -120z" />
    <glyph glyph-name="ldot" unicode="&#x140;" horiz-adv-x="265" 
d="M111 0h-82l135 710h83zM269 314h-1c-26 0 -45 20 -45 48c0 30 23 53 50 53c28 0 46 -22 46 -48c0 -30 -20 -53 -50 -53z" />
    <glyph glyph-name="nacute" unicode="&#x144;" horiz-adv-x="534" 
d="M111 0h-82l64 343c11 54 18 101 23 141h75l-13 -95h2c44 68 109 106 180 106c57 0 122 -33 122 -134c0 -22 -4 -52 -9 -78l-54 -283h-82l53 280c3 19 6 41 6 62c0 48 -19 84 -76 84c-59 0 -143 -71 -165 -191zM380 686h100l-133 -143h-65z" />
    <glyph glyph-name="ncaron" unicode="&#x148;" horiz-adv-x="534" 
d="M111 0h-82l64 343c11 54 18 101 23 141h75l-13 -95h2c44 68 109 106 180 106c57 0 122 -33 122 -134c0 -22 -4 -52 -9 -78l-54 -283h-82l53 280c3 19 6 41 6 62c0 48 -19 84 -76 84c-59 0 -143 -71 -165 -191zM342 543h-59l-70 143h62l43 -92h3l71 92h67z" />
    <glyph glyph-name="ncommaaccent" unicode="&#x146;" horiz-adv-x="534" 
d="M111 0h-82l64 343c11 54 18 101 23 141h75l-13 -95h2c44 68 109 106 180 106c57 0 122 -33 122 -134c0 -22 -4 -52 -9 -78l-54 -283h-82l53 280c3 19 6 41 6 62c0 48 -19 84 -76 84c-59 0 -143 -71 -165 -191zM125 -221l-10 42c41 6 87 29 87 75c0 21 -11 38 -24 49
l66 13c14 -10 28 -33 28 -59c0 -78 -77 -114 -147 -120z" />
    <glyph glyph-name="obreve" unicode="&#x14f;" horiz-adv-x="522" 
d="M225 -11h-1c-121 0 -189 90 -189 199c0 160 111 307 268 307c131 0 190 -99 190 -201c0 -150 -106 -305 -268 -305zM234 55h1c98 0 172 126 172 239c0 56 -26 135 -113 135c-104 0 -173 -127 -173 -238c0 -79 44 -136 113 -136zM225 683h50c-2 -37 16 -68 55 -68
c48 0 71 35 80 68h52c-12 -73 -65 -121 -134 -121c-88 0 -111 60 -103 121z" />
    <glyph glyph-name="ohungarumlaut" unicode="&#x151;" horiz-adv-x="522" 
d="M225 -11h-1c-121 0 -189 90 -189 199c0 160 111 307 268 307c131 0 190 -99 190 -201c0 -150 -106 -305 -268 -305zM234 55h1c98 0 172 126 172 239c0 56 -26 135 -113 135c-104 0 -173 -127 -173 -238c0 -79 44 -136 113 -136zM289 686h88l-125 -143h-56zM434 686h88
l-126 -143h-55z" />
    <glyph glyph-name="omacron" unicode="&#x14d;" horiz-adv-x="522" 
d="M225 -11h-1c-121 0 -189 90 -189 199c0 160 111 307 268 307c131 0 190 -99 190 -201c0 -150 -106 -305 -268 -305zM234 55h1c98 0 172 126 172 239c0 56 -26 135 -113 135c-104 0 -173 -127 -173 -238c0 -79 44 -136 113 -136zM232 646h219l-10 -53h-219z" />
    <glyph glyph-name="oslashacute" unicode="&#x1ff;" horiz-adv-x="523" 
d="M52 -38l-30 30l56 66c-31 37 -43 84 -43 136c0 155 112 301 266 301c51 0 89 -14 116 -35l55 61l33 -28l-55 -64c31 -41 43 -91 43 -133c0 -169 -121 -307 -261 -307c-56 0 -94 14 -123 39zM139 125l230 277c-17 18 -42 29 -77 29c-106 0 -172 -129 -172 -227
c0 -33 4 -56 17 -79h2zM390 359l-232 -275c19 -20 46 -31 81 -31c88 0 168 115 169 228c0 29 -5 54 -15 78h-3zM366 686h100l-133 -143h-65z" />
    <glyph glyph-name="racute" unicode="&#x155;" horiz-adv-x="318" 
d="M111 0h-83l59 312c12 63 19 127 25 172h73c-4 -34 -8 -68 -14 -105h3c32 66 83 116 148 116c8 0 17 -1 24 -2l-16 -82c-6 1 -13 2 -23 2c-71 0 -135 -87 -156 -199zM277 686h100l-133 -143h-65z" />
    <glyph glyph-name="rcaron" unicode="&#x159;" horiz-adv-x="318" 
d="M111 0h-83l59 312c12 63 19 127 25 172h73c-4 -34 -8 -68 -14 -105h3c32 66 83 116 148 116c8 0 17 -1 24 -2l-16 -82c-6 1 -13 2 -23 2c-71 0 -135 -87 -156 -199zM257 543h-59l-70 143h62l43 -92h3l71 92h67z" />
    <glyph glyph-name="rcommaaccent" unicode="&#x157;" horiz-adv-x="318" 
d="M111 0h-83l59 312c12 63 19 127 25 172h73c-4 -34 -8 -68 -14 -105h3c32 66 83 116 148 116c8 0 17 -1 24 -2l-16 -82c-6 1 -13 2 -23 2c-71 0 -135 -87 -156 -199zM0 -221l-10 42c41 6 87 29 87 75c0 21 -11 38 -24 49l66 13c14 -10 28 -33 28 -59
c0 -78 -77 -114 -147 -120z" />
    <glyph glyph-name="sacute" unicode="&#x15b;" horiz-adv-x="373" 
d="M9 23l24 61c22 -14 64 -30 104 -30c56 0 92 36 92 79c0 38 -17 61 -68 89c-56 31 -87 74 -87 123c0 85 73 150 176 150c43 0 82 -12 100 -24l-23 -63c-17 10 -47 22 -83 22c-51 0 -87 -31 -87 -73c0 -35 23 -57 67 -81c54 -31 90 -73 90 -127c0 -102 -82 -159 -185 -159
c-52 1 -98 16 -120 33zM289 686h100l-133 -143h-65z" />
    <glyph glyph-name="scedilla" unicode="&#x15f;" horiz-adv-x="373" 
d="M350 471l-23 -63c-17 10 -47 22 -83 22c-51 0 -87 -31 -87 -73c0 -35 23 -57 67 -81c54 -30 90 -73 90 -127c0 -82 -54 -136 -129 -153l-34 -46c32 -7 54 -32 54 -64c0 -55 -52 -86 -109 -86c-27 0 -52 8 -65 17l18 42c15 -9 34 -14 52 -14c23 0 44 13 44 36
c0 22 -23 35 -66 39l50 70h-5c-45 0 -94 16 -115 33l24 61c22 -14 64 -30 104 -30c56 0 92 36 92 79c0 38 -17 61 -68 89c-56 31 -87 74 -87 123c0 85 73 150 176 150c43 0 82 -12 100 -24z" />
    <glyph glyph-name="scedilla" unicode="&#xf6c2;" horiz-adv-x="373" 
d="M350 471l-23 -63c-17 10 -47 22 -83 22c-51 0 -87 -31 -87 -73c0 -35 23 -57 67 -81c54 -30 90 -73 90 -127c0 -82 -54 -136 -129 -153l-34 -46c32 -7 54 -32 54 -64c0 -55 -52 -86 -109 -86c-27 0 -52 8 -65 17l18 42c15 -9 34 -14 52 -14c23 0 44 13 44 36
c0 22 -23 35 -66 39l50 70h-5c-45 0 -94 16 -115 33l24 61c22 -14 64 -30 104 -30c56 0 92 36 92 79c0 38 -17 61 -68 89c-56 31 -87 74 -87 123c0 85 73 150 176 150c43 0 82 -12 100 -24z" />
    <glyph glyph-name="scircumflex" unicode="&#x15d;" horiz-adv-x="373" 
d="M9 23l24 61c22 -14 64 -30 104 -30c56 0 92 36 92 79c0 38 -17 61 -68 89c-56 31 -87 74 -87 123c0 85 73 150 176 150c43 0 82 -12 100 -24l-23 -63c-17 10 -47 22 -83 22c-51 0 -87 -31 -87 -73c0 -35 23 -57 67 -81c54 -31 90 -73 90 -127c0 -102 -82 -159 -185 -159
c-52 1 -98 16 -120 33zM238 686h59l69 -143h-62l-43 91h-2l-70 -91h-67z" />
    <glyph glyph-name="scommaaccent" unicode="&#x219;" horiz-adv-x="373" 
d="M9 23l24 61c22 -14 64 -30 104 -30c56 0 92 36 92 79c0 38 -17 61 -68 89c-56 31 -87 74 -87 123c0 85 73 150 176 150c43 0 82 -12 100 -24l-23 -63c-17 10 -47 22 -83 22c-51 0 -87 -31 -87 -73c0 -35 23 -57 67 -81c54 -31 90 -73 90 -127c0 -102 -82 -159 -185 -159
c-52 1 -98 16 -120 33zM43 -221l-10 42c41 6 87 29 87 75c0 21 -11 38 -24 49l66 13c14 -10 28 -33 28 -59c0 -78 -77 -114 -147 -120z" />
    <glyph glyph-name="tbar" unicode="&#x167;" horiz-adv-x="313" 
d="M44 303h59l23 116h-69l12 65h69l17 89l87 27l-22 -116h116l-13 -65h-116l-22 -116h93l-11 -52h-92l-14 -75c-5 -25 -8 -46 -8 -69c0 -29 14 -47 46 -47c15 0 28 1 39 4l-4 -65c-15 -6 -40 -9 -64 -9c-73 0 -102 44 -102 94c0 28 4 55 11 90l14 77h-59z" />
    <glyph glyph-name="tcaron" unicode="&#x165;" horiz-adv-x="313" 
d="M155 573l87 27l-22 -116h116l-13 -65h-116l-44 -235c-6 -27 -10 -52 -10 -77c0 -29 14 -47 46 -47c15 0 28 1 39 4l-4 -65c-15 -6 -40 -9 -64 -9c-73 0 -102 44 -102 94c0 28 4 55 11 90l47 245h-69l12 65h69zM317 542l-18 39c26 11 51 34 51 71c0 21 -10 41 -22 52
l62 14c15 -10 29 -36 29 -62c0 -70 -60 -106 -102 -114z" />
    <glyph glyph-name="tcommaaccent" unicode="&#x163;" horiz-adv-x="313" 
d="M155 573l87 27l-22 -116h116l-13 -65h-116l-44 -235c-6 -27 -10 -52 -10 -77c0 -29 14 -47 46 -47c15 0 28 1 39 4l-4 -65c-15 -6 -40 -9 -64 -9c-73 0 -102 44 -102 94c0 28 4 55 11 90l47 245h-69l12 65h69zM21 -221l-10 42c41 6 87 29 87 75c0 21 -11 38 -24 49l66 13
c14 -10 28 -33 28 -59c0 -78 -77 -114 -147 -120z" />
    <glyph glyph-name="tcommaaccent" unicode="&#x21b;" horiz-adv-x="313" 
d="M155 573l87 27l-22 -116h116l-13 -65h-116l-44 -235c-6 -27 -10 -52 -10 -77c0 -29 14 -47 46 -47c15 0 28 1 39 4l-4 -65c-15 -6 -40 -9 -64 -9c-73 0 -102 44 -102 94c0 28 4 55 11 90l47 245h-69l12 65h69zM21 -221l-10 42c41 6 87 29 87 75c0 21 -11 38 -24 49l66 13
c14 -10 28 -33 28 -59c0 -78 -77 -114 -147 -120z" />
    <glyph glyph-name="ubreve" unicode="&#x16d;" horiz-adv-x="526" 
d="M418 484h83l-66 -343c-10 -54 -17 -101 -21 -141h-75l13 91h-2c-44 -63 -107 -102 -171 -102c-62 0 -128 30 -128 140c0 23 3 50 9 82l53 273h82l-51 -270c-5 -27 -8 -50 -8 -71c0 -50 20 -84 77 -84c61 0 138 71 158 177zM215 683h50c-2 -37 16 -68 55 -68
c48 0 71 35 80 68h52c-12 -73 -65 -121 -134 -121c-88 0 -111 60 -103 121z" />
    <glyph glyph-name="uhungarumlaut" unicode="&#x171;" horiz-adv-x="526" 
d="M418 484h83l-66 -343c-10 -54 -17 -101 -21 -141h-75l13 91h-2c-44 -63 -107 -102 -171 -102c-62 0 -128 30 -128 140c0 23 3 50 9 82l53 273h82l-51 -270c-5 -27 -8 -50 -8 -71c0 -50 20 -84 77 -84c61 0 138 71 158 177zM294 686h88l-125 -143h-56zM439 686h88
l-126 -143h-55z" />
    <glyph glyph-name="umacron" unicode="&#x16b;" horiz-adv-x="526" 
d="M418 484h83l-66 -343c-10 -54 -17 -101 -21 -141h-75l13 91h-2c-44 -63 -107 -102 -171 -102c-62 0 -128 30 -128 140c0 23 3 50 9 82l53 273h82l-51 -270c-5 -27 -8 -50 -8 -71c0 -50 20 -84 77 -84c61 0 138 71 158 177zM226 646h219l-10 -53h-219z" />
    <glyph glyph-name="uogonek" unicode="&#x173;" horiz-adv-x="526" 
d="M500 484l-65 -343c-10 -54 -17 -101 -21 -141l-20 4c-30 -34 -54 -75 -54 -107c0 -24 16 -40 40 -40c14 0 30 4 43 10l9 -44c-22 -19 -53 -25 -80 -25c-51 0 -80 30 -80 77c0 53 50 110 68 133l11 83h-2c-43 -63 -106 -102 -170 -102c-62 0 -128 30 -128 140
c0 23 3 50 9 82l53 273h83l-52 -270c-5 -27 -8 -50 -8 -71c0 -50 20 -84 77 -84c61 0 137 71 157 177l48 248h82z" />
    <glyph glyph-name="uring" unicode="&#x16f;" horiz-adv-x="526" 
d="M418 484h83l-66 -343c-10 -54 -17 -101 -21 -141h-75l13 91h-2c-44 -63 -107 -102 -171 -102c-62 0 -128 30 -128 140c0 23 3 50 9 82l53 273h82l-51 -270c-5 -27 -8 -50 -8 -71c0 -50 20 -84 77 -84c61 0 138 71 158 177zM342 720h1c53 0 95 -35 95 -91
c-1 -58 -50 -95 -104 -95s-95 36 -96 88c-1 57 44 98 104 98zM339 682h-1c-29 0 -50 -25 -50 -58c0 -27 19 -52 48 -52c30 0 52 25 52 58c0 29 -19 52 -49 52z" />
    <glyph glyph-name="utilde" unicode="&#x169;" horiz-adv-x="526" 
d="M418 484h83l-66 -343c-10 -54 -17 -101 -21 -141h-75l13 91h-2c-44 -63 -107 -102 -171 -102c-62 0 -128 30 -128 140c0 23 3 50 9 82l53 273h82l-51 -270c-5 -27 -8 -50 -8 -71c0 -50 20 -84 77 -84c61 0 138 71 158 177zM258 568h-48c7 58 34 100 77 100
c26 0 40 -10 61 -22c15 -9 27 -17 40 -17c17 0 24 9 30 42h47c-8 -62 -30 -96 -77 -96c-23 0 -43 10 -59 20c-14 9 -27 18 -42 18c-17 0 -24 -19 -29 -45z" />
    <glyph glyph-name="wacute" unicode="&#x1e83;" horiz-adv-x="707" 
d="M61 484h82l17 -272c4 -60 3 -91 2 -130h3c11 31 29 73 53 121l143 281h73l30 -276c5 -53 8 -94 8 -126h2c13 39 26 76 46 123l131 279h84l-239 -484h-77l-32 263c-5 45 -7 86 -7 129h-2c-20 -47 -34 -83 -56 -126l-139 -266h-77zM457 686h100l-133 -143h-65z" />
    <glyph glyph-name="wcircumflex" unicode="&#x175;" horiz-adv-x="707" 
d="M61 484h82l17 -272c4 -60 3 -91 2 -130h3c11 31 29 73 53 121l143 281h73l30 -276c5 -53 8 -94 8 -126h2c13 39 26 76 46 123l131 279h84l-239 -484h-77l-32 263c-5 45 -7 86 -7 129h-2c-20 -47 -34 -83 -56 -126l-139 -266h-77zM404 686h59l69 -143h-62l-43 91h-2
l-70 -91h-67z" />
    <glyph glyph-name="wdieresis" unicode="&#x1e85;" horiz-adv-x="707" 
d="M61 484h82l17 -272c4 -60 3 -91 2 -130h3c11 31 29 73 53 121l143 281h73l30 -276c5 -53 8 -94 8 -126h2c13 39 26 76 46 123l131 279h84l-239 -484h-77l-32 263c-5 45 -7 86 -7 129h-2c-20 -47 -34 -83 -56 -126l-139 -266h-77zM330 570h-1c-27 0 -47 21 -47 49
c0 30 23 53 52 53s47 -22 47 -49c0 -29 -21 -53 -51 -53zM512 570h-1c-27 0 -46 21 -46 49c0 30 23 53 52 53s47 -22 47 -49c0 -29 -21 -53 -52 -53z" />
    <glyph glyph-name="wgrave" unicode="&#x1e81;" horiz-adv-x="707" 
d="M61 484h82l17 -272c4 -60 3 -91 2 -130h3c11 31 29 73 53 121l143 281h73l30 -276c5 -53 8 -94 8 -126h2c13 39 26 76 46 123l131 279h84l-239 -484h-77l-32 263c-5 45 -7 86 -7 129h-2c-20 -47 -34 -83 -56 -126l-139 -266h-77zM291 686h94l66 -143h-60z" />
    <glyph glyph-name="ycircumflex" unicode="&#x177;" horiz-adv-x="441" 
d="M48 484h86l48 -260c11 -56 17 -92 22 -128h2c13 31 27 65 52 119l124 269h88l-182 -368c-52 -104 -101 -189 -167 -254c-54 -55 -113 -78 -140 -84l-21 72c21 7 56 20 89 46c33 25 68 64 94 112c4 8 4 13 2 22zM263 686h59l69 -143h-62l-43 91h-2l-70 -91h-67z" />
    <glyph glyph-name="ygrave" unicode="&#x1ef3;" horiz-adv-x="441" 
d="M48 484h86l48 -260c11 -56 17 -92 22 -128h2c13 31 27 65 52 119l124 269h88l-182 -368c-52 -104 -101 -189 -167 -254c-54 -55 -113 -78 -140 -84l-21 72c21 7 56 20 89 46c33 25 68 64 94 112c4 8 4 13 2 22zM143 686h94l66 -143h-60z" />
    <glyph glyph-name="zacute" unicode="&#x17a;" horiz-adv-x="415" 
d="M-21 0l9 51l235 262c41 45 68 70 101 100v3h-248l14 68h347l-11 -55l-231 -258c-44 -47 -70 -72 -100 -100l-1 -3h269l-14 -68h-370zM318 686h100l-133 -143h-65z" />
    <glyph glyph-name="zdotaccent" unicode="&#x17c;" horiz-adv-x="415" 
d="M-21 0l9 51l235 262c41 45 68 70 101 100v3h-248l14 68h347l-11 -55l-231 -258c-44 -47 -70 -72 -100 -100l-1 -3h269l-14 -68h-370zM277 569h-1c-26 0 -46 21 -46 49c0 31 23 54 52 54s47 -22 47 -49c0 -31 -21 -54 -52 -54z" />
    <glyph glyph-name="kgreenlandic" unicode="&#x138;" horiz-adv-x="456" 
d="M110 0h-82l92 484h83l-42 -220h2c14 17 32 35 45 49l170 171h103l-211 -200l144 -284h-91l-117 238l-61 -55z" />
    <glyph glyph-name="napostrophe" unicode="&#x149;" horiz-adv-x="534" 
d="M111 0h-83l65 343c11 54 17 101 23 141h74l-12 -95h2c43 68 108 106 179 106c58 0 123 -33 123 -134c0 -22 -4 -52 -9 -78l-54 -283h-82l53 280c3 19 6 41 6 62c0 48 -19 84 -76 84c-59 0 -144 -71 -166 -191zM77 545l-12 41c26 9 55 33 55 73c0 21 -11 40 -23 51l63 14
c14 -10 28 -35 28 -61c0 -76 -65 -112 -111 -118z" />
    <glyph glyph-name="tonos" unicode="&#x384;" horiz-adv-x="360" 
d="M300 686h99l-133 -143h-64z" />
    <glyph glyph-name="dieresistonos" unicode="&#x385;" horiz-adv-x="346" 
d="M231 702h81l-96 -155h-49zM109 569h-1c-25 0 -43 19 -43 45c0 27 21 49 48 49s43 -21 43 -45c0 -27 -19 -49 -47 -49zM352 569h-1c-25 0 -43 19 -43 45c0 27 21 49 48 49s43 -21 43 -45c0 -27 -19 -49 -47 -49z" />
    <glyph glyph-name="Alpha" unicode="&#x391;" horiz-adv-x="568" 
d="M401 213h-233l-107 -213h-87l348 674h98l93 -674h-85zM199 279h196l-27 195c-3 35 -8 85 -11 124h-3c-18 -40 -35 -82 -55 -123z" />
    <glyph glyph-name="Beta" unicode="&#x392;" horiz-adv-x="518" 
d="M33 5l123 660c42 8 90 14 145 14c69 0 120 -14 155 -46c32 -26 49 -62 49 -105c0 -86 -69 -149 -144 -169v-2c60 -18 110 -69 110 -150c0 -70 -36 -124 -80 -157c-54 -40 -128 -55 -219 -55c-58 0 -108 4 -139 10zM228 607l-42 -219h62c97 0 171 50 171 132
c0 65 -49 93 -122 93c-31 0 -56 -2 -69 -6zM173 325l-47 -259c21 -3 45 -4 68 -4c98 -1 190 41 190 149c0 79 -67 114 -143 114h-68z" />
    <glyph glyph-name="Gamma" unicode="&#x393;" horiz-adv-x="436" 
d="M159 674h347l-14 -71h-263l-114 -603h-84z" />
    <glyph glyph-name="Delta" unicode="&#x394;" horiz-adv-x="596" 
d="M-23 0l8 50l346 624h96l116 -624l-9 -50h-557zM83 69h373l-68 368c-8 48 -18 114 -24 158h-3c-16 -35 -45 -91 -71 -140z" />
    <glyph glyph-name="Delta" unicode="&#xe000;" horiz-adv-x="596" 
d="M-23 0l8 50l346 624h96l116 -624l-9 -50h-557zM83 69h373l-68 368c-8 48 -18 114 -24 158h-3c-16 -35 -45 -91 -71 -140z" />
    <glyph glyph-name="Epsilon" unicode="&#x395;" horiz-adv-x="470" 
d="M433 387l-14 -70h-245l-46 -246h276l-14 -71h-359l128 674h344l-14 -71h-260l-41 -216h245z" />
    <glyph glyph-name="Zeta" unicode="&#x396;" horiz-adv-x="523" 
d="M-20 0l9 51l458 549l-1 3h-320l14 71h432l-11 -53l-454 -547l1 -3h354l-13 -71h-469z" />
    <glyph glyph-name="Eta" unicode="&#x397;" horiz-adv-x="627" 
d="M159 674h83l-54 -284h310l54 284h83l-128 -674h-83l59 317h-309l-60 -317h-83z" />
    <glyph glyph-name="Theta" unicode="&#x398;" horiz-adv-x="668" 
d="M304 -11h-1c-174 0 -255 131 -255 274c0 117 45 242 122 323c59 61 144 99 232 99c182 0 255 -132 255 -276c0 -114 -41 -239 -116 -319c-60 -63 -142 -101 -237 -101zM315 59h1c143 0 254 183 254 346c0 96 -32 210 -179 210c-151 0 -256 -190 -256 -345
c0 -110 49 -211 180 -211zM225 382h269l-11 -68h-269z" />
    <glyph glyph-name="Iota" unicode="&#x399;" horiz-adv-x="233" 
d="M158 674h83l-128 -674h-83z" />
    <glyph glyph-name="Kappa" unicode="&#x39a;" horiz-adv-x="515" 
d="M31 0l128 674h82l-62 -328l4 1c24 28 46 52 67 75l237 252h104l-284 -290l173 -384h-90l-147 331l-81 -75l-49 -256h-82z" />
    <glyph glyph-name="Lambda" unicode="&#x39b;" horiz-adv-x="569" 
d="M514 0h-86l-62 464c-5 46 -8 87 -11 130h-2c-17 -44 -36 -85 -57 -129l-234 -465h-89l348 674h99z" />
    <glyph glyph-name="Mu" unicode="&#x39c;" horiz-adv-x="780" 
d="M676 0h-80l48 364c9 64 24 163 36 228h-3c-31 -68 -69 -148 -105 -217l-201 -371h-63l-50 363c-10 78 -17 156 -21 225h-3c-14 -62 -35 -164 -51 -228l-92 -364h-78l175 674h106l53 -387c7 -57 14 -119 16 -169h3c21 50 50 111 79 167l208 389h109z" />
    <glyph glyph-name="Nu" unicode="&#x39d;" horiz-adv-x="632" 
d="M109 0h-78l128 674h91l154 -382c30 -77 45 -130 59 -188l2 1c4 61 11 117 29 211l68 358h78l-128 -674h-82l-154 381c-32 83 -47 130 -62 194l-3 -1c-7 -63 -18 -130 -35 -222z" />
    <glyph glyph-name="Xi" unicode="&#x39e;" horiz-adv-x="534" 
d="M132 674h434l-12 -70h-434zM113 384h367l-12 -70h-367zM12 71h455l-12 -71h-455z" />
    <glyph glyph-name="Omicron" unicode="&#x39f;" horiz-adv-x="668" 
d="M305 -11h-1c-174 0 -256 131 -256 274c0 117 45 242 122 324c59 60 145 98 233 98c181 0 255 -132 255 -276c0 -114 -42 -239 -117 -319c-60 -64 -141 -101 -236 -101zM315 59h1c144 0 254 183 254 346c0 96 -31 210 -178 210c-152 0 -256 -190 -256 -345
c0 -110 48 -211 179 -211z" />
    <glyph glyph-name="Pi" unicode="&#x3a0;" horiz-adv-x="621" 
d="M629 674l-127 -674h-83l114 604h-305l-114 -604h-83l128 674h470z" />
    <glyph glyph-name="Rho" unicode="&#x3a1;" horiz-adv-x="507" 
d="M31 0l127 665c37 8 91 14 146 14c65 0 127 -16 165 -52c32 -29 49 -68 49 -121c0 -75 -37 -139 -81 -175c-52 -44 -128 -65 -204 -65c-26 0 -48 2 -69 5l-51 -271h-82zM227 605l-50 -264c23 -5 43 -6 67 -6c114 0 190 70 190 165c0 80 -57 112 -134 112
c-33 0 -58 -3 -73 -7z" />
    <glyph glyph-name="Sigma" unicode="&#x3a3;" horiz-adv-x="534" 
d="M112 75v-4h373l-12 -71h-488l8 53l285 286l-170 276l9 59h443l-12 -70h-337l-1 -3l164 -266z" />
    <glyph glyph-name="Tau" unicode="&#x3a4;" horiz-adv-x="474" 
d="M148 0l114 602h-197l14 72h478l-14 -72h-198l-114 -602h-83z" />
    <glyph glyph-name="Upsilon" unicode="&#x3a5;" horiz-adv-x="544" 
d="M66 611l20 69c44 -4 104 -39 139 -90c40 -56 68 -142 62 -248h4c37 108 102 196 161 249c56 51 120 82 159 89l8 -72c-73 -28 -201 -123 -279 -297c-18 -40 -34 -81 -44 -138l-32 -173h-82l32 174c9 50 13 96 11 136c-7 184 -83 280 -159 301z" />
    <glyph glyph-name="Phi" unicode="&#x3a6;" horiz-adv-x="691" 
d="M256 -26l11 53c-119 12 -219 102 -219 253c0 236 190 370 336 369l11 51h78l-10 -51c119 -11 217 -103 217 -255c0 -227 -173 -363 -335 -367l-10 -53h-79zM279 90l93 496c-104 -1 -239 -118 -239 -302c0 -110 61 -183 146 -194zM450 586l-92 -496c136 6 238 142 238 303
c0 113 -63 184 -146 193z" />
    <glyph glyph-name="Chi" unicode="&#x3a7;" horiz-adv-x="521" 
d="M466 0h-88l-64 167c-18 45 -32 83 -43 118h-2c-21 -32 -45 -69 -79 -116l-121 -169h-99l263 343l-126 331h87l64 -173c15 -40 25 -71 34 -102h3c21 33 44 68 68 102l129 173h99l-260 -330z" />
    <glyph glyph-name="Psi" unicode="&#x3a8;" horiz-adv-x="647" 
d="M686 674l-39 -207c-31 -166 -131 -256 -291 -261l-38 -206h-80l39 206c-91 7 -200 53 -200 195c0 29 3 52 9 84l35 189h81l-35 -189c-5 -31 -8 -58 -8 -75c0 -86 41 -129 130 -138l75 402h79l-75 -402c99 5 172 58 200 208l37 194h81z" />
    <glyph glyph-name="Omega" unicode="&#x3a9;" horiz-adv-x="680" 
d="M145 66l1 4c-48 47 -91 132 -91 229c0 216 151 386 349 386c165 0 263 -120 263 -266c0 -164 -99 -289 -186 -349v-4h136l-12 -66h-245l9 55c96 56 210 185 210 355c0 105 -59 207 -183 207c-159 0 -255 -169 -255 -322c0 -115 46 -198 102 -240l-10 -55h-244l12 66h144z
" />
    <glyph glyph-name="Omega" unicode="&#x2126;" horiz-adv-x="680" 
d="M145 66l1 4c-48 47 -91 132 -91 229c0 216 151 386 349 386c165 0 263 -120 263 -266c0 -164 -99 -289 -186 -349v-4h136l-12 -66h-245l9 55c96 56 210 185 210 355c0 105 -59 207 -183 207c-159 0 -255 -169 -255 -322c0 -115 46 -198 102 -240l-10 -55h-244l12 66h144z
" />
    <glyph glyph-name="Alphatonos" unicode="&#x386;" horiz-adv-x="568" 
d="M401 213h-233l-107 -213h-87l348 674h98l93 -674h-85zM199 279h196l-27 195c-3 35 -8 85 -11 124h-3c-18 -40 -35 -82 -55 -123zM103 674h79l-48 -155h-50z" />
    <glyph glyph-name="Epsilontonos" unicode="&#x388;" horiz-adv-x="491" 
d="M453 387l-14 -70h-245l-46 -246h276l-14 -71h-359l128 674h344l-14 -71h-260l-41 -216h245zM34 674h79l-48 -155h-50z" />
    <glyph glyph-name="Etatonos" unicode="&#x389;" horiz-adv-x="647" 
d="M179 674h83l-55 -284h310l55 284h83l-128 -674h-83l59 317h-310l-59 -317h-83zM33 674h79l-48 -155h-50z" />
    <glyph glyph-name="Iotatonos" unicode="&#x38a;" horiz-adv-x="254" 
d="M179 674h83l-129 -674h-82zM37 674h78l-48 -155h-50z" />
    <glyph glyph-name="Iotadieresis" unicode="&#x3aa;" horiz-adv-x="233" 
d="M114 711h-1c-26 0 -46 21 -46 48c0 30 23 53 52 53s47 -22 47 -48c0 -30 -21 -53 -52 -53zM298 711h-1c-26 0 -46 21 -46 48c0 30 23 53 52 53s47 -22 47 -48c0 -30 -21 -53 -52 -53zM158 674h83l-129 -674h-82z" />
    <glyph glyph-name="Omicrontonos" unicode="&#x38c;" horiz-adv-x="683" 
d="M320 -11h-1c-174 0 -256 131 -256 274c0 117 45 242 122 324c59 60 145 98 233 98c181 0 255 -132 255 -276c0 -114 -42 -239 -117 -319c-60 -64 -141 -101 -236 -101zM330 59h1c144 0 254 183 254 346c0 96 -31 210 -178 210c-152 0 -256 -190 -256 -345
c0 -110 48 -211 179 -211zM32 674h79l-49 -155h-50z" />
    <glyph glyph-name="Upsilontonos" unicode="&#x38e;" horiz-adv-x="602" 
d="M123 611l20 69c44 -4 104 -39 139 -90c40 -56 68 -142 62 -248h4c37 108 102 196 161 249c56 51 120 82 159 89l8 -72c-73 -28 -201 -123 -279 -297c-18 -40 -34 -81 -44 -138l-32 -173h-82l32 174c9 50 13 96 11 136c-7 184 -83 280 -159 301zM18 674h78l-48 -155h-50z
" />
    <glyph glyph-name="Upsilondieresis" unicode="&#x3ab;" horiz-adv-x="544" 
d="M260 703h-1c-26 0 -46 21 -46 48c0 30 23 53 52 53s47 -22 47 -48c0 -30 -21 -53 -52 -53zM444 703h-1c-26 0 -46 21 -46 48c0 30 23 53 52 53s47 -22 47 -48c0 -30 -21 -53 -52 -53zM66 611l20 69c44 -4 104 -39 139 -90c40 -56 68 -142 62 -248h4
c37 108 102 196 161 249c56 51 120 82 159 89l8 -72c-73 -28 -201 -123 -279 -297c-18 -40 -34 -81 -44 -138l-32 -173h-82l32 174c9 50 13 96 11 136c-7 184 -83 280 -159 301z" />
    <glyph glyph-name="Omegatonos" unicode="&#x38f;" horiz-adv-x="697" 
d="M162 66l1 4c-48 47 -91 132 -91 229c0 216 151 386 349 386c165 0 263 -120 263 -266c0 -165 -98 -289 -186 -349v-4h136l-12 -66h-245l9 55c96 56 210 185 210 355c0 105 -59 207 -183 207c-159 0 -255 -169 -255 -322c0 -115 46 -198 102 -240l-10 -55h-244l12 66h144z
M36 674h78l-48 -155h-49z" />
    <glyph glyph-name="alpha" unicode="&#x3b1;" horiz-adv-x="541" 
d="M370 90h-3c-39 -59 -100 -101 -176 -101c-95 0 -158 70 -158 177c0 186 127 329 256 329c77 0 118 -43 132 -96h4c9 38 17 62 25 85h70c-7 -23 -18 -70 -28 -114c-16 -72 -33 -153 -46 -219c-13 -68 -5 -96 30 -95l-17 -64c-8 -2 -16 -3 -27 -3c-39 0 -68 30 -62 101z
M118 179v-1c0 -70 35 -121 103 -121c64 0 121 66 146 130c9 20 13 40 18 67c4 20 6 41 6 59c0 60 -34 116 -101 116c-85 0 -172 -116 -172 -250z" />
    <glyph glyph-name="beta" unicode="&#x3b2;" horiz-adv-x="533" 
d="M84 -198h-78c-7 31 2 101 16 173l85 460c25 134 67 199 109 235c39 33 79 51 136 51c88 0 148 -62 148 -147c0 -88 -52 -158 -114 -186l-1 -4c61 -14 114 -76 114 -164c0 -153 -123 -231 -226 -231c-67 0 -118 23 -153 65h-2l-13 -71c-10 -56 -25 -139 -21 -181zM258 346
l10 58c6 0 13 0 19 1c82 7 133 74 133 154c0 57 -30 95 -80 95c-75 0 -124 -71 -149 -208l-58 -311c18 -37 63 -81 132 -81c74 0 149 63 149 161c0 78 -54 128 -130 131h-26z" />
    <glyph glyph-name="gamma" unicode="&#x3b3;" horiz-adv-x="439" 
d="M168 -198h-83c16 76 39 178 36 267c-4 140 -60 329 -97 415h92c31 -69 75 -229 77 -378h4c63 90 142 223 164 343c2 11 4 25 4 35h82c1 -9 0 -24 -3 -39c-22 -120 -108 -273 -230 -415c-8 -10 -10 -16 -12 -27c-9 -58 -22 -133 -34 -201z" />
    <glyph glyph-name="delta" unicode="&#x3b4;" horiz-adv-x="522" 
d="M492 649l-35 -50c-26 29 -75 59 -125 59c-42 0 -62 -22 -62 -46c0 -27 24 -48 58 -80l68 -64c58 -56 94 -118 94 -201c0 -137 -101 -278 -257 -278c-114 0 -201 80 -201 206c0 152 112 252 222 297v4l-19 21c-21 23 -49 53 -49 95c0 56 54 109 139 109
c87 0 140 -42 167 -72zM339 409l-42 41c-85 -38 -180 -123 -180 -250c0 -94 60 -148 127 -148c87 0 161 95 161 205c0 56 -14 103 -66 152z" />
    <glyph glyph-name="epsilon" unicode="&#x3b5;" horiz-adv-x="406" 
d="M321 227h-63c-79 0 -150 -31 -150 -98c0 -48 48 -75 113 -75c54 0 112 19 140 34l7 -61c-36 -22 -108 -38 -169 -38c-96 0 -180 36 -180 126c0 78 65 134 135 146v4c-54 13 -81 48 -81 91c0 69 75 139 203 139c56 0 107 -14 130 -34l-22 -55c-16 10 -55 27 -109 27
c-73 0 -118 -35 -118 -80s50 -67 123 -67h52z" />
    <glyph glyph-name="zeta" unicode="&#x3b6;" horiz-adv-x="392" 
d="M451 708l3 -59c-147 -82 -329 -271 -329 -436c0 -77 34 -118 104 -143c31 -15 75 -22 122 -28c5 -1 7 -4 7 -9c0 -37 -50 -136 -89 -176l-54 18c16 21 46 81 53 110c-25 4 -60 10 -98 25c-74 29 -132 85 -132 189c0 162 153 350 301 443v3h-72c-45 0 -81 2 -108 11l17 57
c28 -6 71 -6 116 -5h159z" />
    <glyph glyph-name="eta" unicode="&#x3b7;" horiz-adv-x="534" 
d="M177 389h2c44 68 109 106 180 106c57 0 123 -33 123 -134c0 -22 -4 -53 -9 -78l-56 -298c-11 -58 -26 -143 -22 -183h-78c-9 22 4 113 16 180l57 298c3 18 6 41 6 62c0 48 -19 84 -76 84c-60 0 -143 -71 -165 -191l-43 -235h-84l65 343c10 54 18 106 13 141h73
c6 -21 5 -48 -2 -95z" />
    <glyph glyph-name="theta" unicode="&#x3b8;" horiz-adv-x="516" 
d="M223 -11h-1c-108 0 -178 82 -178 238c0 45 6 106 21 174c38 172 129 320 273 320c110 0 172 -94 172 -226c0 -47 -5 -98 -14 -146c-40 -204 -124 -360 -273 -360zM149 398h271c7 39 8 72 8 103c0 90 -32 157 -100 157c-93 0 -154 -122 -179 -260zM408 335h-271
c-7 -45 -11 -84 -11 -118c0 -105 41 -165 104 -165c91 0 147 116 178 283z" />
    <glyph glyph-name="iota" unicode="&#x3b9;" horiz-adv-x="229" 
d="M201 484l-70 -367c-9 -45 -2 -62 34 -60l-17 -63c-8 -3 -20 -5 -35 -5c-40 0 -70 18 -71 78c1 24 9 60 18 110l58 307h83z" />
    <glyph glyph-name="kappa" unicode="&#x3ba;" horiz-adv-x="461" 
d="M243 261l-1 -3c54 -16 84 -70 117 -136l61 -122h-91l-51 103c-34 66 -63 113 -116 113h-11l-40 -216h-82l70 377c7 39 13 89 9 107h77c5 -11 8 -43 0 -85l-24 -130h5c95 87 169 158 230 215h97v-4c-72 -65 -149 -132 -250 -219z" />
    <glyph glyph-name="lambda" unicode="&#x3bb;" horiz-adv-x="437" 
d="M311 0l-48 282c-4 28 -10 63 -14 95l-5 1c-11 -26 -27 -63 -43 -95l-144 -283h-88l242 452c7 12 10 22 10 28c0 5 0 12 -2 21c-16 86 -38 150 -99 151h-14l16 64c9 2 20 3 31 3c90 -3 119 -82 148 -224l95 -495h-85z" />
    <glyph glyph-name="uni03BC" unicode="&#x3bc;" horiz-adv-x="525" 
d="M195 484l-53 -287c-16 -83 7 -138 81 -138c51 0 99 53 124 102c10 18 18 39 22 60l49 263h83l-65 -344c-12 -62 -3 -81 28 -84l-18 -63c-10 -3 -13 -4 -27 -4c-39 0 -67 25 -63 100h-3c-29 -51 -81 -98 -146 -98c-43 0 -82 19 -98 58l-12 -65c-9 -53 -23 -141 -20 -182
h-75c-5 28 1 100 17 180l94 502h82z" />
    <glyph glyph-name="nu" unicode="&#x3bd;" horiz-adv-x="440" 
d="M37 484h86c14 -87 28 -178 41 -267c7 -49 11 -86 17 -132h4c61 91 151 234 176 346c5 21 7 38 7 53h81c0 -11 0 -26 -3 -42c-23 -129 -128 -293 -246 -442h-79c-28 161 -56 325 -84 484z" />
    <glyph glyph-name="xi" unicode="&#x3be;" horiz-adv-x="418" 
d="M372 372h-28c-139 0 -224 -74 -224 -171c0 -71 44 -112 132 -136c43 -12 88 -20 126 -23c5 -1 7 -4 7 -10c0 -37 -56 -142 -88 -175l-55 18c16 22 47 83 54 111c-29 3 -74 12 -109 23c-75 25 -155 76 -155 179c0 119 97 200 185 221v5c-53 19 -92 67 -92 126
c0 93 84 181 222 181c55 0 100 -14 122 -30l-23 -56c-18 12 -54 24 -97 24c-87 0 -140 -54 -140 -122c0 -66 57 -100 135 -103c9 -1 22 -1 38 -1z" />
    <glyph glyph-name="omicron" unicode="&#x3bf;" horiz-adv-x="522" 
d="M224 -11h-1c-121 0 -189 90 -189 199c0 160 111 307 268 307c131 0 190 -99 190 -201c0 -150 -106 -305 -268 -305zM233 55h1c98 0 172 126 172 239c0 56 -26 135 -113 135c-104 0 -173 -127 -173 -238c0 -79 44 -136 113 -136z" />
    <glyph glyph-name="pi" unicode="&#x3c0;" horiz-adv-x="528" 
d="M532 418h-67l-50 -271c-15 -82 -17 -122 -14 -147h-79c-6 15 -6 58 9 140l51 278h-151c-7 -31 -15 -65 -24 -101c-32 -124 -79 -260 -120 -317h-81c43 68 88 193 120 314c10 36 18 72 25 104c-44 0 -77 -3 -101 -10l-3 50c21 17 59 26 137 26h364z" />
    <glyph glyph-name="rho" unicode="&#x3c1;" horiz-adv-x="537" 
d="M79 -198h-78c-3 28 4 92 19 177l41 221c24 126 59 187 104 229c44 43 96 66 165 66c111 0 178 -85 178 -193c0 -173 -117 -313 -252 -313c-58 0 -113 26 -135 73h-3l-14 -79c-11 -57 -26 -141 -25 -181zM149 226l-5 -27c-2 -11 -3 -24 -3 -38c0 -44 38 -106 112 -106
c89 0 170 106 170 242c0 68 -35 130 -109 130c-71 0 -138 -60 -165 -201z" />
    <glyph glyph-name="sigma" unicode="&#x3c3;" horiz-adv-x="538" 
d="M422 439l-1 -5c53 -32 69 -106 69 -148c0 -140 -104 -297 -265 -297c-123 0 -191 90 -191 199c0 160 112 307 268 307h111h54h93l-10 -64c-22 0 -69 2 -128 8zM233 55h1c98 0 172 127 172 239c0 57 -26 136 -112 136c-105 0 -174 -128 -174 -239c0 -78 44 -136 113 -136z
" />
    <glyph glyph-name="tau" unicode="&#x3c4;" horiz-adv-x="388" 
d="M264 58l-12 -62c-10 -4 -27 -7 -42 -7c-60 0 -93 34 -93 99c0 18 4 43 8 66l49 264h-48c-52 0 -78 -4 -101 -8v49c19 12 54 25 134 25h261l-17 -66h-147l-49 -271c-4 -19 -5 -32 -5 -43c0 -36 18 -47 42 -47c8 0 14 0 20 1z" />
    <glyph glyph-name="upsilon" unicode="&#x3c5;" horiz-adv-x="501" 
d="M382 484h78c7 -17 12 -50 12 -88c0 -178 -77 -407 -266 -407c-89 0 -158 55 -158 153c0 18 3 39 7 60l23 117c16 86 23 138 20 165h78c6 -10 7 -44 -2 -89l-34 -186c-4 -19 -7 -40 -7 -54c0 -66 45 -97 87 -97c103 0 170 163 170 344c0 39 -4 69 -8 82z" />
    <glyph glyph-name="phi" unicode="&#x3c6;" horiz-adv-x="613" 
d="M234 50l54 297c19 101 68 148 137 148c83 0 158 -76 158 -192c0 -192 -138 -311 -284 -314l-36 -187h-76l35 187c-95 12 -187 80 -187 209c0 178 132 275 200 297l29 -45c-52 -25 -147 -106 -147 -243c0 -76 36 -141 117 -157zM368 365l-58 -315c106 7 191 111 191 248
c0 71 -33 134 -82 134c-26 0 -43 -22 -51 -67z" />
    <glyph glyph-name="chi" unicode="&#x3c7;" horiz-adv-x="423" 
d="M47 484h87l47 -156c11 -36 21 -73 30 -110h5c20 34 39 67 66 109c32 52 65 104 98 157h86c-75 -112 -150 -224 -224 -335l111 -342l-79 -20l-50 159c-14 46 -27 90 -41 139h-5c-17 -28 -36 -61 -60 -100c-41 -65 -82 -133 -123 -198l-70 27c77 117 152 230 229 346z" />
    <glyph glyph-name="psi" unicode="&#x3c8;" horiz-adv-x="624" 
d="M505 484h77c8 -19 14 -49 14 -91c0 -230 -113 -397 -291 -404l-35 -187h-77l35 187c-96 7 -174 61 -174 180c0 22 2 49 8 77l23 127c8 42 14 87 12 111h75c6 -11 5 -43 -3 -87l-27 -149c-4 -28 -7 -52 -7 -76c2 -82 48 -117 105 -121l104 560h77l-104 -560
c91 1 198 114 198 345c0 45 -6 76 -10 88z" />
    <glyph glyph-name="omega" unicode="&#x3c9;" horiz-adv-x="676" 
d="M515 490h75c27 -29 52 -95 52 -170c0 -185 -100 -331 -219 -331c-62 0 -100 33 -113 87h-4c-27 -51 -67 -87 -133 -87c-73 0 -140 59 -140 182c0 149 82 276 133 319h82v-2c-55 -49 -131 -169 -131 -310c0 -82 37 -119 76 -119c46 0 83 52 95 122l31 180h79l-32 -163
c-4 -23 -7 -42 -7 -57c0 -36 17 -82 67 -82c64 0 134 120 134 264c0 70 -18 132 -45 165v2z" />
    <glyph glyph-name="alphatonos" unicode="&#x3ac;" horiz-adv-x="541" 
d="M363 686h99l-133 -143h-65zM370 90h-3c-39 -59 -100 -101 -176 -101c-95 0 -158 70 -158 177c0 186 127 329 256 329c77 0 118 -43 132 -96h4c9 38 17 62 25 85h70c-7 -23 -18 -70 -28 -114c-16 -72 -33 -153 -46 -219c-13 -68 -5 -96 30 -95l-17 -64
c-8 -2 -16 -3 -27 -3c-39 0 -68 30 -62 101zM118 179v-1c0 -70 35 -121 103 -121c64 0 121 66 146 130c9 20 13 40 18 67c4 20 6 41 6 59c0 60 -34 116 -101 116c-85 0 -172 -116 -172 -250z" />
    <glyph glyph-name="epsilontonos" unicode="&#x3ad;" horiz-adv-x="406" 
d="M301 686h99l-133 -143h-65zM321 227h-63c-79 0 -150 -31 -150 -98c0 -48 48 -75 113 -75c54 0 112 19 140 34l7 -60c-36 -23 -110 -39 -169 -39c-96 0 -180 36 -180 126c0 78 65 134 135 146v4c-54 13 -81 48 -81 91c0 69 75 139 203 139c56 0 107 -14 130 -34l-22 -55
c-16 10 -55 27 -109 27c-73 0 -118 -35 -118 -80s50 -67 123 -67h51z" />
    <glyph glyph-name="etatonos" unicode="&#x3ae;" horiz-adv-x="534" 
d="M371 686h99l-133 -143h-65zM177 389h2c44 68 109 106 180 106c57 0 123 -33 123 -134c0 -22 -4 -53 -9 -78l-56 -298c-11 -58 -26 -142 -22 -183h-78c-9 22 4 113 16 180l57 298c3 18 6 41 6 62c0 48 -19 84 -76 84c-60 0 -143 -71 -165 -191l-44 -235h-83l65 343
c10 54 18 106 13 141h73c6 -21 5 -48 -2 -95z" />
    <glyph glyph-name="iotatonos" unicode="&#x3af;" horiz-adv-x="229" 
d="M229 686h99l-133 -143h-64zM200 484l-70 -367c-8 -45 -2 -62 34 -60l-17 -63c-8 -3 -20 -5 -35 -5c-38 0 -70 18 -70 78c0 23 8 61 16 104l59 313h83z" />
    <glyph glyph-name="iotadieresis" unicode="&#x3ca;" horiz-adv-x="229" 
d="M80 557h-1c-26 0 -46 21 -46 48c0 30 23 53 52 53s47 -22 47 -48c0 -30 -21 -53 -52 -53zM263 557h-1c-26 0 -46 21 -46 48c0 30 23 53 52 53s47 -22 47 -48c0 -30 -21 -53 -52 -53zM200 484l-70 -367c-8 -44 -2 -62 34 -60l-17 -63c-8 -3 -20 -5 -35 -5
c-40 0 -70 19 -70 77c0 23 8 62 16 105l59 313h83z" />
    <glyph glyph-name="omicrontonos" unicode="&#x3cc;" horiz-adv-x="522" 
d="M354 686h99l-133 -143h-64zM224 -11h-1c-121 0 -189 90 -189 199c0 160 111 307 268 307c131 0 190 -99 190 -201c0 -150 -106 -305 -268 -305zM233 55h1c98 0 172 126 172 239c0 56 -26 135 -113 135c-104 0 -173 -127 -173 -238c0 -79 44 -136 113 -136z" />
    <glyph glyph-name="upsilontonos" unicode="&#x3cd;" horiz-adv-x="501" 
d="M328 686h99l-133 -143h-65zM382 484h78c7 -17 12 -49 12 -87c0 -179 -79 -408 -268 -408c-89 0 -156 55 -156 154c0 17 4 38 7 59l23 117c16 85 23 138 20 165h78c6 -10 7 -44 -1 -89l-35 -186c-4 -22 -7 -40 -7 -54c0 -66 44 -97 86 -97c103 0 171 165 171 344
c0 39 -4 69 -8 82z" />
    <glyph glyph-name="upsilondieresis" unicode="&#x3cb;" horiz-adv-x="501" 
d="M200 557h-1c-26 0 -46 21 -46 48c0 30 23 53 52 53s47 -22 47 -48c0 -30 -21 -53 -52 -53zM383 557h-1c-26 0 -46 21 -46 48c0 30 23 53 52 53s47 -22 47 -48c0 -30 -21 -53 -52 -53zM382 484h78c7 -17 12 -49 12 -87c0 -179 -79 -408 -268 -408c-89 0 -156 54 -156 154
c0 17 3 37 7 59l23 117c16 85 23 138 20 165h78c6 -10 7 -44 -1 -89l-35 -186c-4 -21 -7 -41 -7 -54c0 -66 45 -97 86 -97c103 0 171 165 171 344c0 39 -4 69 -8 82z" />
    <glyph glyph-name="omegatonos" unicode="&#x3ce;" horiz-adv-x="676" 
d="M439 686h99l-133 -143h-65zM515 490h75c27 -29 52 -95 52 -170c0 -185 -100 -331 -219 -331c-62 0 -100 33 -113 87h-4c-27 -51 -67 -87 -133 -87c-73 0 -140 59 -140 182c0 149 82 276 133 319h82v-2c-55 -49 -131 -169 -131 -310c0 -82 37 -119 76 -119
c46 0 83 52 95 122l31 180h79l-32 -163c-4 -23 -7 -42 -7 -57c0 -36 16 -82 67 -82c63 0 134 120 134 264c0 70 -18 132 -45 165v2z" />
    <glyph glyph-name="iotadieresistonos" unicode="&#x390;" horiz-adv-x="229" 
d="M200 484l-70 -368c-8 -44 -2 -61 34 -59l-17 -63c-8 -3 -20 -5 -34 -5c-40 0 -71 19 -71 78c0 24 8 61 16 105l59 312h83zM186 693h81l-96 -154h-49zM64 560h-1c-24 0 -42 19 -42 44c0 27 21 48 47 48c27 0 43 -20 43 -44c0 -27 -19 -48 -47 -48zM307 560h-1
c-24 0 -42 19 -42 44c0 27 21 48 47 48c27 0 43 -20 43 -44c0 -27 -19 -48 -47 -48z" />
    <glyph glyph-name="upsilondieresistonos" unicode="&#x3b0;" horiz-adv-x="501" 
d="M382 484h78c7 -17 12 -49 12 -87c0 -179 -79 -408 -268 -408c-89 0 -156 55 -156 154c0 16 4 38 7 59l23 117c16 85 23 138 20 165h78c6 -10 7 -44 -1 -89l-35 -186c-4 -20 -7 -40 -7 -54c0 -66 44 -97 86 -97c103 0 171 165 171 344c0 39 -4 69 -8 82zM296 693h80
l-96 -154h-49zM173 560h-1c-24 0 -42 19 -42 44c0 27 21 48 47 48c27 0 43 -20 43 -44c0 -27 -19 -48 -47 -48zM416 560h-1c-24 0 -42 19 -42 44c0 27 21 48 47 48c27 0 43 -20 43 -44c0 -27 -19 -48 -47 -48z" />
    <glyph glyph-name="uni03C2" unicode="&#x3c2;" horiz-adv-x="410" 
d="M277 -143l-55 19c17 22 46 81 53 109c-24 3 -65 12 -96 24c-66 24 -145 81 -145 195c0 151 119 291 283 291c47 0 83 -10 106 -24l-24 -60c-23 11 -48 18 -83 18c-105 0 -196 -89 -196 -215c0 -82 47 -124 117 -147c40 -13 75 -20 118 -26c6 -1 8 -5 8 -11
c0 -42 -54 -139 -86 -173z" />
    <glyph glyph-name="uni037E" unicode="&#x37e;" horiz-adv-x="214" 
d="M32 -117l-64 -7c28 60 70 167 88 238l98 2c-32 -75 -90 -186 -122 -233zM144 323h-1c-34 0 -57 27 -57 61c0 38 27 70 66 70c35 0 58 -27 58 -63c0 -37 -27 -68 -66 -68z" />
    <glyph glyph-name="anoteleia" unicode="&#x387;" horiz-adv-x="214" 
d="M117 255h-1c-33 0 -56 27 -56 61c0 38 27 69 65 69c35 0 58 -26 58 -62c0 -38 -27 -68 -66 -68z" />
    <glyph glyph-name="afii10017" unicode="&#x410;" horiz-adv-x="568" 
d="M401 213h-233l-107 -213h-87l348 674h98l93 -674h-85zM199 279h196l-27 195c-3 35 -8 85 -11 124h-3c-18 -40 -35 -82 -55 -123z" />
    <glyph glyph-name="afii10018" unicode="&#x411;" horiz-adv-x="519" 
d="M159 674h340l-13 -71h-257l-35 -186c19 4 55 6 77 6c118 0 208 -60 208 -187c0 -76 -31 -134 -78 -172c-60 -50 -149 -70 -236 -70c-57 0 -106 4 -133 8zM181 352l-54 -287c17 -4 38 -5 67 -5c96 0 199 57 199 165c0 91 -58 133 -145 133c-19 0 -48 -3 -67 -6z" />
    <glyph glyph-name="afii10019" unicode="&#x412;" horiz-adv-x="520" 
d="M33 5l123 660c42 8 90 14 145 14c69 0 120 -14 155 -46c32 -26 49 -62 49 -105c0 -86 -69 -149 -144 -169v-2c60 -18 110 -69 110 -150c0 -70 -36 -124 -80 -157c-54 -40 -128 -55 -219 -55c-58 0 -108 4 -139 10zM228 607l-42 -219h62c97 0 171 50 171 132
c0 65 -49 93 -122 93c-31 0 -56 -2 -69 -6zM173 325l-47 -259c21 -3 45 -4 68 -4c98 -1 190 41 190 149c0 79 -67 114 -143 114h-68z" />
    <glyph glyph-name="afii10020" unicode="&#x413;" horiz-adv-x="393" 
d="M159 674h317l-14 -73h-234l-114 -601h-83z" />
    <glyph glyph-name="afii10050" unicode="&#x490;" horiz-adv-x="400" 
d="M158 674h253l40 126h67l-49 -199h-242l-112 -601h-84z" />
    <glyph glyph-name="afii10021" unicode="&#x414;" horiz-adv-x="602" 
d="M228 674h358l-114 -605l57 -2l-54 -229h-68l27 162h-399l-39 -162h-67l38 229l47 2c46 62 81 124 110 189c31 75 53 153 70 240zM291 603l-25 -134c-15 -75 -36 -154 -66 -227c-27 -62 -59 -122 -98 -172h287l100 533h-198z" />
    <glyph glyph-name="afii10022" unicode="&#x415;" horiz-adv-x="470" 
d="M433 387l-14 -70h-245l-46 -246h276l-14 -71h-359l128 674h344l-14 -71h-260l-41 -216h245z" />
    <glyph glyph-name="afii10024" unicode="&#x416;" horiz-adv-x="771" 
d="M106 674h89l152 -305h20l56 305h79l-57 -305h22l261 305h96l-290 -315c91 -15 124 -93 143 -185c11 -61 16 -119 34 -174h-84c-14 50 -20 108 -31 168c-17 93 -49 141 -139 141h-22l-58 -309h-80l58 309h-21c-91 0 -141 -49 -191 -152c-26 -54 -49 -105 -78 -157h-89
c33 50 61 117 92 178c60 115 108 168 214 182z" />
    <glyph glyph-name="afii10025" unicode="&#x417;" horiz-adv-x="449" 
d="M125 322l12 65h32c82 0 178 41 177 135c0 59 -42 95 -99 95c-49 0 -94 -18 -130 -39l-19 59c41 27 99 48 166 48c89 0 168 -49 168 -151c0 -94 -72 -156 -154 -176v-2c72 -16 125 -72 125 -156c0 -135 -112 -211 -247 -211c-65 0 -127 20 -169 47l28 64
c26 -16 85 -41 142 -41c87 0 160 51 160 145c0 82 -82 120 -154 118h-38z" />
    <glyph glyph-name="afii10026" unicode="&#x418;" horiz-adv-x="629" 
d="M160 674h79l-57 -302c-19 -98 -36 -181 -58 -266l2 -1c46 74 95 141 155 220l270 349h87l-128 -674h-79l59 311c19 95 33 166 53 247l-2 1c-45 -74 -102 -151 -160 -227l-257 -332h-92z" />
    <glyph glyph-name="afii10027" unicode="&#x419;" horiz-adv-x="629" 
d="M160 674h79l-57 -302c-19 -98 -36 -181 -58 -266l2 -1c46 74 95 141 155 220l270 349h87l-128 -674h-79l59 311c19 95 33 166 53 247l-2 1c-45 -74 -102 -151 -160 -227l-257 -332h-92zM297 827h64c-1 -32 14 -60 55 -60c42 0 63 23 72 60h66c-13 -61 -63 -105 -142 -105
c-83 0 -116 45 -115 105z" />
    <glyph glyph-name="afii10028" unicode="&#x41a;" horiz-adv-x="523" 
d="M159 674h81l-57 -304h21l278 304h102l-305 -315c93 -17 131 -88 151 -193c11 -59 18 -118 34 -166h-86c-13 38 -22 104 -30 156c-20 104 -55 153 -158 153h-19l-58 -309h-82z" />
    <glyph glyph-name="afii10029" unicode="&#x41b;" horiz-adv-x="589" 
d="M217 674h380l-129 -674h-83l116 603h-217l-39 -207c-35 -181 -79 -291 -144 -349c-26 -27 -72 -54 -132 -56l-8 70c35 4 66 21 88 44c52 50 88 145 115 285z" />
    <glyph glyph-name="afii10030" unicode="&#x41c;" horiz-adv-x="780" 
d="M676 0h-80l48 364c9 64 24 163 36 228h-3c-31 -68 -69 -148 -105 -217l-201 -371h-63l-50 363c-10 78 -17 156 -21 225h-3c-14 -62 -35 -164 -51 -228l-92 -364h-78l175 674h106l53 -387c7 -57 14 -119 16 -169h3c21 50 50 111 79 167l208 389h109z" />
    <glyph glyph-name="afii10031" unicode="&#x41d;" horiz-adv-x="627" 
d="M159 674h83l-54 -284h310l54 284h83l-128 -674h-83l59 317h-309l-60 -317h-83z" />
    <glyph glyph-name="afii10032" unicode="&#x41e;" horiz-adv-x="668" 
d="M305 -11h-1c-174 0 -256 131 -256 274c0 117 45 242 122 324c59 60 145 98 233 98c181 0 255 -132 255 -276c0 -114 -42 -239 -117 -319c-60 -64 -141 -101 -236 -101zM315 59h1c144 0 254 183 254 346c0 96 -31 210 -178 210c-152 0 -256 -190 -256 -345
c0 -110 48 -211 179 -211z" />
    <glyph glyph-name="afii10033" unicode="&#x41f;" horiz-adv-x="611" 
d="M159 674h460l-128 -674h-83l116 603h-295l-115 -603h-83z" />
    <glyph glyph-name="afii10034" unicode="&#x420;" horiz-adv-x="507" 
d="M31 0l127 665c37 8 91 14 146 14c65 0 127 -16 165 -52c32 -29 49 -68 49 -121c0 -75 -37 -139 -81 -175c-52 -44 -128 -65 -204 -65c-26 0 -48 2 -69 5l-51 -271h-82zM227 605l-50 -264c23 -5 43 -6 67 -6c114 0 190 70 190 165c0 80 -57 112 -134 112
c-33 0 -58 -3 -73 -7z" />
    <glyph glyph-name="afii10035" unicode="&#x421;" horiz-adv-x="555" 
d="M486 90l11 -68c-38 -17 -99 -32 -175 -32c-170 0 -273 107 -273 279c0 127 51 248 143 325c70 59 156 90 255 90c74 0 128 -19 146 -32l-27 -67c-25 15 -73 28 -133 28c-70 0 -141 -27 -193 -75c-63 -60 -103 -155 -103 -257c0 -120 55 -220 205 -220c51 0 107 10 144 29
z" />
    <glyph glyph-name="afii10036" unicode="&#x422;" horiz-adv-x="474" 
d="M148 0l114 602h-197l14 72h478l-14 -72h-198l-114 -602h-83z" />
    <glyph glyph-name="afii10037" unicode="&#x423;" horiz-adv-x="495" 
d="M87 674h90l83 -302c9 -36 20 -77 30 -118h2c25 53 43 97 63 140l131 280h93l-163 -325c-52 -104 -120 -239 -185 -302c-43 -43 -89 -58 -133 -58c-26 0 -51 5 -67 13l17 69c11 -5 28 -8 47 -8c59 0 102 57 129 107c7 12 8 22 3 40z" />
    <glyph glyph-name="afii10038" unicode="&#x424;" horiz-adv-x="702" 
d="M263 -26l11 59c-115 16 -219 103 -219 261c0 249 190 355 336 354l11 52h78l-10 -55c117 -16 217 -101 217 -268c0 -224 -157 -346 -335 -348l-10 -55h-79zM286 95l93 491c-108 -2 -239 -101 -239 -288c0 -115 62 -186 146 -203zM457 584l-92 -493c152 6 238 131 238 293
c0 118 -62 188 -146 200z" />
    <glyph glyph-name="afii10039" unicode="&#x425;" horiz-adv-x="521" 
d="M466 0h-88l-64 167c-18 45 -32 83 -43 118h-2c-21 -32 -45 -69 -79 -116l-121 -169h-99l263 343l-126 331h87l64 -173c15 -40 25 -71 34 -102h2c22 33 45 68 69 102l129 173h99l-260 -330z" />
    <glyph glyph-name="afii10040" unicode="&#x426;" horiz-adv-x="620" 
d="M160 674h83l-115 -603h293l115 603h82l-115 -605l57 -2l-54 -229h-68l27 162h-433z" />
    <glyph glyph-name="afii10041" unicode="&#x427;" horiz-adv-x="555" 
d="M136 674h83l-37 -194c-4 -18 -10 -51 -10 -76c0 -66 42 -97 112 -97c57 0 111 24 135 42l61 325h82l-128 -678h-82l53 280h-2c-30 -17 -87 -38 -150 -38c-104 0 -166 56 -166 148c0 30 6 62 12 94z" />
    <glyph glyph-name="afii10042" unicode="&#x428;" horiz-adv-x="810" 
d="M159 674h82l-115 -603h207l114 603h82l-115 -603h207l115 603h82l-129 -674h-658z" />
    <glyph glyph-name="afii10043" unicode="&#x429;" horiz-adv-x="820" 
d="M159 674h83l-116 -603h207l114 603h83l-116 -603h207l115 603h82l-116 -605l57 -2l-53 -229h-69l27 162h-633z" />
    <glyph glyph-name="afii10044" unicode="&#x42a;" horiz-adv-x="618" 
d="M79 674h267l-48 -253c20 3 47 6 76 6c121 0 211 -61 211 -189c0 -70 -27 -125 -69 -165c-60 -57 -153 -79 -249 -79c-58 0 -104 4 -131 8l114 600h-185zM284 352l-54 -285c17 -4 38 -5 67 -5c97 0 200 54 200 166c0 90 -58 131 -144 131c-26 0 -51 -4 -69 -7z" />
    <glyph glyph-name="afii10045" unicode="&#x42b;" horiz-adv-x="720" 
d="M159 674h83l-49 -253c20 4 51 6 77 6c116 0 207 -61 207 -189c-1 -70 -27 -124 -68 -163c-63 -61 -154 -81 -247 -81c-57 0 -104 4 -131 8zM179 352l-53 -285c15 -4 38 -5 66 -5c95 0 197 56 197 164c0 92 -57 133 -142 133c-22 0 -49 -3 -68 -7zM643 674h86l-129 -674
h-86z" />
    <glyph glyph-name="afii10046" unicode="&#x42c;" horiz-adv-x="518" 
d="M159 674h83l-48 -253c18 4 49 6 76 6c120 0 211 -61 211 -189c0 -71 -27 -125 -67 -163c-62 -58 -155 -81 -251 -81c-58 0 -104 4 -131 8zM180 352l-54 -285c17 -4 38 -5 67 -5c99 0 200 56 200 164c0 92 -58 133 -146 133c-25 0 -52 -3 -67 -7z" />
    <glyph glyph-name="afii10047" unicode="&#x42d;" horiz-adv-x="540" 
d="M125 308l13 68h304c1 10 1 19 1 34c-1 110 -68 204 -195 204c-45 0 -100 -11 -139 -29l-18 63c33 17 98 37 169 37c169 0 270 -113 270 -291c0 -109 -36 -226 -117 -309c-66 -64 -148 -96 -255 -96c-72 0 -136 19 -170 40l25 66c38 -21 93 -35 143 -35
c156 0 252 110 276 248h-307z" />
    <glyph glyph-name="afii10048" unicode="&#x42e;" horiz-adv-x="862" 
d="M160 674h83l-55 -285h102c18 74 52 145 99 197c56 61 137 99 221 99c171 0 242 -132 242 -277c0 -113 -40 -238 -110 -318c-57 -63 -134 -101 -224 -101c-165 0 -242 132 -242 266c0 20 2 42 5 63h-107l-60 -318h-83zM527 59h1c135 0 238 183 238 346
c0 95 -28 210 -167 210c-143 0 -241 -191 -241 -345c0 -110 45 -211 169 -211z" />
    <glyph glyph-name="afii10049" unicode="&#x42f;" horiz-adv-x="519" 
d="M527 664l-125 -664h-83l57 295h-53c-109 0 -149 -80 -191 -166c-20 -41 -42 -91 -65 -129h-91c28 42 55 105 78 153c36 72 78 148 155 170v3c-59 17 -112 62 -112 145c0 78 43 134 92 166c54 30 118 42 186 42c52 0 114 -7 152 -15zM388 358l46 249c-14 3 -40 6 -70 6
c-95 0 -181 -43 -181 -143c0 -76 65 -113 140 -113c26 0 54 0 65 1z" />
    <glyph glyph-name="afii10023" unicode="&#x401;" horiz-adv-x="470" 
d="M433 387l-14 -70h-245l-46 -246h276l-14 -71h-359l128 674h344l-14 -71h-260l-41 -216h245zM253 720h-1c-25 0 -46 21 -46 48c0 29 23 53 52 53s47 -24 47 -48c0 -29 -23 -53 -52 -53zM437 720h-1c-25 0 -46 21 -46 48c0 29 23 53 52 53s47 -24 47 -48
c0 -29 -23 -53 -52 -53z" />
    <glyph glyph-name="afii10051" unicode="&#x402;" horiz-adv-x="635" 
d="M80 674h494l-14 -72h-231l-36 -190h2c29 19 77 37 125 37c108 0 173 -84 173 -209c0 -107 -38 -215 -105 -283c-57 -59 -123 -86 -177 -95l-15 69c45 11 91 33 128 73c51 57 81 142 81 232c0 80 -36 143 -115 143c-39 0 -77 -15 -110 -37l-64 -342h-82l114 602h-182z" />
    <glyph glyph-name="afii10052" unicode="&#x403;" horiz-adv-x="393" 
d="M159 674h317l-14 -73h-234l-114 -601h-83zM366 828h108l-136 -118h-74z" />
    <glyph glyph-name="afii10053" unicode="&#x404;" horiz-adv-x="548" 
d="M591 652l-26 -67c-23 12 -70 28 -131 28c-145 0 -258 -99 -286 -237h322l-11 -67h-319c-2 -9 -3 -25 -3 -39c0 -114 67 -211 206 -211c55 0 107 15 143 33l12 -66c-36 -19 -98 -37 -180 -37c-177 0 -269 122 -269 289c0 118 45 228 122 301c69 64 161 105 271 105
c81 0 129 -21 149 -32z" />
    <glyph glyph-name="afii10054" unicode="&#x405;" horiz-adv-x="466" 
d="M12 37l30 68c36 -25 87 -43 143 -43c76 0 146 45 146 126c0 50 -28 87 -99 126c-86 46 -134 100 -134 173c0 120 104 197 228 197c66 0 115 -19 138 -35l-30 -68c-21 13 -63 32 -116 32c-84 0 -134 -55 -134 -110s34 -86 105 -125c83 -44 128 -97 128 -180
c0 -116 -91 -208 -243 -208c-68 0 -134 22 -162 47z" />
    <glyph glyph-name="afii10055" unicode="&#x406;" horiz-adv-x="233" 
d="M158 674h83l-128 -674h-83z" />
    <glyph glyph-name="afii10056" unicode="&#x407;" horiz-adv-x="233" 
d="M158 674h83l-128 -674h-83zM121 720h-1c-25 0 -46 21 -46 48c0 29 23 53 52 53s47 -24 47 -48c0 -29 -23 -53 -52 -53zM305 720h-1c-25 0 -46 21 -46 48c0 29 23 53 52 53s47 -24 47 -48c0 -29 -23 -53 -52 -53z" />
    <glyph glyph-name="afii10057" unicode="&#x408;" horiz-adv-x="364" 
d="M210 220l86 454h83l-88 -464c-30 -157 -96 -221 -222 -221c-41 0 -83 9 -100 18l18 71c22 -10 49 -15 85 -15c71 0 115 37 138 157z" />
    <glyph glyph-name="afii10058" unicode="&#x409;" horiz-adv-x="864" 
d="M218 674h370l-49 -253c20 4 52 6 78 6c120 0 210 -61 210 -188c0 -70 -27 -126 -70 -164c-61 -58 -158 -81 -248 -81c-58 0 -105 4 -131 8l113 601h-207l-39 -206c-31 -166 -75 -290 -145 -352c-31 -30 -79 -53 -131 -54l-7 70c29 2 67 21 87 42c53 51 91 156 115 287z
M526 353l-54 -286c17 -4 36 -5 65 -5c99 0 203 56 203 168c0 93 -61 129 -145 129c-26 0 -50 -2 -69 -6z" />
    <glyph glyph-name="afii10059" unicode="&#x40a;" horiz-adv-x="871" 
d="M160 674h83l-53 -272h270l52 272h83l-50 -262c21 4 48 6 75 6c116 0 214 -59 214 -188c0 -65 -25 -118 -69 -159c-60 -56 -157 -77 -247 -77c-58 0 -106 4 -133 8l63 332h-271l-63 -334h-82zM532 344l-53 -278c17 -3 40 -4 67 -4c107 0 201 57 201 162
c0 86 -69 126 -149 126c-24 0 -47 -2 -66 -6z" />
    <glyph glyph-name="afii10060" unicode="&#x40b;" horiz-adv-x="650" 
d="M81 674h490l-14 -71h-230l-38 -197h2c28 19 85 45 152 45c100 0 146 -66 146 -149c0 -29 -5 -66 -12 -100l-37 -202h-82l38 198c6 31 10 63 10 85c0 51 -25 97 -103 97c-51 0 -102 -25 -128 -46l-63 -334h-81l114 603h-179z" />
    <glyph glyph-name="afii10061" unicode="&#x40c;" horiz-adv-x="523" 
d="M159 674h81l-57 -304h21l278 304h102l-305 -315c93 -17 131 -88 151 -193c11 -59 18 -118 34 -166h-86c-13 38 -22 104 -30 156c-20 104 -55 153 -158 153h-19l-58 -309h-82zM400 828h108l-136 -118h-74z" />
    <glyph glyph-name="afii10062" unicode="&#x40e;" horiz-adv-x="495" 
d="M87 674h90l83 -302c9 -36 20 -77 30 -118h2c25 53 43 97 63 140l131 280h93l-163 -325c-52 -104 -120 -239 -185 -302c-43 -43 -89 -58 -133 -58c-26 0 -51 5 -67 13l17 69c11 -5 28 -8 47 -8c59 0 102 57 129 107c7 12 8 22 3 40zM229 828h64c-1 -32 14 -60 55 -60
c42 0 63 23 72 60h66c-13 -61 -63 -105 -142 -105c-83 0 -116 45 -115 105z" />
    <glyph glyph-name="afii10145" unicode="&#x40f;" horiz-adv-x="609" 
d="M159 674h84l-115 -603h292l115 603h82l-128 -674h-185l-41 -173h-67l26 173h-191z" />
    <glyph glyph-name="afii10065" unicode="&#x430;" horiz-adv-x="522" 
d="M427 0h-77c0 29 5 75 11 125h-2c-53 -101 -120 -136 -188 -136c-86 0 -139 68 -139 160c0 169 124 346 334 346c46 0 97 -8 130 -18l-49 -253c-16 -84 -22 -170 -20 -224zM375 276l28 146c-12 4 -29 7 -57 7c-125 0 -228 -130 -228 -265c0 -54 19 -107 82 -107
c70 0 152 90 175 219z" />
    <glyph glyph-name="afii10066" unicode="&#x431;" horiz-adv-x="513" 
d="M537 720l-12 -73c-22 -8 -45 -13 -69 -16c-95 -14 -178 -27 -245 -109c-29 -35 -55 -88 -68 -141h3c39 61 101 103 177 103c104 0 161 -81 161 -185c0 -147 -94 -310 -261 -310c-118 0 -176 90 -176 226c0 133 42 262 113 347c82 101 178 123 296 139c29 4 57 10 81 19z
M233 53h1c109 0 164 139 164 238c0 68 -28 129 -99 129c-48 0 -95 -32 -127 -78c-25 -36 -42 -91 -42 -149c0 -71 31 -140 103 -140z" />
    <glyph glyph-name="afii10067" unicode="&#x432;" horiz-adv-x="476" 
d="M300 495h1c76 0 136 -35 136 -112c0 -65 -64 -105 -114 -121v-2c48 -7 100 -40 100 -108c0 -116 -119 -162 -218 -162c-97 0 -162 39 -162 141c0 88 40 257 126 321c36 27 77 43 131 43zM289 434h-1c-86 0 -122 -92 -141 -164c54 7 119 16 160 39c27 15 50 37 50 67
c0 39 -30 58 -68 58zM238 226h-1c-42 0 -79 -9 -101 -15c-4 -20 -9 -49 -9 -74c0 -55 28 -86 88 -86c65 0 124 35 124 97c0 56 -46 78 -101 78z" />
    <glyph glyph-name="afii10068" unicode="&#x433;" horiz-adv-x="367" 
d="M113 403l-14 58c30 17 75 33 127 33c86 -2 131 -49 131 -118c0 -82 -70 -121 -149 -157c-60 -28 -109 -55 -109 -104c0 -34 21 -60 71 -61c44 -1 90 18 116 33l13 -60c-34 -20 -92 -38 -145 -37c-86 2 -140 46 -140 124c0 89 74 127 150 163c51 24 112 49 112 97
c0 30 -21 54 -66 55c-35 1 -69 -12 -97 -26z" />
    <glyph glyph-name="afii10098" unicode="&#x491;" horiz-adv-x="372" 
d="M120 484h212l38 110h64l-46 -177h-199l-78 -417h-82z" />
    <glyph glyph-name="afii10069" unicode="&#x434;" horiz-adv-x="502" 
d="M141 649l-3 71c34 -8 74 -9 104 -12c78 -8 130 -26 172 -70c50 -50 71 -136 71 -217c0 -165 -70 -432 -277 -432c-114 0 -175 76 -175 192c0 137 87 303 241 303c73 0 119 -40 138 -101h2c1 14 1 30 1 45c0 51 -15 120 -52 158c-33 35 -74 48 -140 53c-24 3 -51 4 -82 10
zM220 53h1c97 0 159 149 159 234c0 66 -32 132 -103 132c-108 0 -159 -140 -158 -237c0 -67 29 -129 101 -129z" />
    <glyph glyph-name="afii10070" unicode="&#x435;" horiz-adv-x="453" 
d="M365 90l12 -62c-36 -20 -95 -38 -160 -38c-128 0 -184 87 -184 194c0 146 108 311 264 311c92 0 142 -55 142 -125c0 -127 -143 -160 -322 -157c-4 -21 -1 -66 10 -91c19 -44 58 -65 108 -65c57 0 100 17 130 33zM359 368v1c0 39 -30 61 -74 61c-79 0 -138 -77 -158 -153
c130 -2 232 16 232 91z" />
    <glyph glyph-name="afii10072" unicode="&#x436;" horiz-adv-x="636" 
d="M66 484h90l113 -214h18l41 214h77l-42 -214h19l193 214h94l-216 -221c55 -9 84 -65 98 -131c10 -42 17 -98 31 -132h-80c-13 35 -19 80 -26 115c-15 72 -41 103 -108 103h-16l-41 -218h-78l43 219h-12c-72 0 -115 -31 -153 -101c-25 -47 -41 -86 -61 -118h-83
c21 34 39 74 64 124c40 80 91 134 171 139z" />
    <glyph glyph-name="afii10073" unicode="&#x437;" horiz-adv-x="400" 
d="M94 224l10 59h34c56 0 138 25 138 86c0 42 -36 63 -79 63c-37 0 -80 -12 -115 -34l-19 52c39 26 95 44 147 44c74 0 153 -30 153 -116c0 -69 -63 -109 -128 -122v-1c54 -7 113 -48 113 -113c0 -114 -113 -152 -209 -152c-63 0 -118 15 -157 41l24 60
c35 -22 82 -37 128 -37c56 0 126 25 126 88s-68 82 -127 82h-39z" />
    <glyph glyph-name="afii10074" unicode="&#x438;" horiz-adv-x="526" 
d="M113 484h82l-51 -270c-5 -27 -8 -50 -8 -71c0 -50 20 -84 77 -84c61 0 138 71 158 177l47 248h83l-66 -343c-10 -54 -17 -101 -21 -141h-75l13 91h-2c-44 -63 -107 -102 -171 -102c-62 0 -128 30 -128 140c0 23 3 50 9 82z" />
    <glyph glyph-name="afii10075" unicode="&#x439;" horiz-adv-x="526" 
d="M113 484h82l-51 -270c-5 -27 -8 -50 -8 -71c0 -50 20 -84 77 -84c61 0 138 71 158 177l47 248h83l-66 -343c-10 -54 -17 -101 -21 -141h-75l13 91h-2c-44 -63 -107 -102 -171 -102c-62 0 -128 30 -128 140c0 23 3 50 9 82zM219 683h61c-4 -41 15 -74 51 -73
c41 0 62 38 72 73h63c-17 -76 -68 -121 -140 -121c-88 0 -113 59 -107 121z" />
    <glyph glyph-name="afii10076" unicode="&#x43a;" horiz-adv-x="456" 
d="M121 484h80l-40 -214h18l210 214h100l-236 -222c53 -14 83 -59 106 -136c18 -50 28 -97 43 -126h-82c-13 27 -23 73 -40 118c-28 76 -56 99 -115 99h-15l-41 -217h-81z" />
    <glyph glyph-name="afii10077" unicode="&#x43b;" horiz-adv-x="510" 
d="M160 484h326l-92 -484h-82l78 418h-165l-24 -124c-25 -131 -61 -224 -128 -267c-29 -21 -55 -31 -100 -32l-6 67c22 2 45 9 58 19c50 34 79 112 98 212z" />
    <glyph glyph-name="afii10078" unicode="&#x43c;" horiz-adv-x="667" 
d="M146 484h102l39 -245c5 -38 14 -95 18 -132h1c16 34 54 103 87 162l123 215h104l-62 -484h-78l32 231c7 52 17 117 25 168h-4c-13 -30 -50 -97 -79 -151l-139 -245h-64l-37 240c-6 47 -16 114 -19 157h-4c-12 -53 -26 -118 -40 -171l-59 -229h-76z" />
    <glyph glyph-name="afii10079" unicode="&#x43d;" horiz-adv-x="529" 
d="M121 484h82l-36 -196h218l37 196h83l-92 -484h-82l42 222h-219l-42 -222h-83z" />
    <glyph glyph-name="afii10080" unicode="&#x43e;" horiz-adv-x="521" 
d="M224 -11h-1c-121 0 -189 90 -189 199c0 160 111 307 268 307c131 0 190 -99 190 -201c0 -150 -106 -305 -268 -305zM233 55h1c98 0 172 126 172 239c0 56 -26 135 -113 135c-104 0 -173 -127 -173 -238c0 -79 44 -136 113 -136z" />
    <glyph glyph-name="afii10081" unicode="&#x43f;" horiz-adv-x="534" 
d="M111 0h-82l64 343c10 54 18 101 23 141h75l-13 -95h2c44 68 109 106 180 106c57 0 122 -33 122 -134c0 -22 -4 -52 -9 -78l-54 -283h-82l53 280c3 19 6 41 6 62c0 48 -19 84 -76 84c-59 0 -143 -71 -165 -191z" />
    <glyph glyph-name="afii10082" unicode="&#x440;" horiz-adv-x="527" 
d="M68 -198h-83l97 510c11 58 21 124 27 173h76l-13 -92h2c43 64 107 102 174 102c104 0 148 -86 148 -175c0 -171 -122 -331 -283 -331c-51 0 -85 11 -104 22h-2zM146 216l-25 -135c22 -17 53 -27 93 -27c107 0 196 133 196 260c0 51 -22 112 -93 112
c-65 0 -147 -74 -171 -210z" />
    <glyph glyph-name="afii10083" unicode="&#x441;" horiz-adv-x="423" 
d="M352 85l8 -65c-25 -13 -75 -30 -140 -30c-125 0 -186 84 -186 187c0 165 122 318 296 318c45 0 86 -13 101 -22l-24 -65c-19 9 -46 18 -82 18c-126 0 -205 -124 -205 -238c0 -79 41 -130 120 -130c50 0 87 15 112 27z" />
    <glyph glyph-name="afii10084" unicode="&#x442;" horiz-adv-x="808" 
d="M109 0h-81l65 343c9 54 17 101 22 141h73l-13 -91h3c45 68 106 102 170 102c74 0 109 -47 113 -108c43 70 105 107 177 108c56 0 118 -36 118 -127c0 -22 -3 -55 -8 -82l-54 -286h-81l52 279c4 19 7 43 7 63c0 51 -19 84 -73 84c-60 0 -132 -70 -152 -178l-46 -248h-80
l54 284c4 22 6 40 6 59c0 41 -11 83 -72 83s-136 -80 -155 -183z" />
    <glyph glyph-name="afii10085" unicode="&#x443;" horiz-adv-x="438" 
d="M47 484h87l48 -260c11 -56 19 -93 24 -130h2c14 32 30 66 53 120l118 270h88c-51 -110 -127 -273 -175 -370c-53 -104 -104 -187 -171 -252c-54 -55 -113 -78 -140 -84l-21 72c21 7 56 20 89 46c33 25 68 65 94 112c4 8 4 13 2 22z" />
    <glyph glyph-name="afii10086" unicode="&#x444;" horiz-adv-x="678" 
d="M216 -198l51 251h-1c-26 -33 -60 -64 -121 -64c-73 0 -116 68 -116 162c0 138 81 344 228 344c43 0 71 -29 81 -62h2l52 277h76l-57 -280h2c23 30 65 65 118 65c87 0 120 -80 120 -171c0 -139 -77 -335 -219 -335c-45 0 -78 30 -90 63h-2l-46 -250h-78zM263 430h-1
c-101 0 -150 -181 -150 -271c0 -62 24 -103 67 -103c60 0 99 66 110 122l25 126c4 20 6 36 6 56c-1 37 -27 70 -57 70zM508 427h-1c-34 0 -65 -19 -91 -58c-15 -27 -23 -53 -29 -87c-7 -36 -14 -72 -21 -109c-3 -16 -4 -33 -1 -46c1 -29 25 -72 66 -71c90 3 138 167 138 260
c0 58 -13 111 -61 111z" />
    <glyph glyph-name="afii10087" unicode="&#x445;" horiz-adv-x="441" 
d="M63 484h90l47 -105c14 -32 23 -55 32 -78h3c19 27 30 44 53 73l89 110h96l-204 -235l114 -249h-90l-49 110c-16 36 -23 55 -34 86h-3c-14 -23 -29 -46 -50 -74l-98 -122h-96l212 250z" />
    <glyph glyph-name="afii10088" unicode="&#x446;" horiz-adv-x="538" 
d="M113 484h82l-51 -270c-5 -27 -8 -50 -8 -71c0 -50 20 -84 77 -84c61 0 138 70 158 177l47 248h82l-59 -315c-4 -22 -8 -43 -8 -61c0 -35 17 -60 66 -61l-59 -187h-62l37 140c-18 4 -35 16 -46 33c-10 17 -12 40 -11 60h-2c-42 -63 -108 -104 -174 -104
c-63 0 -131 30 -131 140c0 23 3 49 9 81z" />
    <glyph glyph-name="afii10089" unicode="&#x447;" horiz-adv-x="498" 
d="M100 484h82l-21 -108c-5 -24 -11 -54 -11 -78c0 -40 18 -72 83 -72c39 0 92 21 119 46l39 212h82l-92 -485h-82l40 204h-2c-36 -24 -83 -41 -133 -41c-99 0 -139 49 -139 118c0 27 6 58 12 88z" />
    <glyph glyph-name="afii10090" unicode="&#x448;" horiz-adv-x="789" 
d="M113 484h81l-52 -279c-4 -19 -7 -43 -7 -63c0 -51 19 -84 68 -84c61 0 129 70 149 178l46 248h80l-54 -284c-4 -22 -6 -40 -6 -59c0 -41 11 -83 68 -83s132 80 151 183l45 243h81l-63 -340c-9 -48 -11 -102 -13 -144h-76c1 36 3 68 5 91h-2c-43 -67 -100 -102 -165 -102
c-69 0 -107 47 -111 108c-43 -70 -105 -108 -177 -108c-51 0 -110 36 -110 127c0 22 3 55 8 82z" />
    <glyph glyph-name="afii10091" unicode="&#x449;" horiz-adv-x="801" 
d="M113 484h81l-52 -279c-4 -19 -7 -43 -7 -63c0 -51 19 -84 68 -84c57 0 128 70 148 178l47 248h80l-54 -284c-4 -22 -6 -40 -6 -59c0 -41 11 -83 68 -83s132 80 151 183l45 243h81l-58 -311c-4 -20 -9 -48 -9 -66c0 -34 18 -59 66 -60l-60 -187h-61l37 140
c-39 8 -60 52 -58 92h-3c-45 -67 -101 -103 -170 -103s-105 47 -109 108c-43 -70 -106 -108 -174 -108c-51 0 -113 36 -113 127c0 22 3 55 8 82z" />
    <glyph glyph-name="afii10092" unicode="&#x44a;" horiz-adv-x="514" 
d="M55 484h269c-46 -73 -92 -142 -124 -224h1c34 39 87 66 144 66c76 0 127 -47 127 -125c0 -110 -97 -208 -231 -208c-82 0 -145 33 -145 129c0 91 61 217 118 295h-172zM248 55h1c73 0 141 56 141 130c0 45 -25 79 -77 79c-56 0 -109 -47 -126 -92c-7 -16 -10 -30 -10 -46
c0 -39 23 -71 71 -71z" />
    <glyph glyph-name="afii10093" unicode="&#x44b;" horiz-adv-x="649" 
d="M121 484h82l-54 -222h1c32 38 87 64 137 64c76 0 130 -47 130 -129c0 -111 -96 -204 -236 -204c-73 0 -137 24 -137 106c0 28 7 65 12 89zM194 55h1c70 0 140 52 140 129c0 46 -25 80 -78 80c-55 0 -111 -51 -124 -103c-4 -17 -8 -32 -8 -50c0 -36 25 -56 69 -56z
M539 484h86l-92 -484h-87z" />
    <glyph glyph-name="afii10094" unicode="&#x44c;" horiz-adv-x="463" 
d="M122 484h82l-55 -222h1c33 37 88 64 141 64c75 0 130 -47 130 -127c0 -115 -97 -206 -237 -206c-75 0 -140 25 -140 110c0 24 7 63 13 87zM195 55h1c72 0 143 51 143 129c0 46 -23 80 -78 80c-58 0 -110 -53 -125 -97c-6 -15 -10 -32 -10 -53c0 -38 26 -59 69 -59z" />
    <glyph glyph-name="afii10095" unicode="&#x44d;" horiz-adv-x="440" 
d="M95 216l10 59h217c1 6 1 12 1 18c0 73 -48 135 -137 135c-45 0 -84 -11 -110 -23l-16 60c30 14 80 30 135 30c136 0 210 -89 210 -224c0 -158 -102 -282 -276 -282c-51 1 -104 11 -140 35l23 61c24 -13 70 -29 117 -29c99 0 168 60 186 160h-220z" />
    <glyph glyph-name="afii10096" unicode="&#x44e;" horiz-adv-x="698" 
d="M120 484h84l-38 -197h78c33 119 124 208 241 208c123 0 183 -99 183 -204c0 -148 -101 -302 -257 -302c-117 0 -180 89 -180 193c0 13 1 27 3 42h-80l-42 -224h-83zM420 54h1c92 0 162 127 162 239c0 57 -25 136 -106 136c-100 0 -165 -132 -165 -238
c0 -75 40 -137 108 -137z" />
    <glyph glyph-name="afii10097" unicode="&#x44f;" horiz-adv-x="474" 
d="M450 481l-91 -481h-81l39 204h-49c-72 0 -109 -34 -141 -98c-18 -37 -34 -73 -54 -106h-88c27 42 43 83 66 128c28 52 66 92 124 104v2c-51 12 -101 48 -101 109c0 123 134 148 235 148c51 0 104 -5 141 -10zM328 263l31 163c-18 4 -36 6 -65 6c-65 0 -134 -17 -134 -91
c0 -55 68 -78 117 -78h51z" />
    <glyph glyph-name="afii10071" unicode="&#x451;" horiz-adv-x="453" 
d="M365 90l12 -62c-36 -20 -95 -38 -160 -38c-128 0 -184 87 -184 194c0 146 108 311 264 311c92 0 142 -55 142 -125c0 -127 -143 -160 -322 -157c-4 -21 -1 -66 10 -91c19 -44 58 -65 108 -65c57 0 100 17 130 33zM359 368v1c0 39 -30 61 -74 61c-79 0 -138 -77 -158 -153
c130 -2 232 16 232 91zM222 570h-1c-27 0 -47 21 -47 49c0 30 23 53 52 53s47 -22 47 -49c0 -29 -21 -53 -51 -53zM404 570h-1c-27 0 -46 21 -46 49c0 30 23 53 52 53s47 -22 47 -49c0 -29 -21 -53 -52 -53z" />
    <glyph glyph-name="afii10099" unicode="&#x452;" horiz-adv-x="532" 
d="M163 710h82l-16 -85h252l-14 -59h-249l-29 -152h2c35 42 85 78 154 78c104 0 149 -87 149 -203c0 -136 -46 -293 -154 -377c-35 -34 -88 -60 -138 -68l-16 69c39 8 69 25 99 52c76 59 123 188 123 311c0 80 -21 147 -95 147c-72 0 -136 -79 -150 -154l-51 -269h-84
l108 566h-62l13 59h61z" />
    <glyph glyph-name="afii10100" unicode="&#x453;" horiz-adv-x="367" 
d="M113 403l-14 58c30 17 75 33 127 33c86 -2 131 -49 131 -118c0 -82 -70 -121 -149 -157c-60 -28 -109 -55 -109 -104c0 -34 21 -60 71 -61c44 -1 90 18 116 33l13 -60c-34 -20 -92 -38 -145 -37c-86 2 -140 46 -140 124c0 89 74 127 150 163c51 24 112 49 112 97
c0 30 -21 54 -66 55c-35 1 -69 -12 -97 -26zM303 686h100l-133 -143h-65z" />
    <glyph glyph-name="afii10101" unicode="&#x454;" horiz-adv-x="422" 
d="M435 466l-25 -61c-19 11 -53 24 -96 24c-97 0 -163 -69 -185 -155h229l-11 -58h-227c-1 -9 -1 -16 -1 -24c4 -78 52 -137 142 -137c36 0 73 9 100 21l11 -59c-31 -16 -78 -28 -137 -28c-124 0 -200 86 -200 211c0 80 29 155 78 210c50 53 121 85 202 85
c55 0 98 -16 120 -29z" />
    <glyph glyph-name="afii10102" unicode="&#x455;" horiz-adv-x="373" 
d="M9 23l24 61c22 -14 64 -30 104 -30c56 0 92 36 92 79c0 38 -17 61 -68 89c-56 31 -87 74 -87 123c0 85 73 150 176 150c43 0 82 -12 100 -24l-23 -63c-17 10 -47 22 -83 22c-51 0 -87 -31 -87 -73c0 -35 23 -57 67 -81c54 -30 90 -73 90 -127c0 -102 -82 -160 -185 -159
c-52 0 -98 16 -120 33z" />
    <glyph glyph-name="afii10103" unicode="&#x456;" horiz-adv-x="229" 
d="M111 0h-83l92 484h83zM184 573h-1c-29 0 -49 23 -49 54c1 33 26 59 57 59s52 -23 52 -54c-1 -35 -26 -59 -59 -59z" />
    <glyph glyph-name="afii10104" unicode="&#x457;" horiz-adv-x="229" 
d="M111 0h-83l92 484h83zM91 570h-1c-27 0 -47 21 -47 49c0 30 23 53 52 53s47 -22 47 -49c0 -29 -21 -53 -51 -53zM273 570h-1c-27 0 -46 21 -46 49c0 30 23 53 52 53s47 -22 47 -49c0 -29 -21 -53 -52 -53z" />
    <glyph glyph-name="afii10105" unicode="&#x458;" horiz-adv-x="227" 
d="M126 484h82l-91 -483c-15 -80 -33 -131 -62 -163c-28 -32 -69 -47 -111 -47c-21 0 -39 1 -55 6l10 65c9 -3 22 -4 38 -4c42 0 75 26 94 126zM185 573h-1c-29 0 -49 23 -49 53c0 33 25 60 57 60c31 0 51 -22 52 -53c-1 -34 -25 -60 -59 -60z" />
    <glyph glyph-name="afii10106" unicode="&#x459;" horiz-adv-x="735" 
d="M152 484h315l-44 -219h2c36 38 90 61 141 61c74 0 127 -46 127 -126c0 -114 -97 -207 -236 -207c-77 0 -140 25 -140 108c0 22 5 56 10 85l47 232h-156l-24 -124c-27 -142 -60 -225 -126 -267c-26 -20 -54 -32 -95 -32l-7 67c18 1 40 8 54 19c46 31 75 99 96 211zM470 55
h1c70 0 140 50 140 128c0 47 -24 81 -74 81c-56 0 -108 -50 -128 -96c-6 -13 -10 -32 -10 -51c0 -41 27 -62 71 -62z" />
    <glyph glyph-name="afii10107" unicode="&#x45a;" horiz-adv-x="747" 
d="M120 484h83l-35 -184h194l35 184h82l-45 -218h2c33 37 88 60 136 60c76 0 133 -47 133 -129c0 -115 -97 -204 -238 -204c-77 0 -140 22 -140 104c0 19 5 50 10 72l13 66h-195l-44 -235h-83zM481 55h1c74 0 141 51 141 128c0 46 -26 81 -79 81c-57 0 -110 -50 -126 -103
c-4 -13 -9 -28 -9 -48c0 -37 29 -58 72 -58z" />
    <glyph glyph-name="afii10108" unicode="&#x45b;" horiz-adv-x="534" 
d="M164 710h83l-17 -86h245l-13 -58h-243l-32 -167h2c39 55 98 96 172 96c55 0 121 -33 121 -130c0 -26 -3 -57 -8 -82l-54 -283h-83l53 280c4 16 7 40 7 65c0 44 -20 81 -75 81c-64 0 -145 -75 -165 -183l-45 -243h-83l108 566h-67l12 58h66z" />
    <glyph glyph-name="afii10109" unicode="&#x45c;" horiz-adv-x="456" 
d="M121 484h80l-40 -214h18l210 214h100l-236 -222c53 -14 83 -59 106 -136c18 -50 28 -97 43 -126h-82c-13 27 -23 73 -40 118c-28 76 -56 99 -115 99h-15l-41 -217h-81zM345 686h100l-133 -143h-65z" />
    <glyph glyph-name="afii10110" unicode="&#x45e;" horiz-adv-x="438" 
d="M47 484h87l48 -260c11 -56 19 -93 24 -130h2c14 32 30 66 53 120l118 270h88c-51 -110 -127 -273 -175 -370c-53 -104 -104 -187 -171 -252c-54 -55 -113 -78 -140 -84l-21 72c21 7 56 20 89 46c33 25 68 65 94 112c4 8 4 13 2 22zM168 683h61c-4 -41 15 -74 51 -73
c41 0 62 38 72 73h63c-17 -76 -68 -121 -140 -121c-88 0 -113 59 -107 121z" />
    <glyph glyph-name="afii10193" unicode="&#x45f;" horiz-adv-x="526" 
d="M113 484h82l-51 -270c-5 -27 -8 -50 -8 -71c0 -50 20 -84 77 -84c61 0 138 71 158 177l47 248h83l-66 -343c-10 -54 -17 -101 -21 -141h-75l13 91h-2c-44 -63 -109 -102 -171 -102s-128 30 -128 140c0 23 3 50 9 82zM213 -192l-69 -9l31 157l78 7z" />
    <glyph glyph-name="afii10846" unicode="&#x4d9;" horiz-adv-x="444" 
d="M85 394l-14 62c36 20 96 39 161 39c128 0 184 -88 184 -195c0 -146 -107 -310 -263 -310c-93 0 -143 55 -143 124c0 127 143 160 322 157c4 21 1 66 -9 91c-20 45 -59 66 -108 66c-58 0 -101 -18 -130 -34zM164 55h1c78 0 137 77 158 152c-131 2 -233 -16 -233 -91
c0 -39 30 -61 74 -61z" />
    <glyph glyph-name="afii10063" unicode="&#xf6c4;" horiz-adv-x="229" 
d="M111 0h-83l92 484h83zM71 638h219l-10 -53h-219z" />
    <glyph glyph-name="afii10192" unicode="&#xf6c6;" horiz-adv-x="524" 
d="M10 -175l23 65c29 -19 78 -32 128 -32c82 0 146 41 174 172l16 73h-2c-43 -69 -102 -103 -168 -103c-98 0 -148 82 -148 168c0 165 120 327 307 327c56 0 118 -16 156 -34l-75 -400c-19 -103 -47 -173 -97 -217c-49 -41 -114 -53 -169 -53c-59 0 -115 14 -145 34z
M374 251l31 161c-16 8 -46 17 -80 17c-121 0 -205 -127 -205 -247c-1 -54 19 -116 93 -116c71 0 143 90 161 185z" />
    <glyph glyph-name="afii10831" unicode="&#xf6c7;" horiz-adv-x="526" 
d="M418 484h83l-66 -343c-10 -54 -17 -101 -21 -141h-75l13 91h-2c-44 -63 -107 -102 -171 -102c-62 0 -128 30 -128 140c0 23 3 50 9 82l53 273h82l-51 -270c-5 -27 -8 -50 -8 -71c0 -50 20 -84 77 -84c61 0 138 71 158 177zM152 638h358l-11 -53h-358z" />
    <glyph glyph-name="afii10832" unicode="&#xf6c8;" horiz-adv-x="789" 
d="M112 484h81l-52 -279c-4 -19 -7 -43 -7 -63c0 -51 19 -84 73 -84c60 0 132 70 152 178l46 248h80l-54 -284c-4 -22 -6 -40 -6 -59c0 -41 11 -83 72 -83c60 0 136 80 155 183l45 243h81l-63 -340c-9 -48 -11 -102 -13 -144h-76c1 36 3 68 5 91h-2
c-46 -67 -107 -102 -171 -102c-74 0 -109 47 -113 108c-43 -70 -106 -108 -177 -108c-56 0 -118 36 -118 127c0 22 3 55 8 82zM156 638h628l-9 -53h-630z" />
    <glyph glyph-name="Euro" unicode="&#x20ac;" horiz-adv-x="492" 
d="M431 85l13 -62c-28 -16 -82 -34 -141 -34c-155 0 -234 118 -231 262h-66l11 50h58c3 20 7 41 12 60h-60l11 50h64c47 137 169 250 317 250c58 0 100 -15 127 -30l-28 -63c-23 12 -58 24 -105 24c-108 0 -191 -89 -224 -181h264l-11 -50h-271c-5 -17 -9 -38 -11 -60h270
l-10 -50h-263c0 -100 49 -193 160 -193c46 0 91 15 114 27z" />
    <glyph glyph-name="afii61289" unicode="&#x2113;" horiz-adv-x="481" 
d="M225 511l-41 -215c79 70 181 184 181 292c0 43 -17 64 -47 64c-37 0 -74 -43 -93 -141zM383 151l38 -40c-51 -82 -118 -121 -198 -121c-101 0 -144 71 -141 161l1 9c-21 -13 -39 -25 -57 -36l-20 48c29 19 60 38 88 59l49 264c29 156 104 219 184 219
c67 0 108 -48 108 -120c0 -154 -152 -293 -267 -383l-2 -15c-14 -98 24 -132 79 -132c64 0 108 50 138 87z" />
    <glyph glyph-name="afii61352" unicode="&#x2116;" horiz-adv-x="884" 
d="M711 291h-1c-71 0 -124 44 -124 129c0 108 72 220 190 220c77 0 121 -51 121 -132c0 -110 -71 -217 -186 -217zM826 250l-10 -52h-251l10 52h251zM573 654l-125 -654h-85l-100 327c-22 73 -41 147 -55 221h-3c-13 -85 -26 -164 -48 -278l-52 -270h-74l126 654h91
l100 -325c22 -76 41 -149 54 -217l2 1c11 92 24 171 44 274l51 267h74zM720 341h1c72 0 107 99 107 164c0 47 -16 85 -63 85c-70 0 -109 -101 -109 -163c0 -53 24 -86 64 -86z" />
    <glyph glyph-name="estimated" unicode="&#x212e;" horiz-adv-x="817" 
d="M782 316h-605c-3 0 -5 -1 -5 -4v-183c0 -8 4 -15 9 -21c57 -61 139 -99 229 -99c96 0 182 43 240 111h55c-68 -79 -176 -131 -296 -131c-206 0 -374 150 -374 336s168 336 374 336s373 -150 373 -336v-9zM646 340v184c0 9 -4 16 -10 22c-58 58 -138 95 -226 95
c-90 0 -170 -38 -228 -98c-6 -6 -10 -14 -10 -23v-180c0 -3 2 -5 5 -5h464c3 0 5 2 5 5z" />
    <glyph glyph-name="partialdiff" unicode="&#x2202;" horiz-adv-x="518" 
d="M133 617l-20 57c34 24 93 53 171 53c126 0 227 -102 227 -291c0 -215 -110 -447 -306 -447c-115 0 -172 87 -172 186c0 145 106 267 248 267c71 0 125 -47 142 -85h1c4 26 7 56 7 85c0 145 -77 214 -160 214c-62 0 -111 -21 -138 -39zM217 57h1c94 0 162 105 186 222
c-14 48 -63 95 -124 95c-93 0 -162 -89 -162 -197c0 -74 38 -120 99 -120z" />
    <glyph glyph-name="uni2206" unicode="&#x2206;" horiz-adv-x="529" 
d="M522 0h-519l9 49l322 607h97l100 -607zM107 71h339l-56 343c-7 48 -18 125 -22 166h-3c-16 -37 -45 -99 -70 -148z" />
    <glyph glyph-name="product" unicode="&#x220f;" horiz-adv-x="617" 
d="M647 579h-76l-134 -669h-80l135 669h-244l-134 -669h-80l135 669h-78l14 71h557z" />
    <glyph glyph-name="summation" unicode="&#x2211;" horiz-adv-x="536" 
d="M448 -90h-479l9 52l293 319l-170 311l10 58h436l-13 -72h-335l-1 -3l163 -295l-269 -294v-4h369z" />
    <glyph glyph-name="radical" unicode="&#x221a;" horiz-adv-x="540" 
d="M639 827l-372 -925h-61l-79 431l-75 -30l-12 45l142 57l57 -349c4 -21 6 -45 8 -63h1c6 17 15 42 23 64l305 770h63z" />
    <glyph glyph-name="infinity" unicode="&#x221e;" horiz-adv-x="728" 
d="M542 117h-1c-74 0 -129 58 -177 106c-51 -51 -104 -106 -186 -106c-84 0 -143 61 -143 148c0 78 64 146 151 146c75 0 130 -58 178 -106c51 51 104 106 186 106c84 0 143 -61 143 -146c0 -80 -64 -148 -151 -148zM542 176h1c49 0 87 41 87 89c0 50 -36 87 -85 87
c-57 0 -103 -49 -141 -87c39 -36 80 -89 138 -89zM183 176h1c56 0 102 49 140 88c-39 36 -80 88 -138 88c-50 0 -88 -40 -88 -87c0 -51 36 -89 85 -89z" />
    <glyph glyph-name="integral" unicode="&#x222b;" horiz-adv-x="291" 
d="M372 787l-19 -55c-8 2 -19 4 -29 4c-77 0 -95 -115 -106 -183c-22 -141 -39 -316 -63 -466c-17 -103 -54 -236 -174 -236c-22 0 -38 5 -50 10l17 57c8 -3 21 -6 34 -6c76 0 95 120 104 175c24 151 41 329 64 472c17 107 57 236 178 236c18 0 34 -3 44 -8z" />
    <glyph glyph-name="approxequal" unicode="&#x2248;" horiz-adv-x="596" 
d="M533 417l36 -41c-31 -40 -89 -78 -151 -78c-59 0 -96 23 -129 36c-30 12 -64 34 -114 34c-46 0 -90 -30 -117 -59l-35 42c32 38 90 77 153 77c58 0 95 -23 127 -36c30 -12 64 -34 114 -34c46 0 91 33 116 59zM538 218l36 -40c-32 -41 -91 -79 -153 -79
c-57 0 -95 23 -127 36c-30 12 -64 34 -115 34c-45 0 -90 -30 -117 -59l-35 43c32 38 91 76 153 76c58 0 95 -23 128 -36c30 -12 64 -34 113 -34c47 0 91 30 117 59z" />
    <glyph glyph-name="notequal" unicode="&#x2260;" horiz-adv-x="596" 
d="M556 140h-310l-76 -122h-65l79 122h-144v60h182l89 138h-271v60h309l76 122h65l-79 -122h145v-60h-183l-88 -138h271v-60z" />
    <glyph glyph-name="lessequal" unicode="&#x2264;" horiz-adv-x="596" 
d="M530 99l-464 193v59l464 192v-66l-382 -155v-2l382 -154v-67zM530 0h-462v58h462v-58z" />
    <glyph glyph-name="greaterequal" unicode="&#x2265;" horiz-adv-x="596" 
d="M530 292l-464 -193v67l382 154v2l-382 155v66l464 -192v-59zM528 0h-462v58h462v-58z" />
    <glyph glyph-name="lozenge" unicode="&#x25ca;" horiz-adv-x="520" 
d="M490 325l-246 -356h-69l-117 356l246 355h68zM414 323l-83 267c-2 6 -4 15 -6 23h-2c-3 -8 -9 -17 -14 -23l-175 -264l82 -267c3 -7 5 -15 6 -23h2c4 8 10 16 15 23z" />
    <glyph glyph-name="uniEFED" unicode="&#xefed;" 
d="M292 720h-1c-26 0 -47 22 -47 49c0 28 23 53 52 53s48 -24 48 -49c0 -29 -23 -53 -52 -53z" />
    <glyph glyph-name="uniEFEE" unicode="&#xefee;" 
d="M182 835h52c-1 -28 14 -54 61 -54c45 0 68 24 75 54h55c-10 -57 -52 -106 -134 -106c-86 0 -116 49 -109 106z" />
    <glyph glyph-name="uniEFF1" unicode="&#xeff1;" 
d="M137 1h62c-36 -28 -74 -74 -74 -111c0 -23 14 -37 38 -37c16 0 31 4 44 10l9 -45c-25 -17 -53 -24 -81 -24c-49 0 -78 29 -78 72c0 59 53 112 80 135z" />
    <glyph glyph-name="uniEFF2" unicode="&#xeff2;" 
d="M133 2h53l-39 -53c33 -8 54 -32 54 -64c0 -58 -55 -86 -108 -86c-28 0 -53 8 -66 18l18 42c14 -9 32 -14 50 -14c23 0 44 11 44 35c0 21 -21 35 -65 39z" />
    <glyph glyph-name="uniEFF3" unicode="&#xeff3;" 
d="M298 873h1c55 0 94 -34 94 -87c-1 -56 -47 -91 -103 -91c-54 0 -93 34 -94 83c-1 55 42 95 102 95zM295 837h-1c-28 0 -47 -24 -47 -56c0 -27 18 -50 45 -50c29 0 49 23 49 54c0 30 -17 52 -46 52z" />
    <glyph glyph-name="uniEFF5" unicode="&#xeff5;" 
d="M209 716h-47c10 59 41 100 82 100c27 0 42 -9 60 -21c15 -10 29 -18 44 -18c16 0 27 13 35 40h46c-11 -62 -38 -96 -83 -96c-26 0 -40 8 -60 20c-17 10 -27 19 -43 18c-16 0 -27 -16 -34 -43z" />
    <glyph glyph-name="uniEFF7" unicode="&#xeff7;" 
d="M269 828h65l80 -118h-68l-49 72h-2l-72 -72h-74z" />
    <glyph glyph-name="Acute" unicode="&#xf6c9;" 
d="M334 828h108l-136 -118h-74z" />
    <glyph glyph-name="Caron" unicode="&#xf6ca;" 
d="M317 710h-65l-80 117h69l47 -72h3l72 72h74z" />
    <glyph glyph-name="Dieresis" unicode="&#xf6cb;" 
d="M199 720h-1c-25 0 -46 21 -46 48c0 29 23 53 52 53s47 -24 47 -48c0 -29 -23 -53 -52 -53zM383 720h-1c-25 0 -46 21 -46 48c0 29 23 53 52 53s47 -24 47 -48c0 -29 -23 -53 -52 -53z" />
    <glyph glyph-name="DieresisAcute" unicode="&#xf6cc;" 
d="M183 724h-1c-21 0 -42 13 -42 43c0 27 22 49 49 49c29 0 42 -21 42 -42c0 -32 -25 -50 -48 -50zM316 827h96l-122 -117h-67zM449 724h-1c-20 0 -42 13 -42 43c0 27 22 49 49 49c29 0 42 -21 42 -42c0 -32 -25 -50 -48 -50z" />
    <glyph glyph-name="DieresisGrave" unicode="&#xf6cd;" 
d="M157 724h-1c-20 0 -41 13 -41 43c0 27 22 49 49 49c29 0 42 -21 42 -42c0 -32 -25 -50 -49 -50zM201 827h97l91 -116h-64zM424 724h-1c-20 0 -42 13 -42 43c0 27 22 49 49 49c29 0 42 -21 42 -42c0 -32 -25 -50 -48 -50z" />
    <glyph glyph-name="Grave" unicode="&#xf6ce;" 
d="M152 828h103l75 -117h-68z" />
    <glyph glyph-name="Hungarumlaut" unicode="&#xf6cf;" 
d="M268 828h95l-127 -113h-64zM416 828h95l-127 -113h-64z" />
    <glyph glyph-name="Macron" unicode="&#xf6d0;" 
d="M181 787h231l-10 -54h-231z" />
    <glyph glyph-name="cyrBreve" unicode="&#xf6d1;" horiz-adv-x="382" 
d="M174 834h64c-1 -32 14 -60 55 -60c42 0 63 23 72 60h66c-13 -61 -63 -105 -142 -105c-83 0 -116 45 -115 105z" />
    <glyph glyph-name="cyrFlex" unicode="&#xf6d2;" horiz-adv-x="382" 
d="M421 738h-64c1 32 -14 60 -55 60c-42 0 -63 -23 -72 -60h-66c13 61 63 105 142 105c83 0 116 -45 115 -105z" />
    <glyph glyph-name="dblGrave" unicode="&#xf6d3;" horiz-adv-x="387" 
d="M103 823h96l94 -112h-63zM260 823h96l94 -112h-64z" />
    <glyph glyph-name="cyrbreve" unicode="&#xf6d4;" 
d="M155 683h61c-4 -41 15 -74 51 -73c41 0 62 38 72 73h63c-17 -76 -68 -121 -140 -121c-88 0 -113 59 -107 121z" />
    <glyph glyph-name="cyrflex" unicode="&#xf6d5;" horiz-adv-x="382" 
d="M384 561h-61c4 42 -15 74 -51 74c-41 0 -62 -37 -73 -74h-62c17 77 68 121 140 121c88 0 113 -58 107 -121z" />
    <glyph glyph-name="dblgrave" unicode="&#xf6d6;" 
d="M67 674h90l86 -136h-56zM224 674h90l86 -136h-56z" />
    <glyph glyph-name="dieresisacute" unicode="&#xf6d7;" 
d="M148 575h-1c-20 0 -42 13 -42 43c0 27 22 49 49 49c29 0 42 -20 42 -42c0 -32 -25 -50 -48 -50zM273 688h84l-112 -139h-54zM394 575h-1c-20 0 -42 13 -42 42c0 28 22 50 49 50c29 0 42 -21 42 -42c0 -32 -25 -50 -48 -50z" />
    <glyph glyph-name="dieresisgrave" unicode="&#xf6d8;" 
d="M135 575h-1c-21 0 -42 13 -42 43c0 27 22 49 49 49c28 0 41 -21 41 -42c0 -32 -24 -50 -47 -50zM178 688h82l76 -139h-53zM378 575h-1c-20 0 -42 13 -42 43c0 27 22 49 49 49c29 0 42 -21 42 -42c0 -32 -25 -50 -48 -50z" />
    <glyph glyph-name="uniF634" unicode="&#xf634;" 
d="M49 -221l-10 42c41 6 87 29 87 75c0 21 -11 38 -24 49l66 13c14 -10 28 -33 28 -59c0 -78 -77 -114 -147 -120z" />
    <glyph glyph-name="uniF638" unicode="&#xf638;" horiz-adv-x="492" 
d="M130 165l261 378c-11 28 -34 51 -73 51c-110 0 -190 -202 -193 -372c0 -18 1 -38 5 -57zM403 479l-260 -375c12 -28 35 -48 72 -48c121 0 187 237 191 378c0 13 -1 29 -3 45zM530 648l-61 -80c14 -34 19 -73 19 -111c0 -213 -100 -468 -281 -468c-52 0 -89 18 -115 49
l-45 -62l-37 32l55 72c-15 37 -22 82 -22 132c0 216 113 449 284 449c54 0 91 -19 116 -50l48 67z" />
    <glyph glyph-name="uniF639" unicode="&#xf639;" horiz-adv-x="492" 
d="M207 -11h-1c-120 0 -163 98 -163 223c0 216 113 449 284 449c124 0 161 -103 161 -204c0 -213 -100 -468 -281 -468zM216 56h1c122 0 188 265 188 396c0 51 -7 142 -87 142c-113 0 -192 -227 -192 -386c0 -69 13 -152 90 -152z" />
    <glyph glyph-name="uniF6DC" unicode="&#xf6dc;" horiz-adv-x="345" 
d="M115 0l108 566h-2l-111 -56l-9 66l147 74h71l-124 -650h-80z" />
    <glyph glyph-name="uniF63A" unicode="&#xf63a;" horiz-adv-x="444" 
d="M365 0h-393l10 55l97 81c174 147 276 248 276 355c0 47 -26 99 -101 99c-58 0 -104 -26 -134 -47l-21 60c45 34 112 58 173 58c122 0 169 -81 169 -159c0 -138 -126 -258 -281 -386l-55 -43v-2h273z" />
    <glyph glyph-name="uniF63B" unicode="&#xf63b;" horiz-adv-x="426" 
d="M-17 30l28 66c25 -15 66 -36 125 -36c111 0 162 76 162 143c0 81 -63 115 -139 115h-33l13 65h33c61 0 161 40 161 126c0 50 -30 81 -92 81c-49 0 -94 -16 -123 -36l-18 63c41 25 98 44 155 44c109 0 166 -65 166 -140c0 -85 -69 -147 -144 -168v-2
c71 -17 109 -78 109 -147c0 -123 -111 -215 -253 -215c-70 0 -128 21 -150 41z" />
    <glyph glyph-name="uniF63C" unicode="&#xf63c;" horiz-adv-x="492" 
d="M335 0h-78l34 181h-280l11 56l346 413h91l-77 -403h88l-13 -66h-88zM113 247h190l43 215c7 35 16 70 24 104h-3c-27 -39 -46 -71 -73 -106l-181 -211v-2z" />
    <glyph glyph-name="uniF63D" unicode="&#xf63d;" horiz-adv-x="440" 
d="M463 650l-14 -72h-223l-51 -165c11 1 21 2 32 2c28 0 77 -9 114 -31c53 -30 77 -88 77 -143c0 -158 -126 -252 -267 -252c-63 0 -118 19 -140 36l26 66c23 -15 69 -31 122 -31c92 0 173 73 173 163c0 70 -36 125 -157 125c-27 0 -47 -2 -73 -4l90 306h291z" />
    <glyph glyph-name="uniF63E" unicode="&#xf63e;" horiz-adv-x="491" 
d="M471 660l-12 -71c-16 1 -36 0 -60 -5c-117 -20 -214 -110 -258 -236l2 -1c38 49 101 82 160 82c102 0 157 -78 157 -177c0 -127 -99 -263 -239 -263c-124 0 -185 91 -185 214c0 150 80 289 164 358c65 55 141 86 215 95c23 4 42 4 56 4zM226 56h1c86 0 147 99 147 191
c0 76 -38 116 -103 116c-51 0 -104 -34 -137 -89c-6 -9 -11 -21 -12 -31c-2 -15 -4 -32 -4 -52c0 -78 37 -135 108 -135z" />
    <glyph glyph-name="uniF63F" unicode="&#xf63f;" horiz-adv-x="409" 
d="M90 650h389l-11 -58c-125 -197 -250 -394 -377 -592h-92c126 193 251 385 375 577l-1 2h-297z" />
    <glyph glyph-name="uniF640" unicode="&#xf640;" horiz-adv-x="490" 
d="M313 661h1c95 0 164 -57 164 -147c0 -77 -52 -134 -127 -169l-1 -3c67 -36 96 -95 96 -154c0 -128 -115 -199 -228 -199c-122 0 -195 69 -195 161c0 100 72 165 152 196l1 3c-52 37 -72 81 -72 128c0 105 95 184 209 184zM223 52h1c76 0 136 52 136 129
c0 64 -37 105 -114 132c-67 -18 -136 -68 -136 -153c0 -56 37 -108 113 -108zM302 598h-1c-66 0 -116 -54 -116 -115c0 -51 31 -87 95 -110c64 21 116 69 116 131c0 44 -22 94 -94 94z" />
    <glyph glyph-name="uniF641" unicode="&#xf641;" horiz-adv-x="492" 
d="M55 -10l10 71c17 -1 38 1 62 4c45 7 94 28 138 64c48 38 91 95 119 172h-3c-40 -46 -97 -70 -148 -70c-107 0 -158 83 -158 168c0 133 106 262 241 262c123 0 175 -94 175 -205c0 -162 -92 -309 -168 -374c-57 -48 -128 -78 -195 -87c-28 -4 -52 -6 -73 -5zM307 594h-1
c-80 0 -146 -91 -146 -185c0 -65 33 -113 98 -113c53 0 100 30 129 75c6 8 11 17 13 28c4 17 7 43 7 67c0 74 -28 128 -100 128z" />
    <glyph glyph-name="uniF642" unicode="&#xf642;" horiz-adv-x="781" 
d="M223 607h1c82 0 119 -66 119 -136c0 -142 -75 -263 -184 -263c-76 0 -122 58 -122 144c0 123 72 255 186 255zM214 554h-1c-66 0 -108 -115 -108 -203c0 -47 14 -90 63 -90c67 0 107 119 107 206c0 39 -12 87 -61 87zM194 -12h-60l450 618h60zM625 392h1
c82 0 119 -66 119 -135c0 -143 -75 -264 -184 -264c-76 0 -122 58 -122 145c0 123 72 254 186 254zM616 339h-1c-66 0 -108 -114 -108 -203c0 -47 14 -90 63 -90c67 0 107 119 107 206c0 39 -12 87 -61 87z" />
    <glyph glyph-name="uniF643" unicode="&#xf643;" horiz-adv-x="512" 
d="M218 -11h-1c-104 0 -181 78 -181 199c0 146 100 308 262 308c101 0 182 -80 182 -199c0 -149 -99 -308 -262 -308zM229 56h1c106 0 166 135 166 238c0 78 -40 135 -109 135c-109 0 -167 -137 -167 -238c0 -80 39 -135 109 -135z" />
    <glyph glyph-name="uniF644" unicode="&#xf644;" horiz-adv-x="512" 
d="M395 487l-92 -487h-80l78 411h-2l-192 -71l-2 66l220 81h70z" />
    <glyph glyph-name="uniF645" unicode="&#xf645;" horiz-adv-x="512" 
d="M428 69l-12 -69h-392l9 47l102 68c142 96 208 160 208 227c0 59 -39 87 -91 87c-48 0 -96 -28 -121 -44l-22 51c38 30 98 62 172 62c81 0 149 -50 149 -143c0 -86 -65 -154 -201 -248l-58 -40v-2c24 2 55 4 77 4h180z" />
    <glyph glyph-name="uniF646" unicode="&#xf646;" horiz-adv-x="512" 
d="M26 -90l20 63c24 -10 68 -19 106 -19c100 0 176 49 176 125c0 65 -61 97 -127 97c-23 0 -41 -1 -58 -2l12 63c6 1 13 1 19 1c72 6 174 45 174 122c0 44 -35 68 -87 68c-47 0 -87 -16 -114 -31l-17 54c35 24 93 45 155 45c81 0 148 -44 148 -124
c-1 -81 -69 -132 -141 -152v-3c68 -13 122 -58 122 -133c0 -131 -132 -198 -256 -198c-56 0 -106 11 -132 24z" />
    <glyph glyph-name="uniF647" unicode="&#xf647;" horiz-adv-x="512" 
d="M360 52l-31 -166h-77l31 166h-276l11 56l335 384h90l-70 -374h88l-13 -66h-88zM295 118l38 195c6 33 13 69 21 99h-3c-19 -31 -43 -63 -64 -89l-178 -201l1 -4h185z" />
    <glyph glyph-name="uniF648" unicode="&#xf648;" horiz-adv-x="512" 
d="M32 -93l19 64c25 -10 64 -17 102 -17c96 0 175 51 175 137c0 27 -10 53 -29 71c-41 39 -129 44 -197 39l91 284h271l-24 -71h-198l-50 -151c66 2 136 -14 178 -57c28 -27 44 -64 44 -107c0 -131 -115 -213 -259 -213c-52 0 -101 11 -123 21z" />
    <glyph glyph-name="uniF649" unicode="&#xf649;" horiz-adv-x="512" 
d="M238 56h1c74 0 143 75 143 167c0 70 -46 109 -102 109c-62 0 -102 -33 -125 -69c-16 -22 -23 -49 -23 -79c0 -77 42 -128 106 -128zM479 605l6 -63c-111 -11 -197 -50 -250 -103c-37 -36 -59 -73 -74 -113h2c31 34 83 67 153 67c80 0 151 -60 151 -161
c0 -134 -104 -243 -237 -243c-99 0 -180 67 -180 205c0 75 33 192 120 279c70 70 171 124 309 132z" />
    <glyph glyph-name="uniF64A" unicode="&#xf64a;" horiz-adv-x="512" 
d="M477 485l-10 -55c-61 -129 -234 -386 -363 -544l-80 20c105 120 282 371 350 505v2h-282l12 72h373z" />
    <glyph glyph-name="uniF64B" unicode="&#xf64b;" horiz-adv-x="512" 
d="M308 607h1c101 0 171 -61 171 -143c0 -70 -52 -111 -125 -147v-2c64 -34 105 -83 105 -144c0 -114 -115 -182 -226 -182c-120 0 -198 64 -198 159c0 83 75 135 153 170v2c-50 27 -81 70 -81 121c0 97 94 166 200 166zM300 545h-1c-60 0 -112 -36 -112 -93
c0 -52 44 -84 105 -108c60 25 107 60 107 115c0 45 -32 86 -99 86zM238 52h1c74 0 134 49 134 111c0 57 -46 93 -120 125c-62 -24 -130 -67 -130 -135c0 -62 49 -101 115 -101z" />
    <glyph glyph-name="uniF64C" unicode="&#xf64c;" horiz-adv-x="512" 
d="M236 153h1c49 0 99 31 128 71c13 17 23 48 23 80c0 84 -46 127 -109 127c-73 0 -139 -75 -139 -167c0 -71 42 -111 96 -111zM48 -112l-5 65c26 2 54 4 81 9c140 28 210 115 240 199l-3 1c-28 -35 -86 -69 -150 -69c-94 0 -156 66 -156 162c0 132 107 243 239 243
c104 0 177 -81 177 -206c0 -181 -117 -362 -356 -399c-24 -3 -47 -5 -67 -5z" />
    <glyph glyph-name="uniF64E" unicode="&#xf64e;" horiz-adv-x="512" 
d="M426 83l9 -62c-29 -17 -85 -32 -148 -32c-116 0 -196 77 -202 194h-57l10 49h49c2 17 5 34 9 51h-48l11 49h52c45 117 151 194 279 194c58 0 96 -14 120 -27l-26 -61c-22 11 -55 22 -95 22c-89 0 -161 -53 -196 -128h238l-10 -49h-245c-4 -18 -7 -33 -8 -51h243l-10 -49
h-232c8 -80 61 -127 142 -127c42 0 91 14 115 27z" />
    <glyph glyph-name="uniF64F" unicode="&#xf64f;" horiz-adv-x="512" 
d="M514 591l-24 -62c-14 6 -28 10 -47 10c-66 0 -100 -55 -121 -140l-13 -53h115l-8 -64h-123l-46 -186c-31 -130 -82 -215 -191 -215c-32 0 -60 8 -74 18l21 61c16 -8 33 -12 52 -12c46 0 85 36 115 158l42 176h-88l8 64h96l11 45c22 94 75 216 210 216c25 0 50 -7 65 -16z
" />
    <glyph glyph-name="uniF650" unicode="&#xf650;" horiz-adv-x="512" 
d="M200 232h91l45 147h-90zM128 0h-59l54 175h-82l10 57h91l46 147h-87l10 57h94l54 171h57l-53 -171h91l53 171h58l-53 -171h82l-10 -57h-90l-45 -147h86l-10 -57h-95l-53 -175h-59l54 175h-90z" />
    <glyph glyph-name="uniF651" unicode="&#xf651;" horiz-adv-x="512" 
d="M458 510l-25 -64c-14 8 -44 18 -79 18c-76 0 -124 -61 -123 -163c-1 -6 -1 -13 -1 -20h146l-9 -55h-136c0 -63 -20 -118 -74 -156v-2h274l-11 -68h-396l7 49c81 33 125 87 121 177h-87l9 55h76c0 6 1 11 1 18c3 131 78 234 212 234c43 0 78 -13 95 -23z" />
    <glyph glyph-name="uniF652" unicode="&#xf652;" horiz-adv-x="512" 
d="M247 0h-79l22 115h-145l9 49h146l11 60h-146l10 49h123l-97 242h86l52 -153c9 -31 16 -55 22 -80h2c16 25 36 53 56 82l114 151h89l-198 -242h121l-9 -49h-147l-11 -60h146l-9 -49h-146z" />
    <glyph glyph-name="uniF653" unicode="&#xf653;" horiz-adv-x="512" 
d="M225 -81h-53l15 80c-52 2 -104 21 -133 42l33 59c22 -17 69 -37 120 -37c61 0 118 29 118 78c0 26 -16 53 -90 82c-84 33 -113 68 -113 117c0 82 78 134 162 142l17 85h54l-15 -83c45 -4 86 -20 109 -37l-31 -57c-25 17 -64 33 -107 33c-58 0 -103 -28 -103 -69
c0 -31 17 -46 89 -75c78 -30 116 -71 116 -123c0 -91 -85 -145 -172 -155z" />
    <glyph glyph-name="uniF654" unicode="&#xf654;" horiz-adv-x="512" 
d="M367 132l6 -58c-23 -11 -67 -25 -109 -27l-14 -72h-53l14 73c-85 10 -145 69 -145 153c0 122 93 230 221 248l12 68h54l-13 -66c37 -2 77 -17 96 -28l-28 -58c-17 11 -52 24 -86 24c-104 0 -174 -83 -174 -174c0 -67 44 -106 117 -106c39 0 77 12 102 23z" />
    <glyph glyph-name="uniF655" unicode="&#xf655;" horiz-adv-x="323" 
d="M120 -5h-1c-77 0 -112 59 -112 139c0 135 75 262 184 262c79 0 111 -61 111 -127c0 -139 -71 -274 -182 -274zM127 47h1c68 0 106 139 106 215c0 33 -7 82 -51 82c-63 0 -108 -125 -108 -211c0 -39 9 -86 52 -86z" />
    <glyph glyph-name="uniF656" unicode="&#xf656;" horiz-adv-x="228" 
d="M122 1h-69l63 328h-2l-72 -32l-6 49l100 44h60z" />
    <glyph glyph-name="uniF657" unicode="&#xf657;" horiz-adv-x="298" 
d="M229 1h-263l7 40l73 58c93 74 156 127 156 187c0 26 -14 53 -60 53c-33 0 -66 -17 -85 -30l-16 44c32 24 76 42 122 42c71 0 112 -44 112 -101c0 -79 -80 -143 -165 -208l-36 -28v-2h166z" />
    <glyph glyph-name="uniF658" unicode="&#xf658;" horiz-adv-x="291" 
d="M56 316l-11 45c25 18 68 34 111 34c72 0 110 -40 110 -86c0 -47 -39 -81 -90 -97v-2c41 -10 71 -45 71 -88c-1 -76 -68 -126 -164 -126c-46 0 -89 13 -109 29l22 47c17 -11 50 -25 87 -25c59 0 93 35 93 74c0 46 -44 65 -91 65h-20l8 45h21c45 0 100 26 100 68
c0 25 -15 45 -57 45c-29 0 -62 -14 -81 -28z" />
    <glyph glyph-name="uniF659" unicode="&#xf659;" horiz-adv-x="318" 
d="M209 1h-65l20 103h-180l8 40l216 248h76l-46 -239h55l-10 -49h-54zM174 153l22 116c4 22 10 45 15 64h-2c-16 -23 -29 -44 -44 -62l-101 -116l-1 -2h111z" />
    <glyph glyph-name="uniF65A" unicode="&#xf65a;" horiz-adv-x="295" 
d="M283 390l-12 -55h-142l-27 -85c9 1 16 1 23 1c18 0 46 -4 68 -15c39 -18 56 -54 56 -89c0 -97 -82 -152 -177 -152c-43 0 -79 12 -94 22l18 50c15 -9 45 -19 80 -19c55 0 101 38 101 88c0 36 -23 67 -97 67c-18 0 -32 -2 -49 -3l56 190h196z" />
    <glyph glyph-name="uniF65B" unicode="&#xf65b;" horiz-adv-x="320" 
d="M289 395l-9 -53c-11 1 -27 0 -42 -3c-74 -13 -125 -60 -148 -124l1 -1c22 27 61 46 94 46c69 0 103 -49 103 -109c0 -80 -67 -156 -156 -156c-80 0 -126 56 -126 133c0 91 52 171 106 212c35 25 77 43 124 50c17 3 36 5 53 5zM136 45h1c46 0 83 48 83 103
c0 40 -22 64 -61 64c-28 0 -57 -18 -75 -46c-4 -6 -7 -12 -8 -18c-3 -8 -3 -20 -3 -30c0 -42 22 -73 63 -73z" />
    <glyph glyph-name="uniF65C" unicode="&#xf65c;" horiz-adv-x="282" 
d="M42 390h254l-8 -43c-50 -78 -167 -253 -229 -346h-73c67 99 172 253 227 333l-1 2h-181z" />
    <glyph glyph-name="uniF65D" unicode="&#xf65d;" horiz-adv-x="323" 
d="M188 396h1c60 0 110 -32 110 -91c0 -44 -34 -77 -78 -97v-1c43 -22 62 -56 62 -91c0 -81 -80 -121 -152 -121c-80 0 -129 41 -129 98s44 96 94 114v2c-31 20 -46 45 -46 74c0 67 63 113 138 113zM136 42h1c42 0 76 28 76 69c0 35 -21 58 -66 72c-38 -9 -76 -34 -76 -81
c0 -31 22 -60 65 -60zM179 349h-1c-36 0 -63 -29 -63 -61c0 -26 16 -47 57 -60c34 10 63 34 63 69c0 23 -13 52 -56 52z" />
    <glyph glyph-name="uniF65E" unicode="&#xf65e;" horiz-adv-x="315" 
d="M9 -5l8 54c11 -1 28 -1 45 1c27 3 54 14 81 33c29 21 54 52 70 92l-1 1c-24 -27 -60 -40 -90 -40c-66 0 -104 48 -104 105c0 82 71 156 156 156c81 0 120 -59 120 -131c0 -96 -55 -179 -104 -218c-38 -30 -86 -47 -132 -52c-17 -2 -35 -2 -49 -1zM168 346h-1
c-43 0 -81 -46 -81 -100c0 -34 20 -62 58 -62c30 0 55 16 72 39c4 5 7 11 8 18c2 9 4 22 4 34c0 40 -19 71 -60 71z" />
    <glyph glyph-name="uniF65F" unicode="&#xf65f;" horiz-adv-x="140" 
d="M-3 -68l-48 -5c22 43 49 106 63 155l73 6c-24 -56 -62 -121 -88 -156z" />
    <glyph glyph-name="uniF660" unicode="&#xf660;" horiz-adv-x="140" 
d="M33 -5h-1c-22 0 -38 18 -38 41c0 27 18 48 46 48c24 0 40 -17 40 -42c0 -27 -19 -47 -47 -47z" />
    <glyph glyph-name="uniF629" unicode="&#xf629;" horiz-adv-x="283" 
d="M145 -9h-45l12 61c-34 5 -57 19 -73 41c-16 21 -24 48 -24 77c0 94 71 164 155 176l10 60h46l-11 -58c19 0 45 -7 57 -15l-21 -48c-14 7 -31 13 -59 13c-55 0 -108 -50 -108 -121c0 -46 29 -76 76 -76c26 0 46 7 62 14l6 -48c-16 -8 -45 -16 -71 -16z" />
    <glyph glyph-name="uniF62A" unicode="&#xf62a;" horiz-adv-x="286" 
d="M109 -51h-45l11 58c-33 1 -71 16 -89 31l21 49c22 -16 52 -29 92 -29c41 0 74 22 74 57c0 23 -13 43 -54 61c-51 24 -86 53 -86 98c0 58 49 104 116 110l12 57h45l-12 -57c33 -1 61 -13 74 -22l-22 -48c-13 8 -38 21 -77 21c-42 0 -66 -24 -66 -51c0 -23 16 -37 63 -60
c49 -23 77 -54 77 -99c0 -69 -55 -109 -122 -118z" />
    <glyph glyph-name="uniF62B" unicode="&#xf62b;" horiz-adv-x="192" 
d="M14 206h152l-9 -47h-152z" />
    <glyph glyph-name="uniF62C" unicode="&#xf62c;" horiz-adv-x="181" 
d="M150 426h51c-62 -73 -123 -185 -123 -321c0 -54 8 -106 32 -164h-47c-24 48 -38 102 -38 164c0 143 63 254 125 321z" />
    <glyph glyph-name="uniF62D" unicode="&#xf62d;" horiz-adv-x="181" 
d="M11 -59h-50c61 74 123 185 123 322c0 54 -9 105 -32 163h47c24 -47 39 -101 39 -163c0 -142 -64 -253 -127 -322z" />
    <glyph glyph-name="uniF661" unicode="&#xf661;" horiz-adv-x="323" 
d="M173 261h-1c-77 0 -112 59 -112 139c0 135 75 262 184 262c79 0 111 -61 111 -127c0 -139 -71 -274 -182 -274zM180 313h1c68 0 106 139 106 215c0 33 -7 82 -51 82c-63 0 -108 -125 -108 -211c0 -39 9 -86 52 -86z" />
    </font>
</defs>
</svg>
