<?xml version="1.0" standalone="no"?>
<!DOCTYPE svg PUBLIC "-//W3C//DTD SVG 1.1//EN" "http://www.w3.org/Graphics/SVG/1.1/DTD/svg11.dtd" >
<svg xmlns="http://www.w3.org/2000/svg" xmlns:xlink="http://www.w3.org/1999/xlink" version="1.1">
<metadata>
Created by FontForge 20150715 at Thu Dec 24 08:06:59 2015
 By Jimmy Wärting
Copyright (c) 2001 Isao Suzuki. All Rights Reserved.
</metadata>
<defs>
<font id="AppleTP-Text" horiz-adv-x="799" >
  <font-face 
    font-family="Apple TP Text"
    font-weight="400"
    font-stretch="normal"
    units-per-em="1000"
    panose-1="2 11 5 0 0 0 0 0 0 0"
    ascent="800"
    descent="-200"
    x-height="483"
    cap-height="674"
    bbox="-439 -283 1232 1106"
    underline-thickness="50"
    underline-position="-100"
    unicode-range="U+000D-FFE5"
  />
<missing-glyph 
d="M689 48h-579v578h579v-578zM169 568v-462h463v462h-463zM257 521l143 -143l143 143l41 -41l-143 -143l143 -143l-41 -41l-143 143l-143 -143l-41 41l143 143l-143 143z" />
    <glyph glyph-name="fi" unicode="fi" horiz-adv-x="477" 
d="M432 0h-76v424h-198v-424h-77v424h-67v59h67v28q0 97 52.5 153t149.5 56q74 0 118 -32l-24 -58q-41 27 -99 27q-121 0 -121 -149v-25h275v-483z" />
    <glyph glyph-name="fl" unicode="fl" horiz-adv-x="477" 
d="M432 0h-76v646q-25 13 -73 13q-126 0 -126 -150v-26h116v-59h-115v-424h-77v424h-67v59h67v21q0 49 14 88.5t41 68t67 44t93 15.5q80 0 136 -30v-690z" />
    <glyph glyph-name="ff" unicode="ff" horiz-adv-x="514" 
d="M321 483v25q1 38 6 68.5t21 53.5l11 16q-20 11 -39 14.5t-46 3.5q-19 0 -40 -5.5t-39 -22t-29.5 -48t-11.5 -83.5v-22h167zM81 483v28q0 96 52 152.5t156 56.5q68 0 118 -22l7 -4l7 4q43 22 99 22q20 0 37 -2t40 -10l-15 -51q-29 10 -62 10q-22 -1 -44 -6.5t-40 -22
t-29.5 -47.5t-11.5 -83v-25h118v-57h-118v-426h-74v426h-166v-426h-74v426h-67v57h67z" />
    <glyph glyph-name="ffi" unicode="ffi" horiz-adv-x="734" 
d="M320 483v25q1 38 7 68t20 53l10 17q-21 8 -39 13t-45 5q-20 0 -41 -5.5t-38.5 -22.5t-29 -48.5t-11.5 -82.5v-22h167zM81 483v28q0 97 52 153t155 56q67 0 117 -22l7 -4l7 4q43 22 99 22q30 0 57.5 -4.5t47.5 -15.5l-16 -51q-20 9 -41.5 13.5t-48.5 4.5
q-20 -1 -41.5 -6.5t-40.5 -22t-31 -47.5t-12 -83v-25h270v-483h-73v426h-196v-426h-73v426h-166v-426h-73v426h-67v57h67z" />
    <glyph glyph-name="ffl" unicode="ffl" horiz-adv-x="734" 
d="M518 667q-20 0 -42.5 -6t-41 -22.5t-30.5 -46.5t-12 -77v-32h121v-57h-120v-426h-73v426h-166v-426h-73v426h-67v57h67v32q0 46 13 83.5t39 64.5t64.5 42t90.5 15q67 0 117 -22l7 -4l7 4q43 22 98 22q31 0 70.5 -7.5t74.5 -25.5v-687h-74v654q-30 13 -70 13zM320 483v25
q1 38 7 68t20 53l10 17q-21 8 -39 13t-45 5q-20 0 -41 -5.5t-38.5 -22.5t-29 -48.5t-11.5 -82.5v-22h167z" />
    <glyph glyph-name=".notdef" 
d="M689 48h-579v578h579v-578zM169 568v-462h463v462h-463zM257 521l143 -143l143 143l41 -41l-143 -143l143 -143l-41 -41l-143 143l-143 -143l-41 41l143 143l-143 143z" />
    <glyph glyph-name="NULL" horiz-adv-x="0" 
 />
    <glyph glyph-name="NULL" horiz-adv-x="0" 
 />
    <glyph glyph-name="nonmarkingreturn" unicode="&#xd;" horiz-adv-x="216" 
 />
    <glyph glyph-name="space" unicode=" " horiz-adv-x="214" 
 />
    <glyph glyph-name="numbersign" unicode="#" horiz-adv-x="458" 
d="M445 403h-88l-19 -151h85v-53h-93l-26 -199h-54l26 199h-104l-26 -199h-55l26 199h-81v53h89l20 151h-86v53h93l26 194h53l-25 -194h105l25 194h54l-25 -194h80v-53zM303 403h-104l-20 -151h105z" />
    <glyph glyph-name="dollar" unicode="$" horiz-adv-x="479" 
d="M426 187q0 -64 -41.5 -110t-110.5 -58v-104h-57v101q-89 1 -147 44l23 58q61 -42 137 -42q54 0 87.5 29t33.5 75q0 79 -112 125q-87 36 -124 75.5t-37 95.5q0 63 40 105t106 53v101h56v-98q74 -2 125 -35l-23 -58q-58 34 -121 34q-51 0 -79.5 -26t-28.5 -65
q0 -20 6 -35.5t20 -29t38 -26.5t59 -28q80 -35 115 -77t35 -104z" />
    <glyph glyph-name="percent" unicode="%" horiz-adv-x="730" 
d="M739 198q0 -47 -11 -84.5t-30.5 -64.5t-47 -41.5t-61.5 -14.5q-64 0 -104.5 52.5t-40.5 143.5q0 45 10.5 82t30.5 64t47.5 41.5t62.5 14.5q69 0 106.5 -52.5t37.5 -140.5zM601 662l-381 -675h-51l381 675h51zM328 467q0 -46 -10.5 -83.5t-29.5 -64.5t-47 -41.5t-62 -14.5
q-66 0 -106 52t-40 143q0 45 10.5 82t30.5 64t47.5 42t62.5 15q70 0 107 -53.5t37 -140.5zM678 194q0 150 -86 150q-20 0 -36 -11.5t-27 -32t-17 -48.5t-6 -60q0 -69 23 -110t63 -41q86 0 86 153zM268 463q0 150 -87 150q-20 0 -35.5 -12t-27 -32.5t-17.5 -48.5t-6 -59
q0 -67 22.5 -109t64.5 -42q86 0 86 153z" />
    <glyph glyph-name="ampersand" unicode="&#x26;" horiz-adv-x="553" 
d="M491 0q-4 3 -20 20t-45 48q-82 -79 -195 -79q-44 0 -80.5 14t-63 39.5t-41.5 60t-15 75.5q0 122 130 197v3q-56 74 -56 143q0 35 12 65t34 52t52 34.5t66 12.5q30 0 56 -10t45 -28.5t29.5 -44.5t10.5 -58q0 -105 -148 -180v-4q94 -111 171 -198q44 69 64 202h70
q-29 -168 -93 -247l109 -117h-92zM343 540q0 42 -22.5 66.5t-57.5 24.5q-38 0 -62.5 -28.5t-24.5 -74.5q0 -58 51 -125q65 37 90.5 67.5t25.5 69.5zM388 113q-29 33 -77 87.5t-115 132.5q-91 -58 -91 -144q0 -32 11 -58t30 -44.5t44.5 -28.5t54.5 -10q86 0 143 65z" />
    <glyph glyph-name="quotesingle" unicode="'" horiz-adv-x="177" 
d="M138 691l-15 -234h-48l-15 234h78z" />
    <glyph glyph-name="parenleft" unicode="(" horiz-adv-x="264" 
d="M200 -121q-132 171 -132 406q0 236 132 410h62q-128 -170 -128 -410q0 -227 128 -406h-62z" />
    <glyph glyph-name="parenright" unicode=")" horiz-adv-x="264" 
d="M207 287q0 -233 -132 -408h-62q128 176 128 409q0 231 -128 407h62q132 -170 132 -408z" />
    <glyph glyph-name="asterisk" unicode="*" horiz-adv-x="389" 
d="M377 483l-149 17v-3l93 -119l-58 -33l-61 137h-2l-65 -138l-52 33l92 121v3l-145 -18v62l144 -16v2l-91 121l56 32l63 -136h2l61 137l55 -31l-92 -126l149 17v-62z" />
    <glyph glyph-name="plus" unicode="+" horiz-adv-x="596" 
d="M556 240h-229v-240h-58v240h-229v54h229v238h58v-238h229v-54z" />
    <glyph glyph-name="comma" unicode="," horiz-adv-x="173" 
d="M170 118q-41 -152 -90 -236l-55 -6q19 52 33.5 109.5t24.5 122.5z" />
    <glyph glyph-name="hyphen" unicode="-" horiz-adv-x="297" 
d="M273 242h-243v58h243v-58z" />
    <glyph glyph-name="period" unicode="." horiz-adv-x="173" 
d="M161 47q0 -25 -15 -41.5t-40 -16.5q-22 0 -37.5 16.5t-15.5 41.5t15.5 41.5t39.5 16.5q23 0 38 -16.5t15 -41.5z" />
    <glyph glyph-name="slash" unicode="/" horiz-adv-x="346" 
d="M338 685l-286 -725h-61l285 725h62z" />
    <glyph glyph-name="zero" unicode="0" horiz-adv-x="479" 
d="M463 332q0 -166 -56.5 -254.5t-162.5 -88.5q-48 0 -86.5 24t-65.5 68t-41 105.5t-14 136.5t15 137t43 107t69 69.5t92 24.5q50 0 88.5 -23t65 -66t40 -103.5t13.5 -136.5zM385 328q0 272 -136 272q-32 0 -57 -20.5t-42.5 -57.5t-27 -88t-9.5 -112q0 -60 9 -110t26.5 -86
t42.5 -56t57 -20q66 0 101.5 71.5t35.5 206.5z" />
    <glyph glyph-name="one" unicode="1" horiz-adv-x="479" 
d="M315 0h-74v577l-113 -61l-15 59l136 75h66v-650z" />
    <glyph glyph-name="two" unicode="2" horiz-adv-x="479" 
d="M446 0h-401v47l66 66q69 69 114 119t67 79q61 82 61 154q0 132 -130 132q-69 0 -135 -54l-25 53q77 65 176 65q42 0 77 -13.5t60 -37.5t39 -58.5t14 -76.5q0 -86 -61 -174q-23 -32 -64 -79t-102 -107l-50 -49v-2h294v-64z" />
    <glyph glyph-name="three" unicode="3" horiz-adv-x="479" 
d="M434 183q0 -42 -16.5 -78t-46.5 -61.5t-72.5 -40t-93.5 -14.5q-99 0 -161 44l22 58q61 -39 140 -39q70 0 109.5 36.5t39.5 96.5q0 32 -13 57.5t-36 43t-54.5 26.5t-67.5 9h-45v58h45q30 0 57 8.5t47.5 24t32 36.5t11.5 47q0 51 -31 77t-85 26q-67 0 -125 -42l-22 55
q65 50 161 50q40 0 73.5 -11t57 -31t36.5 -48.5t13 -63.5q0 -109 -119 -153v-2q64 -14 103.5 -58.5t39.5 -110.5z" />
    <glyph glyph-name="four" unicode="4" horiz-adv-x="479" 
d="M473 181h-92v-181h-72v181h-298v50l291 419h79v-409h92v-60zM309 570q-8 -17 -21.5 -40.5t-31.5 -54.5l-166 -234h219v228q0 26 1 51t3 50h-4z" />
    <glyph glyph-name="five" unicode="5" horiz-adv-x="479" 
d="M429 210q0 -48 -17.5 -88.5t-48.5 -70t-74 -46t-93 -16.5q-97 0 -155 40l21 59q58 -37 135 -37q33 0 61 11t49 30.5t33 47.5t12 61q0 152 -184 152q-48 0 -89 -7l42 304h298v-65h-242l-27 -176q23 4 53 4q51 0 92.5 -14.5t71 -41t46 -64t16.5 -83.5z" />
    <glyph glyph-name="six" unicode="6" horiz-adv-x="479" 
d="M466 217q0 -48 -15.5 -89.5t-43.5 -72.5t-66 -48.5t-84 -17.5q-50 0 -90.5 19.5t-69.5 55.5t-45 87t-16 113q0 82 24 154t70.5 126t115.5 85t158 31l1 -64h-11q-56 0 -104.5 -18.5t-85 -51.5t-60 -78.5t-29.5 -100.5h2q55 79 157 79q42 0 77.5 -15t61 -42.5t39.5 -66
t14 -85.5zM388 212q0 73 -36.5 114t-99.5 41q-22 0 -46.5 -9t-45.5 -25t-34.5 -38.5t-13.5 -48.5q0 -45 10.5 -81t29.5 -62t46.5 -40t60.5 -14q57 0 93 44t36 119z" />
    <glyph glyph-name="seven" unicode="7" horiz-adv-x="479" 
d="M455 599l-280 -599h-78l278 586h-315v64h395v-51z" />
    <glyph glyph-name="eight" unicode="8" horiz-adv-x="479" 
d="M462 176q0 -41 -16.5 -75.5t-45 -59t-67.5 -38.5t-84 -14t-83 13t-66 36t-44 55t-16 70q0 119 128 178v3q-104 48 -104 146q0 38 15 69.5t41.5 54t61.5 35t76 12.5q39 0 72 -11.5t57 -32.5t38 -50t14 -64q0 -103 -107 -154v-3q130 -52 130 -170zM367 495q0 51 -30.5 80.5
t-82.5 29.5q-49 0 -82 -29.5t-33 -78.5q0 -92 126 -126q102 36 102 124zM386 168q0 104 -146 148q-122 -38 -122 -144q0 -29 10 -52t28 -39.5t42.5 -25.5t53.5 -9q28 0 52.5 8.5t42.5 24.5t28.5 38.5t10.5 50.5z" />
    <glyph glyph-name="nine" unicode="9" horiz-adv-x="479" 
d="M467 388q0 -89 -24 -162t-70 -125.5t-112.5 -81.5t-150.5 -29h-11v64q8 -1 14.5 -1h14.5q51 0 95 17.5t78.5 50t57 79.5t30.5 106h-2q-58 -73 -155 -73q-42 0 -76.5 15.5t-58.5 42t-37.5 63t-13.5 78.5q0 46 15.5 87.5t44 73t68 50t86.5 18.5q48 0 86 -19.5t65 -55
t41.5 -86t14.5 -112.5zM390 396q0 96 -34.5 150.5t-103.5 54.5q-29 0 -53 -12.5t-41 -34.5t-26.5 -52.5t-9.5 -65.5q0 -66 35 -105t93 -39q23 0 48 6.5t45.5 20t33.5 32.5t13 45z" />
    <glyph glyph-name="colon" unicode=":" horiz-adv-x="173" 
d="M160 405q0 -28 -16.5 -42.5t-38.5 -14.5q-20 0 -36 15t-16 42q0 26 15 42t39 16q23 0 38 -16t15 -42zM159 46q0 -28 -16.5 -42.5t-38.5 -14.5q-20 0 -36 15t-16 42q0 26 15 42t39 16q23 0 38 -16t15 -42z" />
    <glyph glyph-name="semicolon" unicode=";" horiz-adv-x="173" 
d="M174 405q0 -27 -16.5 -42t-37.5 -15t-37 15t-16 42q0 26 15 42t39 16t39 -16t14 -42zM170 118q-41 -152 -90 -236l-55 -6q19 52 33.5 109.5t24.5 122.5z" />
    <glyph glyph-name="less" unicode="&#x3c;" horiz-adv-x="596" 
d="M533 0l-462 242v48l462 242v-63l-396 -202v-2l396 -202v-63z" />
    <glyph glyph-name="equal" unicode="=" horiz-adv-x="596" 
d="M556 339h-516v55h516v-55zM556 145h-516v54h516v-54z" />
    <glyph glyph-name="greater" unicode="&#x3e;" horiz-adv-x="596" 
d="M533 240l-462 -240v63l398 202v2l-398 202v63l462 -240v-52z" />
    <glyph glyph-name="question" unicode="?" horiz-adv-x="375" 
d="M349 541q0 -21 -3.5 -39t-13 -38t-26 -43.5t-42.5 -54.5q-56 -67 -56 -142v-11l1 -26h-68l-3 25q-1 5 -1 10.5v10.5q0 79 62 156q71 89 71 143q0 90 -98 90q-59 0 -98 -30l-22 55q52 39 136 39q36 0 65.5 -10.5t51 -29.5t33 -45.5t11.5 -59.5zM227 46q0 -26 -15.5 -41.5
t-39.5 -15.5q-21 0 -37 15.5t-16 41.5q0 25 15.5 41.5t38.5 16.5q24 0 39 -16t15 -42z" />
    <glyph glyph-name="at" unicode="@" horiz-adv-x="707" 
d="M681 400q0 -53 -13 -97.5t-36.5 -76.5t-55 -50t-68.5 -18q-31 0 -51.5 20t-20.5 62v7h-3q-53 -89 -142 -89q-23 0 -42 9.5t-33 26t-22 39.5t-8 49q0 46 18 89.5t49.5 76.5t74.5 53t94 20q57 0 103 -20l-35 -182q-3 -17 -5 -31.5t-2 -26.5q0 -57 39 -57q22 0 41.5 15
t34 41t23 60t8.5 72q0 56 -16 102t-47 79t-75 51t-100 18q-64 0 -119 -25.5t-95 -71t-63 -107.5t-23 -135q0 -60 18.5 -110t52.5 -85.5t80.5 -55t102.5 -19.5q87 0 150 36l15 -41q-73 -40 -175 -40q-65 0 -119 23.5t-94 65t-62 98.5t-22 124q0 82 27.5 153t76 123
t114.5 81.5t143 29.5q63 0 114.5 -21.5t89 -59.5t58 -90.5t20.5 -114.5zM462 465q-26 8 -51 8q-33 0 -63 -15t-52.5 -41t-36 -60t-13.5 -73q0 -77 67 -77q19 0 39.5 11.5t38 31t30.5 45t18 52.5z" />
    <glyph glyph-name="A" unicode="A" horiz-adv-x="574" 
d="M494 0l-74 218h-240l-72 -218h-78l228 674h88l228 -674h-80zM197 278h207l-68 201q-7 19 -15.5 50t-19.5 74h-2q-10 -40 -18 -70.5t-16 -52.5z" />
    <glyph glyph-name="B" unicode="B" horiz-adv-x="496" 
d="M487 191q0 -44 -16.5 -80.5t-50.5 -62.5t-86.5 -40t-125.5 -14q-32 0 -64 1.5t-64 5.5v664q70 14 150 14q112 0 172 -43t60 -124q0 -51 -31 -90.5t-83 -58.5v-2q61 -15 100 -60.5t39 -109.5zM385 505q0 115 -152 115q-53 0 -77 -7v-227h82q67 0 107 33.5t40 85.5z
M407 191q0 64 -48 100.5t-130 36.5h-73v-269q13 -2 31 -3.5t42 -1.5q85 0 131.5 35.5t46.5 101.5z" />
    <glyph glyph-name="C" unicode="C" horiz-adv-x="556" 
d="M513 593q-57 27 -132 27q-62 0 -110.5 -20t-83 -57t-52.5 -90.5t-18 -119.5q0 -65 17.5 -116.5t51 -87.5t81.5 -55t109 -19q83 0 140 27l17 -61q-61 -31 -174 -31q-73 0 -132.5 24t-101.5 68.5t-65 107.5t-23 141q0 79 24.5 144t69.5 111.5t108 72t140 25.5q98 0 154 -29
z" />
    <glyph glyph-name="D" unicode="D" horiz-adv-x="632" 
d="M613 354q0 -84 -23.5 -151t-71.5 -113.5t-119.5 -71t-167.5 -24.5q-45 0 -82.5 1.5t-68.5 5.5v664q43 7 86.5 10.5t89.5 3.5q91 0 158 -23t111.5 -65t66 -102t21.5 -135zM534 350q0 133 -70 200.5t-205 67.5q-58 0 -103 -9v-549q23 -4 89 -4q143 0 216 75.5t73 218.5z
" />
    <glyph glyph-name="E" unicode="E" horiz-adv-x="456" 
d="M444 0h-364v674h349v-63h-273v-227h258v-63h-258v-258h288v-63z" />
    <glyph glyph-name="F" unicode="F" horiz-adv-x="452" 
d="M428 611h-272v-237h251v-63h-251v-311h-76v674h348v-63z" />
    <glyph glyph-name="G" unicode="G" horiz-adv-x="610" 
d="M571 29q-93 -36 -199 -36q-77 0 -138.5 23.5t-105.5 67t-67.5 106.5t-23.5 143q0 76 25 140t71.5 110t111.5 72t146 26q98 0 161 -30l-20 -62q-59 28 -143 28q-62 0 -112 -19.5t-85.5 -55.5t-55 -88t-19.5 -117q0 -66 18.5 -118t52 -88.5t82 -55.5t108.5 -19q81 0 118 19
v212h-138v61h213v-319z" />
    <glyph glyph-name="H" unicode="H" horiz-adv-x="616" 
d="M561 0h-76v322h-329v-322h-76v674h76v-287h329v287h76v-674z" />
    <glyph glyph-name="I" unicode="I" horiz-adv-x="208" 
d="M156 0h-76v674h76v-674z" />
    <glyph glyph-name="J" unicode="J" horiz-adv-x="338" 
d="M289 217q0 -228 -195 -228q-51 0 -87 15l12 62q31 -12 70 -12q66 0 95 39.5t29 131.5v449h76v-457z" />
    <glyph glyph-name="K" unicode="K" horiz-adv-x="491" 
d="M535 0h-90l-225 337l-64 -74v-263h-76v674h76v-329h3q25 37 54 72l209 257h93l-242 -286z" />
    <glyph glyph-name="L" unicode="L" horiz-adv-x="440" 
d="M441 0h-361v674h76v-610h285v-64z" />
    <glyph glyph-name="M" unicode="M" horiz-adv-x="764" 
d="M728 0h-74l-17 302q-5 97 -8 165t-3 110v17h-3q-18 -60 -38.5 -123.5t-45.5 -130.5l-123 -337h-56l-114 330q-26 75 -45.5 139.5t-32.5 121.5h-3q-1 -72 -4.5 -146.5t-8.5 -152.5l-18 -295h-72l46 674h95l120 -341q21 -60 38 -115.5t31 -110.5h2q27 103 72 225l125 342
h95z" />
    <glyph glyph-name="N" unicode="N" horiz-adv-x="624" 
d="M567 0h-75l-220 354q-82 133 -124 224l-3 -1q4 -52 5.5 -121t1.5 -157v-299h-72v674h81l222 -354q72 -116 120 -219l2 1q-9 109 -9 278v294h71v-674z" />
    <glyph glyph-name="O" unicode="O" horiz-adv-x="654" 
d="M632 344q0 -79 -21.5 -144t-61 -112t-95 -73t-123.5 -26q-65 0 -119 25.5t-93 71t-60.5 108t-21.5 137.5q0 78 22.5 143.5t62.5 112t95.5 72.5t121.5 26t120.5 -25t92.5 -70t59 -108t21 -138zM551 340q0 60 -16 111.5t-44.5 90t-68 60t-87.5 21.5q-49 0 -89.5 -21.5
t-69 -60t-44.5 -92t-16 -116.5q0 -59 16 -110.5t44.5 -89.5t68.5 -60t88 -22q49 0 89.5 22t69 61t44 91.5t15.5 114.5z" />
    <glyph glyph-name="P" unicode="P" horiz-adv-x="492" 
d="M478 485q0 -53 -18.5 -93t-51.5 -67.5t-79.5 -41.5t-101.5 -14q-50 0 -71 7v-276h-76v666q36 7 75.5 10t82.5 3q118 0 179 -52t61 -142zM402 480q0 69 -44 103.5t-119 34.5q-54 0 -83 -7v-273q30 -8 73 -8q81 0 127 39t46 111z" />
    <glyph glyph-name="Q" unicode="Q" horiz-adv-x="654" 
d="M615 -95q-60 15 -121.5 33.5t-127.5 40.5q-7 2 -16.5 5t-22.5 5q-65 2 -118 27.5t-91.5 70t-59.5 106.5t-21 137q0 78 22 143.5t61.5 112.5t95.5 73t124 26q66 0 119.5 -25.5t92 -70.5t59.5 -107.5t21 -137.5q0 -124 -50 -209.5t-142 -117.5v-4q57 -14 106.5 -25
t91.5 -19zM552 340q0 60 -15.5 111.5t-44 89.5t-67.5 60t-87 22q-50 0 -91 -21.5t-70 -60.5t-44.5 -92.5t-15.5 -116.5q0 -59 16 -110t44.5 -89t68.5 -60t88 -22q49 0 89.5 22t69 61t44 91.5t15.5 114.5z" />
    <glyph glyph-name="R" unicode="R" horiz-adv-x="496" 
d="M422 0q-7 13 -18 53t-25 109q-16 72 -47 103.5t-91 31.5h-85v-297h-76v665q35 7 74 10.5t84 3.5q117 0 178 -45t61 -136q0 -130 -127 -173v-3q74 -25 100 -139q34 -152 51 -183h-79zM401 488q0 131 -159 131q-59 0 -86 -7v-257h90q72 0 113.5 36.5t41.5 96.5z" />
    <glyph glyph-name="S" unicode="S" horiz-adv-x="455" 
d="M433 181q0 -44 -16 -79t-45.5 -60t-71.5 -38.5t-94 -13.5q-104 0 -165 43l21 63q67 -42 149 -42q69 0 107 33t38 88q0 51 -29 82.5t-98 57.5q-173 65 -173 190q0 39 15.5 72t43.5 57t66.5 37t83.5 13q86 0 142 -32l-23 -62q-49 31 -122 31q-58 0 -94 -29t-36 -77
q0 -23 6.5 -41t21.5 -34t40.5 -30.5t64.5 -30.5q91 -36 129.5 -83t38.5 -115z" />
    <glyph glyph-name="T" unicode="T" horiz-adv-x="456" 
d="M475 610h-205v-610h-76v610h-203v64h484v-64z" />
    <glyph glyph-name="U" unicode="U" horiz-adv-x="613" 
d="M557 275q0 -139 -63.5 -212.5t-181.5 -73.5q-115 0 -173.5 71.5t-58.5 209.5v404h76v-405q0 -105 40.5 -161t118.5 -56q166 0 166 217v405h76v-399z" />
    <glyph glyph-name="V" unicode="V" horiz-adv-x="502" 
d="M538 674l-238 -674h-81l-217 674h82l106 -339q52 -165 72 -254h2q11 45 29.5 107t47.5 147l116 339h81z" />
    <glyph glyph-name="W" unicode="W" horiz-adv-x="808" 
d="M818 674l-190 -674h-77l-88 360q-17 72 -29 127t-17 95h-2q-6 -36 -19 -91.5t-34 -130.5l-99 -360h-78l-170 674h80l83 -351q17 -69 29.5 -126.5t20.5 -106.5h3q5 34 19.5 91.5t36.5 142.5l93 350h77l86 -349q18 -75 30 -133t19 -101h2q16 94 54 234l93 349h77z" />
    <glyph glyph-name="X" unicode="X" horiz-adv-x="535" 
d="M531 0h-88l-89 154l-78 134h-2q-9 -19 -28.5 -51t-45.5 -83l-83 -154h-87l204 342l-196 332h87l92 -164q22 -38 63 -114h2q19 39 63 114l94 164h88l-204 -328z" />
    <glyph glyph-name="Y" unicode="Y" horiz-adv-x="495" 
d="M523 674l-221 -386v-288h-76v287l-210 387h87l96 -189q43 -86 69 -141h2q11 26 28.5 61.5t40.5 80.5l99 188h85z" />
    <glyph glyph-name="Z" unicode="Z" horiz-adv-x="525" 
d="M508 0h-475v45l373 565h-341v64h438v-47l-371 -563h376v-64z" />
    <glyph glyph-name="bracketleft" unicode="[" horiz-adv-x="264" 
d="M268 -112h-178v798h178v-50h-116v-698h116v-50z" />
    <glyph glyph-name="yen" unicode="&#xa5;" horiz-adv-x="479" 
d="M486 650l-177 -306h130v-45h-153v-75h153v-45h-153v-179h-73v179h-152v45h152v75h-152v45h130l-166 306h82l106 -212q10 -19 19.5 -41t20.5 -48h3q16 48 39 91l112 210h79z" />
    <glyph glyph-name="bracketright" unicode="]" horiz-adv-x="264" 
d="M184 -112h-177v50h115v698h-115v50h177v-798z" />
    <glyph glyph-name="asciicircum" unicode="^" horiz-adv-x="596" 
d="M540 191h-63l-170 393h-2l-171 -393h-62l206 459h56z" />
    <glyph glyph-name="underscore" unicode="_" horiz-adv-x="500" 
d="M500 -125h-500v50h500v-50z" />
    <glyph glyph-name="grave" unicode="`" horiz-adv-x="300" 
d="M210 542h-55l-121 141h89z" />
    <glyph glyph-name="a" unicode="a" horiz-adv-x="446" 
d="M337 0l-7 62h-3q-49 -73 -146 -73q-31 0 -57 10t-45 28.5t-30 43.5t-11 55q0 88 72.5 133.5t212.5 45.5v11q0 119 -111 119q-69 0 -122 -35l-18 52q65 41 151 41q176 0 176 -193v-185q0 -35 1.5 -63.5t5.5 -51.5h-69zM324 250h-15q-194 0 -194 -114q0 -45 24 -67t60 -22
q23 0 45.5 8t40 22.5t28.5 35.5t11 47v90z" />
    <glyph glyph-name="b" unicode="b" horiz-adv-x="540" 
d="M520 247q0 -57 -16 -104t-44.5 -81.5t-67 -53.5t-84.5 -19q-108 0 -160 91h-3v-80h-70q2 29 3 58.5t1 61.5v589h76v-306h2q49 90 163 90q44 0 81 -18t63.5 -50.5t41 -78t14.5 -99.5zM443 244q0 40 -10.5 74.5t-29.5 60t-46.5 39.5t-60.5 14q-27 0 -52.5 -11t-45 -30.5
t-31.5 -47t-12 -60.5v-93q0 -31 11.5 -56.5t30.5 -44t44 -28.5t52 -10q70 0 110 53t40 140z" />
    <glyph glyph-name="c" unicode="c" horiz-adv-x="435" 
d="M394 407q-44 24 -102 24q-41 0 -73 -14.5t-54 -40t-34 -60.5t-12 -76q0 -42 12.5 -77t35 -59.5t53.5 -38t69 -13.5q54 0 107 24l15 -58q-55 -28 -136 -28q-53 0 -96 17.5t-74 50t-47.5 77.5t-16.5 101q0 57 18.5 104t51.5 81t79.5 53t102.5 19q73 0 120 -26z" />
    <glyph glyph-name="d" unicode="d" horiz-adv-x="532" 
d="M412 0v84h-6q-47 -95 -162 -95q-44 0 -81 18.5t-64 51t-42.5 77.5t-15.5 98q0 57 15.5 104.5t44 82t67.5 53.5t86 19q103 0 144 -75h2v291h76v-589q0 -32 1 -61.5t3 -58.5h-68zM400 288q0 32 -10 58.5t-28 46t-42.5 30t-52.5 10.5q-34 0 -61.5 -14.5t-47 -40t-30 -61.5
t-10.5 -78t10.5 -76.5t29.5 -59.5t46 -38.5t60 -13.5q30 0 55 12t43 32.5t28 47.5t10 56v89z" />
    <glyph glyph-name="e" unicode="e" horiz-adv-x="474" 
d="M453 271q0 -24 -3 -39h-335q2 -87 45.5 -134t121.5 -47q76 0 130 25l14 -55q-63 -30 -155 -30q-54 0 -96.5 17.5t-72.5 50t-45.5 77t-15.5 98.5q0 57 16 104.5t44.5 82t69 54t90.5 19.5q45 0 80.5 -16.5t60.5 -46t38 -70.5t13 -90zM378 288q0 69 -32 109.5t-92 40.5
q-57 0 -93.5 -42t-43.5 -108h261z" />
    <glyph glyph-name="f" unicode="f" horiz-adv-x="257" 
d="M310 646q-28 11 -57 11q-96 0 -96 -148v-26h118v-59h-117v-424h-77v424h-67v59h67v24q0 103 45 158t123 55q43 0 73 -15z" />
    <glyph glyph-name="g" unicode="g" horiz-adv-x="532" 
d="M478 483q-2 -29 -3 -62t-1 -70v-281q0 -160 -67 -221q-62 -57 -169 -57q-98 0 -156 39l21 59q62 -38 139 -38q156 0 156 175v57h-2q-47 -83 -153 -83q-88 0 -145 67t-57 170q0 120 67 190q60 65 147 65q105 0 149 -84h2l4 74h68zM398 296q0 56 -38 97q-37 40 -94 40
q-33 0 -60.5 -13.5t-47 -38.5t-30 -60t-10.5 -78q0 -79 38 -129q39 -53 109 -53q42 0 76.5 24.5t48.5 69.5q8 24 8 47v94z" />
    <glyph glyph-name="h" unicode="h" horiz-adv-x="525" 
d="M474 0h-77v282q0 148 -114 148q-26 0 -49 -11t-40.5 -29.5t-28 -43t-10.5 -52.5v-294h-76v709h76v-303h2q23 40 64.5 63.5t87.5 23.5q75 0 120 -53t45 -149v-291z" />
    <glyph glyph-name="i" unicode="i" horiz-adv-x="206" 
d="M164 628q0 -23 -14.5 -37.5t-37.5 -14.5q-21 0 -35.5 14.5t-14.5 37.5q0 22 14.5 37t36.5 15q23 0 37.5 -15t13.5 -37zM151 0h-76v483h76v-483z" />
    <glyph glyph-name="j" unicode="j" horiz-adv-x="211" 
d="M171 628q0 -22 -14.5 -37t-38.5 -15q-18 0 -34 13t-16 39q0 22 14.5 37t37.5 15q22 0 37 -15t14 -37zM158 40q0 -67 -13 -114t-37.5 -77t-61 -44t-84.5 -15l-9 61q40 3 65.5 14t39 36t18.5 66.5t5 104.5v411h77v-443z" />
    <glyph glyph-name="k" unicode="k" horiz-adv-x="416" 
d="M462 0h-92l-170 237l-45 -50v-187h-76v709h76v-451h2q10 14 20.5 28t21.5 27l146 170h92l-185 -200z" />
    <glyph glyph-name="l" unicode="l" horiz-adv-x="206" 
d="M155 0h-76v709h76v-709z" />
    <glyph glyph-name="m" unicode="m" horiz-adv-x="803" 
d="M750 0h-75v277q0 153 -108 153q-25 0 -46 -10.5t-36.5 -28.5t-24 -41t-8.5 -48v-302h-75v295q0 60 -26 97.5t-77 37.5q-26 0 -48 -11.5t-38 -31t-25 -44t-9 -49.5v-294h-75v357q0 29 -1 60.5t-3 65.5h67v-79h7q51 89 150 89q48 0 83.5 -26t50.5 -71h2q53 97 159 97
q72 0 114 -54.5t42 -151.5v-287z" />
    <glyph glyph-name="n" unicode="n" horiz-adv-x="525" 
d="M474 0h-77v282q0 148 -114 148q-26 0 -49.5 -10.5t-41 -29t-27.5 -43.5t-10 -53v-294h-76v357q0 29 -1 60.5t-3 65.5h68v-80h7q20 40 62 65t96 25q76 0 121 -54t45 -148v-291z" />
    <glyph glyph-name="o" unicode="o" horiz-adv-x="520" 
d="M498 246q0 -57 -17 -104t-48 -81t-73.5 -53t-94.5 -19q-50 0 -91 18.5t-70.5 52t-46 79t-16.5 99.5q0 56 17 103t47.5 80.5t73.5 52.5t94 19t92.5 -18.5t71 -51t45.5 -78t16 -99.5zM419 243q0 40 -10.5 75.5t-30 61t-47 40.5t-61.5 15q-35 0 -63 -15t-48 -41t-30.5 -61.5
t-10.5 -77.5q0 -39 11 -74t30.5 -61t47.5 -41.5t61 -15.5t60.5 15t47.5 41.5t31.5 62t11.5 76.5z" />
    <glyph glyph-name="p" unicode="p" horiz-adv-x="540" 
d="M520 248q0 -58 -15.5 -105.5t-44 -81.5t-68 -53t-87.5 -19q-102 0 -148 78h-2v-265h-76v525q0 39 -1 78t-3 78h69v-84h6q54 94 169 94q43 0 80 -18t64 -50t42 -77.5t15 -99.5zM443 245q0 40 -10.5 74.5t-29.5 59.5t-46.5 39t-60.5 14q-26 0 -51.5 -11t-45.5 -31
t-32 -47.5t-12 -60.5v-88q0 -30 10.5 -56t28.5 -45.5t43.5 -31t55.5 -11.5q69 0 109.5 52t40.5 143z" />
    <glyph glyph-name="q" unicode="q" horiz-adv-x="531" 
d="M480 483q-2 -35 -3 -67.5t-1 -64.5v-549h-76v273h-2q-47 -86 -156 -86q-84 0 -143 68q-58 67 -58 176q0 129 70 199q61 61 145 61q105 0 147 -84l2 -1l3 75h72zM400 290q0 60 -37 100q-38 42 -96 42q-69 0 -109 -54q-40 -52 -40 -139q0 -81 36 -132q39 -56 110 -56
q45 0 79 25.5t50 73.5q7 20 7 44v96z" />
    <glyph glyph-name="r" unicode="r" horiz-adv-x="290" 
d="M305 419q-6 1 -13 1.5t-15 0.5q-27 0 -49.5 -12t-38.5 -33t-25 -50.5t-9 -64.5v-261h-76v336q0 37 -0.5 73.5t-2.5 73.5h67v-95h6q17 48 52.5 76.5t80.5 28.5q7 0 12.5 -0.5t10.5 -1.5v-72z" />
    <glyph glyph-name="s" unicode="s" horiz-adv-x="366" 
d="M345 133q0 -66 -46 -104.5t-127 -38.5q-75 0 -130 33l20 59q52 -34 112 -34q45 0 71 21t26 56q0 33 -20 54t-71 41q-124 49 -124 135q0 30 11.5 55t32 43.5t50 29t65.5 10.5q67 0 114 -29l-21 -57q-43 28 -96 28q-39 0 -61 -20t-22 -50q0 -27 19.5 -47.5t72.5 -39.5
q124 -49 124 -145z" />
    <glyph glyph-name="t" unicode="t" horiz-adv-x="303" 
d="M296 424h-127v-276q0 -95 66 -95q33 0 51 7l4 -59q-31 -11 -73 -11q-60 0 -91.5 36.5t-31.5 121.5v276h-76v59h76v88l75 25v-113h127v-59z" />
    <glyph glyph-name="u" unicode="u" horiz-adv-x="519" 
d="M401 0v79h-7q-50 -90 -157 -90q-78 0 -120 53.5t-42 156.5v284h76v-270q0 -160 110 -160q25 0 48.5 10t41 28t28 42t10.5 51v299h76v-355q0 -32 1 -64t3 -64h-68z" />
    <glyph glyph-name="v" unicode="v" horiz-adv-x="443" 
d="M456 483l-188 -483h-71l-182 483h82l97 -279q14 -40 24.5 -71t16.5 -54h2q5 19 15 49.5t26 75.5l98 279h80z" />
    <glyph glyph-name="w" unicode="w" horiz-adv-x="709" 
d="M708 483l-155 -483h-69l-77 241q-15 48 -25 87t-18 72h-2q-8 -37 -19 -76t-26 -84l-81 -240h-70l-144 483h78l68 -252q24 -87 37 -154h2q7 29 18 67t26 86l82 253h65l78 -249q13 -42 24 -80.5t19 -76.5h2q12 63 39 156l72 250h76z" />
    <glyph glyph-name="x" unicode="x" horiz-adv-x="420" 
d="M434 0h-86l-74 112q-11 16 -23.5 37.5t-28.5 48.5h-3q-7 -13 -19.5 -34.5t-32.5 -51.5l-72 -112h-84l169 246l-161 237h85l71 -107q11 -17 23.5 -37t26.5 -43h2q10 17 22.5 37t27.5 43l69 107h84l-163 -234z" />
    <glyph glyph-name="y" unicode="y" horiz-adv-x="431" 
d="M448 483l-131 -345q-49 -125 -81 -190q-42 -79 -88.5 -118.5t-92.5 -49.5l-21 64q48 17 88 56.5t64 93.5q6 13 6 21q0 7 -6 22l-174 446h83l108 -293q8 -21 16 -46t15 -54h3q5 17 12.5 42t18.5 60l99 291h81z" />
    <glyph glyph-name="z" unicode="z" horiz-adv-x="395" 
d="M396 0h-380v45l225 300q8 11 23 29.5t37 44.5v2h-265v62h357v-49l-223 -298q-14 -19 -28.5 -37t-29.5 -35v-2h284v-62z" />
    <glyph glyph-name="braceleft" unicode="{" horiz-adv-x="264" 
d="M252 -112h-18q-143 0 -143 136q0 12 2.5 35t6 48t6 48t2.5 34q0 39 -19.5 57t-61.5 18v47q42 0 61.5 18t19.5 57q0 12 -2.5 35.5t-6 49.5t-6 49.5t-2.5 35.5q0 130 143 130h18v-50h-18q-81 0 -81 -88q0 -11 2 -32t5 -43.5t5.5 -43.5t3.5 -32q0 -89 -70 -108v-2
q70 -19 70 -108q-1 -11 -3.5 -32t-5.5 -44t-5 -44t-2 -32q0 -89 82 -89h17v-50z" />
    <glyph glyph-name="cid93" 
d="M689 48h-579v578h579v-578zM169 568v-462h463v462h-463zM257 521l143 -143l143 143l41 -41l-143 -143l143 -143l-41 -41l-143 143l-143 -143l-41 41l143 143l-143 143z" />
    <glyph glyph-name="braceright" unicode="}" horiz-adv-x="264" 
d="M246 264q-42 0 -61.5 -18t-19.5 -57q0 -11 2.5 -34t5.5 -48t5.5 -48t2.5 -35q0 -136 -142 -136h-18v50h17q82 0 82 89q0 11 -2 32t-5 44t-5.5 44t-3.5 32q0 89 70 108v2q-70 19 -70 108q1 11 3.5 32t5.5 44t5 43.5t2 31.5q0 88 -81 88h-18v50h18q142 0 142 -130
q0 -12 -2.5 -35.5t-5.5 -49.5t-5.5 -49.5t-2.5 -35.5q0 -39 19.5 -57t61.5 -18v-47z" />
    <glyph glyph-name="tildecmb" unicode="&#x303;" horiz-adv-x="0" 
d="M-64 659q0 -91 -64 -91q-9 0 -24 6t-31 13t-29.5 13t-19.5 6q-23 0 -27 -45h-41q0 42 16 68.5t47 26.5q7 0 22 -6t32 -13.5t32.5 -13.5t21.5 -6q23 0 26 42h39z" />
    <glyph glyph-name="quoteright" unicode="&#x2019;" 
d="M118 583h-4q-22 0 -38 14.5t-16 34.5q0 22 15.5 38t37.5 16q24 0 38.5 -22t14.5 -63q0 -34 -10.5 -62t-26 -48t-33 -31t-32.5 -11v27q0 2 3.5 4.5t7.5 4.5q7 4 16.5 10.5t17 17.5t13 27t5.5 39z" />
    <glyph glyph-name="backslash" unicode="\" horiz-adv-x="343" 
d="M342 -40h-62l-283 725h62z" />
    <glyph glyph-name="quoteleft" unicode="&#x2018;" 
d="M693 555h4q21 0 37 -14.5t16 -34.5q0 -22 -15.5 -37.5t-36.5 -15.5q-25 0 -39 21t-14 61q0 34 10.5 62.5t26 48.5t33 31.5t31.5 11.5v-27q0 -2 -3.5 -4.5t-7.5 -4.5q-7 -4 -16 -10.5t-16.5 -17.5t-13 -27t-5.5 -39z" />
    <glyph glyph-name="bar" unicode="|" horiz-adv-x="210" 
d="M144 -250h-60v1000h60v-1000z" />
    <glyph glyph-name="asciitilde" unicode="~" horiz-adv-x="596" 
d="M546 355v-12q0 -63 -30 -97.5t-81 -34.5q-47 0 -144 44t-124 44q-60 0 -61 -85h-54v8q0 66 32 101t84 35q43 0 141 -45q90 -42 128 -42q54 0 56 84h53z" />
    <glyph glyph-name="exclamdown" unicode="&#xa1;" horiz-adv-x="206" 
d="M169 431q0 -25 -15 -41t-38 -16q-24 0 -38.5 16t-14.5 41q0 29 18 44q13 13 36 13q21 0 36.5 -14.5t15.5 -42.5zM159 -195h-85l12 482h60z" />
    <glyph glyph-name="cent" unicode="&#xa2;" horiz-adv-x="479" 
d="M424 117q-44 -26 -110 -30v-101h-56v102q-91 9 -143.5 70.5t-52.5 167.5q0 48 14 89.5t40 74t62 53.5t80 28v101h56v-99q63 0 109 -25l-19 -60q-44 26 -105 26q-36 0 -65.5 -14.5t-51 -40t-33 -59t-11.5 -72.5q0 -42 11.5 -75.5t32.5 -57t50 -36.5t64 -13q58 0 113 26z
" />
    <glyph glyph-name="sterling" unicode="&#xa3;" horiz-adv-x="479" 
d="M459 0h-403v44q51 27 82 75t31 105q0 37 -6 76h-102v56h94q-12 69 -12 112t14 79t38.5 61t58.5 39t73 14q66 0 106 -25l-19 -58q-35 20 -88 20q-110 0 -110 -128q0 -50 12 -114h142v-56h-135q3 -33 3 -59q0 -58 -19 -100t-59 -75v-2h299v-64z" />
    <glyph glyph-name="fraction" unicode="&#x2044;" horiz-adv-x="411" 
d="M424 661l-378 -672h-52l379 672h51z" />
    <glyph glyph-name="florin" unicode="&#x192;" horiz-adv-x="479" 
d="M442 590q-26 10 -53 10q-91 0 -108 -146l-6 -54h121v-56h-128l-26 -211q-14 -114 -54 -165t-114 -51q-45 0 -74 17l15 55q25 -12 56 -12q81 0 99 160l24 207h-93v56h100l6 49q26 212 184 212q40 0 66 -15z" />
    <glyph glyph-name="cid106" 
d="M689 48h-579v578h579v-578zM169 568v-462h463v462h-463zM257 521l143 -143l143 143l41 -41l-143 -143l143 -143l-41 -41l-143 143l-143 -143l-41 41l143 143l-143 143z" />
    <glyph glyph-name="cid107" unicode="&#xa4;" 
d="M689 48h-579v578h579v-578zM169 568v-462h463v462h-463zM257 521l143 -143l143 143l41 -41l-143 -143l143 -143l-41 -41l-143 143l-143 -143l-41 41l143 143l-143 143z" />
    <glyph glyph-name="quotedblleft" unicode="&#x201c;" 
d="M523 555h4q22 0 38 -14.5t16 -34.5q0 -22 -15.5 -38t-37.5 -16q-24 0 -38.5 22.5t-14.5 62.5q0 34 10.5 62t26 48t33 31t32.5 11v-27q0 -2 -3.5 -4.5t-7.5 -4.5q-8 -4 -17 -10.5t-16.5 -17.5t-13 -27t-5.5 -39zM675 555h4q22 0 38 -14.5t16 -34.5q0 -22 -15.5 -38
t-37.5 -16q-24 0 -38 21.5t-14 61.5q0 34 10.5 62.5t25.5 48.5t32.5 31.5t32.5 11.5v-27q0 -2 -3.5 -4.5t-7.5 -4.5q-7 -4 -16 -10.5t-17 -17.5t-13.5 -27t-5.5 -39z" />
    <glyph glyph-name="guillemotleft" unicode="&#xab;" horiz-adv-x="388" 
d="M386 70h-65l-133 182l132 182h65l-134 -182zM228 70h-65l-133 182l133 182h64l-133 -182z" />
    <glyph glyph-name="guilsinglleft" unicode="&#x2039;" horiz-adv-x="243" 
d="M228 70h-65l-133 182l133 182h64l-133 -182z" />
    <glyph glyph-name="guilsinglright" unicode="&#x203a;" horiz-adv-x="243" 
d="M222 252l-133 -182h-64l133 182l-134 182h64z" />
    <glyph glyph-name="cid114" horiz-adv-x="600" 
 />
    <glyph glyph-name="cid115" 
d="M689 48h-579v578h579v-578zM169 568v-462h463v462h-463zM257 521l143 -143l143 143l41 -41l-143 -143l143 -143l-41 -41l-143 143l-143 -143l-41 41l143 143l-143 143z" />
    <glyph glyph-name="cid116" 
d="M689 48h-579v578h579v-578zM169 568v-462h463v462h-463zM257 521l143 -143l143 143l41 -41l-143 -143l143 -143l-41 -41l-143 143l-143 -143l-41 41l143 143l-143 143z" />
    <glyph glyph-name="periodcentered" unicode="&#xb7;" horiz-adv-x="173" 
d="M153 274q0 -29 -16.5 -43t-37.5 -14t-37 14.5t-16 42.5q0 25 15 41t39 16t38.5 -16t14.5 -41z" />
    <glyph glyph-name="cid118" 
d="M689 48h-579v578h579v-578zM169 568v-462h463v462h-463zM257 521l143 -143l143 143l41 -41l-143 -143l143 -143l-41 -41l-143 143l-143 -143l-41 41l143 143l-143 143z" />
    <glyph glyph-name="bullet" unicode="&#x2022;" horiz-adv-x="247" 
d="M235 344q0 -43 -29.5 -71.5t-72.5 -28.5q-42 0 -70.5 29t-28.5 71t29 71t71 29q21 0 39.5 -8t32 -21.5t21.5 -31.5t8 -39z" />
    <glyph glyph-name="quotesinglbase" unicode="&#x201a;" horiz-adv-x="173" 
d="M163 118q-40 -149 -89 -232l-50 -6q39 103 57 228z" />
    <glyph glyph-name="quotedblbase" unicode="&#x201e;" horiz-adv-x="292" 
d="M302 118q-38 -146 -89 -232l-49 -6q37 103 57 228zM162 118q-38 -146 -89 -232l-49 -6q39 103 57 228z" />
    <glyph glyph-name="quotedblright" unicode="&#x201d;" 
d="M116 581h-4q-21 0 -37.5 14.5t-16.5 34.5q0 22 16 38t37 16q25 0 39 -21.5t14 -62.5q0 -34 -10.5 -62t-26 -48.5t-33 -31.5t-31.5 -11v27q0 2 3.5 4.5t7.5 4.5q7 4 16 10.5t16.5 17.5t13 27t5.5 39zM272 579h-4q-21 0 -37 14.5t-16 34.5q0 22 15.5 38t36.5 16
q25 0 39 -22t14 -63q0 -34 -10.5 -62t-26 -48t-33 -31t-31.5 -11v27q0 2 3.5 4.5t7.5 4.5q7 4 16 10.5t17 17.5t13.5 27t5.5 39z" />
    <glyph glyph-name="guillemotright" unicode="&#xbb;" horiz-adv-x="388" 
d="M379 252l-133 -182h-64l133 182l-134 182h64zM222 252l-133 -182h-64l133 182l-134 182h64z" />
    <glyph glyph-name="cid124" 
d="M689 48h-579v578h579v-578zM169 568v-462h463v462h-463zM257 521l143 -143l143 143l41 -41l-143 -143l143 -143l-41 -41l-143 143l-143 -143l-41 41l143 143l-143 143z" />
    <glyph glyph-name="cid125" 
d="M689 48h-579v578h579v-578zM169 568v-462h463v462h-463zM257 521l143 -143l143 143l41 -41l-143 -143l143 -143l-41 -41l-143 143l-143 -143l-41 41l143 143l-143 143z" />
    <glyph glyph-name="questiondown" unicode="&#xbf;" horiz-adv-x="375" 
d="M290 431q0 -25 -15.5 -41.5t-38.5 -16.5q-24 0 -38.5 16t-14.5 42t15.5 41.5t38.5 15.5q20 0 36.5 -14.5t16.5 -42.5zM359 -170q-56 -39 -136 -39q-75 0 -118 40.5t-43 104.5q0 20 3.5 38t13 38t26 43.5t42.5 55.5q56 68 56 142v11l-1 26h68l3 -25q1 -5 1 -10.5v-10.5
q0 -79 -62 -156q-71 -89 -71 -143q0 -90 97 -90q60 0 100 31z" />
    <glyph glyph-name="acutecmb" unicode="&#x301;" horiz-adv-x="0" 
d="M-124 683l-121 -141h-55l87 141h89z" />
    <glyph glyph-name="circumflexcmb" unicode="&#x302;" horiz-adv-x="0" 
d="M-62 542h-61l-58 95h-2l-58 -95h-59l92 141h52z" />
    <glyph glyph-name="macron" unicode="&#xaf;" horiz-adv-x="300" 
d="M260 584h-219v50h219v-50z" />
    <glyph glyph-name="brevecmb" unicode="&#x306;" horiz-adv-x="0" 
d="M-64 678q0 -54 -32 -85.5t-86 -31.5q-55 0 -86.5 31.5t-31.5 85.5h46q10 -70 72 -70q30 0 50 20.5t22 49.5h46z" />
    <glyph glyph-name="dotaccentcmb" unicode="&#x307;" horiz-adv-x="0" 
d="M-209 605q0 -20 -13.5 -33.5t-31.5 -13.5q-19 0 -32.5 13.5t-13.5 33.5q0 19 13.5 33t33.5 14q19 0 31.5 -14t12.5 -33z" />
    <glyph glyph-name="dieresiscmb" unicode="&#x308;" horiz-adv-x="0" 
d="M-32 605q0 -20 -13 -33.5t-33 -13.5q-19 0 -32 14t-13 33t13.5 33t32.5 14q20 0 32.5 -14t12.5 -33zM-210 605q0 -20 -12.5 -33.5t-32.5 -13.5t-32.5 14t-12.5 33t13.5 33t32.5 14t31.5 -14t12.5 -33z" />
    <glyph glyph-name="ringcmb" unicode="&#x30a;" horiz-adv-x="0" 
d="M-209 629q0 -20 -7.5 -37t-20.5 -30t-30.5 -20.5t-36.5 -7.5q-20 0 -37.5 7.5t-30.5 20.5t-20.5 30t-7.5 37q0 40 28 68t68 28q19 0 36.5 -7.5t30.5 -20.5t20.5 -30.5t7.5 -37.5zM-251 629q0 23 -15.5 38.5t-37.5 15.5t-38 -15.5t-16 -38.5q0 -22 16 -37.5t38 -15.5
t37.5 15.5t15.5 37.5z" />
    <glyph glyph-name="cedilla" unicode="&#xb8;" horiz-adv-x="300" 
d="M228 -120q0 -80 -101 -80q-38 0 -66 18l14 40q26 -14 54 -14q44 0 44 32q0 35 -78 43l48 83h49l-34 -53q29 -4 49.5 -22.5t20.5 -46.5z" />
    <glyph glyph-name="hungarumlautcmb" unicode="&#x30b;" horiz-adv-x="0" 
d="M-2 683l-112 -134h-49l82 134h79zM-140 683l-112 -134h-48l81 134h79z" />
    <glyph glyph-name="ogonekcmb" unicode="&#x328;" horiz-adv-x="0" 
d="M-145 -183q-31 -16 -72 -16q-37 0 -60 20.5t-23 56.5q0 17 9 36t23 36t31.5 30.5t34.5 19.5h50q-42 -23 -68 -53.5t-26 -57.5q0 -45 43 -45q30 0 49 10z" />
    <glyph glyph-name="caroncmb" unicode="&#x30c;" horiz-adv-x="0" 
d="M-58 683l-93 -141h-54l-95 141h61l60 -95h2l60 95h59z" />
    <glyph glyph-name="cid138" horiz-adv-x="720" 
 />
    <glyph glyph-name="AE" unicode="&#xc6;" horiz-adv-x="724" 
d="M727 63v-63h-307l-30 245h-203l-111 -245h-78l305 674h398v-63h-281l26 -228h246v-63h-237l31 -257h241zM383 307l-23 200l-11 112h-4q-12 -31 -22.5 -58.5t-21.5 -50.5l-89 -203h171z" />
    <glyph glyph-name="ordfeminine" unicode="&#xaa;" horiz-adv-x="321" 
d="M241 266l-5 43h-2q-38 -48 -100 -48q-48 0 -74.5 27t-26.5 67q0 54 47.5 84t135.5 30h15v11q0 31 -21.5 48t-53.5 17q-49 0 -84 -26l-14 39q43 33 109 33q122 0 122 -139v-109q0 -44 6 -77h-54zM232 428h-16q-124 0 -124 -69q0 -25 17.5 -39.5t41.5 -14.5q13 0 27.5 5
t26.5 14t19.5 20.5t7.5 24.5v59z" />
    <glyph glyph-name="Lslash" unicode="&#x141;" horiz-adv-x="443" 
d="M440 0h-361v274l-84 -63v61l84 63v339h76v-285l134 99v-62l-134 -99v-263h285v-64z" />
    <glyph glyph-name="Oslash" unicode="&#xd8;" horiz-adv-x="654" 
d="M632 343q0 -80 -21.5 -145t-60.5 -111.5t-93.5 -72t-120.5 -25.5q-98 0 -170 57l-61 -84l-44 33l62 89q-86 95 -86 249q0 78 22.5 142.5t62 111t95 72.5t121.5 26q96 0 166 -55l58 80l47 -31l-61 -87q84 -95 84 -249zM467 573q-59 50 -131 50q-50 0 -90.5 -22t-69.5 -60
t-45 -90t-16 -113q0 -101 51 -189l2 1zM554 340q0 105 -49 184l-3 1l-298 -422q52 -52 131 -52q49 0 89 21.5t69 60t45 91.5t16 116z" />
    <glyph glyph-name="OE" unicode="&#x152;" horiz-adv-x="849" 
d="M833 0h-332q-9 0 -29.5 -1.5t-43 -4t-43 -4t-29.5 -1.5q-72 0 -131 25t-101 70t-64.5 108t-22.5 140q0 80 23 145.5t65.5 111.5t102.5 71t134 25q10 0 30.5 -1.5t43 -4t43 -4t29.5 -1.5h310v-63h-273v-227h257v-63h-257v-258h288v-63zM469 608q-47 15 -107 15
q-56 0 -101 -20.5t-77 -58t-49.5 -90.5t-17.5 -118t17.5 -118t50 -90t79.5 -57t106 -20q60 0 99 14v543z" />
    <glyph glyph-name="ordmasculine" unicode="&#xba;" horiz-adv-x="334" 
d="M327 428q0 -35 -11 -65.5t-31.5 -53t-49 -35.5t-64.5 -13q-35 0 -63.5 12.5t-48.5 34t-31.5 51t-11.5 64.5t11.5 65.5t32.5 53.5t50 36t64 13q34 0 62.5 -12t48.5 -34t31 -51.5t11 -65.5zM267 426q0 52 -25.5 85.5t-70.5 33.5q-21 0 -38.5 -9.5t-30 -26t-19 -38.5
t-6.5 -47q0 -23 7 -44t20 -37.5t30 -26.5t38 -10q43 0 69 34.5t26 85.5z" />
    <glyph glyph-name="ae" unicode="&#xe6;" horiz-adv-x="739" 
d="M720 276q0 -24 -3 -37h-320q0 -91 40.5 -139.5t115.5 -48.5q71 0 127 27l15 -55q-62 -33 -152 -33q-63 0 -111.5 29t-68.5 81h-2q-22 -52 -68.5 -81t-107.5 -29q-32 0 -59 10t-46.5 28t-30 43t-10.5 54q0 87 73.5 130.5t213.5 43.5v22q0 49 -31 82t-83 33q-71 0 -120 -36
l-19 52q66 42 145 42q122 0 152 -105h2q49 105 165 105q42 0 75.5 -17t57.5 -46.5t37 -69t13 -85.5zM645 295v10q0 27 -8.5 51.5t-24 42.5t-36.5 28.5t-46 10.5q-28 0 -51.5 -11t-41 -30.5t-28 -45.5t-12.5 -56h248zM327 246h-15q-197 0 -197 -114q0 -39 24.5 -61.5
t61.5 -22.5q27 0 50 9.5t40 26t26.5 38.5t9.5 48v76z" />
    <glyph glyph-name="dotlessi" unicode="&#x131;" horiz-adv-x="206" 
d="M155 0h-76v483h76v-483z" />
    <glyph glyph-name="lslash" unicode="&#x142;" horiz-adv-x="211" 
d="M228 420l-71 -62v-358h-76v298l-69 -60v63l69 60v348h76v-288l71 62v-63z" />
    <glyph glyph-name="oslash" unicode="&#xf8;" horiz-adv-x="520" 
d="M498 245q0 -57 -17 -104t-47.5 -81t-72.5 -52.5t-92 -18.5q-68 0 -121 35l-42 -59l-34 28l41 59q-72 70 -72 186q0 57 17 104t47.5 80.5t73 52t92.5 18.5h1q67 0 120 -35l40 58l37 -25l-41 -62q70 -70 70 -184zM424 243q0 71 -36 124l-2 1l-202 -290q34 -30 84 -30
q34 0 63 15t49.5 41t32 62t11.5 77zM358 404q-34 31 -88 31q-35 0 -63 -14.5t-48 -40.5t-31 -62t-11 -78q0 -75 37 -127l2 -1z" />
    <glyph glyph-name="oe" unicode="&#x153;" horiz-adv-x="841" 
d="M811 272q0 -26 -3 -39h-324q0 -88 44.5 -135t116.5 -47q59 0 126 26l16 -55q-59 -32 -152 -32q-136 0 -188 118h-2q-25 -57 -73.5 -87.5t-111.5 -30.5q-47 0 -87.5 18t-69.5 50.5t-45.5 78.5t-16.5 102t16.5 103t46.5 80.5t71 52.5t91 19q63 0 111 -31t69 -88h2
q53 119 175 119q43 0 78 -16.5t59.5 -46t37.5 -70.5t13 -89zM735 289q0 66 -31.5 107.5t-88.5 41.5q-28 0 -51 -11.5t-40 -31.5t-27.5 -47.5t-13.5 -58.5h252zM412 242q0 42 -10.5 78t-29.5 61.5t-46 40t-61 14.5t-61 -15t-46 -41t-29 -61.5t-10 -77.5q0 -40 11 -75
t30.5 -61.5t46.5 -41.5t59 -15q33 0 59.5 14.5t46 40.5t30 61.5t10.5 77.5z" />
    <glyph glyph-name="germandbls" unicode="&#xdf;" horiz-adv-x="508" 
d="M494 146q0 -70 -47 -113.5t-126 -43.5q-62 0 -104 21l14 60q43 -21 86 -21q45 0 73.5 24t28.5 66q0 54 -57 108q-76 72 -76 132q0 78 90 122q8 22 8 45q0 54 -29 83.5t-77 29.5q-123 0 -123 -202v-457h-76v455q0 135 54 200t154 65q37 0 68.5 -12t54 -34t35 -52.5
t12.5 -67.5q0 -47 -23 -82q-73 -30 -73 -83q0 -16 13.5 -37t31.5 -42.5t36 -42t27 -34.5q26 -44 25 -87z" />
    <glyph glyph-name="cid151" unicode="&#xad;" horiz-adv-x="600" 
d="M57 398h489v-77h-489v77z" />
    <glyph glyph-name="copyright" unicode="&#xa9;" horiz-adv-x="677" 
d="M643 340q0 -63 -23 -119t-63.5 -98.5t-95.5 -67.5t-119 -25t-119.5 24.5t-96.5 66.5t-64.5 98.5t-23.5 120.5t23.5 120t65 98t97 66t119.5 24q63 0 118 -24.5t95.5 -66.5t63.5 -98t23 -119zM596 340q0 55 -19 103.5t-53 85.5t-80.5 58.5t-101.5 21.5t-101.5 -21
t-80.5 -58t-53.5 -86.5t-19.5 -106.5q0 -55 19.5 -103.5t53.5 -85t81 -58t102 -21.5q53 0 99.5 21t80.5 57.5t53.5 86t19.5 106.5zM481 184q-46 -31 -123 -31q-41 0 -74.5 13.5t-57.5 37.5t-37.5 57.5t-13.5 72.5q0 40 15 74.5t41 59t60.5 38.5t74.5 14q78 0 110 -27
l-11 -37q-41 24 -98 24q-70 0 -106 -39.5t-36 -103.5q0 -31 9.5 -57.5t28 -45.5t45 -30t60.5 -11q61 0 102 27z" />
    <glyph glyph-name="logicalnot" unicode="&#xac;" horiz-adv-x="596" 
d="M556 123h-58v218h-458v54h516v-272z" />
    <glyph glyph-name="registered" unicode="&#xae;" horiz-adv-x="510" 
d="M478 458q0 -47 -17 -88t-47 -71.5t-70.5 -48.5t-87.5 -18t-87.5 17.5t-70.5 48.5t-47.5 72t-17.5 88t17.5 88t48 71.5t71 48t87.5 17.5q46 0 86.5 -18t70.5 -48.5t47 -71.5t17 -87zM438 458q0 39 -14 73.5t-38 61t-57.5 42t-72.5 15.5q-38 0 -71 -15.5t-57.5 -42
t-38.5 -61t-14 -73.5q0 -38 14 -73t38 -61.5t57.5 -42.5t72.5 -16t72.5 15.5t57.5 42t37.5 61.5t13.5 74zM315 327q-9 12 -18 65q-8 44 -55 44h-29v-109h-38v251q45 6 70 6q48 0 74 -16.5t26 -54.5q0 -46 -49 -61v-2q16 -3 25.5 -19t15 -36t9 -39t8.5 -29h-39zM305 509
q0 46 -63 46q-8 0 -15 -0.5t-14 -1.5v-88h30q62 0 62 44z" />
    <glyph glyph-name="degree" unicode="&#xb0;" horiz-adv-x="293" 
d="M288 558q0 -27 -10 -50.5t-27.5 -41.5t-41.5 -28.5t-51 -10.5t-50.5 10t-40.5 27t-27 40t-10 49q0 28 10 52.5t28 42.5t42 28t51 10t50.5 -9.5t40.5 -27t26.5 -41t9.5 -50.5zM239 557q0 37 -22 61.5t-58 24.5t-57 -26.5t-21 -62.5q0 -35 22 -59.5t57 -24.5t57 25.5
t22 61.5z" />
    <glyph glyph-name="plusminus" unicode="&#xb1;" horiz-adv-x="596" 
d="M556 318h-229v-204h-58v204h-229v54h229v198h58v-198h229v-54zM556 0h-516v54h516v-54z" />
    <glyph glyph-name="twosuperior" unicode="&#xb2;" horiz-adv-x="330" 
d="M309 266h-260v33l61 58q38 36 62.5 62t39 46t20 37.5t5.5 35.5q0 72 -78 72q-42 0 -82 -31l-19 41q47 41 116 41q60 0 94 -31.5t34 -79.5q0 -23 -5 -42t-19 -41t-40.5 -50t-69.5 -69l-32 -30v-2h173v-50z" />
    <glyph glyph-name="threesuperior" unicode="&#xb3;" horiz-adv-x="316" 
d="M300 378q0 -51 -42 -84t-111 -33t-109 27l17 45q38 -26 91 -26q40 0 64.5 20.5t24.5 51.5q0 35 -28.5 54.5t-79.5 19.5h-25v42h26q38 0 65 19t27 50q0 50 -64 50q-45 0 -82 -27l-17 43q46 31 109 31q55 0 86.5 -25.5t31.5 -67.5q0 -64 -75 -91v-2q40 -6 65.5 -32.5
t25.5 -64.5z" />
    <glyph glyph-name="mu" unicode="&#xb5;" horiz-adv-x="535" 
d="M397 0v80h-7q-48 -90 -146 -90q-71 0 -102 57h-3v-245h-68v681h76v-278q0 -152 113 -152q23 0 45.5 10.5t40 27.5t28.5 38.5t11 44.5v309h76v-355q0 -32 1 -64t3 -64h-68z" />
    <glyph glyph-name="onesuperior" unicode="&#xb9;" horiz-adv-x="288" 
d="M210 266h-61v334l-73 -35l-11 47l91 44h54v-390z" />
    <glyph glyph-name="onequarter" unicode="&#xbc;" horiz-adv-x="706" 
d="M706 105h-61v-105h-59v105h-197v35l194 255h62v-245h61v-45zM563 661l-378 -672h-51l378 672h51zM191 266h-61v334l-73 -35l-10 47l90 44h54v-390zM587 336q-5 -10 -13.5 -24t-19.5 -31l-100 -130h132v123q0 29 3 62h-2z" />
    <glyph glyph-name="onehalf" unicode="&#xbd;" horiz-adv-x="706" 
d="M689 0h-260v33l62 59q37 35 61.5 60.5t38.5 46t20 37.5t6 36q0 72 -77 72q-43 0 -83 -31l-19 41q47 41 117 41q60 0 94 -31.5t34 -79.5q0 -23 -5 -42t-19 -41t-40.5 -50t-69.5 -69l-32 -30v-2h172v-50zM543 661l-378 -672h-51l378 672h51zM175 266h-61v334l-73 -35
l-10 47l90 44h54v-390z" />
    <glyph glyph-name="threequarters" unicode="&#xbe;" horiz-adv-x="706" 
d="M714 105h-60v-105h-59v105h-198v35l194 255h63v-245h60v-45zM598 661l-378 -672h-52l378 672h52zM293 378q0 -26 -11 -47t-31 -37t-48 -24.5t-62 -8.5q-70 0 -110 27l17 45q38 -26 91 -26q40 0 64.5 20t24.5 52q0 35 -28.5 54.5t-79.5 19.5h-25v42h26q36 0 64.5 18.5
t28.5 48.5q0 52 -65 52q-43 0 -82 -27l-17 42q47 32 109 32q55 0 86.5 -25t31.5 -68q0 -64 -75 -91v-2q40 -6 65.5 -32.5t25.5 -64.5zM596 336q-5 -10 -13.5 -24t-19.5 -31l-101 -130h133v123q0 29 3 62h-2z" />
    <glyph glyph-name="Agrave" unicode="&#xc0;" horiz-adv-x="574" 
d="M347 710h-62l-129 116h96zM574 0h-80l-74 218h-240l-72 -218h-78l228 674h88zM197 278h207l-68 201q-7 19 -15.5 50t-19.5 74h-2q-10 -40 -18 -70.5t-16 -52.5z" />
    <glyph glyph-name="Aacute" unicode="&#xc1;" horiz-adv-x="574" 
d="M450 826l-129 -116h-62l95 116h96zM574 0h-80l-74 218h-240l-72 -218h-78l228 674h88zM197 278h207l-68 201q-7 19 -15.5 50t-19.5 74h-2q-10 -40 -18 -70.5t-16 -52.5z" />
    <glyph glyph-name="Acircumflex" unicode="&#xc2;" horiz-adv-x="574" 
d="M437 710h-66l-64 75h-2l-64 -75h-64l101 116h56zM574 0h-80l-74 218h-240l-72 -218h-78l228 674h88zM197 278h207l-68 201q-7 19 -15.5 50t-19.5 74h-2q-10 -40 -18 -70.5t-16 -52.5z" />
    <glyph glyph-name="Atilde" unicode="&#xc3;" horiz-adv-x="574" 
d="M422 812q0 -91 -65 -91q-11 0 -27 6t-32.5 13t-30 13t-18.5 6q-23 0 -27 -43h-41q0 42 16.5 67.5t47.5 25.5q11 0 26.5 -6t31 -13t29 -13t21.5 -6q25 0 28 41h41zM574 0h-80l-74 218h-240l-72 -218h-78l228 674h88zM197 278h207l-68 201q-7 19 -15.5 50t-19.5 74h-2
q-10 -40 -18 -70.5t-16 -52.5z" />
    <glyph glyph-name="Adieresis" unicode="&#xc4;" horiz-adv-x="574" 
d="M438 770q0 -20 -12.5 -34t-32.5 -14h-1q-19 0 -31.5 14t-12.5 34q0 19 13 33t33 14q19 0 31.5 -13.5t12.5 -33.5zM260 770q0 -20 -12.5 -34t-32.5 -14h-1q-19 0 -31.5 14t-12.5 34q0 19 13 33t33 14q19 0 31.5 -13.5t12.5 -33.5zM574 0h-80l-74 218h-240l-72 -218h-78
l228 674h88zM335 479q-7 19 -15 50t-19 74h-2q-10 -40 -18 -70.5t-16 -52.5l-68 -202h207z" />
    <glyph glyph-name="Aring" unicode="&#xc5;" horiz-adv-x="574" 
d="M574 0h-81l-73 218h-240l-72 -218h-78l223 658q-45 28 -45 80q0 40 28 68t68 28t68 -28t28 -68q0 -54 -48 -82zM358 738q0 23 -16 38.5t-38 15.5t-38 -15.5t-16 -38.5q0 -22 16 -37.5t38 -15.5t38 15.5t16 37.5zM403 278l-70 205q-7 18 -33 119h-3q-5 -29 -12.5 -56
t-15.5 -52l-74 -216h208z" />
    <glyph glyph-name="Ccedilla" unicode="&#xc7;" horiz-adv-x="566" 
d="M533 21q-62 -30 -175 -31l-26 -41q29 -4 49 -23.5t20 -47.5q0 -39 -28.5 -58t-70.5 -19q-40 0 -68 16l14 41q26 -14 54 -14q43 0 43 32q0 35 -77 43l42 74q-63 8 -113.5 35t-86 71t-54.5 102.5t-19 129.5q0 79 24.5 144t69.5 111.5t108 72t140 25.5q98 0 154 -29l-20 -62
q-57 27 -132 27q-62 0 -110.5 -20t-83 -57t-52.5 -90.5t-18 -119.5q0 -65 17.5 -116.5t51 -87.5t81.5 -55t109 -19q83 0 140 27z" />
    <glyph glyph-name="Egrave" unicode="&#xc8;" horiz-adv-x="456" 
d="M314 710h-62l-129 116h96zM444 0h-364v674h349v-63h-273v-227h258v-63h-258v-258h288v-63z" />
    <glyph glyph-name="Eacute" unicode="&#xc9;" horiz-adv-x="456" 
d="M400 826l-129 -116h-62l95 116h96zM444 0h-364v674h349v-63h-273v-227h258v-63h-258v-258h288v-63z" />
    <glyph glyph-name="Ecircumflex" unicode="&#xca;" horiz-adv-x="456" 
d="M384 710h-66l-64 75h-2l-64 -75h-63l100 116h56zM444 0h-364v674h349v-63h-273v-227h258v-63h-258v-258h288v-63z" />
    <glyph glyph-name="Edieresis" unicode="&#xcb;" horiz-adv-x="456" 
d="M392 770q0 -24 -14.5 -36t-31.5 -12q-19 0 -31.5 14t-12.5 34q0 19 13 33t33 14q19 0 31.5 -13.5t12.5 -33.5zM214 770q0 -20 -13 -34t-33 -14q-16 0 -30 12t-14 36q0 19 13 33t32 14q20 0 32.5 -13.5t12.5 -33.5zM444 0h-364v674h349v-63h-273v-227h258v-63h-258v-258
h288v-63z" />
    <glyph glyph-name="Igrave" unicode="&#xcc;" horiz-adv-x="208" 
d="M163 710h-61l-130 116h96zM153 0h-76v674h76v-674z" />
    <glyph glyph-name="Iacute" unicode="&#xcd;" horiz-adv-x="208" 
d="M257 826l-129 -116h-62l95 116h96zM151 0h-76v674h76v-674z" />
    <glyph glyph-name="Icircumflex" unicode="&#xce;" horiz-adv-x="208" 
d="M243 710h-66l-64 75h-2l-64 -75h-63l100 116h56zM151 0h-76v674h76v-674z" />
    <glyph glyph-name="Idieresis" unicode="&#xcf;" horiz-adv-x="208" 
d="M248 770q0 -24 -14.5 -36t-30.5 -12q-18 0 -31.5 13.5t-13.5 34.5q0 19 13 33t33 14q19 0 31.5 -13.5t12.5 -33.5zM70 770q0 -24 -14.5 -36t-31.5 -12q-16 0 -30 12t-14 36q0 19 13 33t32 14q20 0 32.5 -13.5t12.5 -33.5zM152 0h-76v674h76v-674z" />
    <glyph glyph-name="Eth" unicode="&#xd0;" horiz-adv-x="636" 
d="M612 353q0 -83 -23 -149.5t-70 -113t-119 -72t-170 -25.5q-45 0 -82.5 1.5t-68.5 5.5v312h-83v61h83v294q43 7 86.5 10.5t89.5 3.5q180 0 268.5 -87t88.5 -241zM533 352q0 133 -70 200.5t-205 67.5q-58 0 -103 -9v-238h183v-61h-183v-253q23 -4 89 -4q143 0 216 75.5
t73 221.5z" />
    <glyph glyph-name="Ntilde" unicode="&#xd1;" horiz-adv-x="624" 
d="M455 812q0 -91 -65 -91q-11 0 -27 6t-32.5 13t-30 13t-18.5 6q-23 0 -27 -43h-41q0 42 16.5 67.5t47.5 25.5q11 0 26.5 -6t31 -13t29 -13t21.5 -6q25 0 28 41h41zM567 0h-75l-220 354q-82 133 -124 224l-3 -1q4 -52 5.5 -121t1.5 -157v-299h-72v674h81l222 -354
q72 -116 120 -219l2 1q-9 109 -9 278v294h71v-674z" />
    <glyph glyph-name="Ograve" unicode="&#xd2;" horiz-adv-x="654" 
d="M379 710h-61l-129 116h95zM632 344q0 -78 -21 -143.5t-60.5 -112.5t-95.5 -73t-125 -26q-66 0 -120 25.5t-92.5 71t-59.5 108t-21 137.5q0 77 21.5 142t61.5 112t95.5 73.5t123.5 26.5q67 0 121 -25.5t92 -71t59 -108t21 -136.5zM551 340q0 59 -15.5 110.5t-44 90
t-68 60.5t-88.5 22q-50 0 -90.5 -22t-69 -60.5t-44 -91.5t-15.5 -116q0 -59 16 -110t44.5 -89.5t69 -60.5t88.5 -22q49 0 89 22t68.5 60.5t44 91.5t15.5 115z" />
    <glyph glyph-name="Oacute" unicode="&#xd3;" horiz-adv-x="654" 
d="M488 826l-129 -116h-62l95 116h96zM632 344q0 -78 -21 -143.5t-60.5 -112.5t-95.5 -73t-125 -26q-66 0 -120 25.5t-92.5 71t-59.5 108t-21 137.5q0 77 21.5 142t61.5 112t95.5 73.5t123.5 26.5q67 0 121 -25.5t92 -71t59 -108t21 -136.5zM551 340q0 59 -15.5 110.5
t-44 90t-68 60.5t-88.5 22q-50 0 -90.5 -22t-69 -60.5t-44 -91.5t-15.5 -116q0 -59 16 -110t44.5 -89.5t69 -60.5t88.5 -22q49 0 89 22t68.5 60.5t44 91.5t15.5 115z" />
    <glyph glyph-name="Ocircumflex" unicode="&#xd4;" horiz-adv-x="654" 
d="M465 710h-66l-64 75h-2l-64 -75h-63l100 116h56zM632 344q0 -78 -21 -143.5t-60.5 -112.5t-95.5 -73t-125 -26q-66 0 -120 25.5t-92.5 71t-59.5 108t-21 137.5q0 77 21.5 142t61.5 112t95.5 73.5t123.5 26.5q67 0 121 -25.5t92 -71t59 -108t21 -136.5zM551 340
q0 59 -15.5 110.5t-44 90t-68 60.5t-88.5 22q-50 0 -90.5 -22t-69 -60.5t-44 -91.5t-15.5 -116q0 -59 16 -110t44.5 -89.5t69 -60.5t88.5 -22q49 0 89 22t68.5 60.5t44 91.5t15.5 115z" />
    <glyph glyph-name="Otilde" unicode="&#xd5;" horiz-adv-x="654" 
d="M456 812q0 -46 -15.5 -68.5t-50.5 -22.5q-11 0 -27 6t-32 13t-29.5 13t-19.5 6q-22 0 -26 -43h-42q0 42 16.5 67.5t47.5 25.5q11 0 26.5 -6t31 -13t29 -13t21.5 -6q26 0 29 41h41zM632 344q0 -78 -21 -143.5t-60.5 -112.5t-95.5 -73t-125 -26q-66 0 -120 25.5t-92.5 71
t-59.5 108t-21 137.5q0 77 21.5 142t61.5 112t95.5 73.5t123.5 26.5q67 0 121 -25.5t92 -71t59 -108t21 -136.5zM551 340q0 59 -15.5 110.5t-44 90t-68 60.5t-88.5 22q-50 0 -90.5 -22t-69 -60.5t-44 -91.5t-15.5 -116q0 -59 16 -110t44.5 -89.5t69 -60.5t88.5 -22
q49 0 89 22t68.5 60.5t44 91.5t15.5 115z" />
    <glyph glyph-name="Odieresis" unicode="&#xd6;" horiz-adv-x="654" 
d="M469 770q0 -24 -14.5 -36t-30.5 -12q-18 0 -31.5 13.5t-13.5 34.5q0 19 13 33t33 14q19 0 31.5 -13.5t12.5 -33.5zM291 770q0 -24 -14.5 -36t-31.5 -12q-16 0 -30 12t-14 36q0 19 13 33t32 14q20 0 32.5 -13.5t12.5 -33.5zM632 344q0 -78 -21 -143.5t-60.5 -112.5
t-95.5 -73t-125 -26q-66 0 -120 25.5t-92.5 71t-59.5 108t-21 137.5q0 77 21.5 142t61.5 112t95.5 73.5t123.5 26.5q67 0 121 -25.5t92 -71t59 -108t21 -136.5zM551 340q0 59 -15.5 110.5t-44 90t-68 60.5t-88.5 22q-50 0 -90.5 -22t-69 -60.5t-44 -91.5t-15.5 -116
q0 -59 16 -110t44.5 -89.5t69 -60.5t88.5 -22q49 0 89 22t68.5 60.5t44 91.5t15.5 115z" />
    <glyph glyph-name="multiply" unicode="&#xd7;" horiz-adv-x="596" 
d="M556 486l-219 -223l219 -223l-40 -40l-218 223l-218 -223l-40 40l218 223l-218 223l40 40l218 -223l218 223z" />
    <glyph glyph-name="Ugrave" unicode="&#xd9;" horiz-adv-x="613" 
d="M372 710h-61l-129 116h95zM557 275q0 -139 -63.5 -212.5t-181.5 -73.5q-115 0 -173.5 71.5t-58.5 209.5v404h76v-405q0 -105 40.5 -161t118.5 -56q166 0 166 217v405h76v-399z" />
    <glyph glyph-name="Uacute" unicode="&#xda;" horiz-adv-x="613" 
d="M467 826l-129 -116h-62l95 116h96zM557 275q0 -139 -63.5 -212.5t-181.5 -73.5q-115 0 -173.5 71.5t-58.5 209.5v404h76v-405q0 -105 40.5 -161t118.5 -56q166 0 166 217v405h76v-399z" />
    <glyph glyph-name="Ucircumflex" unicode="&#xdb;" horiz-adv-x="613" 
d="M454 710h-66l-64 75h-2l-64 -75h-63l100 116h56zM557 275q0 -139 -63.5 -212.5t-181.5 -73.5q-115 0 -173.5 71.5t-58.5 209.5v404h76v-405q0 -105 40.5 -161t118.5 -56q166 0 166 217v405h76v-399z" />
    <glyph glyph-name="Udieresis" unicode="&#xdc;" horiz-adv-x="613" 
d="M454 770q0 -24 -14.5 -36t-30.5 -12q-18 0 -31.5 13.5t-13.5 34.5q0 19 13.5 33t32.5 14t31.5 -13.5t12.5 -33.5zM276 770q0 -24 -14.5 -36t-31.5 -12q-19 0 -31.5 14t-12.5 34q0 19 13 33t33 14q19 0 31.5 -13.5t12.5 -33.5zM557 275q0 -139 -63.5 -212.5t-181.5 -73.5
q-115 0 -173.5 71.5t-58.5 209.5v404h76v-405q0 -105 40.5 -161t118.5 -56q166 0 166 217v405h76v-399z" />
    <glyph glyph-name="Yacute" unicode="&#xdd;" horiz-adv-x="495" 
d="M422 826l-129 -116h-62l95 116h96zM523 674l-221 -386v-288h-76v287l-210 387h87l96 -189q43 -86 69 -141h2q11 26 28.5 61.5t40.5 80.5l99 188h85z" />
    <glyph glyph-name="Thorn" unicode="&#xde;" horiz-adv-x="492" 
d="M477 365q0 -50 -18 -89t-50 -65.5t-78 -40.5t-101 -14q-22 0 -40.5 1.5t-34.5 3.5v-161h-75v674h75v-134q22 4 45.5 6t49.5 2q109 0 168 -49t59 -134zM401 357q0 130 -156 130q-53 0 -90 -8v-255q27 -7 75 -7q82 0 126.5 37t44.5 103z" />
    <glyph glyph-name="agrave" unicode="&#xe0;" horiz-adv-x="446" 
d="M269 542h-55l-120 141h88zM337 0l-7 62h-3q-49 -73 -146 -73q-31 0 -57 10t-45 28.5t-30 43.5t-11 55q0 88 72.5 133.5t212.5 45.5v11q0 119 -111 119q-69 0 -122 -35l-18 52q65 41 151 41q176 0 176 -193v-185q0 -35 1.5 -63.5t5.5 -51.5h-69zM324 250h-15
q-194 0 -194 -114q0 -45 24 -67t60 -22q23 0 45.5 8t40 22.5t28.5 35.5t11 47v90z" />
    <glyph glyph-name="aacute" unicode="&#xe1;" horiz-adv-x="446" 
d="M362 683l-121 -141h-55l88 141h88zM337 0l-7 62h-3q-49 -73 -146 -73q-31 0 -57 10t-45 28.5t-30 43.5t-11 55q0 88 72.5 133.5t212.5 45.5v11q0 119 -111 119q-69 0 -122 -35l-18 52q65 41 151 41q176 0 176 -193v-185q0 -35 1.5 -63.5t5.5 -51.5h-69zM324 250h-15
q-194 0 -194 -114q0 -45 24 -67t60 -22q23 0 45.5 8t40 22.5t28.5 35.5t11 47v90z" />
    <glyph glyph-name="acircumflex" unicode="&#xe2;" horiz-adv-x="446" 
d="M350 542h-61l-58 95h-2l-59 -95h-58l92 141h52zM337 0l-7 62h-3q-49 -73 -146 -73q-31 0 -57 10t-45 28.5t-30 43.5t-11 55q0 88 72.5 133.5t212.5 45.5v11q0 119 -111 119q-69 0 -122 -35l-18 52q65 41 151 41q176 0 176 -193v-185q0 -35 1.5 -63.5t5.5 -51.5h-69z
M324 250h-15q-194 0 -194 -114q0 -45 24 -67t60 -22q23 0 45.5 8t40 22.5t28.5 35.5t11 47v90z" />
    <glyph glyph-name="atilde" unicode="&#xe3;" horiz-adv-x="446" 
d="M352 659q0 -91 -65 -91q-9 0 -24 6t-31 13t-29.5 13t-19.5 6q-23 0 -27 -45h-41q0 42 16 68.5t47 26.5q7 0 22 -6t32 -13.5t32.5 -13.5t21.5 -6q23 0 26 42h40zM337 0l-7 62h-3q-49 -73 -146 -73q-31 0 -57 10t-45 28.5t-30 43.5t-11 55q0 88 72.5 133.5t212.5 45.5v11
q0 119 -111 119q-69 0 -122 -35l-18 52q65 41 151 41q176 0 176 -193v-185q0 -35 1.5 -63.5t5.5 -51.5h-69zM324 250h-15q-194 0 -194 -114q0 -45 24 -67t60 -22q23 0 45.5 8t40 22.5t28.5 35.5t11 47v90z" />
    <glyph glyph-name="adieresis" unicode="&#xe4;" horiz-adv-x="446" 
d="M369 605q0 -20 -13 -33.5t-33 -13.5q-19 0 -31.5 14t-12.5 33t13 33t33 14q19 0 31.5 -14t12.5 -33zM192 605q0 -20 -13 -33.5t-33 -13.5q-19 0 -32 14t-13 33t13.5 33t32.5 14q20 0 32.5 -14t12.5 -33zM337 0l-7 62h-3q-49 -73 -146 -73q-31 0 -57 10t-45 28.5t-30 43.5
t-11 55q0 88 72.5 133.5t212.5 45.5v11q0 119 -111 119q-69 0 -122 -35l-18 52q65 41 151 41q176 0 176 -193v-185q0 -35 1.5 -63.5t5.5 -51.5h-69zM324 250h-15q-194 0 -194 -114q0 -45 24 -67t60 -22q23 0 45.5 8t40 22.5t28.5 35.5t11 47v90z" />
    <glyph glyph-name="aring" unicode="&#xe5;" horiz-adv-x="446" 
d="M329 629q0 -20 -7.5 -37t-20.5 -30t-30.5 -20.5t-37.5 -7.5t-37 7.5t-30 20.5t-20.5 30t-7.5 37t7.5 37.5t20.5 30.5t30 20.5t37 7.5q40 0 68 -28t28 -68zM337 0l-7 62h-3q-50 -72 -146 -72q-32 0 -58 10t-45 28t-29.5 43t-10.5 55q0 88 72.5 133.5t212.5 45.5v11
q0 119 -111 119q-69 0 -122 -35l-18 52q65 41 151 41q176 0 176 -193v-185q0 -37 1.5 -65.5t5.5 -49.5h-69zM287 629q0 23 -15.5 38.5t-38.5 15.5q-22 0 -37.5 -15.5t-15.5 -38.5q0 -22 15.5 -37.5t37.5 -15.5q23 0 38.5 15.5t15.5 37.5zM324 250h-15q-194 0 -194 -114
q0 -43 23.5 -66t60.5 -23q24 0 46.5 8.5t40 23.5t28 35.5t10.5 45.5v90z" />
    <glyph glyph-name="ccedilla" unicode="&#xe7;" horiz-adv-x="435" 
d="M394 407q-44 24 -102 24q-41 0 -73 -14.5t-54 -40t-34 -60.5t-12 -76q0 -42 12.5 -77t35 -59.5t53.5 -38t69 -13.5q55 0 108 24l15 -58q-56 -27 -128 -28l-26 -41q29 -4 49 -22.5t20 -46.5q0 -80 -101 -80q-38 0 -65 18l14 40q23 -14 53 -14q44 0 44 32q0 35 -77 43
l42 74q-44 5 -80.5 25t-62 52t-39.5 74.5t-14 92.5q0 56 18.5 103t51.5 81t79.5 53t102.5 19q73 0 120 -26z" />
    <glyph glyph-name="egrave" unicode="&#xe8;" horiz-adv-x="474" 
d="M311 542h-55l-121 141h88zM453 271q0 -24 -3 -39h-335q2 -87 45.5 -134t121.5 -47q76 0 130 25l14 -55q-63 -30 -155 -30q-54 0 -96.5 17.5t-72.5 50t-45.5 77t-15.5 98.5q0 57 16 104.5t44.5 82t69 54t90.5 19.5q45 0 80.5 -16.5t60.5 -46t38 -70.5t13 -90zM378 288
q0 69 -32 109.5t-92 40.5q-57 0 -93.5 -42t-43.5 -108h261z" />
    <glyph glyph-name="eacute" unicode="&#xe9;" horiz-adv-x="474" 
d="M392 683l-121 -141h-54l87 141h88zM453 271q0 -24 -3 -39h-335q2 -87 45.5 -134t121.5 -47q76 0 130 25l14 -55q-63 -30 -155 -30q-54 0 -96.5 17.5t-72.5 50t-45.5 77t-15.5 98.5q0 57 16 104.5t44.5 82t69 54t90.5 19.5q45 0 80.5 -16.5t60.5 -46t38 -70.5t13 -90z
M378 288q0 69 -32 109.5t-92 40.5q-57 0 -93.5 -42t-43.5 -108h261z" />
    <glyph glyph-name="ecircumflex" unicode="&#xea;" horiz-adv-x="474" 
d="M378 542h-60l-58 95h-2l-59 -95h-58l92 141h51zM453 271q0 -24 -3 -39h-335q2 -87 45.5 -134t121.5 -47q76 0 130 25l14 -55q-63 -30 -155 -30q-54 0 -96.5 17.5t-72.5 50t-45.5 77t-15.5 98.5q0 57 16 104.5t44.5 82t69 54t90.5 19.5q45 0 80.5 -16.5t60.5 -46t38 -70.5
t13 -90zM378 288q0 69 -32 109.5t-92 40.5q-57 0 -93.5 -42t-43.5 -108h261z" />
    <glyph glyph-name="edieresis" unicode="&#xeb;" horiz-adv-x="474" 
d="M399 605q0 -20 -13 -33.5t-33 -13.5t-32.5 14t-12.5 33t13.5 33t32.5 14t32 -14t13 -33zM221 605q0 -20 -13 -33.5t-33 -13.5q-19 0 -32 14t-13 33t14 33t33 14t31.5 -14t12.5 -33zM453 271q0 -24 -3 -39h-335q2 -87 45.5 -134t121.5 -47q76 0 130 25l14 -55
q-63 -30 -155 -30q-54 0 -96.5 17.5t-72.5 50t-45.5 77t-15.5 98.5q0 57 16 104.5t44.5 82t69 54t90.5 19.5q45 0 80.5 -16.5t60.5 -46t38 -70.5t13 -90zM378 288q0 69 -32 109.5t-92 40.5q-57 0 -93.5 -42t-43.5 -108h261z" />
    <glyph glyph-name="igrave" unicode="&#xec;" horiz-adv-x="206" 
d="M150 542h-55l-121 141h88zM151 0h-76v483h76v-483z" />
    <glyph glyph-name="iacute" unicode="&#xed;" horiz-adv-x="206" 
d="M245 683l-121 -141h-54l87 141h88zM148 0h-76v483h76v-483z" />
    <glyph glyph-name="icircumflex" unicode="&#xee;" horiz-adv-x="206" 
d="M231 542h-60l-59 95h-2l-58 -95h-58l92 141h51zM150 0h-76v483h76v-483z" />
    <glyph glyph-name="idieresis" unicode="&#xef;" horiz-adv-x="206" 
d="M248 605q0 -20 -13 -33.5t-33 -13.5q-19 0 -31.5 14t-12.5 33t13 33t33 14q19 0 31.5 -14t12.5 -33zM71 605q0 -20 -13 -33.5t-33 -13.5q-19 0 -32 14t-13 33t13.5 33t33.5 14q19 0 31.5 -14t12.5 -33zM152 0h-76v483h76v-483z" />
    <glyph glyph-name="eth" unicode="&#xf0;" horiz-adv-x="510" 
d="M488 251q0 -60 -16.5 -108t-46.5 -82.5t-71.5 -53t-91.5 -18.5q-48 0 -88.5 17.5t-69.5 50t-45.5 78t-16.5 101.5q0 54 17 100t46.5 79.5t69.5 52t87 18.5q65 0 112 -45l2 3q-43 75 -118 133l-139 -65l-18 40l116 56q-20 14 -46 29.5t-58 32.5l34 49q38 -19 71.5 -39
t62.5 -42l124 60l20 -40l-105 -51q82 -69 125 -156.5t43 -199.5zM409 242q0 52 -10.5 88t-29.5 58.5t-45.5 33t-58.5 10.5q-33 0 -60 -15t-46 -41.5t-29.5 -62t-10.5 -76.5q0 -38 10.5 -72t29.5 -60t45 -41.5t58 -15.5q33 0 60 14.5t46.5 40.5t30 61.5t10.5 77.5z" />
    <glyph glyph-name="ntilde" unicode="&#xf1;" horiz-adv-x="525" 
d="M394 659q0 -91 -64 -91q-9 0 -24.5 6t-31.5 13t-29.5 13t-19.5 6q-23 0 -26 -45h-41q0 42 16 68.5t46 26.5q7 0 22.5 -6t32.5 -13.5t32 -13.5t22 -6q23 0 25 42h40zM474 0h-77v282q0 148 -114 148q-26 0 -49.5 -10.5t-41 -29t-27.5 -43.5t-10 -53v-294h-76v357
q0 29 -1 60.5t-3 65.5h68v-80h7q20 40 62 65t96 25q76 0 121 -54t45 -148v-291z" />
    <glyph glyph-name="ograve" unicode="&#xf2;" horiz-adv-x="520" 
d="M318 542h-54l-121 141h88zM498 246q0 -57 -17 -104t-48 -81t-73.5 -53t-94.5 -19q-50 0 -91 18.5t-70.5 52t-46 79t-16.5 99.5q0 56 17 103t47.5 80.5t73.5 52.5t94 19t92.5 -18.5t71 -51t45.5 -78t16 -99.5zM419 243q0 40 -10.5 75.5t-30 61t-47 40.5t-61.5 15
q-35 0 -63 -15t-48 -41t-30.5 -61.5t-10.5 -77.5q0 -39 11 -74t30.5 -61t47.5 -41.5t61 -15.5t60.5 15t47.5 41.5t31.5 62t11.5 76.5z" />
    <glyph glyph-name="oacute" unicode="&#xf3;" horiz-adv-x="520" 
d="M397 683l-121 -141h-54l87 141h88zM498 246q0 -57 -17 -104t-48 -81t-73.5 -53t-94.5 -19q-50 0 -91 18.5t-70.5 52t-46 79t-16.5 99.5q0 56 17 103t47.5 80.5t73.5 52.5t94 19t92.5 -18.5t71 -51t45.5 -78t16 -99.5zM419 243q0 40 -10.5 75.5t-30 61t-47 40.5t-61.5 15
q-35 0 -63 -15t-48 -41t-30.5 -61.5t-10.5 -77.5q0 -39 11 -74t30.5 -61t47.5 -41.5t61 -15.5t60.5 15t47.5 41.5t31.5 62t11.5 76.5z" />
    <glyph glyph-name="ocircumflex" unicode="&#xf4;" horiz-adv-x="520" 
d="M388 542h-60l-58 95h-2l-59 -95h-58l92 141h51zM498 246q0 -57 -17 -104t-48 -81t-73.5 -53t-94.5 -19q-50 0 -91 18.5t-70.5 52t-46 79t-16.5 99.5q0 56 17 103t47.5 80.5t73.5 52.5t94 19t92.5 -18.5t71 -51t45.5 -78t16 -99.5zM419 243q0 40 -10.5 75.5t-30 61
t-47 40.5t-61.5 15q-35 0 -63 -15t-48 -41t-30.5 -61.5t-10.5 -77.5q0 -39 11 -74t30.5 -61t47.5 -41.5t61 -15.5t60.5 15t47.5 41.5t31.5 62t11.5 76.5z" />
    <glyph glyph-name="otilde" unicode="&#xf5;" horiz-adv-x="520" 
d="M388 659q0 -91 -64 -91q-9 0 -24.5 6t-31.5 13t-29.5 13t-19.5 6q-23 0 -26 -45h-41q0 42 16 68.5t46 26.5q7 0 23 -6t32.5 -13.5t31.5 -13.5t21 -6q24 0 26 42h40zM498 246q0 -57 -17 -104t-48 -81t-73.5 -53t-94.5 -19q-50 0 -91 18.5t-70.5 52t-46 79t-16.5 99.5
q0 56 17 103t47.5 80.5t73.5 52.5t94 19t92.5 -18.5t71 -51t45.5 -78t16 -99.5zM419 243q0 40 -10.5 75.5t-30 61t-47 40.5t-61.5 15q-35 0 -63 -15t-48 -41t-30.5 -61.5t-10.5 -77.5q0 -39 11 -74t30.5 -61t47.5 -41.5t61 -15.5t60.5 15t47.5 41.5t31.5 62t11.5 76.5z" />
    <glyph glyph-name="odieresis" unicode="&#xf6;" horiz-adv-x="520" 
d="M404 605q0 -20 -13 -33.5t-33 -13.5t-32.5 14t-12.5 33t13.5 33t32.5 14t32 -14t13 -33zM226 605q0 -20 -13 -33.5t-33 -13.5q-19 0 -32 14t-13 33t14 33t33 14t31.5 -14t12.5 -33zM498 246q0 -57 -17 -104t-48 -81t-73.5 -53t-94.5 -19q-50 0 -91 18.5t-70.5 52t-46 79
t-16.5 99.5q0 56 17 103t47.5 80.5t73.5 52.5t94 19t92.5 -18.5t71 -51t45.5 -78t16 -99.5zM419 243q0 40 -10.5 75.5t-30 61t-47 40.5t-61.5 15q-35 0 -63 -15t-48 -41t-30.5 -61.5t-10.5 -77.5q0 -39 11 -74t30.5 -61t47.5 -41.5t61 -15.5t60.5 15t47.5 41.5t31.5 62
t11.5 76.5z" />
    <glyph glyph-name="divide" unicode="&#xf7;" horiz-adv-x="596" 
d="M348 442q0 -52 -50 -52q-20 0 -34.5 14.5t-14.5 37.5t14 37.5t36 14.5q49 0 49 -52zM555 240h-516v54h516v-54zM347 91q0 -51 -50 -51q-22 0 -35.5 14.5t-13.5 36.5q0 23 14 38t36 15q49 0 49 -53z" />
    <glyph glyph-name="ugrave" unicode="&#xf9;" horiz-adv-x="519" 
d="M324 542h-55l-121 141h88zM401 0v79h-7q-50 -90 -157 -90q-78 0 -120 53.5t-42 156.5v284h76v-270q0 -160 110 -160q25 0 48.5 10t41 28t28 42t10.5 51v299h76v-355q0 -32 1 -64t3 -64h-68z" />
    <glyph glyph-name="uacute" unicode="&#xfa;" horiz-adv-x="519" 
d="M409 683l-121 -141h-55l88 141h88zM401 0v79h-7q-50 -90 -157 -90q-78 0 -120 53.5t-42 156.5v284h76v-270q0 -160 110 -160q25 0 48.5 10t41 28t28 42t10.5 51v299h76v-355q0 -32 1 -64t3 -64h-68z" />
    <glyph glyph-name="ucircumflex" unicode="&#xfb;" horiz-adv-x="519" 
d="M390 542h-60l-59 95h-2l-58 -95h-58l92 141h51zM401 0v79h-7q-50 -90 -157 -90q-78 0 -120 53.5t-42 156.5v284h76v-270q0 -160 110 -160q25 0 48.5 10t41 28t28 42t10.5 51v299h76v-355q0 -32 1 -64t3 -64h-68z" />
    <glyph glyph-name="udieresis" unicode="&#xfc;" horiz-adv-x="519" 
d="M408 605q0 -20 -13 -33.5t-33 -13.5q-19 0 -31.5 14t-12.5 33t13 33t33 14q19 0 31.5 -14t12.5 -33zM231 605q0 -20 -13 -33.5t-33 -13.5q-19 0 -32 14t-13 33t13.5 33t32.5 14q20 0 32.5 -14t12.5 -33zM401 0v79h-7q-50 -90 -157 -90q-78 0 -120 53.5t-42 156.5v284h76
v-270q0 -160 110 -160q25 0 48.5 10t41 28t28 42t10.5 51v299h76v-355q0 -32 1 -64t3 -64h-68z" />
    <glyph glyph-name="yacute" unicode="&#xfd;" horiz-adv-x="431" 
d="M372 683l-121 -141h-55l87 141h89zM448 483l-131 -345q-49 -125 -81 -190q-42 -79 -88.5 -118.5t-92.5 -49.5l-21 64q48 17 88 56.5t64 93.5q6 13 6 21q0 7 -6 22l-174 446h83l108 -293q8 -21 16 -46t15 -54h3q5 17 12.5 42t18.5 60l99 291h81z" />
    <glyph glyph-name="thorn" unicode="&#xfe;" horiz-adv-x="540" 
d="M520 248q0 -59 -16 -106.5t-44.5 -81.5t-68 -52.5t-86.5 -18.5q-100 0 -148 78h-2v-265h-76v866h76v-263h2q52 88 162 88q45 0 82 -18.5t63.5 -51t41 -77.5t14.5 -98zM443 246q0 40 -10.5 74t-29.5 59t-46 39t-60 14q-28 0 -53.5 -12t-45 -32t-31.5 -48t-12 -59v-92
q0 -31 12 -56.5t31.5 -44t45 -28.5t52.5 -10q33 0 60 14t46.5 39.5t30 61.5t10.5 81z" />
    <glyph glyph-name="ydieresis" unicode="&#xff;" horiz-adv-x="431" 
d="M374 605q0 -20 -13 -33.5t-33 -13.5q-19 0 -32 14t-13 33t13.5 33t32.5 14q20 0 32.5 -14t12.5 -33zM196 605q0 -20 -12.5 -33.5t-32.5 -13.5q-19 0 -32 14t-13 33t13.5 33t32.5 14t31.5 -14t12.5 -33zM448 483l-131 -345q-49 -125 -81 -190q-42 -79 -88.5 -118.5
t-92.5 -49.5l-21 64q48 17 88 56.5t64 93.5q6 13 6 21q0 7 -6 22l-174 446h83l108 -293q8 -21 16 -46t15 -54h3q5 17 12.5 42t18.5 60l99 291h81z" />
    <glyph glyph-name="Scaron" unicode="&#x160;" horiz-adv-x="455" 
d="M379 826l-100 -116h-57l-102 116h65l65 -75h2l63 75h64zM433 181q0 -44 -16 -79t-45.5 -60t-71.5 -38.5t-94 -13.5q-104 0 -165 43l21 63q67 -42 149 -42q69 0 107 33t38 88q0 51 -29 82.5t-98 57.5q-173 65 -173 190q0 39 15.5 72t43.5 57t66.5 37t83.5 13q86 0 142 -32
l-23 -62q-49 31 -122 31q-58 0 -94 -29t-36 -77q0 -23 6.5 -41t21.5 -34t40.5 -30.5t64.5 -30.5q91 -36 129.5 -83t38.5 -115z" />
    <glyph glyph-name="Ydieresis" unicode="&#x178;" horiz-adv-x="495" 
d="M400 770q0 -20 -12 -34t-33 -14h-1q-19 0 -31.5 14t-12.5 34q0 19 13 33t33 14q19 0 31.5 -13.5t12.5 -33.5zM222 770q0 -20 -12.5 -34t-32.5 -14h-1q-19 0 -31.5 14t-12.5 34q0 19 13 33t33 14q19 0 31.5 -13.5t12.5 -33.5zM523 674l-221 -386v-288h-76v287l-210 387h87
l96 -189q43 -86 69 -141h2q11 26 28.5 61.5t40.5 80.5l99 188h85z" />
    <glyph glyph-name="Zcaron" unicode="&#x17d;" horiz-adv-x="525" 
d="M412 826l-100 -116h-57l-102 116h65l65 -75h2l64 75h63zM508 0h-475v45l373 565h-341v64h438v-47l-371 -563h376v-64z" />
    <glyph glyph-name="cid226" 
 />
    <glyph glyph-name="scaron" unicode="&#x161;" horiz-adv-x="366" 
d="M319 683l-93 -141h-53l-95 141h61l60 -95h2l59 95h59zM345 133q0 -66 -46 -104.5t-127 -38.5q-75 0 -130 33l20 59q52 -34 112 -34q45 0 71 21t26 56q0 33 -20 54t-71 41q-124 49 -124 135q0 30 11.5 55t32 43.5t50 29t65.5 10.5q67 0 114 -29l-21 -57q-43 28 -96 28
q-39 0 -61 -20t-22 -50q0 -27 19.5 -47.5t72.5 -39.5q124 -49 124 -145z" />
    <glyph glyph-name="trademark" unicode="&#x2122;" horiz-adv-x="755" 
d="M745 276h-54l-17 249q-1 17 -0.5 42t-1.5 60h-2q-10 -38 -18.5 -65.5t-15.5 -44.5l-86 -236h-40l-85 243q-5 12 -12 37.5t-17 65.5h-3q0 -17 -0.5 -42t-1.5 -60l-16 -249h-52l31 398h70l82 -228q4 -9 11 -33t17 -63h2q8 34 15.5 58t12.5 39l81 227h69zM309 628h-120v-352
h-54v352h-120v46h294v-46z" />
    <glyph glyph-name="zcaron" unicode="&#x17e;" horiz-adv-x="395" 
d="M340 683l-93 -141h-54l-95 141h61l60 -95h2l60 95h59zM396 0h-380v45l225 300q8 11 23 29.5t37 44.5v2h-265v62h357v-49l-223 -298q-14 -19 -28.5 -37t-29.5 -35v-2h284v-62z" />
    <glyph glyph-name="cid230" 
d="M689 48h-579v578h579v-578zM169 568v-462h463v462h-463zM257 521l143 -143l143 143l41 -41l-143 -143l143 -143l-41 -41l-143 143l-143 -143l-41 41l143 143l-143 143z" />
    <glyph glyph-name="cid231" 
 />
    <glyph glyph-name="cid232" 
d="M689 48h-579v578h579v-578zM169 568v-462h463v462h-463zM257 521l143 -143l143 143l41 -41l-143 -143l143 -143l-41 -41l-143 143l-143 -143l-41 41l143 143l-143 143z" />
    <glyph glyph-name="cid233" 
d="M689 48h-579v578h579v-578zM169 568v-462h463v462h-463zM257 521l143 -143l143 143l41 -41l-143 -143l143 -143l-41 -41l-143 143l-143 -143l-41 41l143 143l-143 143z" />
    <glyph glyph-name="cid234" 
d="M689 48h-579v578h579v-578zM169 568v-462h463v462h-463zM257 521l143 -143l143 143l41 -41l-143 -143l143 -143l-41 -41l-143 143l-143 -143l-41 41l143 143l-143 143z" />
    <glyph glyph-name="cid235" 
d="M689 48h-579v578h579v-578zM169 568v-462h463v462h-463zM257 521l143 -143l143 143l41 -41l-143 -143l143 -143l-41 -41l-143 143l-143 -143l-41 41l143 143l-143 143z" />
    <glyph glyph-name="cid236" 
d="M689 48h-579v578h579v-578zM169 568v-462h463v462h-463zM257 521l143 -143l143 143l41 -41l-143 -143l143 -143l-41 -41l-143 143l-143 -143l-41 41l143 143l-143 143z" />
    <glyph glyph-name="cid237" 
d="M689 48h-579v578h579v-578zM169 568v-462h463v462h-463zM257 521l143 -143l143 143l41 -41l-143 -143l143 -143l-41 -41l-143 143l-143 -143l-41 41l143 143l-143 143z" />
    <glyph glyph-name="cid238" 
d="M689 48h-579v578h579v-578zM169 568v-462h463v462h-463zM257 521l143 -143l143 143l41 -41l-143 -143l143 -143l-41 -41l-143 143l-143 -143l-41 41l143 143l-143 143z" />
    <glyph glyph-name="cid239" 
d="M689 48h-579v578h579v-578zM169 568v-462h463v462h-463zM257 521l143 -143l143 143l41 -41l-143 -143l143 -143l-41 -41l-143 143l-143 -143l-41 41l143 143l-143 143z" />
    <glyph glyph-name="cid240" 
d="M689 48h-579v578h579v-578zM169 568v-462h463v462h-463zM257 521l143 -143l143 143l41 -41l-143 -143l143 -143l-41 -41l-143 143l-143 -143l-41 41l143 143l-143 143z" />
    <glyph glyph-name="cid241" 
d="M689 48h-579v578h579v-578zM169 568v-462h463v462h-463zM257 521l143 -143l143 143l41 -41l-143 -143l143 -143l-41 -41l-143 143l-143 -143l-41 41l143 143l-143 143z" />
    <glyph glyph-name="cid242" 
d="M689 48h-579v578h579v-578zM169 568v-462h463v462h-463zM257 521l143 -143l143 143l41 -41l-143 -143l143 -143l-41 -41l-143 143l-143 -143l-41 41l143 143l-143 143z" />
    <glyph glyph-name="cid243" 
d="M689 48h-579v578h579v-578zM169 568v-462h463v462h-463zM257 521l143 -143l143 143l41 -41l-143 -143l143 -143l-41 -41l-143 143l-143 -143l-41 41l143 143l-143 143z" />
    <glyph glyph-name="cid244" 
d="M689 48h-579v578h579v-578zM169 568v-462h463v462h-463zM257 521l143 -143l143 143l41 -41l-143 -143l143 -143l-41 -41l-143 143l-143 -143l-41 41l143 143l-143 143z" />
    <glyph glyph-name="cid245" 
d="M689 48h-579v578h579v-578zM169 568v-462h463v462h-463zM257 521l143 -143l143 143l41 -41l-143 -143l143 -143l-41 -41l-143 143l-143 -143l-41 41l143 143l-143 143z" />
    <glyph glyph-name="cid246" 
d="M689 48h-579v578h579v-578zM169 568v-462h463v462h-463zM257 521l143 -143l143 143l41 -41l-143 -143l143 -143l-41 -41l-143 143l-143 -143l-41 41l143 143l-143 143z" />
    <glyph glyph-name="cid247" 
d="M689 48h-579v578h579v-578zM169 568v-462h463v462h-463zM257 521l143 -143l143 143l41 -41l-143 -143l143 -143l-41 -41l-143 143l-143 -143l-41 41l143 143l-143 143z" />
    <glyph glyph-name="cid248" 
d="M689 48h-579v578h579v-578zM169 568v-462h463v462h-463zM257 521l143 -143l143 143l41 -41l-143 -143l143 -143l-41 -41l-143 143l-143 -143l-41 41l143 143l-143 143z" />
    <glyph glyph-name="cid249" 
d="M689 48h-579v578h579v-578zM169 568v-462h463v462h-463zM257 521l143 -143l143 143l41 -41l-143 -143l143 -143l-41 -41l-143 143l-143 -143l-41 41l143 143l-143 143z" />
    <glyph glyph-name="cid250" 
d="M689 48h-579v578h579v-578zM169 568v-462h463v462h-463zM257 521l143 -143l143 143l41 -41l-143 -143l143 -143l-41 -41l-143 143l-143 -143l-41 41l143 143l-143 143z" />
    <glyph glyph-name="cid251" 
d="M689 48h-579v578h579v-578zM169 568v-462h463v462h-463zM257 521l143 -143l143 143l41 -41l-143 -143l143 -143l-41 -41l-143 143l-143 -143l-41 41l143 143l-143 143z" />
    <glyph glyph-name="cid252" 
d="M689 48h-579v578h579v-578zM169 568v-462h463v462h-463zM257 521l143 -143l143 143l41 -41l-143 -143l143 -143l-41 -41l-143 143l-143 -143l-41 41l143 143l-143 143z" />
    <glyph glyph-name="cid253" 
d="M689 48h-579v578h579v-578zM169 568v-462h463v462h-463zM257 521l143 -143l143 143l41 -41l-143 -143l143 -143l-41 -41l-143 143l-143 -143l-41 41l143 143l-143 143z" />
    <glyph glyph-name="cid254" 
d="M689 48h-579v578h579v-578zM169 568v-462h463v462h-463zM257 521l143 -143l143 143l41 -41l-143 -143l143 -143l-41 -41l-143 143l-143 -143l-41 41l143 143l-143 143z" />
    <glyph glyph-name="cid255" 
d="M689 48h-579v578h579v-578zM169 568v-462h463v462h-463zM257 521l143 -143l143 143l41 -41l-143 -143l143 -143l-41 -41l-143 143l-143 -143l-41 41l143 143l-143 143z" />
    <glyph glyph-name="cid256" 
d="M689 48h-579v578h579v-578zM169 568v-462h463v462h-463zM257 521l143 -143l143 143l41 -41l-143 -143l143 -143l-41 -41l-143 143l-143 -143l-41 41l143 143l-143 143z" />
    <glyph glyph-name="cid257" 
d="M689 48h-579v578h579v-578zM169 568v-462h463v462h-463zM257 521l143 -143l143 143l41 -41l-143 -143l143 -143l-41 -41l-143 143l-143 -143l-41 41l143 143l-143 143z" />
    <glyph glyph-name="cid258" 
d="M689 48h-579v578h579v-578zM169 568v-462h463v462h-463zM257 521l143 -143l143 143l41 -41l-143 -143l143 -143l-41 -41l-143 143l-143 -143l-41 41l143 143l-143 143z" />
    <glyph glyph-name="cid259" 
d="M689 48h-579v578h579v-578zM169 568v-462h463v462h-463zM257 521l143 -143l143 143l41 -41l-143 -143l143 -143l-41 -41l-143 143l-143 -143l-41 41l143 143l-143 143z" />
    <glyph glyph-name="cid260" 
d="M689 48h-579v578h579v-578zM169 568v-462h463v462h-463zM257 521l143 -143l143 143l41 -41l-143 -143l143 -143l-41 -41l-143 143l-143 -143l-41 41l143 143l-143 143z" />
    <glyph glyph-name="cid261" 
d="M689 48h-579v578h579v-578zM169 568v-462h463v462h-463zM257 521l143 -143l143 143l41 -41l-143 -143l143 -143l-41 -41l-143 143l-143 -143l-41 41l143 143l-143 143z" />
    <glyph glyph-name="cid262" 
d="M689 48h-579v578h579v-578zM169 568v-462h463v462h-463zM257 521l143 -143l143 143l41 -41l-143 -143l143 -143l-41 -41l-143 143l-143 -143l-41 41l143 143l-143 143z" />
    <glyph glyph-name="cid263" 
d="M689 48h-579v578h579v-578zM169 568v-462h463v462h-463zM257 521l143 -143l143 143l41 -41l-143 -143l143 -143l-41 -41l-143 143l-143 -143l-41 41l143 143l-143 143z" />
    <glyph glyph-name="cid264" 
d="M689 48h-579v578h579v-578zM169 568v-462h463v462h-463zM257 521l143 -143l143 143l41 -41l-143 -143l143 -143l-41 -41l-143 143l-143 -143l-41 41l143 143l-143 143z" />
    <glyph glyph-name="cid265" 
d="M689 48h-579v578h579v-578zM169 568v-462h463v462h-463zM257 521l143 -143l143 143l41 -41l-143 -143l143 -143l-41 -41l-143 143l-143 -143l-41 41l143 143l-143 143z" />
    <glyph glyph-name="cid266" 
d="M689 48h-579v578h579v-578zM169 568v-462h463v462h-463zM257 521l143 -143l143 143l41 -41l-143 -143l143 -143l-41 -41l-143 143l-143 -143l-41 41l143 143l-143 143z" />
    <glyph glyph-name="cid267" 
d="M689 48h-579v578h579v-578zM169 568v-462h463v462h-463zM257 521l143 -143l143 143l41 -41l-143 -143l143 -143l-41 -41l-143 143l-143 -143l-41 41l143 143l-143 143z" />
    <glyph glyph-name="cid268" 
d="M689 48h-579v578h579v-578zM169 568v-462h463v462h-463zM257 521l143 -143l143 143l41 -41l-143 -143l143 -143l-41 -41l-143 143l-143 -143l-41 41l143 143l-143 143z" />
    <glyph glyph-name="cid269" 
d="M689 48h-579v578h579v-578zM169 568v-462h463v462h-463zM257 521l143 -143l143 143l41 -41l-143 -143l143 -143l-41 -41l-143 143l-143 -143l-41 41l143 143l-143 143z" />
    <glyph glyph-name="cid270" 
d="M689 48h-579v578h579v-578zM169 568v-462h463v462h-463zM257 521l143 -143l143 143l41 -41l-143 -143l143 -143l-41 -41l-143 143l-143 -143l-41 41l143 143l-143 143z" />
    <glyph glyph-name="cid271" 
d="M689 48h-579v578h579v-578zM169 568v-462h463v462h-463zM257 521l143 -143l143 143l41 -41l-143 -143l143 -143l-41 -41l-143 143l-143 -143l-41 41l143 143l-143 143z" />
    <glyph glyph-name="cid272" 
d="M689 48h-579v578h579v-578zM169 568v-462h463v462h-463zM257 521l143 -143l143 143l41 -41l-143 -143l143 -143l-41 -41l-143 143l-143 -143l-41 41l143 143l-143 143z" />
    <glyph glyph-name="cid273" 
d="M689 48h-579v578h579v-578zM169 568v-462h463v462h-463zM257 521l143 -143l143 143l41 -41l-143 -143l143 -143l-41 -41l-143 143l-143 -143l-41 41l143 143l-143 143z" />
    <glyph glyph-name="cid274" 
d="M689 48h-579v578h579v-578zM169 568v-462h463v462h-463zM257 521l143 -143l143 143l41 -41l-143 -143l143 -143l-41 -41l-143 143l-143 -143l-41 41l143 143l-143 143z" />
    <glyph glyph-name="cid275" 
d="M689 48h-579v578h579v-578zM169 568v-462h463v462h-463zM257 521l143 -143l143 143l41 -41l-143 -143l143 -143l-41 -41l-143 143l-143 -143l-41 41l143 143l-143 143z" />
    <glyph glyph-name="cid276" 
d="M689 48h-579v578h579v-578zM169 568v-462h463v462h-463zM257 521l143 -143l143 143l41 -41l-143 -143l143 -143l-41 -41l-143 143l-143 -143l-41 41l143 143l-143 143z" />
    <glyph glyph-name="cid277" 
d="M689 48h-579v578h579v-578zM169 568v-462h463v462h-463zM257 521l143 -143l143 143l41 -41l-143 -143l143 -143l-41 -41l-143 143l-143 -143l-41 41l143 143l-143 143z" />
    <glyph glyph-name="cid278" 
d="M689 48h-579v578h579v-578zM169 568v-462h463v462h-463zM257 521l143 -143l143 143l41 -41l-143 -143l143 -143l-41 -41l-143 143l-143 -143l-41 41l143 143l-143 143z" />
    <glyph glyph-name="cid279" 
d="M689 48h-579v578h579v-578zM169 568v-462h463v462h-463zM257 521l143 -143l143 143l41 -41l-143 -143l143 -143l-41 -41l-143 143l-143 -143l-41 41l143 143l-143 143z" />
    <glyph glyph-name="cid280" 
d="M689 48h-579v578h579v-578zM169 568v-462h463v462h-463zM257 521l143 -143l143 143l41 -41l-143 -143l143 -143l-41 -41l-143 143l-143 -143l-41 41l143 143l-143 143z" />
    <glyph glyph-name="cid281" 
d="M689 48h-579v578h579v-578zM169 568v-462h463v462h-463zM257 521l143 -143l143 143l41 -41l-143 -143l143 -143l-41 -41l-143 143l-143 -143l-41 41l143 143l-143 143z" />
    <glyph glyph-name="cid282" 
d="M689 48h-579v578h579v-578zM169 568v-462h463v462h-463zM257 521l143 -143l143 143l41 -41l-143 -143l143 -143l-41 -41l-143 143l-143 -143l-41 41l143 143l-143 143z" />
    <glyph glyph-name="cid283" 
d="M689 48h-579v578h579v-578zM169 568v-462h463v462h-463zM257 521l143 -143l143 143l41 -41l-143 -143l143 -143l-41 -41l-143 143l-143 -143l-41 41l143 143l-143 143z" />
    <glyph glyph-name="cid284" 
d="M689 48h-579v578h579v-578zM169 568v-462h463v462h-463zM257 521l143 -143l143 143l41 -41l-143 -143l143 -143l-41 -41l-143 143l-143 -143l-41 41l143 143l-143 143z" />
    <glyph glyph-name="cid285" 
d="M689 48h-579v578h579v-578zM169 568v-462h463v462h-463zM257 521l143 -143l143 143l41 -41l-143 -143l143 -143l-41 -41l-143 143l-143 -143l-41 41l143 143l-143 143z" />
    <glyph glyph-name="cid286" 
d="M689 48h-579v578h579v-578zM169 568v-462h463v462h-463zM257 521l143 -143l143 143l41 -41l-143 -143l143 -143l-41 -41l-143 143l-143 -143l-41 41l143 143l-143 143z" />
    <glyph glyph-name="cid287" 
d="M689 48h-579v578h579v-578zM169 568v-462h463v462h-463zM257 521l143 -143l143 143l41 -41l-143 -143l143 -143l-41 -41l-143 143l-143 -143l-41 41l143 143l-143 143z" />
    <glyph glyph-name="cid288" 
d="M689 48h-579v578h579v-578zM169 568v-462h463v462h-463zM257 521l143 -143l143 143l41 -41l-143 -143l143 -143l-41 -41l-143 143l-143 -143l-41 41l143 143l-143 143z" />
    <glyph glyph-name="cid289" 
d="M689 48h-579v578h579v-578zM169 568v-462h463v462h-463zM257 521l143 -143l143 143l41 -41l-143 -143l143 -143l-41 -41l-143 143l-143 -143l-41 41l143 143l-143 143z" />
    <glyph glyph-name="cid290" 
d="M689 48h-579v578h579v-578zM169 568v-462h463v462h-463zM257 521l143 -143l143 143l41 -41l-143 -143l143 -143l-41 -41l-143 143l-143 -143l-41 41l143 143l-143 143z" />
    <glyph glyph-name="cid291" 
d="M689 48h-579v578h579v-578zM169 568v-462h463v462h-463zM257 521l143 -143l143 143l41 -41l-143 -143l143 -143l-41 -41l-143 143l-143 -143l-41 41l143 143l-143 143z" />
    <glyph glyph-name="cid292" 
d="M689 48h-579v578h579v-578zM169 568v-462h463v462h-463zM257 521l143 -143l143 143l41 -41l-143 -143l143 -143l-41 -41l-143 143l-143 -143l-41 41l143 143l-143 143z" />
    <glyph glyph-name="cid293" 
d="M689 48h-579v578h579v-578zM169 568v-462h463v462h-463zM257 521l143 -143l143 143l41 -41l-143 -143l143 -143l-41 -41l-143 143l-143 -143l-41 41l143 143l-143 143z" />
    <glyph glyph-name="cid294" 
d="M689 48h-579v578h579v-578zM169 568v-462h463v462h-463zM257 521l143 -143l143 143l41 -41l-143 -143l143 -143l-41 -41l-143 143l-143 -143l-41 41l143 143l-143 143z" />
    <glyph glyph-name="cid295" 
d="M689 48h-579v578h579v-578zM169 568v-462h463v462h-463zM257 521l143 -143l143 143l41 -41l-143 -143l143 -143l-41 -41l-143 143l-143 -143l-41 41l143 143l-143 143z" />
    <glyph glyph-name="cid296" 
d="M689 48h-579v578h579v-578zM169 568v-462h463v462h-463zM257 521l143 -143l143 143l41 -41l-143 -143l143 -143l-41 -41l-143 143l-143 -143l-41 41l143 143l-143 143z" />
    <glyph glyph-name="cid297" 
d="M689 48h-579v578h579v-578zM169 568v-462h463v462h-463zM257 521l143 -143l143 143l41 -41l-143 -143l143 -143l-41 -41l-143 143l-143 -143l-41 41l143 143l-143 143z" />
    <glyph glyph-name="cid298" 
d="M689 48h-579v578h579v-578zM169 568v-462h463v462h-463zM257 521l143 -143l143 143l41 -41l-143 -143l143 -143l-41 -41l-143 143l-143 -143l-41 41l143 143l-143 143z" />
    <glyph glyph-name="cid299" 
d="M689 48h-579v578h579v-578zM169 568v-462h463v462h-463zM257 521l143 -143l143 143l41 -41l-143 -143l143 -143l-41 -41l-143 143l-143 -143l-41 41l143 143l-143 143z" />
    <glyph glyph-name="cid300" 
d="M689 48h-579v578h579v-578zM169 568v-462h463v462h-463zM257 521l143 -143l143 143l41 -41l-143 -143l143 -143l-41 -41l-143 143l-143 -143l-41 41l143 143l-143 143z" />
    <glyph glyph-name="cid301" 
d="M689 48h-579v578h579v-578zM169 568v-462h463v462h-463zM257 521l143 -143l143 143l41 -41l-143 -143l143 -143l-41 -41l-143 143l-143 -143l-41 41l143 143l-143 143z" />
    <glyph glyph-name="cid302" 
d="M689 48h-579v578h579v-578zM169 568v-462h463v462h-463zM257 521l143 -143l143 143l41 -41l-143 -143l143 -143l-41 -41l-143 143l-143 -143l-41 41l143 143l-143 143z" />
    <glyph glyph-name="cid303" 
d="M689 48h-579v578h579v-578zM169 568v-462h463v462h-463zM257 521l143 -143l143 143l41 -41l-143 -143l143 -143l-41 -41l-143 143l-143 -143l-41 41l143 143l-143 143z" />
    <glyph glyph-name="cid304" 
d="M689 48h-579v578h579v-578zM169 568v-462h463v462h-463zM257 521l143 -143l143 143l41 -41l-143 -143l143 -143l-41 -41l-143 143l-143 -143l-41 41l143 143l-143 143z" />
    <glyph glyph-name="cid305" 
d="M689 48h-579v578h579v-578zM169 568v-462h463v462h-463zM257 521l143 -143l143 143l41 -41l-143 -143l143 -143l-41 -41l-143 143l-143 -143l-41 41l143 143l-143 143z" />
    <glyph glyph-name="cid306" 
d="M689 48h-579v578h579v-578zM169 568v-462h463v462h-463zM257 521l143 -143l143 143l41 -41l-143 -143l143 -143l-41 -41l-143 143l-143 -143l-41 41l143 143l-143 143z" />
    <glyph glyph-name="cid307" 
d="M689 48h-579v578h579v-578zM169 568v-462h463v462h-463zM257 521l143 -143l143 143l41 -41l-143 -143l143 -143l-41 -41l-143 143l-143 -143l-41 41l143 143l-143 143z" />
    <glyph glyph-name="cid308" 
d="M689 48h-579v578h579v-578zM169 568v-462h463v462h-463zM257 521l143 -143l143 143l41 -41l-143 -143l143 -143l-41 -41l-143 143l-143 -143l-41 41l143 143l-143 143z" />
    <glyph glyph-name="cid309" 
d="M689 48h-579v578h579v-578zM169 568v-462h463v462h-463zM257 521l143 -143l143 143l41 -41l-143 -143l143 -143l-41 -41l-143 143l-143 -143l-41 41l143 143l-143 143z" />
    <glyph glyph-name="cid310" 
d="M689 48h-579v578h579v-578zM169 568v-462h463v462h-463zM257 521l143 -143l143 143l41 -41l-143 -143l143 -143l-41 -41l-143 143l-143 -143l-41 41l143 143l-143 143z" />
    <glyph glyph-name="cid311" 
d="M689 48h-579v578h579v-578zM169 568v-462h463v462h-463zM257 521l143 -143l143 143l41 -41l-143 -143l143 -143l-41 -41l-143 143l-143 -143l-41 41l143 143l-143 143z" />
    <glyph glyph-name="cid312" 
d="M689 48h-579v578h579v-578zM169 568v-462h463v462h-463zM257 521l143 -143l143 143l41 -41l-143 -143l143 -143l-41 -41l-143 143l-143 -143l-41 41l143 143l-143 143z" />
    <glyph glyph-name="cid313" 
d="M689 48h-579v578h579v-578zM169 568v-462h463v462h-463zM257 521l143 -143l143 143l41 -41l-143 -143l143 -143l-41 -41l-143 143l-143 -143l-41 41l143 143l-143 143z" />
    <glyph glyph-name="cid314" 
d="M689 48h-579v578h579v-578zM169 568v-462h463v462h-463zM257 521l143 -143l143 143l41 -41l-143 -143l143 -143l-41 -41l-143 143l-143 -143l-41 41l143 143l-143 143z" />
    <glyph glyph-name="cid315" 
d="M689 48h-579v578h579v-578zM169 568v-462h463v462h-463zM257 521l143 -143l143 143l41 -41l-143 -143l143 -143l-41 -41l-143 143l-143 -143l-41 41l143 143l-143 143z" />
    <glyph glyph-name="cid316" 
d="M689 48h-579v578h579v-578zM169 568v-462h463v462h-463zM257 521l143 -143l143 143l41 -41l-143 -143l143 -143l-41 -41l-143 143l-143 -143l-41 41l143 143l-143 143z" />
    <glyph glyph-name="cid317" 
d="M689 48h-579v578h579v-578zM169 568v-462h463v462h-463zM257 521l143 -143l143 143l41 -41l-143 -143l143 -143l-41 -41l-143 143l-143 -143l-41 41l143 143l-143 143z" />
    <glyph glyph-name="cid318" 
d="M689 48h-579v578h579v-578zM169 568v-462h463v462h-463zM257 521l143 -143l143 143l41 -41l-143 -143l143 -143l-41 -41l-143 143l-143 -143l-41 41l143 143l-143 143z" />
    <glyph glyph-name="cid319" 
d="M689 48h-579v578h579v-578zM169 568v-462h463v462h-463zM257 521l143 -143l143 143l41 -41l-143 -143l143 -143l-41 -41l-143 143l-143 -143l-41 41l143 143l-143 143z" />
    <glyph glyph-name="cid320" 
d="M689 48h-579v578h579v-578zM169 568v-462h463v462h-463zM257 521l143 -143l143 143l41 -41l-143 -143l143 -143l-41 -41l-143 143l-143 -143l-41 41l143 143l-143 143z" />
    <glyph glyph-name="cid321" 
d="M689 48h-579v578h579v-578zM169 568v-462h463v462h-463zM257 521l143 -143l143 143l41 -41l-143 -143l143 -143l-41 -41l-143 143l-143 -143l-41 41l143 143l-143 143z" />
    <glyph glyph-name="cid322" 
d="M689 48h-579v578h579v-578zM169 568v-462h463v462h-463zM257 521l143 -143l143 143l41 -41l-143 -143l143 -143l-41 -41l-143 143l-143 -143l-41 41l143 143l-143 143z" />
    <glyph glyph-name="cid323" 
 />
    <glyph glyph-name="cid324" 
d="M689 48h-579v578h579v-578zM169 568v-462h463v462h-463zM257 521l143 -143l143 143l41 -41l-143 -143l143 -143l-41 -41l-143 143l-143 -143l-41 41l143 143l-143 143z" />
    <glyph glyph-name="cid325" 
 />
    <glyph glyph-name="cid326" 
d="M689 48h-579v578h579v-578zM169 568v-462h463v462h-463zM257 521l143 -143l143 143l41 -41l-143 -143l143 -143l-41 -41l-143 143l-143 -143l-41 41l143 143l-143 143z" />
    <glyph glyph-name="cid327" 
 />
    <glyph glyph-name="cid328" 
 />
    <glyph glyph-name="cid329" 
 />
    <glyph glyph-name="cid330" 
 />
    <glyph glyph-name="cid331" 
 />
    <glyph glyph-name="cid332" 
 />
    <glyph glyph-name="cid333" 
 />
    <glyph glyph-name="cid334" 
 />
    <glyph glyph-name="cid335" 
 />
    <glyph glyph-name="cid336" 
 />
    <glyph glyph-name="cid337" 
 />
    <glyph glyph-name="cid338" 
 />
    <glyph glyph-name="cid339" 
 />
    <glyph glyph-name="cid340" 
 />
    <glyph glyph-name="cid341" 
 />
    <glyph glyph-name="cid342" 
 />
    <glyph glyph-name="cid343" 
 />
    <glyph glyph-name="cid344" 
 />
    <glyph glyph-name="cid345" 
 />
    <glyph glyph-name="cid346" 
 />
    <glyph glyph-name="cid347" 
 />
    <glyph glyph-name="cid348" 
 />
    <glyph glyph-name="cid349" 
 />
    <glyph glyph-name="cid350" 
 />
    <glyph glyph-name="cid351" 
 />
    <glyph glyph-name="cid352" 
 />
    <glyph glyph-name="cid353" 
 />
    <glyph glyph-name="cid354" 
 />
    <glyph glyph-name="cid355" 
 />
    <glyph glyph-name="cid356" 
 />
    <glyph glyph-name="cid357" 
 />
    <glyph glyph-name="cid358" 
 />
    <glyph glyph-name="cid359" 
 />
    <glyph glyph-name="cid360" 
 />
    <glyph glyph-name="cid361" 
 />
    <glyph glyph-name="cid362" 
 />
    <glyph glyph-name="cid363" 
 />
    <glyph glyph-name="cid364" 
 />
    <glyph glyph-name="cid365" 
 />
    <glyph glyph-name="cid366" 
 />
    <glyph glyph-name="cid367" 
 />
    <glyph glyph-name="cid368" 
 />
    <glyph glyph-name="cid369" 
 />
    <glyph glyph-name="cid370" 
 />
    <glyph glyph-name="cid371" 
 />
    <glyph glyph-name="cid372" 
 />
    <glyph glyph-name="cid373" 
 />
    <glyph glyph-name="cid374" 
 />
    <glyph glyph-name="cid375" 
 />
    <glyph glyph-name="cid376" 
 />
    <glyph glyph-name="cid377" 
 />
    <glyph glyph-name="cid378" 
 />
    <glyph glyph-name="cid379" 
 />
    <glyph glyph-name="cid380" 
 />
    <glyph glyph-name="cid381" 
 />
    <glyph glyph-name="cid382" 
 />
    <glyph glyph-name="cid383" 
 />
    <glyph glyph-name="cid384" 
 />
    <glyph glyph-name="cid385" 
 />
    <glyph glyph-name="cid386" 
 />
    <glyph glyph-name="cid387" 
 />
    <glyph glyph-name="cid388" 
 />
    <glyph glyph-name="cid389" 
 />
    <glyph glyph-name="cid390" 
d="M689 48h-579v578h579v-578zM169 568v-462h463v462h-463zM257 521l143 -143l143 143l41 -41l-143 -143l143 -143l-41 -41l-143 143l-143 -143l-41 41l143 143l-143 143z" />
    <glyph glyph-name="cid391" 
d="M689 48h-579v578h579v-578zM169 568v-462h463v462h-463zM257 521l143 -143l143 143l41 -41l-143 -143l143 -143l-41 -41l-143 143l-143 -143l-41 41l143 143l-143 143z" />
    <glyph glyph-name="cid392" 
d="M689 48h-579v578h579v-578zM169 568v-462h463v462h-463zM257 521l143 -143l143 143l41 -41l-143 -143l143 -143l-41 -41l-143 143l-143 -143l-41 41l143 143l-143 143z" />
    <glyph glyph-name="cid393" 
d="M689 48h-579v578h579v-578zM169 568v-462h463v462h-463zM257 521l143 -143l143 143l41 -41l-143 -143l143 -143l-41 -41l-143 143l-143 -143l-41 41l143 143l-143 143z" />
    <glyph glyph-name="cid394" 
d="M689 48h-579v578h579v-578zM169 568v-462h463v462h-463zM257 521l143 -143l143 143l41 -41l-143 -143l143 -143l-41 -41l-143 143l-143 -143l-41 41l143 143l-143 143z" />
    <glyph glyph-name="cid395" 
d="M689 48h-579v578h579v-578zM169 568v-462h463v462h-463zM257 521l143 -143l143 143l41 -41l-143 -143l143 -143l-41 -41l-143 143l-143 -143l-41 41l143 143l-143 143z" />
    <glyph glyph-name="cid396" 
d="M689 48h-579v578h579v-578zM169 568v-462h463v462h-463zM257 521l143 -143l143 143l41 -41l-143 -143l143 -143l-41 -41l-143 143l-143 -143l-41 41l143 143l-143 143z" />
    <glyph glyph-name="cid397" 
d="M689 48h-579v578h579v-578zM169 568v-462h463v462h-463zM257 521l143 -143l143 143l41 -41l-143 -143l143 -143l-41 -41l-143 143l-143 -143l-41 41l143 143l-143 143z" />
    <glyph glyph-name="cid398" 
d="M689 48h-579v578h579v-578zM169 568v-462h463v462h-463zM257 521l143 -143l143 143l41 -41l-143 -143l143 -143l-41 -41l-143 143l-143 -143l-41 41l143 143l-143 143z" />
    <glyph glyph-name="cid399" 
d="M689 48h-579v578h579v-578zM169 568v-462h463v462h-463zM257 521l143 -143l143 143l41 -41l-143 -143l143 -143l-41 -41l-143 143l-143 -143l-41 41l143 143l-143 143z" />
    <glyph glyph-name="cid400" 
d="M689 48h-579v578h579v-578zM169 568v-462h463v462h-463zM257 521l143 -143l143 143l41 -41l-143 -143l143 -143l-41 -41l-143 143l-143 -143l-41 41l143 143l-143 143z" />
    <glyph glyph-name="cid401" 
d="M689 48h-579v578h579v-578zM169 568v-462h463v462h-463zM257 521l143 -143l143 143l41 -41l-143 -143l143 -143l-41 -41l-143 143l-143 -143l-41 41l143 143l-143 143z" />
    <glyph glyph-name="cid402" 
d="M689 48h-579v578h579v-578zM169 568v-462h463v462h-463zM257 521l143 -143l143 143l41 -41l-143 -143l143 -143l-41 -41l-143 143l-143 -143l-41 41l143 143l-143 143z" />
    <glyph glyph-name="cid403" 
d="M689 48h-579v578h579v-578zM169 568v-462h463v462h-463zM257 521l143 -143l143 143l41 -41l-143 -143l143 -143l-41 -41l-143 143l-143 -143l-41 41l143 143l-143 143z" />
    <glyph glyph-name="cid404" 
d="M689 48h-579v578h579v-578zM169 568v-462h463v462h-463zM257 521l143 -143l143 143l41 -41l-143 -143l143 -143l-41 -41l-143 143l-143 -143l-41 41l143 143l-143 143z" />
    <glyph glyph-name="cid405" 
d="M689 48h-579v578h579v-578zM169 568v-462h463v462h-463zM257 521l143 -143l143 143l41 -41l-143 -143l143 -143l-41 -41l-143 143l-143 -143l-41 41l143 143l-143 143z" />
    <glyph glyph-name="cid406" 
d="M689 48h-579v578h579v-578zM169 568v-462h463v462h-463zM257 521l143 -143l143 143l41 -41l-143 -143l143 -143l-41 -41l-143 143l-143 -143l-41 41l143 143l-143 143z" />
    <glyph glyph-name="cid407" 
d="M689 48h-579v578h579v-578zM169 568v-462h463v462h-463zM257 521l143 -143l143 143l41 -41l-143 -143l143 -143l-41 -41l-143 143l-143 -143l-41 41l143 143l-143 143z" />
    <glyph glyph-name="cid408" 
d="M689 48h-579v578h579v-578zM169 568v-462h463v462h-463zM257 521l143 -143l143 143l41 -41l-143 -143l143 -143l-41 -41l-143 143l-143 -143l-41 41l143 143l-143 143z" />
    <glyph glyph-name="cid409" 
d="M689 48h-579v578h579v-578zM169 568v-462h463v462h-463zM257 521l143 -143l143 143l41 -41l-143 -143l143 -143l-41 -41l-143 143l-143 -143l-41 41l143 143l-143 143z" />
    <glyph glyph-name="cid410" 
d="M689 48h-579v578h579v-578zM169 568v-462h463v462h-463zM257 521l143 -143l143 143l41 -41l-143 -143l143 -143l-41 -41l-143 143l-143 -143l-41 41l143 143l-143 143z" />
    <glyph glyph-name="cid411" 
d="M689 48h-579v578h579v-578zM169 568v-462h463v462h-463zM257 521l143 -143l143 143l41 -41l-143 -143l143 -143l-41 -41l-143 143l-143 -143l-41 41l143 143l-143 143z" />
    <glyph glyph-name="cid412" 
d="M689 48h-579v578h579v-578zM169 568v-462h463v462h-463zM257 521l143 -143l143 143l41 -41l-143 -143l143 -143l-41 -41l-143 143l-143 -143l-41 41l143 143l-143 143z" />
    <glyph glyph-name="cid413" 
d="M689 48h-579v578h579v-578zM169 568v-462h463v462h-463zM257 521l143 -143l143 143l41 -41l-143 -143l143 -143l-41 -41l-143 143l-143 -143l-41 41l143 143l-143 143z" />
    <glyph glyph-name="cid414" 
d="M689 48h-579v578h579v-578zM169 568v-462h463v462h-463zM257 521l143 -143l143 143l41 -41l-143 -143l143 -143l-41 -41l-143 143l-143 -143l-41 41l143 143l-143 143z" />
    <glyph glyph-name="cid415" 
d="M689 48h-579v578h579v-578zM169 568v-462h463v462h-463zM257 521l143 -143l143 143l41 -41l-143 -143l143 -143l-41 -41l-143 143l-143 -143l-41 41l143 143l-143 143z" />
    <glyph glyph-name="cid416" 
d="M689 48h-579v578h579v-578zM169 568v-462h463v462h-463zM257 521l143 -143l143 143l41 -41l-143 -143l143 -143l-41 -41l-143 143l-143 -143l-41 41l143 143l-143 143z" />
    <glyph glyph-name="cid417" 
d="M689 48h-579v578h579v-578zM169 568v-462h463v462h-463zM257 521l143 -143l143 143l41 -41l-143 -143l143 -143l-41 -41l-143 143l-143 -143l-41 41l143 143l-143 143z" />
    <glyph glyph-name="cid418" 
d="M689 48h-579v578h579v-578zM169 568v-462h463v462h-463zM257 521l143 -143l143 143l41 -41l-143 -143l143 -143l-41 -41l-143 143l-143 -143l-41 41l143 143l-143 143z" />
    <glyph glyph-name="cid419" 
d="M689 48h-579v578h579v-578zM169 568v-462h463v462h-463zM257 521l143 -143l143 143l41 -41l-143 -143l143 -143l-41 -41l-143 143l-143 -143l-41 41l143 143l-143 143z" />
    <glyph glyph-name="cid420" 
d="M689 48h-579v578h579v-578zM169 568v-462h463v462h-463zM257 521l143 -143l143 143l41 -41l-143 -143l143 -143l-41 -41l-143 143l-143 -143l-41 41l143 143l-143 143z" />
    <glyph glyph-name="cid421" 
d="M689 48h-579v578h579v-578zM169 568v-462h463v462h-463zM257 521l143 -143l143 143l41 -41l-143 -143l143 -143l-41 -41l-143 143l-143 -143l-41 41l143 143l-143 143z" />
    <glyph glyph-name="cid422" 
d="M689 48h-579v578h579v-578zM169 568v-462h463v462h-463zM257 521l143 -143l143 143l41 -41l-143 -143l143 -143l-41 -41l-143 143l-143 -143l-41 41l143 143l-143 143z" />
    <glyph glyph-name="cid423" 
d="M689 48h-579v578h579v-578zM169 568v-462h463v462h-463zM257 521l143 -143l143 143l41 -41l-143 -143l143 -143l-41 -41l-143 143l-143 -143l-41 41l143 143l-143 143z" />
    <glyph glyph-name="cid424" 
d="M689 48h-579v578h579v-578zM169 568v-462h463v462h-463zM257 521l143 -143l143 143l41 -41l-143 -143l143 -143l-41 -41l-143 143l-143 -143l-41 41l143 143l-143 143z" />
    <glyph glyph-name="cid425" 
d="M689 48h-579v578h579v-578zM169 568v-462h463v462h-463zM257 521l143 -143l143 143l41 -41l-143 -143l143 -143l-41 -41l-143 143l-143 -143l-41 41l143 143l-143 143z" />
    <glyph glyph-name="cid426" 
d="M689 48h-579v578h579v-578zM169 568v-462h463v462h-463zM257 521l143 -143l143 143l41 -41l-143 -143l143 -143l-41 -41l-143 143l-143 -143l-41 41l143 143l-143 143z" />
    <glyph glyph-name="cid427" 
d="M689 48h-579v578h579v-578zM169 568v-462h463v462h-463zM257 521l143 -143l143 143l41 -41l-143 -143l143 -143l-41 -41l-143 143l-143 -143l-41 41l143 143l-143 143z" />
    <glyph glyph-name="cid428" 
d="M689 48h-579v578h579v-578zM169 568v-462h463v462h-463zM257 521l143 -143l143 143l41 -41l-143 -143l143 -143l-41 -41l-143 143l-143 -143l-41 41l143 143l-143 143z" />
    <glyph glyph-name="cid429" 
d="M689 48h-579v578h579v-578zM169 568v-462h463v462h-463zM257 521l143 -143l143 143l41 -41l-143 -143l143 -143l-41 -41l-143 143l-143 -143l-41 41l143 143l-143 143z" />
    <glyph glyph-name="cid430" 
d="M689 48h-579v578h579v-578zM169 568v-462h463v462h-463zM257 521l143 -143l143 143l41 -41l-143 -143l143 -143l-41 -41l-143 143l-143 -143l-41 41l143 143l-143 143z" />
    <glyph glyph-name="cid431" 
d="M689 48h-579v578h579v-578zM169 568v-462h463v462h-463zM257 521l143 -143l143 143l41 -41l-143 -143l143 -143l-41 -41l-143 143l-143 -143l-41 41l143 143l-143 143z" />
    <glyph glyph-name="cid432" 
d="M689 48h-579v578h579v-578zM169 568v-462h463v462h-463zM257 521l143 -143l143 143l41 -41l-143 -143l143 -143l-41 -41l-143 143l-143 -143l-41 41l143 143l-143 143z" />
    <glyph glyph-name="cid433" 
d="M689 48h-579v578h579v-578zM169 568v-462h463v462h-463zM257 521l143 -143l143 143l41 -41l-143 -143l143 -143l-41 -41l-143 143l-143 -143l-41 41l143 143l-143 143z" />
    <glyph glyph-name="cid434" 
d="M689 48h-579v578h579v-578zM169 568v-462h463v462h-463zM257 521l143 -143l143 143l41 -41l-143 -143l143 -143l-41 -41l-143 143l-143 -143l-41 41l143 143l-143 143z" />
    <glyph glyph-name="cid435" 
d="M689 48h-579v578h579v-578zM169 568v-462h463v462h-463zM257 521l143 -143l143 143l41 -41l-143 -143l143 -143l-41 -41l-143 143l-143 -143l-41 41l143 143l-143 143z" />
    <glyph glyph-name="cid436" 
d="M689 48h-579v578h579v-578zM169 568v-462h463v462h-463zM257 521l143 -143l143 143l41 -41l-143 -143l143 -143l-41 -41l-143 143l-143 -143l-41 41l143 143l-143 143z" />
    <glyph glyph-name="cid437" 
d="M689 48h-579v578h579v-578zM169 568v-462h463v462h-463zM257 521l143 -143l143 143l41 -41l-143 -143l143 -143l-41 -41l-143 143l-143 -143l-41 41l143 143l-143 143z" />
    <glyph glyph-name="cid438" 
d="M689 48h-579v578h579v-578zM169 568v-462h463v462h-463zM257 521l143 -143l143 143l41 -41l-143 -143l143 -143l-41 -41l-143 143l-143 -143l-41 41l143 143l-143 143z" />
    <glyph glyph-name="cid439" 
d="M689 48h-579v578h579v-578zM169 568v-462h463v462h-463zM257 521l143 -143l143 143l41 -41l-143 -143l143 -143l-41 -41l-143 143l-143 -143l-41 41l143 143l-143 143z" />
    <glyph glyph-name="cid440" 
d="M689 48h-579v578h579v-578zM169 568v-462h463v462h-463zM257 521l143 -143l143 143l41 -41l-143 -143l143 -143l-41 -41l-143 143l-143 -143l-41 41l143 143l-143 143z" />
    <glyph glyph-name="cid441" 
d="M689 48h-579v578h579v-578zM169 568v-462h463v462h-463zM257 521l143 -143l143 143l41 -41l-143 -143l143 -143l-41 -41l-143 143l-143 -143l-41 41l143 143l-143 143z" />
    <glyph glyph-name="cid442" 
d="M689 48h-579v578h579v-578zM169 568v-462h463v462h-463zM257 521l143 -143l143 143l41 -41l-143 -143l143 -143l-41 -41l-143 143l-143 -143l-41 41l143 143l-143 143z" />
    <glyph glyph-name="cid443" 
d="M689 48h-579v578h579v-578zM169 568v-462h463v462h-463zM257 521l143 -143l143 143l41 -41l-143 -143l143 -143l-41 -41l-143 143l-143 -143l-41 41l143 143l-143 143z" />
    <glyph glyph-name="cid444" 
d="M689 48h-579v578h579v-578zM169 568v-462h463v462h-463zM257 521l143 -143l143 143l41 -41l-143 -143l143 -143l-41 -41l-143 143l-143 -143l-41 41l143 143l-143 143z" />
    <glyph glyph-name="cid445" 
d="M689 48h-579v578h579v-578zM169 568v-462h463v462h-463zM257 521l143 -143l143 143l41 -41l-143 -143l143 -143l-41 -41l-143 143l-143 -143l-41 41l143 143l-143 143z" />
    <glyph glyph-name="cid446" 
d="M689 48h-579v578h579v-578zM169 568v-462h463v462h-463zM257 521l143 -143l143 143l41 -41l-143 -143l143 -143l-41 -41l-143 143l-143 -143l-41 41l143 143l-143 143z" />
    <glyph glyph-name="cid447" 
d="M689 48h-579v578h579v-578zM169 568v-462h463v462h-463zM257 521l143 -143l143 143l41 -41l-143 -143l143 -143l-41 -41l-143 143l-143 -143l-41 41l143 143l-143 143z" />
    <glyph glyph-name="cid448" 
d="M689 48h-579v578h579v-578zM169 568v-462h463v462h-463zM257 521l143 -143l143 143l41 -41l-143 -143l143 -143l-41 -41l-143 143l-143 -143l-41 41l143 143l-143 143z" />
    <glyph glyph-name="cid449" 
d="M689 48h-579v578h579v-578zM169 568v-462h463v462h-463zM257 521l143 -143l143 143l41 -41l-143 -143l143 -143l-41 -41l-143 143l-143 -143l-41 41l143 143l-143 143z" />
    <glyph glyph-name="cid450" 
d="M689 48h-579v578h579v-578zM169 568v-462h463v462h-463zM257 521l143 -143l143 143l41 -41l-143 -143l143 -143l-41 -41l-143 143l-143 -143l-41 41l143 143l-143 143z" />
    <glyph glyph-name="cid451" 
d="M689 48h-579v578h579v-578zM169 568v-462h463v462h-463zM257 521l143 -143l143 143l41 -41l-143 -143l143 -143l-41 -41l-143 143l-143 -143l-41 41l143 143l-143 143z" />
    <glyph glyph-name="cid452" 
d="M689 48h-579v578h579v-578zM169 568v-462h463v462h-463zM257 521l143 -143l143 143l41 -41l-143 -143l143 -143l-41 -41l-143 143l-143 -143l-41 41l143 143l-143 143z" />
    <glyph glyph-name="cid453" 
d="M689 48h-579v578h579v-578zM169 568v-462h463v462h-463zM257 521l143 -143l143 143l41 -41l-143 -143l143 -143l-41 -41l-143 143l-143 -143l-41 41l143 143l-143 143z" />
    <glyph glyph-name="cid454" 
d="M689 48h-579v578h579v-578zM169 568v-462h463v462h-463zM257 521l143 -143l143 143l41 -41l-143 -143l143 -143l-41 -41l-143 143l-143 -143l-41 41l143 143l-143 143z" />
    <glyph glyph-name="cid455" 
d="M689 48h-579v578h579v-578zM169 568v-462h463v462h-463zM257 521l143 -143l143 143l41 -41l-143 -143l143 -143l-41 -41l-143 143l-143 -143l-41 41l143 143l-143 143z" />
    <glyph glyph-name="cid456" 
d="M689 48h-579v578h579v-578zM169 568v-462h463v462h-463zM257 521l143 -143l143 143l41 -41l-143 -143l143 -143l-41 -41l-143 143l-143 -143l-41 41l143 143l-143 143z" />
    <glyph glyph-name="cid457" 
d="M689 48h-579v578h579v-578zM169 568v-462h463v462h-463zM257 521l143 -143l143 143l41 -41l-143 -143l143 -143l-41 -41l-143 143l-143 -143l-41 41l143 143l-143 143z" />
    <glyph glyph-name="cid458" 
d="M689 48h-579v578h579v-578zM169 568v-462h463v462h-463zM257 521l143 -143l143 143l41 -41l-143 -143l143 -143l-41 -41l-143 143l-143 -143l-41 41l143 143l-143 143z" />
    <glyph glyph-name="cid459" 
d="M689 48h-579v578h579v-578zM169 568v-462h463v462h-463zM257 521l143 -143l143 143l41 -41l-143 -143l143 -143l-41 -41l-143 143l-143 -143l-41 41l143 143l-143 143z" />
    <glyph glyph-name="cid460" 
d="M689 48h-579v578h579v-578zM169 568v-462h463v462h-463zM257 521l143 -143l143 143l41 -41l-143 -143l143 -143l-41 -41l-143 143l-143 -143l-41 41l143 143l-143 143z" />
    <glyph glyph-name="cid461" 
d="M689 48h-579v578h579v-578zM169 568v-462h463v462h-463zM257 521l143 -143l143 143l41 -41l-143 -143l143 -143l-41 -41l-143 143l-143 -143l-41 41l143 143l-143 143z" />
    <glyph glyph-name="cid462" 
d="M689 48h-579v578h579v-578zM169 568v-462h463v462h-463zM257 521l143 -143l143 143l41 -41l-143 -143l143 -143l-41 -41l-143 143l-143 -143l-41 41l143 143l-143 143z" />
    <glyph glyph-name="cid463" 
d="M689 48h-579v578h579v-578zM169 568v-462h463v462h-463zM257 521l143 -143l143 143l41 -41l-143 -143l143 -143l-41 -41l-143 143l-143 -143l-41 41l143 143l-143 143z" />
    <glyph glyph-name="cid464" 
d="M689 48h-579v578h579v-578zM169 568v-462h463v462h-463zM257 521l143 -143l143 143l41 -41l-143 -143l143 -143l-41 -41l-143 143l-143 -143l-41 41l143 143l-143 143z" />
    <glyph glyph-name="cid465" 
d="M689 48h-579v578h579v-578zM169 568v-462h463v462h-463zM257 521l143 -143l143 143l41 -41l-143 -143l143 -143l-41 -41l-143 143l-143 -143l-41 41l143 143l-143 143z" />
    <glyph glyph-name="cid466" 
d="M689 48h-579v578h579v-578zM169 568v-462h463v462h-463zM257 521l143 -143l143 143l41 -41l-143 -143l143 -143l-41 -41l-143 143l-143 -143l-41 41l143 143l-143 143z" />
    <glyph glyph-name="cid467" 
d="M689 48h-579v578h579v-578zM169 568v-462h463v462h-463zM257 521l143 -143l143 143l41 -41l-143 -143l143 -143l-41 -41l-143 143l-143 -143l-41 41l143 143l-143 143z" />
    <glyph glyph-name="cid468" 
d="M689 48h-579v578h579v-578zM169 568v-462h463v462h-463zM257 521l143 -143l143 143l41 -41l-143 -143l143 -143l-41 -41l-143 143l-143 -143l-41 41l143 143l-143 143z" />
    <glyph glyph-name="cid469" 
d="M689 48h-579v578h579v-578zM169 568v-462h463v462h-463zM257 521l143 -143l143 143l41 -41l-143 -143l143 -143l-41 -41l-143 143l-143 -143l-41 41l143 143l-143 143z" />
    <glyph glyph-name="cid470" 
d="M689 48h-579v578h579v-578zM169 568v-462h463v462h-463zM257 521l143 -143l143 143l41 -41l-143 -143l143 -143l-41 -41l-143 143l-143 -143l-41 41l143 143l-143 143z" />
    <glyph glyph-name="cid471" 
d="M689 48h-579v578h579v-578zM169 568v-462h463v462h-463zM257 521l143 -143l143 143l41 -41l-143 -143l143 -143l-41 -41l-143 143l-143 -143l-41 41l143 143l-143 143z" />
    <glyph glyph-name="cid472" 
d="M689 48h-579v578h579v-578zM169 568v-462h463v462h-463zM257 521l143 -143l143 143l41 -41l-143 -143l143 -143l-41 -41l-143 143l-143 -143l-41 41l143 143l-143 143z" />
    <glyph glyph-name="cid473" 
d="M689 48h-579v578h579v-578zM169 568v-462h463v462h-463zM257 521l143 -143l143 143l41 -41l-143 -143l143 -143l-41 -41l-143 143l-143 -143l-41 41l143 143l-143 143z" />
    <glyph glyph-name="cid474" 
d="M689 48h-579v578h579v-578zM169 568v-462h463v462h-463zM257 521l143 -143l143 143l41 -41l-143 -143l143 -143l-41 -41l-143 143l-143 -143l-41 41l143 143l-143 143z" />
    <glyph glyph-name="cid475" 
d="M689 48h-579v578h579v-578zM169 568v-462h463v462h-463zM257 521l143 -143l143 143l41 -41l-143 -143l143 -143l-41 -41l-143 143l-143 -143l-41 41l143 143l-143 143z" />
    <glyph glyph-name="cid476" 
d="M689 48h-579v578h579v-578zM169 568v-462h463v462h-463zM257 521l143 -143l143 143l41 -41l-143 -143l143 -143l-41 -41l-143 143l-143 -143l-41 41l143 143l-143 143z" />
    <glyph glyph-name="cid477" 
d="M689 48h-579v578h579v-578zM169 568v-462h463v462h-463zM257 521l143 -143l143 143l41 -41l-143 -143l143 -143l-41 -41l-143 143l-143 -143l-41 41l143 143l-143 143z" />
    <glyph glyph-name="cid478" 
d="M689 48h-579v578h579v-578zM169 568v-462h463v462h-463zM257 521l143 -143l143 143l41 -41l-143 -143l143 -143l-41 -41l-143 143l-143 -143l-41 41l143 143l-143 143z" />
    <glyph glyph-name="cid479" 
d="M689 48h-579v578h579v-578zM169 568v-462h463v462h-463zM257 521l143 -143l143 143l41 -41l-143 -143l143 -143l-41 -41l-143 143l-143 -143l-41 41l143 143l-143 143z" />
    <glyph glyph-name="cid480" 
d="M689 48h-579v578h579v-578zM169 568v-462h463v462h-463zM257 521l143 -143l143 143l41 -41l-143 -143l143 -143l-41 -41l-143 143l-143 -143l-41 41l143 143l-143 143z" />
    <glyph glyph-name="cid481" 
d="M689 48h-579v578h579v-578zM169 568v-462h463v462h-463zM257 521l143 -143l143 143l41 -41l-143 -143l143 -143l-41 -41l-143 143l-143 -143l-41 41l143 143l-143 143z" />
    <glyph glyph-name="cid482" 
d="M689 48h-579v578h579v-578zM169 568v-462h463v462h-463zM257 521l143 -143l143 143l41 -41l-143 -143l143 -143l-41 -41l-143 143l-143 -143l-41 41l143 143l-143 143z" />
    <glyph glyph-name="cid483" 
d="M689 48h-579v578h579v-578zM169 568v-462h463v462h-463zM257 521l143 -143l143 143l41 -41l-143 -143l143 -143l-41 -41l-143 143l-143 -143l-41 41l143 143l-143 143z" />
    <glyph glyph-name="cid484" 
d="M689 48h-579v578h579v-578zM169 568v-462h463v462h-463zM257 521l143 -143l143 143l41 -41l-143 -143l143 -143l-41 -41l-143 143l-143 -143l-41 41l143 143l-143 143z" />
    <glyph glyph-name="cid485" 
d="M689 48h-579v578h579v-578zM169 568v-462h463v462h-463zM257 521l143 -143l143 143l41 -41l-143 -143l143 -143l-41 -41l-143 143l-143 -143l-41 41l143 143l-143 143z" />
    <glyph glyph-name="cid486" 
d="M689 48h-579v578h579v-578zM169 568v-462h463v462h-463zM257 521l143 -143l143 143l41 -41l-143 -143l143 -143l-41 -41l-143 143l-143 -143l-41 41l143 143l-143 143z" />
    <glyph glyph-name="cid487" 
d="M689 48h-579v578h579v-578zM169 568v-462h463v462h-463zM257 521l143 -143l143 143l41 -41l-143 -143l143 -143l-41 -41l-143 143l-143 -143l-41 41l143 143l-143 143z" />
    <glyph glyph-name="cid488" 
d="M689 48h-579v578h579v-578zM169 568v-462h463v462h-463zM257 521l143 -143l143 143l41 -41l-143 -143l143 -143l-41 -41l-143 143l-143 -143l-41 41l143 143l-143 143z" />
    <glyph glyph-name="cid489" 
d="M689 48h-579v578h579v-578zM169 568v-462h463v462h-463zM257 521l143 -143l143 143l41 -41l-143 -143l143 -143l-41 -41l-143 143l-143 -143l-41 41l143 143l-143 143z" />
    <glyph glyph-name="cid490" 
d="M689 48h-579v578h579v-578zM169 568v-462h463v462h-463zM257 521l143 -143l143 143l41 -41l-143 -143l143 -143l-41 -41l-143 143l-143 -143l-41 41l143 143l-143 143z" />
    <glyph glyph-name="cid491" 
d="M689 48h-579v578h579v-578zM169 568v-462h463v462h-463zM257 521l143 -143l143 143l41 -41l-143 -143l143 -143l-41 -41l-143 143l-143 -143l-41 41l143 143l-143 143z" />
    <glyph glyph-name="cid492" 
d="M689 48h-579v578h579v-578zM169 568v-462h463v462h-463zM257 521l143 -143l143 143l41 -41l-143 -143l143 -143l-41 -41l-143 143l-143 -143l-41 41l143 143l-143 143z" />
    <glyph glyph-name="cid493" 
d="M689 48h-579v578h579v-578zM169 568v-462h463v462h-463zM257 521l143 -143l143 143l41 -41l-143 -143l143 -143l-41 -41l-143 143l-143 -143l-41 41l143 143l-143 143z" />
    <glyph glyph-name="cid494" 
d="M689 48h-579v578h579v-578zM169 568v-462h463v462h-463zM257 521l143 -143l143 143l41 -41l-143 -143l143 -143l-41 -41l-143 143l-143 -143l-41 41l143 143l-143 143z" />
    <glyph glyph-name="cid495" 
d="M689 48h-579v578h579v-578zM169 568v-462h463v462h-463zM257 521l143 -143l143 143l41 -41l-143 -143l143 -143l-41 -41l-143 143l-143 -143l-41 41l143 143l-143 143z" />
    <glyph glyph-name="cid496" 
d="M689 48h-579v578h579v-578zM169 568v-462h463v462h-463zM257 521l143 -143l143 143l41 -41l-143 -143l143 -143l-41 -41l-143 143l-143 -143l-41 41l143 143l-143 143z" />
    <glyph glyph-name="cid497" 
d="M689 48h-579v578h579v-578zM169 568v-462h463v462h-463zM257 521l143 -143l143 143l41 -41l-143 -143l143 -143l-41 -41l-143 143l-143 -143l-41 41l143 143l-143 143z" />
    <glyph glyph-name="cid498" 
d="M689 48h-579v578h579v-578zM169 568v-462h463v462h-463zM257 521l143 -143l143 143l41 -41l-143 -143l143 -143l-41 -41l-143 143l-143 -143l-41 41l143 143l-143 143z" />
    <glyph glyph-name="cid499" 
d="M689 48h-579v578h579v-578zM169 568v-462h463v462h-463zM257 521l143 -143l143 143l41 -41l-143 -143l143 -143l-41 -41l-143 143l-143 -143l-41 41l143 143l-143 143z" />
    <glyph glyph-name="cid500" 
d="M689 48h-579v578h579v-578zM169 568v-462h463v462h-463zM257 521l143 -143l143 143l41 -41l-143 -143l143 -143l-41 -41l-143 143l-143 -143l-41 41l143 143l-143 143z" />
    <glyph glyph-name="cid501" 
d="M689 48h-579v578h579v-578zM169 568v-462h463v462h-463zM257 521l143 -143l143 143l41 -41l-143 -143l143 -143l-41 -41l-143 143l-143 -143l-41 41l143 143l-143 143z" />
    <glyph glyph-name="cid502" 
d="M689 48h-579v578h579v-578zM169 568v-462h463v462h-463zM257 521l143 -143l143 143l41 -41l-143 -143l143 -143l-41 -41l-143 143l-143 -143l-41 41l143 143l-143 143z" />
    <glyph glyph-name="cid503" 
d="M689 48h-579v578h579v-578zM169 568v-462h463v462h-463zM257 521l143 -143l143 143l41 -41l-143 -143l143 -143l-41 -41l-143 143l-143 -143l-41 41l143 143l-143 143z" />
    <glyph glyph-name="cid504" 
d="M689 48h-579v578h579v-578zM169 568v-462h463v462h-463zM257 521l143 -143l143 143l41 -41l-143 -143l143 -143l-41 -41l-143 143l-143 -143l-41 41l143 143l-143 143z" />
    <glyph glyph-name="cid505" 
d="M689 48h-579v578h579v-578zM169 568v-462h463v462h-463zM257 521l143 -143l143 143l41 -41l-143 -143l143 -143l-41 -41l-143 143l-143 -143l-41 41l143 143l-143 143z" />
    <glyph glyph-name="cid506" 
d="M689 48h-579v578h579v-578zM169 568v-462h463v462h-463zM257 521l143 -143l143 143l41 -41l-143 -143l143 -143l-41 -41l-143 143l-143 -143l-41 41l143 143l-143 143z" />
    <glyph glyph-name="cid507" 
d="M689 48h-579v578h579v-578zM169 568v-462h463v462h-463zM257 521l143 -143l143 143l41 -41l-143 -143l143 -143l-41 -41l-143 143l-143 -143l-41 41l143 143l-143 143z" />
    <glyph glyph-name="cid508" 
d="M689 48h-579v578h579v-578zM169 568v-462h463v462h-463zM257 521l143 -143l143 143l41 -41l-143 -143l143 -143l-41 -41l-143 143l-143 -143l-41 41l143 143l-143 143z" />
    <glyph glyph-name="cid509" 
d="M689 48h-579v578h579v-578zM169 568v-462h463v462h-463zM257 521l143 -143l143 143l41 -41l-143 -143l143 -143l-41 -41l-143 143l-143 -143l-41 41l143 143l-143 143z" />
    <glyph glyph-name="cid510" 
d="M689 48h-579v578h579v-578zM169 568v-462h463v462h-463zM257 521l143 -143l143 143l41 -41l-143 -143l143 -143l-41 -41l-143 143l-143 -143l-41 41l143 143l-143 143z" />
    <glyph glyph-name="cid511" 
d="M689 48h-579v578h579v-578zM169 568v-462h463v462h-463zM257 521l143 -143l143 143l41 -41l-143 -143l143 -143l-41 -41l-143 143l-143 -143l-41 41l143 143l-143 143z" />
    <glyph glyph-name="cid512" 
d="M689 48h-579v578h579v-578zM169 568v-462h463v462h-463zM257 521l143 -143l143 143l41 -41l-143 -143l143 -143l-41 -41l-143 143l-143 -143l-41 41l143 143l-143 143z" />
    <glyph glyph-name="cid513" 
d="M689 48h-579v578h579v-578zM169 568v-462h463v462h-463zM257 521l143 -143l143 143l41 -41l-143 -143l143 -143l-41 -41l-143 143l-143 -143l-41 41l143 143l-143 143z" />
    <glyph glyph-name="cid514" 
d="M689 48h-579v578h579v-578zM169 568v-462h463v462h-463zM257 521l143 -143l143 143l41 -41l-143 -143l143 -143l-41 -41l-143 143l-143 -143l-41 41l143 143l-143 143z" />
    <glyph glyph-name="cid515" 
d="M689 48h-579v578h579v-578zM169 568v-462h463v462h-463zM257 521l143 -143l143 143l41 -41l-143 -143l143 -143l-41 -41l-143 143l-143 -143l-41 41l143 143l-143 143z" />
    <glyph glyph-name="cid516" 
d="M689 48h-579v578h579v-578zM169 568v-462h463v462h-463zM257 521l143 -143l143 143l41 -41l-143 -143l143 -143l-41 -41l-143 143l-143 -143l-41 41l143 143l-143 143z" />
    <glyph glyph-name="cid517" 
d="M689 48h-579v578h579v-578zM169 568v-462h463v462h-463zM257 521l143 -143l143 143l41 -41l-143 -143l143 -143l-41 -41l-143 143l-143 -143l-41 41l143 143l-143 143z" />
    <glyph glyph-name="cid518" 
d="M689 48h-579v578h579v-578zM169 568v-462h463v462h-463zM257 521l143 -143l143 143l41 -41l-143 -143l143 -143l-41 -41l-143 143l-143 -143l-41 41l143 143l-143 143z" />
    <glyph glyph-name="cid519" 
d="M689 48h-579v578h579v-578zM169 568v-462h463v462h-463zM257 521l143 -143l143 143l41 -41l-143 -143l143 -143l-41 -41l-143 143l-143 -143l-41 41l143 143l-143 143z" />
    <glyph glyph-name="cid520" 
d="M689 48h-579v578h579v-578zM169 568v-462h463v462h-463zM257 521l143 -143l143 143l41 -41l-143 -143l143 -143l-41 -41l-143 143l-143 -143l-41 41l143 143l-143 143z" />
    <glyph glyph-name="cid521" 
d="M689 48h-579v578h579v-578zM169 568v-462h463v462h-463zM257 521l143 -143l143 143l41 -41l-143 -143l143 -143l-41 -41l-143 143l-143 -143l-41 41l143 143l-143 143z" />
    <glyph glyph-name="cid522" 
d="M689 48h-579v578h579v-578zM169 568v-462h463v462h-463zM257 521l143 -143l143 143l41 -41l-143 -143l143 -143l-41 -41l-143 143l-143 -143l-41 41l143 143l-143 143z" />
    <glyph glyph-name="cid523" 
d="M689 48h-579v578h579v-578zM169 568v-462h463v462h-463zM257 521l143 -143l143 143l41 -41l-143 -143l143 -143l-41 -41l-143 143l-143 -143l-41 41l143 143l-143 143z" />
    <glyph glyph-name="cid524" 
d="M689 48h-579v578h579v-578zM169 568v-462h463v462h-463zM257 521l143 -143l143 143l41 -41l-143 -143l143 -143l-41 -41l-143 143l-143 -143l-41 41l143 143l-143 143z" />
    <glyph glyph-name="cid525" 
d="M689 48h-579v578h579v-578zM169 568v-462h463v462h-463zM257 521l143 -143l143 143l41 -41l-143 -143l143 -143l-41 -41l-143 143l-143 -143l-41 41l143 143l-143 143z" />
    <glyph glyph-name="cid526" 
d="M689 48h-579v578h579v-578zM169 568v-462h463v462h-463zM257 521l143 -143l143 143l41 -41l-143 -143l143 -143l-41 -41l-143 143l-143 -143l-41 41l143 143l-143 143z" />
    <glyph glyph-name="cid527" 
d="M689 48h-579v578h579v-578zM169 568v-462h463v462h-463zM257 521l143 -143l143 143l41 -41l-143 -143l143 -143l-41 -41l-143 143l-143 -143l-41 41l143 143l-143 143z" />
    <glyph glyph-name="cid528" 
d="M689 48h-579v578h579v-578zM169 568v-462h463v462h-463zM257 521l143 -143l143 143l41 -41l-143 -143l143 -143l-41 -41l-143 143l-143 -143l-41 41l143 143l-143 143z" />
    <glyph glyph-name="cid529" 
d="M689 48h-579v578h579v-578zM169 568v-462h463v462h-463zM257 521l143 -143l143 143l41 -41l-143 -143l143 -143l-41 -41l-143 143l-143 -143l-41 41l143 143l-143 143z" />
    <glyph glyph-name="cid530" 
d="M689 48h-579v578h579v-578zM169 568v-462h463v462h-463zM257 521l143 -143l143 143l41 -41l-143 -143l143 -143l-41 -41l-143 143l-143 -143l-41 41l143 143l-143 143z" />
    <glyph glyph-name="cid531" 
d="M689 48h-579v578h579v-578zM169 568v-462h463v462h-463zM257 521l143 -143l143 143l41 -41l-143 -143l143 -143l-41 -41l-143 143l-143 -143l-41 41l143 143l-143 143z" />
    <glyph glyph-name="cid532" 
d="M689 48h-579v578h579v-578zM169 568v-462h463v462h-463zM257 521l143 -143l143 143l41 -41l-143 -143l143 -143l-41 -41l-143 143l-143 -143l-41 41l143 143l-143 143z" />
    <glyph glyph-name="cid533" 
d="M689 48h-579v578h579v-578zM169 568v-462h463v462h-463zM257 521l143 -143l143 143l41 -41l-143 -143l143 -143l-41 -41l-143 143l-143 -143l-41 41l143 143l-143 143z" />
    <glyph glyph-name="cid534" 
d="M689 48h-579v578h579v-578zM169 568v-462h463v462h-463zM257 521l143 -143l143 143l41 -41l-143 -143l143 -143l-41 -41l-143 143l-143 -143l-41 41l143 143l-143 143z" />
    <glyph glyph-name="cid535" 
d="M689 48h-579v578h579v-578zM169 568v-462h463v462h-463zM257 521l143 -143l143 143l41 -41l-143 -143l143 -143l-41 -41l-143 143l-143 -143l-41 41l143 143l-143 143z" />
    <glyph glyph-name="cid536" 
d="M689 48h-579v578h579v-578zM169 568v-462h463v462h-463zM257 521l143 -143l143 143l41 -41l-143 -143l143 -143l-41 -41l-143 143l-143 -143l-41 41l143 143l-143 143z" />
    <glyph glyph-name="cid537" 
d="M689 48h-579v578h579v-578zM169 568v-462h463v462h-463zM257 521l143 -143l143 143l41 -41l-143 -143l143 -143l-41 -41l-143 143l-143 -143l-41 41l143 143l-143 143z" />
    <glyph glyph-name="cid538" 
d="M689 48h-579v578h579v-578zM169 568v-462h463v462h-463zM257 521l143 -143l143 143l41 -41l-143 -143l143 -143l-41 -41l-143 143l-143 -143l-41 41l143 143l-143 143z" />
    <glyph glyph-name="cid539" 
d="M689 48h-579v578h579v-578zM169 568v-462h463v462h-463zM257 521l143 -143l143 143l41 -41l-143 -143l143 -143l-41 -41l-143 143l-143 -143l-41 41l143 143l-143 143z" />
    <glyph glyph-name="cid540" 
d="M689 48h-579v578h579v-578zM169 568v-462h463v462h-463zM257 521l143 -143l143 143l41 -41l-143 -143l143 -143l-41 -41l-143 143l-143 -143l-41 41l143 143l-143 143z" />
    <glyph glyph-name="cid541" 
d="M689 48h-579v578h579v-578zM169 568v-462h463v462h-463zM257 521l143 -143l143 143l41 -41l-143 -143l143 -143l-41 -41l-143 143l-143 -143l-41 41l143 143l-143 143z" />
    <glyph glyph-name="cid542" 
d="M689 48h-579v578h579v-578zM169 568v-462h463v462h-463zM257 521l143 -143l143 143l41 -41l-143 -143l143 -143l-41 -41l-143 143l-143 -143l-41 41l143 143l-143 143z" />
    <glyph glyph-name="cid543" 
d="M689 48h-579v578h579v-578zM169 568v-462h463v462h-463zM257 521l143 -143l143 143l41 -41l-143 -143l143 -143l-41 -41l-143 143l-143 -143l-41 41l143 143l-143 143z" />
    <glyph glyph-name="cid544" 
d="M689 48h-579v578h579v-578zM169 568v-462h463v462h-463zM257 521l143 -143l143 143l41 -41l-143 -143l143 -143l-41 -41l-143 143l-143 -143l-41 41l143 143l-143 143z" />
    <glyph glyph-name="cid545" 
d="M689 48h-579v578h579v-578zM169 568v-462h463v462h-463zM257 521l143 -143l143 143l41 -41l-143 -143l143 -143l-41 -41l-143 143l-143 -143l-41 41l143 143l-143 143z" />
    <glyph glyph-name="cid546" 
d="M689 48h-579v578h579v-578zM169 568v-462h463v462h-463zM257 521l143 -143l143 143l41 -41l-143 -143l143 -143l-41 -41l-143 143l-143 -143l-41 41l143 143l-143 143z" />
    <glyph glyph-name="cid547" 
d="M689 48h-579v578h579v-578zM169 568v-462h463v462h-463zM257 521l143 -143l143 143l41 -41l-143 -143l143 -143l-41 -41l-143 143l-143 -143l-41 41l143 143l-143 143z" />
    <glyph glyph-name="cid548" 
d="M689 48h-579v578h579v-578zM169 568v-462h463v462h-463zM257 521l143 -143l143 143l41 -41l-143 -143l143 -143l-41 -41l-143 143l-143 -143l-41 41l143 143l-143 143z" />
    <glyph glyph-name="cid549" 
d="M689 48h-579v578h579v-578zM169 568v-462h463v462h-463zM257 521l143 -143l143 143l41 -41l-143 -143l143 -143l-41 -41l-143 143l-143 -143l-41 41l143 143l-143 143z" />
    <glyph glyph-name="cid550" 
d="M689 48h-579v578h579v-578zM169 568v-462h463v462h-463zM257 521l143 -143l143 143l41 -41l-143 -143l143 -143l-41 -41l-143 143l-143 -143l-41 41l143 143l-143 143z" />
    <glyph glyph-name="cid551" 
d="M689 48h-579v578h579v-578zM169 568v-462h463v462h-463zM257 521l143 -143l143 143l41 -41l-143 -143l143 -143l-41 -41l-143 143l-143 -143l-41 41l143 143l-143 143z" />
    <glyph glyph-name="cid552" 
d="M689 48h-579v578h579v-578zM169 568v-462h463v462h-463zM257 521l143 -143l143 143l41 -41l-143 -143l143 -143l-41 -41l-143 143l-143 -143l-41 41l143 143l-143 143z" />
    <glyph glyph-name="cid553" 
d="M689 48h-579v578h579v-578zM169 568v-462h463v462h-463zM257 521l143 -143l143 143l41 -41l-143 -143l143 -143l-41 -41l-143 143l-143 -143l-41 41l143 143l-143 143z" />
    <glyph glyph-name="cid554" 
d="M689 48h-579v578h579v-578zM169 568v-462h463v462h-463zM257 521l143 -143l143 143l41 -41l-143 -143l143 -143l-41 -41l-143 143l-143 -143l-41 41l143 143l-143 143z" />
    <glyph glyph-name="cid555" 
d="M689 48h-579v578h579v-578zM169 568v-462h463v462h-463zM257 521l143 -143l143 143l41 -41l-143 -143l143 -143l-41 -41l-143 143l-143 -143l-41 41l143 143l-143 143z" />
    <glyph glyph-name="cid556" 
d="M689 48h-579v578h579v-578zM169 568v-462h463v462h-463zM257 521l143 -143l143 143l41 -41l-143 -143l143 -143l-41 -41l-143 143l-143 -143l-41 41l143 143l-143 143z" />
    <glyph glyph-name="cid557" 
d="M689 48h-579v578h579v-578zM169 568v-462h463v462h-463zM257 521l143 -143l143 143l41 -41l-143 -143l143 -143l-41 -41l-143 143l-143 -143l-41 41l143 143l-143 143z" />
    <glyph glyph-name="cid558" 
d="M689 48h-579v578h579v-578zM169 568v-462h463v462h-463zM257 521l143 -143l143 143l41 -41l-143 -143l143 -143l-41 -41l-143 143l-143 -143l-41 41l143 143l-143 143z" />
    <glyph glyph-name="cid559" 
d="M689 48h-579v578h579v-578zM169 568v-462h463v462h-463zM257 521l143 -143l143 143l41 -41l-143 -143l143 -143l-41 -41l-143 143l-143 -143l-41 41l143 143l-143 143z" />
    <glyph glyph-name="cid560" 
d="M689 48h-579v578h579v-578zM169 568v-462h463v462h-463zM257 521l143 -143l143 143l41 -41l-143 -143l143 -143l-41 -41l-143 143l-143 -143l-41 41l143 143l-143 143z" />
    <glyph glyph-name="cid561" 
d="M689 48h-579v578h579v-578zM169 568v-462h463v462h-463zM257 521l143 -143l143 143l41 -41l-143 -143l143 -143l-41 -41l-143 143l-143 -143l-41 41l143 143l-143 143z" />
    <glyph glyph-name="cid562" 
d="M689 48h-579v578h579v-578zM169 568v-462h463v462h-463zM257 521l143 -143l143 143l41 -41l-143 -143l143 -143l-41 -41l-143 143l-143 -143l-41 41l143 143l-143 143z" />
    <glyph glyph-name="cid563" 
d="M689 48h-579v578h579v-578zM169 568v-462h463v462h-463zM257 521l143 -143l143 143l41 -41l-143 -143l143 -143l-41 -41l-143 143l-143 -143l-41 41l143 143l-143 143z" />
    <glyph glyph-name="cid564" 
d="M689 48h-579v578h579v-578zM169 568v-462h463v462h-463zM257 521l143 -143l143 143l41 -41l-143 -143l143 -143l-41 -41l-143 143l-143 -143l-41 41l143 143l-143 143z" />
    <glyph glyph-name="cid565" 
d="M689 48h-579v578h579v-578zM169 568v-462h463v462h-463zM257 521l143 -143l143 143l41 -41l-143 -143l143 -143l-41 -41l-143 143l-143 -143l-41 41l143 143l-143 143z" />
    <glyph glyph-name="cid566" 
d="M689 48h-579v578h579v-578zM169 568v-462h463v462h-463zM257 521l143 -143l143 143l41 -41l-143 -143l143 -143l-41 -41l-143 143l-143 -143l-41 41l143 143l-143 143z" />
    <glyph glyph-name="cid567" 
d="M689 48h-579v578h579v-578zM169 568v-462h463v462h-463zM257 521l143 -143l143 143l41 -41l-143 -143l143 -143l-41 -41l-143 143l-143 -143l-41 41l143 143l-143 143z" />
    <glyph glyph-name="cid568" 
d="M689 48h-579v578h579v-578zM169 568v-462h463v462h-463zM257 521l143 -143l143 143l41 -41l-143 -143l143 -143l-41 -41l-143 143l-143 -143l-41 41l143 143l-143 143z" />
    <glyph glyph-name="cid569" 
d="M689 48h-579v578h579v-578zM169 568v-462h463v462h-463zM257 521l143 -143l143 143l41 -41l-143 -143l143 -143l-41 -41l-143 143l-143 -143l-41 41l143 143l-143 143z" />
    <glyph glyph-name="cid570" 
d="M689 48h-579v578h579v-578zM169 568v-462h463v462h-463zM257 521l143 -143l143 143l41 -41l-143 -143l143 -143l-41 -41l-143 143l-143 -143l-41 41l143 143l-143 143z" />
    <glyph glyph-name="cid571" 
d="M689 48h-579v578h579v-578zM169 568v-462h463v462h-463zM257 521l143 -143l143 143l41 -41l-143 -143l143 -143l-41 -41l-143 143l-143 -143l-41 41l143 143l-143 143z" />
    <glyph glyph-name="cid572" 
d="M689 48h-579v578h579v-578zM169 568v-462h463v462h-463zM257 521l143 -143l143 143l41 -41l-143 -143l143 -143l-41 -41l-143 143l-143 -143l-41 41l143 143l-143 143z" />
    <glyph glyph-name="cid573" 
d="M689 48h-579v578h579v-578zM169 568v-462h463v462h-463zM257 521l143 -143l143 143l41 -41l-143 -143l143 -143l-41 -41l-143 143l-143 -143l-41 41l143 143l-143 143z" />
    <glyph glyph-name="cid574" 
d="M689 48h-579v578h579v-578zM169 568v-462h463v462h-463zM257 521l143 -143l143 143l41 -41l-143 -143l143 -143l-41 -41l-143 143l-143 -143l-41 41l143 143l-143 143z" />
    <glyph glyph-name="cid575" 
d="M689 48h-579v578h579v-578zM169 568v-462h463v462h-463zM257 521l143 -143l143 143l41 -41l-143 -143l143 -143l-41 -41l-143 143l-143 -143l-41 41l143 143l-143 143z" />
    <glyph glyph-name="cid576" 
d="M689 48h-579v578h579v-578zM169 568v-462h463v462h-463zM257 521l143 -143l143 143l41 -41l-143 -143l143 -143l-41 -41l-143 143l-143 -143l-41 41l143 143l-143 143z" />
    <glyph glyph-name="cid577" 
d="M689 48h-579v578h579v-578zM169 568v-462h463v462h-463zM257 521l143 -143l143 143l41 -41l-143 -143l143 -143l-41 -41l-143 143l-143 -143l-41 41l143 143l-143 143z" />
    <glyph glyph-name="cid578" 
d="M689 48h-579v578h579v-578zM169 568v-462h463v462h-463zM257 521l143 -143l143 143l41 -41l-143 -143l143 -143l-41 -41l-143 143l-143 -143l-41 41l143 143l-143 143z" />
    <glyph glyph-name="cid579" 
d="M689 48h-579v578h579v-578zM169 568v-462h463v462h-463zM257 521l143 -143l143 143l41 -41l-143 -143l143 -143l-41 -41l-143 143l-143 -143l-41 41l143 143l-143 143z" />
    <glyph glyph-name="cid580" 
d="M689 48h-579v578h579v-578zM169 568v-462h463v462h-463zM257 521l143 -143l143 143l41 -41l-143 -143l143 -143l-41 -41l-143 143l-143 -143l-41 41l143 143l-143 143z" />
    <glyph glyph-name="cid581" 
d="M689 48h-579v578h579v-578zM169 568v-462h463v462h-463zM257 521l143 -143l143 143l41 -41l-143 -143l143 -143l-41 -41l-143 143l-143 -143l-41 41l143 143l-143 143z" />
    <glyph glyph-name="cid582" 
d="M689 48h-579v578h579v-578zM169 568v-462h463v462h-463zM257 521l143 -143l143 143l41 -41l-143 -143l143 -143l-41 -41l-143 143l-143 -143l-41 41l143 143l-143 143z" />
    <glyph glyph-name="cid583" 
d="M689 48h-579v578h579v-578zM169 568v-462h463v462h-463zM257 521l143 -143l143 143l41 -41l-143 -143l143 -143l-41 -41l-143 143l-143 -143l-41 41l143 143l-143 143z" />
    <glyph glyph-name="cid584" 
d="M689 48h-579v578h579v-578zM169 568v-462h463v462h-463zM257 521l143 -143l143 143l41 -41l-143 -143l143 -143l-41 -41l-143 143l-143 -143l-41 41l143 143l-143 143z" />
    <glyph glyph-name="cid585" 
d="M689 48h-579v578h579v-578zM169 568v-462h463v462h-463zM257 521l143 -143l143 143l41 -41l-143 -143l143 -143l-41 -41l-143 143l-143 -143l-41 41l143 143l-143 143z" />
    <glyph glyph-name="cid586" 
d="M689 48h-579v578h579v-578zM169 568v-462h463v462h-463zM257 521l143 -143l143 143l41 -41l-143 -143l143 -143l-41 -41l-143 143l-143 -143l-41 41l143 143l-143 143z" />
    <glyph glyph-name="cid587" 
d="M689 48h-579v578h579v-578zM169 568v-462h463v462h-463zM257 521l143 -143l143 143l41 -41l-143 -143l143 -143l-41 -41l-143 143l-143 -143l-41 41l143 143l-143 143z" />
    <glyph glyph-name="cid588" 
d="M689 48h-579v578h579v-578zM169 568v-462h463v462h-463zM257 521l143 -143l143 143l41 -41l-143 -143l143 -143l-41 -41l-143 143l-143 -143l-41 41l143 143l-143 143z" />
    <glyph glyph-name="cid589" 
d="M689 48h-579v578h579v-578zM169 568v-462h463v462h-463zM257 521l143 -143l143 143l41 -41l-143 -143l143 -143l-41 -41l-143 143l-143 -143l-41 41l143 143l-143 143z" />
    <glyph glyph-name="cid590" 
d="M689 48h-579v578h579v-578zM169 568v-462h463v462h-463zM257 521l143 -143l143 143l41 -41l-143 -143l143 -143l-41 -41l-143 143l-143 -143l-41 41l143 143l-143 143z" />
    <glyph glyph-name="cid591" 
d="M689 48h-579v578h579v-578zM169 568v-462h463v462h-463zM257 521l143 -143l143 143l41 -41l-143 -143l143 -143l-41 -41l-143 143l-143 -143l-41 41l143 143l-143 143z" />
    <glyph glyph-name="cid592" 
d="M689 48h-579v578h579v-578zM169 568v-462h463v462h-463zM257 521l143 -143l143 143l41 -41l-143 -143l143 -143l-41 -41l-143 143l-143 -143l-41 41l143 143l-143 143z" />
    <glyph glyph-name="cid593" 
d="M689 48h-579v578h579v-578zM169 568v-462h463v462h-463zM257 521l143 -143l143 143l41 -41l-143 -143l143 -143l-41 -41l-143 143l-143 -143l-41 41l143 143l-143 143z" />
    <glyph glyph-name="cid594" 
d="M689 48h-579v578h579v-578zM169 568v-462h463v462h-463zM257 521l143 -143l143 143l41 -41l-143 -143l143 -143l-41 -41l-143 143l-143 -143l-41 41l143 143l-143 143z" />
    <glyph glyph-name="cid595" 
d="M689 48h-579v578h579v-578zM169 568v-462h463v462h-463zM257 521l143 -143l143 143l41 -41l-143 -143l143 -143l-41 -41l-143 143l-143 -143l-41 41l143 143l-143 143z" />
    <glyph glyph-name="cid596" 
d="M689 48h-579v578h579v-578zM169 568v-462h463v462h-463zM257 521l143 -143l143 143l41 -41l-143 -143l143 -143l-41 -41l-143 143l-143 -143l-41 41l143 143l-143 143z" />
    <glyph glyph-name="cid597" 
d="M689 48h-579v578h579v-578zM169 568v-462h463v462h-463zM257 521l143 -143l143 143l41 -41l-143 -143l143 -143l-41 -41l-143 143l-143 -143l-41 41l143 143l-143 143z" />
    <glyph glyph-name="cid598" 
d="M689 48h-579v578h579v-578zM169 568v-462h463v462h-463zM257 521l143 -143l143 143l41 -41l-143 -143l143 -143l-41 -41l-143 143l-143 -143l-41 41l143 143l-143 143z" />
    <glyph glyph-name="cid599" 
d="M689 48h-579v578h579v-578zM169 568v-462h463v462h-463zM257 521l143 -143l143 143l41 -41l-143 -143l143 -143l-41 -41l-143 143l-143 -143l-41 41l143 143l-143 143z" />
    <glyph glyph-name="cid600" 
d="M689 48h-579v578h579v-578zM169 568v-462h463v462h-463zM257 521l143 -143l143 143l41 -41l-143 -143l143 -143l-41 -41l-143 143l-143 -143l-41 41l143 143l-143 143z" />
    <glyph glyph-name="cid601" 
d="M689 48h-579v578h579v-578zM169 568v-462h463v462h-463zM257 521l143 -143l143 143l41 -41l-143 -143l143 -143l-41 -41l-143 143l-143 -143l-41 41l143 143l-143 143z" />
    <glyph glyph-name="cid602" 
d="M689 48h-579v578h579v-578zM169 568v-462h463v462h-463zM257 521l143 -143l143 143l41 -41l-143 -143l143 -143l-41 -41l-143 143l-143 -143l-41 41l143 143l-143 143z" />
    <glyph glyph-name="cid603" 
d="M689 48h-579v578h579v-578zM169 568v-462h463v462h-463zM257 521l143 -143l143 143l41 -41l-143 -143l143 -143l-41 -41l-143 143l-143 -143l-41 41l143 143l-143 143z" />
    <glyph glyph-name="cid604" 
d="M689 48h-579v578h579v-578zM169 568v-462h463v462h-463zM257 521l143 -143l143 143l41 -41l-143 -143l143 -143l-41 -41l-143 143l-143 -143l-41 41l143 143l-143 143z" />
    <glyph glyph-name="cid605" 
d="M689 48h-579v578h579v-578zM169 568v-462h463v462h-463zM257 521l143 -143l143 143l41 -41l-143 -143l143 -143l-41 -41l-143 143l-143 -143l-41 41l143 143l-143 143z" />
    <glyph glyph-name="cid606" 
d="M689 48h-579v578h579v-578zM169 568v-462h463v462h-463zM257 521l143 -143l143 143l41 -41l-143 -143l143 -143l-41 -41l-143 143l-143 -143l-41 41l143 143l-143 143z" />
    <glyph glyph-name="cid607" 
d="M689 48h-579v578h579v-578zM169 568v-462h463v462h-463zM257 521l143 -143l143 143l41 -41l-143 -143l143 -143l-41 -41l-143 143l-143 -143l-41 41l143 143l-143 143z" />
    <glyph glyph-name="cid608" 
d="M689 48h-579v578h579v-578zM169 568v-462h463v462h-463zM257 521l143 -143l143 143l41 -41l-143 -143l143 -143l-41 -41l-143 143l-143 -143l-41 41l143 143l-143 143z" />
    <glyph glyph-name="cid609" 
d="M689 48h-579v578h579v-578zM169 568v-462h463v462h-463zM257 521l143 -143l143 143l41 -41l-143 -143l143 -143l-41 -41l-143 143l-143 -143l-41 41l143 143l-143 143z" />
    <glyph glyph-name="cid610" 
d="M689 48h-579v578h579v-578zM169 568v-462h463v462h-463zM257 521l143 -143l143 143l41 -41l-143 -143l143 -143l-41 -41l-143 143l-143 -143l-41 41l143 143l-143 143z" />
    <glyph glyph-name="cid611" 
d="M689 48h-579v578h579v-578zM169 568v-462h463v462h-463zM257 521l143 -143l143 143l41 -41l-143 -143l143 -143l-41 -41l-143 143l-143 -143l-41 41l143 143l-143 143z" />
    <glyph glyph-name="cid612" 
d="M689 48h-579v578h579v-578zM169 568v-462h463v462h-463zM257 521l143 -143l143 143l41 -41l-143 -143l143 -143l-41 -41l-143 143l-143 -143l-41 41l143 143l-143 143z" />
    <glyph glyph-name="cid613" 
d="M689 48h-579v578h579v-578zM169 568v-462h463v462h-463zM257 521l143 -143l143 143l41 -41l-143 -143l143 -143l-41 -41l-143 143l-143 -143l-41 41l143 143l-143 143z" />
    <glyph glyph-name="cid614" 
d="M689 48h-579v578h579v-578zM169 568v-462h463v462h-463zM257 521l143 -143l143 143l41 -41l-143 -143l143 -143l-41 -41l-143 143l-143 -143l-41 41l143 143l-143 143z" />
    <glyph glyph-name="cid615" 
d="M689 48h-579v578h579v-578zM169 568v-462h463v462h-463zM257 521l143 -143l143 143l41 -41l-143 -143l143 -143l-41 -41l-143 143l-143 -143l-41 41l143 143l-143 143z" />
    <glyph glyph-name="cid616" 
d="M689 48h-579v578h579v-578zM169 568v-462h463v462h-463zM257 521l143 -143l143 143l41 -41l-143 -143l143 -143l-41 -41l-143 143l-143 -143l-41 41l143 143l-143 143z" />
    <glyph glyph-name="cid617" 
d="M689 48h-579v578h579v-578zM169 568v-462h463v462h-463zM257 521l143 -143l143 143l41 -41l-143 -143l143 -143l-41 -41l-143 143l-143 -143l-41 41l143 143l-143 143z" />
    <glyph glyph-name="cid618" 
d="M689 48h-579v578h579v-578zM169 568v-462h463v462h-463zM257 521l143 -143l143 143l41 -41l-143 -143l143 -143l-41 -41l-143 143l-143 -143l-41 41l143 143l-143 143z" />
    <glyph glyph-name="cid619" 
d="M689 48h-579v578h579v-578zM169 568v-462h463v462h-463zM257 521l143 -143l143 143l41 -41l-143 -143l143 -143l-41 -41l-143 143l-143 -143l-41 41l143 143l-143 143z" />
    <glyph glyph-name="cid620" 
d="M689 48h-579v578h579v-578zM169 568v-462h463v462h-463zM257 521l143 -143l143 143l41 -41l-143 -143l143 -143l-41 -41l-143 143l-143 -143l-41 41l143 143l-143 143z" />
    <glyph glyph-name="cid621" 
d="M689 48h-579v578h579v-578zM169 568v-462h463v462h-463zM257 521l143 -143l143 143l41 -41l-143 -143l143 -143l-41 -41l-143 143l-143 -143l-41 41l143 143l-143 143z" />
    <glyph glyph-name="cid622" 
d="M689 48h-579v578h579v-578zM169 568v-462h463v462h-463zM257 521l143 -143l143 143l41 -41l-143 -143l143 -143l-41 -41l-143 143l-143 -143l-41 41l143 143l-143 143z" />
    <glyph glyph-name="cid623" 
d="M689 48h-579v578h579v-578zM169 568v-462h463v462h-463zM257 521l143 -143l143 143l41 -41l-143 -143l143 -143l-41 -41l-143 143l-143 -143l-41 41l143 143l-143 143z" />
    <glyph glyph-name="cid624" 
d="M689 48h-579v578h579v-578zM169 568v-462h463v462h-463zM257 521l143 -143l143 143l41 -41l-143 -143l143 -143l-41 -41l-143 143l-143 -143l-41 41l143 143l-143 143z" />
    <glyph glyph-name="cid625" 
d="M689 48h-579v578h579v-578zM169 568v-462h463v462h-463zM257 521l143 -143l143 143l41 -41l-143 -143l143 -143l-41 -41l-143 143l-143 -143l-41 41l143 143l-143 143z" />
    <glyph glyph-name="cid626" 
d="M689 48h-579v578h579v-578zM169 568v-462h463v462h-463zM257 521l143 -143l143 143l41 -41l-143 -143l143 -143l-41 -41l-143 143l-143 -143l-41 41l143 143l-143 143z" />
    <glyph glyph-name="cid627" 
d="M689 48h-579v578h579v-578zM169 568v-462h463v462h-463zM257 521l143 -143l143 143l41 -41l-143 -143l143 -143l-41 -41l-143 143l-143 -143l-41 41l143 143l-143 143z" />
    <glyph glyph-name="cid628" 
d="M689 48h-579v578h579v-578zM169 568v-462h463v462h-463zM257 521l143 -143l143 143l41 -41l-143 -143l143 -143l-41 -41l-143 143l-143 -143l-41 41l143 143l-143 143z" />
    <glyph glyph-name="cid629" 
d="M689 48h-579v578h579v-578zM169 568v-462h463v462h-463zM257 521l143 -143l143 143l41 -41l-143 -143l143 -143l-41 -41l-143 143l-143 -143l-41 41l143 143l-143 143z" />
    <glyph glyph-name="cid630" 
d="M689 48h-579v578h579v-578zM169 568v-462h463v462h-463zM257 521l143 -143l143 143l41 -41l-143 -143l143 -143l-41 -41l-143 143l-143 -143l-41 41l143 143l-143 143z" />
    <glyph glyph-name="cid631" 
d="M689 48h-579v578h579v-578zM169 568v-462h463v462h-463zM257 521l143 -143l143 143l41 -41l-143 -143l143 -143l-41 -41l-143 143l-143 -143l-41 41l143 143l-143 143z" />
    <glyph glyph-name="cid632" 
d="M689 48h-579v578h579v-578zM169 568v-462h463v462h-463zM257 521l143 -143l143 143l41 -41l-143 -143l143 -143l-41 -41l-143 143l-143 -143l-41 41l143 143l-143 143z" />
    <glyph glyph-name="cid633" unicode="&#x3000;" 
 />
    <glyph glyph-name="cid634" unicode="&#x3001;" horiz-adv-x="390" 
d="M70 182q21 -19 42.5 -40.5t42.5 -43t40 -43t34 -39.5l-57 -47q-12 17 -30 39t-38.5 45t-42 45.5t-41.5 40.5z" />
    <glyph glyph-name="cid635" unicode="&#x3002;" horiz-adv-x="461" 
d="M227 72q0 -21 -8 -39.5t-22 -32.5t-33 -22t-40 -8q-22 0 -41 8t-33 22t-22 33t-8 40t8 40t22 33t33 22t41 8q21 0 40 -8t33 -22t22 -33t8 -40v-1zM53 72q0 -28 21 -48.5t50 -20.5t49.5 20.5t20.5 49.5t-20.5 50t-49.5 21t-50 -21t-21 -50v-1z" />
    <glyph glyph-name="cid636" unicode="&#xff0c;" 
d="M111 116h-4q-21 0 -37.5 14t-16.5 34q0 23 16 38.5t37 15.5q24 0 38.5 -21.5t14.5 -62.5q0 -34 -10.5 -62t-26 -48t-33 -31t-32.5 -11v26q0 2 3.5 4.5t7.5 4.5q7 4 16.5 10.5t17 17.5t13 27.5t5.5 39.5z" />
    <glyph glyph-name="cid637" unicode="&#xff0e;" 
d="M158 33h-81v91h81v-91z" />
    <glyph glyph-name="cid638" unicode="&#x30fb;" horiz-adv-x="404" 
d="M210 276q-25 0 -42.5 17.5t-17.5 43.5q0 25 17.5 43t43.5 18q25 0 43 -18t18 -43q0 -26 -18 -43.5t-43 -17.5h-1z" />
    <glyph glyph-name="cid639" unicode="&#xff1a;" horiz-adv-x="492" 
d="M200 477q0 23 16 39t39 16t39 -16t16 -39t-16 -39t-39 -16t-39 16t-16 39zM200 118q0 23 16 39t39 16t39 -16t16 -39t-16 -39t-39 -16t-39 16t-16 39z" />
    <glyph glyph-name="cid640" unicode="&#xff1b;" 
d="M435 406q0 -26 -16 -40.5t-36 -14.5t-35 14.5t-15 40.5q0 25 14 40t37 15t37.5 -15t13.5 -40zM397 14h-5q-21 0 -37 14.5t-16 34.5q0 22 15.5 38t36.5 16q25 0 39 -21t14 -62q0 -34 -10.5 -62t-26 -48.5t-33 -32t-31.5 -11.5v27q0 2 3.5 4.5t7.5 4.5q7 4 16 10.5t17 17.5
t13.5 27t5.5 39z" />
    <glyph glyph-name="cid641" unicode="&#xff1f;" horiz-adv-x="532" 
d="M100 604q17 14 37.5 24.5t42 17.5t43.5 10.5t41 3.5q43 0 74.5 -12t52.5 -33t31 -50t10 -63q0 -56 -22.5 -91t-63.5 -65q-21 -15 -33.5 -30.5t-20 -32t-10 -36.5t-2.5 -44h-64q0 58 13 98t54 73q18 15 32 28t24 27.5t15 30.5t5 36q0 45 -27 72t-81 27q-29 0 -66 -13
t-66 -39zM290 122v-89h-79v89h79z" />
    <glyph glyph-name="cid642" unicode="&#xff01;" 
d="M450 647v-219l-7 -206h-62l-8 206v219h77zM451 122v-89h-78v89h78z" />
    <glyph glyph-name="cid643" unicode="&#x309b;" 
d="M159 705q23 -21 45.5 -47t41.5 -53l-34 -24q-17 26 -38.5 52t-44.5 46zM66 641q23 -22 44.5 -49t38.5 -54l-34 -24q-16 27 -36.5 54t-43.5 49z" />
    <glyph glyph-name="cid644" unicode="&#x309c;" 
d="M200 621q0 -33 -24 -57t-59 -24q-34 0 -58 24t-24 58q0 35 24 59t58 24q35 0 59 -24t24 -59v-1zM61 621q0 -22 16.5 -39t39.5 -17t40 17t17 40t-17 40t-40 17t-39.5 -17t-16.5 -40v-1z" />
    <glyph glyph-name="acute" unicode="&#xb4;" horiz-adv-x="300" 
d="M293 683l-121 -141h-55l87 141h89z" />
    <glyph glyph-name="cid646" unicode="&#xff40;" 
d="M375 669l103 -106l-40 -10l-128 102z" />
    <glyph glyph-name="dieresis" unicode="&#xa8;" horiz-adv-x="300" 
d="M295 605q0 -20 -13 -33.5t-33 -13.5q-19 0 -32 14t-13 33t13.5 33t32.5 14q20 0 32.5 -14t12.5 -33zM117 605q0 -20 -12.5 -33.5t-32.5 -13.5t-32.5 14t-12.5 33t13.5 33t32.5 14t31.5 -14t12.5 -33z" />
    <glyph glyph-name="cid648" unicode="&#xff3e;" 
d="M324 555l-38 10l100 104h47l99 -104l-39 -10l-84 69z" />
    <glyph glyph-name="cid649" unicode="&#xffe3;" 
d="M799 741v-54h-799v54h799z" />
    <glyph glyph-name="cid650" unicode="&#xff3f;" 
d="M799 -5v-54h-799v54h799z" />
    <glyph glyph-name="cid651" 
 />
    <glyph glyph-name="cid652" 
 />
    <glyph glyph-name="cid653" 
 />
    <glyph glyph-name="cid654" 
 />
    <glyph glyph-name="cid655" 
 />
    <glyph glyph-name="cid656" 
 />
    <glyph glyph-name="cid657" unicode="&#x3005;" horiz-adv-x="715" 
d="M274 280q32 -21 62 -41t57 -41q48 57 91.5 122t75.5 124h-246q-42 -69 -93 -132t-111 -118l-61 37q102 88 177.5 199t115.5 231l67 -19q-12 -34 -27 -68t-33 -67h239h21h11l45 -25q-20 -39 -45 -80t-53.5 -82.5t-59.5 -82.5t-63 -78q28 -23 51.5 -45t44.5 -43l-50 -52
q-46 53 -111.5 107t-147.5 108z" />
    <glyph glyph-name="cid658" unicode="&#x3006;" 
d="M408 394q-69 49 -114 49q-17 0 -30.5 -8.5t-24.5 -28t-19.5 -51.5t-15.5 -79q-5 -26 -9 -56.5t-9 -62.5q112 127 222 237zM144 281q11 67 25 110.5t31.5 69t38.5 35.5t46 10q72 0 167 -69q44 43 86 82t82 75q-19 2 -50 7t-62 11l15 64q21 -6 48 -11t53.5 -9t49.5 -6
t38 -2l22 -48q-58 -46 -116 -96.5t-118 -105.5q81 -71 163 -179l-57 -45q-38 57 -76.5 102t-74.5 78q-85 -83 -164 -171.5t-149 -182.5l-53 42l11 14q17 57 26 114t18 111z" />
    <glyph glyph-name="cid659" unicode="&#x3007;" 
d="M750 337q0 -71 -27 -134t-73.5 -109.5t-109.5 -73.5t-134 -27q-72 0 -134.5 27t-109 73.5t-73.5 109.5t-27 134t27 134t73.5 109.5t109 73.5t134.5 27q71 0 134 -27t109.5 -73.5t73.5 -109.5t27 -134zM681 337q0 57 -21.5 107t-59 87.5t-87.5 59t-107 21.5t-107 -21.5
t-87.5 -59t-59 -87.5t-21.5 -107t21.5 -107t59 -87.5t87.5 -59t107 -21.5t107 21.5t87.5 59t59 87.5t21.5 107z" />
    <glyph glyph-name="cid660" unicode="&#x30fc;" horiz-adv-x="691" 
d="M671 372v-74h-651v74h651z" />
    <glyph glyph-name="uni2015" unicode="&#x2015;" horiz-adv-x="1000" 
d="M970 281v-54h-940v54h940z" />
    <glyph glyph-name="cid662" 
d="M689 48h-579v578h579v-578zM169 568v-462h463v462h-463zM257 521l143 -143l143 143l41 -41l-143 -143l143 -143l-41 -41l-143 143l-143 -143l-41 41l143 143l-143 143z" />
    <glyph glyph-name="cid663" unicode="&#xff0f;" 
d="M723 701l39 -37l-682 -681l-38 37z" />
    <glyph glyph-name="cid664" 
 />
    <glyph glyph-name="cid665" unicode="&#x301c;" 
d="M408 375q23 -14 56.5 -27.5t73.5 -13.5q39 0 73.5 18.5t60.5 56.5l50 -33q-14 -22 -31.5 -42t-40 -35.5t-50.5 -24.5t-63 -9t-70.5 10t-70.5 32q-24 14 -57 28.5t-74 14.5q-81 0 -133 -76l-51 34q13 22 30.5 42t40 35.5t51 24.5t64.5 9q71 0 141 -44z" />
    <glyph glyph-name="cid666" unicode="&#x2016;" 
d="M689 48h-579v578h579v-578zM169 568v-462h463v462h-463zM257 521l143 -143l143 143l41 -41l-143 -143l143 -143l-41 -41l-143 143l-143 -143l-41 41l143 143l-143 143z" />
    <glyph glyph-name="cid667" unicode="&#xff5c;" 
d="M435 717v-752h-54v752h54z" />
    <glyph glyph-name="ellipsis" unicode="&#x2026;" horiz-adv-x="1000" 
d="M899 47q0 -29 -16.5 -43.5t-37.5 -14.5t-37 15t-16 43q0 25 15 41.5t39 16.5t38.5 -16.5t14.5 -41.5zM567 47q0 -29 -16.5 -43.5t-38.5 -14.5q-23 0 -37.5 16.5t-14.5 41.5t15 41.5t39 16.5t38.5 -16.5t14.5 -41.5zM235 47q0 -29 -16.5 -43.5t-38.5 -14.5t-37.5 16.5
t-15.5 41.5t15.5 41.5t38.5 16.5q24 0 39 -16.5t15 -41.5z" />
    <glyph glyph-name="cid669" unicode="&#x2025;" 
d="M207 294q-17 0 -29.5 12.5t-12.5 30.5t12.5 30.5t30.5 12.5t30.5 -12.5t12.5 -30.5t-12.5 -30.5t-30.5 -12.5h-1zM607 294q-17 0 -30 12.5t-13 30.5t13 30.5t31 12.5t30.5 -12.5t12.5 -30.5t-12.5 -30.5t-30.5 -12.5h-1z" />
    <glyph glyph-name="cid670" 
d="M689 48h-579v578h579v-578zM169 568v-462h463v462h-463zM257 521l143 -143l143 143l41 -41l-143 -143l143 -143l-41 -41l-143 143l-143 -143l-41 41l143 143l-143 143z" />
    <glyph glyph-name="cid671" 
d="M689 48h-579v578h579v-578zM169 568v-462h463v462h-463zM257 521l143 -143l143 143l41 -41l-143 -143l143 -143l-41 -41l-143 143l-143 -143l-41 41l143 143l-143 143z" />
    <glyph glyph-name="cid672" 
d="M689 48h-579v578h579v-578zM169 568v-462h463v462h-463zM257 521l143 -143l143 143l41 -41l-143 -143l143 -143l-41 -41l-143 143l-143 -143l-41 41l143 143l-143 143z" />
    <glyph glyph-name="cid673" 
d="M689 48h-579v578h579v-578zM169 568v-462h463v462h-463zM257 521l143 -143l143 143l41 -41l-143 -143l143 -143l-41 -41l-143 143l-143 -143l-41 41l143 143l-143 143z" />
    <glyph glyph-name="cid674" unicode="&#xff08;" horiz-adv-x="415" 
d="M220 341q0 130 34 231.5t100 167.5l56 -15q-63 -69 -91.5 -170.5t-28.5 -214.5q0 -56 7 -110t21.5 -103.5t37 -92.5t54.5 -76l-56 -15q-66 66 -100 167.5t-34 229.5v1z" />
    <glyph glyph-name="cid675" unicode="&#xff09;" horiz-adv-x="414" 
d="M209 339q0 -128 -34 -229t-99 -167l-56 15q31 33 54 76t37.5 92.5t21.5 103.5t7 110q0 113 -28.5 214.5t-91.5 170.5l56 15q65 -66 99 -167.5t34 -232.5v-1z" />
    <glyph glyph-name="cid676" unicode="&#x3014;" 
d="M774 672l-163 -83v-503l163 -83l-19 -36l-188 94v553l188 94z" />
    <glyph glyph-name="cid677" unicode="&#x3015;" 
d="M235 614v-553l-188 -94l-18 36l162 83v503l-162 83l18 36z" />
    <glyph glyph-name="cid678" unicode="&#xff3b;" 
d="M573 706h200v-41h-157v-656h157v-42h-200v739z" />
    <glyph glyph-name="cid679" unicode="&#xff3d;" 
d="M26 -33v42h156v656h-156v41h200v-739h-200z" />
    <glyph glyph-name="cid680" unicode="&#xff5b;" 
d="M601 341q59 -28 59 -106v-153q0 -48 13.5 -66.5t44.5 -18.5h56v-48h-71q-109 0 -109 122v174q0 35 -12 55.5t-41 25.5v30q29 4 41 24.5t12 55.5v175q0 122 109 122h71v-48h-56q-31 0 -44.5 -18.5t-13.5 -66.5v-154q0 -79 -59 -105z" />
    <glyph glyph-name="cid681" unicode="&#xff5d;" 
d="M213 341q-59 26 -59 105v154q0 48 -13.5 66.5t-44.5 18.5h-56v48h70q57 0 83 -30t26 -92v-174q0 -35 12 -55.5t42 -25.5v-30q-30 -5 -42 -25.5t-12 -55.5v-174q0 -61 -26 -91.5t-83 -30.5h-70v48h56q31 0 44.5 18.5t13.5 66.5v154q0 78 59 105z" />
    <glyph glyph-name="cid682" unicode="&#x3008;" 
d="M780 -13l-35 -21l-256 371l256 371l35 -22l-242 -349z" />
    <glyph glyph-name="cid683" unicode="&#x3009;" 
d="M29 686l34 22l256 -371l-256 -371l-34 21l241 350z" />
    <glyph glyph-name="cid684" unicode="&#x300a;" 
d="M686 -20l-36 -14l-179 371l179 371l36 -15l-172 -356zM781 -20l-36 -14l-180 371l180 371l36 -15l-172 -356z" />
    <glyph glyph-name="cid685" unicode="&#x300b;" 
d="M26 693l36 15l180 -371l-180 -371l-36 14l172 357zM122 693l36 15l179 -371l-179 -371l-36 14l171 357z" />
    <glyph glyph-name="cid686" unicode="&#x300c;" horiz-adv-x="511" 
d="M501 672h-237v-474h-44v515h281v-41z" />
    <glyph glyph-name="cid687" unicode="&#x300d;" horiz-adv-x="510" 
d="M20 2h237v474h44v-516h-281v42z" />
    <glyph glyph-name="cid688" unicode="&#x300e;" horiz-adv-x="525" 
d="M319 616v-411h-99v509h286v-98h-187zM240 695v-471h59v412h187v59h-246z" />
    <glyph glyph-name="cid689" unicode="&#x300f;" horiz-adv-x="525" 
d="M207 59v411h99v-511h-286v100h187zM287 -21v471h-60v-411h-187v-60h247z" />
    <glyph glyph-name="cid690" unicode="&#x3010;" 
d="M773 708v-3q-34 -29 -63.5 -67t-51 -84.5t-34 -101t-12.5 -115.5t12.5 -115.5t34 -101t51 -84.5t63.5 -67v-3h-232v742h232z" />
    <glyph glyph-name="cid691" unicode="&#x3011;" 
d="M261 -34h-232v3q34 29 64 67t51.5 84.5t34 101t12.5 115.5t-12.5 115.5t-34 101t-51.5 84.5t-64 67v3h232v-742z" />
    <glyph glyph-name="cid692" unicode="&#xff0b;" 
d="M700 368v-54h-273v-273h-54v273h-273v54h273v273h54v-273h273z" />
    <glyph glyph-name="cid693" 
 />
    <glyph glyph-name="cid694" 
d="M689 48h-579v578h579v-578zM169 568v-462h463v462h-463zM257 521l143 -143l143 143l41 -41l-143 -143l143 -143l-41 -41l-143 143l-143 -143l-41 41l143 143l-143 143z" />
    <glyph glyph-name="cid695" 
d="M689 48h-579v578h579v-578zM169 568v-462h463v462h-463zM257 521l143 -143l143 143l41 -41l-143 -143l143 -143l-41 -41l-143 143l-143 -143l-41 41l143 143l-143 143z" />
    <glyph glyph-name="cid696" 
d="M689 48h-579v578h579v-578zM169 568v-462h463v462h-463zM257 521l143 -143l143 143l41 -41l-143 -143l143 -143l-41 -41l-143 143l-143 -143l-41 41l143 143l-143 143z" />
    <glyph glyph-name="cid697" unicode="&#xff1d;" 
d="M700 406h-600v55h600v-55zM700 221h-600v54h600v-54z" />
    <glyph glyph-name="cid698" unicode="&#x2260;" horiz-adv-x="1000" 
d="M862 19h-724v723h724v-723zM211 669v-578h579v578h-579zM321 610l179 -178l179 178l51 -51l-179 -179l179 -178l-51 -52l-179 179l-179 -179l-51 52l179 178l-179 179z" />
    <glyph glyph-name="cid699" unicode="&#xff1c;" 
d="M110 346l528 291l23 -48l-459 -248l459 -249l-23 -47l-528 290v11z" />
    <glyph glyph-name="cid700" unicode="&#xff1e;" 
d="M697 335l-529 -290l-23 47l460 249l-460 248l23 48l529 -291v-11z" />
    <glyph glyph-name="cid701" 
 />
    <glyph glyph-name="cid702" 
 />
    <glyph glyph-name="cid703" unicode="&#x221e;" 
d="M689 48h-579v578h579v-578zM169 568v-462h463v462h-463zM257 521l143 -143l143 143l41 -41l-143 -143l143 -143l-41 -41l-143 143l-143 -143l-41 41l143 143l-143 143z" />
    <glyph glyph-name="cid704" 
 />
    <glyph glyph-name="cid705" unicode="&#x2642;" 
d="M438 259q37 -19 59 -54.5t22 -80.5q0 -32 -12 -60t-33 -49t-49 -33t-60 -12q-33 0 -61 12t-49 33t-33 49t-12 60t12 60t33 49t49 33t61 12q6 0 13 -0.5t13 -2.5l115 347l-163 -115l-30 41l238 160l12 -4l99 -268l-47 -17l-63 189zM364 228q-21 0 -40 -8t-33 -22t-22 -33
t-8 -41q0 -21 8 -40t22 -33.5t33 -22.5t41 -8q21 0 40 8t33.5 22.5t22.5 33.5t8 40q0 22 -8 41t-22.5 33t-33.5 22t-40 8h-1z" />
    <glyph glyph-name="cid706" unicode="&#x2640;" 
d="M427 294h220v-54h-220v-280h-54v280h-220v54h220v86q-27 4 -50.5 17.5t-41 33.5t-27 45.5t-9.5 54.5q0 32 12 60.5t33 49.5t49 33t61 12q32 0 60 -12t49 -33t33 -49.5t12 -60.5q0 -29 -9.5 -54.5t-26.5 -45.5t-40.5 -33.5t-50.5 -17.5v-86zM399 635q-21 0 -40 -8t-33 -22
t-22 -33t-8 -41q0 -21 8 -40.5t22 -33.5t33 -22.5t41 -8.5q21 0 40 8.5t33.5 22.5t22.5 33.5t8 40.5q0 22 -8 41t-22.5 33t-33.5 22t-40 8h-1z" />
    <glyph glyph-name="cid707" 
d="M689 48h-579v578h579v-578zM169 568v-462h463v462h-463zM257 521l143 -143l143 143l41 -41l-143 -143l143 -143l-41 -41l-143 143l-143 -143l-41 41l143 143l-143 143z" />
    <glyph glyph-name="minute" unicode="&#x2032;" horiz-adv-x="173" 
d="M177 691l-89 -231l-49 -6l57 228z" />
    <glyph glyph-name="second" unicode="&#x2033;" horiz-adv-x="292" 
d="M316 691l-89 -231l-49 -6l57 228zM177 691l-89 -231l-49 -6l57 228z" />
    <glyph glyph-name="centigrade" unicode="&#x2103;" horiz-adv-x="849" 
d="M288 558q0 -27 -10 -50.5t-27.5 -41.5t-41.5 -28.5t-51 -10.5t-50.5 10t-40.5 27t-27 40t-10 49q0 28 10 52.5t28 42.5t42 28t51 10t50.5 -9.5t40.5 -27t26.5 -41t9.5 -50.5zM239 557q0 37 -22 61.5t-58 24.5t-57 -26.5t-21 -62.5q0 -35 22 -59.5t57 -24.5t57 25.5
t22 61.5zM822 593q-57 27 -132 27q-62 0 -110.5 -20t-83 -57t-52.5 -90.5t-18 -119.5q0 -65 17.5 -116.5t51 -87.5t81.5 -55t109 -19q83 0 140 27l17 -61q-61 -31 -174 -31q-73 0 -132.5 24t-101.5 68.5t-65 107.5t-23 141q0 79 24.5 144t69.5 111.5t108 72t140 25.5
q98 0 154 -29z" />
    <glyph glyph-name="cid711" unicode="&#xffe5;" 
d="M437 33h-66v173h-194v48h194v60l-22 36h-172v46h144l-173 251h81l179 -280l171 280h79l-170 -251h144v-46h-173l-22 -35v-61h195v-48h-195v-173z" />
    <glyph glyph-name="cid712" unicode="&#xff04;" 
d="M377 43q-47 1 -93.5 11t-82.5 25l18 64q38 -17 84.5 -27.5t87.5 -10.5q21 0 40.5 4.5t35.5 16t25.5 30t9.5 46.5q0 42 -34.5 69.5t-95.5 53.5q-33 14 -60.5 27.5t-47 31.5t-30 41.5t-10.5 56.5q0 37 13 65t34.5 46.5t49 28.5t56.5 13v83h48v-82q43 -2 80 -12t60 -21
l-21 -61q-24 13 -61 23t-70 10q-20 0 -40.5 -4t-37 -14t-27.5 -27t-11 -44q0 -20 8.5 -34.5t24 -26.5t36.5 -22t47 -21q40 -17 71 -34.5t51 -38.5t30.5 -46t10.5 -57q0 -38 -11.5 -66.5t-32 -48.5t-48 -31t-59.5 -15v-99h-48v97v0z" />
    <glyph glyph-name="cid713" 
 />
    <glyph glyph-name="cid714" 
 />
    <glyph glyph-name="cid715" unicode="&#xff05;" 
d="M249 379q-33 0 -55.5 11t-36.5 30.5t-20.5 44.5t-6.5 54q0 28 6.5 53.5t20.5 44.5t37 30t56 11t56 -11t37.5 -30t20.5 -44.5t6 -53.5q0 -29 -6 -54t-20.5 -44.5t-37.5 -30.5t-56 -11h-1zM250 427q33 0 47.5 25t14.5 67t-14.5 67t-48.5 25t-48.5 -25t-14.5 -67t14.5 -67
t48.5 -25h1zM252 33h-63l378 614h63zM574 23q-33 0 -55.5 11t-36.5 30.5t-20.5 45t-6.5 54.5q0 28 6.5 53t20.5 44t37 30t56 11q34 0 57 -11t37 -30t20 -44t6 -53q0 -29 -6 -54.5t-20 -45t-37 -30.5t-57 -11h-1zM575 71q34 0 48 25t14 68q0 41 -14 66t-49 25
q-34 0 -48.5 -25t-14.5 -66q0 -43 14.5 -68t48.5 -25h1z" />
    <glyph glyph-name="cid716" unicode="&#xff03;" 
d="M326 33h-64l19 185h-84v60h88l14 148h-102v61h106l15 160h63l-15 -160h91l14 160h65l-17 -160h87v-61h-90l-15 -148h105v-60h-110l-17 -185h-62l17 185h-90zM438 278l14 148h-95l-13 -148h94z" />
    <glyph glyph-name="cid717" unicode="&#xff06;" horiz-adv-x="633" 
d="M548 20q-29 23 -55 45t-49 45q-32 -43 -80 -66.5t-100 -23.5q-33 0 -66 8.5t-59 28t-42.5 52.5t-16.5 81q0 35 10 62t27 48t39.5 36.5t48.5 27.5q-35 44 -50 81t-15 72q0 26 8.5 51.5t27.5 46t48 33t71 12.5q40 0 67 -12.5t43.5 -32.5t24 -45t7.5 -49q0 -60 -34 -99.5
t-102 -72.5q23 -30 58.5 -68t75.5 -74q16 27 29.5 67t21.5 83l67 -20q-11 -51 -29 -96t-38 -76q22 -20 51 -44.5t56 -44.5zM374 517q0 35 -19 60.5t-61 25.5q-24 0 -40 -8.5t-25.5 -21.5t-14 -29.5t-4.5 -32.5q0 -29 14 -59.5t40 -61.5q21 11 41 23t35.5 27t24.5 33.5
t9 43.5zM242 319q-42 -21 -66 -49.5t-24 -75.5q0 -45 27.5 -77.5t87.5 -32.5q38 0 71.5 18t56.5 53q-22 20 -44.5 42.5t-43 45t-37.5 42.5t-28 34z" />
    <glyph glyph-name="cid718" unicode="&#xff0a;" 
d="M615 493l27 -47l-183 -105l183 -106l-27 -46l-182 105v-211h-54v211l-183 -105l-27 46l183 106l-183 105l27 47l183 -106v211h54v-211z" />
    <glyph glyph-name="cid719" unicode="&#xff20;" 
d="M479 229q-6 -14 -17 -27t-25.5 -23t-31 -16.5t-32.5 -6.5q-59 0 -83.5 35t-24.5 95q0 40 10 81.5t30.5 75t51 54.5t72.5 21q39 0 61 -18.5t28 -44.5l13 45h45l-41 -198q-4 -17 -6.5 -33.5t-2.5 -29.5q0 -14 5.5 -24t26.5 -10q24 0 43.5 14.5t33 38.5t20.5 54.5t7 61.5
q0 52 -18 93t-50 69t-75 43t-94 15q-54 0 -101 -21.5t-81.5 -58t-54 -85.5t-19.5 -104q0 -58 18 -104t51.5 -78.5t80.5 -50t105 -17.5q63 0 113 12t91 32l14 -48q-43 -22 -99.5 -35t-119.5 -13q-72 0 -130.5 21.5t-100 61.5t-64 95.5t-22.5 124.5q0 66 25 123.5t67.5 100
t100.5 67t124 24.5q63 0 116.5 -18.5t93.5 -53.5t62.5 -84.5t22.5 -110.5q0 -50 -14 -90t-38 -69t-55.5 -44.5t-65.5 -15.5q-35 0 -50.5 19.5t-15.5 54.5zM325 294q0 -42 13.5 -64.5t43.5 -22.5q26 0 45.5 15.5t33 41t22.5 59t14 69.5q1 41 -14 61.5t-50 20.5q-27 0 -47 -18
t-33.5 -45t-20.5 -58.5t-7 -58.5z" />
    <glyph glyph-name="section" unicode="&#xa7;" horiz-adv-x="486" 
d="M452 296q0 -71 -64 -120q38 -35 38 -88q0 -34 -13.5 -61t-38 -46.5t-58.5 -30t-74 -10.5q-94 0 -150 41l23 51q52 -40 128 -40q51 0 82.5 22.5t31.5 64.5q0 36 -27 60.5t-97 48.5q-49 18 -81 34.5t-51.5 34.5t-27.5 39t-8 47q0 67 72 117q-17 14 -27 35t-10 47
q0 32 14 58t38 44t56.5 28t69.5 10q76 0 132 -33l-20 -51q-50 32 -116 32q-45 0 -75.5 -21.5t-30.5 -57.5q0 -16 5 -29t19.5 -24t39 -22.5t63.5 -24.5q44 -15 74 -31t48.5 -34.5t26.5 -40.5t8 -49zM388 286q0 28 -13 45.5t-39 31.5t-66 30t-95 42q-47 -35 -47 -82v-1
q0 -58 107 -97q42 -15 69.5 -27.5t43.5 -22.5q40 31 40 81z" />
    <glyph glyph-name="cid721" unicode="&#x2606;" 
d="M398 697h3l87 -273h271v-3l-217 -163l88 -279l-2 -2l-228 173l-228 -173l-3 2l88 279l-217 163v3h271zM103 402v-2l182 -134l-76 -230l3 -1l188 144l188 -144l2 1l-75 230l181 134v2l-225 -1l-70 226h-3l-69 -226z" />
    <glyph glyph-name="cid722" unicode="&#x2605;" 
d="M398 697h3l87 -273h271v-3l-217 -163l88 -279l-2 -2l-228 173l-228 -173l-3 2l88 279l-217 163v3h271z" />
    <glyph glyph-name="cid723" unicode="&#x25cb;" 
d="M48 338q0 72 27.5 136t75.5 112t112 75.5t137 27.5t137 -27.5t112 -75.5t75.5 -112t27.5 -137t-27.5 -137t-75.5 -112t-112 -75.5t-137 -27.5t-137 27.5t-112 75.5t-75.5 112t-27.5 137v1zM401 7q68 0 127.5 26t104 71t70.5 105t26 128t-26 128t-70.5 104.5t-104.5 70.5
t-128 26q-69 0 -129 -26t-104.5 -70.5t-70.5 -104.5t-26 -128t26 -128t70.5 -105t104.5 -71t129 -26h1z" />
    <glyph glyph-name="cid724" unicode="&#x25cf;" 
d="M399 -15q-73 0 -137 27.5t-111.5 75.5t-75 112t-27.5 137t27.5 137t75.5 112t112 75.5t137 27.5t137 -27.5t112 -75.5t75.5 -112t27.5 -137t-27.5 -137t-75.5 -112t-112 -75.5t-137 -27.5h-1z" />
    <glyph glyph-name="cid725" unicode="&#x25ce;" 
d="M48 338q0 72 27.5 136t75.5 112t112 75.5t137 27.5t137 -27.5t112 -75.5t75.5 -112t27.5 -137t-27.5 -137t-75.5 -112t-112 -75.5t-137 -27.5t-137 27.5t-112 75.5t-75.5 112t-27.5 137v1zM401 7q68 0 128 26t104.5 71t70.5 105t26 128t-26 128t-71 105t-105 71t-128 26
q-69 0 -129 -26t-104.5 -71t-70.5 -105t-26 -128t26 -128t70.5 -105t104.5 -71t129 -26h1zM165 338q0 48 18.5 90.5t50.5 74t74.5 50t91.5 18.5q48 0 91 -18.5t74.5 -50t50 -74.5t18.5 -91q0 -49 -18.5 -91.5t-50 -74t-74.5 -50t-91 -18.5q-49 0 -91.5 18.5t-74.5 50
t-50.5 74t-18.5 91.5v1zM401 124q43 0 81.5 16.5t67.5 45.5t45.5 68t16.5 83t-16.5 82.5t-45.5 67.5t-67.5 45.5t-82.5 16.5t-83 -16.5t-68 -45.5t-45.5 -67.5t-16.5 -82.5t16.5 -83t45.5 -68t68 -45.5t83 -16.5h1z" />
    <glyph glyph-name="cid726" unicode="&#x25c7;" 
d="M9 337l391 391l391 -391l-391 -391zM400 697l-360 -360l360 -360l360 360z" />
    <glyph glyph-name="cid727" unicode="&#x25c6;" 
d="M400 -54l-391 391l391 391l391 -391z" />
    <glyph glyph-name="cid728" unicode="&#x25a1;" horiz-adv-x="806" 
d="M89 649h624v-624h-624v624zM690 626h-579v-579h579v579z" />
    <glyph glyph-name="cid729" 
 />
    <glyph glyph-name="cid730" unicode="&#x25b3;" 
d="M20 25l380 651l380 -651h-760zM59 47h681l-340 583z" />
    <glyph glyph-name="cid731" unicode="&#x25b2;" 
d="M780 25h-760l380 651z" />
    <glyph glyph-name="cid732" 
 />
    <glyph glyph-name="cid733" 
 />
    <glyph glyph-name="cid734" unicode="&#x203b;" 
d="M402 517q-23 0 -39 16.5t-16 39.5t16.5 39.5t39.5 16.5t39.5 -16.5t16.5 -39.5t-16.5 -39.5t-39.5 -16.5h-1zM419 336l272 -272l-16 -16l-271 272l-273 -272l-16 16l273 272l-274 273l16 16l274 -273l271 273l16 -16zM165 281q-22 0 -38.5 16.5t-16.5 39.5t16.5 39.5
t39.5 16.5t39.5 -16.5t16.5 -39.5t-16.5 -39.5t-39.5 -16.5h-1zM639 281q-23 0 -39.5 16.5t-16.5 39.5t16.5 39.5t39.5 16.5t39.5 -16.5t16.5 -39.5t-16.5 -39.5t-39.5 -16.5zM402 44q-23 0 -39 16.5t-16 39.5t16.5 39t39.5 16t39.5 -16t16.5 -39t-16.5 -39.5t-39.5 -16.5
h-1z" />
    <glyph glyph-name="cid735" unicode="&#x3012;" 
d="M681 620v-59h-559v59h559zM681 450v-59h-246v-352h-66v352h-247v59h559z" />
    <glyph glyph-name="cid736" unicode="&#x2192;" 
d="M645 372v2l-158 147h94l184 -184l-184 -185h-94l158 148v2h-606v70h606z" />
    <glyph glyph-name="cid737" 
 />
    <glyph glyph-name="cid738" unicode="&#x2191;" 
d="M367 581h-2l-148 -158v94l185 184l184 -184v-94l-147 158h-2v-606h-70v606z" />
    <glyph glyph-name="cid739" unicode="&#x2193;" 
d="M437 93h2l147 157v-94l-184 -183l-185 183v94l148 -157h2v605h70v-605z" />
    <glyph glyph-name="cid740" unicode="&#x3013;" 
d="M144 430v92h511v-92h-511zM144 152v93h511v-93h-511z" />
    <glyph glyph-name="cid741" 
 />
    <glyph glyph-name="cid742" 
 />
    <glyph glyph-name="cid743" 
 />
    <glyph glyph-name="cid744" 
 />
    <glyph glyph-name="cid745" 
 />
    <glyph glyph-name="cid746" 
 />
    <glyph glyph-name="cid747" 
 />
    <glyph glyph-name="cid748" 
 />
    <glyph glyph-name="cid749" 
 />
    <glyph glyph-name="cid750" 
 />
    <glyph glyph-name="cid751" 
 />
    <glyph glyph-name="cid752" 
 />
    <glyph glyph-name="cid753" 
 />
    <glyph glyph-name="cid754" 
 />
    <glyph glyph-name="cid755" 
 />
    <glyph glyph-name="cid756" 
 />
    <glyph glyph-name="cid757" 
 />
    <glyph glyph-name="cid758" 
 />
    <glyph glyph-name="cid759" unicode="&#x2202;" 
d="M689 48h-579v578h579v-578zM169 568v-462h463v462h-463zM257 521l143 -143l143 143l41 -41l-143 -143l143 -143l-41 -41l-143 143l-143 -143l-41 41l143 143l-143 143z" />
    <glyph glyph-name="gradient" horiz-adv-x="603" 
 />
    <glyph glyph-name="cid761" 
 />
    <glyph glyph-name="cid762" 
 />
    <glyph glyph-name="cid763" 
 />
    <glyph glyph-name="cid764" 
 />
    <glyph glyph-name="cid765" unicode="&#x221a;" 
d="M689 48h-579v578h579v-578zM169 568v-462h463v462h-463zM257 521l143 -143l143 143l41 -41l-143 -143l143 -143l-41 -41l-143 143l-143 -143l-41 41l143 143l-143 143z" />
    <glyph glyph-name="cid766" 
 />
    <glyph glyph-name="cid767" 
 />
    <glyph glyph-name="cid768" 
 />
    <glyph glyph-name="cid769" unicode="&#x222b;" 
d="M689 48h-579v578h579v-578zM169 568v-462h463v462h-463zM257 521l143 -143l143 143l41 -41l-143 -143l143 -143l-41 -41l-143 143l-143 -143l-41 41l143 143l-143 143z" />
    <glyph glyph-name="cid770" 
 />
    <glyph glyph-name="angstrom" unicode="&#x212b;" horiz-adv-x="574" 
d="M574 0h-81l-73 218h-240l-72 -218h-78l223 658q-45 28 -45 80q0 40 28 68t68 28t68 -28t28 -68q0 -54 -48 -82zM358 738q0 23 -16 38.5t-38 15.5t-38 -15.5t-16 -38.5q0 -22 16 -37.5t38 -15.5t38 15.5t16 37.5zM403 278l-70 205q-7 18 -33 119h-3q-5 -29 -12.5 -56
t-15.5 -52l-74 -216h208z" />
    <glyph glyph-name="perthousand" unicode="&#x2030;" horiz-adv-x="1067" 
d="M1092 198q0 -94 -40 -149.5t-109 -55.5q-32 0 -58.5 13.5t-46 39t-30.5 62t-11 81.5q0 44 10.5 81t30 64t47.5 42t63 15q69 0 106.5 -52.5t37.5 -140.5zM739 198q0 -47 -11 -84.5t-30.5 -64.5t-47 -41.5t-61.5 -14.5q-64 0 -104.5 52.5t-40.5 143.5q0 45 10.5 82t30.5 64
t47.5 41.5t62.5 14.5q69 0 106.5 -52.5t37.5 -140.5zM601 662l-381 -675h-51l381 675h51zM328 467q0 -46 -10.5 -83.5t-29.5 -64.5t-47 -41.5t-62 -14.5q-66 0 -106 52t-40 143q0 45 10.5 82t30.5 64t47.5 42t62.5 15q70 0 107 -53.5t37 -140.5zM1032 194q0 150 -86 150
q-20 0 -36 -11.5t-27 -32t-17 -48.5t-6 -60q0 -69 22 -110t64 -41q86 0 86 153zM678 194q0 150 -86 150q-20 0 -36 -11.5t-27 -32t-17 -48.5t-6 -60q0 -69 23 -110t63 -41q86 0 86 153zM268 463q0 150 -87 150q-20 0 -35.5 -12t-27 -32.5t-17.5 -48.5t-6 -59
q0 -67 22.5 -109t64.5 -42q86 0 86 153z" />
    <glyph glyph-name="cid773" 
 />
    <glyph glyph-name="cid774" 
 />
    <glyph glyph-name="cid775" unicode="&#x266a;" 
d="M384 682h51q3 -39 40 -70q26 -22 50.5 -45t43.5 -48t30.5 -51.5t11.5 -55.5q0 -32 -9.5 -55t-24.5 -39t-33.5 -25.5t-36.5 -15.5l-22 30q20 8 35.5 24.5t15.5 48.5t-25.5 65.5t-72.5 71.5v-293q0 -43 -11 -76.5t-30.5 -56t-46 -34.5t-57.5 -12q-12 0 -27.5 4t-29 13.5
t-23 25.5t-9.5 40q0 46 43 71.5t137 25.5v457z" />
    <glyph glyph-name="dagger" unicode="&#x2020;" horiz-adv-x="477" 
d="M447 404l-171 7l7 -461h-72l7 461l-171 -7v65l171 -7l-7 212h72l-7 -212l171 7v-65z" />
    <glyph glyph-name="daggerdbl" unicode="&#x2021;" horiz-adv-x="477" 
d="M447 151l-170 6l6 -207h-72l5 207l-169 -6v64l170 -7v212l-170 -7v65l170 -7l-6 203h72l-6 -203l170 7v-65l-170 7v-212l170 7v-64z" />
    <glyph glyph-name="paragraph" unicode="&#xb6;" horiz-adv-x="486" 
d="M414 -50h-56v672h-71v-672h-56v315h-7q-39 0 -73.5 15t-60.5 41t-41 61.5t-15 76.5q0 103 68 160t200 57q37 0 64.5 -2t47.5 -6v-718z" />
    <glyph glyph-name="cid779" unicode="&#x25ef;" 
d="M22 338q0 78 30 147t81.5 120.5t120.5 81.5t148 30q78 0 147.5 -30t121 -81.5t81.5 -121t30 -147.5q0 -79 -30 -148t-81.5 -120.5t-121 -81.5t-147.5 -30q-79 0 -148 30t-120.5 81.5t-81.5 120.5t-30 148v1zM403 -21q73 0 138 28t113.5 76.5t76.5 114t28 139.5t-28 139
t-76.5 113.5t-113.5 76.5t-139 28t-139.5 -28t-114 -76.5t-76.5 -113.5t-28 -139t28 -139.5t76.5 -114t114 -76.5t139.5 -28h1z" />
    <glyph glyph-name="cid780" 
 />
    <glyph glyph-name="cid781" unicode="&#xff11;" 
d="M400 569q-20 -11 -54.5 -26t-68.5 -26l-14 58q19 7 41.5 16t44 19.5t40 21t30.5 20.5h56v-619h-75v536v0z" />
    <glyph glyph-name="cid782" unicode="&#xff12;" 
d="M230 616q38 20 84.5 31.5t90.5 11.5q37 0 69.5 -9t57 -28.5t38.5 -50.5t14 -76q0 -28 -7.5 -56t-24 -59t-43.5 -66t-65 -77q-44 -48 -79.5 -81t-62.5 -58h296v-65h-385v62q33 30 71 66.5t87 92.5q37 42 64 76t43.5 62.5t24.5 52.5t8 46q0 48 -28.5 75t-82.5 27
q-38 0 -78 -11t-75 -31l-17 65v0z" />
    <glyph glyph-name="cid783" unicode="&#xff13;" 
d="M437 359q77 -5 110 -45.5t33 -106.5q0 -37 -12.5 -71t-39.5 -60t-69.5 -41.5t-103.5 -15.5q-28 0 -65.5 4t-69.5 12l13 68q26 -8 60 -13.5t60 -5.5q31 0 59 6.5t48 21.5t32 39.5t12 60.5q0 54 -36 80t-119 26h-56v60h39q79 0 117.5 31t38.5 86q0 44 -26 69t-76 25
q-34 0 -72 -10.5t-70 -29.5l-19 62q30 17 75 29.5t90 12.5q37 0 68 -8t54 -26t36 -46.5t13 -69.5q0 -58 -34.5 -97t-89.5 -47z" />
    <glyph glyph-name="cid784" unicode="&#xff14;" 
d="M535 235h91v-60h-91v-142h-69v142h-289v55l284 419h74v-414zM466 235v323l-219 -323h219z" />
    <glyph glyph-name="cid785" unicode="&#xff15;" 
d="M313 382q24 12 52.5 19t51.5 7q39 0 72.5 -9.5t58.5 -31t39.5 -56t14.5 -83.5q0 -53 -16 -92t-45.5 -65t-70 -38.5t-89.5 -12.5q-15 0 -34.5 1.5t-39.5 4.5t-39.5 7t-34.5 9l12 66q29 -10 66 -16.5t69 -6.5q30 0 56.5 7.5t47 25t32.5 45t12 66.5q0 33 -10 55.5t-27.5 36
t-41 19.5t-50.5 6q-29 0 -59.5 -9.5t-56.5 -25.5l-39 19l29 317h305v-64h-245l-20 -201v0z" />
    <glyph glyph-name="cid786" unicode="&#xff16;" 
d="M424 422q81 0 129.5 -46.5t48.5 -137.5q0 -45 -11.5 -84.5t-36 -69t-62 -47t-89.5 -17.5q-40 0 -77 14t-65.5 44.5t-46 79t-17.5 117.5q0 79 21 147.5t63.5 120t105.5 82.5t147 34l13 -60q-115 -5 -185 -68.5t-90 -176.5q9 11 24.5 23t35.5 22t43.5 16.5t47.5 6.5h1z
M405 83q26 0 49 9t40 28t27 47.5t10 67.5q0 25 -6 48.5t-20 41.5t-37.5 29t-58.5 11q-23 0 -45 -7t-41 -18t-33.5 -25t-21.5 -29q-2 -36 4.5 -72t23 -65t43.5 -47.5t65 -18.5h1z" />
    <glyph glyph-name="cid787" unicode="&#xff17;" 
d="M224 581v66h395v-60q-33 -50 -70.5 -120t-73.5 -146.5t-66.5 -152t-49.5 -135.5h-80q18 58 50 132.5t69 150.5t75.5 146t69.5 119h-319z" />
    <glyph glyph-name="cid788" unicode="&#xff18;" 
d="M594 506q0 -63 -33.5 -99t-96.5 -57q31 -11 58 -24.5t47.5 -33t32.5 -46.5t12 -65q0 -47 -17.5 -78t-46.5 -49.5t-66.5 -26t-78.5 -7.5q-36 0 -72.5 7.5t-65.5 26t-47.5 49.5t-18.5 78q0 36 12 62.5t32.5 46.5t48 34.5t59.5 25.5q-33 13 -58 27t-42 32.5t-26 42t-9 55.5
q0 40 15.5 69t42 47t60.5 26.5t71 8.5q85 0 136 -37t51 -114v-1zM524 504q0 39 -27.5 68t-89.5 29q-56 0 -87 -26t-31 -74q0 -47 31.5 -75t88.5 -48q21 6 41.5 15.5t37 23.5t26.5 35t10 51v1zM407 317q-61 -16 -96.5 -46t-35.5 -84q0 -32 11.5 -52.5t30.5 -32.5t42 -16.5
t47 -4.5t48 4t43.5 16t31.5 32.5t12 53.5q0 54 -36.5 83t-97.5 47z" />
    <glyph glyph-name="cid789" unicode="&#xff19;" 
d="M536 334q-22 -30 -63 -49.5t-84 -19.5q-46 0 -81 14t-59 38.5t-36 57.5t-12 71q0 37 10.5 74.5t34.5 68t63 49.5t96 19q39 0 76 -12t65 -40.5t45 -76t17 -119.5q0 -94 -24.5 -165.5t-69.5 -120t-109.5 -74.5t-144.5 -29l-13 64q59 3 109 19.5t87.5 47t61.5 76.5t31 107z
M273 448q0 -24 7 -46.5t22.5 -40t40.5 -28t60 -10.5q22 0 43 6.5t39 17.5t31.5 25t20.5 29q3 27 -1.5 61t-19.5 64t-42 50t-70 20q-61 0 -96 -39t-35 -108v-1z" />
    <glyph glyph-name="cid790" 
 />
    <glyph glyph-name="cid791" unicode="&#xff22;" 
d="M631 202q0 -88 -55.5 -128.5t-154.5 -40.5h-180v614h167q39 0 75 -6.5t63.5 -23t44.5 -45.5t17 -73q0 -56 -27 -91t-75 -49q22 -3 44 -12.5t40 -27.5t29.5 -46t11.5 -70v-1zM537 489q0 51 -34.5 74t-102.5 23h-87v-204h129q20 3 37.5 10t30 19.5t20 31.5t7.5 45v1z
M313 96h100q28 0 53.5 3.5t45.5 15.5t32 34.5t12 60.5q0 61 -37.5 88.5t-100.5 27.5h-105v-230z" />
    <glyph glyph-name="cid792" unicode="&#xff23;" 
d="M179 333q0 64 13.5 123.5t46 105t88 72.5t139.5 27q42 0 82.5 -7.5t69.5 -18.5l-13 -67q-30 12 -66 19t-71 7q-59 0 -99.5 -21t-65 -57t-35 -83.5t-10.5 -101.5q0 -51 11.5 -95.5t37 -77t66 -51t97.5 -18.5q18 0 38 2t39.5 6t37 8.5t30.5 9.5l9 -68q-13 -5 -31 -9t-39 -8
t-43 -6t-43 -2q-83 0 -138.5 24.5t-89 67t-47.5 99t-14 119.5v1z" />
    <glyph glyph-name="cid793" unicode="&#xff24;" 
d="M348 647q163 0 241.5 -72.5t78.5 -233.5q0 -74 -16.5 -131t-55 -96.5t-100 -60t-151.5 -20.5h-153v614h156zM591 342q0 127 -60 183.5t-184 56.5h-82v-484h82q121 0 182.5 57t61.5 186v1z" />
    <glyph glyph-name="cid794" unicode="&#xff25;" 
d="M330 380h224v-62h-224v-220h270v-65h-343v614h324v-65h-251v-202z" />
    <glyph glyph-name="cid795" unicode="&#xff26;" 
d="M276 33v614h323v-65h-249v-210h222v-66h-222v-273h-74z" />
    <glyph glyph-name="cid796" unicode="&#xff27;" 
d="M637 54q-15 -6 -36 -12t-45 -10.5t-50 -7t-50 -2.5q-83 0 -138.5 24.5t-88.5 67t-47 99t-14 119.5q0 64 13 123.5t46 105.5t88 73t139 27q42 0 82.5 -7.5t69.5 -18.5l-13 -67q-30 12 -66 19t-71 7q-59 0 -99.5 -21t-65 -57t-35 -83.5t-10.5 -101.5q0 -51 11 -95.5
t35.5 -77.5t65 -52t100.5 -19q29 0 59.5 5.5t50.5 13.5v193h-148v63h217v-308z" />
    <glyph glyph-name="cid797" unicode="&#xff28;" 
d="M247 33h-74v614h74v-268h325v268h74v-614h-74v281h-325v-281z" />
    <glyph glyph-name="cid798" unicode="&#xff29;" 
d="M449 33h-74v614h74v-614z" />
    <glyph glyph-name="cid799" unicode="&#xff2a;" 
d="M393 647h75v-532q0 -85 -39.5 -136.5t-103.5 -77.5l-37 54q30 12 50 27.5t32.5 36.5t17.5 48.5t5 63.5v516z" />
    <glyph glyph-name="cid800" unicode="&#xff2b;" 
d="M685 33h-99l-271 303v-303h-74v614h74v-297l265 297h92l-282 -300z" />
    <glyph glyph-name="cid801" unicode="&#xff2c;" 
d="M365 98h272v-65h-346v614h74v-549z" />
    <glyph glyph-name="cid802" unicode="&#xff2d;" 
d="M436 55h-65l-183 500l-23 -522h-70l32 614h98l182 -497l184 497h102l31 -614h-75l-23 523z" />
    <glyph glyph-name="cid803" unicode="&#xff2e;" 
d="M245 33h-69v614h97l300 -499v499h70v-614h-83l-315 528v-528z" />
    <glyph glyph-name="cid804" unicode="&#xff2f;" 
d="M121 342q0 62 15 119.5t48.5 102t87.5 71t132 26.5t132 -26.5t87.5 -71t48.5 -102t15 -120.5q0 -60 -14 -118t-47 -103.5t-87 -73.5t-135 -28q-68 0 -121 22t-89 64t-54.5 102t-18.5 135v1zM199 341q0 -71 16 -119.5t43.5 -79.5t65 -44.5t80.5 -13.5q45 0 82.5 14.5
t64.5 45.5t42 80t15 118q0 121 -49.5 187.5t-154.5 66.5t-155 -66.5t-50 -187.5v-1z" />
    <glyph glyph-name="cid805" unicode="&#xff30;" 
d="M264 33v614h146q55 0 100.5 -8.5t78 -29.5t50 -55.5t17.5 -86.5q0 -54 -16.5 -92t-45 -62t-67 -35.5t-82.5 -11.5h-107v-233h-74zM426 329q30 0 58 5t49.5 19.5t34.5 40.5t13 68q0 68 -45.5 94t-123.5 26h-74v-253h88z" />
    <glyph glyph-name="cid806" unicode="&#xff31;" 
d="M121 342q0 62 15 119.5t48.5 102t87.5 71t132 26.5t132 -26.5t87.5 -71t48.5 -102t15 -120.5q0 -54 -11.5 -105.5t-38 -94t-69 -72t-103.5 -38.5q15 -17 42 -31t59 -24t66.5 -16t65.5 -6l-28 -67q-41 1 -83.5 12t-82.5 29t-73 42t-54 53q-121 7 -188.5 89t-67.5 229v1z
M199 341q0 -71 16 -119.5t43.5 -79.5t65 -44.5t80.5 -13.5q45 0 82.5 14.5t64.5 45.5t42 80t15 118q0 121 -49.5 187.5t-154.5 66.5t-155 -66.5t-50 -187.5v-1z" />
    <glyph glyph-name="cid807" unicode="&#xff32;" 
d="M581 33q-11 32 -26.5 74t-32.5 80q-24 56 -47.5 82t-65.5 26h-104v-262h-71v614h142q47 0 89 -6t73.5 -24t50 -49.5t18.5 -82.5q0 -37 -9.5 -64t-25.5 -45.5t-37 -30.5t-43 -19q29 -11 50 -34t38 -65q8 -20 18.5 -44.5t21.5 -50.5t21.5 -52t18.5 -47h-79zM430 356
q20 3 38.5 11t33 22.5t23.5 36t9 51.5q0 31 -11 51.5t-30.5 32.5t-47.5 17t-62 5h-78v-227h125z" />
    <glyph glyph-name="cid808" unicode="&#xff33;" 
d="M549 557q-24 14 -61 25t-71 11q-19 0 -39.5 -4.5t-37.5 -15t-28 -29.5t-11 -47q0 -21 8.5 -36.5t24.5 -28t37 -23.5t47 -23q34 -17 64 -33.5t52.5 -38t35 -49.5t12.5 -67q0 -48 -15 -81t-40 -54t-58.5 -30.5t-70.5 -9.5q-24 0 -50 3t-51.5 8t-49 12t-42.5 16l19 67
q37 -17 82.5 -28.5t87.5 -11.5q21 0 41 5t36 17t26 32t10 51q0 45 -33.5 73t-97.5 57q-33 15 -60 30t-47 33.5t-31 44t-11 61.5q0 46 16.5 77.5t43 51t58.5 28t64 8.5q49 0 92.5 -11.5t67.5 -24.5z" />
    <glyph glyph-name="cid809" unicode="&#xff34;" 
d="M360 33v549h-187v65h449v-65h-187v-549h-75z" />
    <glyph glyph-name="cid810" unicode="&#xff35;" 
d="M405 20q-54 0 -97.5 15t-74.5 42t-47.5 66t-16.5 87v417h75v-390q0 -35 8 -66.5t26.5 -55t50 -37.5t78.5 -14q46 0 77.5 14t50.5 37.5t27 55t8 66.5v390h74v-417q0 -48 -16.5 -87t-47.5 -66t-75 -42t-99 -15h-1z" />
    <glyph glyph-name="cid811" unicode="&#xff36;" 
d="M598 647h79l-235 -614h-67l-236 614h83l189 -522z" />
    <glyph glyph-name="cid812" unicode="&#xff37;" 
d="M706 647h76l-162 -614h-71l-141 490l-140 -490h-70l-169 614h79l130 -507l136 495h70l140 -495z" />
    <glyph glyph-name="cid813" unicode="&#xff38;" 
d="M677 33h-96l-172 254l-176 -254h-91l226 310l-217 304h91l172 -246l166 246h89l-217 -299z" />
    <glyph glyph-name="cid814" unicode="&#xff39;" 
d="M144 647h88l180 -273l176 273h86l-227 -331v-283h-75v281z" />
    <glyph glyph-name="cid815" unicode="&#xff3a;" 
d="M203 581v66h410v-62l-353 -486h363v-66h-450v63l352 485h-322z" />
    <glyph glyph-name="cid816" 
 />
    <glyph glyph-name="cid817" unicode="&#xff42;" 
d="M303 682v-253q7 11 20 24.5t31.5 25t43 19.5t55.5 8q84 0 131.5 -57.5t47.5 -172.5q0 -51 -9.5 -96.5t-32 -80.5t-59.5 -55.5t-91 -20.5q-21 0 -42 5t-40 13t-35 18.5t-26 22.5l-9 -49h-57v638zM300 210q0 -17 1 -34t3 -30q15 -22 47 -42.5t77 -20.5q36 0 60.5 13.5
t40.5 38.5t23 60.5t7 78.5q0 36 -6.5 67t-21 54t-37 36t-54.5 13q-30 0 -53 -9t-39.5 -22.5t-27.5 -28.5t-16 -27q-2 -11 -3 -27.5t-1 -31.5v-88z" />
    <glyph glyph-name="cid818" unicode="&#xff43;" 
d="M547 430q-23 8 -46.5 12t-46.5 4q-42 0 -70.5 -14.5t-46 -40t-25.5 -60t-8 -73.5q0 -37 8 -69t26 -55.5t47 -37t71 -13.5q24 0 50.5 4t46.5 12l10 -63q-18 -7 -47.5 -12t-63.5 -5q-64 0 -106.5 20t-68 53.5t-36.5 76.5t-11 89q0 51 11 96.5t37 80t68.5 54.5t105.5 20
q32 0 60 -5t48 -12z" />
    <glyph glyph-name="cid819" unicode="&#xff44;" 
d="M359 23q-84 0 -131.5 57t-47.5 172q0 51 9.5 97t32 81t59.5 55.5t92 20.5q41 0 78 -16t59 -41v222l72 11v-505q0 -38 3 -73.5t15 -62.5l-63 -13q-9 17 -14 37.5t-6 38.5q-8 -12 -21 -26t-32.5 -26t-45.5 -20.5t-59 -8.5zM513 319q0 17 -1 33.5t-3 29.5q-15 21 -46.5 41.5
t-77.5 20.5q-35 0 -60 -13.5t-40.5 -38t-22.5 -60t-7 -78.5q0 -36 6.5 -67t20.5 -54t37 -36t55 -13q30 0 52.5 9t39 22.5t27.5 28.5t16 27q2 11 3 27t1 31v90z" />
    <glyph glyph-name="cid820" unicode="&#xff45;" 
d="M437 83q38 0 74 7.5t65 19.5l14 -59q-24 -11 -66 -21t-93 -10q-112 0 -169 62.5t-57 174.5q0 54 14 100.5t41 80.5t67 53t92 19q90 0 133.5 -55t43.5 -155v-42h-319q-2 -47 9.5 -80t33 -54t51 -31t65.5 -10h1zM411 453q-29 0 -52 -11t-39.5 -30.5t-27 -45.5t-13.5 -55
h251q-2 69 -29 105.5t-90 36.5z" />
    <glyph glyph-name="cid821" unicode="&#xff46;" 
d="M263 432v58h84v22q0 31 6 62t22.5 55.5t45.5 39.5t74 15q18 0 41 -3t41 -8l-12 -60q-14 5 -32 7t-29 2q-46 0 -66 -24t-20 -88v-20h111v-58h-111v-399h-71v399h-84z" />
    <glyph glyph-name="cid822" unicode="&#xff47;" 
d="M597 494q-3 -15 -5 -40.5t-2 -44.5v-386q0 -46 -16 -80t-43.5 -56t-65 -32.5t-79.5 -10.5q-45 0 -90 10.5t-83 27.5l16 61q32 -16 74.5 -27.5t82.5 -11.5q38 0 63.5 11t41 29t22 41t6.5 46v72q-8 -12 -21 -26t-32 -26t-43.5 -20t-55.5 -8q-84 0 -131.5 57t-47.5 172
q0 51 9.5 97t32 81t59.5 55.5t92 20.5q44 0 83 -17t61 -44q0 9 2.5 23.5t4.5 25.5h65zM521 319q0 17 -1 33.5t-3 29.5q-15 21 -47 41.5t-78 20.5q-70 0 -99.5 -51.5t-29.5 -138.5q0 -36 6.5 -67t20.5 -54t36.5 -36t54.5 -13q30 0 52.5 9t39.5 22.5t27.5 28.5t16.5 27
q2 11 3 27t1 31v90z" />
    <glyph glyph-name="cid823" unicode="&#xff48;" 
d="M291 437q27 28 68.5 46.5t86.5 18.5q41 0 69.5 -12t46 -33.5t25 -51.5t7.5 -66v-306h-72v289q0 24 -4 45.5t-15 38t-29.5 26.5t-47.5 10q-38 0 -75 -17.5t-60 -44.5v-347h-72v638l72 11v-245v0z" />
    <glyph glyph-name="cid824" unicode="&#xff49;" 
d="M451 579h-80v73h80v-73zM448 33h-74v461h74v-461z" />
    <glyph glyph-name="cid825" unicode="&#xff4a;" 
d="M458 579h-80v72h80v-72zM454 494v-428q0 -87 -29 -140.5t-96 -84.5l-43 49q28 14 46.5 31.5t29 40t15 51.5t4.5 65v416h73z" />
    <glyph glyph-name="cid826" unicode="&#xff4b;" 
d="M629 33h-88l-204 231v-231h-72v638l72 11v-410l195 222h86l-206 -221z" />
    <glyph glyph-name="cid827" unicode="&#xff4c;" 
d="M449 33h-74v638l74 11v-649z" />
    <glyph glyph-name="cid828" unicode="&#xff4d;" 
d="M132 500q5 -14 9.5 -34t5.5 -33q26 29 68 49t85 20q51 0 80.5 -19t43.5 -50q31 31 77 50t91 19q41 0 69 -12t45.5 -33.5t25 -51.5t7.5 -66v-306h-71v289q0 23 -4 45t-15 38.5t-30 26.5t-49 10q-32 0 -69.5 -16.5t-62.5 -42.5q7 -28 7 -75v-275h-72v289q0 24 -4 45.5
t-14.5 38t-29.5 26.5t-48 10q-16 0 -34 -4.5t-35 -12.5t-32 -19t-26 -25v-348h-72v367q0 23 -3 46.5t-9 43.5z" />
    <glyph glyph-name="cid829" unicode="&#xff4e;" 
d="M281 500q5 -14 9.5 -33.5t5.5 -32.5q26 29 69 48.5t88 19.5q42 0 70 -12t45.5 -33.5t25 -51.5t7.5 -66v-306h-72v289q0 24 -4 45.5t-14.5 38t-29.5 26.5t-48 10q-37 0 -74 -17.5t-60 -43.5v-348h-73v367q0 23 -2.5 46.5t-8.5 43.5z" />
    <glyph glyph-name="cid830" unicode="&#xff4f;" 
d="M623 265q0 -46 -10.5 -90.5t-35.5 -79.5t-66.5 -56.5t-103.5 -21.5t-104 21.5t-67 57t-35.5 80t-10.5 90.5q0 45 10.5 88.5t35.5 78t67 56t104 21.5t103.5 -21.5t66.5 -56t35.5 -78t10.5 -88.5v-1zM264 266q0 -91 35.5 -139t107.5 -48q71 0 106.5 48t35.5 139
t-35.5 137.5t-106.5 46.5q-72 0 -107.5 -46.5t-35.5 -137.5z" />
    <glyph glyph-name="cid831" unicode="&#xff50;" 
d="M290 500q6 -11 10.5 -33.5t5.5 -40.5q8 12 21 26t32 26t43.5 20t55.5 8q84 0 131.5 -57.5t47.5 -172.5q0 -51 -9.5 -96.5t-32 -80.5t-59.5 -55.5t-91 -20.5q-42 0 -78.5 16t-59.5 42v-232h-71v551q0 23 -2.5 46.5t-8.5 43.5zM305 210q0 -17 1 -34t3 -30q14 -22 46 -42.5
t79 -20.5q35 0 59.5 13.5t40 38.5t22.5 60.5t7 78.5q0 36 -6.5 67t-21 54t-37 36t-54.5 13q-30 0 -53 -9t-39.5 -22.5t-27 -28.5t-15.5 -27q-2 -11 -3 -27.5t-1 -31.5v-88z" />
    <glyph glyph-name="cid832" unicode="&#xff51;" 
d="M596 494q-3 -15 -5 -40.5t-2 -44.5v-560h-69v254q-8 -12 -21 -26t-32 -26t-44 -20t-57 -8q-84 0 -131.5 57t-47.5 172q0 51 9.5 97t32 81t59.5 55.5t92 20.5q42 0 79 -16.5t60 -42.5q1 8 3.5 22t5.5 25h68zM520 319q0 17 -0.5 33.5t-3.5 29.5q-15 21 -47 41.5t-77 20.5
q-71 0 -101 -51.5t-30 -138.5q0 -36 6.5 -67t21 -54t37.5 -36t55 -13q30 0 52.5 9t39 22.5t27.5 28.5t16 27q2 11 3 27t1 31v90z" />
    <glyph glyph-name="cid833" unicode="&#xff52;" 
d="M403 423q20 35 62.5 56.5t90.5 21.5l-4 -65q-43 0 -85 -18.5t-61 -60.5v-324h-72v339q0 35 -3 66.5t-9 51.5l66 10q6 -14 10 -37t5 -40z" />
    <glyph glyph-name="cid834" unicode="&#xff53;" 
d="M532 423q-22 11 -51 18.5t-57 7.5q-12 0 -26.5 -3t-26.5 -10.5t-20.5 -20.5t-8.5 -33q0 -29 21 -45.5t69 -37.5q26 -12 49 -24.5t40 -28.5t27 -37t10 -50q0 -40 -13 -66.5t-34.5 -42.5t-48 -22.5t-53.5 -6.5q-18 0 -39 2t-42 6t-40.5 9t-34.5 11l17 62q29 -13 66 -20.5
t66 -7.5q16 0 31.5 3t27 11.5t18.5 22.5t7 35q0 32 -26.5 52t-78.5 43q-25 10 -45 21.5t-34.5 26t-22.5 34t-8 47.5q0 38 14.5 62.5t37 39t49.5 20t51 5.5q16 0 33.5 -2t34.5 -5t32 -7.5t26 -9.5z" />
    <glyph glyph-name="cid835" unicode="&#xff54;" 
d="M499 87v-55l-38 -2q-57 -4 -88.5 19.5t-31.5 87.5v295h-77v58h77v109l72 18v-127h102v-58h-102v-271q0 -43 12.5 -58.5t47.5 -15.5h26z" />
    <glyph glyph-name="cid836" unicode="&#xff55;" 
d="M527 89q-29 -29 -71 -48.5t-87 -19.5q-41 0 -69.5 12t-45.5 34t-24.5 52t-7.5 66v309h72v-292q0 -24 4 -45.5t14.5 -38t29.5 -26.5t48 -10q37 0 74 17t60 44v351h73v-346q0 -67 13 -113l-68 -11q-6 16 -9.5 33.5t-5.5 31.5z" />
    <glyph glyph-name="cid837" unicode="&#xff56;" 
d="M543 494h77l-179 -461h-67l-181 461h79l137 -372z" />
    <glyph glyph-name="cid838" unicode="&#xff57;" 
d="M681 494h79l-152 -461h-72l-129 369l-130 -369h-71l-152 461h79l113 -373l124 365h72l128 -365z" />
    <glyph glyph-name="cid839" unicode="&#xff58;" 
d="M296 494l117 -181l118 181h83l-160 -227l162 -234h-85l-122 183l-118 -183h-82l159 229l-157 232h85z" />
    <glyph glyph-name="cid840" unicode="&#xff59;" 
d="M421 139q15 42 31 88.5t31 93t28.5 91t24.5 82.5h79q-15 -45 -35 -102t-41.5 -117t-43 -118.5t-40.5 -105.5q-32 -78 -62 -129.5t-56 -77.5l-70 31q27 24 58.5 71.5t59.5 113.5l-185 434h81l140 -355v0z" />
    <glyph glyph-name="cid841" unicode="&#xff5a;" 
d="M251 434v60h322v-58l-254 -342h270v-61h-356v58l253 343h-235z" />
    <glyph glyph-name="cid842" unicode="&#x3041;" horiz-adv-x="553" 
d="M183 270q-51 -24 -80 -63t-29 -84q0 -44 36 -44q43 0 86 25q-7 38 -10 79.5t-3 86.5zM335 299q-5 1 -10 1h-10q-39 0 -75 -9v-12q0 -36 1.5 -69t6.5 -64q28 28 50.5 66.5t36.5 86.5zM409 377q-2 -20 -6 -36q63 -17 96.5 -58t33.5 -100q0 -75 -47.5 -125t-154.5 -64
l-21 53q90 10 126.5 43t36.5 93q0 38 -20.5 66t-62.5 41q-21 -68 -54.5 -119t-75.5 -86q2 -11 5.5 -21t7.5 -21l-57 -22q-2 8 -4.5 14.5t-4.5 14.5q-52 -28 -109 -28q-37 0 -57.5 26t-20.5 71q0 32 11.5 62.5t33 57.5t52 49.5t67.5 37.5q1 21 2 42.5t4 43.5h-154v54h159
q2 18 5 36.5t6 35.5l60 -5q-3 -16 -6 -33l-6 -34h258v-54h-264q-2 -17 -3.5 -34.5t-2.5 -34.5q18 5 37 6.5t39 1.5q8 0 15 -0.5t15 -0.5q2 8 2.5 16.5t2.5 16.5z" />
    <glyph glyph-name="cid843" unicode="&#x3042;" horiz-adv-x="769" 
d="M270 345q-68 -32 -108.5 -83.5t-40.5 -110.5q0 -31 13.5 -45.5t44.5 -14.5q52 0 108 34q-9 50 -13 105t-4 115zM464 379q-7 1 -13.5 1.5t-14.5 0.5q-27 0 -52.5 -3.5t-49.5 -9.5v-17q0 -49 2.5 -93.5t7.5 -86.5q38 38 69 90t51 118zM550 476q-2 -13 -4 -25l-4 -24
q81 -20 124 -71.5t43 -129.5q0 -47 -14 -86.5t-44.5 -70t-79 -51t-117.5 -30.5l-26 60q115 13 163.5 57.5t48.5 120.5q0 52 -28.5 89t-85.5 54q-26 -88 -70 -155t-98 -112q4 -14 8 -27.5t9 -26.5l-64 -25q-3 10 -6 19.5t-5 20.5q-68 -37 -136 -37q-54 0 -79 32.5t-25 88.5
q0 40 15 79t43 73t66.5 62t86.5 47q1 29 3 58t5 59h-203v60h209q3 26 6.5 50.5t7.5 47.5l67 -6q-5 -23 -8.5 -45.5t-6.5 -46.5h335v-60h-343q-2 -26 -4 -50.5t-4 -47.5q26 6 51.5 8.5t53.5 2.5h38q2 11 3.5 22.5t3.5 22.5z" />
    <glyph glyph-name="cid844" unicode="&#x3043;" horiz-adv-x="556" 
d="M408 463q34 -35 57.5 -71.5t38.5 -78t22.5 -87.5t9.5 -99l-67 -5q0 52 -6 95t-19.5 79.5t-35 69t-52.5 63.5zM89 444q-3 -36 -5 -70t-2 -64q0 -54 8 -96.5t20.5 -72.5t28 -46t30.5 -16q18 0 33 28.5t26 79.5l52 -24q-20 -75 -46 -113t-63 -38q-28 0 -55 20t-48.5 58
t-34.5 93t-13 126q0 63 6 140z" />
    <glyph glyph-name="cid845" unicode="&#x3044;" horiz-adv-x="761" 
d="M548 599q44 -44 74 -91t49 -99.5t28 -111t12 -125.5l-76 -6q-1 66 -8.5 121t-25 103t-44.5 89.5t-67 80.5zM139 577q-5 -46 -7.5 -89.5t-2.5 -81.5q0 -69 10.5 -124.5t27.5 -94.5t37.5 -60t40.5 -21q24 0 44.5 38.5t34.5 100.5l59 -27q-23 -93 -56 -141t-79 -48
q-33 0 -66.5 24.5t-60.5 72.5t-44 118t-17 160q0 82 6 180z" />
    <glyph glyph-name="cid846" unicode="&#x3045;" horiz-adv-x="467" 
d="M135 539q23 -9 53.5 -18t64 -17t68 -15t67.5 -13l-11 -57q-33 6 -68.5 13.5t-70.5 15.5t-66.5 17t-55.5 17zM20 334q65 15 132 25.5t118 10.5q82 0 129.5 -40.5t47.5 -119.5q0 -96 -78 -152.5t-255 -72.5l-15 59q146 11 215 49.5t69 113.5q0 57 -31 82t-82 25
q-22 0 -51 -3t-60.5 -8.5t-64 -12.5t-62.5 -15z" />
    <glyph glyph-name="cid847" unicode="&#x3046;" horiz-adv-x="641" 
d="M164 689q30 -11 68.5 -22.5t81.5 -21.5t87.5 -19t85.5 -16l-11 -65q-42 7 -88 16.5t-90 20t-84.5 21.5t-70.5 22zM20 431q41 9 84 17.5t85 14.5t80.5 9.5t71.5 3.5q100 0 160 -51.5t60 -153.5q0 -248 -422 -285l-19 68q186 14 276.5 65.5t90.5 148.5q0 72 -40.5 107
t-107.5 35q-28 0 -65 -3.5t-77.5 -10t-82.5 -15.5t-79 -19z" />
    <glyph glyph-name="cid848" unicode="&#x3047;" horiz-adv-x="558" 
d="M155 543q24 -8 56 -16.5t67 -16t71 -14t68 -10.5l-9 -56q-33 5 -69.5 11.5t-72 14.5t-68.5 16t-59 16zM50 366q36 0 82 1.5t92.5 4t89.5 5.5t73 7l32 -42q-17 -16 -36 -34.5t-37.5 -37t-36.5 -36t-31 -31.5q18 8 32 8q18 0 31 -10.5t16 -32.5q3 -20 4.5 -38.5t3.5 -34.5
q2 -14 6 -22t12.5 -12t22.5 -5t37 -1q21 0 46 2t49 6v-58q-56 -6 -109 -6q-60 0 -86.5 12.5t-32.5 47.5q-3 12 -4 31t-3 40q-2 17 -9 23.5t-16 6.5q-21 0 -45 -15q-7 -5 -16.5 -12t-17.5 -14q-12 -11 -29.5 -27.5t-36 -34.5l-37 -36t-31.5 -32l-45 43q29 25 71.5 65t86 82.5
t82 81.5t60.5 62q-25 -2 -57 -4t-67 -4t-71.5 -3.5t-71.5 -2.5z" />
    <glyph glyph-name="cid849" unicode="&#x3048;" horiz-adv-x="719" 
d="M211 688q30 -11 70.5 -21.5t85.5 -20.5t90.5 -18t86.5 -14l-11 -61q-42 6 -88.5 14.5t-91.5 18.5t-86.5 20t-74.5 20zM77 468q47 0 106 2t118.5 5.5t114.5 8t93 9.5l38 -50l-45.5 -45.5t-48.5 -49.5t-46 -47.5t-39 -40.5q9 4 19 6.5t21 2.5q21 0 36.5 -13t19.5 -42
q4 -26 5.5 -51.5t4.5 -45.5q2 -19 7.5 -29.5t17 -16t30.5 -7t48 -1.5q26 0 58 2.5t64 8.5v-67q-36 -4 -70.5 -5.5t-69.5 -1.5q-38 0 -64 3.5t-43 12t-27 23t-14 36.5q-3 15 -4.5 40t-5.5 52q-2 22 -12 32t-24 10q-26 0 -57 -19q-9 -6 -21.5 -16t-20.5 -18
q-16 -14 -38.5 -35.5t-46.5 -45.5t-47.5 -47t-40.5 -41l-53 50q25 21 59 52.5t72.5 68.5t78.5 76t76 75l66 66t48 50q-32 -3 -75.5 -6t-91.5 -6.5t-97.5 -6t-93.5 -3.5z" />
    <glyph glyph-name="cid850" unicode="&#x3049;" horiz-adv-x="577" 
d="M172 209q-43 -23 -69.5 -53.5t-26.5 -60.5q0 -24 17.5 -36t46.5 -12q17 0 24.5 9t7.5 35v118zM172 434v95h62v-95h140v-56h-140v-89q47 11 97 11q87 0 131.5 -41.5t44.5 -113.5t-42 -112t-135 -40q-10 0 -21 1l-22 2l1 59q14 -2 26 -3t22 -1q59 0 84.5 25.5t25.5 68.5
q0 49 -29 75t-96 26q-23 0 -45 -3.5t-42 -9.5v-145q0 -96 -86 -96q-59 0 -93.5 25.5t-34.5 70.5q0 27 11 53.5t31 49.5t48 43t62 34v110h-143v56h143zM440 466q16 -10 32.5 -23t32 -27t29 -27.5t23.5 -25.5l-43 -40q-9 12 -22 26t-28 28t-31 26.5t-31 21.5z" />
    <glyph glyph-name="cid851" unicode="&#x304a;" horiz-adv-x="753" 
d="M254 275q-59 -30 -94.5 -71.5t-35.5 -81.5q0 -26 20 -45t61 -19q29 0 39 14.5t10 49.5v153zM254 553v128h69v-128h195v-62h-195v-127q63 17 131 17q110 0 165 -50t55 -142q0 -43 -13.5 -78t-40.5 -60.5t-67.5 -39.5t-95.5 -14q-14 0 -29 1t-32 3l2 66q17 -3 31.5 -4
t28.5 -1q80 0 113 33.5t33 94.5q0 64 -39 97.5t-124 33.5q-31 0 -60.5 -5t-57.5 -13v-183q0 -64 -24.5 -94.5t-81.5 -30.5q-38 0 -67 9.5t-49 25.5t-30.5 37.5t-10.5 44.5q0 35 14 68t39.5 63t61.5 55t79 43v150h-187v62h187zM594 596q20 -13 41 -29.5t41 -34t37 -35
t30 -32.5l-48 -47q-12 16 -28.5 34t-36 35.5t-40 33.5t-39.5 28z" />
    <glyph glyph-name="cid852" unicode="&#x304b;" horiz-adv-x="772" 
d="M593 552q35 -36 62 -78t47 -85.5t32.5 -86.5t17.5 -81l-69 -17q-5 39 -16.5 80.5t-29.5 82t-43 78.5t-57 71zM36 472q43 8 93 14t98 11q11 45 19 91t13 93l69 -8q-6 -43 -14 -86t-19 -85q16 1 30 1.5t25 0.5q82 0 120.5 -43.5t38.5 -134.5q0 -46 -4 -88.5t-10.5 -79
t-16 -65t-20.5 -46.5q-18 -30 -41.5 -42t-61.5 -12q-29 0 -59.5 4t-56.5 10l4 64q24 -8 51 -11.5t47 -3.5q23 0 35 5t23 22q9 14 17 38t13.5 55.5t8.5 69t3 78.5q0 65 -21.5 91t-73.5 26q-30 0 -66 -3q-33 -121 -77.5 -228t-97.5 -183l-61 32q51 69 94 165.5t73 208.5
q-42 -5 -83.5 -11t-79.5 -14z" />
    <glyph glyph-name="cid853" unicode="&#x304c;" horiz-adv-x="783" 
d="M678 725q26 -23 45 -45t40 -51l-33 -26q-18 28 -38.5 50.5t-45.5 44.5zM596 677q26 -23 45.5 -45t39.5 -51l-34 -27q-18 29 -38 51.5t-44 43.5zM598 541q34 -36 61 -76.5t46 -83t31 -85t18 -80.5l-69 -18q-11 79 -44.5 160.5t-98.5 147.5zM36 472q42 8 92 14t98 11
q11 45 18.5 91t12.5 93l70 -8q-7 -43 -15 -86t-17 -85q15 1 29 1.5t26 0.5q82 0 120.5 -43.5t38.5 -134.5q0 -46 -4 -88.5t-10.5 -79t-16 -65t-20.5 -46.5q-20 -32 -44.5 -43.5t-62.5 -10.5q-26 0 -55.5 3.5t-56.5 10.5l4 64q24 -8 50 -11.5t45 -3.5q23 -1 36 4t25 23
q9 14 17 38t13.5 55.5t8.5 69t3 78.5q0 64 -21.5 90.5t-73.5 26.5q-31 0 -67 -3q-32 -121 -76.5 -227.5t-96.5 -183.5l-61 32q51 69 93.5 165.5t72.5 207.5q-42 -5 -83.5 -10.5t-79.5 -13.5z" />
    <glyph glyph-name="cid854" unicode="&#x304d;" horiz-adv-x="738" 
d="M60 421q82 0 172.5 3t178.5 8q-8 22 -16 44.5t-16 45.5q-72 -5 -146 -8t-142 -4l-3 60q66 0 136 2t139 7q-7 24 -12 48t-10 47l74 9q3 -24 7.5 -49t10.5 -49q57 5 108 10.5t94 13.5l9 -61q-42 -5 -92 -10.5t-105 -10.5q7 -23 14 -45.5t16 -44.5q58 5 109.5 10.5
t93.5 12.5l8 -61q-39 -5 -86 -9.5t-100 -9.5q20 -43 45.5 -80t55.5 -66l-33 -52q-68 32 -139 47t-136 15q-67 0 -100 -26t-33 -64q0 -48 60.5 -73.5t175.5 -25.5q29 0 64.5 1.5t71.5 5.5l-4 -66q-30 -2 -61.5 -3t-56.5 -1q-160 0 -239 43t-79 120q0 66 50 106t143 40
q50 0 105.5 -8.5t105.5 -28.5q-17 22 -32.5 50t-30.5 61q-94 -7 -190.5 -10.5t-181.5 -5.5z" />
    <glyph glyph-name="cid855" unicode="&#x304e;" horiz-adv-x="780" 
d="M689 733q20 -21 38.5 -46t32.5 -49l-38 -25q-13 23 -31 48t-39 46zM594 700q20 -21 39 -46t33 -49l-38 -25q-13 23 -31.5 48t-39.5 46zM60 421q81 0 170 3t177 8q-17 41 -34 89q-69 -5 -140 -8t-142 -3l-3 59q67 0 134.5 2t132.5 6q-7 25 -12.5 49t-9.5 48l72 9
q4 -25 9 -50t11 -51q49 5 94 10.5t85 12.5l8 -60q-38 -6 -81 -10.5t-90 -8.5q7 -23 14.5 -45t17.5 -44q60 5 112.5 10t94.5 13l8 -61q-39 -5 -87 -9.5t-102 -9.5q22 -43 48 -80t56 -66l-33 -52q-68 32 -139 47t-136 15q-67 0 -100 -26t-33 -64q0 -48 60.5 -73.5t175.5 -25.5
q29 0 64.5 1.5t71.5 5.5l-4 -66q-30 -2 -61.5 -3t-56.5 -1q-160 0 -239 43t-79 120q0 66 50 106t143 40q50 0 105.5 -8.5t105.5 -28.5q-32 43 -65 111q-94 -7 -189.5 -10.5t-180.5 -5.5z" />
    <glyph glyph-name="cid856" unicode="&#x304f;" horiz-adv-x="605" 
d="M494 646q-28 -31 -70.5 -72t-90 -83.5t-94.5 -81.5t-85 -66q-8 -5 -8 -12q0 -8 6 -12q57 -36 110.5 -74t101.5 -75t89 -72.5t72 -66.5l-61 -53q-32 36 -76.5 76t-96.5 80.5t-108.5 81t-112.5 77.5q-20 13 -20 35q0 10 6 21t19 20q39 27 90 69t102 87.5t96 90.5t73 78z
" />
    <glyph glyph-name="cid857" unicode="&#x3050;" horiz-adv-x="739" 
d="M635 729q26 -25 45.5 -51.5t38.5 -58.5l-38 -25q-33 61 -81 111zM564 661q24 -26 43.5 -53t37.5 -59l-38 -24q-17 31 -36.5 58.5t-42.5 53.5zM499 645q-29 -32 -70.5 -72.5t-88 -82.5t-93 -80.5t-83.5 -65.5q-8 -4 -8 -12t6 -12q56 -37 109.5 -74.5t101.5 -74.5t89 -72.5
t73 -66.5l-61 -53q-32 36 -76.5 76t-96.5 80.5t-108.5 81t-112.5 77.5q-11 7 -15.5 15.5t-4.5 19.5q0 10 6 21t18 20q40 27 90 68.5t100 86.5t94.5 89.5t72.5 77.5z" />
    <glyph glyph-name="cid858" unicode="&#x3051;" horiz-adv-x="742" 
d="M159 664q-17 -79 -24.5 -160.5t-7.5 -161.5q0 -170 45 -290l-69 -21q-23 61 -33 138.5t-10 164.5q0 85 7 173t21 167zM498 495q-3 42 -6.5 87.5t-8.5 94.5l74 4q3 -51 5 -97.5t3 -88.5h117v-65h-116v-28q0 -80 -7 -142t-24.5 -111.5t-47.5 -88.5t-77 -73l-56 48
q44 28 72 62.5t44.5 78.5t23 100t6.5 127v14t-1 13h-255v65h254z" />
    <glyph glyph-name="cid859" unicode="&#x3052;" horiz-adv-x="756" 
d="M655 733q24 -21 43.5 -43.5t37.5 -48.5l-31 -27q-33 51 -80 92zM594 668q23 -22 42.5 -45t37.5 -49l-32 -25q-17 25 -36.5 48.5t-42.5 44.5zM158 657q-16 -78 -23.5 -159.5t-7.5 -161.5q0 -169 45 -289l-68 -21q-23 61 -33.5 138.5t-10.5 164.5q0 85 7.5 173t21.5 167z
M491 486q-2 44 -6 91t-10 98l73 4q5 -54 7 -101.5t4 -91.5h124v-63h-123v-23q0 -80 -7 -141.5t-24.5 -110.5t-47.5 -88t-77 -74l-56 47q44 29 72 63.5t44.5 78.5t23 99.5t6.5 127.5v21h-249v63h246z" />
    <glyph glyph-name="cid860" unicode="&#x3053;" horiz-adv-x="662" 
d="M334 598q57 0 113.5 2t107.5 6l26 -61q-17 -9 -43 -27t-54.5 -38.5t-56 -41t-47.5 -36.5l-47 44q15 10 33 22.5l36 25t34 24t28 19.5q-32 -2 -70.5 -3t-75.5 -1q-63 0 -119 5t-111 13l12 66q53 -10 110.5 -14.5t123.5 -4.5zM50 151q0 37 22 81t61 87l53 -36
q-30 -32 -47 -64.5t-17 -58.5q0 -46 59.5 -63t192.5 -17q24 0 53 1.5t59.5 4.5t60 7.5t54.5 10.5l11 -71q-53 -11 -119.5 -16.5t-122.5 -5.5q-80 0 -140 7t-100 23t-60 42.5t-20 66.5v1z" />
    <glyph glyph-name="cid861" unicode="&#x3054;" horiz-adv-x="750" 
d="M667 730q18 -25 34 -53t29 -58l-41 -21q-10 29 -26 57.5t-34 53.5zM560 720q19 -26 34.5 -53.5t28.5 -57.5l-40 -21q-11 28 -26.5 56.5t-33.5 53.5zM345 591q57 0 111 1.5t102 4.5l31 -60q-16 -10 -41.5 -27t-54 -37t-56 -40.5t-46.5 -35.5l-47 42q15 11 33 24t36 25.5
t34 23t28 18.5q-32 -1 -70.5 -2t-76.5 -1q-63 0 -119 5t-111 13l12 65q53 -10 110.5 -14.5t123.5 -4.5h1zM60 151q0 37 22 81t61 87l53 -36q-30 -32 -47 -64.5t-17 -58.5q0 -46 59.5 -63t192.5 -17q24 0 53 1.5t59.5 4.5t60 7.5t54.5 10.5l11 -71q-53 -11 -119.5 -16.5
t-122.5 -5.5q-80 0 -140 7t-100 23t-60 42.5t-20 66.5v1z" />
    <glyph glyph-name="cid862" unicode="&#x3055;" horiz-adv-x="753" 
d="M60 524q48 -3 105 -3q54 0 113 2t119 6q-11 35 -19.5 71.5t-13.5 74.5l73 7q7 -71 29 -147q60 5 114.5 12.5t98.5 17.5l14 -63q-45 -9 -97 -16t-109 -12q25 -66 59.5 -122.5t77.5 -97.5l-43 -50q-69 33 -138 48.5t-140 15.5q-66 0 -99.5 -27t-33.5 -72q0 -55 61.5 -84.5
t192.5 -29.5q53 0 118 6l-3 -65q-30 -2 -59 -3t-54 -1q-167 0 -246.5 47.5t-79.5 135.5q0 33 14 61.5t39 48.5t60.5 31.5t77.5 11.5q57 0 114 -9.5t106 -24.5q-25 30 -49 75t-44 100q-69 -5 -136.5 -7t-130.5 -3q-23 0 -46.5 0.5t-44.5 1.5v63z" />
    <glyph glyph-name="cid863" unicode="&#x3056;" horiz-adv-x="774" 
d="M673 730q25 -22 44 -44t37 -49l-35 -28q-17 27 -35.5 50t-43.5 44zM580 693q25 -22 43.5 -43.5t37.5 -48.5l-35 -28q-17 26 -36 49t-43 44zM60 522q24 -1 50 -1.5t55 -0.5q54 0 113 1.5t119 6.5q-11 35 -19.5 72t-13.5 75l73 7q8 -74 29 -149q60 5 114.5 12.5t98.5 18.5
l14 -63q-45 -9 -97 -16t-109 -12q26 -66 60 -122t77 -97l-43 -50q-69 33 -138 48.5t-140 15.5q-66 0 -99.5 -27t-33.5 -72q0 -55 61.5 -84.5t192.5 -29.5q53 0 118 6l-3 -65q-30 -2 -59 -3t-54 -1q-167 0 -246.5 47.5t-79.5 135.5q0 33 14 61.5t39 48.5t60.5 31.5t77.5 11.5
q57 0 114 -9.5t106 -24.5q-25 30 -48.5 74.5t-44.5 98.5q-68 -5 -136 -7t-131 -2h-46.5t-44.5 1v63z" />
    <glyph glyph-name="cid864" unicode="&#x3057;" horiz-adv-x="694" 
d="M181 672q-3 -65 -5.5 -127t-3.5 -116.5t-1.5 -98.5t-0.5 -73q0 -106 37.5 -150t119.5 -44q40 0 75 11.5t65 38.5t55 72t46 111l66 -32q-27 -78 -60 -130t-72 -83t-83 -44t-94 -13q-118 0 -171.5 65.5t-53.5 195.5q0 29 0.5 73.5t1 99.5t1.5 117t2 127h76z" />
    <glyph glyph-name="cid865" unicode="&#x3058;" horiz-adv-x="654" 
d="M141 672q-3 -65 -5.5 -127t-3.5 -116.5t-1.5 -98.5t-0.5 -73q0 -106 37.5 -150t119.5 -44q40 0 75 11.5t65 38.5t55 72t46 111l66 -32q-27 -78 -60 -130t-72 -83t-83 -44t-94 -13q-118 0 -171.5 65.5t-53.5 195.5q0 29 0.5 73.5t1 99.5t1.5 117t2 127h76zM459 628
q26 -26 47 -51.5t41 -55.5l-36 -28q-37 59 -85 107zM371 571q26 -26 47 -51t41 -56l-37 -28q-36 60 -85 106z" />
    <glyph glyph-name="cid866" unicode="&#x3059;" horiz-adv-x="700" 
d="M410 318q-5 42 -30 62t-63 20q-17 0 -32.5 -7.5t-27 -20t-18.5 -29.5t-7 -36q0 -42 25 -65.5t64 -23.5q20 0 36.5 8t28 21.5t18 29.5t6.5 33v8zM409 584q-1 26 -1.5 51t-1.5 46h74v-97h210v-63h-210v-189q3 -18 3 -39q0 -58 -9.5 -107.5t-37.5 -89.5t-79 -70.5
t-133 -50.5l-28 63q50 10 86 24t60 32t38 40t21 49q-38 -23 -88 -23q-71 0 -109.5 40.5t-38.5 106.5q0 31 11 58.5t30.5 48t47.5 32.5t62 12q28 0 51.5 -6.5t42.5 -17.5q-1 21 -1 42.5v44.5h-369v63h369z" />
    <glyph glyph-name="cid867" unicode="&#x305a;" horiz-adv-x="779" 
d="M688 735q20 -22 38.5 -46.5t32.5 -48.5l-37 -23q-12 23 -31 48.5t-39 45.5zM584 716q20 -21 38.5 -45.5t33.5 -49.5l-36 -23q-12 23 -31.5 48.5t-39.5 45.5zM430 318q-5 42 -30 61t-63 19q-17 0 -32.5 -7t-27 -19.5t-18.5 -29t-7 -35.5q0 -42 25 -66t64 -24
q20 0 36.5 8.5t28 21.5t18 29.5t6.5 32.5v9zM429 581q-1 28 -1.5 53.5t-1.5 46.5h74v-100h210v-62h-210v-188q3 -18 3 -39q0 -58 -9.5 -107.5t-37.5 -89.5t-79 -70t-133 -50l-28 63q50 10 86 24t60 32t38 39.5t21 48.5q-38 -23 -88 -23q-71 0 -109.5 40.5t-38.5 106.5
q0 31 11 58.5t30.5 48t47.5 32t62 11.5q28 0 51.5 -6.5t42.5 -17.5q-1 21 -1 43v44h-369v62h369z" />
    <glyph glyph-name="cid868" unicode="&#x305b;" horiz-adv-x="736" 
d="M10 440q31 4 70 7.5t84 6.5v195h70q-1 -45 -1.5 -92.5t-0.5 -95.5q67 5 137.5 11t137.5 11v18q0 48 -1.5 95t-3.5 85h70q0 -38 1 -85t1 -95v-12q38 3 73 6t64 5l5 -64q-31 -2 -67 -4.5t-76 -5.5q-1 -78 -5 -125.5t-15.5 -73.5t-32 -34.5t-53.5 -8.5q-18 0 -41.5 2
t-49.5 5v59q21 -3 41.5 -4t36.5 -1t26 4.5t15.5 22t8 53t2.5 97.5q-66 -6 -136 -12t-138 -12q1 -66 1.5 -121t3.5 -90q2 -36 12 -60.5t34 -39t63.5 -20t99.5 -5.5q41 0 84.5 2.5t78.5 6.5l1 -67q-35 -2 -79 -4t-83 -2q-74 0 -125.5 8t-84.5 28.5t-49.5 56t-19.5 89.5
q-3 35 -4 90t-1 122q-41 -4 -78.5 -7.5t-69.5 -6.5l-6 62v0z" />
    <glyph glyph-name="cid869" unicode="&#x305c;" horiz-adv-x="870" 
d="M736 733q40 -45 74 -100l-36 -24q-13 25 -32 50.5t-40 48.5zM660 680q21 -23 39 -47.5t35 -52.5l-36 -24q-14 25 -32.5 51t-39.5 48zM60 438q31 4 70 7.5t84 7.5v196h70q-1 -46 -1.5 -94t-0.5 -96q66 5 135.5 11t135.5 12v18q0 48 -1 94t-3 83h69q1 -38 1.5 -83t0.5 -94
v-13q40 3 76 6t65 5l5 -64q-32 -2 -68.5 -4t-77.5 -5q-1 -78 -5 -125.5t-15.5 -73t-32 -34t-53.5 -8.5q-18 0 -42 1.5t-49 4.5v60q20 -3 41 -4.5t36 -1.5q16 0 26 4.5t15.5 22t8 52.5t3.5 97q-66 -5 -135 -11t-136 -12q1 -66 1.5 -120.5t3.5 -89.5q2 -36 12 -60.5t34 -39
t63.5 -20t99.5 -5.5q41 0 84.5 2.5t78.5 6.5l1 -67q-35 -2 -79 -4t-83 -2q-74 0 -125.5 8t-84.5 28.5t-49.5 56t-19.5 89.5q-3 35 -4 89.5t-1 120.5q-41 -3 -78.5 -6.5t-69.5 -7.5z" />
    <glyph glyph-name="cid870" unicode="&#x305d;" horiz-adv-x="729" 
d="M136 627q39 0 98.5 1t122.5 3.5t121.5 5t96.5 5.5l25 -59q-32 -20 -71 -44.5t-79 -49t-76 -48t-62 -39.5q47 4 97.5 9t100 10t95.5 10.5t84 10.5l10 -63q-61 -5 -103 -13.5t-78 -25.5q-72 -35 -113 -77t-41 -92q0 -54 56 -80.5t182 -31.5l-12 -68q-80 5 -136.5 18
t-92.5 34.5t-52.5 50.5t-16.5 65q0 60 38.5 107.5t107.5 87.5q-92 -9 -193.5 -21t-195.5 -27l-9 67q39 4 73.5 7.5t63.5 8.5q27 15 65 38t78.5 48.5t78.5 51.5t67 46q-30 -1 -73 -2.5t-88.5 -3t-89 -2.5t-75.5 -2l-4 64v0z" />
    <glyph glyph-name="cid871" unicode="&#x305e;" horiz-adv-x="839" 
d="M724 730q45 -44 79 -95l-33 -26q-14 24 -35 49t-43 46zM654 672q22 -22 41.5 -46.5t36.5 -50.5l-35 -26q-14 25 -34 50t-42 46zM156 627q39 0 97 1t119.5 3t119 4.5t95.5 5.5l27 -60q-32 -20 -70 -44t-76.5 -48.5t-74 -47.5t-61.5 -39q47 4 97.5 9t100 10t95.5 10.5
t84 10.5l10 -63q-61 -5 -103 -13.5t-78 -25.5q-72 -35 -113 -77t-41 -92q0 -54 56 -80.5t182 -31.5l-12 -68q-80 5 -136.5 18t-92.5 34.5t-52.5 50.5t-16.5 65q0 60 38.5 107.5t107.5 87.5q-92 -9 -193.5 -21t-195.5 -27l-9 67q39 4 73.5 7.5t63.5 8.5q27 15 65 38
t78.5 48.5t78.5 51.5t67 46q-30 -1 -73 -2.5t-88.5 -3t-89 -2.5t-75.5 -2z" />
    <glyph glyph-name="cid872" unicode="&#x305f;" horiz-adv-x="754" 
d="M208 579q7 50 12 101l71 -4q-5 -49 -12 -97h238v-64h-249q-13 -71 -30.5 -143t-38.5 -140t-45 -129t-50 -109l-64 33q26 45 49.5 101.5t43.5 120.5t36.5 132t28.5 134h-143v64h153zM683 372q-23 2 -50.5 3t-57.5 1q-48 0 -99.5 -3t-94.5 -9l-3 62q44 5 98.5 7t105.5 3
q29 0 55 -0.5t46 -1.5v-62zM426 207q-25 -47 -25 -78q0 -30 44 -41.5t131 -11.5q59 0 118 9v-66q-29 -3 -58.5 -4t-58.5 -1q-112 0 -177 22t-65 76q0 23 8 49t25 59z" />
    <glyph glyph-name="cid873" unicode="&#x3060;" horiz-adv-x="789" 
d="M665 718q27 -25 47.5 -50.5t40.5 -56.5l-36 -28q-35 59 -85 107zM574 665q26 -24 47 -49.5t41 -56.5l-36 -28q-19 30 -40 56t-46 50zM208 579q7 50 12 101l71 -4q-5 -49 -12 -97h238v-64h-249q-13 -71 -30.5 -143t-38.5 -140t-45 -129t-50 -109l-64 33q26 45 49.5 101.5
t43.5 120.5t36.5 132t28.5 134h-143v64h153zM683 372q-23 2 -50.5 3t-57.5 1q-48 0 -99.5 -3t-94.5 -9l-3 62q44 5 98.5 7t105.5 3q29 0 55 -0.5t46 -1.5v-62zM426 207q-25 -47 -25 -78q0 -30 44 -41.5t131 -11.5q59 0 118 9v-66q-29 -3 -58.5 -4t-58.5 -1q-112 0 -177 22
t-65 76q0 23 8 49t25 59z" />
    <glyph glyph-name="cid874" unicode="&#x3061;" horiz-adv-x="725" 
d="M226 569q3 29 5 57t3 55l71 -2q-1 -28 -3.5 -55.5t-5.5 -54.5h369v-63h-379q-11 -66 -27.5 -122.5t-36.5 -94.5q28 17 60 32t65.5 26t67 17t63.5 6q43 0 77.5 -13t58.5 -36t37 -53.5t13 -66.5q0 -46 -17.5 -84t-56.5 -65.5t-101.5 -43t-152.5 -15.5q-23 0 -47.5 1
t-50.5 3l-3 67q31 -4 58.5 -5.5t52.5 -1.5q132 0 190.5 39t58.5 102q0 23 -9 43.5t-25.5 35.5t-40 24t-51.5 9q-67 0 -140.5 -31.5t-151.5 -91.5l-56 44q36 54 59.5 125.5t35.5 149.5h-156v63h166z" />
    <glyph glyph-name="cid875" unicode="&#x3062;" horiz-adv-x="765" 
d="M661 732q26 -24 45 -47t39 -53l-36 -28q-18 29 -37.5 53t-44.5 48zM547 709q26 -24 45 -47t39 -53l-35 -27q-19 29 -38 53t-43 47zM225 565q7 60 9 116l71 -2q-1 -29 -3.5 -57t-6.5 -57h370v-63h-380q-11 -65 -27 -120t-36 -93q28 17 60 32t65.5 26t67 17t63.5 6
q43 0 77.5 -13t58.5 -36t37 -53.5t13 -66.5q0 -46 -17.5 -84t-56.5 -65.5t-101.5 -43t-152.5 -15.5q-23 0 -47.5 1t-50.5 3l-3 67q31 -4 58.5 -5.5t52.5 -1.5q132 0 190.5 39t58.5 102q0 23 -9 43.5t-25.5 35.5t-40 24t-51.5 9q-67 0 -140.5 -31.5t-151.5 -91.5l-56 44
q35 54 58.5 124.5t36.5 146.5h-156v63h165z" />
    <glyph glyph-name="cid876" unicode="&#x3063;" horiz-adv-x="598" 
d="M30 374q41 9 84.5 18.5t84.5 18t77.5 13.5t63.5 5q48 0 86.5 -13.5t65.5 -38t41.5 -60t14.5 -79.5q0 -53 -19 -95t-60 -71.5t-105 -46.5t-155 -18l-12 63q78 1 132.5 12t88.5 32t49.5 51.5t15.5 68.5q0 61 -39.5 96.5t-114.5 35.5q-23 0 -56 -5t-71 -12.5t-78.5 -18
t-77.5 -20.5l-16 64v0z" />
    <glyph glyph-name="cid877" unicode="&#x3064;" horiz-adv-x="752" 
d="M20 510q54 12 110.5 24.5t109.5 23t100 17.5t83 7q61 0 110.5 -17.5t85 -50.5t54.5 -79.5t19 -104.5q0 -69 -24.5 -123.5t-77.5 -92.5t-137 -59t-204 -24l-14 70q105 1 178 16t118.5 43.5t66 70t20.5 95.5q0 42 -13.5 76.5t-40 59t-65.5 38t-89 13.5q-30 0 -73.5 -6.5
t-93 -17t-103 -24.5t-103.5 -28l-17 73v0z" />
    <glyph glyph-name="cid878" unicode="&#x3065;" horiz-adv-x="816" 
d="M689 721q26 -24 46.5 -50t40.5 -57l-36 -27q-35 60 -84 106zM588 685q25 -24 45.5 -49.5t40.5 -56.5l-35 -27q-19 30 -39.5 56t-45.5 49zM40 507q54 12 110.5 24.5t109.5 23t100 17.5t83 7q61 0 110.5 -17.5t85 -50.5t54.5 -79.5t19 -104.5q0 -69 -24.5 -123.5
t-77.5 -92.5t-137 -59.5t-204 -24.5l-14 71q105 1 178 16t118.5 43.5t66 70t20.5 95.5q0 42 -13.5 76t-40 59t-65.5 38.5t-89 13.5q-30 0 -73.5 -6.5t-93 -17t-103 -24.5t-103.5 -28z" />
    <glyph glyph-name="cid879" unicode="&#x3066;" horiz-adv-x="676" 
d="M10 576q27 1 63.5 2.5t77.5 3.5t83 4.5t80 5t69 4.5t50 4q47 4 100 9t95 10l8 -69q-14 0 -30.5 -1.5t-34 -3.5t-33 -4.5t-25.5 -3.5q-13 -3 -30 -11t-31 -16q-75 -48 -122.5 -112.5t-47.5 -141.5q0 -84 72.5 -131.5t220.5 -55.5l-9 -69q-83 4 -149 21.5t-111.5 49.5
t-70 77.5t-24.5 104.5q0 81 46.5 152.5t125.5 127.5q-33 -3 -80 -6.5t-98 -7t-101 -6.5t-90 -4l-4 67v0z" />
    <glyph glyph-name="cid880" unicode="&#x3067;" horiz-adv-x="709" 
d="M10 576q27 1 63.5 2.5t77.5 3.5t83 4.5t80 5t69 4.5t50 4q47 4 100 9t95 10l8 -69q-14 0 -30.5 -1.5t-34 -3.5t-33 -4.5t-25.5 -3.5q-13 -3 -30 -11t-31 -16q-75 -48 -122.5 -112.5t-47.5 -141.5q0 -84 72.5 -131.5t220.5 -55.5l-9 -69q-83 4 -149 21.5t-111.5 49.5
t-70 77.5t-24.5 104.5q0 81 46.5 152.5t125.5 127.5q-33 -3 -80 -6.5t-98 -7t-101 -6.5t-90 -4zM617 481q20 -24 39 -54t33 -59l-37 -21q-13 29 -31.5 59t-38.5 55zM527 439q20 -25 39 -55t33 -59l-38 -21q-12 29 -31 59t-39 55z" />
    <glyph glyph-name="cid881" unicode="&#x3068;" horiz-adv-x="654" 
d="M566 433q-80 -25 -157.5 -53t-139.5 -60.5t-100 -70t-38 -80.5q0 -50 57.5 -77.5t188.5 -27.5q55 0 116.5 5t112.5 13l8 -70q-57 -8 -116 -11t-121 -3q-317 0 -317 168q0 66 51 118t133 95q-17 27 -27 57t-15.5 66t-7 80t-1.5 99h72q0 -51 1 -92t5 -74t12 -59t21 -47
q54 24 114 46t122 44z" />
    <glyph glyph-name="cid882" unicode="&#x3069;" horiz-adv-x="708" 
d="M614 699q25 -26 45 -51.5t39 -57.5l-36 -25q-18 30 -38.5 57t-45.5 51zM511 667q26 -26 45.5 -51.5t39.5 -56.5l-38 -26q-35 61 -82 108zM566 433q-80 -25 -157.5 -53t-139.5 -60.5t-100 -70t-38 -80.5q0 -50 57.5 -77.5t188.5 -27.5q55 0 116.5 5t112.5 13l8 -70
q-57 -8 -116 -11t-121 -3q-317 0 -317 168q0 66 51 118t133 95q-17 27 -27 57t-15.5 66t-7 80t-1.5 99h72q0 -51 1 -92t5 -74t12 -59t21 -47q54 24 114 46t122 44z" />
    <glyph glyph-name="cid883" unicode="&#x306a;" horiz-adv-x="762" 
d="M687 429q-18 13 -42.5 28.5t-52.5 31t-56 29t-53 23.5l33 54q25 -11 53.5 -25t56 -28.5t52.5 -29.5t44 -27zM207 564q8 32 14.5 62.5t10.5 58.5l70 -8q-9 -53 -24 -113h132v-63h-150q-14 -50 -32 -101t-38 -99t-42 -91t-45 -77l-63 37q22 31 43 69.5t40 81.5t35.5 89
t30.5 91h-125v63h143zM494 168q-45 15 -86 15q-49 0 -75.5 -17.5t-26.5 -48.5q0 -27 27 -46t69 -19q48 0 70 20.5t22 64.5v31zM559 438q-2 -15 -2.5 -36t-0.5 -44q0 -37 1 -77.5t2 -75.5q42 -17 79.5 -39.5t68.5 -48.5l-40 -52q-24 23 -51.5 41.5t-56.5 33.5v-2
q0 -71 -35.5 -107.5t-113.5 -36.5q-36 0 -66 9.5t-51.5 26t-33.5 39t-12 48.5q0 51 41.5 85.5t119.5 34.5q21 0 42 -3t43 -8q-1 32 -1.5 66t-0.5 66v80h68z" />
    <glyph glyph-name="cid884" unicode="&#x306b;" horiz-adv-x="741" 
d="M80 298q0 98 12 196.5t31 182.5l72 -13q-22 -80 -33.5 -174.5t-11.5 -190.5q0 -82 9.5 -153.5t34.5 -130.5l-72 -21q-23 63 -32.5 139t-9.5 165zM545 566q30 0 61 -0.5t57 -0.5l-2 -66q-29 2 -64.5 3.5t-71.5 1.5q-60 0 -121.5 -3.5t-113.5 -8.5l-4 64q57 5 125 7.5
t134 2.5zM681 50q-38 -4 -79 -6t-76 -2q-53 0 -98.5 5t-78.5 16.5t-52 31.5t-19 50q0 44 36 122l63 -12q-17 -31 -24 -52t-7 -38q0 -35 46 -47t133 -12q38 0 78 3.5t78 8.5v-68z" />
    <glyph glyph-name="cid885" unicode="&#x306c;" horiz-adv-x="835" 
d="M628 116q-52 25 -94 25q-36 0 -55.5 -12.5t-19.5 -34.5q0 -24 20.5 -35.5t51.5 -11.5q34 0 58.5 16t38.5 53zM275 144q-26 45 -46.5 96.5t-34.5 109.5q-35 -40 -54.5 -89t-19.5 -104q0 -74 59 -74q24 0 48.5 16t47.5 45zM247 398q21 -110 67 -192q26 49 47 113t34 140
q-44 -8 -81 -24t-67 -37zM223 618q1 -40 3.5 -78.5t8.5 -76.5q71 45 170 61q5 34 6.5 69.5t2.5 71.5l66 -2q-1 -68 -9 -133h23q54 0 95.5 -19t70 -54t43.5 -84.5t15 -110.5q0 -36 -3.5 -66.5t-10.5 -56.5q19 -12 36.5 -25.5t34.5 -30.5l-40 -46q-27 27 -52 45
q-45 -89 -150 -89q-62 0 -95.5 26.5t-33.5 71.5q0 43 34.5 73t97.5 30q54 0 106 -23q3 20 5 43t2 49q0 98 -41 151t-124 53q-5 0 -11 -0.5t-11 -0.5q-17 -97 -44.5 -178t-65.5 -141q5 -6 10.5 -12t10.5 -11l-44 -55q-5 5 -9 10.5t-9 11.5q-33 -36 -69.5 -56t-77.5 -20
q-45 0 -74.5 34t-29.5 102q0 78 30.5 148t88.5 123q-8 46 -12.5 94t-6.5 99z" />
    </font>
</defs>
</svg>
