<?xml version="1.0" encoding="utf-8"?>
<!-- Generator: Adobe Illustrator 16.0.0, SVG Export Plug-In . SVG Version: 6.00 Build 0)  -->
<!DOCTYPE svg PUBLIC "-//W3C//DTD SVG 1.1//EN" "http://www.w3.org/Graphics/SVG/1.1/DTD/svg11.dtd">
<svg version="1.1" id="图层_1" xmlns="http://www.w3.org/2000/svg" xmlns:xlink="http://www.w3.org/1999/xlink" x="0px" y="0px"
	 width="70px" height="20px" viewBox="0 0 70 20" enable-background="new 0 0 70 20" xml:space="preserve">
<g>
	<path fill="#8BC34A" d="M31.332,5.238c-3.967,0-7.184,3.219-7.184,7.189c0,3.97,3.217,7.188,7.184,7.188
		c3.966,0,7.181-3.218,7.181-7.188C38.513,8.457,35.298,5.238,31.332,5.238z M31.333,16.727c-2.374,0-4.298-1.924-4.298-4.299
		s1.924-4.301,4.298-4.301c2.37,0,4.296,1.926,4.296,4.301S33.703,16.727,31.333,16.727z"/>
	<path fill="#FFFFFF" d="M7.143,0C5.178,0,3.34,0.695,1.95,2.086C0.555,3.478,0,5.156,0,7.124v11.478c0,0.012,0-0.021,0,0
		C0,19.409,0.398,20,1.201,20c0.805,0,1.272-0.594,1.272-1.398c0-0.048,0,0.047,0,0v-5.766c1.853,0.939,2.695,1.41,4.321,1.41
		c1.961,0,3.814-0.697,5.205-2.088c1.389-1.391,2.171-3.069,2.171-5.034c0-1.968-0.647-3.646-2.04-5.038
		C10.742,0.695,9.109,0,7.143,0z M10.162,10.143c-0.838,0.834-1.843,1.254-3.02,1.254c-1.176,0-2.18-0.42-3.016-1.254
		C3.293,9.307,2.874,8.299,2.874,7.124c0-1.179,0.419-2.188,1.253-3.022c0.836-0.836,1.84-1.254,3.016-1.254
		c1.177,0,2.182,0.418,3.02,1.254c0.832,0.835,1.251,1.844,1.251,3.022C11.413,8.299,10.994,9.307,10.162,10.143z"/>
	<path fill="#FFFFFF" d="M22.851,16.973c-0.016,0-0.03,0.002-0.046,0.002c-0.996-0.029-2.33-0.381-3.133-1.184
		c-0.837-0.836-1.283-1.91-1.283-3.088v-4.34h3.033h0.013l0,0c0.76,0,1.437-0.77,1.437-1.568c0-0.787-0.631-1.523-1.411-1.523l0,0
		h-3.071V2.055c0-0.07-0.054-1.582-1.48-1.657c-0.794-0.044-1.612,0.644-1.612,1.438c0,0.061,0,0.121,0,0.181v10.687
		c0,1.967,0.812,3.775,2.198,5.166c1.186,1.185,3.274,2.041,5.329,1.949c0.783-0.035,1.433-0.639,1.433-1.422
		S23.635,16.973,22.851,16.973z"/>
	<path fill="#8BC34A" d="M68.265,13.871c0.858,0,1.638-0.604,1.729-1.458c0.11-1.005-1.326-6.947-7.047-6.969
		c-1.955-0.006-3.624,0.72-5.023,2.121c-1.398,1.401-2.08,3.101-2.08,5.077c0,1.979,0.712,3.674,2.11,5.076
		c1.399,1.398,3.094,2.104,5.071,2.104c1.831,0,3.707-0.586,5.125-1.729h0.004c0.355-0.287,0.588-0.723,0.588-1.215
		c0-0.852-0.688-1.543-1.542-1.543c-0.425,0-0.812,0.173-1.086,0.452h-0.009c-0.873,0.749-1.893,1.042-3.076,1.091
		c-1.982,0.078-3.686-1.14-4.064-3.008H68.265C68.265,13.871,68.21,13.871,68.265,13.871z M63.029,8.504
		c2.273-0.061,3.857,1.635,4.07,2.879h-8.135C59.17,10.139,60.718,8.564,63.029,8.504z"/>
	<path fill="#8BC34A" d="M54.446,17.969v-5.295c0-1.994-0.617-3.699-2.027-5.11c-1.409-1.411-3.026-2.119-5.021-2.119
		c-1.99,0-3.668,0.708-5.08,2.119c-1.41,1.411-2.092,3.116-2.092,5.11v5.371v0.293l-0.004,0.004l0.006,0.02
		c0.016,0.287,0.297,1.461,1.486,1.461c1.22,0,1.586-0.938,1.586-1.428c0-0.048,0-0.082,0-0.109c0-0.01,0.004-0.014,0.004-0.014
		c0-0.031-0.004-0.057-0.004-0.088v-5.51c0-1.195,0.35-2.215,1.197-3.064c0.848-0.848,1.835-1.273,3.027-1.273
		s2.164,0.426,3.01,1.273c0.85,0.85,1.221,1.869,1.221,3.064l-0.004,5.27c0,0-0.006,1.76,1.348,1.787
		C54.446,19.746,54.446,17.969,54.446,17.969z"/>
</g>
</svg>
