<?xml version="1.0" encoding="utf-8"?>
<!-- Generator: Adobe Illustrator 16.0.0, SVG Export Plug-In . SVG Version: 6.00 Build 0)  -->
<!DOCTYPE svg PUBLIC "-//W3C//DTD SVG 1.1//EN" "http://www.w3.org/Graphics/SVG/1.1/DTD/svg11.dtd">
<svg version="1.1" id="图层_1" xmlns="http://www.w3.org/2000/svg" xmlns:xlink="http://www.w3.org/1999/xlink" x="0px" y="0px"
	 width="40px" height="40px" viewBox="0 0 40 40" enable-background="new 0 0 40 40" xml:space="preserve">
<g>
	<path fill="#264170" d="M40,36c0,2.2-1.8,4-4,4H4c-2.2,0-4-1.8-4-4V4c0-2.2,1.8-4,4-4h32c2.2,0,4,1.8,4,4V36z"/>
</g>
<g>
	<path fill="#3B5998" d="M39,35c0,2.2-1.8,4-4,4H5c-2.2,0-4-1.8-4-4V5c0-2.2,1.8-4,4-4h30c2.2,0,4,1.8,4,4V35z"/>
</g>
<g>
	<path id="f_1_" fill="#FFFFFF" d="M21.491,30v-9.526h2.948l0.441-3.423h-3.39v-2.187c0-0.991,0.274-1.667,1.695-1.667L25,13.195
		v-3.061C24.686,10.095,23.61,10,22.357,10c-2.613,0-4.402,1.596-4.402,4.525v2.525H15v3.423h2.955V30H21.491z"/>
</g>
</svg>
