<?xml version="1.0" encoding="utf-8"?>
<!-- Generator: Adobe Illustrator 16.0.0, SVG Export Plug-In . SVG Version: 6.00 Build 0)  -->
<!DOCTYPE svg PUBLIC "-//W3C//DTD SVG 1.1//EN" "http://www.w3.org/Graphics/SVG/1.1/DTD/svg11.dtd">
<svg version="1.1" id="图层_1" xmlns="http://www.w3.org/2000/svg" xmlns:xlink="http://www.w3.org/1999/xlink" x="0px" y="0px"
	 width="85px" height="20px" viewBox="0 0 85 20" enable-background="new 0 0 85 20" xml:space="preserve">
<g>
	<path fill="#FFFFFF" d="M7.702,0.013c-2.119,0-4.101,0.75-5.6,2.25C0.598,3.763,0,5.573,0,7.695v10.797c0,0.012,0-0.023,0,0
		C0,19.363,0.431,20,1.295,20c0.868,0,1.372-0.64,1.372-1.508c0-0.051,0,0.051,0,0v-4.639c1.998,1.014,2.907,1.521,4.66,1.521
		c2.114,0,4.113-0.751,5.612-2.251c1.498-1.5,2.342-3.31,2.342-5.429c0-2.122-0.698-3.932-2.2-5.432
		C11.583,0.763,9.822,0.013,7.702,0.013z M10.958,10.95c-0.903,0.899-1.987,1.352-3.256,1.352S5.353,11.85,4.45,10.95
		c-0.899-0.902-1.352-1.988-1.352-3.255c0-1.271,0.452-2.358,1.352-3.259c0.902-0.901,1.983-1.353,3.252-1.353
		s2.353,0.451,3.256,1.353c0.896,0.9,1.348,1.988,1.348,3.259C12.306,8.962,11.854,10.048,10.958,10.95z"/>
	<path fill="#FFFFFF" d="M25.176,16.842c-0.016,0,0.275,0.002-0.049,0.002c-1.074-0.032-2.682-0.329-3.548-1.194
		c-0.902-0.901-1.562-2.156-1.562-3.426v-5.05h3.448h0.014l0,0c0.819,0,1.549-0.67,1.549-1.532c0-0.849-0.68-1.643-1.521-1.643H23
		h-2.982V1.744C20.018,1.053,19.491,0,18.497,0c-1.11,0-1.637,1.052-1.637,1.743c0,0.065,0,10.481,0,10.481
		c0,2.121,0.875,4.167,2.37,5.667c1.278,1.277,3.53,2.201,5.746,2.101c0.845-0.037,1.884-0.727,1.884-1.571
		C26.86,17.577,26.022,16.842,25.176,16.842z"/>
	<path fill="#8BC34A" d="M83.039,13.375c0.97,0,1.851-0.671,1.954-1.623c0.124-1.118-1.5-7.73-7.965-7.754
		c-2.209-0.006-4.096,0.801-5.677,2.361C69.771,7.917,69,9.808,69,12.007c0,2.202,0.805,4.088,2.385,5.649
		c1.582,1.556,3.496,2.341,5.732,2.341c2.068,0,4.189-0.652,5.792-1.923h0.004c0.401-0.319,0.666-0.804,0.666-1.352
		c0-0.948-0.779-1.716-1.743-1.716c-0.48,0-0.917,0.191-1.228,0.502h-0.01c-0.987,0.834-2.141,1.159-3.478,1.214
		c-2.24,0.087-4.166-1.268-4.593-3.347H83.039C83.039,13.375,82.977,13.375,83.039,13.375z M77.121,7.402
		c2.57-0.067,4.36,1.82,4.601,3.204h-9.193C72.759,9.222,74.509,7.469,77.121,7.402z"/>
	<path fill="#8BC34A" d="M67,18.29v-6.247c0-2.219-0.693-4.116-2.28-5.686C63.135,4.788,61.314,4,59.072,4
		c-2.239,0-4.126,0.788-5.714,2.358s-2.354,3.467-2.354,5.686v5.977v0.325L51,18.35l0.006,0.022
		c0.018,0.319,0.335,1.625,1.674,1.625c1.372,0,1.783-1.043,1.783-1.589c0-0.053,0-0.091,0-0.122c0-0.011,0.004-0.016,0.004-0.016
		c0-0.035-0.004-0.062-0.004-0.097v-6.13c0-1.33,0.393-2.463,1.347-3.409c0.954-0.943,2.064-1.417,3.405-1.417
		s2.435,0.474,3.386,1.417c0.956,0.946,1.204,2.079,1.204,3.409l-0.004,6.218c0,0,0.161,1.708,1.685,1.738
		C67,20.018,67,18.29,67,18.29z"/>
	<path fill="#8BC34A" d="M39.57,0c-5.233,0-9.476,4.478-9.476,10.002c0,5.521,4.242,9.998,9.476,9.998
		c5.23,0,9.472-4.476,9.472-9.998C49.042,4.478,44.801,0,39.57,0z M39.57,16.842c-3.49,0-6.317-3.062-6.317-6.84
		s2.827-6.844,6.317-6.844c3.485,0,6.314,3.065,6.314,6.844S43.056,16.842,39.57,16.842z"/>
</g>
</svg>
