<?xml version="1.0" encoding="utf-8"?>
<!-- Generator: Adobe Illustrator 16.0.4, SVG Export Plug-In . SVG Version: 6.00 Build 0)  -->
<!DOCTYPE svg PUBLIC "-//W3C//DTD SVG 1.1//EN" "http://www.w3.org/Graphics/SVG/1.1/DTD/svg11.dtd">
<svg version="1.1" id="图层_1" xmlns="http://www.w3.org/2000/svg" xmlns:xlink="http://www.w3.org/1999/xlink" x="0px" y="0px"
	 width="16px" height="16px" viewBox="0 0 16 16" enable-background="new 0 0 16 16" xml:space="preserve">
<g>
	<rect opacity="0" fill="none" width="16" height="16"/>
	<path d="M3.827,3.957c0-1.837,1.342-3.968,4.235-3.968c2.488,0,4.107,1.689,4.107,4.071c0,0.46-0.15,2.152-1.873,3.03
		c1.853,0.771,2.701,2.464,2.701,4.073c0,2.756-2.341,4.825-5.063,4.825c-2.894,0-4.937-2.216-4.937-4.806
		c0-1.42,0.767-3.237,2.659-4.093C4.443,6.422,3.827,5.253,3.827,3.957z M4.573,11.268c0,1.798,1.298,3.322,3.361,3.322
		c2.084,0,3.489-1.524,3.489-3.426s-1.554-3.28-3.468-3.28C6.04,7.884,4.573,9.368,4.573,11.268z M5.403,3.873
		c0,1.441,1.021,2.611,2.638,2.611c1.533,0,2.553-1.17,2.553-2.548c0-1.234-0.83-2.55-2.531-2.55
		C6.615,1.387,5.403,2.329,5.403,3.873z"/>
</g>
</svg>
