<?xml version="1.0" encoding="utf-8"?>
<!-- Generator: Adobe Illustrator 16.0.0, SVG Export Plug-In . SVG Version: 6.00 Build 0)  -->
<!DOCTYPE svg PUBLIC "-//W3C//DTD SVG 1.1//EN" "http://www.w3.org/Graphics/SVG/1.1/DTD/svg11.dtd">
<svg version="1.1" id="图层_1" xmlns="http://www.w3.org/2000/svg" xmlns:xlink="http://www.w3.org/1999/xlink" x="0px" y="0px"
	 width="250px" height="40px" viewBox="0 0 250 40" enable-background="new 0 0 250 40" xml:space="preserve">
<g>
</g>
<g>
	<path d="M87.91,32.698L87.91,32.698c-1.322-0.46-2.52-1.225-3.591-2.296c-1.877-1.878-2.817-4.141-2.817-6.788v-3.896h2.824
		c0.078,0.006,0.152,0.023,0.232,0.023s0.154-0.018,0.232-0.023h0.05v-0.005c1.644-0.145,2.938-1.51,2.938-3.192
		c0-1.683-1.294-3.047-2.938-3.192v-0.014h-0.137c-0.05-0.002-0.096-0.015-0.146-0.015s-0.096,0.012-0.146,0.015h-2.911v-2.574
		c0-0.02,0.006-0.038,0.006-0.058s-0.006-0.038-0.006-0.058v-0.14h-0.014c-0.104-1.676-1.481-3.007-3.184-3.007
		c-1.703,0-3.081,1.331-3.186,3.007H75.1v2.83h-2.789c-0.05-0.002-0.096-0.015-0.146-0.015s-0.096,0.012-0.146,0.015h-0.092v0.009
		c-1.666,0.124-2.983,1.499-2.983,3.197c0,1.697,1.317,3.073,2.983,3.196v0.024H75.1v3.872c0,4.418,1.563,8.191,4.69,11.317
		c1.662,1.663,3.512,2.873,5.54,3.651c0.418,0.199,0.881,0.319,1.375,0.319c1.779,0,3.221-1.442,3.221-3.221
		C89.926,34.328,89.091,33.175,87.91,32.698z"/>
	<path d="M219.383,28.229c-1.004,0-1.893,0.457-2.499,1.164l-0.012-0.01c-1.731,2.12-4.291,3.337-7.398,3.337
		c-2.514,0-4.543-0.746-6.088-2.236c-1.547-1.49-2.318-3.413-2.318-5.767c0-2.421,0.802-4.407,2.407-5.956
		c1.604-1.55,3.706-2.324,6.304-2.324c1.427,0,2.671,0.22,3.732,0.662c1.062,0.441,2.136,1.229,3.223,2.366l0.003-0.001
		c0.596,0.608,1.424,0.988,2.343,0.988c1.812-0.001,3.281-1.47,3.281-3.283c0-0.752-0.264-1.437-0.688-1.991l0.002-0.019
		c-0.046-0.054-0.1-0.102-0.146-0.155c-0.068-0.076-0.135-0.152-0.209-0.222c-1.176-1.288-2.584-2.373-4.172-3.167
		c-2.188-1.094-4.658-1.642-7.404-1.642c-2.969,0-5.653,0.646-8.053,1.934c-2.4,1.29-4.271,3.062-5.61,5.317
		c-1.34,2.256-2.011,4.725-2.011,7.404c0,3.867,1.378,7.243,4.135,10.125c2.757,2.885,6.569,4.326,11.438,4.326
		c5.41,0,9.419-1.699,12.388-5.56l-0.009-0.007c0.415-0.553,0.67-1.232,0.67-1.977C222.69,29.709,221.21,28.229,219.383,28.229z"/>
	<path d="M190.806,24.56c0-4.016-1.421-7.445-4.263-10.287c-2.842-2.843-6.271-4.264-10.287-4.264s-7.446,1.421-10.287,4.264
		c-2.843,2.842-4.264,6.271-4.264,10.287s1.421,7.445,4.264,10.288c2.841,2.842,6.271,4.263,10.287,4.263
		c3.669,0,7.119-1.189,10.179-3.354c0.029-0.019,0.059-0.039,0.088-0.059c0.03-0.022,0.063-0.041,0.093-0.063
		c0.007-0.005,0.005-0.017,0.011-0.023c0.747-0.572,1.237-1.465,1.237-2.479c0-1.73-1.404-3.132-3.133-3.132
		c-0.867,0-1.651,0.353-2.219,0.922c-0.003,0-0.012-0.007-0.014-0.006c-1.771,1.519-3.838,2.372-6.242,2.372
		c-2.406,0-4.463-0.854-6.17-2.561c-0.971-0.97-1.668-2.057-2.096-3.26h20.124c0.114,0.016,0.227,0.035,0.345,0.035
		c1.329,0,2.407-1.078,2.407-2.408c0-0.18-0.023-0.354-0.061-0.523C190.806,24.569,190.806,24.564,190.806,24.56z M167.99,21.65
		c0.428-1.203,1.125-2.289,2.096-3.26c1.707-1.707,3.764-2.561,6.17-2.562c2.404,0,4.462,0.854,6.169,2.562
		c0.97,0.97,1.669,2.057,2.096,3.26H167.99z"/>
	<path d="M117.487,7.52c-1.913,0-3.462,1.546-3.471,3.456h-0.006v0.782v1.229c-0.628-0.523-1.325-0.976-2.092-1.36
		c-1.849-0.975-3.835-1.463-5.96-1.463c-3.975,0-7.269,1.411-9.883,4.234c-2.58,2.789-3.868,6.292-3.868,10.51
		c0,4.078,1.324,7.494,3.974,10.248c2.648,2.753,5.959,4.13,9.934,4.13c2.057,0,4.025-0.453,5.908-1.359
		c0.349-0.174,0.688-0.366,1.021-0.576c0.329-0.209,0.652-0.452,0.967-0.731h0.017c0.07,1.858,1.588,3.345,3.462,3.345
		c1.866,0,3.378-1.475,3.46-3.322h0.016V10.976h-0.007C120.949,9.065,119.399,7.52,117.487,7.52z M111.859,31.355
		c-1.476,1.651-3.389,2.476-5.741,2.476c-2.213,0-4.109-0.843-5.688-2.528c-1.581-1.686-2.37-3.792-2.37-6.321
		c0-2.668,0.771-4.88,2.316-6.637c1.58-1.72,3.459-2.581,5.638-2.581c2.211,0,4.107,0.861,5.688,2.581
		c1.613,1.721,2.423,3.88,2.423,6.479C114.125,27.493,113.369,29.67,111.859,31.355z"/>
	<path d="M62.621,7.52c-1.911,0-3.462,1.546-3.471,3.456h-0.006v0.782v1.229c-0.628-0.523-1.325-0.976-2.092-1.36
		c-1.849-0.975-3.835-1.463-5.96-1.463c-3.975,0-7.269,1.411-9.882,4.234c-2.581,2.789-3.869,6.292-3.869,10.51
		c0,4.078,1.324,7.494,3.974,10.248c2.648,2.753,5.961,4.13,9.934,4.13c2.057,0,4.025-0.453,5.909-1.359
		c0.348-0.174,0.687-0.366,1.02-0.576c0.33-0.209,0.652-0.452,0.967-0.731h0.017c0.07,1.858,1.588,3.345,3.463,3.345
		c1.866,0,3.377-1.475,3.459-3.322H66.1V10.976h-0.008C66.083,9.065,64.533,7.52,62.621,7.52z M56.993,31.355
		c-1.474,1.651-3.389,2.476-5.741,2.476c-2.212,0-4.109-0.843-5.688-2.528c-1.58-1.686-2.37-3.792-2.37-6.321
		c0-2.668,0.771-4.88,2.316-6.637c1.582-1.72,3.459-2.581,5.638-2.581c2.212,0,4.108,0.861,5.688,2.581
		c1.615,1.721,2.423,3.88,2.423,6.479C59.259,27.493,58.503,29.67,56.993,31.355z"/>
	<path d="M249.208,34.201l0.01-0.008l-9.484-10.24l7.813-8.693c0.051-0.049,0.094-0.104,0.141-0.157l0.19-0.212l-0.009-0.008
		c0.412-0.545,0.666-1.217,0.666-1.953c0-1.796-1.455-3.252-3.253-3.252c-0.924,0-1.754,0.39-2.346,1.009l-0.001,0l-10.229,11.413
		V3.592h-0.012c0.001-0.041,0.012-0.079,0.012-0.12c0-1.917-1.556-3.472-3.473-3.472c-1.918,0-3.473,1.555-3.473,3.472
		c0,0.041,0.011,0.079,0.012,0.12h-0.012v32.999h0.01c0.055,1.872,1.579,3.374,3.464,3.374c1.886,0,3.411-1.502,3.466-3.374h0.006
		v-0.063c0-0.013,0.004-0.025,0.004-0.039s-0.004-0.025-0.004-0.039V25.609l11.755,12.758l0.008-0.007
		c0.58,0.657,1.419,1.08,2.364,1.08c1.748,0,3.166-1.417,3.166-3.165C250,35.478,249.695,34.758,249.208,34.201z"/>
	<path d="M23.242,3.36c-2.518-0.85-5.427-1.276-8.726-1.276H2.767v0C1.237,2.096,0,3.339,0,4.872C0,6.412,1.247,7.66,2.787,7.66
		c0.015,0,0.028-0.001,0.043-0.001v24.633L2.839,32.3c0.092,4.266,3.576,7.695,7.863,7.695c0,0,0,0,0.002,0L10.708,40
		c3.572,0,10.434-0.459,13.069-1.378c2.637-0.918,4.772-2.398,6.405-4.439c2.96-3.776,4.439-8.147,4.439-13.115
		c0-5.579-1.667-10.137-5.001-13.676C27.887,5.554,25.76,4.21,23.242,3.36z M26.87,26.531c-0.53,1.495-1.292,2.739-2.289,3.735
		c-0.995,0.996-2.264,1.751-3.804,2.265c-1.541,0.513-3.401,0.771-5.579,0.771h-1.875c-0.013,0-0.025,0-0.039,0
		c-1.933,0-3.501-1.568-3.501-3.501v-5.485v-12h0.003c0-1.945,1.576-3.521,3.521-3.521V8.791h1.797c2.117,0,3.938,0.273,5.463,0.817
		c1.524,0.545,2.816,1.33,3.875,2.358c1.057,1.027,1.858,2.287,2.403,3.781c0.544,1.494,0.817,3.268,0.817,5.322
		C27.663,23.217,27.398,25.037,26.87,26.531z"/>
	<path d="M146.991,3.36c-2.518-0.85-5.426-1.276-8.726-1.276h-11.749v0c-1.53,0.011-2.768,1.254-2.768,2.788
		c0,1.54,1.249,2.788,2.789,2.788c0.013,0,0.027-0.001,0.041-0.001v24.633l0.009,0.009c0.092,4.266,3.576,7.695,7.864,7.695h0.001
		L134.457,40c3.572,0,10.434-0.459,13.07-1.378c2.637-0.918,4.771-2.398,6.404-4.439c2.96-3.776,4.441-8.147,4.441-13.115
		c0-5.579-1.669-10.137-5.003-13.676C151.636,5.554,149.509,4.21,146.991,3.36z M150.619,26.531
		c-0.53,1.495-1.292,2.739-2.287,3.735c-0.997,0.996-2.265,1.751-3.806,2.265c-1.541,0.513-3.399,0.771-5.578,0.771h-1.876
		c-0.013,0-0.025,0-0.038,0c-1.934,0-3.502-1.568-3.502-3.501v-5.485v-12h0.003c0-1.945,1.577-3.521,3.521-3.521V8.791h1.799
		c2.115,0,3.936,0.273,5.461,0.817c1.525,0.545,2.816,1.33,3.875,2.358c1.057,1.027,1.859,2.287,2.404,3.781
		s0.816,3.268,0.816,5.322C151.412,23.217,151.147,25.037,150.619,26.531z"/>
</g>
</svg>
