<?xml version="1.0" encoding="utf-8"?>
<!-- Generator: Adobe Illustrator 16.0.0, SVG Export Plug-In . SVG Version: 6.00 Build 0)  -->
<!DOCTYPE svg PUBLIC "-//W3C//DTD SVG 1.1//EN" "http://www.w3.org/Graphics/SVG/1.1/DTD/svg11.dtd">
<svg version="1.1" id="图层_1" xmlns="http://www.w3.org/2000/svg" xmlns:xlink="http://www.w3.org/1999/xlink" x="0px" y="0px"
	 width="20px" height="20px" viewBox="0 0 20 20" enable-background="new 0 0 20 20" xml:space="preserve">
<g>
	<rect x="6" y="9" width="2" height="2"/>
	<rect x="6" y="6" width="2" height="2"/>
	<rect x="6" y="12" width="2" height="2"/>
	<rect x="9" y="12" width="5" height="2"/>
	<path d="M17,2H3C2.45,2,2,2.45,2,3v14c0,0.55,0.45,1,1,1h14c0.55,0,1-0.45,1-1V3C18,2.45,17.55,2,17,2z M15,6v2v1v2v1v2v1h-1H9H8H6
		H5v-1v-2v-1V9V8V6V5h1h2h1h5h1V6z"/>
	<rect x="9" y="9" width="5" height="2"/>
	<rect x="9" y="6" width="5" height="2"/>
</g>
</svg>
