<?xml version="1.0" encoding="utf-8"?>
<!-- Generator: Adobe Illustrator 16.0.4, SVG Export Plug-In . SVG Version: 6.00 Build 0)  -->
<!DOCTYPE svg PUBLIC "-//W3C//DTD SVG 1.1//EN" "http://www.w3.org/Graphics/SVG/1.1/DTD/svg11.dtd">
<svg version="1.1" id="图层_1" xmlns="http://www.w3.org/2000/svg" xmlns:xlink="http://www.w3.org/1999/xlink" x="0px" y="0px"
	 width="16px" height="16px" viewBox="0 0 16 16" enable-background="new 0 0 16 16" xml:space="preserve">
<g>
	<g>
		<path d="M11.623,3.232c-0.375-0.281-0.914-0.215-1.199,0.168c-0.285,0.377-0.211,0.916,0.168,1.201
			C11.666,5.412,12.285,6.65,12.285,8c0,2.363-1.922,4.285-4.285,4.285S3.715,10.363,3.715,8c0-1.271,0.559-2.467,1.539-3.281
			C5.619,4.418,5.67,3.875,5.365,3.514C5.061,3.148,4.521,3.102,4.16,3.4C2.787,4.541,2,6.219,2,8c0,3.309,2.691,6,6,6s6-2.691,6-6
			C14,6.107,13.133,4.371,11.623,3.232z"/>
		<path d="M8,8C7.447,8,7,7.553,7,7V3c0-0.553,0.447-1,1-1s1,0.447,1,1v4C9,7.553,8.553,8,8,8z"/>
	</g>
</g>
</svg>
