<?xml version="1.0" encoding="utf-8"?>
<!-- Generator: Adobe Illustrator 16.0.0, SVG Export Plug-In . SVG Version: 6.00 Build 0)  -->
<!DOCTYPE svg PUBLIC "-//W3C//DTD SVG 1.1//EN" "http://www.w3.org/Graphics/SVG/1.1/DTD/svg11.dtd">
<svg version="1.1" id="图层_1" xmlns="http://www.w3.org/2000/svg" xmlns:xlink="http://www.w3.org/1999/xlink" x="0px" y="0px"
	 width="12px" height="12px" viewBox="0 0 12 12" enable-background="new 0 0 12 12" xml:space="preserve">
<rect opacity="0.8" fill="none" width="12" height="12"/>
<path d="M1,1.559h4.996v1.022H2.232V5h3.201v1.009H2.232V11H1V1.559z"/>
<path d="M7.436,5l0.936,1.289c0.243,0.335,0.446,0.632,0.663,0.979h0.041c0.216-0.359,0.434-0.67,0.664-0.992L10.646,5h1.301
	L9.711,7.9L12,11h-1.354L9.684,9.649C9.427,9.302,9.21,8.967,8.979,8.607H8.953C8.736,8.967,8.506,9.29,8.262,9.649L7.314,11H6
	l2.33-3.062L6.109,5H7.436z"/>
</svg>
