<?xml version="1.0" encoding="utf-8"?>
<!-- Generator: Adobe Illustrator 16.0.0, SVG Export Plug-In . SVG Version: 6.00 Build 0)  -->
<!DOCTYPE svg PUBLIC "-//W3C//DTD SVG 1.1//EN" "http://www.w3.org/Graphics/SVG/1.1/DTD/svg11.dtd">
<svg version="1.1" id="图层_1" xmlns="http://www.w3.org/2000/svg" xmlns:xlink="http://www.w3.org/1999/xlink" x="0px" y="0px"
	 width="16px" height="16px" viewBox="0 0 16 16" enable-background="new 0 0 16 16" xml:space="preserve">
<g>
	<path d="M14.441,2.572c-0.359-0.357-0.836-0.556-1.344-0.556h-1.332V1.75c0-0.414-0.336-0.75-0.75-0.75s-0.75,0.336-0.75,0.75
		v0.267H5.734V1.75C5.734,1.336,5.398,1,4.984,1s-0.75,0.336-0.75,0.75v0.267H2.9c-0.506,0-0.982,0.198-1.342,0.556
		C1.197,2.934,1,3.41,1,3.917v9.182c0,0.507,0.197,0.983,0.559,1.343C1.918,14.803,2.395,15,2.9,15h10.197
		c0.508,0,0.984-0.197,1.344-0.559C14.801,14.082,15,13.605,15,13.099V3.917C15,3.41,14.801,2.934,14.441,2.572z M13.747,13.099
		c0,0.173-0.067,0.335-0.191,0.459c-0.122,0.121-0.285,0.19-0.458,0.19H2.9c-0.172,0-0.335-0.069-0.459-0.192
		c-0.121-0.122-0.189-0.284-0.189-0.457V6.286h11.495V13.099z M13.747,5.035H2.252V3.984c0-0.173,0.068-0.337,0.189-0.459
		C2.565,3.402,2.729,3.336,2.9,3.336h1.334V3.75c0,0.414,0.336,0.75,0.75,0.75s0.75-0.336,0.75-0.75V3.336h4.531V3.75
		c0,0.414,0.336,0.75,0.75,0.75s0.75-0.336,0.75-0.75V3.336h1.332c0.173,0,0.336,0.066,0.458,0.189
		c0.124,0.122,0.191,0.286,0.191,0.459V5.035z"/>
	<rect x="3.984" y="7.5" width="2" height="2"/>
	<rect x="7" y="7.5" width="2" height="2"/>
	<rect x="10.016" y="7.5" width="2" height="2"/>
	<rect x="3.984" y="10.5" width="2" height="2"/>
	<rect x="7" y="10.5" width="2" height="2"/>
	<rect x="10.016" y="10.5" width="2" height="2"/>
</g>
</svg>
