<?xml version="1.0" encoding="utf-8"?>
<!-- Generator: Adobe Illustrator 21.0.0, SVG Export Plug-In . SVG Version: 6.00 Build 0)  -->
<svg version="1.1" id="图层_1" xmlns="http://www.w3.org/2000/svg" xmlns:xlink="http://www.w3.org/1999/xlink" x="0px" y="0px"
	 viewBox="0 0 16 16" style="enable-background:new 0 0 16 16;" xml:space="preserve">
<g>
	<g>
		<path d="M9.2,5C9.2,5,9.2,5,9.2,5H11c0,0,0,0,0,0L8,1c0,0,0,0,0,0L5,5c0,0,0,0,0,0H9.2z"/>
	</g>
	<g>
		<path d="M8,3C7.6,3,7.2,3.3,7.2,3.8v2.5C7.2,6.7,7.6,7,8,7l0,0c0.4,0,0.8-0.3,0.8-0.8V3.8C8.8,3.3,8.4,3,8,3L8,3z"/>
	</g>
</g>
<g>
	<g>
		<path d="M6.8,11C6.8,11,6.8,11,6.8,11H5c0,0,0,0,0,0l3,4c0,0,0,0,0,0l3-4c0,0,0,0,0,0H6.8z"/>
	</g>
	<g>
		<path d="M8,13c0.4,0,0.8-0.3,0.8-0.8V9.8C8.8,9.3,8.4,9,8,9l0,0C7.6,9,7.2,9.3,7.2,9.8v2.5C7.2,12.7,7.6,13,8,13L8,13z"/>
	</g>
</g>
</svg>
