<?xml version="1.0" encoding="utf-8"?>
<!-- Generator: Adobe Illustrator 16.0.0, SVG Export Plug-In . SVG Version: 6.00 Build 0)  -->
<!DOCTYPE svg PUBLIC "-//W3C//DTD SVG 1.1//EN" "http://www.w3.org/Graphics/SVG/1.1/DTD/svg11.dtd">
<svg version="1.1" id="图层_1" xmlns="http://www.w3.org/2000/svg" xmlns:xlink="http://www.w3.org/1999/xlink" x="0px" y="0px"
	 width="16px" height="16px" viewBox="0 0 16 16" enable-background="new 0 0 16 16" xml:space="preserve">
<g>
	<path fill="#909BAA" d="M9.762,7.694c-0.015-0.067-0.276,0.085-0.344,0.1C9.504,8.316,9.55,8.836,9.563,9.336
		c-0.479-0.249-1.4-0.849-1.646-1.062l-0.155,0.08C7.76,8.332,7.756,8.309,7.753,8.288L7.504,8.371
		c-0.08,0.061-0.051-0.01-0.039,0.088c0.081,0.648-0.043,1.364-0.277,2.083c-0.494-0.413-0.943-0.997-1.066-1.55
		c-0.054,0.02-0.105,0.04-0.158,0.061c-0.062,0.021-0.096,0.01-0.076,0.075c0.206,0.729,0.762,1.311,1.151,1.622
		c-0.457,0.183-0.973,0.37-1.554,0.564c-0.208,0.07-0.479,0.158-0.794,0.259c0.289-0.415,0.954-1.702,1.19-2.497L5.526,9.218
		c-0.394,0.938-1.01,1.913-1.262,2.313c-0.014,0.021-0.027,0.043-0.041,0.064C3.967,11.119,3.88,10.583,4.071,9.98L4.064,9.99
		c0.036-0.1-0.308,0.155-0.34,0.17c-0.101,0.045-0.093,0.118-0.112,0.216c-0.029,0.147-0.044,0.3-0.043,0.452
		c0.005,0.339,0.125,0.677,0.316,0.996c-0.75,0.23-1.617,0.486-2.434,0.705c0.003-0.026,0.006-0.054,0.012-0.082
		c0.115-0.594,0.715-1.335,1.389-1.729l0.162-0.197l-0.924,0.645c-0.444,0.374-0.936,0.956-1.059,1.481
		c-0.18,0.782,0.416,1.402,1.042,1.848c0.692,0.49,1.418,0.732,2.253,0.974c0.914,0.264,2.766,0.512,3.712,0.522
		C8.101,15.992,8.2,15.982,8.2,15.982s0.044-0.085,0.05-0.091c0.081-0.146,1.18-2.198,1.476-3.934
		C9.925,10.788,10.07,9.204,9.762,7.694 M7.771,8.443c0.396,0.264,1.422,0.863,1.783,1.001c-0.468,0.347-1.131,0.722-2.074,1.123
		C7.747,9.629,7.806,8.884,7.771,8.443 M5.76,11.578c0.437-0.149,0.849-0.315,1.229-0.485c-0.293,0.735-0.675,1.456-1.049,2.093
		c-0.004,0.001-0.007,0.003-0.009,0.004c-0.187-0.104-0.364-0.217-0.53-0.337c-0.358-0.263-0.687-0.56-0.938-0.888
		C4.906,11.848,5.341,11.721,5.76,11.578 M1.448,12.687c0.784-0.192,1.615-0.372,2.436-0.573c-0.608,0.904-1.136,1.569-1.448,2.082
		C1.977,13.834,1.479,13.259,1.448,12.687 M2.55,14.281c0.49-0.724,1.087-1.387,1.628-2.049c0.133,0.162,0.281,0.316,0.438,0.458
		c0.278,0.255,0.592,0.466,0.918,0.643c-0.952,0.343-1.942,0.696-2.886,1.019C2.615,14.33,2.582,14.306,2.55,14.281 M4.655,15.27
		c-0.055-0.016-0.106-0.031-0.15-0.045c-0.845-0.283-1.228-0.445-1.738-0.79c0.39-0.111,2.091-0.557,2.919-0.823
		c-0.465,0.761-0.877,1.36-1.028,1.654C4.657,15.268,4.657,15.268,4.655,15.27 M8.102,15.874c-0.655-0.077-2.003-0.284-2.906-0.476
		c1.25-0.289,2.074-0.419,3.485-1.095C8.452,14.989,8.226,15.609,8.102,15.874 M4.967,15.335c-0.008,0.002-0.015,0.005-0.022,0.008
		c-0.041-0.01-0.081-0.02-0.119-0.028c0.5-0.583,0.92-1.157,1.271-1.713c1.214,0.506,2.432,0.598,2.589,0.614
		C8.111,14.438,5.113,15.293,4.967,15.335 M9.314,12.141c-0.107,0.487-0.339,1.263-0.578,1.992
		c-0.806-0.137-1.675-0.385-2.439-0.753c0.837-0.354,2.577-1.146,3.064-1.468C9.347,11.989,9.33,12.066,9.314,12.141 M9.386,11.78
		c-0.497,0.299-2.155,0.929-2.931,1.218c0.406-0.727,0.697-1.41,0.901-2.027c0.856,0.526,1.753,0.747,2.03,0.806
		C9.387,11.778,9.386,11.779,9.386,11.78 M9.401,11.688c-0.658-0.183-1.278-0.5-1.837-0.866c1.159-0.579,1.917-1.138,2.003-1.227
		C9.573,10.366,9.505,11.084,9.401,11.688"/>
	<path fill="#909BAA" d="M4.099,2.198C3.79,1.959,4.117,1.621,4.31,1.458c0.076-0.063,0.162-0.127,0.254-0.19
		C4.804,1.569,5.418,2.352,5.654,2.6l0.428-0.031C5.865,2.376,4.924,1.442,4.657,1.206c0.003-0.001,0.006-0.004,0.01-0.007
		c0.439,0.175,1.941,0.472,2.73,0.519C7.399,1.723,7.4,1.726,7.401,1.73c-0.278,0.139-0.783,0.385-1.33,0.745L6.43,2.536
		c0.411-0.212,0.705-0.425,1.018-0.703c0.144,0.322,0.32,0.659,0.538,1.024l0.348,0.037C7.704,1.803,7.229,0.814,7.03-0.01
		C6.575,0.129,4.055,1.005,3.592,1.639C3.413,1.885,3.932,2.077,4.099,2.198 M6.983,0.112c0.042,0.479,0.15,0.937,0.339,1.421
		C6.735,1.38,5.308,1.169,4.817,1.106C5.664,0.601,6.84,0.175,6.983,0.112"/>
	<path fill="#D60505" d="M15.569,6.351C14.7,4.98,13.364,3.719,9.385,2.984C8.542,2.829,7.546,2.705,5.806,2.401
		C5.194,2.294,3.363,2.015,3.592,1.639C3.468,1.786,3.564,1.929,3.643,2.01C4.55,3.044,5.858,3.65,5.858,5.756
		c0,1.935-1.743,3.729-3.487,5.18c-0.093,0.074-0.187,0.151-0.283,0.231c2.106-1.283,3.421-1.811,5.054-2.446
		c2.053-0.801,6.131-1.947,8.486-2.276L15.569,6.351z M12.157,4.141c0.239,0.089,0.468,0.187,0.684,0.291
		c-1.125,0.24-2.133,0.567-3.031,0.939c0.34-0.684,0.493-1.295,0.531-1.806C10.955,3.72,11.563,3.903,12.157,4.141z M9.408,5.411
		C8.999,5.16,8.566,4.957,8.129,4.787c0.584-0.414,1.27-0.85,2.039-1.254C10.125,3.984,9.881,4.615,9.408,5.411z M5.993,4.565
		c0.379,0.072,0.858,0.211,1.38,0.411C6.974,5.299,6.54,5.69,6.044,6.181C6.113,5.616,6.079,5.064,5.993,4.565z M7.533,5.227
		C7.4,5.813,7.153,6.407,6.795,6.979c-0.234-0.276-0.51-0.439-0.699-0.524C6.352,6.207,6.845,5.754,7.533,5.227z M7.837,5.166
		c0.376,0.163,0.765,0.354,1.148,0.573c-0.63,0.302-1.2,0.621-1.712,0.941C7.566,6.16,7.748,5.65,7.837,5.166z M9.922,3.466
		C9.201,3.782,8.587,4.087,7.904,4.571c0.021-0.572-0.09-1.095-0.293-1.538C8.386,3.16,9.159,3.292,9.922,3.466z M7.453,3.007
		C7.62,3.509,7.679,4.051,7.63,4.608c-0.521-0.176-1.043-0.316-1.535-0.45c0.323-0.379,0.807-0.75,1.345-1.152
		C7.443,3.006,7.449,3.007,7.453,3.007z M4.178,2.284C4.46,2.385,4.819,2.482,5.198,2.571C5.365,3.054,5.5,3.491,5.603,3.89
		C5.275,3.277,4.784,2.735,4.178,2.284z M5.359,2.609c0.709,0.161,1.462,0.294,1.898,0.366c-0.315,0.16-1.044,0.6-1.388,1.021
		C5.702,3.348,5.475,2.844,5.359,2.609z M5.899,6.88c0.216,0.103,0.396,0.222,0.547,0.353c-0.427,0.3-0.8,0.589-1.128,0.854
		C5.593,7.697,5.779,7.289,5.899,6.88z M5.024,8.511c0.318-0.231,0.765-0.548,1.323-0.906C5.809,8.275,5.104,8.897,4.238,9.421
		C4.54,9.117,4.802,8.813,5.024,8.511z M4.628,9.431c0.898-0.626,1.583-1.274,2.088-1.919c0.227,0.287,0.336,0.596,0.361,0.865
		C6.121,8.744,5.357,9.051,4.628,9.431z M7.245,8.313C7.25,7.854,7.134,7.494,6.968,7.219c0.576-0.35,1.239-0.722,1.979-1.086
		c-0.438,0.643-1.001,1.37-1.699,2.18C7.246,8.313,7.246,8.313,7.245,8.313z M7.514,8.211c0.872-0.772,1.495-1.512,1.931-2.196
		c0.513,0.327,1.003,0.702,1.425,1.121C9.882,7.397,8.757,7.745,7.514,8.211z M11.109,7.072l0.007-0.005
		c-0.357-0.56-0.791-1.001-1.269-1.356c0.962-0.428,2.025-0.825,3.169-1.141c-0.372,0.634-0.984,1.318-1.9,2.497l0.003,0.003
		C11.116,7.071,11.113,7.071,11.109,7.072z M11.413,6.996c0.882-0.819,1.307-1.335,1.787-2.381c1.019,0.556,1.728,1.229,2.092,1.652
		c0.019,0.022,0.054,0.051,0.095,0.08C14.899,6.374,13.509,6.481,11.413,6.996z"/>
</g>
</svg>
