<?xml version="1.0" encoding="utf-8"?>
<!-- Generator: Adobe Illustrator 16.0.4, SVG Export Plug-In . SVG Version: 6.00 Build 0)  -->
<!DOCTYPE svg PUBLIC "-//W3C//DTD SVG 1.1//EN" "http://www.w3.org/Graphics/SVG/1.1/DTD/svg11.dtd">
<svg version="1.1" id="图层_1" xmlns="http://www.w3.org/2000/svg" xmlns:xlink="http://www.w3.org/1999/xlink" x="0px" y="0px"
	 width="18px" height="18px" viewBox="0 0 18 18" enable-background="new 0 0 18 18" xml:space="preserve">
<path d="M15.399,7h-0.8V5.607C14.6,2.512,12.092,0,8.999,0s-5.6,2.512-5.6,5.607V7H2.6C1.717,7,1,7.718,1,8.603v7.796
	C1,17.283,1.716,18,2.6,18h12.8C16.283,18,17,17.282,17,16.398V8.603C17,7.718,16.283,7,15.399,7z M9.765,12.96v1.985
	c0,0.421-0.344,0.764-0.765,0.764c-0.423,0-0.763-0.343-0.763-0.764V12.96c-0.759-0.305-1.298-1.037-1.298-1.901
	c0-1.137,0.924-2.061,2.061-2.061c1.136,0,2.061,0.924,2.061,2.061C11.061,11.923,10.525,12.655,9.765,12.96z M12.199,7H5.801V5.607
	c0-1.769,1.432-3.204,3.198-3.204c1.768,0,3.2,1.436,3.2,3.204V7z"/>
</svg>
