<?xml version="1.0" encoding="utf-8"?>
<!-- Generator: Adobe Illustrator 16.0.0, SVG Export Plug-In . SVG Version: 6.00 Build 0)  -->
<!DOCTYPE svg PUBLIC "-//W3C//DTD SVG 1.1//EN" "http://www.w3.org/Graphics/SVG/1.1/DTD/svg11.dtd">
<svg version="1.1" id="图层_1" xmlns="http://www.w3.org/2000/svg" xmlns:xlink="http://www.w3.org/1999/xlink" x="0px" y="0px"
	 width="16px" height="16px" viewBox="0 0 16 16" enable-background="new 0 0 16 16" xml:space="preserve">
<path d="M8,4C4.511,4,1.486,6.032,0,9c1.486,2.969,4.511,5,8,5s6.514-2.031,8-5C14.514,6.032,11.489,4,8,4z M11.944,6.652
	c0.94,0.6,1.737,1.402,2.335,2.348c-0.598,0.945-1.395,1.749-2.335,2.349C10.764,12.102,9.399,12.5,8,12.5s-2.764-0.398-3.944-1.151
	C3.115,10.749,2.318,9.945,1.721,9c0.598-0.945,1.395-1.749,2.335-2.348C4.117,6.613,4.179,6.575,4.24,6.537
	C4.085,6.965,4,7.426,4,7.906c0,2.209,1.791,4,4,4s4-1.791,4-4c0-0.48-0.085-0.941-0.24-1.369
	C11.821,6.575,11.883,6.613,11.944,6.652L11.944,6.652L11.944,6.652z M8,7.5C8,8.328,7.328,9,6.5,9S5,8.328,5,7.5S5.672,6,6.5,6
	S8,6.672,8,7.5z"/>
</svg>
