<?xml version="1.0" encoding="utf-8"?>
<!-- Generator: Adobe Illustrator 16.0.0, SVG Export Plug-In . SVG Version: 6.00 Build 0)  -->
<!DOCTYPE svg PUBLIC "-//W3C//DTD SVG 1.1//EN" "http://www.w3.org/Graphics/SVG/1.1/DTD/svg11.dtd">
<svg version="1.1" id="图层_1" xmlns="http://www.w3.org/2000/svg" xmlns:xlink="http://www.w3.org/1999/xlink" x="0px" y="0px"
	 width="98px" height="22px" viewBox="0 0 98 22" enable-background="new 0 0 98 22" xml:space="preserve">
<g>
	<path d="M60.045,17.898c-0.12-0.361-0.44-0.527-0.798-0.419c-0.777,0.255-1.437,0.401-2.355,0.401c-1.108,0-1.97-0.361-2.615-1.097
		c-0.657-0.751-0.988-1.798-0.988-3.124c0-1.375,0.331-2.469,0.982-3.235c0.64-0.757,1.501-1.13,2.621-1.13
		c0.829,0,1.526,0.122,2.367,0.401c0.347,0.099,0.678-0.081,0.766-0.357c0.18-0.545,0.425-1.317,0.494-1.551
		c0.096-0.384-0.063-0.678-0.377-0.78c-0.847-0.31-1.958-0.54-3.107-0.54c-2.128,0-3.856,0.663-5.104,1.966
		c-1.253,1.297-1.886,3.077-1.886,5.294c0,2.064,0.61,3.767,1.826,5.045c1.221,1.286,2.861,1.935,4.886,1.935
		c1.314,0,2.405-0.14,3.409-0.532c0.363-0.156,0.436-0.515,0.369-0.732C60.399,19.006,60.198,18.369,60.045,17.898z"/>
	<path d="M42.87,6.738h-2.107c-0.331,0-0.604,0.276-0.604,0.61V19.84c0,0.335,0.274,0.605,0.604,0.605h2.107
		c0.331,0,0.604-0.271,0.604-0.605V7.349C43.475,7.015,43.201,6.738,42.87,6.738z"/>
	<path d="M42.87,1h-2.107c-0.331,0-0.604,0.273-0.604,0.61v2.098c0,0.335,0.274,0.607,0.604,0.607h2.107
		c0.331,0,0.604-0.272,0.604-0.607V1.61C43.475,1.273,43.201,1,42.87,1z"/>
	<path d="M48.273,17.127h-2.099c-0.335,0-0.61,0.274-0.61,0.61v2.103c0,0.335,0.275,0.609,0.61,0.609h2.099
		c0.339,0,0.618-0.274,0.618-0.609v-2.103C48.891,17.401,48.612,17.127,48.273,17.127z"/>
	<path d="M91.304,6.746c-1.623,0-3.151,0.802-4.169,2.031c-1.042-1.243-2.622-2.033-4.56-2.033c-3.056,0-5.052,1.528-5.692,2.027
		c-0.153,0.109-0.226,0.285-0.226,0.454v10.873c0,0.155,0.052,0.31,0.18,0.432c0.116,0.115,0.265,0.177,0.425,0.177h2.103
		c0.154,0,0.311-0.062,0.428-0.177c0.122-0.122,0.18-0.276,0.18-0.432v-9.266c0-0.081,0.042-0.203,0.158-0.278
		c0.451-0.301,1.576-0.854,2.59-0.791c1.467,0.084,2.453,1.157,2.453,2.454v7.881c0,0.155,0.063,0.31,0.18,0.432
		c0.117,0.115,0.279,0.177,0.44,0.177h2.093c0.157,0,0.305-0.062,0.434-0.177c0.113-0.122,0.18-0.276,0.18-0.432v-7.436
		c0-0.139-0.011-0.274-0.02-0.413c0.056-1.337,1.184-2.486,2.591-2.486c1.448,0,2.599,1.186,2.599,2.588v7.747
		c0,0.155,0.064,0.312,0.181,0.435c0.123,0.116,0.276,0.174,0.437,0.174h2.094c0.157,0,0.317-0.058,0.437-0.174
		C96.939,20.41,97,20.254,97,20.099v-7.942C97,9.748,94.987,6.746,91.304,6.746z"/>
	<path d="M12.229,6.744h-2.097c-0.163,0-0.308,0.056-0.442,0.168C9.579,7.035,9.516,7.194,9.516,7.349v9.497
		c0,0.081-0.044,0.199-0.161,0.284c-0.439,0.297-1.573,0.619-2.582,0.553c-1.469-0.085-2.452-1.154-2.452-2.454v-7.88
		c0-0.154-0.061-0.313-0.184-0.437C4.018,6.8,3.861,6.744,3.705,6.744H1.61c-0.157,0-0.312,0.056-0.434,0.168
		C1.052,7.035,1,7.194,1,7.349v7.437c0,3.267,2.361,5.92,5.918,5.92c3.063,0,5.043-1.301,5.691-1.798
		c0.152-0.119,0.229-0.287,0.229-0.454V7.349c0-0.154-0.061-0.313-0.177-0.437C12.54,6.8,12.383,6.744,12.229,6.744z"/>
	<path d="M24.309,6.744h-8.795c-0.338,0-0.605,0.271-0.605,0.61v1.638c0,0.331,0.268,0.611,0.605,0.611h5.159l-5.643,8.211
		c-0.078,0.106-0.122,0.235-0.122,0.377v1.632c0,0.338,0.268,0.616,0.605,0.616h8.795c0.339,0,0.61-0.278,0.61-0.616v-1.632
		c0-0.339-0.271-0.612-0.61-0.612h-5.148l5.654-8.24c0.063-0.1,0.104-0.219,0.104-0.347V7.354
		C24.918,7.015,24.648,6.744,24.309,6.744z"/>
	<path d="M33.348,6.503c-2.07-0.195-4.037,0.186-5.267,0.57c-0.28,0.083-0.439,0.421-0.39,0.715
		c0.055,0.303,0.234,1.085,0.311,1.462c0.07,0.304,0.408,0.545,0.773,0.423c0.92-0.337,2.182-0.652,3.281-0.507
		c1.773,0.235,2.141,1.441,2.141,2.002v0.367c-0.89-0.127-2.107-0.189-3.572-0.016c-3.234,0.385-4.194,2.633-4.194,4.724
		c0,2.095,1.358,4.424,5.468,4.424c2.394,0,4.488-0.782,5.287-1.125c0.232-0.098,0.355-0.367,0.355-0.563v-7.891
		C37.542,8.635,35.636,6.715,33.348,6.503z M34.197,17.765c-0.643,0.124-1.385,0.226-2.06,0.226c-1.685,0-2.425-0.69-2.425-1.841
		c0-1.511,0.918-1.809,2.151-2.029c0.71-0.129,1.595-0.067,2.333,0.04V17.765z"/>
	<path d="M68.095,6.471c-2.126,0-3.849,0.66-5.098,1.963c-1.263,1.3-1.892,3.074-1.892,5.291c0,2.071,0.612,3.77,1.827,5.048
		c1.217,1.286,2.868,1.933,4.886,1.933c2.074,0,3.755-0.664,5-1.992c1.227-1.317,1.856-3.061,1.856-5.181
		c0-2.174-0.584-3.911-1.751-5.163C71.75,7.107,70.134,6.471,68.095,6.471z M70.524,16.825c-0.585,0.71-1.424,1.056-2.569,1.056
		c-1.108,0-1.97-0.361-2.614-1.097c-0.658-0.751-0.983-1.801-0.983-3.124c0-1.373,0.325-2.469,0.974-3.235
		c0.649-0.755,1.504-1.13,2.624-1.13c1.145,0,1.983,0.35,2.569,1.067c0.596,0.738,0.904,1.827,0.904,3.237
		S71.12,16.092,70.524,16.825z"/>
</g>
</svg>
