<?xml version="1.0" encoding="utf-8"?>
<!-- Generator: Adobe Illustrator 16.0.0, SVG Export Plug-In . SVG Version: 6.00 Build 0)  -->
<!DOCTYPE svg PUBLIC "-//W3C//DTD SVG 1.1//EN" "http://www.w3.org/Graphics/SVG/1.1/DTD/svg11.dtd">
<svg version="1.1" id="图层_1" xmlns="http://www.w3.org/2000/svg" xmlns:xlink="http://www.w3.org/1999/xlink" x="0px" y="0px"
	 width="16px" height="16px" viewBox="0 0 16 16" enable-background="new 0 0 16 16" xml:space="preserve">
<g>
	<path fill="#FBC349" d="M16,14c0,1.1-0.9,2-2,2H2c-1.1,0-2-0.9-2-2V2c0-1.1,0.9-2,2-2h12c1.1,0,2,0.9,2,2V14z"/>
</g>
<g>
	<g>
		<path fill="#FFFFFF" d="M3.003,7.032C2.959,7.349,2.937,7.609,2.937,7.813c0,0.366,0.106,0.657,0.317,0.877
			C3.466,8.909,3.748,9.02,4.104,9.02c0.338,0,0.68-0.083,1.021-0.249c0.344-0.165,0.74-0.455,1.192-0.869l0.218,0.197
			C5.978,8.775,5.434,9.258,4.904,9.545C4.375,9.833,3.79,9.976,3.148,9.976c-0.811,0-1.371-0.194-1.683-0.584
			C1.155,9.002,1,8.552,1,8.04c0-0.799,0.231-1.597,0.696-2.396c0.462-0.8,1.095-1.439,1.893-1.922C4.389,3.241,5.19,3,5.996,3
			c0.408,0,0.717,0.097,0.925,0.292c0.21,0.195,0.313,0.44,0.313,0.737c0,0.356-0.102,0.702-0.306,1.038
			C6.647,5.525,6.293,5.894,5.865,6.173c-0.427,0.281-0.906,0.493-1.435,0.64C4.075,6.91,3.602,6.983,3.003,7.032z M3.068,6.652
			c0.428-0.063,0.758-0.15,0.994-0.26s0.466-0.284,0.691-0.525s0.423-0.546,0.587-0.913C5.506,4.586,5.589,4.241,5.589,3.92
			c0-0.137-0.038-0.243-0.113-0.321C5.401,3.521,5.305,3.482,5.188,3.482c-0.233,0-0.496,0.163-0.786,0.489
			C3.867,4.565,3.424,5.459,3.068,6.652z"/>
		<path fill="#FFFFFF" d="M13.063,3.445H15l-0.233,0.804h-1.005c0.154,0.288,0.233,0.56,0.233,0.818
			c0,0.442-0.121,0.852-0.361,1.227s-0.595,0.675-1.063,0.899c-0.469,0.223-0.989,0.336-1.563,0.336
			c-0.15,0-0.316-0.011-0.498-0.034c-0.182-0.021-0.381-0.051-0.595-0.091C9.595,7.57,9.394,7.702,9.312,7.799
			c-0.06,0.068-0.088,0.14-0.088,0.213c0,0.087,0.036,0.163,0.109,0.226C9.459,8.35,9.646,8.433,9.894,8.485
			c0.99,0.215,1.644,0.388,1.958,0.52c0.434,0.18,0.76,0.411,0.981,0.693c0.221,0.282,0.331,0.624,0.331,1.022
			c0,0.609-0.279,1.141-0.838,1.597C11.768,12.772,10.903,13,9.732,13c-1.179,0-2.048-0.194-2.607-0.584
			c-0.402-0.282-0.605-0.619-0.605-1.008c0-0.298,0.134-0.572,0.398-0.825c0.266-0.254,0.831-0.479,1.701-0.673
			C8.322,9.745,8.124,9.594,8.021,9.457C7.881,9.272,7.811,9.08,7.811,8.88c0-0.326,0.13-0.613,0.389-0.861
			c0.26-0.248,0.696-0.494,1.309-0.738C9.031,7.09,8.688,6.847,8.477,6.546C8.266,6.246,8.16,5.897,8.16,5.498
			c0-0.424,0.127-0.827,0.382-1.209S9.174,3.596,9.67,3.357C10.169,3.119,10.741,3,11.386,3c0.414,0,0.779,0.047,1.101,0.139
			C12.652,3.187,12.845,3.29,13.063,3.445z M9.026,10.078c-0.461,0.181-0.775,0.375-0.943,0.585
			c-0.167,0.209-0.251,0.436-0.251,0.679c0,0.317,0.167,0.603,0.498,0.858c0.334,0.256,0.864,0.384,1.592,0.384
			c0.607,0,1.047-0.11,1.318-0.332c0.272-0.223,0.408-0.481,0.408-0.778c0-0.264-0.125-0.478-0.374-0.643
			c-0.251-0.166-0.73-0.339-1.438-0.52C9.505,10.224,9.235,10.146,9.026,10.078z M11.539,3.357c-0.237,0-0.439,0.078-0.604,0.233
			c-0.262,0.239-0.491,0.639-0.688,1.199C10.05,5.349,9.951,5.881,9.951,6.382c0,0.239,0.07,0.428,0.208,0.566
			c0.139,0.138,0.31,0.208,0.514,0.208c0.199,0,0.371-0.068,0.518-0.204c0.276-0.268,0.517-0.696,0.72-1.283
			c0.205-0.586,0.307-1.118,0.307-1.596c0-0.214-0.065-0.387-0.197-0.519C11.889,3.423,11.729,3.357,11.539,3.357z"/>
	</g>
</g>
<path fill="#FFFFFF" d="M14,10h0.986v1H14V10z"/>
<path fill="#FFFFFF" d="M5,10h0.986v1H5V10z"/>
</svg>
