<?xml version="1.0" encoding="utf-8"?>
<!-- Generator: Adobe Illustrator 17.0.0, SVG Export Plug-In . SVG Version: 6.00 Build 0)  -->
<!DOCTYPE svg PUBLIC "-//W3C//DTD SVG 1.1//EN" "http://www.w3.org/Graphics/SVG/1.1/DTD/svg11.dtd">
<svg version="1.1" id="图层_1" xmlns="http://www.w3.org/2000/svg" xmlns:xlink="http://www.w3.org/1999/xlink" x="0px" y="0px"
	 width="40px" height="40px" viewBox="0 0 40 40" enable-background="new 0 0 40 40" xml:space="preserve">
<g>
	<path d="M12.598,1.262C7.746,1.66,4.011,5.72,3.748,10.236c-0.251,4.322,2.442,7.365,7.602,8.595
		c0.516,0.122,1.019,0.279,1.54,0.426c0.212,1.279,0.874,2.236,1.077,3.448c-3.511,0.817-6.204,1.473-8.857,3.226
		c-2.446,1.624-3.93,3.645-3.743,6.68c0.184,2.999,2.148,4.867,4.609,5.699c3.825,1.3,6.847,1.3,10.519,0.535
		c3.903-0.811,7.355-3.81,8.117-7.044c1.008-4.286-1.031-7.051-4.049-9.515c-0.337-0.273-0.639-0.593-0.979-0.859
		c-1.771-1.379-1.67-2.704-0.205-4.351c4.844-5.454,5.016-6.994,1.943-13.15c1.285-0.708,2.578-1.417,3.865-2.127
		C20.823,1.194,16.688,0.928,12.598,1.262z M20.909,32.587c-0.669,2.335-3.511,4.575-9.226,3.825
		c-2.544-0.335-5.405-2.224-5.439-5.324c-0.038-3.156,3.773-7.227,10.268-5.671C20.173,26.299,21.722,29.728,20.909,32.587z
		 M14.611,16.767c-3.077,0.212-5.913-3.944-5.883-8.453c0.023-3.138,1.434-4.883,3.951-4.886c3.077-0.004,5.674,3.945,5.674,8.153
		C18.425,14.682,17.465,16.568,14.611,16.767z"/>
	<polygon points="39.6,16.715 34.341,16.715 34.341,11.456 31.472,11.456 31.472,16.715 26.213,16.715 26.213,19.584 31.472,19.584 
		31.472,24.843 34.341,24.843 34.341,19.584 39.6,19.584 	"/>
</g>
</svg>
