<?xml version="1.0" encoding="utf-8"?>
<!-- Generator: Adobe Illustrator 17.0.0, SVG Export Plug-In . SVG Version: 6.00 Build 0)  -->
<!DOCTYPE svg PUBLIC "-//W3C//DTD SVG 1.1//EN" "http://www.w3.org/Graphics/SVG/1.1/DTD/svg11.dtd">
<svg version="1.1" id="图层_1" xmlns="http://www.w3.org/2000/svg" xmlns:xlink="http://www.w3.org/1999/xlink" x="0px" y="0px"
	 width="40px" height="40px" viewBox="0 0 40 40" enable-background="new 0 0 40 40" xml:space="preserve">
<g id="g9-1_1_" transform="matrix(1.5537946,0,0,1.5537946,-140.87332,-132.64552)">
	<rect id="rect11_1_" x="91.471" y="94.248" width="5.259" height="15.822"/>
	<path id="path13-0_1_" d="M94.135,86.618c-1.799,0-2.975,1.182-2.975,2.733c0,1.519,1.14,2.735,2.907,2.735h0.034
		c1.836,0,2.975-1.216,2.975-2.735C97.042,87.8,95.935,86.618,94.135,86.618L94.135,86.618z"/>
	<path id="path15_1_" d="M109.639,93.875c-2.79,0-4.039,1.536-4.738,2.613v-2.24h-5.259c0.069,1.483,0,15.822,0,15.822h5.259v-8.837
		c0-0.473,0.034-0.945,0.173-1.285c0.379-0.944,1.247-1.923,2.697-1.923c1.902,0,2.665,1.452,2.665,3.578v8.467h5.259v-9.075
		C115.695,96.136,113.099,93.875,109.639,93.875z"/>
</g>
</svg>
