<?xml version="1.0" encoding="utf-8"?>
<!-- Generator: Adobe Illustrator 16.0.4, SVG Export Plug-In . SVG Version: 6.00 Build 0)  -->
<!DOCTYPE svg PUBLIC "-//W3C//DTD SVG 1.1//EN" "http://www.w3.org/Graphics/SVG/1.1/DTD/svg11.dtd">
<svg version="1.1" id="图层_1" xmlns="http://www.w3.org/2000/svg" xmlns:xlink="http://www.w3.org/1999/xlink" x="0px" y="0px"
	 width="20px" height="20px" viewBox="0 0 20 20" enable-background="new 0 0 20 20" xml:space="preserve">
<g>
	<path d="M18.5,11.181c0.275,0,0.5-0.225,0.5-0.5V8.912c0-0.275-0.225-0.5-0.5-0.5h-1.445c-0.275,0-0.572-0.213-0.661-0.474
		l-0.588-1.325c-0.134-0.24-0.085-0.595,0.11-0.789l0.896-0.89c0.195-0.194,0.195-0.511,0-0.705l-1.26-1.253
		c-0.195-0.194-0.514-0.194-0.709,0l-0.941,0.935c-0.195,0.194-0.555,0.25-0.8,0.125L11.893,3.55
		c-0.263-0.082-0.478-0.373-0.478-0.648V1.5c0-0.275-0.225-0.5-0.5-0.5H9.131c-0.275,0-0.5,0.225-0.5,0.5v1.39
		c0,0.275-0.215,0.568-0.477,0.651L6.626,4.188c-0.24,0.133-0.597,0.082-0.792-0.111L4.929,3.175c-0.195-0.193-0.514-0.194-0.709,0
		L2.958,4.429c-0.195,0.194-0.195,0.512,0,0.705l0.959,0.955c0.195,0.193,0.251,0.553,0.124,0.797L3.603,7.938
		C3.516,8.198,3.221,8.412,2.945,8.412H1.5c-0.275,0-0.5,0.225-0.5,0.5v1.769c0,0.275,0.225,0.5,0.5,0.5h1.359
		c0.275,0,0.561,0.217,0.635,0.481l0.538,1.421c0.123,0.247,0.063,0.606-0.132,0.801l-1.034,1.027c-0.195,0.194-0.195,0.511,0,0.705
		l1.262,1.254c0.195,0.194,0.514,0.194,0.709,0l0.973-0.966c0.195-0.194,0.551-0.243,0.791-0.109l1.554,0.664
		c0.262,0.083,0.477,0.376,0.477,0.651v1.39c0,0.275,0.225,0.5,0.5,0.5h1.784c0.275,0,0.5-0.225,0.5-0.5v-1.401
		c0-0.275,0.215-0.566,0.478-0.648l1.189-0.476c0.245-0.125,0.604-0.069,0.8,0.125l1.035,1.029c0.195,0.194,0.514,0.194,0.709,0
		l1.262-1.253c0.195-0.194,0.195-0.511,0-0.705l-0.985-0.979c-0.195-0.194-0.247-0.55-0.115-0.791L16.5,11.66
		c0.077-0.264,0.365-0.479,0.641-0.479H18.5z M10,14c-2.21,0-4-1.79-4-4s1.79-4,4-4s4,1.79,4,4S12.21,14,10,14z"/>
</g>
</svg>
