<?xml version="1.0" encoding="utf-8"?>
<!-- Generator: Adobe Illustrator 16.0.0, SVG Export Plug-In . SVG Version: 6.00 Build 0)  -->
<!DOCTYPE svg PUBLIC "-//W3C//DTD SVG 1.1//EN" "http://www.w3.org/Graphics/SVG/1.1/DTD/svg11.dtd">
<svg version="1.1" id="图层_1" xmlns="http://www.w3.org/2000/svg" xmlns:xlink="http://www.w3.org/1999/xlink" x="0px" y="0px"
	 width="20px" height="20px" viewBox="0 0 20 20" enable-background="new 0 0 20 20" xml:space="preserve">
<g id="Page-1">
	<g id="Core" transform="translate(-86.000000, -256.000000)">
		<g id="folder-mydrive" transform="translate(86.000000, 256.000000)">
			<path id="Shape" d="M18,4h-8L8,2H2C0.9,2,0,2.9,0,4v12c0,1.1,0.9,2,2,2h16c1.1,0,2-0.9,2-2V6C20,4.9,19.1,4,18,4L18,4z M9.7,15
				l-1.3-2.1l2.8-5l1.5,2.699L10.3,15H9.7L9.7,15z M16.3,15h-5.5l1.4-2.5h5.1l0.3,0.5L16.3,15L16.3,15z M11.8,7h2.4l2.8,5h-3
				l-2.6-4.5L11.8,7L11.8,7z"/>
		</g>
	</g>
</g>
</svg>
