<?xml version="1.0" encoding="utf-8"?>
<!-- Generator: Adobe Illustrator 16.0.0, SVG Export Plug-In . SVG Version: 6.00 Build 0)  -->
<!DOCTYPE svg PUBLIC "-//W3C//DTD SVG 1.1//EN" "http://www.w3.org/Graphics/SVG/1.1/DTD/svg11.dtd">
<svg version="1.1" id="图层_1" xmlns="http://www.w3.org/2000/svg" xmlns:xlink="http://www.w3.org/1999/xlink" x="0px" y="0px"
	 width="16px" height="16px" viewBox="0 0 16 16" enable-background="new 0 0 16 16" xml:space="preserve">
<g>
	<path d="M8,2C4.687,2,2,2.84,2,3.875v1.5C2,6.41,4.687,7.25,8,7.25s6-0.84,6-1.875v-1.5C14,2.84,11.313,2,8,2z"/>
	<path d="M8,8.375c-3.313,0-6-0.84-6-1.875v2.25c0,1.035,2.687,1.875,6,1.875s6-0.84,6-1.875V6.5C14,7.535,11.313,8.375,8,8.375z"/>
	<path d="M8,11.75c-3.313,0-6-0.84-6-1.875v2.25C2,13.16,4.687,14,8,14s6-0.84,6-1.875v-2.25C14,10.91,11.313,11.75,8,11.75z"/>
</g>
<rect fill="none" width="16" height="16"/>
</svg>
