<?xml version="1.0" encoding="utf-8"?>
<!-- Generator: Adobe Illustrator 16.0.0, SVG Export Plug-In . SVG Version: 6.00 Build 0)  -->
<!DOCTYPE svg PUBLIC "-//W3C//DTD SVG 1.1//EN" "http://www.w3.org/Graphics/SVG/1.1/DTD/svg11.dtd">
<svg version="1.1" id="图层_1" xmlns="http://www.w3.org/2000/svg" xmlns:xlink="http://www.w3.org/1999/xlink" x="0px" y="0px"
	 width="20px" height="20px" viewBox="0 0 20 20" enable-background="new 0 0 20 20" xml:space="preserve">
<rect opacity="0.8" fill="none" width="20" height="20"/>
<g>
	<path d="M10,1c-4.971,0-9,4.029-9,9s4.029,9,9,9s9-4.029,9-9S14.971,1,10,1z M10,17.5c-4.142,0-7.5-3.358-7.5-7.5S5.858,2.5,10,2.5
		s7.5,3.358,7.5,7.5S14.142,17.5,10,17.5z"/>
	<path d="M14.31,5.043c-0.024-0.021-0.057-0.037-0.091-0.04c-0.071-0.013-0.142,0.024-0.17,0.089l-0.856,1.884l-0.007,0.006
		c-1.319-1.588-3.231-1.779-4.061-1.779c-0.382,0-0.747,0.036-1.064,0.104c-0.041,0.01-0.067,0.048-0.06,0.087l0.327,1.397
		C8.337,6.83,8.375,6.854,8.416,6.844c0.014,0,0.307-0.061,0.737-0.061c0.726,0,2.006,0.182,2.854,1.326l-0.175,0.164L9.856,9.095
		C9.788,9.12,9.749,9.188,9.759,9.257c0.011,0.064,0.067,0.119,0.14,0.127l4.919,0.615c0.048,0.006,0.099-0.009,0.137-0.045
		c0.034-0.033,0.051-0.081,0.044-0.126l-0.643-4.693C14.351,5.098,14.333,5.066,14.31,5.043z"/>
	<path d="M11.584,13.156c-0.014,0-0.307,0.061-0.737,0.061c-0.726,0-2.006-0.182-2.854-1.326l0.175-0.164l1.976-0.821
		c0.068-0.025,0.107-0.093,0.098-0.162c-0.011-0.064-0.067-0.119-0.14-0.127l-4.919-0.615c-0.048-0.006-0.099,0.009-0.137,0.045
		c-0.034,0.033-0.051,0.081-0.044,0.126l0.643,4.693c0.005,0.037,0.022,0.068,0.046,0.092c0.024,0.021,0.057,0.037,0.091,0.04
		c0.071,0.013,0.142-0.024,0.17-0.089l0.856-1.884l0.007-0.006c1.319,1.588,3.231,1.779,4.061,1.779
		c0.382,0,0.747-0.036,1.064-0.104c0.041-0.01,0.067-0.048,0.06-0.087l-0.327-1.397C11.663,13.17,11.625,13.146,11.584,13.156z"/>
</g>
</svg>
