<?xml version="1.0" encoding="utf-8"?>
<!-- Generator: Adobe Illustrator 16.0.4, SVG Export Plug-In . SVG Version: 6.00 Build 0)  -->
<!DOCTYPE svg PUBLIC "-//W3C//DTD SVG 1.1//EN" "http://www.w3.org/Graphics/SVG/1.1/DTD/svg11.dtd">
<svg version="1.1" id="图层_1" xmlns="http://www.w3.org/2000/svg" xmlns:xlink="http://www.w3.org/1999/xlink" x="0px" y="0px"
	 width="16px" height="16px" viewBox="0 0 16 16" enable-background="new 0 0 16 16" xml:space="preserve">
<g>
	<rect opacity="0" fill="none" width="16" height="16"/>
	<path d="M4.941-0.004h7.319V1.42H6.256L5.445,5.775C5.817,5.541,6.717,5.03,8.184,5.03c3.243,0,5.413,2.295,5.413,5.462
		c0,3.062-2.214,5.504-5.435,5.504c-3.09,0-5.391-2.23-5.565-5.206h1.621c0.065,2.273,1.841,3.782,3.856,3.782
		c2.039,0,3.9-1.444,3.9-4.037c0-2.274-1.469-4.079-3.878-4.079C7,6.456,5.643,6.965,4.766,8.199L3.474,7.751L4.941-0.004z"/>
</g>
</svg>
