<?xml version="1.0" encoding="utf-8"?>
<!-- Generator: Adobe Illustrator 16.0.0, SVG Export Plug-In . SVG Version: 6.00 Build 0)  -->
<!DOCTYPE svg PUBLIC "-//W3C//DTD SVG 1.1//EN" "http://www.w3.org/Graphics/SVG/1.1/DTD/svg11.dtd">
<svg version="1.1" id="图层_1" xmlns="http://www.w3.org/2000/svg" xmlns:xlink="http://www.w3.org/1999/xlink" x="0px" y="0px"
	 width="16px" height="16px" viewBox="0 0 16 16" enable-background="new 0 0 16 16" xml:space="preserve">
<path d="M7.638,10.32C7.766,9.957,8.75,8.703,8.75,6.5c0-1.243-1.007-2.251-2.25-2.251c-1.242,0-2.25,1.008-2.25,2.251
	c0,2.203,0.984,3.457,1.113,3.82C4.215,10.426,2,11.158,2,12.5c0,0.316,0.252,0.75,0.75,0.75h7.5c0.499,0,0.751-0.434,0.751-0.75
	C11.001,11.158,8.786,10.426,7.638,10.32z M11.487,8.029C11.667,7.482,12.5,5.955,12.5,5c0-1.243-1.007-2.25-2.25-2.25
	c-0.629,0-1.199,0.259-1.607,0.677C9.613,4.105,10.25,5.229,10.25,6.5c0,1.141-0.223,2.084-0.483,2.811
	c0.581,0.23,1.146,0.543,1.609,0.939h1.875C13.684,10.25,14,9.91,14,9.5C14,8.556,12.185,8.158,11.487,8.029z"/>
</svg>
