<?xml version="1.0" encoding="utf-8"?>
<!-- Generator: Adobe Illustrator 16.0.0, SVG Export Plug-In . SVG Version: 6.00 Build 0)  -->
<!DOCTYPE svg PUBLIC "-//W3C//DTD SVG 1.1//EN" "http://www.w3.org/Graphics/SVG/1.1/DTD/svg11.dtd">
<svg version="1.1" id="图层_1" xmlns="http://www.w3.org/2000/svg" xmlns:xlink="http://www.w3.org/1999/xlink" x="0px" y="0px"
	 width="20px" height="20px" viewBox="0 0 20 20" enable-background="new 0 0 20 20" xml:space="preserve">
<g>
	<path d="M17.362,4.517c-0.411-0.41-0.955-0.636-1.536-0.636h-0.741V2.57c0-0.288-0.112-0.56-0.316-0.763
		c-0.408-0.41-1.12-0.41-1.526,0c-0.204,0.203-0.316,0.475-0.316,0.763v1.311H7.073V2.57c0-0.287-0.113-0.559-0.317-0.764
		c-0.407-0.408-1.118-0.409-1.526,0C5.026,2.012,4.913,2.283,4.913,2.57v1.311H4.172c-0.579,0-1.124,0.226-1.534,0.636
		C2.225,4.929,2,5.474,2,6.052v10.275c0,0.579,0.225,1.125,0.638,1.535c0.41,0.412,0.955,0.638,1.534,0.638h11.654
		c0.581,0,1.125-0.226,1.536-0.638c0.41-0.41,0.638-0.956,0.638-1.535V6.052C18,5.474,17.772,4.929,17.362,4.517 M16.567,8.953
		v7.374c0,0.198-0.076,0.384-0.218,0.524c-0.14,0.139-0.326,0.217-0.523,0.217H4.172c-0.197,0-0.384-0.078-0.524-0.218
		c-0.139-0.14-0.217-0.325-0.217-0.523V8.953H16.567z M16.567,6.13v1.392H3.431V6.13c0-0.198,0.078-0.385,0.217-0.524
		c0.141-0.14,0.327-0.218,0.524-0.218h11.654c0.197,0,0.384,0.078,0.523,0.218C16.491,5.745,16.567,5.932,16.567,6.13"/>
	<path d="M8.046,14.452c0,0.898-0.729,1.627-1.625,1.627c-0.898,0-1.627-0.729-1.627-1.627c0-0.897,0.729-1.626,1.627-1.626
		C7.317,12.826,8.046,13.555,8.046,14.452"/>
</g>
</svg>
