<?xml version="1.0" encoding="utf-8"?>
<!-- Generator: Adobe Illustrator 16.0.0, SVG Export Plug-In . SVG Version: 6.00 Build 0)  -->
<!DOCTYPE svg PUBLIC "-//W3C//DTD SVG 1.1//EN" "http://www.w3.org/Graphics/SVG/1.1/DTD/svg11.dtd">
<svg version="1.1" id="图层_1" xmlns="http://www.w3.org/2000/svg" xmlns:xlink="http://www.w3.org/1999/xlink" x="0px" y="0px"
	 width="20px" height="20px" viewBox="0 0 20 20" enable-background="new 0 0 20 20" xml:space="preserve">
<path d="M9.516,13.094C9.688,12.609,11,10.938,11,8c0-1.657-1.343-3-3-3S5,6.343,5,8c0,2.938,1.313,4.609,1.484,5.094
	C4.953,13.234,2,14.211,2,16c0,0.422,0.336,1,1,1h10c0.664,0,1-0.578,1-1C14,14.211,11.047,13.234,9.516,13.094z M14.648,10.039
	C14.889,9.311,16,7.273,16,6c0-1.657-1.344-3-3-3c-0.84,0-1.6,0.346-2.143,0.902C12.15,4.809,13,6.307,13,8
	c0,1.521-0.297,2.779-0.645,3.748c0.774,0.307,1.526,0.723,2.146,1.252H17c0.578,0,1-0.453,1-1
	C18,10.742,15.578,10.211,14.648,10.039z"/>
</svg>
