<?xml version="1.0" encoding="utf-8"?>
<!-- Generator: Adobe Illustrator 16.0.4, SVG Export Plug-In . SVG Version: 6.00 Build 0)  -->
<!DOCTYPE svg PUBLIC "-//W3C//DTD SVG 1.1//EN" "http://www.w3.org/Graphics/SVG/1.1/DTD/svg11.dtd">
<svg version="1.1" id="图层_1" xmlns="http://www.w3.org/2000/svg" xmlns:xlink="http://www.w3.org/1999/xlink" x="0px" y="0px"
	 width="16px" height="16px" viewBox="0 0 16 16" enable-background="new 0 0 16 16" xml:space="preserve">
<g>
	<rect opacity="0" fill="none" width="16" height="16"/>
	<path d="M10.41,0L6.59,5.545C7.071,5.27,7.66,5.057,8.511,5.057c2.488,0,5.13,1.826,5.13,5.463c0,3.1-2.205,5.48-5.543,5.48
		c-3.361,0-5.457-2.4-5.457-5.463c0-2.037,0.85-3.164,1.833-4.588L8.532,0H10.41z M4.299,10.434c0,2.635,1.854,4.145,3.863,4.145
		c2.336,0,3.863-1.807,3.863-4.018c0-2.338-1.551-4.08-3.906-4.08C6.045,6.48,4.299,8.031,4.299,10.434z"/>
	<rect opacity="0" fill="none" width="16" height="16"/>
	<path d="M10.41,0L6.59,5.545C7.071,5.27,7.66,5.057,8.511,5.057c2.488,0,5.13,1.826,5.13,5.463c0,3.1-2.205,5.48-5.543,5.48
		c-3.361,0-5.457-2.4-5.457-5.463c0-2.037,0.85-3.164,1.833-4.588L8.532,0H10.41z M4.299,10.434c0,2.635,1.854,4.145,3.863,4.145
		c2.336,0,3.863-1.807,3.863-4.018c0-2.338-1.551-4.08-3.906-4.08C6.045,6.48,4.299,8.031,4.299,10.434z"/>
</g>
</svg>
