<?xml version="1.0" encoding="utf-8"?>
<!-- Generator: Adobe Illustrator 16.0.0, SVG Export Plug-In . SVG Version: 6.00 Build 0)  -->
<!DOCTYPE svg PUBLIC "-//W3C//DTD SVG 1.1//EN" "http://www.w3.org/Graphics/SVG/1.1/DTD/svg11.dtd">
<svg version="1.1" id="图层_1" xmlns="http://www.w3.org/2000/svg" xmlns:xlink="http://www.w3.org/1999/xlink" x="0px" y="0px"
	 width="20px" height="20px" viewBox="0 0 20 20" enable-background="new 0 0 20 20" xml:space="preserve">
<path d="M10,0C4.477,0,0,4.479,0,10c0,5.523,4.477,10,10,10c5.522,0,10-4.477,10-10C20,4.479,15.522,0,10,0z M11.62,14.693
	c-0.302,0.068-0.652,0.105-1.014,0.105c-0.794,0-2.617-0.189-3.877-1.777l-0.005,0.002l-0.815,1.885
	c-0.028,0.063-0.095,0.102-0.163,0.09c-0.035-0.004-0.064-0.02-0.088-0.043c-0.022-0.023-0.039-0.053-0.043-0.088l-0.614-4.693
	c-0.005-0.047,0.011-0.096,0.045-0.129c0.033-0.031,0.081-0.047,0.127-0.041l4.694,0.611c0.068,0.01,0.123,0.064,0.131,0.131
	c0.01,0.068-0.026,0.137-0.09,0.162l-1.884,0.818l-0.169,0.168c0.808,1.141,2.031,1.324,2.722,1.324
	c0.411,0,0.692-0.061,0.692-0.061c0.049-0.014,0.088,0.012,0.096,0.051l0.311,1.4C11.684,14.645,11.66,14.684,11.62,14.693z
	 M14.956,9.953c-0.035,0.035-0.084,0.051-0.13,0.045l-4.693-0.615C10.064,9.375,10.011,9.32,10,9.256
	c-0.009-0.07,0.028-0.137,0.093-0.162l1.885-0.82l0.167-0.166c-0.808-1.143-2.03-1.324-2.722-1.324
	c-0.411,0-0.691,0.061-0.703,0.061C8.681,6.854,8.644,6.83,8.635,6.791L8.323,5.393C8.316,5.354,8.341,5.316,8.38,5.307
	c0.303-0.068,0.652-0.105,1.016-0.105c0.791,0,2.615,0.191,3.875,1.779l0.006-0.006l0.816-1.883c0.027-0.064,0.094-0.102,0.162-0.09
	c0.033,0.004,0.063,0.02,0.087,0.041c0.022,0.023,0.039,0.055,0.044,0.09l0.613,4.693C15.005,9.871,14.989,9.92,14.956,9.953z"/>
</svg>
