<?xml version="1.0" encoding="utf-8"?>
<!-- Generator: Adobe Illustrator 16.0.0, SVG Export Plug-In . SVG Version: 6.00 Build 0)  -->
<!DOCTYPE svg PUBLIC "-//W3C//DTD SVG 1.1//EN" "http://www.w3.org/Graphics/SVG/1.1/DTD/svg11.dtd">
<svg version="1.1" id="图层_1" xmlns="http://www.w3.org/2000/svg" xmlns:xlink="http://www.w3.org/1999/xlink" x="0px" y="0px"
	 width="16px" height="16px" viewBox="0 0 16 16" enable-background="new 0 0 16 16" xml:space="preserve">
<g>
	<g>
		<path d="M10.207,10.815l-0.533,3.576C9.623,14.798,9.369,15,8.912,15c-0.455,0-0.684-0.177-0.684-0.532
			c0-0.102,0.023-0.253,0.076-0.457c0-0.101,0.023-0.229,0.076-0.38l0.379-2.815H6.402l-0.457,3.576C5.895,14.798,5.641,15,5.186,15
			C4.729,15,4.5,14.823,4.5,14.468c0-0.102,0.025-0.253,0.076-0.457c0-0.101,0.025-0.229,0.076-0.38l0.381-2.815H3.814
			c-0.508,0-0.76-0.229-0.76-0.685c0-0.405,0.252-0.609,0.76-0.609h1.371l0.379-2.891H4.424c-0.559,0-0.838-0.229-0.838-0.686
			c0-0.354,0.279-0.557,0.838-0.608h1.369L6.25,1.685C6.299,1.229,6.555,1,7.01,1c0.406,0.052,0.635,0.279,0.686,0.685
			c0,0.152-0.051,0.33-0.152,0.533c0,0.151,0,0.254,0,0.304L7.162,5.337h2.359l0.457-3.652c0.049-0.405,0.305-0.633,0.76-0.685
			c0.406,0.052,0.635,0.279,0.686,0.685c-0.051,0.102-0.076,0.229-0.076,0.381c0,0.203,0,0.355,0,0.456l-0.381,2.815h1.143
			c0.506,0.052,0.785,0.254,0.836,0.608c-0.051,0.457-0.33,0.686-0.836,0.686h-1.371l-0.379,2.891H11.5
			c0.506,0.052,0.785,0.254,0.836,0.609c-0.051,0.456-0.33,0.685-0.836,0.685H10.207z M8.912,9.521l0.457-2.891H7.01L6.631,9.521
			H8.912z"/>
	</g>
</g>
</svg>
