<?xml version="1.0" encoding="utf-8"?>
<!-- Generator: Adobe Illustrator 16.0.4, SVG Export Plug-In . SVG Version: 6.00 Build 0)  -->
<!DOCTYPE svg PUBLIC "-//W3C//DTD SVG 1.1//EN" "http://www.w3.org/Graphics/SVG/1.1/DTD/svg11.dtd">
<svg version="1.1" id="图层_1" xmlns="http://www.w3.org/2000/svg" xmlns:xlink="http://www.w3.org/1999/xlink" x="0px" y="0px"
	 width="16px" height="16px" viewBox="0 0 16 16" enable-background="new 0 0 16 16" xml:space="preserve">
<g>
	<rect opacity="0" fill="none" width="16" height="16"/>
	<path d="M4.073,4.103C3.987,2.14,5.306,0.01,8.085,0.01c2.443,0,3.907,1.773,3.907,3.948c0,1.043-0.552,2.255-1.763,2.944
		c1.74,0.562,2.781,2.234,2.781,4.134c0,2.175-1.57,4.974-5.053,4.974c-3.545,0-4.883-2.799-4.947-5.099h1.572
		c0.021,2.174,1.442,3.699,3.375,3.699c1.953,0,3.482-1.566,3.482-3.552c0-1.023-0.403-3.427-4.056-3.427H6.982V6.232h0.615
		c2.335,0,2.822-1.461,2.822-2.4c0-1.338-0.89-2.425-2.377-2.425c-1.613,0-2.505,1.338-2.397,2.695H4.073z"/>
</g>
</svg>
