<?xml version="1.0" encoding="utf-8"?>
<!-- Generator: Adobe Illustrator 16.0.0, SVG Export Plug-In . SVG Version: 6.00 Build 0)  -->
<!DOCTYPE svg PUBLIC "-//W3C//DTD SVG 1.1//EN" "http://www.w3.org/Graphics/SVG/1.1/DTD/svg11.dtd">
<svg version="1.1" id="图层_1" xmlns="http://www.w3.org/2000/svg" xmlns:xlink="http://www.w3.org/1999/xlink" x="0px" y="0px"
	 width="16px" height="16px" viewBox="0 0 16 16" enable-background="new 0 0 16 16" xml:space="preserve">
<g>
	<path d="M5.731,1.43c0.424-0.096,0.913-0.147,1.422-0.147c1.107,0,3.661,0.268,5.425,2.491l0.009-0.009l1.143-2.636
		c0.038-0.09,0.131-0.143,0.227-0.126c0.047,0.006,0.089,0.027,0.122,0.058c0.031,0.033,0.055,0.076,0.062,0.126l0.858,6.57
		c0.009,0.063-0.014,0.131-0.06,0.178c-0.05,0.049-0.118,0.071-0.183,0.063l-6.57-0.861C8.09,7.125,8.015,7.049,8,6.958
		C7.987,6.86,8.039,6.767,8.13,6.731l2.639-1.148l0.233-0.232c-1.131-1.6-2.842-1.854-3.811-1.854c-0.575,0-0.968,0.085-0.984,0.085
		c-0.055,0.014-0.106-0.02-0.118-0.074L5.652,1.55C5.643,1.495,5.677,1.443,5.731,1.43z"/>
	<path d="M10.268,14.57c-0.422,0.096-0.913,0.148-1.419,0.148c-1.111,0-3.664-0.266-5.428-2.488l-0.007,0.002l-1.142,2.639
		c-0.039,0.088-0.132,0.143-0.228,0.126c-0.05-0.005-0.091-0.027-0.123-0.06c-0.032-0.033-0.055-0.074-0.061-0.123l-0.86-6.571
		c-0.007-0.065,0.016-0.134,0.063-0.18C1.11,8.02,1.178,7.997,1.242,8.006l6.571,0.855c0.096,0.014,0.173,0.091,0.184,0.184
		C8.011,9.141,7.96,9.236,7.871,9.271l-2.637,1.146l-0.237,0.235c1.131,1.597,2.844,1.854,3.811,1.854
		c0.575,0,0.97-0.084,0.97-0.084c0.068-0.02,0.123,0.016,0.134,0.07l0.435,1.961C10.356,14.502,10.324,14.557,10.268,14.57z"/>
</g>
</svg>
