<?xml version="1.0" encoding="utf-8"?>
<!-- Generator: Adobe Illustrator 16.0.0, SVG Export Plug-In . SVG Version: 6.00 Build 0)  -->
<!DOCTYPE svg PUBLIC "-//W3C//DTD SVG 1.1//EN" "http://www.w3.org/Graphics/SVG/1.1/DTD/svg11.dtd">
<svg version="1.1" xmlns="http://www.w3.org/2000/svg" xmlns:xlink="http://www.w3.org/1999/xlink" x="0px" y="0px" width="16px"
	 height="16px" viewBox="0 0 16 16" enable-background="new 0 0 16 16" xml:space="preserve">
<g id="图层_1">
	<path d="M14,0H2C0.9,0,0,0.9,0,2v12c0,1.1,0.9,2,2,2h12c1.1,0,2-0.9,2-2V2C16,0.9,15.1,0,14,0z M13,4.625
		c-0.083,0-0.162-0.012-0.241-0.024l-1.681,3.36c0.26,0.27,0.421,0.635,0.421,1.039c0,0.829-0.671,1.5-1.5,1.5s-1.5-0.671-1.5-1.5
		c0-0.231,0.057-0.448,0.15-0.644L7.724,7.431c-0.216,0.12-0.46,0.194-0.725,0.194c-0.113,0-0.224-0.015-0.329-0.039l-2.565,4.489
		C4.348,12.342,4.5,12.693,4.5,13.083c0,0.829-0.671,1.5-1.5,1.5s-1.5-0.671-1.5-1.5s0.671-1.5,1.5-1.5
		c0.075,0,0.148,0.012,0.221,0.022l2.604-4.557C5.624,6.793,5.499,6.476,5.499,6.125c0-0.829,0.671-1.5,1.5-1.5s1.5,0.671,1.5,1.5
		c0,0.197-0.04,0.385-0.109,0.558l0.967,0.967C9.552,7.557,9.768,7.5,9.999,7.5c0.063,0,0.122,0.011,0.183,0.019l1.701-3.401
		C11.647,3.853,11.5,3.508,11.5,3.125c0-0.829,0.671-1.5,1.5-1.5s1.5,0.671,1.5,1.5S13.829,4.625,13,4.625z"/>
</g>
<g id="图层_2">
</g>
</svg>
