<?xml version="1.0" encoding="utf-8"?>
<!-- Generator: Adobe Illustrator 16.0.0, SVG Export Plug-In . SVG Version: 6.00 Build 0)  -->
<!DOCTYPE svg PUBLIC "-//W3C//DTD SVG 1.1//EN" "http://www.w3.org/Graphics/SVG/1.1/DTD/svg11.dtd">
<svg version="1.1" id="图层_1" xmlns="http://www.w3.org/2000/svg" xmlns:xlink="http://www.w3.org/1999/xlink" x="0px" y="0px"
	 width="16px" height="16px" viewBox="0 0 16 16" enable-background="new 0 0 16 16" xml:space="preserve">
<g>
	<path fill="none" stroke="#FFFFFF" stroke-width="3" stroke-linecap="round" stroke-linejoin="round" d="M0,2.264"/>
	<path fill="#0085B0" d="M6.896,4.937C6.824,4.604,6.662,4.418,6.385,4.355C6.306,4.337,6.219,4.328,6.124,4.328
		c-0.601,0-1.351,0.39-1.538,0.557l0,0c0.027,0.451,0.121,1.342-0.01,2.286C4.486,7.806,4.68,8.428,5.108,8.874
		C5.419,9.199,5.817,9.389,6.239,9.41C6.294,9.213,6.37,9.008,6.451,8.788l0.046-0.123c0.05-0.132,0.107-0.261,0.17-0.397
		C6.952,7.63,7.307,6.84,6.896,4.937z M5.957,5.548l-0.08-0.006C5.713,5.518,5.551,5.417,5.44,5.272
		C5.362,5.163,5.33,5.068,5.344,4.981c0.023-0.173,0.2-0.276,0.472-0.276c0.052,0,0.105,0.003,0.161,0.011
		c0.354,0.05,0.564,0.219,0.537,0.428C6.486,5.332,6.237,5.548,5.957,5.548z"/>
	<path fill="#0085B0" d="M12.305,1.442c0.829,0.966,1.236,2.04,1.27,2.401l-0.012,0.13c0.019,0.368-0.029,0.692-0.077,1.006
		C13.449,5.224,13.41,5.469,13.4,5.751c-0.007,0.264,0.025,0.545,0.062,0.841c0.066,0.56,0.144,1.206-0.047,1.875
		c1.667-2.949,2.234-6.167,1.688-6.863c-0.804-1.028-1.941-1.565-3.38-1.598l-0.134-0.001c-0.326,0-0.657,0.026-0.989,0.079
		C11.394,0.497,11.959,1.04,12.305,1.442z"/>
	<path fill="#0085B0" d="M3.845,7.068C3.968,6.201,3.922,5.427,3.898,5.01L3.886,4.736C3.88,4.467,3.872,2.1,5.243,0.613
		C4.716,0.452,3.85,0.24,2.979,0.24c-0.781,0-1.418,0.17-1.892,0.506C0.296,1.306-0.066,2.36,0.01,3.881
		c0.024,0.488,0.334,2.233,0.867,3.977c0.596,1.958,1.287,3.239,1.848,3.427c0.03,0.009,0.068,0.021,0.12,0.021
		c0.161,0,0.349-0.122,0.538-0.354C3.908,10.32,4.405,9.773,4.68,9.479c-0.047-0.04-0.075-0.067-0.105-0.096
		C3.991,8.772,3.725,7.929,3.845,7.068z"/>
	<path fill="#0085B0" d="M11.985,8.588c-0.024-0.062-0.104-0.201-0.194-0.366c-0.548-0.981-1.677-3.003-0.923-4.082
		c0.296-0.42,0.821-0.632,1.564-0.632c0.093,0,0.188,0.003,0.287,0.01c-0.124-0.316-0.412-0.929-0.947-1.562
		c-0.665-0.785-1.841-1.727-3.675-1.757c-0.001,0-0.002,0-0.003,0c-0.962,0-1.688,0.281-2.235,0.836
		C5.026,1.876,4.755,3.162,4.667,3.977c0.256-0.126,0.718-0.319,1.222-0.372c0.086-0.008,0.17-0.013,0.251-0.013
		c0.787,0,1.313,0.421,1.477,1.187C8.08,6.92,7.651,7.873,7.338,8.569c-0.072,0.166-0.115,0.263-0.15,0.354
		C7.097,9.172,7.028,9.355,6.98,9.516c0.002,0,0.003,0,0.005,0c0.174,0,0.313,0.057,0.395,0.091c0.289,0.12,0.529,0.405,0.628,0.748
		l0.044,0.266c-0.057,2.064,0.025,4.003,0.187,4.409c0.203,0.506,0.488,0.976,1.198,0.976c0.141,0,0.298-0.018,0.465-0.054
		c1.043-0.223,1.396-0.577,1.568-1.582c0.14-0.821,0.357-3.117,0.39-3.557c0.132-0.852,0.458-1.141,0.739-1.248
		c-0.013-0.017-0.024-0.031-0.039-0.048C12.404,9.321,12.165,9.024,11.985,8.588z"/>
	<path fill="#0085B0" d="M12.671,8.321c0.173-0.528,0.127-1.069,0.062-1.623c-0.039-0.32-0.078-0.651-0.066-0.973
		c0.009-0.327,0.05-0.599,0.09-0.858c0.032-0.198,0.054-0.392,0.064-0.596c-0.137-0.014-0.275-0.022-0.411-0.022
		c-0.476,0-0.791,0.105-0.937,0.314c-0.489,0.696,0.557,2.572,0.949,3.28c0.127,0.228,0.207,0.372,0.244,0.464
		C12.668,8.313,12.669,8.317,12.671,8.321z M12.498,5.084c-0.11,0.112-0.231,0.177-0.36,0.194l-0.07,0.004
		c-0.257,0-0.491-0.198-0.514-0.363c-0.031-0.226,0.249-0.348,0.499-0.382c0.054-0.008,0.105-0.01,0.154-0.01
		c0.249,0,0.408,0.09,0.432,0.238C12.652,4.86,12.6,4.979,12.498,5.084z"/>
	<path fill="#0085B0" d="M5.407,11.977c-0.233,0-0.482-0.034-0.735-0.097c-0.148-0.036-0.302-0.104-0.407-0.178l-0.313-0.215
		l0.119-0.056c0.096-0.046,0.577-0.19,0.744-0.255c0.648-0.246,0.879-0.371,1.124-0.61c0.083-0.082,0.157-0.196,0.272-0.326
		c0.127-0.143,0.251-0.213,0.383-0.213c0.089,0,0.169,0.03,0.243,0.063c0.17,0.069,0.325,0.258,0.388,0.479
		c0.054,0.193,0.03,0.371-0.065,0.504C6.732,11.673,6.144,11.977,5.407,11.977z"/>
	<path fill="#0085B0" d="M13.648,11.226c-0.343,0-0.604-0.058-0.718-0.159l-0.067-0.063l-0.005-0.096
		c-0.103-0.425,0.245-0.844,0.53-0.931l0.098-0.03l0.177,0.037c0.225,0.167,0.491,0.23,0.838,0.23c0.293,0,1.24-0.08,1.461-0.156
		L16,10.073l-0.17,0.248c-0.101,0.106-0.431,0.436-0.805,0.623c-0.29,0.147-0.751,0.254-1.203,0.277L13.648,11.226z"/>
</g>
</svg>
