<?xml version="1.0" encoding="utf-8"?>
<!-- Generator: Adobe Illustrator 16.0.0, SVG Export Plug-In . SVG Version: 6.00 Build 0)  -->
<!DOCTYPE svg PUBLIC "-//W3C//DTD SVG 1.1//EN" "http://www.w3.org/Graphics/SVG/1.1/DTD/svg11.dtd">
<svg version="1.1" id="图层_1" xmlns="http://www.w3.org/2000/svg" xmlns:xlink="http://www.w3.org/1999/xlink" x="0px" y="0px"
	 width="16px" height="16px" viewBox="0 0 16 16" enable-background="new 0 0 16 16" xml:space="preserve">
<path d="M8,0C3.582,0,0,3.582,0,8s3.582,8,8,8s8-3.582,8-8S12.418,0,8,0z M9,13H7v-2h2V13z M9.704,8.355
	C9.249,8.781,9.001,9.109,9.001,9.719V10H7.004c0,0,0-0.375,0-0.5c0-0.847,0.361-1.398,0.915-1.952C8.522,6.944,9.01,6.5,9.01,5.994
	c0-0.556-0.453-1.007-1.008-1.007c-0.558,0-1.011,0.45-1.011,1.122v0.26H5V6.094C5,4.24,6.347,3,8.002,3C9.655,3,11,4.344,11,5.994
	C11,7,10.484,7.625,9.704,8.355z"/>
</svg>
