<?xml version="1.0" encoding="utf-8"?>
<!-- Generator: Adobe Illustrator 16.0.0, SVG Export Plug-In . SVG Version: 6.00 Build 0)  -->
<!DOCTYPE svg PUBLIC "-//W3C//DTD SVG 1.1//EN" "http://www.w3.org/Graphics/SVG/1.1/DTD/svg11.dtd">
<svg version="1.1" id="图层_1" xmlns="http://www.w3.org/2000/svg" xmlns:xlink="http://www.w3.org/1999/xlink" x="0px" y="0px"
	 width="16px" height="16px" viewBox="0 0 16 16" enable-background="new 0 0 16 16" xml:space="preserve">
<g>
	<path id="Blue_1_" fill="#3B5998" d="M15.117,16C15.605,16,16,15.604,16,15.117V0.883C16,0.396,15.605,0,15.117,0H0.884
		C0.396,0,0,0.396,0,0.883v14.234C0,15.604,0.396,16,0.884,16H15.117z"/>
	<path id="f" fill="#FFFFFF" d="M11.04,16V9.804h2.08l0.312-2.414H11.04V5.848c0-0.699,0.194-1.176,1.197-1.176l1.278-0.001V2.512
		c-0.222-0.029-0.98-0.096-1.863-0.096c-1.844,0-3.105,1.126-3.105,3.192V7.39H6.462v2.414h2.085V16H11.04z"/>
</g>
</svg>
