<?xml version="1.0" encoding="utf-8"?>
<!-- Generator: Adobe Illustrator 16.0.4, SVG Export Plug-In . SVG Version: 6.00 Build 0)  -->
<!DOCTYPE svg PUBLIC "-//W3C//DTD SVG 1.1//EN" "http://www.w3.org/Graphics/SVG/1.1/DTD/svg11.dtd">
<svg version="1.1" id="图层_1" xmlns="http://www.w3.org/2000/svg" xmlns:xlink="http://www.w3.org/1999/xlink" x="0px" y="0px"
	 width="16px" height="16px" viewBox="0 0 16 16" enable-background="new 0 0 16 16" xml:space="preserve">
<g>
	<rect opacity="0" fill="none" width="16" height="16"/>
	<path d="M5.859,16.016l3.82-5.525c-0.479,0.277-1.07,0.489-1.923,0.489c-2.487,0-5.127-1.848-5.127-5.482
		c0-3.124,2.203-5.481,5.544-5.481c3.339,0,5.456,2.4,5.456,5.481c0,1.573-0.567,2.742-1.835,4.591l-4.059,5.928H5.859z
		 M11.969,5.604c0-2.146-1.375-4.166-3.861-4.166c-2.336,0-3.863,1.809-3.863,4.019c0,2.314,1.549,4.102,3.906,4.102
		C10.225,9.558,11.969,7.983,11.969,5.604z"/>
</g>
</svg>
