<svg id="图层_1" data-name="图层 1" xmlns="http://www.w3.org/2000/svg" viewBox="0 0 16 16"><defs><style>.cls-1,.cls-2{fill:none;}.cls-1{opacity:0.8;}.cls-2{stroke:#000;stroke-linecap:round;stroke-linejoin:round;}</style></defs><title>timeZone</title><rect class="cls-1" width="16" height="16"/><path class="cls-2" d="M7.42,4.5"/><path d="M8,1a7,7,0,1,0,7,7A7,7,0,0,0,8,1ZM8,13.63A5.63,5.63,0,1,1,13.63,8,5.62,5.62,0,0,1,8,13.63Z"/><path d="M10.5,8H8V4.5a.5.5,0,1,0-1,0v4a.5.5,0,0,0,.5.5h3a.5.5,0,0,0,0-1Z"/></svg>