<?xml version="1.0" encoding="utf-8"?>
<!-- Generator: Adobe Illustrator 16.0.0, SVG Export Plug-In . SVG Version: 6.00 Build 0)  -->
<!DOCTYPE svg PUBLIC "-//W3C//DTD SVG 1.1//EN" "http://www.w3.org/Graphics/SVG/1.1/DTD/svg11.dtd">
<svg version="1.1" id="图层_1" xmlns="http://www.w3.org/2000/svg" xmlns:xlink="http://www.w3.org/1999/xlink" x="0px" y="0px"
	 width="16px" height="16px" viewBox="0 0 16 16" enable-background="new 0 0 16 16" xml:space="preserve">
<g>
	<path d="M12.932,5.554l-1.056,1.056c0.022,0.015,0.046,0.028,0.068,0.043c0.94,0.6,1.737,1.402,2.335,2.348
		c-0.598,0.945-1.395,1.749-2.335,2.349C10.764,12.102,9.399,12.5,8,12.5c-0.605,0-1.2-0.087-1.779-0.235l-1.2,1.2
		C5.952,13.806,6.952,14,8,14c3.489,0,6.514-2.031,8-5C15.294,7.59,14.221,6.42,12.932,5.554z"/>
	<path d="M8,11.906c2.209,0,4-1.791,4-4c0-0.427-0.076-0.834-0.2-1.221l-5.022,5.022C7.163,11.834,7.572,11.906,8,11.906z"/>
	<path d="M4.032,13.039l1.125-1.125c-0.001,0-0.001,0-0.001,0l0.661-0.662c0,0,0.001,0,0.001,0.001l6.242-6.242
		c0-0.001-0.001-0.001-0.001-0.001l1.584-1.584c0.392-0.392,0.473-0.953,0.179-1.248c-0.295-0.294-0.856-0.213-1.248,0.179
		l-2.022,2.022C9.742,4.134,8.887,4,8,4C4.511,4,1.486,6.032,0,9c0.642,1.282,1.583,2.373,2.713,3.218l-1.358,1.357
		c-0.392,0.392-0.472,0.954-0.178,1.248s0.856,0.214,1.248-0.178L4.032,13.039C4.031,13.039,4.031,13.039,4.032,13.039z M6.5,6
		c0.658,0,1.211,0.427,1.413,1.017L6.017,8.913C5.427,8.711,5,8.158,5,7.5C5,6.672,5.672,6,6.5,6z M1.721,9
		c0.598-0.945,1.395-1.749,2.335-2.348C4.117,6.613,4.179,6.575,4.24,6.537C4.085,6.965,4,7.426,4,7.906
		c0,0.855,0.273,1.644,0.73,2.293L3.779,11.15C2.962,10.575,2.258,9.849,1.721,9z"/>
</g>
</svg>
