<?xml version="1.0" encoding="utf-8"?>
<!-- Generator: Adobe Illustrator 16.0.0, SVG Export Plug-In . SVG Version: 6.00 Build 0)  -->
<!DOCTYPE svg PUBLIC "-//W3C//DTD SVG 1.1//EN" "http://www.w3.org/Graphics/SVG/1.1/DTD/svg11.dtd">
<svg version="1.1" id="图层_1" xmlns="http://www.w3.org/2000/svg" xmlns:xlink="http://www.w3.org/1999/xlink" x="0px" y="0px"
	 width="81.001px" height="14px" viewBox="0 0 81.001 14" enable-background="new 0 0 81.001 14" xml:space="preserve">
<g>
	<path d="M80.669,12.257L76.484,8.49l3.175-2.778c0.415-0.364,0.457-0.995,0.094-1.411s-0.995-0.457-1.411-0.094l-3.341,2.924V1
		c0-0.553-0.448-1-1.001-1s-1,0.447-1,1v12c0,0.553,0.447,1,1,1s1.001-0.447,1.001-1V9.846l4.331,3.897
		C79.523,13.915,79.763,14,80,14c0.273,0,0.546-0.111,0.744-0.331C81.113,13.259,81.08,12.626,80.669,12.257z"/>
	<path d="M17,4c-2.757,0-4.999,2.243-4.999,5s2.242,5,4.999,5c1.126,0,2.165-0.373,3-1.003V13c0,0.553,0.448,1,1,1
		c0.553,0,1-0.447,1-1V9C22,6.243,19.758,4,17,4z M17,12c-1.653,0-3-1.346-3-3s1.347-3,3-3c1.654,0,3,1.346,3,3S18.654,12,17,12z"/>
	<path d="M34,3.958c-2.756,0-5,2.243-5,5s2.244,5,5,5c1.125,0,2.164-0.373,3-1.003V13c0,0.553,0.448,1,1,1c0.553,0,1-0.447,1-1V9
		c0-0.005,0-0.01,0-0.014c0-0.01,0-0.019,0-0.028C39,6.201,36.758,3.958,34,3.958z M34,11.958c-1.653,0-3-1.346-3-3
		c0-1.653,1.347-3,3-3c1.654,0,3,1.347,3,3C37,10.612,35.654,11.958,34,11.958z"/>
	<path d="M28,12c-1.653,0-3-1.346-3-3V6h2c0.553,0,1-0.447,1-1c0-0.552-0.447-1-1-1h-2V1c0-0.553-0.447-1-1-1c-0.552,0-1,0.447-1,1
		v8c0,2.757,2.243,5,5,5c0.553,0,1-0.447,1-1S28.553,12,28,12z"/>
	<path d="M68.001,6c0.801,0,1.555,0.313,2.121,0.879c0.391,0.391,1.023,0.391,1.414,0s0.391-1.024,0-1.414
		C70.592,4.52,69.336,4,68.001,4c-2.758,0-5,2.243-5,5s2.242,5,5,5c1.335,0,2.591-0.52,3.535-1.465c0.391-0.39,0.391-1.023,0-1.414
		s-1.023-0.391-1.414,0C69.555,11.688,68.802,12,68.001,12C66.347,12,65,10.654,65,9S66.347,6,68.001,6z"/>
	<path d="M57,4c-2.757,0-5,2.243-5,5s2.243,5,5,5c0.902,0,2.583-0.168,3.708-1.293c0.39-0.391,0.39-1.023,0-1.414
		c-0.391-0.391-1.024-0.391-1.415,0C58.844,11.742,58.008,12,57,12c-1.303,0-2.415-0.836-2.827-2h6.835c0.552,0,1-0.447,1-1
		c0-0.047-0.005-0.093-0.011-0.138C61.924,6.169,59.711,4,57,4z M57,6c1.304,0,2.416,0.836,2.828,2h-5.655
		C54.585,6.836,55.697,6,57,6z"/>
	<path d="M44,0h-1c-1.654,0-2.999,1.346-2.999,3v8c0,1.654,1.345,3,2.999,3h1c3.86,0,7-3.14,7-7C51,3.141,47.86,0,44,0z M44,12h-1
		c-0.551,0-1-0.449-1-1V3c0-0.551,0.449-1,1-1h1c2.758,0,5,2.243,5,5S46.758,12,44,12z"/>
	<path d="M4,0H3C1.347,0,0,1.346,0,3v8c0,1.654,1.347,3,3,3h1c3.86,0,7-3.14,7-7C11,3.141,7.86,0,4,0z M4,12H3c-0.551,0-1-0.449-1-1
		V3c0-0.551,0.449-1,1-1h1c2.758,0,5,2.243,5,5S6.758,12,4,12z"/>
</g>
</svg>
