<?xml version="1.0" encoding="utf-8"?>
<!-- Generator: Adobe Illustrator 16.0.0, SVG Export Plug-In . SVG Version: 6.00 Build 0)  -->
<!DOCTYPE svg PUBLIC "-//W3C//DTD SVG 1.1//EN" "http://www.w3.org/Graphics/SVG/1.1/DTD/svg11.dtd">
<svg version="1.1" id="图层_1" xmlns="http://www.w3.org/2000/svg" xmlns:xlink="http://www.w3.org/1999/xlink" x="0px" y="0px"
	 width="240px" height="50px" viewBox="0 0 240 50" enable-background="new 0 0 240 50" xml:space="preserve">
<g>
	<g>
		<rect fill="#9CCC65" width="240" height="50"/>
		<polygon opacity="0.6" fill="#689F38" points="240,50 194,50 126,0 240,0 		"/>
		<polygon opacity="0.8" fill="#689F38" points="240,30 160,0 240,0 		"/>
		<g>
			<polygon opacity="0.3" fill="#212121" points="240,50 75,50 240,0 			"/>
			<polygon opacity="0.5" fill="#212121" points="240,50 166,50 138,50 240,0 			"/>
			<polygon fill="#212121" points="240,50 165,50 240,0 			"/>
		</g>
	</g>
	<g>
		<path fill="#FFFFFF" d="M25.931,16.012c-1.903,0-3.688,0.674-5.04,2.025C19.538,19.386,19,21.016,19,22.928v9.715
			c0,0.012,0-0.021,0,0C19,33.428,19.388,34,20.163,34c0.781,0,1.237-0.576,1.237-1.357c0-0.047,0,0.045,0,0v-4.176
			c1.798,0.914,2.616,1.371,4.193,1.371c1.904,0,3.702-0.678,5.053-2.025c1.347-1.35,2.106-2.98,2.106-4.885
			c0-1.912-0.628-3.542-1.979-4.891C29.425,16.686,27.842,16.012,25.931,16.012z M28.862,25.855
			c-0.814,0.807-1.789,1.216-2.932,1.216c-1.142,0-2.113-0.409-2.924-1.216c-0.812-0.811-1.22-1.79-1.22-2.928
			c0-1.146,0.408-2.127,1.22-2.936c0.811-0.811,1.782-1.217,2.924-1.217c1.143,0,2.117,0.406,2.932,1.217
			c0.808,0.809,1.213,1.789,1.213,2.936C30.075,24.065,29.67,25.045,28.862,25.855z"/>
		<path fill="#FFFFFF" d="M41.658,31.158c-0.014,0,0.248,0.002-0.044,0.002c-0.967-0.027-2.415-0.295-3.192-1.075
			c-0.813-0.812-1.406-1.94-1.406-3.083v-4.547h3.104h0.013l0,0c0.734,0,1.394-0.6,1.394-1.377c0-0.764-0.613-1.479-1.37-1.479
			h-0.455h-2.686v-2.03c0-0.622-0.472-1.569-1.369-1.569c-1,0-1.473,0.947-1.473,1.569c0,0.06,0,9.433,0,9.433
			c0,1.909,0.789,3.752,2.134,5.1c1.149,1.15,3.177,1.982,5.172,1.891c0.759-0.031,1.694-0.652,1.694-1.412
			C43.174,31.819,42.42,31.158,41.658,31.158z"/>
		<path fill="#FFFFFF" d="M93.736,28.037c0.872,0,1.664-0.604,1.759-1.461c0.111-1.007-1.349-6.957-7.169-6.979
			c-1.987-0.006-3.687,0.721-5.108,2.125c-1.423,1.403-2.117,3.104-2.117,5.085c0,1.98,0.725,3.678,2.147,5.084
			c1.423,1.399,3.144,2.106,5.158,2.106c1.862,0,3.771-0.586,5.213-1.732h0.005c0.358-0.287,0.6-0.725,0.6-1.217
			c0-0.853-0.7-1.543-1.568-1.543c-0.436,0-0.827,0.171-1.105,0.452h-0.009c-0.89,0.748-1.929,1.041-3.132,1.091
			c-2.018,0.078-3.749-1.141-4.131-3.012H93.736C93.736,28.037,93.68,28.037,93.736,28.037z M88.409,22.662
			c2.314-0.061,3.925,1.637,4.143,2.884h-8.273C84.482,24.299,86.058,22.721,88.409,22.662z"/>
		<path fill="#FFFFFF" d="M79.299,32.459v-5.617c0-1.998-0.623-3.705-2.05-5.119c-1.427-1.413-3.064-2.123-5.085-2.123
			c-2.015,0-3.712,0.71-5.141,2.123c-1.428,1.414-2.12,3.121-2.12,5.119v5.377v0.293l-0.002,0.004l0.003,0.019
			c0.018,0.287,0.305,1.464,1.509,1.464c1.233,0,1.603-0.939,1.603-1.43c0-0.049,0-0.083,0-0.11c0-0.011,0.007-0.015,0.007-0.015
			c0-0.033-0.007-0.056-0.007-0.086v-5.516c0-1.199,0.355-2.219,1.213-3.071c0.86-0.849,1.86-1.274,3.066-1.274
			c1.205,0,2.188,0.426,3.046,1.274c0.86,0.853,1.084,1.872,1.084,3.071l-0.003,5.594c0,0,0.145,1.537,1.515,1.564
			C79.299,34.017,79.299,32.459,79.299,32.459z"/>
		<path fill="#FFFFFF" d="M54.614,16c-4.71,0-8.529,4.031-8.529,9.004c0,4.967,3.819,8.996,8.529,8.996
			c4.707,0,8.523-4.029,8.523-8.996C63.138,20.031,59.321,16,54.614,16z M54.614,31.158c-3.14,0-5.688-2.756-5.688-6.157
			s2.549-6.157,5.688-6.157c3.136,0,5.685,2.756,5.685,6.157S57.75,31.158,54.614,31.158z"/>
	</g>
</g>
</svg>
