<?xml version="1.0" encoding="utf-8"?>
<!-- Generator: Adobe Illustrator 16.0.0, SVG Export Plug-In . SVG Version: 6.00 Build 0)  -->
<!DOCTYPE svg PUBLIC "-//W3C//DTD SVG 1.1//EN" "http://www.w3.org/Graphics/SVG/1.1/DTD/svg11.dtd">
<svg version="1.1" id="图层_1" xmlns="http://www.w3.org/2000/svg" xmlns:xlink="http://www.w3.org/1999/xlink" x="0px" y="0px"
	 width="16px" height="16px" viewBox="0 0 16 16" enable-background="new 0 0 16 16" xml:space="preserve">
<rect opacity="0.6" fill="none" width="16" height="16"/>
<g>
	<path d="M1,7h8h1h5h1l-0.813-0.581L9.813,2.155C9.366,1.836,9,2.024,9,2.574V5H1C0.45,5,0,5.45,0,6S0.45,7,1,7z"/>
	<path d="M15,9H7H6H1H0l0.813,0.581l5.373,4.264C6.634,14.164,7,13.976,7,13.426V11h8c0.55,0,1-0.45,1-1S15.55,9,15,9z"/>
</g>
</svg>
