<?xml version="1.0" encoding="utf-8"?>
<!-- Generator: Adobe Illustrator 16.0.0, SVG Export Plug-In . SVG Version: 6.00 Build 0)  -->
<!DOCTYPE svg PUBLIC "-//W3C//DTD SVG 1.1//EN" "http://www.w3.org/Graphics/SVG/1.1/DTD/svg11.dtd">
<svg version="1.1" id="图层_1" xmlns="http://www.w3.org/2000/svg" xmlns:xlink="http://www.w3.org/1999/xlink" x="0px" y="0px"
	 width="96px" height="105px" viewBox="0 0 96 105" enable-background="new 0 0 96 105" xml:space="preserve">
<rect fill="none" width="96" height="105"/>
<g>
	<ellipse fill="#8BC34A" cx="49" cy="95" rx="35" ry="10"/>
	<g>
		<g>
			<path fill="#9CCC65" d="M44.483,40c0,0-3.248-6.093-0.52-10.994c2.729-4.899,9.618-12.582,9.488-19.072
				C53.321,3.443,49.032,0,49.032,0s4.029,5.695-2.079,13.643C40.845,21.589,32.527,29.802,44.483,40z"/>
			<path fill="#9CCC65" d="M50.853,39.603c0,0-4.029-5.828-0.13-10.464c3.898-4.635,11.306-10.859,8.057-16.953
				c0,0,8.058,6.093,0.13,16.026C55.449,32.548,51.502,32.847,50.853,39.603z"/>
		</g>
		<g>
			<path fill="#C5E1A5" d="M65.63,84.394l-0.961-4.875c7.338-1.451,26.378-7.507,26.362-17.952
				c-0.006-2.932-0.773-4.902-2.348-6.025c-3.14-2.238-9.098-0.919-11.129-0.223l-1.625-4.696c0.991-0.343,9.846-3.242,15.624,0.863
				c2.943,2.09,4.439,5.479,4.446,10.074C96.024,78.216,66.872,84.149,65.63,84.394z"/>
		</g>
		<path fill="#D9EAC6" d="M19.6,44.479c-4.037,0-3.606,2.095-3.569,3.109c1.206,34.081,22.099,43.063,22.099,43.063v2.382
			c0,0-0.103,1.967,1.968,1.967c1.609,0,6.01,0,7.903,0V44.479C34.646,44.479,21.388,44.479,19.6,44.479z"/>
		<path fill="#C5E1A5" d="M48.587,95c1.855,0,6.344,0,7.97,0c2.071,0,1.968-1.967,1.968-1.967v-2.382c0,0,20.894-8.981,22.1-43.063
			c0.037-1.015,0.469-3.109-3.569-3.109c-1.816,0-15.483,0-29.055,0V95c0.021,0,0.047,0,0.067,0C48.272,95,48.453,95,48.587,95z"/>
	</g>
</g>
</svg>
