<?xml version="1.0" encoding="utf-8"?>
<!-- Generator: Adobe Illustrator 16.0.0, SVG Export Plug-In . SVG Version: 6.00 Build 0)  -->
<!DOCTYPE svg PUBLIC "-//W3C//DTD SVG 1.1//EN" "http://www.w3.org/Graphics/SVG/1.1/DTD/svg11.dtd">
<svg version="1.1" id="图层_1" xmlns="http://www.w3.org/2000/svg" xmlns:xlink="http://www.w3.org/1999/xlink" x="0px" y="0px"
	 width="16px" height="16px" viewBox="0 0 16 16" enable-background="new 0 0 16 16" xml:space="preserve">
<g>
	<path d="M9.451,3.604v8.728c0,0.342,0.178,0.577,0.534,0.705c0.356,0.086,0.534,0.236,0.534,0.449c0,0.343-0.245,0.514-0.734,0.514
		H6.649c-0.533,0-0.778-0.171-0.733-0.514c0-0.213,0.155-0.363,0.467-0.449c0.4-0.128,0.601-0.363,0.601-0.705V3.604
		c0-0.342-0.29-0.514-0.867-0.514c-0.845,0-1.602,0.321-2.269,0.963c-0.356,0.3-0.623,0.448-0.801,0.448
		c-0.311,0.044-0.444-0.128-0.4-0.514c0-0.171,0.066-0.598,0.2-1.283c0-0.128,0.022-0.213,0.067-0.256C2.957,2.15,3.18,2,3.581,2
		h9.124c0.311,0,0.533,0.15,0.667,0.449c0,0.043,0,0.128,0,0.256c0.178,0.642,0.267,1.071,0.267,1.283
		c0,0.386-0.133,0.558-0.4,0.514c-0.223,0.044-0.511-0.105-0.867-0.448c-0.667-0.642-1.252-0.963-2.052-0.963
		C9.696,3.091,9.407,3.263,9.451,3.604z"/>
</g>
</svg>
