<?xml version="1.0" encoding="utf-8"?>
<!-- Generator: Adobe Illustrator 16.0.0, SVG Export Plug-In . SVG Version: 6.00 Build 0)  -->
<!DOCTYPE svg PUBLIC "-//W3C//DTD SVG 1.1//EN" "http://www.w3.org/Graphics/SVG/1.1/DTD/svg11.dtd">
<svg version="1.1" id="图层_1" xmlns="http://www.w3.org/2000/svg" xmlns:xlink="http://www.w3.org/1999/xlink" x="0px" y="0px"
	 width="16px" height="16px" viewBox="0 0 16 16" enable-background="new 0 0 16 16" xml:space="preserve">
<path fill="none" stroke="#000000" stroke-linecap="round" stroke-linejoin="round" stroke-miterlimit="10" d="M7.417,4.5"/>
<g>
	<path d="M8,1C4.134,1,1,4.135,1,8s3.134,7,7,7c3.865,0,7-3.135,7-7S11.865,1,8,1z M8,13.625c-3.107,0-5.625-2.518-5.625-5.625
		S4.893,2.375,8,2.375c3.106,0,5.625,2.518,5.625,5.625S11.106,13.625,8,13.625z"/>
	<path d="M10.495,8h-2.5V4.5c0-0.276-0.224-0.5-0.5-0.5s-0.5,0.224-0.5,0.5v4c0,0.276,0.224,0.5,0.5,0.5h3
		c0.276,0,0.5-0.224,0.5-0.5S10.771,8,10.495,8z"/>
</g>
</svg>
