<?xml version="1.0" encoding="utf-8"?>
<!-- Generator: Adobe Illustrator 16.0.0, SVG Export Plug-In . SVG Version: 6.00 Build 0)  -->
<!DOCTYPE svg PUBLIC "-//W3C//DTD SVG 1.1//EN" "http://www.w3.org/Graphics/SVG/1.1/DTD/svg11.dtd">
<svg version="1.1" id="图层_1" xmlns="http://www.w3.org/2000/svg" xmlns:xlink="http://www.w3.org/1999/xlink" x="0px" y="0px"
	 width="16px" height="16px" viewBox="0 0 16 16" enable-background="new 0 0 16 16" xml:space="preserve">
<rect opacity="0.5" fill="none" width="16" height="16"/>
<g>
	<path id="XMLID_189_" fill="#345081" d="M6.525,16h6.482l2.845-6.246c0.343-0.754-0.191-1.619-1-1.619h-4.752L6.525,16z"/>
	<path id="XMLID_188_" fill="#8FBDFF" d="M6.569,15.9h6.479l2.846-6.246c0.343-0.753-0.191-1.618-1-1.618h-4.753L6.569,15.9z"/>
	<path id="XMLID_187_" fill="#417FEA" d="M6.569,15.9h6.479l2.804-6.146c0.343-0.754-0.191-1.619-1-1.619h-4.752L6.569,15.9z"/>
	<path id="XMLID_186_" fill="#498AF4" d="M13.049,15.9l2.804-6.146c0.343-0.754-0.191-1.619-1-1.619h-4.752L13.049,15.9z"/>
	<path id="XMLID_185_" fill="#E09E2D" d="M6.611,16L0.13,15.9L7.018,0.837C7.251,0.326,7.751,0,8.3,0h5.58L6.611,16z"/>
	<polygon id="XMLID_184_" fill="#4D4D4D" points="0.13,15.9 6.611,16 10.229,8.036 3.726,8.036 	"/>
	<path id="XMLID_183_" fill="#9F780A" d="M6.523,16H0L6.888,0.937C7.121,0.426,7.621,0.1,8.17,0.1h5.58L6.523,16z"/>
	<path id="XMLID_182_" fill="#FFDA88" d="M6.569,15.9H0.047L6.935,0.837C7.168,0.326,7.668,0,8.216,0h5.664l-0.045,0.1H13.75
		L6.569,15.9z"/>
	<path id="XMLID_181_" fill="#F8BB15" d="M6.569,15.9H0.047L6.888,0.937C7.121,0.426,7.621,0.1,8.17,0.1h5.58L6.569,15.9z"/>
</g>
</svg>
