<?xml version="1.0" encoding="utf-8"?>
<!-- Generator: Adobe Illustrator 16.0.0, SVG Export Plug-In . SVG Version: 6.00 Build 0)  -->
<!DOCTYPE svg PUBLIC "-//W3C//DTD SVG 1.1//EN" "http://www.w3.org/Graphics/SVG/1.1/DTD/svg11.dtd">
<svg version="1.1" id="图层_1" xmlns="http://www.w3.org/2000/svg" xmlns:xlink="http://www.w3.org/1999/xlink" x="0px" y="0px"
	 width="98px" height="20px" viewBox="0 0 98 20" enable-background="new 0 0 98 20" xml:space="preserve">
<g>
	<path d="M8.35,8.478l3.287-8.185h4.929v0.339h-0.393c-0.357,0-0.643,0.064-0.856,0.192c-0.15,0.086-0.269,0.229-0.357,0.43
		C14.894,1.4,14.86,1.782,14.86,2.399v8.184c0,0.635,0.033,1.031,0.099,1.19c0.065,0.158,0.199,0.297,0.402,0.416
		c0.202,0.119,0.472,0.18,0.812,0.18h0.393v0.338h-6.322v-0.338h0.393c0.357,0,0.644-0.065,0.857-0.192
		c0.149-0.086,0.269-0.232,0.358-0.44c0.065-0.146,0.098-0.53,0.098-1.153v-9.2L7.305,12.707H7.09L2.375,1.465v8.743
		c0,0.609,0.015,0.985,0.044,1.125c0.077,0.306,0.246,0.555,0.506,0.747c0.258,0.191,0.665,0.289,1.219,0.289v0.338H0v-0.338h0.124
		c0.269,0.006,0.519-0.039,0.75-0.134c0.233-0.094,0.408-0.221,0.527-0.38c0.119-0.158,0.211-0.381,0.277-0.668
		c0.012-0.066,0.018-0.378,0.018-0.935V2.399c0-0.63-0.033-1.021-0.098-1.178c-0.066-0.154-0.2-0.292-0.402-0.41
		c-0.203-0.12-0.474-0.18-0.813-0.18H0V0.293h4.947L8.35,8.478z"/>
	<path d="M24.587,8.121h-4.582c0.054,1.135,0.349,2.032,0.884,2.69c0.411,0.508,0.905,0.761,1.483,0.761
		c0.356,0,0.682-0.103,0.974-0.307c0.291-0.205,0.604-0.572,0.938-1.104l0.304,0.201c-0.453,0.945-0.953,1.616-1.501,2.01
		c-0.547,0.394-1.182,0.591-1.902,0.591c-1.238,0-2.176-0.488-2.813-1.465c-0.512-0.787-0.768-1.764-0.768-2.931
		c0-1.428,0.377-2.563,1.13-3.409c0.753-0.845,1.636-1.268,2.647-1.268c0.846,0,1.579,0.355,2.201,1.066
		C24.204,5.669,24.538,6.724,24.587,8.121z M22.39,7.507c0-0.981-0.053-1.657-0.157-2.023c-0.104-0.366-0.266-0.643-0.486-0.833
		c-0.125-0.109-0.291-0.164-0.5-0.164c-0.31,0-0.563,0.156-0.759,0.468c-0.353,0.542-0.527,1.287-0.527,2.232v0.32H22.39z"/>
	<path d="M33.75,0.293v9.851c0,0.666,0.018,1.06,0.053,1.182c0.049,0.201,0.14,0.351,0.272,0.448
		c0.134,0.098,0.368,0.158,0.701,0.183v0.303l-3.527,0.705v-1.355c-0.423,0.526-0.8,0.882-1.13,1.072
		c-0.331,0.188-0.704,0.283-1.121,0.283c-1.065,0-1.908-0.488-2.526-1.465c-0.502-0.793-0.751-1.768-0.751-2.921
		c0-0.921,0.154-1.747,0.465-2.476c0.31-0.73,0.733-1.28,1.272-1.652s1.117-0.559,1.736-0.559c0.399,0,0.754,0.079,1.063,0.237
		c0.31,0.159,0.64,0.437,0.991,0.833V2.381c0-0.653-0.027-1.047-0.08-1.182c-0.072-0.176-0.179-0.308-0.322-0.394
		c-0.143-0.086-0.41-0.128-0.804-0.128V0.293H33.75z M31.249,6.098c-0.44-0.867-0.979-1.3-1.616-1.3
		c-0.222,0-0.403,0.061-0.545,0.182c-0.221,0.19-0.4,0.522-0.541,1c-0.14,0.475-0.21,1.204-0.21,2.188
		c0,1.079,0.078,1.88,0.232,2.397c0.155,0.519,0.366,0.895,0.635,1.127c0.137,0.115,0.324,0.174,0.563,0.174
		c0.524,0,1.019-0.421,1.482-1.265V6.098z"/>
	<path d="M39.063,4.147v6.783c0,0.604,0.068,0.991,0.205,1.158c0.138,0.169,0.405,0.264,0.805,0.289v0.329h-4.511v-0.329
		c0.368-0.012,0.643-0.122,0.821-0.331c0.119-0.139,0.179-0.512,0.179-1.116V5.933c0-0.604-0.068-0.99-0.205-1.159
		c-0.138-0.167-0.402-0.263-0.795-0.287V4.147H39.063z M37.813,0c0.387,0,0.715,0.14,0.982,0.417
		c0.268,0.276,0.401,0.612,0.401,1.002c0,0.392-0.135,0.723-0.406,0.998s-0.597,0.412-0.978,0.412s-0.706-0.137-0.974-0.412
		c-0.269-0.275-0.401-0.606-0.401-0.998c0-0.39,0.133-0.726,0.401-1.002C37.107,0.14,37.433,0,37.813,0z"/>
	<path d="M45.493,11.444c-1.018,0.922-1.932,1.382-2.74,1.382c-0.478,0-0.873-0.16-1.188-0.481c-0.315-0.319-0.474-0.72-0.474-1.203
		c0-0.652,0.274-1.24,0.821-1.763c0.549-0.521,1.742-1.215,3.581-2.083V6.437c0-0.647-0.033-1.054-0.103-1.223
		c-0.067-0.167-0.197-0.314-0.389-0.44c-0.189-0.124-0.404-0.186-0.642-0.186c-0.389,0-0.706,0.088-0.956,0.265
		c-0.155,0.109-0.232,0.238-0.232,0.384c0,0.129,0.083,0.288,0.25,0.476c0.227,0.264,0.339,0.517,0.339,0.761
		c0,0.3-0.108,0.555-0.325,0.765s-0.502,0.315-0.854,0.315c-0.375,0-0.688-0.115-0.942-0.348c-0.253-0.231-0.379-0.504-0.379-0.815
		c0-0.438,0.17-0.857,0.509-1.258c0.34-0.4,0.813-0.706,1.42-0.921c0.607-0.213,1.238-0.319,1.894-0.319
		c0.791,0,1.419,0.172,1.881,0.517c0.461,0.345,0.76,0.72,0.896,1.122c0.084,0.257,0.125,0.846,0.125,1.766v3.323
		c0,0.392,0.015,0.638,0.045,0.737c0.03,0.102,0.074,0.176,0.134,0.225c0.06,0.05,0.128,0.074,0.205,0.074
		c0.155,0,0.313-0.113,0.474-0.34l0.268,0.22c-0.298,0.451-0.605,0.779-0.925,0.984c-0.318,0.204-0.68,0.307-1.084,0.307
		c-0.478,0-0.849-0.114-1.117-0.344C45.718,12.254,45.553,11.908,45.493,11.444z M45.493,10.775V7.911
		c-0.72,0.433-1.256,0.896-1.606,1.392c-0.232,0.328-0.349,0.661-0.349,0.997c0,0.281,0.099,0.527,0.294,0.741
		c0.15,0.165,0.357,0.248,0.626,0.248C44.756,11.289,45.101,11.117,45.493,10.775z"/>
	<path d="M58.006,0.009l0.099,4.139h-0.366c-0.172-1.038-0.597-1.872-1.272-2.504s-1.407-0.947-2.193-0.947
		c-0.606,0-1.087,0.165-1.441,0.499c-0.354,0.332-0.532,0.715-0.532,1.149c0,0.273,0.063,0.518,0.188,0.731
		c0.173,0.288,0.45,0.57,0.831,0.852c0.28,0.201,0.926,0.559,1.938,1.07c1.417,0.714,2.373,1.39,2.867,2.023
		c0.488,0.636,0.732,1.361,0.732,2.18c0,1.038-0.395,1.93-1.183,2.677C56.882,12.626,55.881,13,54.666,13
		c-0.382,0-0.741-0.039-1.08-0.119c-0.34-0.079-0.766-0.229-1.276-0.448c-0.286-0.122-0.522-0.183-0.707-0.183
		c-0.154,0-0.318,0.061-0.491,0.183s-0.312,0.309-0.419,0.559h-0.331V8.304h0.331c0.261,1.318,0.767,2.323,1.513,3.017
		c0.747,0.692,1.553,1.038,2.417,1.038c0.666,0,1.197-0.186,1.594-0.558c0.396-0.372,0.595-0.806,0.595-1.3
		c0-0.293-0.077-0.577-0.229-0.852c-0.151-0.274-0.383-0.535-0.691-0.783C55.581,8.62,55.032,8.297,54.247,7.9
		c-1.103-0.555-1.895-1.028-2.376-1.419c-0.482-0.39-0.854-0.826-1.112-1.31C50.5,4.69,50.37,4.16,50.37,3.58
		c0-0.989,0.354-1.83,1.063-2.526c0.709-0.695,1.603-1.045,2.68-1.045c0.394,0,0.774,0.05,1.143,0.146
		c0.28,0.073,0.622,0.21,1.023,0.408c0.401,0.199,0.684,0.297,0.844,0.297c0.155,0,0.277-0.048,0.367-0.146
		c0.089-0.097,0.171-0.332,0.249-0.705H58.006z"/>
	<path d="M63.669,4.147v1.126c0.458-0.513,0.882-0.871,1.272-1.076c0.39-0.204,0.817-0.306,1.281-0.306
		c0.536,0,0.985,0.128,1.349,0.385c0.363,0.256,0.643,0.646,0.84,1.171c0.476-0.549,0.934-0.946,1.37-1.189
		c0.438-0.245,0.895-0.366,1.371-0.366c0.578,0,1.037,0.136,1.381,0.406c0.341,0.272,0.58,0.617,0.714,1.035
		c0.135,0.418,0.2,1.085,0.2,2v3.507c0,0.659,0.059,1.068,0.175,1.226c0.116,0.16,0.358,0.263,0.729,0.313v0.329h-4.314v-0.329
		c0.34-0.031,0.59-0.165,0.751-0.403c0.106-0.164,0.159-0.542,0.159-1.135V7.159c0-0.764-0.029-1.249-0.089-1.455
		c-0.059-0.208-0.153-0.362-0.281-0.463s-0.278-0.15-0.45-0.15c-0.257,0-0.516,0.096-0.777,0.287
		c-0.262,0.192-0.527,0.481-0.795,0.866v4.596c0,0.617,0.051,1.003,0.152,1.163c0.137,0.226,0.398,0.35,0.785,0.375v0.329h-4.322
		v-0.329c0.231-0.012,0.415-0.071,0.55-0.179c0.133-0.106,0.223-0.234,0.268-0.385c0.045-0.149,0.066-0.476,0.066-0.975V7.159
		c0-0.775-0.029-1.261-0.089-1.455c-0.06-0.195-0.159-0.348-0.3-0.458c-0.139-0.11-0.29-0.165-0.451-0.165
		c-0.237,0-0.454,0.064-0.65,0.192c-0.281,0.188-0.578,0.514-0.894,0.971v4.596c0,0.604,0.058,1.002,0.174,1.194
		s0.359,0.307,0.729,0.344v0.329h-4.306v-0.329c0.351-0.037,0.602-0.152,0.751-0.349c0.102-0.134,0.151-0.53,0.151-1.189V6.006
		c0-0.647-0.058-1.05-0.175-1.208c-0.115-0.16-0.358-0.263-0.728-0.312V4.147H63.669z"/>
	<path d="M80.048,11.444c-1.019,0.922-1.933,1.382-2.741,1.382c-0.477,0-0.872-0.16-1.188-0.481
		c-0.315-0.319-0.474-0.72-0.474-1.203c0-0.652,0.274-1.24,0.822-1.763c0.548-0.521,1.741-1.215,3.581-2.083V6.437
		c0-0.647-0.034-1.054-0.104-1.223c-0.067-0.167-0.197-0.314-0.388-0.44c-0.19-0.124-0.405-0.186-0.643-0.186
		c-0.387,0-0.706,0.088-0.955,0.265c-0.155,0.109-0.232,0.238-0.232,0.384c0,0.129,0.083,0.288,0.25,0.476
		c0.226,0.264,0.338,0.517,0.338,0.761c0,0.3-0.108,0.555-0.325,0.765s-0.501,0.315-0.853,0.315c-0.375,0-0.689-0.115-0.942-0.348
		c-0.253-0.231-0.38-0.504-0.38-0.815c0-0.438,0.17-0.857,0.51-1.258c0.339-0.4,0.813-0.706,1.42-0.921
		c0.606-0.213,1.237-0.319,1.893-0.319c0.792,0,1.419,0.172,1.881,0.517s0.76,0.72,0.897,1.122c0.083,0.257,0.124,0.846,0.124,1.766
		v3.323c0,0.392,0.016,0.638,0.046,0.737c0.029,0.102,0.074,0.176,0.133,0.225c0.061,0.05,0.129,0.074,0.206,0.074
		c0.154,0,0.313-0.113,0.473-0.34l0.268,0.22c-0.297,0.451-0.604,0.779-0.923,0.984c-0.319,0.204-0.682,0.307-1.086,0.307
		c-0.477,0-0.849-0.114-1.116-0.344C80.271,12.254,80.107,11.908,80.048,11.444z M80.048,10.775V7.911
		c-0.721,0.433-1.257,0.896-1.606,1.392c-0.233,0.328-0.35,0.661-0.35,0.997c0,0.281,0.099,0.527,0.295,0.741
		c0.149,0.165,0.357,0.248,0.625,0.248C79.31,11.289,79.654,11.117,80.048,10.775z"/>
	<path d="M88.051,4.147v1.94c0.553-0.886,1.038-1.472,1.455-1.762c0.418-0.291,0.818-0.435,1.206-0.435
		c0.333,0,0.6,0.105,0.799,0.315c0.2,0.211,0.299,0.508,0.299,0.893c0,0.409-0.097,0.726-0.29,0.952
		c-0.193,0.226-0.427,0.338-0.7,0.338c-0.315,0-0.59-0.104-0.822-0.311c-0.231-0.207-0.369-0.323-0.411-0.349
		c-0.06-0.036-0.127-0.055-0.205-0.055c-0.172,0-0.337,0.067-0.491,0.202c-0.244,0.207-0.429,0.504-0.554,0.888
		c-0.19,0.592-0.285,1.244-0.285,1.959v1.969l0.008,0.513c0,0.348,0.021,0.57,0.063,0.667c0.071,0.166,0.178,0.286,0.316,0.362
		c0.141,0.077,0.377,0.123,0.71,0.143v0.329h-4.51v-0.329c0.363-0.031,0.608-0.133,0.736-0.308c0.128-0.173,0.192-0.632,0.192-1.377
		V5.96c0-0.488-0.023-0.8-0.071-0.934c-0.06-0.171-0.146-0.296-0.259-0.376c-0.113-0.079-0.313-0.134-0.599-0.164V4.147H88.051z"/>
	<path d="M96.017,1.017v3.131H98v0.906h-1.983v5.282c0,0.495,0.022,0.813,0.067,0.957c0.044,0.144,0.123,0.259,0.236,0.348
		s0.218,0.133,0.313,0.133c0.387,0,0.754-0.303,1.099-0.906L98,11.068c-0.482,1.172-1.266,1.758-2.351,1.758
		c-0.528,0-0.977-0.15-1.344-0.453c-0.365-0.303-0.6-0.64-0.7-1.012c-0.061-0.207-0.09-0.769-0.09-1.685V5.054h-1.09v-0.32
		c0.752-0.543,1.389-1.113,1.916-1.712c0.526-0.599,0.987-1.266,1.38-2.005H96.017z"/>
</g>
<g>
	<path d="M0.5,18.792v-0.101h0.122c0.104,0,0.187-0.018,0.242-0.052c0.058-0.033,0.098-0.078,0.125-0.138
		c0.016-0.038,0.025-0.153,0.025-0.344v-2.437c0-0.19-0.011-0.308-0.03-0.356c-0.021-0.047-0.06-0.088-0.12-0.123
		c-0.061-0.036-0.141-0.054-0.242-0.054H0.5v-0.101h1.632c0.435,0,0.784,0.06,1.051,0.18c0.323,0.147,0.57,0.371,0.737,0.67
		c0.168,0.299,0.251,0.636,0.251,1.013c0,0.261-0.041,0.501-0.123,0.721c-0.084,0.218-0.188,0.4-0.32,0.543
		c-0.131,0.143-0.281,0.258-0.452,0.345s-0.38,0.153-0.628,0.2c-0.11,0.022-0.281,0.033-0.516,0.033H0.5z M1.89,15.298v2.89
		c0,0.153,0.007,0.248,0.021,0.281c0.014,0.035,0.039,0.062,0.071,0.08c0.051,0.027,0.119,0.041,0.21,0.041
		c0.301,0,0.529-0.104,0.687-0.312c0.215-0.281,0.322-0.716,0.322-1.306c0-0.476-0.074-0.856-0.221-1.14
		c-0.116-0.222-0.266-0.373-0.448-0.454C2.403,15.323,2.188,15.296,1.89,15.298z"/>
	<path d="M6.715,17.424H5.337c0.018,0.338,0.105,0.605,0.267,0.804c0.124,0.15,0.272,0.226,0.446,0.226
		c0.106,0,0.205-0.03,0.292-0.091c0.089-0.062,0.183-0.172,0.282-0.33l0.091,0.061c-0.135,0.282-0.286,0.482-0.45,0.6
		c-0.165,0.116-0.355,0.177-0.572,0.177c-0.373,0-0.655-0.146-0.847-0.438c-0.153-0.236-0.23-0.526-0.23-0.875
		c0-0.426,0.112-0.765,0.339-1.018c0.227-0.252,0.493-0.378,0.798-0.378c0.254,0,0.475,0.105,0.662,0.318
		C6.602,16.691,6.702,17.007,6.715,17.424z M6.055,17.24c0-0.294-0.015-0.495-0.047-0.604c-0.031-0.108-0.079-0.191-0.146-0.248
		c-0.037-0.033-0.088-0.049-0.15-0.049c-0.093,0-0.169,0.046-0.229,0.139c-0.104,0.162-0.158,0.386-0.158,0.667v0.096H6.055z"/>
	<path d="M8.619,16.166l0.04,0.872H8.567c-0.108-0.26-0.223-0.436-0.341-0.53c-0.116-0.095-0.233-0.142-0.35-0.142
		c-0.073,0-0.136,0.025-0.188,0.074c-0.051,0.052-0.078,0.108-0.078,0.174c0,0.049,0.019,0.097,0.054,0.142
		c0.059,0.075,0.219,0.204,0.481,0.385c0.264,0.181,0.438,0.336,0.521,0.462S8.79,17.87,8.79,18.026
		c0,0.143-0.034,0.281-0.104,0.419c-0.07,0.136-0.169,0.242-0.295,0.313c-0.128,0.073-0.268,0.11-0.423,0.11
		c-0.12,0-0.28-0.038-0.481-0.115c-0.053-0.02-0.09-0.029-0.109-0.029c-0.059,0-0.107,0.045-0.147,0.136H7.141l-0.043-0.918h0.091
		c0.082,0.24,0.191,0.421,0.333,0.54c0.14,0.121,0.272,0.181,0.398,0.181c0.087,0,0.156-0.027,0.21-0.08
		c0.056-0.053,0.084-0.119,0.084-0.195c0-0.088-0.028-0.163-0.082-0.228C8.078,18.098,7.958,18,7.772,17.871
		c-0.274-0.192-0.452-0.34-0.532-0.441c-0.119-0.149-0.178-0.314-0.178-0.496c0-0.196,0.067-0.374,0.201-0.534
		c0.132-0.159,0.325-0.238,0.578-0.238c0.136,0,0.269,0.034,0.395,0.101c0.049,0.027,0.089,0.041,0.118,0.041
		c0.033,0,0.059-0.008,0.078-0.021c0.021-0.013,0.052-0.051,0.095-0.115H8.619z"/>
	<path d="M10.153,16.237v2.025c0,0.179,0.021,0.295,0.061,0.345c0.042,0.05,0.122,0.08,0.243,0.086v0.099H9.1v-0.099
		c0.111-0.003,0.193-0.036,0.247-0.099C9.383,18.554,9.4,18.441,9.4,18.263V16.77c0-0.18-0.021-0.296-0.062-0.345
		c-0.041-0.05-0.121-0.078-0.239-0.086v-0.102H10.153z M9.776,15c0.117,0,0.216,0.041,0.296,0.124
		c0.081,0.082,0.121,0.183,0.121,0.299s-0.041,0.216-0.122,0.299c-0.081,0.082-0.18,0.122-0.295,0.122
		c-0.114,0-0.212-0.04-0.293-0.122c-0.08-0.083-0.12-0.183-0.12-0.299s0.04-0.217,0.12-0.299C9.564,15.041,9.662,15,9.776,15z"/>
	<path d="M12.313,16.268h0.847v0.301h-0.481c0.088,0.089,0.149,0.169,0.183,0.243c0.044,0.098,0.065,0.201,0.065,0.309
		c0,0.182-0.051,0.341-0.149,0.475c-0.101,0.133-0.235,0.237-0.405,0.313c-0.173,0.075-0.324,0.113-0.456,0.113
		c-0.011,0-0.118-0.005-0.322-0.014c-0.081,0-0.149,0.026-0.204,0.081c-0.054,0.054-0.081,0.117-0.081,0.191
		c0,0.066,0.025,0.12,0.073,0.161c0.05,0.043,0.13,0.063,0.242,0.063l0.464-0.005c0.377,0,0.635,0.043,0.776,0.126
		c0.202,0.117,0.304,0.296,0.304,0.539c0,0.154-0.047,0.296-0.14,0.421c-0.093,0.128-0.216,0.221-0.368,0.281
		C12.429,19.955,12.163,20,11.861,20c-0.225,0-0.431-0.022-0.616-0.067c-0.188-0.045-0.321-0.107-0.401-0.187
		c-0.08-0.078-0.121-0.163-0.121-0.249c0-0.085,0.031-0.159,0.093-0.227c0.062-0.066,0.177-0.121,0.345-0.167
		c-0.232-0.116-0.349-0.279-0.349-0.486c0-0.126,0.048-0.248,0.143-0.366s0.245-0.222,0.451-0.309
		c-0.24-0.09-0.414-0.206-0.522-0.352c-0.105-0.146-0.16-0.314-0.16-0.507c0-0.249,0.101-0.466,0.302-0.649
		c0.199-0.183,0.458-0.273,0.773-0.273C11.964,16.161,12.136,16.197,12.313,16.268z M11.689,19.169
		c-0.182,0-0.304,0.016-0.362,0.047c-0.102,0.056-0.153,0.132-0.153,0.229c0,0.094,0.054,0.179,0.159,0.253
		c0.105,0.077,0.304,0.114,0.596,0.114c0.25,0,0.445-0.033,0.588-0.103c0.143-0.066,0.214-0.161,0.214-0.284
		c0-0.045-0.014-0.082-0.041-0.113c-0.048-0.055-0.12-0.093-0.219-0.113C12.373,19.18,12.112,19.169,11.689,19.169z M11.848,16.331
		c-0.104,0-0.191,0.053-0.263,0.159s-0.107,0.328-0.107,0.662c0,0.271,0.036,0.458,0.106,0.56c0.07,0.101,0.154,0.151,0.25,0.151
		c0.108,0,0.198-0.051,0.27-0.151c0.073-0.1,0.107-0.295,0.107-0.584c0-0.325-0.04-0.549-0.12-0.666
		C12.033,16.374,11.952,16.331,11.848,16.331z"/>
	<path d="M14.479,16.237v0.331c0.129-0.143,0.253-0.246,0.371-0.311s0.245-0.097,0.381-0.097c0.164,0,0.299,0.046,0.406,0.138
		c0.107,0.093,0.179,0.206,0.216,0.344c0.029,0.103,0.042,0.303,0.042,0.598v0.995c0,0.196,0.018,0.318,0.053,0.367
		c0.035,0.048,0.108,0.079,0.219,0.091v0.099h-1.271v-0.099c0.095-0.012,0.162-0.053,0.204-0.12
		c0.028-0.045,0.042-0.158,0.042-0.338v-1.138c0-0.209-0.008-0.342-0.022-0.396c-0.017-0.055-0.045-0.098-0.082-0.128
		c-0.039-0.029-0.082-0.045-0.128-0.045c-0.154,0-0.298,0.113-0.431,0.337v1.369c0,0.19,0.018,0.313,0.053,0.363
		c0.036,0.051,0.1,0.083,0.194,0.095v0.099h-1.271v-0.099c0.105-0.01,0.181-0.046,0.226-0.104c0.031-0.04,0.045-0.158,0.045-0.354
		v-1.443c0-0.193-0.017-0.313-0.052-0.361c-0.035-0.047-0.108-0.078-0.219-0.092v-0.102H14.479z"/>
	<path d="M18.642,17.424h-1.379c0.018,0.338,0.105,0.605,0.267,0.804c0.124,0.15,0.271,0.226,0.446,0.226
		c0.106,0,0.204-0.03,0.292-0.091c0.088-0.062,0.183-0.172,0.282-0.33l0.092,0.061c-0.136,0.282-0.286,0.482-0.451,0.6
		c-0.165,0.116-0.355,0.177-0.572,0.177c-0.373,0-0.655-0.146-0.847-0.438c-0.154-0.236-0.23-0.526-0.23-0.875
		c0-0.426,0.112-0.765,0.339-1.018c0.228-0.252,0.493-0.378,0.798-0.378c0.254,0,0.475,0.105,0.662,0.318
		C18.527,16.691,18.628,17.007,18.642,17.424z M17.98,17.24c0-0.294-0.015-0.495-0.047-0.604c-0.031-0.108-0.079-0.191-0.146-0.248
		c-0.037-0.033-0.088-0.049-0.15-0.049c-0.093,0-0.169,0.046-0.229,0.139c-0.104,0.162-0.158,0.386-0.158,0.667v0.096H17.98z"/>
	<path d="M21.399,15.088v2.938c0,0.199,0.005,0.316,0.016,0.354c0.015,0.06,0.043,0.104,0.082,0.133
		c0.04,0.03,0.111,0.049,0.212,0.055v0.09l-1.063,0.212v-0.405c-0.127,0.156-0.24,0.264-0.339,0.319
		c-0.1,0.058-0.213,0.086-0.338,0.086c-0.32,0-0.573-0.146-0.761-0.438c-0.15-0.238-0.226-0.527-0.226-0.872
		c0-0.274,0.046-0.521,0.14-0.738c0.093-0.219,0.222-0.383,0.383-0.494c0.163-0.11,0.337-0.166,0.523-0.166
		c0.12,0,0.226,0.024,0.319,0.071c0.093,0.047,0.192,0.13,0.298,0.248v-0.77c0-0.196-0.008-0.313-0.023-0.354
		c-0.021-0.053-0.055-0.092-0.097-0.117c-0.043-0.026-0.124-0.038-0.242-0.038v-0.114H21.399z M20.646,16.82
		c-0.132-0.26-0.295-0.39-0.486-0.39c-0.066,0-0.121,0.019-0.163,0.056c-0.066,0.057-0.121,0.156-0.163,0.297
		c-0.043,0.143-0.063,0.361-0.063,0.654c0,0.322,0.022,0.56,0.069,0.715s0.11,0.268,0.19,0.336c0.041,0.036,0.099,0.053,0.17,0.053
		c0.156,0,0.307-0.126,0.445-0.378V16.82z"/>
	<path d="M24.365,15.088v1.407c0.213-0.224,0.442-0.334,0.694-0.334c0.172,0,0.333,0.052,0.486,0.153
		c0.151,0.104,0.271,0.25,0.357,0.438c0.086,0.19,0.128,0.409,0.128,0.656c0,0.279-0.054,0.532-0.163,0.76s-0.256,0.402-0.438,0.521
		c-0.184,0.119-0.393,0.18-0.627,0.18c-0.136,0-0.257-0.022-0.363-0.066c-0.105-0.044-0.209-0.114-0.311-0.213l-0.417,0.276h-0.092
		v-3.249c0-0.147-0.006-0.238-0.018-0.273c-0.02-0.051-0.046-0.088-0.085-0.113c-0.04-0.024-0.104-0.039-0.195-0.042v-0.101H24.365z
		 M24.365,16.737v1.137c0,0.231,0.006,0.379,0.017,0.442c0.019,0.107,0.061,0.194,0.13,0.261c0.068,0.066,0.155,0.101,0.261,0.101
		c0.091,0,0.169-0.027,0.234-0.079c0.065-0.053,0.12-0.158,0.164-0.315c0.044-0.156,0.066-0.438,0.066-0.846
		c0-0.393-0.049-0.661-0.146-0.807c-0.07-0.105-0.165-0.159-0.283-0.159C24.655,16.472,24.508,16.561,24.365,16.737z"/>
	<path d="M27.607,18.896l-0.813-1.893c-0.121-0.286-0.211-0.462-0.271-0.528c-0.058-0.065-0.127-0.11-0.21-0.136v-0.102h1.335v0.102
		c-0.088,0.004-0.149,0.021-0.186,0.052c-0.035,0.03-0.053,0.067-0.053,0.111c0,0.07,0.044,0.206,0.134,0.41l0.43,1l0.293-0.773
		c0.106-0.274,0.159-0.466,0.159-0.572c0-0.068-0.022-0.122-0.065-0.162c-0.045-0.04-0.122-0.062-0.233-0.065v-0.102h0.842v0.102
		c-0.083,0.009-0.15,0.041-0.201,0.096c-0.054,0.058-0.14,0.246-0.262,0.568l-0.717,1.893c-0.181,0.474-0.316,0.765-0.403,0.875
		C27.263,19.924,27.107,20,26.921,20c-0.147,0-0.269-0.043-0.361-0.13c-0.092-0.087-0.138-0.191-0.138-0.313
		c0-0.105,0.031-0.193,0.095-0.263c0.064-0.068,0.143-0.104,0.235-0.104c0.09,0,0.162,0.029,0.218,0.087
		c0.054,0.06,0.082,0.148,0.083,0.271c0.003,0.069,0.011,0.113,0.024,0.134c0.015,0.021,0.035,0.03,0.063,0.03
		c0.042,0,0.089-0.027,0.137-0.079c0.072-0.077,0.155-0.252,0.253-0.524L27.607,18.896z"/>
	<path d="M30.469,18.792v-0.101h0.121c0.104,0,0.186-0.018,0.243-0.052c0.057-0.033,0.098-0.078,0.124-0.138
		c0.017-0.038,0.024-0.153,0.024-0.344v-2.437c0-0.19-0.01-0.308-0.029-0.356c-0.02-0.047-0.06-0.088-0.119-0.123
		c-0.062-0.036-0.142-0.054-0.243-0.054h-0.121v-0.101H32.1c0.436,0,0.785,0.06,1.051,0.18c0.324,0.147,0.569,0.371,0.738,0.67
		c0.168,0.299,0.251,0.636,0.251,1.013c0,0.261-0.042,0.501-0.124,0.721c-0.082,0.218-0.189,0.4-0.319,0.543
		c-0.131,0.143-0.281,0.258-0.453,0.345c-0.171,0.087-0.38,0.153-0.627,0.2c-0.11,0.022-0.281,0.033-0.517,0.033H30.469z
		 M31.858,15.298v2.89c0,0.153,0.007,0.248,0.021,0.281c0.014,0.035,0.038,0.062,0.072,0.08c0.048,0.027,0.118,0.041,0.21,0.041
		c0.3,0,0.527-0.104,0.685-0.312c0.215-0.281,0.323-0.716,0.323-1.306c0-0.476-0.074-0.856-0.222-1.14
		c-0.115-0.222-0.266-0.373-0.448-0.454C32.372,15.323,32.157,15.296,31.858,15.298z"/>
	<path d="M35.943,18.415c-0.308,0.275-0.582,0.411-0.825,0.411c-0.144,0-0.264-0.047-0.358-0.143
		c-0.095-0.095-0.142-0.215-0.142-0.358c0-0.195,0.082-0.371,0.246-0.526c0.166-0.155,0.525-0.363,1.079-0.621V16.92
		c0-0.192-0.011-0.314-0.031-0.363c-0.021-0.051-0.06-0.095-0.118-0.132c-0.056-0.037-0.12-0.057-0.192-0.057
		c-0.116,0-0.212,0.027-0.289,0.08c-0.045,0.032-0.068,0.071-0.068,0.114c0,0.038,0.024,0.087,0.074,0.143
		c0.068,0.077,0.103,0.153,0.103,0.227c0,0.089-0.032,0.165-0.099,0.229c-0.064,0.063-0.15,0.094-0.256,0.094
		c-0.113,0-0.208-0.035-0.283-0.104c-0.076-0.069-0.114-0.15-0.114-0.244c0-0.131,0.052-0.256,0.153-0.375
		c0.103-0.119,0.244-0.211,0.427-0.274c0.184-0.063,0.373-0.096,0.57-0.096c0.238,0,0.427,0.052,0.565,0.153
		c0.139,0.104,0.229,0.215,0.27,0.336c0.025,0.076,0.039,0.252,0.039,0.527v0.991c0,0.116,0.004,0.189,0.014,0.22
		c0.008,0.03,0.021,0.053,0.039,0.066c0.019,0.016,0.038,0.022,0.063,0.022c0.046,0,0.094-0.034,0.142-0.101l0.081,0.064
		c-0.09,0.136-0.184,0.234-0.278,0.295c-0.096,0.061-0.205,0.09-0.326,0.09c-0.144,0-0.256-0.033-0.337-0.102
		C36.01,18.655,35.961,18.554,35.943,18.415z M35.943,18.216V17.36c-0.218,0.13-0.378,0.268-0.484,0.415
		c-0.069,0.099-0.104,0.197-0.104,0.299c0,0.083,0.029,0.157,0.088,0.22c0.045,0.049,0.108,0.075,0.188,0.075
		C35.721,18.369,35.824,18.317,35.943,18.216z"/>
	<path d="M38.306,15.303v0.935h0.596v0.271h-0.596v1.576c0,0.148,0.007,0.243,0.021,0.286c0.013,0.043,0.036,0.077,0.07,0.104
		c0.035,0.026,0.065,0.039,0.095,0.039c0.116,0,0.227-0.09,0.33-0.27l0.08,0.06c-0.146,0.35-0.38,0.523-0.706,0.523
		c-0.16,0-0.294-0.044-0.405-0.134c-0.11-0.09-0.181-0.191-0.211-0.302c-0.017-0.063-0.025-0.23-0.025-0.504v-1.379h-0.329v-0.096
		c0.227-0.162,0.418-0.332,0.576-0.511c0.159-0.178,0.297-0.379,0.416-0.599H38.306z"/>
	<path d="M40.526,18.415c-0.306,0.275-0.58,0.411-0.825,0.411c-0.143,0-0.261-0.047-0.356-0.143
		c-0.096-0.095-0.143-0.215-0.143-0.358c0-0.195,0.084-0.371,0.248-0.526s0.523-0.363,1.076-0.621V16.92
		c0-0.192-0.009-0.314-0.03-0.363c-0.021-0.051-0.06-0.095-0.117-0.132c-0.057-0.037-0.121-0.057-0.192-0.057
		c-0.117,0-0.213,0.027-0.288,0.08c-0.046,0.032-0.069,0.071-0.069,0.114c0,0.038,0.025,0.087,0.074,0.143
		c0.068,0.077,0.103,0.153,0.103,0.227c0,0.089-0.032,0.165-0.099,0.229c-0.064,0.063-0.15,0.094-0.256,0.094
		c-0.113,0-0.207-0.035-0.283-0.104c-0.077-0.069-0.115-0.15-0.115-0.244c0-0.131,0.052-0.256,0.153-0.375
		c0.103-0.119,0.245-0.211,0.428-0.274s0.373-0.096,0.569-0.096c0.239,0,0.427,0.052,0.566,0.153
		c0.139,0.104,0.229,0.215,0.271,0.336c0.024,0.076,0.037,0.252,0.037,0.527v0.991c0,0.116,0.004,0.189,0.013,0.22
		s0.022,0.053,0.041,0.066c0.018,0.016,0.038,0.022,0.062,0.022c0.047,0,0.094-0.034,0.143-0.101l0.08,0.064
		c-0.089,0.136-0.182,0.234-0.278,0.295c-0.095,0.061-0.205,0.09-0.326,0.09c-0.144,0-0.256-0.033-0.336-0.102
		C40.595,18.655,40.545,18.554,40.526,18.415z M40.526,18.216V17.36c-0.216,0.13-0.377,0.268-0.482,0.415
		c-0.07,0.099-0.104,0.197-0.104,0.299c0,0.083,0.028,0.157,0.088,0.22c0.044,0.049,0.108,0.075,0.188,0.075
		C40.305,18.369,40.409,18.317,40.526,18.216z"/>
	<path d="M45.668,15.002l0.03,1.235h-0.11c-0.052-0.31-0.18-0.56-0.384-0.747c-0.204-0.188-0.423-0.283-0.66-0.283
		c-0.182,0-0.327,0.051-0.433,0.148c-0.107,0.101-0.161,0.215-0.161,0.344c0,0.082,0.02,0.155,0.058,0.219
		c0.051,0.086,0.134,0.17,0.249,0.253c0.084,0.062,0.278,0.168,0.583,0.321c0.427,0.213,0.714,0.413,0.862,0.603
		c0.146,0.19,0.22,0.407,0.22,0.651c0,0.31-0.117,0.575-0.355,0.799c-0.236,0.223-0.538,0.335-0.903,0.335
		c-0.115,0-0.224-0.012-0.326-0.035c-0.102-0.024-0.229-0.069-0.385-0.134c-0.085-0.037-0.155-0.057-0.21-0.057
		c-0.048,0-0.097,0.02-0.149,0.057c-0.051,0.035-0.094,0.091-0.126,0.166h-0.1v-1.398h0.1c0.079,0.393,0.23,0.693,0.456,0.9
		c0.225,0.206,0.467,0.31,0.727,0.31c0.2,0,0.36-0.057,0.479-0.167c0.119-0.111,0.179-0.241,0.179-0.389
		c0-0.087-0.022-0.171-0.068-0.254c-0.046-0.081-0.115-0.159-0.208-0.233c-0.093-0.073-0.258-0.169-0.495-0.288
		c-0.33-0.166-0.57-0.308-0.715-0.424c-0.146-0.115-0.257-0.246-0.335-0.391c-0.077-0.144-0.116-0.302-0.116-0.475
		c0-0.296,0.106-0.548,0.319-0.754c0.214-0.208,0.481-0.313,0.808-0.313c0.117,0,0.232,0.016,0.343,0.044
		c0.085,0.022,0.188,0.063,0.308,0.121c0.121,0.06,0.206,0.09,0.255,0.09c0.047,0,0.083-0.015,0.109-0.045
		c0.027-0.028,0.053-0.098,0.076-0.21H45.668z"/>
	<path d="M47.326,15.303v0.935h0.597v0.271h-0.597v1.576c0,0.148,0.007,0.243,0.02,0.286c0.014,0.043,0.038,0.077,0.071,0.104
		c0.034,0.026,0.065,0.039,0.095,0.039c0.115,0,0.226-0.09,0.33-0.27l0.081,0.06c-0.146,0.35-0.381,0.523-0.707,0.523
		c-0.159,0-0.294-0.044-0.404-0.134s-0.181-0.191-0.211-0.302c-0.018-0.063-0.026-0.23-0.026-0.504v-1.379h-0.329v-0.096
		c0.227-0.162,0.418-0.332,0.576-0.511c0.159-0.178,0.298-0.379,0.417-0.599H47.326z"/>
	<path d="M49.205,16.237v0.579c0.166-0.264,0.313-0.438,0.437-0.525c0.126-0.087,0.248-0.13,0.363-0.13
		c0.101,0,0.181,0.031,0.241,0.095c0.06,0.063,0.09,0.151,0.09,0.266c0,0.123-0.029,0.216-0.087,0.285
		c-0.059,0.066-0.129,0.1-0.211,0.1c-0.096,0-0.178-0.03-0.247-0.092c-0.07-0.063-0.111-0.097-0.124-0.104
		c-0.018-0.01-0.039-0.016-0.062-0.016c-0.053,0-0.101,0.02-0.148,0.059c-0.073,0.063-0.128,0.151-0.167,0.266
		c-0.057,0.177-0.085,0.371-0.085,0.586v0.586l0.003,0.152c0,0.104,0.006,0.171,0.019,0.201c0.021,0.049,0.054,0.084,0.095,0.107
		c0.042,0.022,0.113,0.037,0.214,0.042v0.099h-1.356v-0.099c0.109-0.009,0.184-0.04,0.221-0.091
		c0.039-0.053,0.059-0.188,0.059-0.412v-1.412c0-0.146-0.008-0.238-0.022-0.278c-0.018-0.052-0.044-0.089-0.077-0.112
		c-0.034-0.023-0.095-0.04-0.18-0.049v-0.102H49.205z"/>
	<path d="M51.99,18.415c-0.305,0.275-0.579,0.411-0.824,0.411c-0.143,0-0.262-0.047-0.357-0.143
		c-0.095-0.095-0.143-0.215-0.143-0.358c0-0.195,0.083-0.371,0.248-0.526c0.164-0.155,0.523-0.363,1.076-0.621V16.92
		c0-0.192-0.009-0.314-0.03-0.363c-0.02-0.051-0.06-0.095-0.116-0.132c-0.058-0.037-0.122-0.057-0.193-0.057
		c-0.117,0-0.213,0.027-0.288,0.08c-0.046,0.032-0.069,0.071-0.069,0.114c0,0.038,0.025,0.087,0.075,0.143
		c0.067,0.077,0.102,0.153,0.102,0.227c0,0.089-0.033,0.165-0.098,0.229c-0.065,0.063-0.15,0.094-0.257,0.094
		c-0.113,0-0.207-0.035-0.283-0.104c-0.077-0.069-0.114-0.15-0.114-0.244c0-0.131,0.051-0.256,0.152-0.375
		c0.103-0.119,0.245-0.211,0.429-0.274c0.182-0.063,0.371-0.096,0.569-0.096c0.237,0,0.426,0.052,0.565,0.153
		c0.139,0.104,0.228,0.215,0.27,0.336c0.025,0.076,0.038,0.252,0.038,0.527v0.991c0,0.116,0.004,0.189,0.013,0.22
		c0.01,0.03,0.022,0.053,0.041,0.066c0.018,0.016,0.039,0.022,0.062,0.022c0.047,0,0.094-0.034,0.143-0.101l0.081,0.064
		c-0.09,0.136-0.183,0.234-0.279,0.295c-0.096,0.061-0.204,0.09-0.326,0.09c-0.144,0-0.255-0.033-0.336-0.102
		C52.059,18.655,52.01,18.554,51.99,18.415z M51.99,18.216V17.36c-0.216,0.13-0.377,0.268-0.482,0.415
		c-0.07,0.099-0.104,0.197-0.104,0.299c0,0.083,0.028,0.157,0.088,0.22c0.045,0.049,0.107,0.075,0.188,0.075
		C51.769,18.369,51.873,18.317,51.99,18.216z"/>
	<path d="M54.354,15.303v0.935h0.597v0.271h-0.597v1.576c0,0.148,0.007,0.243,0.021,0.286s0.037,0.077,0.071,0.104
		c0.033,0.026,0.065,0.039,0.094,0.039c0.116,0,0.226-0.09,0.33-0.27l0.081,0.06c-0.145,0.35-0.381,0.523-0.707,0.523
		c-0.159,0-0.294-0.044-0.404-0.134s-0.18-0.191-0.211-0.302c-0.019-0.063-0.027-0.23-0.027-0.504v-1.379h-0.327v-0.096
		c0.226-0.162,0.418-0.332,0.576-0.511c0.158-0.178,0.297-0.379,0.415-0.599H54.354z"/>
	<path d="M57.316,17.424h-1.378c0.017,0.338,0.105,0.605,0.267,0.804c0.124,0.15,0.271,0.226,0.445,0.226
		c0.107,0,0.206-0.03,0.293-0.091c0.088-0.062,0.182-0.172,0.282-0.33l0.091,0.061c-0.135,0.282-0.286,0.482-0.451,0.6
		c-0.164,0.116-0.354,0.177-0.571,0.177c-0.373,0-0.655-0.146-0.847-0.438c-0.154-0.236-0.231-0.526-0.231-0.875
		c0-0.426,0.113-0.765,0.34-1.018c0.226-0.252,0.492-0.378,0.796-0.378c0.256,0,0.476,0.105,0.663,0.318
		C57.202,16.691,57.303,17.007,57.316,17.424z M56.655,17.24c0-0.294-0.015-0.495-0.046-0.604c-0.032-0.108-0.08-0.191-0.146-0.248
		c-0.037-0.033-0.088-0.049-0.151-0.049c-0.093,0-0.168,0.046-0.229,0.139c-0.105,0.162-0.158,0.386-0.158,0.667v0.096H56.655z"/>
	<path d="M59.244,16.268h0.847v0.301h-0.481c0.088,0.089,0.148,0.169,0.184,0.243c0.043,0.098,0.063,0.201,0.063,0.309
		c0,0.182-0.049,0.341-0.148,0.475c-0.1,0.133-0.235,0.237-0.406,0.313c-0.17,0.075-0.322,0.113-0.455,0.113
		c-0.011,0-0.119-0.005-0.322-0.014c-0.081,0-0.148,0.026-0.203,0.081c-0.056,0.054-0.083,0.117-0.083,0.191
		c0,0.066,0.025,0.12,0.075,0.161c0.049,0.043,0.129,0.063,0.24,0.063l0.465-0.005c0.376,0,0.636,0.043,0.776,0.126
		c0.203,0.117,0.304,0.296,0.304,0.539c0,0.154-0.047,0.296-0.14,0.421c-0.093,0.128-0.216,0.221-0.368,0.281
		C59.36,19.955,59.093,20,58.793,20c-0.226,0-0.432-0.022-0.618-0.067s-0.319-0.107-0.401-0.187c-0.08-0.078-0.12-0.163-0.12-0.249
		c0-0.085,0.031-0.159,0.093-0.227c0.062-0.066,0.178-0.121,0.346-0.167c-0.232-0.116-0.35-0.279-0.35-0.486
		c0-0.126,0.047-0.248,0.143-0.366c0.095-0.118,0.246-0.222,0.45-0.309c-0.239-0.09-0.412-0.206-0.521-0.352
		c-0.107-0.146-0.161-0.314-0.161-0.507c0-0.249,0.101-0.466,0.301-0.649c0.201-0.183,0.459-0.273,0.773-0.273
		C58.896,16.161,59.067,16.197,59.244,16.268z M58.621,19.169c-0.184,0-0.304,0.016-0.363,0.047
		c-0.102,0.056-0.152,0.132-0.152,0.229c0,0.094,0.052,0.179,0.158,0.253c0.105,0.077,0.304,0.114,0.597,0.114
		c0.248,0,0.444-0.033,0.587-0.103c0.143-0.066,0.214-0.161,0.214-0.284c0-0.045-0.013-0.082-0.04-0.113
		c-0.049-0.055-0.122-0.093-0.22-0.113C59.304,19.18,59.044,19.169,58.621,19.169z M58.78,16.331c-0.104,0-0.192,0.053-0.263,0.159
		c-0.073,0.106-0.108,0.328-0.108,0.662c0,0.271,0.035,0.458,0.106,0.56c0.07,0.101,0.154,0.151,0.251,0.151
		c0.107,0,0.197-0.051,0.269-0.151c0.071-0.1,0.107-0.295,0.107-0.584c0-0.325-0.04-0.549-0.121-0.666
		C58.964,16.374,58.884,16.331,58.78,16.331z"/>
	<path d="M61.537,18.896l-0.813-1.893c-0.121-0.286-0.212-0.462-0.271-0.528c-0.058-0.065-0.128-0.11-0.211-0.136v-0.102h1.336
		v0.102c-0.088,0.004-0.149,0.021-0.186,0.052c-0.035,0.03-0.053,0.067-0.053,0.111c0,0.07,0.044,0.206,0.134,0.41l0.43,1
		l0.294-0.773c0.105-0.274,0.158-0.466,0.158-0.572c0-0.068-0.023-0.122-0.065-0.162c-0.045-0.04-0.122-0.062-0.233-0.065v-0.102
		h0.842v0.102c-0.083,0.009-0.15,0.041-0.202,0.096c-0.053,0.058-0.139,0.246-0.261,0.568l-0.717,1.893
		c-0.181,0.474-0.316,0.765-0.403,0.875C61.192,19.924,61.037,20,60.852,20c-0.149,0-0.27-0.043-0.362-0.13
		c-0.092-0.087-0.139-0.191-0.139-0.313c0-0.105,0.032-0.193,0.096-0.263c0.063-0.068,0.143-0.104,0.236-0.104
		c0.089,0,0.161,0.029,0.216,0.087c0.055,0.06,0.083,0.148,0.084,0.271c0.002,0.069,0.01,0.113,0.024,0.134s0.035,0.03,0.063,0.03
		c0.042,0,0.089-0.027,0.137-0.079c0.071-0.077,0.155-0.252,0.253-0.524L61.537,18.896z"/>
	<path d="M68.123,15.002v1.307h-0.101c-0.119-0.357-0.3-0.629-0.539-0.814c-0.24-0.186-0.503-0.278-0.787-0.278
		c-0.272,0-0.5,0.077-0.681,0.233c-0.182,0.156-0.309,0.372-0.385,0.651c-0.074,0.279-0.111,0.564-0.111,0.858
		c0,0.354,0.04,0.667,0.123,0.935c0.082,0.267,0.215,0.463,0.398,0.589s0.402,0.188,0.655,0.188c0.087,0,0.177-0.01,0.269-0.027
		c0.093-0.02,0.188-0.048,0.284-0.084v-0.771c0-0.146-0.01-0.24-0.028-0.283c-0.021-0.042-0.061-0.081-0.123-0.116
		c-0.062-0.034-0.137-0.051-0.225-0.051h-0.094v-0.102h1.771v0.102c-0.136,0.008-0.229,0.027-0.28,0.055
		c-0.055,0.029-0.095,0.076-0.124,0.142c-0.016,0.034-0.023,0.119-0.023,0.254v0.771c-0.232,0.105-0.476,0.185-0.727,0.239
		c-0.252,0.054-0.514,0.081-0.784,0.081c-0.346,0-0.633-0.049-0.861-0.144c-0.228-0.097-0.429-0.223-0.604-0.378
		c-0.175-0.154-0.312-0.33-0.409-0.525c-0.127-0.251-0.188-0.533-0.188-0.844c0-0.559,0.192-1.028,0.578-1.413
		C65.512,15.191,65.997,15,66.58,15c0.182,0,0.345,0.015,0.489,0.043c0.079,0.015,0.207,0.058,0.383,0.124
		c0.177,0.069,0.28,0.103,0.313,0.103c0.05,0,0.097-0.018,0.139-0.056c0.044-0.037,0.084-0.107,0.118-0.212H68.123z"/>
	<path d="M69.834,16.237v0.579c0.168-0.264,0.313-0.438,0.438-0.525c0.126-0.087,0.246-0.13,0.364-0.13
		c0.1,0,0.18,0.031,0.239,0.095c0.06,0.063,0.09,0.151,0.09,0.266c0,0.123-0.028,0.216-0.087,0.285
		c-0.059,0.066-0.129,0.1-0.212,0.1c-0.095,0-0.176-0.03-0.246-0.092c-0.07-0.063-0.111-0.097-0.124-0.104
		c-0.018-0.01-0.038-0.016-0.062-0.016c-0.052,0-0.102,0.02-0.148,0.059c-0.073,0.063-0.128,0.151-0.166,0.266
		c-0.058,0.177-0.087,0.371-0.087,0.586v0.586l0.004,0.152c0,0.104,0.006,0.171,0.018,0.201c0.023,0.049,0.054,0.084,0.097,0.107
		c0.041,0.022,0.113,0.037,0.214,0.042v0.099h-1.357v-0.099c0.109-0.009,0.183-0.04,0.222-0.091
		c0.038-0.053,0.058-0.188,0.058-0.412v-1.412c0-0.146-0.008-0.238-0.022-0.278c-0.018-0.052-0.043-0.089-0.077-0.112
		s-0.094-0.04-0.18-0.049v-0.102H69.834z"/>
	<path d="M72.32,16.161c0.219,0,0.422,0.058,0.609,0.173c0.188,0.114,0.332,0.277,0.431,0.488c0.097,0.212,0.145,0.442,0.145,0.693
		c0,0.363-0.09,0.666-0.271,0.91c-0.219,0.295-0.521,0.443-0.905,0.443c-0.378,0-0.67-0.135-0.874-0.405s-0.307-0.582-0.307-0.938
		c0-0.365,0.104-0.685,0.313-0.956C71.671,16.297,71.957,16.161,72.32,16.161z M72.332,16.354c-0.092,0-0.17,0.035-0.236,0.105
		c-0.065,0.07-0.108,0.209-0.129,0.415c-0.02,0.206-0.03,0.494-0.03,0.863c0,0.194,0.013,0.376,0.037,0.545
		c0.02,0.131,0.063,0.228,0.126,0.296c0.064,0.066,0.139,0.101,0.221,0.101c0.081,0,0.147-0.022,0.202-0.068
		c0.07-0.062,0.115-0.148,0.14-0.26c0.035-0.173,0.053-0.522,0.053-1.048c0-0.311-0.017-0.523-0.051-0.639
		c-0.033-0.116-0.084-0.2-0.149-0.253C72.467,16.374,72.406,16.354,72.332,16.354z"/>
	<path d="M76.314,16.237v2c0,0.194,0.017,0.316,0.053,0.365c0.036,0.048,0.108,0.079,0.218,0.091v0.099h-1.023v-0.341
		c-0.121,0.145-0.241,0.252-0.36,0.317c-0.12,0.067-0.255,0.101-0.402,0.101c-0.143,0-0.27-0.045-0.378-0.133
		c-0.11-0.089-0.185-0.192-0.222-0.311c-0.039-0.118-0.057-0.324-0.057-0.62v-1.014c0-0.193-0.018-0.313-0.053-0.361
		c-0.035-0.047-0.108-0.078-0.22-0.092v-0.102h1.025v1.746c0,0.182,0.008,0.299,0.024,0.352c0.018,0.054,0.045,0.093,0.082,0.12
		c0.035,0.027,0.078,0.042,0.127,0.042c0.064,0,0.122-0.018,0.174-0.052c0.072-0.047,0.159-0.144,0.259-0.287v-1.366
		c0-0.193-0.018-0.313-0.053-0.361c-0.035-0.047-0.108-0.078-0.22-0.092v-0.102H76.314z"/>
	<path d="M77.921,18.532v0.951c0,0.132,0.011,0.22,0.03,0.267c0.021,0.048,0.053,0.083,0.096,0.104s0.127,0.032,0.253,0.032v0.102
		h-1.433v-0.102c0.112-0.003,0.193-0.034,0.247-0.095c0.036-0.042,0.054-0.149,0.054-0.324V16.77c0-0.18-0.021-0.296-0.062-0.345
		c-0.041-0.05-0.121-0.078-0.239-0.086v-0.102h1.054v0.336c0.088-0.131,0.178-0.226,0.269-0.284
		c0.131-0.086,0.273-0.128,0.427-0.128c0.186,0,0.354,0.06,0.505,0.178c0.15,0.117,0.266,0.281,0.344,0.49
		c0.08,0.208,0.119,0.433,0.119,0.673c0,0.26-0.041,0.495-0.123,0.71c-0.081,0.214-0.198,0.377-0.354,0.489
		c-0.154,0.111-0.328,0.168-0.518,0.168c-0.138,0-0.268-0.031-0.387-0.094C78.113,18.729,78.02,18.647,77.921,18.532z
		 M77.921,18.257c0.154,0.222,0.318,0.333,0.494,0.333c0.097,0,0.177-0.052,0.24-0.156c0.092-0.153,0.139-0.444,0.139-0.874
		c0-0.44-0.051-0.741-0.152-0.904c-0.068-0.107-0.16-0.16-0.274-0.16c-0.182,0-0.331,0.132-0.446,0.397V18.257z"/>
	<path d="M82.57,16.161c0.218,0,0.422,0.058,0.608,0.173c0.188,0.114,0.333,0.277,0.431,0.488c0.098,0.212,0.146,0.442,0.146,0.693
		c0,0.363-0.091,0.666-0.271,0.91c-0.22,0.295-0.521,0.443-0.906,0.443c-0.378,0-0.669-0.135-0.874-0.405
		c-0.203-0.271-0.307-0.582-0.307-0.938c0-0.365,0.105-0.685,0.314-0.956C81.92,16.297,82.206,16.161,82.57,16.161z M82.582,16.354
		c-0.094,0-0.171,0.035-0.236,0.105s-0.108,0.209-0.13,0.415c-0.02,0.206-0.03,0.494-0.03,0.863c0,0.194,0.013,0.376,0.038,0.545
		c0.019,0.131,0.062,0.228,0.126,0.296c0.063,0.066,0.137,0.101,0.221,0.101c0.08,0,0.147-0.022,0.201-0.068
		c0.07-0.062,0.115-0.148,0.14-0.26c0.036-0.173,0.053-0.522,0.053-1.048c0-0.311-0.016-0.523-0.05-0.639
		c-0.035-0.116-0.084-0.2-0.15-0.253C82.717,16.374,82.656,16.354,82.582,16.354z"/>
	<path d="M85.237,16.505v1.773c0,0.171,0.019,0.279,0.055,0.322c0.057,0.066,0.162,0.099,0.317,0.093v0.099h-1.481v-0.099
		c0.112-0.001,0.193-0.015,0.241-0.04c0.047-0.023,0.08-0.059,0.098-0.102c0.018-0.045,0.026-0.135,0.026-0.273v-1.773h-0.365
		v-0.268h0.365V16.05l-0.002-0.13c0-0.262,0.094-0.479,0.283-0.654c0.188-0.175,0.444-0.264,0.768-0.264
		c0.22,0,0.384,0.042,0.49,0.126s0.159,0.177,0.159,0.279c0,0.082-0.032,0.153-0.1,0.213c-0.065,0.06-0.152,0.091-0.263,0.091
		c-0.093,0-0.167-0.025-0.222-0.074s-0.082-0.104-0.082-0.164c0-0.017,0.006-0.05,0.017-0.102c0.007-0.031,0.011-0.06,0.011-0.088
		c0-0.037-0.011-0.065-0.033-0.085c-0.027-0.025-0.063-0.039-0.104-0.039c-0.053,0-0.096,0.021-0.131,0.064
		c-0.035,0.044-0.053,0.114-0.053,0.211l0.005,0.478v0.325h0.372v0.268H85.237z"/>
	<path d="M90.833,15.002v1.285h-0.104c-0.079-0.336-0.226-0.593-0.441-0.771c-0.215-0.178-0.458-0.267-0.73-0.267
		c-0.228,0-0.437,0.065-0.627,0.199c-0.189,0.133-0.328,0.307-0.415,0.521c-0.113,0.276-0.17,0.582-0.17,0.918
		c0,0.332,0.04,0.635,0.123,0.906c0.083,0.273,0.212,0.479,0.388,0.618c0.175,0.139,0.403,0.209,0.682,0.209
		c0.23,0,0.44-0.051,0.63-0.153c0.191-0.102,0.393-0.277,0.604-0.526v0.319c-0.204,0.216-0.418,0.373-0.639,0.471
		c-0.221,0.097-0.479,0.146-0.774,0.146c-0.39,0-0.734-0.08-1.036-0.238c-0.303-0.158-0.534-0.386-0.699-0.683
		c-0.164-0.297-0.245-0.613-0.245-0.948c0-0.353,0.09-0.689,0.272-1.006c0.182-0.316,0.427-0.562,0.735-0.736
		c0.31-0.175,0.638-0.264,0.985-0.264c0.257,0,0.526,0.057,0.812,0.171c0.165,0.065,0.27,0.097,0.314,0.097
		c0.058,0,0.107-0.02,0.149-0.063c0.042-0.043,0.069-0.11,0.082-0.204H90.833z"/>
	<path d="M93.15,18.691v0.101h-1.906v-0.101h0.122c0.105,0,0.19-0.021,0.255-0.058c0.047-0.025,0.082-0.069,0.107-0.132
		c0.021-0.043,0.029-0.159,0.029-0.344v-2.437c0-0.19-0.009-0.308-0.029-0.356c-0.021-0.047-0.06-0.088-0.12-0.123
		c-0.06-0.036-0.141-0.054-0.242-0.054h-0.122v-0.101h1.906v0.101h-0.122c-0.105,0-0.19,0.019-0.255,0.058
		c-0.047,0.025-0.083,0.068-0.11,0.13c-0.02,0.045-0.029,0.158-0.029,0.346v2.437c0,0.188,0.01,0.308,0.031,0.354
		c0.021,0.049,0.061,0.09,0.12,0.125c0.061,0.036,0.142,0.054,0.243,0.054H93.15z"/>
	<path d="M97.074,15.002v1.307h-0.1c-0.12-0.357-0.301-0.629-0.541-0.814s-0.501-0.278-0.787-0.278c-0.273,0-0.499,0.077-0.68,0.233
		s-0.31,0.372-0.385,0.651c-0.074,0.279-0.113,0.564-0.113,0.858c0,0.354,0.042,0.667,0.124,0.935
		c0.083,0.267,0.215,0.463,0.399,0.589s0.401,0.188,0.654,0.188c0.088,0,0.178-0.01,0.271-0.027c0.093-0.02,0.187-0.048,0.283-0.084
		v-0.771c0-0.146-0.011-0.24-0.03-0.283c-0.02-0.042-0.06-0.081-0.122-0.116c-0.062-0.034-0.137-0.051-0.224-0.051h-0.095v-0.102
		H97.5v0.102c-0.134,0.008-0.229,0.027-0.28,0.055c-0.053,0.029-0.094,0.076-0.123,0.142c-0.016,0.034-0.022,0.119-0.022,0.254
		v0.771c-0.233,0.105-0.476,0.185-0.729,0.239c-0.251,0.054-0.512,0.081-0.783,0.081c-0.346,0-0.632-0.049-0.86-0.144
		c-0.229-0.097-0.431-0.223-0.604-0.378c-0.176-0.154-0.313-0.33-0.41-0.525c-0.125-0.251-0.188-0.533-0.188-0.844
		c0-0.559,0.192-1.028,0.577-1.413C94.462,15.191,94.946,15,95.53,15c0.182,0,0.345,0.015,0.49,0.043
		c0.078,0.015,0.205,0.058,0.383,0.124c0.177,0.069,0.281,0.103,0.312,0.103c0.052,0,0.098-0.018,0.141-0.056
		c0.043-0.037,0.083-0.107,0.119-0.212H97.074z"/>
</g>
</svg>
