<?xml version="1.0" encoding="utf-8"?>
<!-- Generator: Adobe Illustrator 16.0.0, SVG Export Plug-In . SVG Version: 6.00 Build 0)  -->
<!DOCTYPE svg PUBLIC "-//W3C//DTD SVG 1.1//EN" "http://www.w3.org/Graphics/SVG/1.1/DTD/svg11.dtd">
<svg version="1.1" id="图层_1" xmlns="http://www.w3.org/2000/svg" xmlns:xlink="http://www.w3.org/1999/xlink" x="0px" y="0px"
	 width="16px" height="16px" viewBox="0 0 16 16" enable-background="new 0 0 16 16" xml:space="preserve">
<circle fill="#333333" cx="8" cy="8" r="8"/>
<g>
	<path fill="#B2CF07" d="M5.534,3C4.562,3,3.652,3.348,2.965,4.043C2.274,4.739,2,5.578,2,6.563v5.738c0,0.006,0-0.01,0,0
		C2,12.705,2.197,13,2.594,13c0.398,0,0.63-0.297,0.63-0.699c0-0.024,0,0.023,0,0V9.418c0.916,0.47,1.333,0.705,2.139,0.705
		c0.969,0,1.886-0.35,2.574-1.045c0.687-0.695,1.074-1.533,1.074-2.516c0-0.984-0.32-1.823-1.009-2.52C7.314,3.348,6.507,3,5.534,3z
		 M7.027,8.072C6.612,8.488,6.115,8.698,5.534,8.698c-0.582,0-1.079-0.21-1.493-0.626C3.629,7.654,3.422,7.15,3.422,6.563
		c0-0.59,0.207-1.095,0.619-1.512c0.414-0.418,0.911-0.627,1.493-0.627c0.581,0,1.078,0.209,1.493,0.627
		c0.411,0.417,0.619,0.922,0.619,1.512C7.646,7.15,7.438,7.654,7.027,8.072z"/>
	<path fill="#B2CF07" d="M13.305,11.486c-0.008,0-0.015,0-0.022,0c-0.493-0.014-1.152-0.189-1.55-0.59
		c-0.414-0.418-0.636-0.956-0.636-1.545v-2.17h1.502h0.005l0,0c0.376,0,0.712-0.385,0.712-0.785c0-0.393-0.313-0.761-0.699-0.761
		l0,0h-1.52V4.027c0-0.035-0.025-0.791-0.732-0.829c-0.392-0.021-0.797,0.322-0.797,0.72c0,0.029,0,0.061,0,0.09v5.344
		c0,0.982,0.401,1.888,1.087,2.583c0.587,0.593,1.621,1.021,2.637,0.975C13.679,12.893,14,12.59,14,12.199
		C14,11.807,13.693,11.486,13.305,11.486z"/>
</g>
</svg>
