<?xml version="1.0" encoding="utf-8"?>
<!-- Generator: Adobe Illustrator 16.0.0, SVG Export Plug-In . SVG Version: 6.00 Build 0)  -->
<!DOCTYPE svg PUBLIC "-//W3C//DTD SVG 1.1//EN" "http://www.w3.org/Graphics/SVG/1.1/DTD/svg11.dtd">
<svg version="1.1" id="图层_1" xmlns="http://www.w3.org/2000/svg" xmlns:xlink="http://www.w3.org/1999/xlink" x="0px" y="0px"
	 width="16px" height="16px" viewBox="0 0 16 16" enable-background="new 0 0 16 16" xml:space="preserve">
<g>
	<g>
		<path d="M2.666,12.03c-0.813,0-1.472-0.328-1.956-0.974C0.238,10.43,0,9.58,0,8.534c0-1.051,0.247-1.901,0.736-2.53
			c0.5-0.646,1.182-0.974,2.025-0.974c0.732,0,1.328,0.228,1.771,0.675C4.97,6.149,5.208,6.764,5.238,7.531l0.007,0.196H3.95
			L3.935,7.554c-0.036-0.403-0.16-0.715-0.37-0.926C3.358,6.418,3.086,6.316,2.73,6.316c-0.413,0-0.729,0.18-0.966,0.551
			c-0.252,0.396-0.38,0.956-0.38,1.667c0,0.756,0.118,1.327,0.352,1.698c0.22,0.345,0.536,0.512,0.968,0.512
			c0.317,0,0.574-0.108,0.786-0.334c0.222-0.234,0.372-0.579,0.447-1.023l0.026-0.158h1.301L5.236,9.439
			c-0.104,0.828-0.377,1.472-0.811,1.912C3.985,11.802,3.393,12.03,2.666,12.03z"/>
		<path d="M8.368,12.03c-0.873,0-1.539-0.193-1.979-0.572C5.946,11.077,5.697,10.479,5.65,9.68L5.638,9.479h1.33l0.018,0.17
			c0.041,0.394,0.166,0.675,0.372,0.841c0.212,0.17,0.551,0.256,1.011,0.256c0.396,0,0.691-0.076,0.885-0.228
			c0.182-0.144,0.271-0.352,0.271-0.638c0-0.213-0.086-0.3-0.149-0.349C9.287,9.465,9.073,9.357,8.539,9.225l-1.02-0.257
			C6.932,8.818,6.503,8.602,6.245,8.32C5.978,8.039,5.842,7.641,5.842,7.14c0-0.644,0.221-1.162,0.654-1.543
			C6.924,5.221,7.506,5.03,8.224,5.03c0.729,0,1.322,0.196,1.762,0.581c0.44,0.388,0.68,0.928,0.709,1.601l0.008,0.198H9.395
			L9.38,7.236C9.354,6.938,9.247,6.717,9.052,6.56c-0.2-0.161-0.479-0.243-0.829-0.243c-0.365,0-0.642,0.063-0.819,0.19
			C7.237,6.626,7.161,6.789,7.161,7.021c0,0.164,0.048,0.279,0.148,0.355C7.398,7.443,7.613,7.55,8.135,7.684L9.152,7.94
			c0.615,0.159,1.047,0.378,1.32,0.669c0.274,0.293,0.414,0.699,0.414,1.209c0,0.677-0.232,1.221-0.693,1.619
			C9.741,11.831,9.127,12.03,8.368,12.03z"/>
		<polygon points="12.703,12.03 10.635,5.03 12.073,5.03 13.326,9.872 14.622,5.03 16,5.03 13.938,12.03 		"/>
	</g>
</g>
</svg>
