<?xml version="1.0" encoding="utf-8"?>
<!-- Generator: Adobe Illustrator 16.0.0, SVG Export Plug-In . SVG Version: 6.00 Build 0)  -->
<!DOCTYPE svg PUBLIC "-//W3C//DTD SVG 1.1//EN" "http://www.w3.org/Graphics/SVG/1.1/DTD/svg11.dtd">
<svg version="1.1" id="图层_1" xmlns="http://www.w3.org/2000/svg" xmlns:xlink="http://www.w3.org/1999/xlink" x="0px" y="0px"
	 width="40px" height="40px" viewBox="0 0 40 40" enable-background="new 0 0 40 40" xml:space="preserve">
<g>
	<path fill="#689F38" d="M40,36c0,2.2-1.8,4-4,4H4c-2.2,0-4-1.8-4-4V4c0-2.2,1.8-4,4-4h32c2.2,0,4,1.8,4,4V36z"/>
</g>
<g>
	<path fill="#7CB342" d="M39,35c0,2.2-1.8,4-4,4H5c-2.2,0-4-1.8-4-4V5c0-2.2,1.8-4,4-4h30c2.2,0,4,1.8,4,4V35z"/>
</g>
<g id="g9-1_12_" transform="matrix(1.5537946,0,0,1.5537946,-140.87332,-132.64552)">
	<rect id="rect11_12_" x="97.263" y="96.092" fill="#D9EAC6" width="2.759" height="8.301"/>
	<path id="path13-0_12_" fill="#D9EAC6" d="M98.661,92.089c-0.944,0-1.561,0.62-1.561,1.434c0,0.797,0.598,1.435,1.525,1.435h0.018
		c0.963,0,1.561-0.638,1.561-1.435C100.186,92.709,99.605,92.089,98.661,92.089L98.661,92.089z"/>
	<path id="path15_12_" fill="#D9EAC6" d="M106.795,95.896c-1.464,0-2.119,0.806-2.486,1.371v-1.175h-2.759
		c0.036,0.778,0,8.301,0,8.301h2.759v-4.636c0-0.248,0.018-0.496,0.091-0.674c0.199-0.495,0.654-1.009,1.415-1.009
		c0.998,0,1.398,0.762,1.398,1.877v4.442h2.759v-4.761C109.972,97.082,108.61,95.896,106.795,95.896z"/>
</g>
</svg>
