<?xml version="1.0" standalone="no"?><!DOCTYPE svg PUBLIC "-//W3C//DTD SVG 1.1//EN" "http://www.w3.org/Graphics/SVG/1.1/DTD/svg11.dtd"><svg width="200" height="200" viewBox="0 0 200 200" version="1.1" xmlns="http://www.w3.org/2000/svg" xmlns:xlink="http://www.w3.org/1999/xlink"><g class="transform-group"><g transform="scale(0.1953125, 0.1953125)"><path d="M928.801504 750.891096c-1.286144 3.897281-21.388015 73.942009-70.781858 145.96707-42.750471 62.127482-86.955778 124.758992-156.771494 125.858042-68.657369 1.206399-90.629159-40.920426-169.018484-40.920426-78.289133 0-102.901708 39.822399-167.787549 42.126825-67.078828 2.740978-118.693261-67.865031-161.605267-129.692958-87.699042-126.649358-155.22669-358.895395-64.660919-514.536146 44.557002-77.87405 124.648576-127.375241 211.865059-128.728862 65.724185-1.239114 128.257548 44.476235 168.177072 44.476235 41.011417 0 116.657719-55.318486 196.463029-47.040343 33.413151 1.422119 126.877346 13.952306 187.095038 101.13505-4.738693 3.221493-111.829058 66.351921-110.63595 194.836436C792.748372 699.485226 927.353826 750.361507 928.801504 750.891096M662.458349 165.313409c35.987483-43.850543 59.635962-104.129577 53.41483-163.991483-51.383378 2.015095-113.987284 34.086894-151.195479 77.679799-32.897876 38.030181-61.893358 99.247752-53.807421 158.414445C567.96258 240.878944 626.666139 207.55065 662.458349 165.313409"></path></g></g></svg>