<svg xmlns="http://www.w3.org/2000/svg" width="16" height="16" viewBox="0 0 16 16"><path fill="#369245" d="M14.972 4.5a6.488 6.488 0 0 0-5.472-3 6.39 6.39 0 0 0-1.5.182A6.504 6.504 0 0 1 13 8a3.5 3.5 0 0 1-3.5 3.5 3.45 3.45 0 0 1-1.5-.35A3.489 3.489 0 0 1 6 8c0-1.393.821-2.586 2-3.15a3.478 3.478 0 0 0-1.5-.35A3.5 3.5 0 0 0 3 8a6.504 6.504 0 0 0 5 6.32c.482.113.982.18 1.5.18a6.49 6.49 0 0 0 5.472-3 6.466 6.466 0 0 0 0-7z"/><path fill="#A6E000" d="M11.972 4.5A6.5 6.5 0 0 0 8 1.682 6.39 6.39 0 0 0 6.5 1.5a6.49 6.49 0 0 0-5.472 3 6.476 6.476 0 0 0 0 7 6.488 6.488 0 0 0 5.472 3c.518 0 1.018-.066 1.5-.18A6.507 6.507 0 0 1 3 8a3.5 3.5 0 0 1 3.5-3.5c.539 0 1.044.133 1.5.35 1.179.564 2 1.757 2 3.15a3.489 3.489 0 0 1-2 3.15c.456.219.961.35 1.5.35A3.5 3.5 0 0 0 13 8a6.476 6.476 0 0 0-1.028-3.5z"/><linearGradient id="a" gradientUnits="userSpaceOnUse" x1="3.445" y1="8.227" x2="6.727" y2="15.071"><stop offset="0" stop-color="#690"/><stop offset="1" stop-color="#a3db00" stop-opacity=".8"/></linearGradient><path fill="url(#a)" d="M4.028 11.5a6.471 6.471 0 0 1-.998-3.092C3.015 8.604 3 8.801 3 9c0 2.107.871 4.008 2.27 5.371.399.076.807.129 1.23.129.518 0 1.018-.066 1.5-.18a6.504 6.504 0 0 1-3.972-2.82z"/><linearGradient id="b" gradientUnits="userSpaceOnUse" x1="3" y1="6.5" x2="8" y2="6.5"><stop offset="0" stop-color="#296936" stop-opacity=".8"/><stop offset="1" stop-color="#369245" stop-opacity=".5"/></linearGradient><path fill="url(#b)" d="M6.5 5.5c.179 0 .351.027.522.053.284-.285.611-.528.978-.703a3.478 3.478 0 0 0-1.5-.35A3.5 3.5 0 0 0 3 8c0 .172.026.336.051.5a3.49 3.49 0 0 1 3.449-3z"/></svg>