<?xml version="1.0" encoding="utf-8"?>
<!-- Generator: Adobe Illustrator 21.0.0, SVG Export Plug-In . SVG Version: 6.00 Build 0)  -->
<svg version="1.1" id="图层_1" xmlns="http://www.w3.org/2000/svg" xmlns:xlink="http://www.w3.org/1999/xlink" x="0px" y="0px"
	 viewBox="0 0 20 20" enable-background="new 0 0 20 20" xml:space="preserve">
<path d="M14.538,1.231H5.461c-0.846,0-1.538,0.692-1.538,1.538v14.462c0,0.846,0.692,1.538,1.538,1.538h9.077
	c0.846,0,1.538-0.692,1.538-1.538V2.769C16.077,1.923,15.385,1.231,14.538,1.231z M8.905,2.295h2.189
	c0.09,0,0.163,0.073,0.163,0.163c0,0.09-0.074,0.163-0.163,0.163H8.905c-0.09,0-0.163-0.073-0.163-0.163
	C8.742,2.369,8.815,2.295,8.905,2.295z M8.322,2.295c0.09,0,0.163,0.073,0.163,0.163c0,0.09-0.073,0.163-0.163,0.163
	c-0.09,0-0.163-0.073-0.163-0.163C8.158,2.368,8.231,2.295,8.322,2.295z M10.001,17.764c-0.467,0-0.846-0.379-0.846-0.846
	c0-0.467,0.379-0.846,0.846-0.846c0.467,0,0.846,0.379,0.846,0.846C10.847,17.385,10.469,17.764,10.001,17.764z M14.592,15.171
	H5.362V3.478h9.231V15.171z"/>
</svg>
