<?xml version="1.0" standalone="no"?><!DOCTYPE svg PUBLIC "-//W3C//DTD SVG 1.1//EN" "http://www.w3.org/Graphics/SVG/1.1/DTD/svg11.dtd"><svg width="200" height="200" viewBox="0 0 200 200" version="1.1" xmlns="http://www.w3.org/2000/svg" xmlns:xlink="http://www.w3.org/1999/xlink"><g class="transform-group"><g transform="scale(0.1953125, 0.1953125)"><path d="M770.094796 321.244468C757.520905 193.225793 647.725774 93.074815 514.045675 93.074815c-133.636095 0-243.431226 100.150978-256.005117 228.169653L770.094796 321.244468zM375.135238 212.06486c0-12.742209 10.337873-23.102161 23.123597-23.102161 12.742744 0 23.082663 10.359952 23.082663 23.102161 0 12.765745-10.33992 23.102161-23.082663 23.102161C385.473111 235.167021 375.135238 224.829582 375.135238 212.06486M606.120491 212.06486c0-12.742209 10.33685-23.102161 23.080617-23.102161 12.742744 0 23.123597 10.359952 23.123597 23.102161 0 12.765745-10.380854 23.102161-23.123597 23.102161C616.458364 235.167021 606.120491 224.829582 606.120491 212.06486M405.053874 117.381407l-42.238736-74.623581c-2.280022-4.051269-7.384487-5.484921-11.435927-3.164063-4.049393 2.257413-5.486175 7.385201-3.164196 11.43647l41.733202 73.756841C393.913695 122.758881 399.652637 119.891578 405.053874 117.381407M622.535012 117.381407l42.238736-74.623581c2.277975-4.051269 7.426445-5.484921 11.43388-3.164063 4.051439 2.257413 5.486175 7.385201 3.2082 11.43647l-41.774136 73.756841C633.674167 122.758881 627.935225 119.891578 622.535012 117.381407M237.953238 627.096365c0 32.764218-25.867196 59.511395-57.387374 59.511395-31.605115 0-57.407841-26.747177-57.407841-59.511395L123.158023 396.181181c0-32.741705 25.802725-59.536978 57.407841-59.536978 31.521201 0 57.387374 26.795273 57.387374 59.536978L237.953238 627.096365zM902.887651 627.096365c0 32.764218-25.823192 59.511395-57.387374 59.511395-31.561111 0-57.428308-26.747177-57.428308-59.511395L788.07197 396.181181c0-32.741705 25.866173-59.536978 57.428308-59.536978 31.564181 0 57.387374 26.795273 57.387374 59.536978L902.887651 627.096365zM260.31751 346.434174l0 369.542474c0 32.743752 26.838355 59.516512 59.539477 59.516512l41.267578 0L361.124565 901.443733c0 32.764218 25.825239 59.516512 57.430354 59.516512 31.521201 0 57.387374-26.752294 57.387374-59.516512L475.942293 775.494183l74.855944 0L550.798236 901.443733c0 32.764218 25.867196 59.516512 57.387374 59.516512 31.608185 0 57.430354-26.752294 57.430354-59.516512L665.615964 775.494183l41.941965 0c32.745126 0 59.539477-26.77276 59.539477-59.516512L767.097406 346.434174 260.31751 346.434174z"></path></g></g></svg>