<?xml version="1.0" encoding="utf-8"?>
<!-- Generator: Adobe Illustrator 16.0.0, SVG Export Plug-In . SVG Version: 6.00 Build 0)  -->
<!DOCTYPE svg PUBLIC "-//W3C//DTD SVG 1.1//EN" "http://www.w3.org/Graphics/SVG/1.1/DTD/svg11.dtd">
<svg version="1.1" xmlns="http://www.w3.org/2000/svg" xmlns:xlink="http://www.w3.org/1999/xlink" x="0px" y="0px"
	 width="15.999px" height="16px" viewBox="0 0 15.999 16" enable-background="new 0 0 15.999 16" xml:space="preserve">
<g id="图层_1">
	<path d="M0,13.667c0,1.289,1.042,2.332,2.333,2.332c0.644,0,1.243-0.244,1.666-0.668l4.255-4.255l1.139,1.14
		c-0.153,0.561-0.007,1.187,0.437,1.632l1.653,1.654c0.66,0.657,1.717,0.665,2.365,0.014c0.651-0.651,0.646-1.706-0.011-2.365
		l-1.654-1.654c-0.447-0.443-1.073-0.59-1.634-0.437l-1.14-1.138l0.733-0.732c1.56,0.392,3.279-0.018,4.496-1.207
		c0.838-0.82,1.297-1.86,1.36-2.937V4.989c0-0.362-0.3-0.657-0.67-0.657c-0.185,0-0.35,0.074-0.474,0.19l-0.196,0.193l-0.674,0.66
		c-0.423,0.414-1.026,0.656-1.677,0.656c-0.646,0-1.217-0.283-1.64-0.7C10.252,4.91,9.966,4.337,9.966,3.69
		c0-0.65,0.243-1.255,0.656-1.678l0.66-0.673l0.194-0.196c0.115-0.124,0.19-0.29,0.19-0.475C11.667,0.3,11.372,0,11.01,0h-0.058
		C9.876,0.063,8.837,0.522,8.016,1.36C6.826,2.576,6.419,4.296,6.813,5.854L6.076,6.59L2.999,3.51V2.667L1,1.667l-1,1l1,2h0.839
		l3.08,3.076l-4.252,4.256C0.244,12.422,0,13.022,0,13.667z M1.667,13.499c0-0.459,0.373-0.832,0.832-0.832
		c0.46,0,0.833,0.373,0.833,0.832s-0.373,0.832-0.833,0.832C2.04,14.331,1.667,13.958,1.667,13.499z"/>
</g>
<g id="图层_2">
</g>
</svg>
