<?xml version="1.0" encoding="utf-8"?>
<!-- Generator: Adobe Illustrator 16.0.4, SVG Export Plug-In . SVG Version: 6.00 Build 0)  -->
<!DOCTYPE svg PUBLIC "-//W3C//DTD SVG 1.1//EN" "http://www.w3.org/Graphics/SVG/1.1/DTD/svg11.dtd">
<svg version="1.1" id="图层_1" xmlns="http://www.w3.org/2000/svg" xmlns:xlink="http://www.w3.org/1999/xlink" x="0px" y="0px"
	 width="16px" height="16px" viewBox="0 0 16 16" enable-background="new 0 0 16 16" xml:space="preserve">
<g>
	<rect opacity="0" fill="none" width="16" height="16"/>
	<path d="M7.998,15.979C3.562,15.979,0,12.665,0,8.033c0-4.627,3.521-8.027,7.998-8.027c4.474,0,7.994,3.316,7.994,7.903
		c0,2.106-0.691,4.108-2.319,5.776c0.367,0.375,1.269,0.961,2.327,0.918V16c-1.507,0.082-2.816-0.71-3.445-1.396
		C11.719,15.188,10.254,15.979,7.998,15.979z M14.422,7.926c0-3.694-2.815-6.263-6.395-6.263c-3.638,0-6.434,2.67-6.434,6.382
		c0,0.604,0.061,1.186,0.222,1.787C2.7,9.53,3.785,9.291,5.072,9.291c2.976,0,5.609,1.324,7.521,3.23
		C13.416,11.659,14.422,10.194,14.422,7.926z M8.027,14.349c1.709,0,2.795-0.503,3.438-0.923c-2.733-2.689-5.71-2.791-6.514-2.791
		c-0.926,0-1.729,0.121-2.634,0.442C3.404,13.085,5.455,14.349,8.027,14.349z"/>
</g>
</svg>
