<?xml version="1.0" encoding="utf-8"?>
<!-- Generator: Adobe Illustrator 16.0.0, SVG Export Plug-In . SVG Version: 6.00 Build 0)  -->
<!DOCTYPE svg PUBLIC "-//W3C//DTD SVG 1.1//EN" "http://www.w3.org/Graphics/SVG/1.1/DTD/svg11.dtd">
<svg version="1.1" id="图层_1" xmlns="http://www.w3.org/2000/svg" xmlns:xlink="http://www.w3.org/1999/xlink" x="0px" y="0px"
	 width="16px" height="16px" viewBox="0 0 16 16" enable-background="new 0 0 16 16" xml:space="preserve">
<g>
	<circle fill="#212121" cx="8" cy="8" r="8"/>
	<path fill="#FFFFFF" d="M7.271,2.273H6.456C5.102,2.273,4,3.374,4,4.728v6.545c0,1.354,1.102,2.455,2.456,2.455h0.816
		c3.16,0,5.729-2.568,5.729-5.729C13,4.842,10.432,2.273,7.271,2.273z M7.271,12.093H6.456c-0.452,0-0.819-0.368-0.819-0.819V4.728
		c0-0.451,0.367-0.818,0.819-0.818h0.816c2.255,0,4.091,1.836,4.091,4.09C11.363,10.256,9.527,12.093,7.271,12.093z"/>
</g>
</svg>
