<?xml version="1.0" encoding="utf-8"?>
<!-- Generator: Adobe Illustrator 16.0.0, SVG Export Plug-In . SVG Version: 6.00 Build 0)  -->
<!DOCTYPE svg PUBLIC "-//W3C//DTD SVG 1.1//EN" "http://www.w3.org/Graphics/SVG/1.1/DTD/svg11.dtd">
<svg version="1.1" xmlns="http://www.w3.org/2000/svg" xmlns:xlink="http://www.w3.org/1999/xlink" x="0px" y="0px" width="16px"
	 height="16px" viewBox="0 0 16 16" enable-background="new 0 0 16 16" xml:space="preserve">
<g id="图层_1">
	<rect y="0.01" opacity="0.5" fill="none" width="16" height="16"/>
	<path fill="#FF4A00" d="M15.889,6.667h-4.67l3.303-3.303c-0.26-0.364-0.55-0.706-0.865-1.021l0,0
		C13.341,2.027,13,1.738,12.636,1.479L9.333,4.781v-4.67C8.901,0.039,8.457,0,8.004,0H7.996C7.543,0,7.099,0.039,6.667,0.111v4.67
		L3.364,1.479C3,1.738,2.658,2.027,2.344,2.343L2.342,2.344C2.027,2.659,1.738,3.001,1.479,3.364l3.302,3.303h-4.67
		c0,0-0.111,0.877-0.111,1.33v0.006C0,8.456,0.039,8.9,0.111,9.333h4.67l-3.302,3.303c0.519,0.729,1.156,1.366,1.885,1.885
		l3.303-3.302v4.67C7.099,15.961,7.542,16,7.994,16h0.012c0.452,0,0.896-0.039,1.327-0.111v-4.67l3.303,3.302
		c0.364-0.259,0.705-0.548,1.021-0.863l0.001-0.001c0.315-0.315,0.604-0.656,0.863-1.021l-3.302-3.303h4.67
		C15.961,8.901,16,8.458,16,8.006V7.994C16,7.542,15.961,7.099,15.889,6.667z M10,8.004c0,0.594-0.109,1.163-0.308,1.688
		C9.168,9.891,8.599,10,8.004,10H7.996c-0.594,0-1.163-0.109-1.688-0.308C6.109,9.167,6,8.598,6,8.004V7.996
		c0-0.594,0.109-1.163,0.307-1.688C6.833,6.109,7.402,6,7.996,6h0.008c0.595,0,1.164,0.109,1.688,0.308
		C9.891,6.833,10,7.402,10,7.996V8.004z"/>
</g>
<g id="图层_2">
</g>
</svg>
