<?xml version="1.0" encoding="utf-8"?>
<!-- Generator: Adobe Illustrator 16.0.4, SVG Export Plug-In . SVG Version: 6.00 Build 0)  -->
<!DOCTYPE svg PUBLIC "-//W3C//DTD SVG 1.1//EN" "http://www.w3.org/Graphics/SVG/1.1/DTD/svg11.dtd">
<svg version="1.1" id="图层_1" xmlns="http://www.w3.org/2000/svg" xmlns:xlink="http://www.w3.org/1999/xlink" x="0px" y="0px"
	 width="16px" height="16px" viewBox="0 0 16 16" enable-background="new 0 0 16 16" xml:space="preserve">
<g>
	<rect opacity="0" fill="none" width="16" height="16"/>
	<path d="M4.771,11.409c0.042,0.627,0.312,3.196,3.205,3.196c2.055,0,3.207-1.482,3.207-3.132c0-1.88-1.403-2.549-2.074-2.8
		C7.118,7.9,3.702,7.754,3.702,4.205c0-1.734,1.195-4.199,4.4-4.199c2.872,0,4.211,2.131,4.255,4.177h-1.552
		c-0.042-0.981-0.545-2.776-2.891-2.776c-1.907,0-2.662,1.439-2.662,2.819c0,1.691,1.132,2.17,3.059,2.714
		c1.656,0.461,4.422,1.214,4.422,4.553c0,2.091-1.508,4.514-4.714,4.514c-2.704,0-4.798-1.902-4.798-4.597H4.771z"/>
</g>
</svg>
