<?xml version="1.0" encoding="utf-8"?>
<!-- Generator: Adobe Illustrator 16.0.0, SVG Export Plug-In . SVG Version: 6.00 Build 0)  -->
<!DOCTYPE svg PUBLIC "-//W3C//DTD SVG 1.1//EN" "http://www.w3.org/Graphics/SVG/1.1/DTD/svg11.dtd">
<svg version="1.1" id="图层_1" xmlns="http://www.w3.org/2000/svg" xmlns:xlink="http://www.w3.org/1999/xlink" x="0px" y="0px"
	 width="40px" height="40px" viewBox="0 0 40 40" enable-background="new 0 0 40 40" xml:space="preserve">
<g>
	<path fill="#689F38" d="M40,36c0,2.2-1.8,4-4,4H4c-2.2,0-4-1.8-4-4V4c0-2.2,1.8-4,4-4h32c2.2,0,4,1.8,4,4V36z"/>
</g>
<g>
	<path fill="#7CB342" d="M39,35c0,2.2-1.8,4-4,4H5c-2.2,0-4-1.8-4-4V5c0-2.2,1.8-4,4-4h30c2.2,0,4,1.8,4,4V35z"/>
</g>
<g>
	<path fill-rule="evenodd" clip-rule="evenodd" fill="#D9EAC6" d="M15.881,10.076c-2.537,0.208-4.49,2.331-4.627,4.692
		c-0.131,2.26,1.277,3.851,3.975,4.494c0.27,0.064,0.533,0.146,0.805,0.223c0.111,0.669,0.457,1.169,0.563,1.803
		c-1.836,0.427-3.244,0.77-4.631,1.687c-1.279,0.849-2.055,1.906-1.957,3.493c0.096,1.568,1.123,2.545,2.41,2.98
		c2,0.68,3.58,0.68,5.5,0.28c2.041-0.424,3.846-1.992,4.244-3.683c0.527-2.241-0.539-3.687-2.117-4.975
		c-0.176-0.143-0.334-0.31-0.512-0.449c-0.926-0.721-0.873-1.414-0.107-2.275c2.533-2.852,2.623-3.657,1.016-6.876
		c0.672-0.37,1.348-0.741,2.021-1.112C20.182,10.04,18.02,9.901,15.881,10.076z M20.227,26.455c-0.35,1.221-1.836,2.392-4.824,2
		c-1.33-0.175-2.826-1.163-2.844-2.784c-0.02-1.65,1.973-3.779,5.369-2.965C19.842,23.167,20.652,24.96,20.227,26.455z
		 M16.934,18.183c-1.609,0.111-3.092-2.062-3.076-4.42c0.012-1.641,0.75-2.553,2.066-2.555c1.609-0.002,2.967,2.063,2.967,4.263
		C18.928,17.093,18.426,18.079,16.934,18.183z"/>
	<polygon fill-rule="evenodd" clip-rule="evenodd" fill="#D9EAC6" points="30,18.156 27.25,18.156 27.25,15.406 25.75,15.406 
		25.75,18.156 23,18.156 23,19.656 25.75,19.656 25.75,22.406 27.25,22.406 27.25,19.656 30,19.656 	"/>
</g>
</svg>
