<?xml version="1.0" encoding="utf-8"?>
<!-- Generator: Adobe Illustrator 16.0.4, SVG Export Plug-In . SVG Version: 6.00 Build 0)  -->
<!DOCTYPE svg PUBLIC "-//W3C//DTD SVG 1.1//EN" "http://www.w3.org/Graphics/SVG/1.1/DTD/svg11.dtd">
<svg version="1.1" id="图层_1" xmlns="http://www.w3.org/2000/svg" xmlns:xlink="http://www.w3.org/1999/xlink" x="0px" y="0px"
	 width="16px" height="16px" viewBox="0 0 16 16" enable-background="new 0 0 16 16" xml:space="preserve">
<circle fill="#E3007F" cx="2" cy="-2" r="2"/>
<g>
	<rect opacity="0" fill="none" stroke="#231815" stroke-miterlimit="10" width="16" height="16"/>
	<path d="M4,0.011h3.936c1.639,0,5.213,0.193,5.213,4.217c0,1.729-1.063,2.681-1.894,3.2C13.213,8.011,14,9.826,14,11.491
		c0,1.256-0.532,4.52-5.681,4.52H4V0.011z M7.936,6.865c1.319,0,3.639-0.237,3.639-2.702c0-2.64-2.489-2.704-3.639-2.704H5.574
		v5.406H7.936z M8.319,14.562c1.468,0,4.084-0.26,4.084-3.049c0-2.92-2.531-3.2-4.084-3.2H5.574v6.249H8.319z"/>
</g>
</svg>
