
<svg version="1.1" id="图层_1" xmlns="http://www.w3.org/2000/svg" xmlns:xlink="http://www.w3.org/1999/xlink" x="0px" y="0px"
width="240px" height="76px" viewBox="0 0 240 76" enable-background="new 0 0 240 76" xml:space="preserve">
	<g>
	<path fill="none" stroke="#4B8AC9" stroke-miterlimit="10" d="M153.366,27c0.172,10.732,5.206,16.9,15.222,16.9"/>
	<path fill="none" stroke="#4B8AC9" stroke-miterlimit="10" d="M134.652,34.833c7.682,13.687,19.842,5.833,29.859,11.333"/>
	<g>
		<ellipse transform="matrix(0.9817 -0.1906 0.1906 0.9817 -1.6633 29.8497)" fill="#6387FC" cx="154.366" cy="23.573" rx="13.987" ry="15.76"/>
		<g>
			<path fill="#FFFFFF" d="M153.133,21.573c0-2.127,3.425-2.205,3.425,0v8.628c0,2.154-3.425,2.206-3.425,0V21.573z"/>
			<circle fill="#FFFFFF" cx="154.846" cy="15.646" r="1.885"/>
		</g>
		<animateMotion path="M0,0 5,-8 0,0" begin="0s" dur="3s" repeatCount="indefinite"/>
	</g>
	<g>
		<g>
			<path fill="#FFFFFF" d="M225.578,62.737L215.204,53.4l7.87-6.886c1.031-0.901,1.134-2.468,0.232-3.499
				c-0.901-1.03-2.468-1.134-3.497-0.233l-8.283,7.247V34.833c0-1.368-1.11-2.478-2.48-2.478c-1.368,0-2.478,1.11-2.478,2.478
				v29.746c0,1.37,1.11,2.48,2.478,2.48c1.37,0,2.48-1.11,2.48-2.48V56.76l10.736,9.662c0.474,0.427,1.067,0.637,1.657,0.637
				c0.678,0,1.355-0.277,1.844-0.821C226.679,65.221,226.595,63.653,225.578,62.737z"/>
			<path fill="#FFFFFF" d="M194.173,47.228c1.986,0,3.855,0.773,5.258,2.178c0.969,0.968,2.539,0.968,3.507,0
				c0.968-0.967,0.968-2.538,0-3.505c-2.341-2.342-5.454-3.63-8.765-3.63c-6.834,0-12.394,5.56-12.394,12.394
				s5.56,12.395,12.394,12.395c3.312,0,6.424-1.29,8.765-3.631c0.968-0.968,0.968-2.537,0-3.505c-0.968-0.967-2.538-0.967-3.507,0
				c-1.404,1.405-3.271,2.179-5.258,2.179c-4.101,0-7.436-3.336-7.436-7.438C186.737,50.564,190.072,47.228,194.173,47.228z"/>
			<path fill="#FFFFFF" d="M166.889,42.169c-6.834,0-12.395,5.561-12.395,12.395c0,6.834,5.561,12.394,12.395,12.394
				c2.234,0,6.4-0.417,9.188-3.206c0.968-0.967,0.968-2.537,0-3.504c-0.968-0.969-2.537-0.969-3.506,0
				c-1.113,1.113-3.185,1.752-5.682,1.752c-3.232,0-5.988-2.073-7.012-4.958h16.944c1.37,0,2.479-1.11,2.479-2.479
				c0-0.117-0.012-0.23-0.026-0.342C179.093,47.546,173.608,42.169,166.889,42.169z M166.889,47.127
				c3.231,0,5.985,2.072,7.009,4.958h-14.021C160.901,49.199,163.657,47.127,166.889,47.127z"/>
			<path fill="#FFFFFF" d="M65.256,42.169c-6.834,0-12.394,5.561-12.394,12.395c0,6.834,5.56,12.394,12.394,12.394
				c2.787,0,5.363-0.927,7.436-2.486v0.007c0,1.37,1.11,2.479,2.479,2.479c1.368,0,2.479-1.11,2.479-2.479v-9.915
				C77.65,47.73,72.09,42.169,65.256,42.169z M65.256,62c-4.1,0-7.437-3.336-7.437-7.436c0-4.101,3.337-7.437,7.437-7.437
				s7.436,3.336,7.436,7.437C72.692,58.664,69.356,62,65.256,62z"/>
			<path fill="#FFFFFF" d="M107.414,42.066c-6.834,0-12.395,5.56-12.395,12.394s5.561,12.394,12.395,12.394
				c2.788,0,5.364-0.926,7.436-2.485v0.11c0,1.37,1.11,2.479,2.479,2.479c1.369,0,2.479-1.11,2.479-2.479v-9.915
				c0-0.013-0.001-0.024-0.001-0.034c0-0.024,0.001-0.047,0.001-0.07C119.808,47.626,114.248,42.066,107.414,42.066z
				 M107.414,61.896c-4.101,0-7.437-3.335-7.437-7.436c0-4.1,3.336-7.438,7.437-7.438c4.1,0,7.436,3.338,7.436,7.438
				C114.85,58.561,111.514,61.896,107.414,61.896z"/>
			<path fill="#FFFFFF" d="M92.54,62c-4.101,0-7.436-3.336-7.436-7.436v-7.437h4.957c1.368,0,2.479-1.11,2.479-2.479
				c0-1.369-1.111-2.479-2.479-2.479h-4.957v-7.436c0-1.37-1.11-2.479-2.479-2.479c-1.37,0-2.479,1.11-2.479,2.479v19.831
				c0,6.834,5.561,12.394,12.395,12.394c1.369,0,2.479-1.11,2.479-2.479C95.019,63.11,93.909,62,92.54,62z"/>
			<path fill="#FFFFFF" d="M134.681,32.253h-2.479c-4.101,0-7.437,3.337-7.437,7.437v19.83c0,4.102,3.336,7.438,7.437,7.438h2.479
				c9.568,0,17.352-7.784,17.352-17.352C152.033,40.038,144.249,32.253,134.681,32.253z M134.681,62h-2.479
				c-1.366,0-2.479-1.112-2.479-2.479V39.69c0-1.367,1.113-2.479,2.479-2.479h2.479c6.834,0,12.395,5.561,12.395,12.395
				S141.515,62,134.681,62z"/>
			<path fill="#FFFFFF" d="M33.047,32.253h-2.478c-4.101,0-7.437,3.337-7.437,7.437v19.83c0,4.102,3.335,7.438,7.437,7.438h2.478
				c9.569,0,17.354-7.784,17.354-17.352C50.4,40.038,42.616,32.253,33.047,32.253z M33.047,62h-2.478
				c-1.367,0-2.48-1.112-2.48-2.479V39.69c0-1.367,1.113-2.479,2.48-2.479h2.478c6.835,0,12.396,5.561,12.396,12.395
				S39.882,62,33.047,62z"/>
		</g>
	</g>
	<g>
		<path fill="#FFFFFF" d="M179.774,20.551c2.388-1.868,2.361-5.604-1.141-5.604c-1.116,0-2.284,0.674-2.958,1.738
			c-1.038,1.635-3.762,0.545-2.724-1.791c1.167-2.283,3.425-3.191,5.683-3.191c6.149,0,8.588,6.331,3.658,11.131
			c-1.894,1.609-3.191,2.543-5.034,3.632c1.142,0,2.517-0.156,3.658-0.156h3.01c1.998,0,2.257,3.348,0,3.348h-10.067
			c-1.609,0-2.257-1.557-1.142-2.725C175.052,24.443,177.258,22.834,179.774,20.551z"/>
		<path fill="#FFFFFF" d="M194.409,29.943c-10.69,0-10.534-18.785-0.026-18.785C204.295,11.158,204.425,29.943,194.409,29.943z
			 M194.383,26.544c5.475,0,5.397-11.883,0.026-11.883C188.416,14.661,188.338,26.544,194.383,26.544z"/>
		<path fill="#FFFFFF" d="M206.241,15.828l-1.556,0.623c-2.076,0.675-3.321-2.387-0.96-3.166l3.659-1.349
			c1.193-0.519,2.284-0.026,2.284,1.816v14.53c0,1.92-3.426,1.972-3.426,0V15.828z"/>
		<path fill="#FFFFFF" d="M219.189,14.842h-6.928c-2.309,0-2.257-3.14,0-3.14h9.341c1.635,0,2.283,1.401,1.635,2.542l-7.732,14.557
			c-0.882,1.894-4.151,0.648-3.01-1.375L219.189,14.842z"/>
	</g>
	<path fill="none" stroke="#4B8AC9" stroke-miterlimit="10" d="M134.652,34.833c2.506,4.464,5.488,6.637,8.717,7.729"/>
	<g>
		<ellipse transform="matrix(0.8868 -0.4622 0.4622 0.8868 4.0364 64.2631)" fill="#EE6E66" cx="133.198" cy="23.892" rx="15.929" ry="17.947"/>
		<path fill="#FFFFFF" d="M126.758,31.359L122.09,17.38c-0.296-0.886,0.13-1.739,1.238-2.109c0.862-0.288,1.715,0.139,2.011,1.024
			l1.791,5.366l8.023-2.679l-1.792-5.365c-0.296-0.886,0.278-1.789,1.164-2.085c0.861-0.287,1.739,0.131,2.036,1.017l4.667,13.979
			c0.288,0.862-0.155,1.749-1.016,2.036c-0.886,0.296-1.896-0.106-2.183-0.967l-1.8-5.39l-8.023,2.679l1.8,5.39
			c0.288,0.861-0.129,1.739-0.992,2.027C127.908,32.67,127.046,32.22,126.758,31.359z"/>
		<animateMotion path="M0,0 -10,-4 0,0" begin="0.8s" dur="3s" repeatCount="indefinite"/>
	</g>
	<polygon fill="#B39DDB" points="219.539,69.765 228.963,72.979 222.756,76 	"/>
	<g fill="#6A9BE2">
		<polygon points="66.53,23.439 55.6,21.199 57.903,14.812 	"/>
		<animate attributeName="fill" from="#99CCFF" to="#6A9BE2" begin="0.8s" dur="0.5s" repeatCount="indefinite" />
	</g>
	<g fill="#EE6E66">
		<polygon points="97.461,24.311 95.47,32.355 89.499,26.608 	"/>
		<animate attributeName="fill" from="#EE6E66" to="#6387FC" begin="0.5s" dur="0.5s" repeatCount="indefinite" />
	</g>
	<g fill="#c4a9ff">
		<polygon points="19.09,64.813 14.71,71.524 8.254,69.614 13.134,64.978 18.016,60.343 	"/>
		<animate attributeName="fill" from="#c4a9ff" to="#9A7DE2" begin="0s" dur="0.5s" repeatCount="indefinite" />
	</g>
	<polygon fill="#B8D200" points="234,54.147 229.322,54.405 231.17,50.1 	"/>
	<polygon fill="#72AF43" points="9.874,19.567 20.455,37.291 19.854,42.066 6.89,33.403 	"/>
	<g fill="#99CCFF">
		<polygon points="240,29 228,37 223,36 230,27 	"/>
		<animate attributeName="fill" from="#99CCFF" to="#B8D200" begin="1s" dur="0.5s" repeatCount="indefinite" />
	</g>
	<polygon fill="#B39DDB" points="102.54,9.269 106.5,8.051 106.413,14.813 106.327,21.573 102.453,16.031 98.581,10.489 	"/>
	<polygon fill="#99CCFF" points="0,52.04 4.366,45 12.317,49.888 	"/>
	<g fill="#B8D200">
		<polygon points="125.533,70.929 128.461,72.969 125.23,74.484 122,76 122.302,72.444 122.605,68.889 	"/>
		<animate attributeName="fill" from="#B8D200" to="#908CE0" begin="1s" dur="0.5s" repeatCount="indefinite" />
	</g>
	</g>
</svg>


