<?xml version="1.0" encoding="utf-8"?>
<!-- Generator: Adobe Illustrator 16.0.0, SVG Export Plug-In . SVG Version: 6.00 Build 0)  -->
<!DOCTYPE svg PUBLIC "-//W3C//DTD SVG 1.1//EN" "http://www.w3.org/Graphics/SVG/1.1/DTD/svg11.dtd">
<svg version="1.1" id="图层_1" xmlns="http://www.w3.org/2000/svg" xmlns:xlink="http://www.w3.org/1999/xlink" x="0px" y="0px"
	 width="16px" height="16px" viewBox="0 0 16 16" enable-background="new 0 0 16 16" xml:space="preserve">
<g>
	<path fill="#0C2334" d="M14.755,1.017v2.447h0.007c0.228,0.904,0.341,1.711,0.341,2.419c0,1.888-0.637,3.434-1.911,4.636
		c-1.274,1.204-3.017,1.807-5.227,1.807c-2.194,0-3.934-0.603-5.215-1.807C1.468,9.316,0.826,7.802,0.826,5.978
		c0-0.668,0.108-1.494,0.323-2.476V1.015L0,1.017v5.031c0,3.106,0.834,5.42,2.502,6.938c1.494,1.354,3.354,2.029,5.581,2.029
		c1.659,0,3.123-0.379,4.39-1.139c1.266-0.758,2.171-1.762,2.713-3.008C15.729,9.621,16,7.802,16,5.411V1.017
		C16,1.017,15.01,1.017,14.755,1.017z"/>
	<path fill="#DF9F53" d="M13,4.015V2.025c-0.257,0.031-0.576,0.049-0.958,0.049H4c-0.431,0-0.778-0.021-1.041-0.06v2H13z"/>
</g>
</svg>
