<?xml version="1.0" encoding="utf-8"?>
<!-- Generator: Adobe Illustrator 16.0.0, SVG Export Plug-In . SVG Version: 6.00 Build 0)  -->
<!DOCTYPE svg PUBLIC "-//W3C//DTD SVG 1.1//EN" "http://www.w3.org/Graphics/SVG/1.1/DTD/svg11.dtd">
<svg version="1.1" id="图层_1" xmlns="http://www.w3.org/2000/svg" xmlns:xlink="http://www.w3.org/1999/xlink" x="0px" y="0px"
	 width="16px" height="16px" viewBox="0 0 16 16" enable-background="new 0 0 16 16" xml:space="preserve">
<path d="M4.83,15c-0.592-0.14-0.902-0.399-0.947-0.796c0-0.27,0.048-0.503,0.139-0.686l6.364-11.98C10.524,1.172,10.784,1,11.184,1
	c0.581,0.093,0.918,0.404,1.009,0.952c0,0.161-0.048,0.346-0.139,0.529L5.614,14.536c-0.022,0.021-0.062,0.055-0.062,0.055
	C5.327,14.862,5.09,14.995,4.83,15z M11.334,14.85c-1.743-0.099-2.662-1.02-2.808-2.815c0.146-1.832,1.068-2.826,2.818-3.021
	c1.728,0.194,2.673,1.189,2.869,3.042C14.021,13.829,13.077,14.751,11.334,14.85z M11.313,10.732
	c-0.656,0.109-1.017,0.549-1.069,1.303c0,1.032,0.593,1.247,1.09,1.247c0.492,0,1.094-0.213,1.162-1.23
	c-0.107-0.828-0.495-1.265-1.153-1.32l-0.014-0.002L11.313,10.732z M4.594,7.062C2.853,6.912,1.932,5.942,1.786,4.097
	c0.148-1.783,1.071-2.753,2.818-2.947C6.332,1.344,7.28,2.316,7.474,4.118C7.28,5.941,6.337,6.912,4.594,7.062z M4.584,2.867
	c-0.706,0.055-1.08,0.483-1.08,1.238c0,1.023,0.593,1.239,1.09,1.239c0.492,0,1.094-0.215,1.162-1.23
	C5.703,3.347,5.305,2.922,4.603,2.867L4.594,2.866L4.584,2.867z"/>
</svg>
