<?xml version="1.0" encoding="utf-8"?>
<!-- Generator: Adobe Illustrator 16.0.0, SVG Export Plug-In . SVG Version: 6.00 Build 0)  -->
<!DOCTYPE svg PUBLIC "-//W3C//DTD SVG 1.1//EN" "http://www.w3.org/Graphics/SVG/1.1/DTD/svg11.dtd">
<svg version="1.1" id="图层_1" xmlns="http://www.w3.org/2000/svg" xmlns:xlink="http://www.w3.org/1999/xlink" x="0px" y="0px"
	 width="24px" height="19px" viewBox="0 0 24 19" enable-background="new 0 0 24 19" xml:space="preserve">
<g>
	<path fill="#2F3032" d="M7.077,0C5.209,0,3.463,0.662,2.138,1.984C0.814,3.306,0,4.899,0,6.768v10.783c0,0.006,0-0.022,0,0
		c0,0.763,0.411,1.408,1.172,1.408c0.764,0,1.182-0.684,1.182-1.45c0-0.044,0,0.044,0,0v-5.315c1.761,0.894,2.851,1.341,4.388,1.341
		c1.87,0,3.631-0.661,4.954-1.981c1.324-1.32,2.069-2.916,2.069-4.785c0-1.868-0.619-3.462-1.942-4.783
		C10.498,0.662,8.946,0,7.077,0z M9.944,9.635c-0.789,0.797-1.747,1.192-2.867,1.192c-1.118,0-2.077-0.396-2.871-1.192
		C3.412,8.843,3.015,7.886,3.015,6.768c0-1.119,0.397-2.074,1.191-2.871C5,3.105,5.959,2.708,7.077,2.708
		c1.12,0,2.078,0.397,2.867,1.188c0.798,0.797,1.197,1.752,1.197,2.871C11.142,7.886,10.742,8.843,9.944,9.635z"/>
	<path fill="#2F3032" d="M22.667,16.297c-0.019,0-0.029,0.002-0.047,0.002c-0.946-0.029-2.118-0.426-2.883-1.188
		c-0.798-0.794-1.318-1.749-1.318-2.868V8.119h2.885h0.016l0,0c0.72,0,1.367-0.731,1.367-1.49c0-0.749-0.604-1.448-1.343-1.448l0,0
		h-2.925V2.126c0-0.067-0.043-1.503-1.407-1.577c-0.749-0.039-1.527,0.612-1.527,1.371c0,0.058,0,0.113,0,0.169v10.153
		c0,1.865,0.916,3.461,2.237,4.781c1.119,1.127,2.575,1.771,4.1,1.939c0.062,0.012,0.392,0.053,0.72,0.03
		C23.444,19.004,24,18.338,24,17.646C24,16.899,23.407,16.297,22.667,16.297z"/>
</g>
</svg>
