<?xml version="1.0" encoding="utf-8"?>
<!-- Generator: Adobe Illustrator 16.0.0, SVG Export Plug-In . SVG Version: 6.00 Build 0)  -->
<!DOCTYPE svg PUBLIC "-//W3C//DTD SVG 1.1//EN" "http://www.w3.org/Graphics/SVG/1.1/DTD/svg11.dtd">
<svg version="1.1" id="图层_1" xmlns="http://www.w3.org/2000/svg" xmlns:xlink="http://www.w3.org/1999/xlink" x="0px" y="0px"
	 width="16px" height="16px" viewBox="0 0 16 16" enable-background="new 0 0 16 16" xml:space="preserve">
<path d="M7.999,15c-0.433,0-0.785-0.354-0.785-0.786V11.45H4.448c-0.433,0-0.786-0.354-0.786-0.785c0-0.435,0.354-0.786,0.786-0.786
	h2.766v-1.98H4.448c-0.433,0-0.786-0.352-0.786-0.786c0-0.434,0.354-0.786,0.786-0.786H6.53L3.794,2.223
	c-0.239-0.361-0.141-0.85,0.219-1.089C4.143,1.047,4.293,1,4.448,1c0.266,0,0.51,0.132,0.655,0.353l2.896,4.343l2.896-4.343
	C11.042,1.132,11.286,1,11.55,1c0.156,0,0.307,0.047,0.437,0.134c0.175,0.116,0.295,0.295,0.336,0.5s-0.001,0.414-0.117,0.589
	L9.47,6.326h2.08c0.434,0,0.787,0.353,0.787,0.786c0,0.435-0.354,0.786-0.787,0.786H8.786v1.98h2.764
	c0.434,0,0.787,0.352,0.787,0.786c0,0.432-0.354,0.785-0.787,0.785H8.786v2.764C8.786,14.646,8.434,15,7.999,15z"/>
</svg>
