<?xml version="1.0" encoding="utf-8"?>
<!-- Generator: Adobe Illustrator 18.0.0, SVG Export Plug-In . SVG Version: 6.00 Build 0)  -->
<!DOCTYPE svg PUBLIC "-//W3C//DTD SVG 1.1//EN" "http://www.w3.org/Graphics/SVG/1.1/DTD/svg11.dtd">
<svg version="1.1" id="图层_1" xmlns="http://www.w3.org/2000/svg" xmlns:xlink="http://www.w3.org/1999/xlink" x="0px" y="0px"
	 viewBox="0 0 16 16" enable-background="new 0 0 16 16" xml:space="preserve">
<g>
	<path d="M11.5,2c-0.1-0.5-0.4-0.9-1-1c-0.4,0-0.7,0.2-0.8,0.5l-6.4,12c-0.1,0.2-0.1,0.4-0.1,0.7c0,0.4,0.4,0.7,0.9,0.8
		c0.3,0,0.5-0.1,0.7-0.4c0,0,0,0,0.1-0.1l6.4-12.1C11.5,2.3,11.5,2.1,11.5,2z"/>
	<path d="M14.6,8.7c0.2,0,0.4-0.1,0.5-0.2c0.1-0.1,0.2-0.2,0.2-0.4c0-0.2-0.1-0.3-0.2-0.4c-0.1-0.1-0.3-0.2-0.5-0.2h-3.6
		c-0.2,0-0.4,0-0.5,0.1s-0.2,0.2-0.3,0.3s-0.1,0.3-0.1,0.5v5.7c0,0.3,0.1,0.5,0.2,0.7c0.1,0.2,0.3,0.2,0.5,0.2
		c0.2,0,0.4-0.1,0.5-0.2c0.1-0.2,0.2-0.4,0.2-0.7v-2.5h2.5c0.2,0,0.4-0.1,0.5-0.2c0.1-0.1,0.2-0.2,0.2-0.4s-0.1-0.3-0.2-0.4
		c-0.1-0.1-0.3-0.2-0.5-0.2h-2.5V8.7H14.6z"/>
	<path d="M4.2,8.9c0.1-0.2,0.2-0.4,0.2-0.7V2.8H6c0.3,0,0.5-0.1,0.6-0.2c0.1-0.1,0.2-0.3,0.2-0.5S6.7,1.8,6.6,1.7
		C6.5,1.6,6.3,1.5,6,1.5H1.2C1,1.5,0.8,1.6,0.6,1.7C0.5,1.8,0.4,2,0.4,2.2c0,0.2,0.1,0.3,0.2,0.5c0.1,0.1,0.3,0.2,0.6,0.2h1.7v5.4
		c0,0.3,0.1,0.5,0.2,0.7c0.1,0.2,0.3,0.2,0.5,0.2C3.8,9.1,4,9.1,4.2,8.9z"/>
</g>
</svg>
