<?xml version="1.0" encoding="utf-8"?>
<!-- Generator: Adobe Illustrator 16.0.0, SVG Export Plug-In . SVG Version: 6.00 Build 0)  -->
<!DOCTYPE svg PUBLIC "-//W3C//DTD SVG 1.1//EN" "http://www.w3.org/Graphics/SVG/1.1/DTD/svg11.dtd">
<svg version="1.1" xmlns="http://www.w3.org/2000/svg" xmlns:xlink="http://www.w3.org/1999/xlink" x="0px" y="0px" width="16px"
	 height="16px" viewBox="0 0 16 16" enable-background="new 0 0 16 16" xml:space="preserve">
<g id="图层_1">
	<g>
		<rect x="4.438" y="8.088" transform="matrix(-0.7071 0.7071 -0.7071 -0.7071 18.845 9.1317)" width="6.187" height="0.762"/>
		<path d="M14,0H2C0.9,0,0,0.9,0,2v12c0,1.1,0.9,2,2,2h12c1.1,0,2-0.9,2-2V2C16,0.9,15.1,0,14,0z M5.813,12.375L3,13l0.625-2.813
			l5.781-5.781l2.188,2.188L5.813,12.375z M12.688,5.5l-0.625,0.625L9.875,3.938L10.5,3.313C10.761,3.116,11.086,3,11.438,3
			C12.301,3,13,3.699,13,4.563C13,4.914,12.884,5.239,12.688,5.5z"/>
	</g>
</g>
<g id="图层_2">
</g>
</svg>
