<?xml version="1.0" encoding="utf-8"?>
<!-- Generator: Adobe Illustrator 16.0.0, SVG Export Plug-In . SVG Version: 6.00 Build 0)  -->
<!DOCTYPE svg PUBLIC "-//W3C//DTD SVG 1.1//EN" "http://www.w3.org/Graphics/SVG/1.1/DTD/svg11.dtd">
<svg version="1.1" id="图层_1" xmlns="http://www.w3.org/2000/svg" xmlns:xlink="http://www.w3.org/1999/xlink" x="0px" y="0px"
	 width="16px" height="16px" viewBox="0 0 16 16" enable-background="new 0 0 16 16" xml:space="preserve">
<g>
	<path fill="#4386FA" d="M4.889,15.2c-0.57,0-1.265-0.395-1.544-0.879L0.209,8.88c-0.278-0.484-0.278-1.275,0-1.758l3.136-5.443
		C3.624,1.196,4.318,0.8,4.889,0.8h6.224c0.569,0,1.265,0.396,1.543,0.879l3.136,5.443c0.279,0.482,0.279,1.273,0,1.758
		l-3.136,5.441c-0.278,0.484-0.974,0.879-1.543,0.879H4.889z"/>
	<path fill="#407BE0" d="M14.816,10.572L10.244,6l-0.013,0.014C9.681,5.396,8.89,5,8.001,5c-1.653,0-3,1.347-3,3
		c0,0.889,0.396,1.68,1.014,2.23l-0.014,0.013l4.956,4.956h0.156c0.569,0,1.265-0.395,1.543-0.879L14.816,10.572z"/>
	<path fill="#FFFFFF" d="M8,11c-1.653,0-3-1.347-3-3s1.347-3,3-3s3,1.347,3,3S9.653,11,8,11z M8,5.828
		C6.802,5.828,5.828,6.802,5.828,8S6.802,10.172,8,10.172S10.172,9.198,10.172,8S9.198,5.828,8,5.828z"/>
	<g>
		<path fill="#FFFFFF" d="M11.194,11.402c-0.078,0.078-0.205,0.078-0.283,0L9.452,9.944c-0.078-0.078-0.078-0.205,0-0.283
			l0.282-0.282c0.078-0.078,0.205-0.078,0.283,0l1.459,1.458c0.078,0.078,0.078,0.205,0,0.283L11.194,11.402z"/>
	</g>
	<g>
		<path fill="#FFFFFF" d="M7.7,7.046V9.47C7.797,9.489,7.897,9.5,8,9.5s0.203-0.011,0.3-0.03V7.046H7.7z"/>
		<path fill="#FFFFFF" d="M9.409,8.496V8h-0.6v1.259C9.087,9.08,9.298,8.812,9.409,8.496z"/>
		<path fill="#FFFFFF" d="M6.591,7.625v0.871c0.111,0.315,0.322,0.584,0.6,0.763V7.625H6.591z"/>
	</g>
</g>
</svg>
