<?xml version="1.0" encoding="utf-8"?>
<!-- Generator: Adobe Illustrator 16.0.0, SVG Export Plug-In . SVG Version: 6.00 Build 0)  -->
<!DOCTYPE svg PUBLIC "-//W3C//DTD SVG 1.1//EN" "http://www.w3.org/Graphics/SVG/1.1/DTD/svg11.dtd">
<svg version="1.1" id="图层_1" xmlns="http://www.w3.org/2000/svg" xmlns:xlink="http://www.w3.org/1999/xlink" x="0px" y="0px"
	 width="16px" height="16px" viewBox="0 0 16 16" enable-background="new 0 0 16 16" xml:space="preserve">
<path d="M0.996,11.7c0.129-0.172,3.188-4.2,6.4-4.2h5.793L9.043,3.354c-0.195-0.195-0.195-0.512,0-0.707s0.512-0.195,0.707,0
	l4.999,4.999c0.001,0.001,0.001,0.001,0.002,0.002L15.104,8l-0.353,0.353c-0.001,0.001-0.001,0.001-0.002,0.002L9.75,13.354
	C9.652,13.451,9.524,13.5,9.396,13.5s-0.256-0.049-0.354-0.146c-0.195-0.195-0.195-0.512,0-0.707L13.189,8.5H7.396
	c-2.713,0-5.571,3.762-5.601,3.8c-0.098,0.131-0.248,0.2-0.399,0.2c-0.104,0-0.21-0.032-0.3-0.101
	C0.876,12.234,0.831,11.921,0.996,11.7z"/>
</svg>
