<?xml version="1.0" encoding="utf-8"?>
<!-- Generator: Adobe Illustrator 16.0.0, SVG Export Plug-In . SVG Version: 6.00 Build 0)  -->
<!DOCTYPE svg PUBLIC "-//W3C//DTD SVG 1.1//EN" "http://www.w3.org/Graphics/SVG/1.1/DTD/svg11.dtd">
<svg version="1.1" id="图层_1" xmlns="http://www.w3.org/2000/svg" xmlns:xlink="http://www.w3.org/1999/xlink" x="0px" y="0px"
	 width="20px" height="20px" viewBox="0 0 20 20" enable-background="new 0 0 20 20" xml:space="preserve">
<g>
	<path d="M11.516,13.094C11.688,12.609,13,10.938,13,8c0-1.657-1.343-3-3-3S7,6.343,7,8c0,2.938,1.313,4.609,1.484,5.094
		C6.953,13.234,4,14.211,4,16c0,0.422,0.336,1,1,1h10c0.664,0,1-0.578,1-1C16,14.211,13.047,13.234,11.516,13.094z M16.648,10.039
		C16.889,9.311,18,7.273,18,6c0-1.657-1.344-3-3-3c-0.84,0-1.6,0.346-2.143,0.902C14.15,4.809,15,6.307,15,8
		c0,1.521-0.297,2.779-0.645,3.748c0.774,0.307,1.526,0.723,2.146,1.252H19c0.578,0,1-0.453,1-1
		C20,10.742,17.578,10.211,16.648,10.039z M0,12c0,0.547,0.422,1,1,1h2.499c0.619-0.529,1.371-0.945,2.146-1.252
		C5.297,10.779,5,9.521,5,8c0-1.693,0.85-3.191,2.143-4.098C6.6,3.346,5.84,3,5,3C3.344,3,2,4.343,2,6
		c0,1.273,1.111,3.311,1.352,4.039C2.422,10.211,0,10.742,0,12z"/>
</g>
</svg>
