<?xml version="1.0" encoding="utf-8"?>
<!-- Generator: Adobe Illustrator 18.0.0, SVG Export Plug-In . SVG Version: 6.00 Build 0)  -->
<!DOCTYPE svg PUBLIC "-//W3C//DTD SVG 1.1//EN" "http://www.w3.org/Graphics/SVG/1.1/DTD/svg11.dtd">
<svg version="1.1" id="图层_1" xmlns="http://www.w3.org/2000/svg" xmlns:xlink="http://www.w3.org/1999/xlink" x="0px" y="0px"
	 viewBox="0 0 16 16" enable-background="new 0 0 16 16" xml:space="preserve">
<rect y="0" fill="#2E98D2" width="16" height="16"/>
<g>
	<path fill="#FFFFFF" d="M8.7,6.9C7.9,6.6,7.5,6.4,7.5,6c0-0.3,0.3-0.5,0.7-0.5c0.8,0,1.7,0.3,2.3,0.6l0.3-2
		c-0.5-0.2-1.4-0.6-2.7-0.6c-0.9,0-1.7,0.2-2.3,0.7c-0.6,0.5-0.9,1.2-0.9,2c0,1.5,0.9,2.1,2.4,2.7c1,0.3,1.3,0.6,1.3,1
		c0,0.4-0.3,0.6-0.9,0.6c-0.7,0-1.8-0.3-2.6-0.8l-0.3,2.1c0.6,0.4,1.8,0.7,3.1,0.7c1,0,1.8-0.2,2.4-0.7c0.6-0.5,0.9-1.2,0.9-2.1
		C11.2,8.1,10.2,7.5,8.7,6.9L8.7,6.9z"/>
</g>
</svg>
