<?xml version="1.0" encoding="utf-8"?>
<!-- Generator: Adobe Illustrator 17.0.0, SVG Export Plug-In . SVG Version: 6.00 Build 0)  -->
<!DOCTYPE svg PUBLIC "-//W3C//DTD SVG 1.1//EN" "http://www.w3.org/Graphics/SVG/1.1/DTD/svg11.dtd">
<svg version="1.1" id="图层_1" xmlns="http://www.w3.org/2000/svg" xmlns:xlink="http://www.w3.org/1999/xlink" x="0px" y="0px"
	 width="40px" height="40px" viewBox="0 0 40 40" enable-background="new 0 0 40 40" xml:space="preserve">
<path d="M39.251,8.059c-1.416,0.627-2.94,1.053-4.538,1.244c1.631-0.979,2.883-2.526,3.474-4.37
	C36.66,5.839,34.97,6.497,33.171,6.85c-1.442-1.536-3.494-2.494-5.765-2.494c-4.363,0-7.899,3.537-7.899,7.899
	c0,0.619,0.071,1.222,0.205,1.799c-6.564-0.329-12.385-3.474-16.28-8.253c-0.68,1.167-1.07,2.523-1.07,3.971
	c0,2.741,1.395,5.158,3.514,6.575c-1.295-0.041-2.512-0.396-3.578-0.987c-0.001,0.032-0.001,0.066-0.001,0.099
	c0,3.828,2.722,7.019,6.335,7.746c-0.663,0.181-1.361,0.276-2.081,0.276c-0.509,0-1.003-0.049-1.486-0.141
	c1.006,3.137,3.922,5.421,7.379,5.485c-2.704,2.118-6.11,3.381-9.81,3.381c-0.638,0-1.267-0.038-1.885-0.112
	c3.495,2.242,7.648,3.549,12.109,3.549c14.528,0,22.473-12.036,22.473-22.474c0-0.343-0.007-0.684-0.022-1.022
	C36.852,11.033,38.192,9.642,39.251,8.059z"/>
</svg>
