<?xml version="1.0" encoding="utf-8"?>
<!-- Generator: Adobe Illustrator 16.0.0, SVG Export Plug-In . SVG Version: 6.00 Build 0)  -->
<!DOCTYPE svg PUBLIC "-//W3C//DTD SVG 1.1//EN" "http://www.w3.org/Graphics/SVG/1.1/DTD/svg11.dtd">
<svg version="1.1" id="图层_1" xmlns="http://www.w3.org/2000/svg" xmlns:xlink="http://www.w3.org/1999/xlink" x="0px" y="0px"
	 width="16px" height="16px" viewBox="0 0 16 16" enable-background="new 0 0 16 16" xml:space="preserve">
<g>
	<path fill="#8C3123" d="M2.126,2.775L0.998,3.31v9.36l1.128,0.529l0.006-0.007V2.783L2.126,2.775"/>
	<path fill="#E05243" d="M7.998,11.842l-5.872,1.357V2.775l5.872,1.329V11.842"/>
	<path fill="#8C3123" d="M5.438,9.714l2.56,0.309l0.017-0.035l0.014-3.97l-0.03-0.031L5.438,6.29V9.714"/>
	<path fill="#8C3123" d="M7.997,11.856l5.873,1.347l0.009-0.015V2.785l-0.01-0.01L7.997,4.12V11.856"/>
	<path fill="#E05243" d="M10.559,9.714l-2.562,0.309V5.986l2.562,0.304V9.714"/>
	<path fill="#5E1F18" d="M10.559,4.635l-2.562,0.44l-2.56-0.44l2.557-0.634L10.559,4.635"/>
	<path fill="#F2B0A9" d="M10.559,11.365l-2.562-0.444l-2.56,0.444l2.557,0.675L10.559,11.365"/>
	<path fill="#8C3123" d="M5.438,4.635l2.56-0.599l0.021-0.007V0.017L7.997,0l-2.56,1.21V4.635"/>
	<path fill="#E05243" d="M10.559,4.635L7.997,4.036V0l2.562,1.21V4.635"/>
	<path fill="#8C3123" d="M7.997,16l-2.56-1.21v-3.425l2.56,0.6l0.039,0.041l-0.011,3.925L7.997,16"/>
	<path fill="#E05243" d="M7.997,16l2.562-1.21v-3.425l-2.562,0.6V16"/>
	<path fill="#E05243" d="M13.87,2.775l1.128,0.534v9.36l-1.128,0.533V2.775"/>
</g>
</svg>
