<?xml version="1.0" encoding="utf-8"?>
<!-- Generator: Adobe Illustrator 16.0.0, SVG Export Plug-In . SVG Version: 6.00 Build 0)  -->
<!DOCTYPE svg PUBLIC "-//W3C//DTD SVG 1.1//EN" "http://www.w3.org/Graphics/SVG/1.1/DTD/svg11.dtd">
<svg version="1.1" id="图层_1" xmlns="http://www.w3.org/2000/svg" xmlns:xlink="http://www.w3.org/1999/xlink" x="0px" y="0px"
	 width="16px" height="16px" viewBox="0 0 16 16" enable-background="new 0 0 16 16" xml:space="preserve">
<path d="M10.638,7.703C10.183,7.479,9.676,7.268,9.025,7.03V3.593c0.521,0.145,0.857,0.461,0.983,0.961
	c0.049,0.198,0.095,0.404,0.196,0.684l1.526-0.003c0.15,0,0.305,0,0.332-0.021c0.019-0.031,0.003-0.185-0.011-0.333
	c-0.136-1.315-0.82-2.192-2.097-2.681C9.634,2.079,9.309,2.024,9.025,1.988V0.795C9.025,0.356,8.669,0,8.23,0
	C7.791,0,7.436,0.356,7.436,0.795v1.188C7.287,2.002,7.137,2.017,6.99,2.045c-1.382,0.243-2.35,1.314-2.525,2.798
	c-0.122,1.025,0.061,2.41,1.628,3.191c0.421,0.211,0.866,0.356,1.343,0.498v3.765c-0.643-0.209-1.021-0.605-1.126-1.227
	l-0.041-0.228c-0.029-0.159-0.061-0.318-0.138-0.556c-0.324,0.004-0.646,0.008-0.97,0.008l-0.994,0.026
	c0,0.275,0.015,0.548,0.059,0.82c0.211,1.302,0.851,2.125,1.955,2.517c0.41,0.146,0.838,0.23,1.255,0.299v1.248
	C7.436,15.644,7.791,16,8.23,16c0.438,0,0.795-0.356,0.795-0.795v-1.248c0.053-0.001,0.108-0.001,0.147-0.012l0.164-0.031
	c0.992-0.205,1.7-0.588,2.226-1.204c0.443-0.519,0.681-1.183,0.724-2.032C12.357,9.263,11.818,8.289,10.638,7.703z M6.427,5.555
	C6.264,5.072,6.303,4.598,6.538,4.224C6.73,3.914,7.048,3.701,7.436,3.6v2.909C7.02,6.335,6.605,6.085,6.427,5.555z M10.173,11.235
	c-0.117,0.569-0.492,0.92-1.147,1.074V9.08C9.18,9.146,9.335,9.217,9.49,9.31C10.118,9.688,10.354,10.354,10.173,11.235z"/>
</svg>
