<?xml version="1.0" encoding="utf-8"?>
<!-- Generator: Adobe Illustrator 16.0.0, SVG Export Plug-In . SVG Version: 6.00 Build 0)  -->
<!DOCTYPE svg PUBLIC "-//W3C//DTD SVG 1.1//EN" "http://www.w3.org/Graphics/SVG/1.1/DTD/svg11.dtd">
<svg version="1.1" id="图层_1" xmlns="http://www.w3.org/2000/svg" xmlns:xlink="http://www.w3.org/1999/xlink" x="0px" y="0px"
	 width="16px" height="16px" viewBox="0 0 16 16" enable-background="new 0 0 16 16" xml:space="preserve">
<g>
	<path fill="#E4004F" d="M14.962,6.98c0-3.855-3.125-6.98-6.98-6.98S1,3.125,1,6.98c0,3.05,1.954,5.64,4.679,6.591v2.01
		c0,0.256,0.278,0.491,0.563,0.398c1.714-0.59,4.178-1.772,6.401-3.803C14.066,10.898,14.962,9.046,14.962,6.98"/>
	<path fill="#FFFFFF" d="M7.981,11.718c-2.088,0-3.956-1.398-4.543-3.402C3.364,8.064,3.509,7.801,3.76,7.727
		c0.252-0.073,0.516,0.07,0.589,0.322c0.471,1.602,1.964,2.72,3.633,2.72c1.668,0,3.162-1.118,3.632-2.72
		c0.073-0.252,0.338-0.396,0.589-0.322c0.252,0.074,0.396,0.338,0.322,0.589C11.937,10.319,10.068,11.718,7.981,11.718"/>
</g>
</svg>
