<svg version="1.1" xmlns="http://www.w3.org/2000/svg" xmlns:xlink="http://www.w3.org/1999/xlink" x="0px" y="0px"
	 width="267px" height="68px" viewBox="0 0 267 68" enable-background="new 0 0 267 68" xml:space="preserve">
		<g>
			<g>
				<path fill="#689F38" d="M152.725,31.532c-2.942,0.6-5.941,0.295-8.596-1.156c-0.855-0.469-1.575-1.047-2.179-1.713
					c0.103-0.031,0.202-0.074,0.292-0.137c1.326-0.92,2.608-2.021,3.096-3.619c0.528-1.725-2.13-2.588-2.656-0.865
					c-0.261,0.854-1.015,1.508-1.737,2.008c-0.177,0.121-0.329,0.268-0.449,0.43c-0.485-0.998-0.825-2.084-1.056-3.221
					c-0.356-1.766-3.082-1.146-2.725,0.617c0.635,3.143,2.047,5.93,4.515,7.898c-1.274,0.359-2.456,0.223-3.808-0.672
					c-1.508-0.996-3.021,1.354-1.52,2.346c2.742,1.814,5.428,1.604,8.271,0.123c0.022-0.01,0.042-0.023,0.063-0.035
					c2.854,1.178,6.085,1.34,9.106,0.723C155.106,33.897,154.49,31.175,152.725,31.532z"/>
				<path fill="#689F38" d="M168.278,28.069c2.898-0.789,5.438-2.408,7.161-4.898c0.553-0.799,0.937-1.639,1.176-2.504
					c-0.104,0.02-0.212,0.025-0.322,0.006c-1.6-0.225-3.236-0.633-4.393-1.842c-1.245-1.305,0.742-3.268,1.984-1.965
					c0.62,0.645,1.586,0.891,2.456,1.016c0.21,0.027,0.414,0.09,0.594,0.178c-0.015-1.109-0.197-2.236-0.503-3.352
					c-0.474-1.734,2.24-2.408,2.713-0.67c0.843,3.094,0.833,6.217-0.486,9.086c1.298-0.252,2.293-0.904,3.1-2.313
					c0.9-1.566,3.307-0.148,2.412,1.414c-1.636,2.852-4.133,3.869-7.336,3.824c-0.024,0-0.048-0.004-0.071-0.004
					c-2.022,2.338-4.837,3.93-7.814,4.736C167.211,31.255,166.537,28.542,168.278,28.069z"/>
			</g>
			<g class="pt-deer">
				<path fill="#BF6410" d="M39.794,22.944c2.833-1.273,6.546,0.852,6.546,0.852s-0.871,4.188-3.702,5.465
					c-2.835,1.273-5.761,0.893-6.548-0.848C35.308,26.669,36.964,24.22,39.794,22.944z"/>
				<g>
					<path fill="#604C3F" d="M21.962,34.071c-2.639,2.34-5.867,3.799-9.417,3.898c-1.146,0.025-2.218-0.139-3.226-0.457
						c0.087-0.096,0.158-0.193,0.218-0.309c0.802-1.723,1.455-3.59,1.008-5.512c-0.481-2.059-3.692-1.365-3.206,0.693
						c0.239,1.02-0.142,2.131-0.585,3.061c-0.103,0.234-0.174,0.471-0.2,0.701c-1.082-0.721-2.07-1.627-2.974-2.646
						c-1.408-1.582-3.809,0.652-2.403,2.236c2.501,2.82,5.583,4.82,9.246,5.357c-1.083,1.117-2.365,1.676-4.265,1.568
						C4.034,42.54,3.89,45.817,5.997,45.94c3.859,0.23,6.462-1.578,8.475-4.752c0.023-0.021,0.034-0.049,0.047-0.076
						c3.602-0.486,6.971-2.229,9.68-4.637C25.777,35.071,23.543,32.661,21.962,34.071z"/>
					<path fill="#604C3F" d="M32.577,25.157c2.48-2.51,4.104-5.656,4.385-9.203c0.089-1.139-0.02-2.219-0.282-3.238
						c-0.099,0.078-0.201,0.148-0.322,0.201c-1.759,0.709-3.663,1.264-5.551,0.719c-2.036-0.598-1.175-3.766,0.857-3.17
						c1.008,0.287,2.134-0.033,3.091-0.42c0.23-0.096,0.473-0.154,0.712-0.17c-0.669-1.115-1.522-2.158-2.492-3.105
						c-1.511-1.484,0.853-3.77,2.36-2.283c2.686,2.646,4.516,5.832,4.867,9.521c1.171-1.023,1.797-2.273,1.786-4.18
						c-0.01-2.127,3.269-2.104,3.282,0.008c0.023,3.865-1.909,6.371-5.193,8.215c-0.025,0.02-0.052,0.025-0.077,0.039
						c-0.676,3.57-2.597,6.842-5.143,9.424C33.369,29.019,31.085,26.659,32.577,25.157z"/>
				</g>
				<g>
					<path fill="#E87E11" d="M31.497,25.122l-2.909,0.824c-7.32,2.074-7.509,6.813-6.264,11.209l6.599,23.291
						c1.365,4.818,6.396,7.627,11.215,6.262l2.909-0.824c11.239-3.186,17.793-14.92,14.608-26.154
						C54.472,28.491,42.736,21.938,31.497,25.122z"/>
				</g>
				<path fill="#F5B471" d="M60.501,51.72c-2.343,8.186-9.422,13.328-15.814,11.5c-6.384-1.828-9.667-9.955-7.318-18.141
					c2.35-8.176,9.429-13.326,15.817-11.5C59.573,35.419,62.852,43.534,60.501,51.72z"/>
				<path fill="#802C09" d="M55.738,43.915c-2.633,2.107-6.1,2.139-7.741,0.08c-1.643-2.059-0.838-5.436,1.797-7.531
					c2.635-2.113,6.106-2.145,7.751-0.096C59.185,38.435,58.378,41.81,55.738,43.915z"/>
				<path fill="#2F3032" d="M35.564,35.702c0.353,1.238-0.367,2.531-1.611,2.885c-1.243,0.352-2.534-0.371-2.886-1.611
					c-0.351-1.24,0.369-2.535,1.612-2.887C33.921,33.737,35.214,34.462,35.564,35.702z"/>
				<path fill="#E87E11" d="M24.261,43.37c-1.788,2.533-6.066,2.6-6.066,2.6s-1.38-4.047,0.401-6.59
					c1.789-2.537,4.504-3.703,6.065-2.604C26.227,37.876,26.042,40.825,24.261,43.37z"/>
			</g>
			<g>
				<path fill="#FFFFFF" d="M265.716,61.347L253.699,50.53l9.115-7.973c1.195-1.045,1.313-2.857,0.27-4.053
					c-1.044-1.191-2.855-1.313-4.05-0.268l-9.593,8.393V29.032c0-1.586-1.287-2.873-2.871-2.873c-1.585,0-2.872,1.287-2.872,2.873
					v34.447c0,1.586,1.287,2.871,2.872,2.871c1.584,0,2.871-1.285,2.871-2.871v-9.059l12.432,11.193
					c0.55,0.492,1.237,0.736,1.922,0.736c0.783,0,1.565-0.32,2.135-0.949C266.989,64.222,266.894,62.409,265.716,61.347z"/>
				<path fill="#FFFFFF" d="M80.051,37.528c-7.916,0-14.354,6.436-14.354,14.35c0,7.92,6.438,14.355,14.354,14.355
					c3.226,0,6.212-1.07,8.611-2.879v0.008c0,1.588,1.285,2.871,2.871,2.871s2.87-1.283,2.87-2.871V51.878
					C94.403,43.964,87.963,37.528,80.051,37.528z M80.051,60.493c-4.75,0-8.612-3.865-8.612-8.615c0-4.748,3.862-8.605,8.612-8.605
					c4.746,0,8.611,3.857,8.611,8.605C88.662,56.628,84.797,60.493,80.051,60.493z"/>
				<path fill="#FFFFFF" d="M128.874,37.409c-7.916,0-14.356,6.438-14.356,14.35c0,7.916,6.44,14.357,14.356,14.357
					c3.229,0,6.211-1.072,8.608-2.883v0.129c0,1.588,1.284,2.871,2.874,2.871c1.583,0,2.867-1.283,2.867-2.871V51.878
					c0-0.012,0-0.025,0-0.037c0-0.025,0-0.053,0-0.082C143.224,43.847,136.787,37.409,128.874,37.409z M128.874,60.372
					c-4.75,0-8.615-3.863-8.615-8.613c0-4.746,3.865-8.611,8.615-8.611c4.747,0,8.608,3.865,8.608,8.611
					C137.482,56.509,133.621,60.372,128.874,60.372z"/>
				<path fill="#FFFFFF" d="M111.647,60.493c-4.75,0-8.612-3.865-8.612-8.615v-8.605h5.741c1.59,0,2.871-1.291,2.871-2.877
					c0-1.584-1.281-2.867-2.871-2.867h-5.741v-8.615c0-1.584-1.284-2.867-2.87-2.867c-1.587,0-2.871,1.283-2.871,2.867v22.965
					c0,7.92,6.44,14.355,14.354,14.355c1.586,0,2.87-1.283,2.87-2.871C114.518,61.78,113.233,60.493,111.647,60.493z"/>
				<path fill="#FFFFFF" d="M229.348,43.384c2.298,0,4.462,0.896,6.088,2.521c1.121,1.123,2.938,1.123,4.062,0
					c1.119-1.119,1.119-2.938,0-4.059c-2.712-2.707-6.315-4.203-10.149-4.203c-7.917,0-14.355,6.439-14.355,14.352
					c0,7.918,6.438,14.355,14.355,14.355c3.834,0,7.438-1.49,10.149-4.205c1.119-1.119,1.119-2.936,0-4.059
					c-1.124-1.121-2.94-1.121-4.062,0c-1.626,1.629-3.79,2.523-6.088,2.523c-4.75,0-8.612-3.865-8.612-8.615
					S224.598,43.384,229.348,43.384z"/>
				<path fill="#FFFFFF" d="M197.748,37.528c-7.913,0-14.353,6.436-14.353,14.35c0,7.92,6.439,14.355,14.353,14.355
					c2.589,0,7.412-0.482,10.643-3.711c1.119-1.123,1.119-2.938,0-4.061c-1.123-1.121-2.938-1.121-4.059,0
					c-1.29,1.289-3.69,2.031-6.584,2.031c-3.741,0-6.932-2.4-8.118-5.74h19.62c1.589,0,2.874-1.285,2.874-2.875
					c0-0.131-0.014-0.264-0.03-0.395C211.882,43.755,205.529,37.528,197.748,37.528z M197.748,43.272c3.744,0,6.934,2.396,8.119,5.738
					H189.63C190.816,45.669,194.007,43.272,197.748,43.272z"/>
				<path fill="#FFFFFF" d="M160.447,26.046h-2.867c-4.75,0-8.615,3.861-8.615,8.609v22.963c0,4.752,3.865,8.615,8.615,8.615h2.867
					c11.082,0,20.098-9.014,20.098-20.094S171.529,26.046,160.447,26.046z M160.447,60.493h-2.867c-1.584,0-2.874-1.289-2.874-2.875
					V34.655c0-1.582,1.29-2.871,2.874-2.871h2.867c7.916,0,14.356,6.438,14.356,14.355C174.804,54.052,168.363,60.493,160.447,60.493z
					"/>
			</g>
		</g>
</svg>