<?xml version="1.0" encoding="utf-8"?>
<!-- Generator: Adobe Illustrator 17.0.0, SVG Export Plug-In . SVG Version: 6.00 Build 0)  -->
<!DOCTYPE svg PUBLIC "-//W3C//DTD SVG 1.1//EN" "http://www.w3.org/Graphics/SVG/1.1/DTD/svg11.dtd">
<svg version="1.1" id="图层_1" xmlns="http://www.w3.org/2000/svg" xmlns:xlink="http://www.w3.org/1999/xlink" x="0px" y="0px"
	 width="16px" height="16px" viewBox="0 0 16 16" enable-background="new 0 0 16 16" xml:space="preserve">
<circle display="none" cx="8" cy="8.156" r="8"/>
<g>
	<path d="M6.147,10.009c0,0.153-0.053,0.283-0.16,0.392c-0.106,0.108-0.235,0.162-0.384,0.162c-0.153,0-0.284-0.054-0.392-0.162
		c-0.108-0.109-0.162-0.239-0.162-0.392c0-0.15,0.054-0.28,0.162-0.39c0.108-0.11,0.239-0.164,0.392-0.164
		c0.15,0,0.278,0.054,0.384,0.161C6.094,9.725,6.147,9.856,6.147,10.009z"/>
	<path d="M15.876,10.009c0,0.153-0.053,0.283-0.16,0.392c-0.106,0.108-0.235,0.162-0.384,0.162c-0.153,0-0.284-0.054-0.392-0.162
		c-0.108-0.109-0.162-0.239-0.162-0.392c0-0.15,0.054-0.28,0.162-0.39c0.108-0.11,0.239-0.164,0.392-0.164
		c0.15,0,0.278,0.054,0.384,0.161C15.823,9.725,15.876,9.856,15.876,10.009z"/>
</g>
<g>
	<path d="M6.837,3.954c0,0.587-0.348,1.162-1.043,1.724C5.098,6.239,4.127,6.52,2.88,6.52C2.849,6.654,2.828,6.785,2.818,6.914
		c-0.01,0.129-0.015,0.25-0.015,0.363c0,0.361,0.072,0.66,0.216,0.897c0.144,0.237,0.386,0.355,0.727,0.355
		c0.402,0,0.778-0.129,1.128-0.387c0.35-0.257,0.628-0.53,0.834-0.819c0.052,0,0.088,0.005,0.108,0.016S5.86,7.367,5.886,7.393
		s0.049,0.049,0.07,0.069C5.997,7.504,6.039,7.558,6.08,7.625S6.131,7.741,6.11,7.772C5.863,8.277,5.42,8.717,4.781,9.094
		C4.142,9.47,3.514,9.657,2.896,9.657c-0.732,0-1.337-0.211-1.816-0.634C0.6,8.602,0.36,8.076,0.36,7.447
		c0-1.319,0.528-2.512,1.584-3.579c1.056-1.067,2.068-1.6,3.037-1.6c0.68,0,1.16,0.173,1.438,0.518
		C6.698,3.132,6.837,3.521,6.837,3.954z M4.936,3.814c0-0.175-0.023-0.307-0.069-0.394C4.82,3.333,4.714,3.289,4.549,3.289
		c-0.319,0-0.634,0.255-0.943,0.765c-0.309,0.51-0.51,1.084-0.603,1.724c0.557,0,1.018-0.219,1.384-0.657
		C4.753,4.683,4.936,4.247,4.936,3.814z"/>
	<path d="M15.834,3.552c-0.021,0.144-0.062,0.312-0.123,0.502c-0.062,0.19-0.135,0.286-0.217,0.286l-1.006-0.046
		c0,0.052,0.006,0.121,0.016,0.209c0.01,0.087,0.016,0.167,0.016,0.239c0,0.897-0.35,1.608-1.051,2.133
		c-0.701,0.526-1.67,0.789-2.906,0.789c-0.309,0-0.527,0.044-0.656,0.131c-0.129,0.088-0.193,0.167-0.193,0.24
		c0,0.237,0.27,0.42,0.811,0.549c0.541,0.128,1.014,0.25,1.414,0.363c0.525,0.133,1.029,0.345,1.508,0.633
		c0.479,0.289,0.719,0.701,0.719,1.237c0,0.762-0.436,1.424-1.307,1.986c-0.871,0.562-1.775,0.842-2.713,0.842
		c-1.144,0-2.058-0.2-2.743-0.603c-0.686-0.402-1.028-0.871-1.028-1.406c0-0.443,0.163-0.805,0.487-1.082
		c0.325-0.278,0.873-0.47,1.646-0.572c-0.35-0.134-0.623-0.291-0.819-0.472s-0.293-0.39-0.293-0.626c0-0.34,0.162-0.657,0.487-0.951
		C8.205,7.64,8.702,7.442,9.373,7.339C8.939,7.123,8.619,6.862,8.414,6.558c-0.206-0.304-0.309-0.667-0.309-1.09
		c0-0.958,0.384-1.731,1.151-2.318s1.6-0.881,2.496-0.881c0.629,0,1.129,0.096,1.5,0.286s0.664,0.44,0.881,0.75l1.592-0.062
		c0.053,0,0.086,0.033,0.102,0.1C15.842,3.41,15.844,3.479,15.834,3.552z M12.217,11.651c0-0.401-0.273-0.683-0.82-0.842
		c-0.545-0.16-1.236-0.322-2.07-0.487c-0.41,0.072-0.723,0.206-0.938,0.402c-0.215,0.195-0.323,0.479-0.323,0.85
		c0,0.382,0.162,0.698,0.486,0.951c0.324,0.252,0.866,0.379,1.628,0.379c0.648,0,1.15-0.135,1.504-0.402
		C12.039,12.234,12.217,11.95,12.217,11.651z M12.402,3.691c0-0.196-0.047-0.358-0.139-0.487c-0.094-0.128-0.217-0.193-0.371-0.193
		c-0.311,0-0.652,0.353-1.029,1.059c-0.375,0.706-0.564,1.435-0.564,2.188c0,0.196,0.045,0.355,0.133,0.479
		c0.088,0.124,0.219,0.186,0.395,0.186c0.4,0,0.764-0.366,1.088-1.097C12.24,5.092,12.402,4.381,12.402,3.691z"/>
</g>
</svg>
