<?xml version="1.0" encoding="utf-8"?>
<!-- Generator: Adobe Illustrator 16.0.0, SVG Export Plug-In . SVG Version: 6.00 Build 0)  -->
<!DOCTYPE svg PUBLIC "-//W3C//DTD SVG 1.1//EN" "http://www.w3.org/Graphics/SVG/1.1/DTD/svg11.dtd">
<svg version="1.1" id="图层_1" xmlns="http://www.w3.org/2000/svg" xmlns:xlink="http://www.w3.org/1999/xlink" x="0px" y="0px"
	 width="16px" height="16px" viewBox="0 0 16 16" enable-background="new 0 0 16 16" xml:space="preserve">
<g id="XMLID_3_">
	<path id="XMLID_33_" fill="#FF9C0B" d="M7.999,9.712L16,1.746V1.288C16,0.576,15.424,0,14.712,0H1.288C0.576,0,0,0.576,0,1.288
		v9.394l4.441-4.416L7.999,9.712"/>
	<path id="XMLID_30_" fill="#FB5722" d="M4.443,9.864L0,14.298v0.414C0,15.424,0.576,16,1.288,16h13.424
		C15.424,16,16,15.424,16,14.712v-9.3l-8.001,7.966L4.443,9.864"/>
	<polyline id="XMLID_5_" fill="#F2F2F2" points="0,10.682 4.441,6.266 7.999,9.712 16,1.746 15.999,5.413 7.999,13.378 4.443,9.864 
		0,14.298 0,10.682 	"/>
	<polyline id="XMLID_4_" fill="#FF9B07" points="6.222,11.623 6.223,7.99 4.443,9.864 6.222,11.623 	"/>
</g>
</svg>
