<?xml version="1.0" encoding="utf-8"?>
<!-- Generator: Adobe Illustrator 16.0.0, SVG Export Plug-In . SVG Version: 6.00 Build 0)  -->
<!DOCTYPE svg PUBLIC "-//W3C//DTD SVG 1.1//EN" "http://www.w3.org/Graphics/SVG/1.1/DTD/svg11.dtd">
<svg version="1.1" id="图层_1" xmlns="http://www.w3.org/2000/svg" xmlns:xlink="http://www.w3.org/1999/xlink" x="0px" y="0px"
	 width="16px" height="16px" viewBox="0 0 16 16" enable-background="new 0 0 16 16" xml:space="preserve">
<path id="Blue_2_" fill="#3B5998" d="M15.117,16C15.605,16,16,15.604,16,15.117V0.883C16,0.396,15.605,0,15.117,0H0.884
	C0.396,0,0,0.396,0,0.883v14.234C0,15.604,0.396,16,0.884,16H15.117z"/>
<path fill="#FFFFFF" d="M4.995,10h0.986v1H4.995V10z"/>
<g>
	<g>
		<g>
			<path fill="#FFFFFF" d="M8.141,10.854L7.532,10H6.995c0.051,0.295,0.124,0.729,0.205,1.221h0.888
				C8.275,11.221,8.282,11.051,8.141,10.854z"/>
			<path fill-rule="evenodd" clip-rule="evenodd" fill="#FFFFFF" d="M5.796,14.008c-0.341-0.015-0.487-0.1-0.643-0.379
				c-0.558-1.004-1.148-1.974-1.773-3l-0.373-0.617h2.988c0.166,0.745,0.908,2.905,0.999,3.57c0.041,0.323-0.006,0.354-0.321,0.389
				c-0.218,0.026-0.441,0.041-0.663,0.041L5.796,14.008z"/>
			<path fill="#D5D2C4" d="M7.105,5h-0.11v4h0.11c3.407,0,5.65,1.238,5.798,2.997V2.022C12.756,3.781,10.513,5,7.105,5z"/>
			<path fill="#FFFFFF" d="M2.43,5C1.634,5,0.986,5.654,0.986,6.52V7.5C0.986,8.365,1.634,9,2.43,9h3.565V5H2.43z"/>
			<g>
				<path fill="#D5D2C4" d="M5.995,10.012H3.007l0.373,0.617c0.059,0.096,0.112,0.187,0.17,0.281l2.456-0.85
					C6.003,10.046,5.998,10.025,5.995,10.012z"/>
			</g>
			<polygon fill="#FFFFFF" points="13.986,12.01 13.986,2.01 12.906,2.01 12.903,2.022 12.903,11.997 12.906,12.01 			"/>
		</g>
	</g>
</g>
</svg>
