<?xml version="1.0" encoding="utf-8"?>
<!-- Generator: Adobe Illustrator 16.0.0, SVG Export Plug-In . SVG Version: 6.00 Build 0)  -->
<!DOCTYPE svg PUBLIC "-//W3C//DTD SVG 1.1//EN" "http://www.w3.org/Graphics/SVG/1.1/DTD/svg11.dtd">
<svg version="1.1" id="图层_1" xmlns="http://www.w3.org/2000/svg" xmlns:xlink="http://www.w3.org/1999/xlink" x="0px" y="0px"
	 width="16px" height="16px" viewBox="0 0 16 16" enable-background="new 0 0 16 16" xml:space="preserve">
<g>
	<rect x="3.984" y="7.5" width="2" height="2"/>
	<rect x="3.984" y="10.5" width="2" height="2"/>
	<path d="M7.068,13.748H2.9c-0.172,0-0.335-0.069-0.459-0.192c-0.121-0.122-0.189-0.284-0.189-0.457V6.286h5.717
		c0.81-0.68,1.817-1.129,2.925-1.251H2.252V3.984c0-0.173,0.068-0.337,0.189-0.459C2.565,3.402,2.729,3.336,2.9,3.336h1.334V3.75
		c0,0.414,0.336,0.75,0.75,0.75s0.75-0.336,0.75-0.75V3.336h4.531V3.75c0,0.414,0.336,0.75,0.75,0.75s0.75-0.336,0.75-0.75V3.336
		h1.332c0.173,0,0.336,0.066,0.458,0.189c0.124,0.122,0.191,0.286,0.191,0.459v1.051h-1.641c1.093,0.12,2.089,0.559,2.894,1.223
		V3.917c0-0.507-0.199-0.983-0.559-1.345c-0.359-0.357-0.836-0.556-1.344-0.556h-1.332V1.75c0-0.414-0.336-0.75-0.75-0.75
		s-0.75,0.336-0.75,0.75v0.267H5.734V1.75C5.734,1.336,5.398,1,4.984,1s-0.75,0.336-0.75,0.75v0.267H2.9
		c-0.506,0-0.982,0.198-1.342,0.556C1.197,2.934,1,3.41,1,3.917v9.182c0,0.507,0.197,0.983,0.559,1.343
		C1.918,14.803,2.395,15,2.9,15h5.443C7.853,14.655,7.424,14.231,7.068,13.748z"/>
	<path d="M11.5,6C9.015,6,7,8.016,7,10.5S9.015,15,11.5,15c2.484,0,4.5-2.016,4.5-4.5S13.984,6,11.5,6z M11.5,14
		C9.566,14,8,12.434,8,10.5S9.566,7,11.5,7S15,8.566,15,10.5S13.434,14,11.5,14z"/>
	<path d="M13.5,10H12V8.5C12,8.224,11.776,8,11.5,8S11,8.224,11,8.5v2c0,0.276,0.224,0.5,0.5,0.5h2c0.276,0,0.5-0.224,0.5-0.5
		S13.776,10,13.5,10z"/>
</g>
</svg>
