<?xml version="1.0" encoding="utf-8"?>
<!-- Generator: Adobe Illustrator 16.0.0, SVG Export Plug-In . SVG Version: 6.00 Build 0)  -->
<!DOCTYPE svg PUBLIC "-//W3C//DTD SVG 1.1//EN" "http://www.w3.org/Graphics/SVG/1.1/DTD/svg11.dtd">
<svg version="1.1" id="图层_1" xmlns="http://www.w3.org/2000/svg" xmlns:xlink="http://www.w3.org/1999/xlink" x="0px" y="0px"
	 width="16px" height="16px" viewBox="0 0 16 16" enable-background="new 0 0 16 16" xml:space="preserve">
<g>
	<path d="M10.359,5.705c-0.302-0.292-0.67-0.517-1.104-0.672S8.302,4.8,7.698,4.8H7.186v0.001c-0.554,0-1.004,0.449-1.004,1.003
		H6.181v3.42v1.563c0,0.551,0.447,0.999,0.999,0.999c0.003,0,0.007-0.001,0.011-0.001h0.535c0.62,0,1.15-0.073,1.59-0.219
		c0.438-0.146,0.8-0.361,1.084-0.646c0.284-0.284,0.501-0.639,0.652-1.064c0.15-0.426,0.227-0.945,0.227-1.557
		c0-0.585-0.078-1.091-0.233-1.517C10.89,6.356,10.661,5.998,10.359,5.705z"/>
	<path d="M8,0C3.582,0,0,3.582,0,8c0,4.418,3.582,8,8,8s8-3.582,8-8S12.418,0,8,0z M11.996,12.037
		c-0.466,0.582-1.074,1.003-1.826,1.266c-0.751,0.262-2.707,0.393-3.726,0.393l-0.001-0.001l0,0c-1.222,0-2.216-0.978-2.242-2.193
		l-0.002-0.002V4.477c-0.004,0-0.008,0-0.012,0c-0.439,0-0.795-0.355-0.795-0.795c0-0.437,0.353-0.791,0.788-0.794l0,0h3.349
		c0.94,0,1.77,0.122,2.487,0.364c0.718,0.243,1.324,0.625,1.818,1.149c0.95,1.009,1.426,2.308,1.426,3.898
		C13.261,9.714,12.839,10.96,11.996,12.037z"/>
</g>
</svg>
