<?xml version="1.0" encoding="utf-8"?>
<!-- Generator: Adobe Illustrator 16.0.0, SVG Export Plug-In . SVG Version: 6.00 Build 0)  -->
<!DOCTYPE svg PUBLIC "-//W3C//DTD SVG 1.1//EN" "http://www.w3.org/Graphics/SVG/1.1/DTD/svg11.dtd">
<svg version="1.1" id="图层_1" xmlns="http://www.w3.org/2000/svg" xmlns:xlink="http://www.w3.org/1999/xlink" x="0px" y="0px"
	 width="16px" height="16px" viewBox="0 0 16 16" enable-background="new 0 0 16 16" xml:space="preserve">
<g>
	<rect x="1" y="14" width="14" height="1"/>
	<path d="M14,10h-3c-0.55,0-1-0.45-1-1V7.221c0-0.55,0.27-1.36,0.6-1.801c0,0,0.4-0.535,0.4-1.42c0-1.656-1.344-3-3-3S5,2.344,5,4
		c0,0.885,0.4,1.42,0.4,1.42C5.73,5.86,6,6.671,6,7.221V9c0,0.55-0.45,1-1,1H2c-0.672,0-1,0.25-1,1.016C1,11.153,1,11.5,1,11.5v1V13
		h1h12h1v-0.5v-1c0,0,0-0.362,0-0.5C15,10.375,14.734,10,14,10z M14,12H2v-1h3c1.103,0,2-0.897,2-2V7.221
		c0-0.761-0.344-1.792-0.8-2.4c0,0,0,0,0.001,0S6,4.511,6,4c0-1.103,0.897-2,2-2s2,0.897,2,2c0,0.516-0.206,0.826-0.214,0.839
		C9.344,5.429,9,6.46,9,7.221V9c0,1.103,0.897,2,2,2h3V12z"/>
</g>
</svg>
