<?xml version="1.0" encoding="utf-8"?>
<!-- Generator: Adobe Illustrator 21.0.0, SVG Export Plug-In . SVG Version: 6.00 Build 0)  -->
<svg version="1.1" id="图层_1" xmlns="http://www.w3.org/2000/svg" xmlns:xlink="http://www.w3.org/1999/xlink" x="0px" y="0px"
	 viewBox="0 0 1826.067 312" enable-background="new 0 0 1826.067 312" xml:space="preserve">
<g id="图层_1_1_" display="none">
	<rect display="inline" fill="#151515" width="2204" height="1244"/>
	<g display="inline">
		<path fill="#8FC31F" d="M1280.499,732.912c-2.253,2.007-4.569,3.755-6.945,5.257c-2.382,1.502-4.823,2.875-7.322,4.13
			c-13.517,6.506-27.661,9.763-42.428,9.763c-28.535,0-52.318-9.892-71.338-29.662c-19.025-19.771-28.535-44.305-28.535-73.591
			c0-30.284,9.257-55.44,27.784-75.469c18.773-20.275,42.428-30.413,70.963-30.413c15.265,0,29.532,3.508,42.803,10.513
			c5.503,2.757,10.514,6.007,15.019,9.762v-63.829v-5.611h49.945v239.321L1280.499,732.912z M1263.921,601.677
			c-11.348-12.353-24.966-18.535-40.853-18.535c-15.638,0-29.126,6.182-40.474,18.535c-11.1,12.613-16.644,28.5-16.644,47.662
			c0,18.156,5.675,33.286,17.022,45.391c11.348,12.104,24.965,18.157,40.852,18.157c16.892,0,30.64-5.923,41.231-17.779
			c10.84-12.104,16.266-27.737,16.266-46.905C1281.321,629.544,1275.517,614.036,1263.921,601.677z"/>
	</g>
	<path display="inline" fill="#FFFFFF" d="M709.103,546.66c0,12.71-10.303,23.014-23.013,23.014
		c-12.711,0-23.014-10.304-23.014-23.014c0-12.714,10.303-23.014,23.014-23.014C698.8,523.646,709.103,533.946,709.103,546.66z"/>
	<path display="inline" fill="#FFFFFF" d="M754.127,588.584c0,12.773-10.354,23.128-23.127,23.128s-23.128-10.354-23.128-23.128
		c0-12.777,10.355-23.128,23.128-23.128S754.127,575.807,754.127,588.584z"/>
	<path display="inline" fill="#FFFFFF" d="M665.127,588.584c0,12.773-10.354,23.128-23.127,23.128s-23.128-10.354-23.128-23.128
		c0-12.777,10.355-23.128,23.128-23.128S665.127,575.807,665.127,588.584z"/>
	<path display="inline" fill="#FFFFFF" d="M769.544,726.167c0,12.773-10.354,23.128-23.127,23.128s-23.128-10.354-23.128-23.128
		c0-12.777,10.354-23.128,23.128-23.128C759.19,703.039,769.544,713.39,769.544,726.167z"/>
	<path display="inline" fill="#8FC31F" d="M1555.854,707.885c-0.001,12.421-10.071,22.491-22.494,22.492
		c-12.422-0.001-22.49-10.072-22.49-22.493c-0.002-12.426,10.068-22.493,22.491-22.493
		C1545.782,685.391,1555.853,695.457,1555.854,707.885z"/>
	<path display="inline" fill="#8FC31F" d="M1810.588,593.226c-0.001,13.014-10.552,23.567-23.569,23.568
		c-13.016-0.001-23.566-10.553-23.566-23.569c-0.002-13.02,10.55-23.569,23.567-23.569
		C1800.035,569.657,1810.587,580.204,1810.588,593.226z"/>
	<path display="inline" fill="#8FC31F" d="M1812.963,696.414c-0.001,13.118-10.636,23.754-23.757,23.755
		c-13.12-0.001-23.753-10.637-23.753-23.756c-0.002-13.124,10.633-23.756,23.754-23.756
		C1802.326,672.657,1812.962,683.288,1812.963,696.414z"/>
	<path display="inline" fill="#8FC31F" d="M1546.896,725.849c-22.281,16.128-47.531,24.956-74.396,24.956
		c-28.84,0.001-53.467-10.206-73.875-30.615c-20.413-20.412-30.616-45.041-30.617-73.878c0.001-28.841,10.204-53.465,30.616-73.874
		c20.408-20.411,45.036-30.618,73.875-30.618c28.84,0,53.464,10.208,73.876,30.618c20.408,20.41,30.616,45.033,30.617,73.875
		c0,1.616-0.032,3.221-0.095,4.81c-0.217,5.53-17.646,16.089-17.646,16.089l-146.103-0.001c3.062,8.641,8.08,16.442,15.047,23.407
		c12.257,12.26,27.027,18.389,44.304,18.389c17.274,0.001,32.108-6.123,44.833-17.031
		C1518.232,691.206,1551.43,722.567,1546.896,725.849z M1531.851,625.412c-3.064-8.634-8.081-16.435-15.046-23.404
		c-12.261-12.259-27.032-18.393-44.304-18.393c-17.277,0.001-32.047,6.134-44.305,18.393c-6.968,6.97-11.985,14.771-15.047,23.404
		H1531.851z"/>
	<path display="inline" fill="#8FC31F" d="M1577.419,650.171c-0.001,9.547-7.742,17.287-17.289,17.287
		c-9.549,0-17.287-7.741-17.286-17.288c-0.001-9.551,7.738-17.288,17.285-17.288
		C1569.677,632.883,1577.418,640.618,1577.419,650.171z"/>
	<path display="inline" fill="#8FC31F" d="M1857.01,495.734h49.88v132.897l73.448-81.955l35.494,30.202l-58.486,65.07l68.111,73.538
		l-34.156,29.975l-84.411-91.616v78.86h-49.88V495.734z"/>
	<circle display="inline" fill="#8FC31F" cx="1305.468" cy="494.878" r="24.939"/>
	<circle display="inline" fill="#8FC31F" cx="1305.483" cy="733.981" r="24.955"/>
	<g display="inline">
		<path fill="#FFFFFF" d="M935.499,732.912c-2.253,2.007-4.569,3.755-6.945,5.257c-2.382,1.502-4.823,2.875-7.322,4.13
			c-13.517,6.506-27.661,9.763-42.428,9.763c-28.535,0-52.318-9.892-71.338-29.662c-19.025-19.771-28.535-44.305-28.535-73.591
			c0-30.284,9.257-55.44,27.784-75.469c18.773-20.275,42.428-30.413,70.963-30.413c15.265,0,29.532,3.508,42.803,10.513
			c5.503,2.757,10.514,6.007,15.019,9.762v-8.829v-5.611h49.945v184.321L935.499,732.912z M918.921,601.677
			c-11.348-12.353-24.966-18.535-40.853-18.535c-15.638,0-29.126,6.182-40.474,18.535c-11.1,12.613-16.644,28.5-16.644,47.662
			c0,18.156,5.675,33.286,17.022,45.391c11.348,12.104,24.965,18.157,40.852,18.157c16.893,0,30.64-5.923,41.231-17.779
			c10.84-12.104,16.266-27.737,16.266-46.905C936.321,629.544,930.517,614.036,918.921,601.677z"/>
	</g>
	<circle display="inline" fill="#FFFFFF" cx="960.468" cy="548.878" r="24.939"/>
	<circle display="inline" fill="#FFFFFF" cx="960.483" cy="731.981" r="24.955"/>
	<g display="inline">
		<path fill="#FFFFFF" d="M548.499,732.912c-2.253,2.007-4.569,3.755-6.945,5.257c-2.382,1.502-4.823,2.875-7.322,4.13
			c-13.517,6.506-27.661,9.763-42.428,9.763c-28.535,0-52.318-9.892-71.338-29.662c-19.025-19.771-28.535-44.305-28.535-73.591
			c0-30.284,9.257-55.44,27.784-75.469c18.773-20.275,42.428-30.413,70.963-30.413c15.265,0,29.532,3.508,42.803,10.513
			c5.503,2.757,10.514,6.007,15.019,9.762v-8.829v-5.611h49.945v184.321L548.499,732.912z M531.921,601.677
			c-11.348-12.353-24.966-18.535-40.853-18.535c-15.638,0-29.126,6.182-40.474,18.535c-11.1,12.613-16.644,28.5-16.644,47.662
			c0,18.156,5.675,33.286,17.022,45.391c11.348,12.104,24.965,18.157,40.852,18.157c16.893,0,30.64-5.923,41.231-17.779
			c10.84-12.104,16.266-27.737,16.266-46.905C549.321,629.544,543.517,614.036,531.921,601.677z"/>
	</g>
	<circle display="inline" fill="#FFFFFF" cx="573.468" cy="548.878" r="24.939"/>
	<circle display="inline" fill="#FFFFFF" cx="573.483" cy="731.981" r="24.955"/>
	<circle display="inline" fill="#8FC31F" cx="1881.949" cy="494.878" r="24.939"/>
	<circle display="inline" fill="#8FC31F" cx="1997.199" cy="562.795" r="23.356"/>
	<circle display="inline" fill="#8FC31F" cx="2008.336" cy="730.436" r="22.731"/>
	<circle display="inline" fill="#8FC31F" cx="1881.964" cy="731.981" r="24.955"/>
	<path display="inline" fill="#8FC31F" d="M1718.041,704.901c-18.048,0-32.623-5.35-43.719-16.054
		c-11.099-10.699-16.646-24.506-16.646-41.411c0-17.389,5.761-31.649,17.286-42.776c11.522-11.128,26.614-16.692,45.274-16.692
		c10.243,0,19.176,1.585,26.798,4.75c7.622,3.169,15.335,8.834,23.14,16.992l33.869-18.628l1.611-12.286
		c-8.893-10.496-19.969-19.182-32.508-25.451c-15.713-7.857-33.436-11.784-53.168-11.784c-21.318,0-40.593,4.631-57.828,13.885
		c-17.236,9.258-30.667,21.988-40.286,38.186c-9.624,16.202-14.434,33.925-14.434,53.168c0,27.772,9.894,52.013,29.69,72.718
		c19.793,20.709,47.167,31.061,82.127,31.061c38.853,0,67.639-12.198,88.956-39.924l-37.024-29.715
		C1758.742,696.167,1740.36,704.901,1718.041,704.901z"/>
	<path display="inline" fill="#FFFFFF" d="M336.487,523.017c-12.46-13.193-27.731-22.841-45.808-28.951
		c-18.083-6.104-38.971-9.162-62.666-9.162h-84.369v0.007c-10.989,0.08-19.875,9.007-19.875,20.015
		c0,11.058,8.965,20.023,20.023,20.023c0.101,0,0.199-0.014,0.3-0.015v176.898l0.062,0.061
		c0.662,30.632,25.682,55.264,56.472,55.264c0.003,0,0.007,0,0.01,0l0.032,0.031c25.653,0,74.922-3.298,93.858-9.895
		c18.931-6.597,34.265-17.224,45.992-31.883c21.255-27.118,31.882-58.508,31.882-94.182
		C372.4,581.165,360.427,548.429,336.487,523.017z M316.726,660.465c-3.803,10.728-9.277,19.669-16.427,26.819
		c-7.155,7.155-16.259,12.571-27.322,16.259s-24.42,5.532-40.061,5.532h-13.468c-0.091,0.001-0.181,0.007-0.273,0.007
		c-13.888,0-25.147-11.259-25.147-25.147v-39.387v-86.169h0.016c0-13.966,11.322-25.289,25.289-25.289v-0.016h12.913
		c15.196,0,28.27,1.959,39.223,5.867c10.948,3.913,20.224,9.554,27.825,16.929c7.595,7.375,13.352,16.427,17.265,27.155
		c3.907,10.727,5.867,23.466,5.867,38.217C322.425,636.663,320.523,649.737,316.726,660.465z"/>
	<rect x="640.294" y="565.56" display="inline" fill="#FFFFFF" width="66.765" height="46.151"/>
	<path display="inline" fill="#FFFFFF" d="M755.065,704.744c-9.489-3.305-18.083-8.795-25.775-16.488
		c-13.489-13.484-20.231-29.733-20.231-48.74v-27.973h23.971V565.56h-23.971v-20.318h-45.982v94.273
		c0,31.726,11.226,58.818,33.682,81.273c12.329,12.329,26.06,21.266,41.187,26.826L755.065,704.744z"/>
</g>
<g id="图层_1_x5F_复制" display="none">
	<rect display="inline" fill="#151515" width="2204" height="1244"/>
	<g display="inline">
		<path fill="#8FC31F" d="M1237.499,732.912c-2.253,2.007-4.569,3.755-6.945,5.257c-2.382,1.502-4.823,2.875-7.322,4.13
			c-13.517,6.506-27.661,9.763-42.428,9.763c-28.535,0-52.318-9.892-71.338-29.662c-19.025-19.771-28.535-44.305-28.535-73.591
			c0-30.284,9.257-55.44,27.784-75.469c18.773-20.275,42.428-30.413,70.963-30.413c15.265,0,29.532,3.508,42.803,10.513
			c5.503,2.757,10.514,6.007,15.019,9.762v-63.829v-5.611h49.945v239.321L1237.499,732.912z M1220.921,601.677
			c-11.348-12.353-24.966-18.535-40.853-18.535c-15.638,0-29.126,6.182-40.474,18.535c-11.1,12.613-16.644,28.5-16.644,47.662
			c0,18.156,5.675,33.286,17.022,45.391c11.348,12.104,24.965,18.157,40.852,18.157c16.892,0,30.64-5.923,41.231-17.779
			c10.84-12.104,16.266-27.737,16.266-46.905C1238.321,629.544,1232.517,614.036,1220.921,601.677z"/>
	</g>
	<path display="inline" fill="#FFFFFF" d="M760.103,546.66c0,12.71-10.303,23.014-23.013,23.014
		c-12.711,0-23.014-10.304-23.014-23.014c0-12.714,10.303-23.014,23.014-23.014C749.8,523.646,760.103,533.946,760.103,546.66z"/>
	<path display="inline" fill="#FFFFFF" d="M805.127,588.584c0,12.773-10.354,23.128-23.127,23.128s-23.128-10.354-23.128-23.128
		c0-12.777,10.355-23.128,23.128-23.128S805.127,575.807,805.127,588.584z"/>
	<path display="inline" fill="#FFFFFF" d="M716.127,588.584c0,12.773-10.354,23.128-23.127,23.128s-23.128-10.354-23.128-23.128
		c0-12.777,10.355-23.128,23.128-23.128S716.127,575.807,716.127,588.584z"/>
	<path display="inline" fill="#FFFFFF" d="M820.544,726.167c0,12.773-10.354,23.128-23.127,23.128s-23.128-10.354-23.128-23.128
		c0-12.777,10.354-23.128,23.128-23.128C810.19,703.039,820.544,713.39,820.544,726.167z"/>
	<path display="inline" fill="#8FC31F" d="M1512.854,707.885c-0.001,12.421-10.071,22.491-22.494,22.492
		c-12.422-0.001-22.49-10.072-22.49-22.493c-0.002-12.426,10.068-22.493,22.491-22.493
		C1502.782,685.391,1512.853,695.457,1512.854,707.885z"/>
	<path display="inline" fill="#8FC31F" d="M1767.588,593.226c-0.001,13.014-10.552,23.567-23.569,23.568
		c-13.016-0.001-23.566-10.553-23.566-23.569c-0.002-13.02,10.55-23.569,23.567-23.569
		C1757.035,569.657,1767.587,580.204,1767.588,593.226z"/>
	<path display="inline" fill="#8FC31F" d="M1769.963,696.414c-0.001,13.118-10.636,23.754-23.757,23.755
		c-13.12-0.001-23.753-10.637-23.753-23.756c-0.002-13.124,10.633-23.756,23.754-23.756
		C1759.326,672.657,1769.962,683.288,1769.963,696.414z"/>
	<path display="inline" fill="#8FC31F" d="M1503.896,725.849c-22.281,16.128-47.531,24.956-74.396,24.956
		c-28.84,0.001-53.467-10.206-73.875-30.615c-20.413-20.412-30.616-45.041-30.617-73.878c0.001-28.841,10.204-53.465,30.616-73.874
		c20.408-20.411,45.036-30.618,73.875-30.618c28.84,0,53.464,10.208,73.876,30.618c20.408,20.41,30.616,45.033,30.617,73.875
		c0,1.616-0.032,3.221-0.095,4.81c-0.217,5.53-17.646,16.089-17.646,16.089l-146.103-0.001c3.062,8.641,8.08,16.442,15.047,23.407
		c12.257,12.26,27.027,18.389,44.304,18.389c17.274,0.001,32.108-6.123,44.833-17.031
		C1475.232,691.206,1508.43,722.567,1503.896,725.849z M1488.851,625.412c-3.064-8.634-8.081-16.435-15.046-23.404
		c-12.261-12.259-27.032-18.393-44.304-18.393c-17.277,0.001-32.047,6.134-44.305,18.393c-6.968,6.97-11.985,14.771-15.047,23.404
		H1488.851z"/>
	<path display="inline" fill="#8FC31F" d="M1534.419,650.171c-0.001,9.547-7.742,17.287-17.289,17.287
		c-9.549,0-17.287-7.741-17.286-17.288c-0.001-9.551,7.738-17.288,17.285-17.288
		C1526.677,632.883,1534.418,640.618,1534.419,650.171z"/>
	<path display="inline" fill="#8FC31F" d="M1814.01,495.734h49.88v132.897l73.448-81.955l35.494,30.202l-58.486,65.07l68.111,73.538
		l-34.156,29.975l-84.411-91.616v78.86h-49.88V495.734z"/>
	<circle display="inline" fill="#8FC31F" cx="1262.468" cy="494.878" r="24.939"/>
	<circle display="inline" fill="#8FC31F" cx="1262.483" cy="733.981" r="24.955"/>
	<g display="inline">
		<path fill="#FFFFFF" d="M986.499,732.912c-2.253,2.007-4.569,3.755-6.945,5.257c-2.382,1.502-4.823,2.875-7.322,4.13
			c-13.517,6.506-27.661,9.763-42.428,9.763c-28.535,0-52.318-9.892-71.338-29.662c-19.025-19.771-28.535-44.305-28.535-73.591
			c0-30.284,9.257-55.44,27.784-75.469c18.773-20.275,42.428-30.413,70.963-30.413c15.265,0,29.532,3.508,42.803,10.513
			c5.503,2.757,10.514,6.007,15.019,9.762v-8.829v-5.611h49.945v184.321L986.499,732.912z M969.921,601.677
			c-11.348-12.353-24.966-18.535-40.853-18.535c-15.638,0-29.126,6.182-40.474,18.535c-11.1,12.613-16.644,28.5-16.644,47.662
			c0,18.156,5.675,33.286,17.022,45.391c11.348,12.104,24.965,18.157,40.852,18.157c16.893,0,30.64-5.923,41.231-17.779
			c10.84-12.104,16.266-27.737,16.266-46.905C987.321,629.544,981.517,614.036,969.921,601.677z"/>
	</g>
	<circle display="inline" fill="#FFFFFF" cx="1011.468" cy="548.878" r="24.939"/>
	<circle display="inline" fill="#FFFFFF" cx="1011.483" cy="731.981" r="24.955"/>
	<g display="inline">
		<path fill="#FFFFFF" d="M599.499,732.912c-2.253,2.007-4.569,3.755-6.945,5.257c-2.382,1.502-4.823,2.875-7.322,4.13
			c-13.517,6.506-27.661,9.763-42.428,9.763c-28.535,0-52.318-9.892-71.338-29.662c-19.025-19.771-28.535-44.305-28.535-73.591
			c0-30.284,9.257-55.44,27.784-75.469c18.773-20.275,42.428-30.413,70.963-30.413c15.265,0,29.532,3.508,42.803,10.513
			c5.503,2.757,10.514,6.007,15.019,9.762v-8.829v-5.611h49.945v184.321L599.499,732.912z M582.921,601.677
			c-11.348-12.353-24.966-18.535-40.853-18.535c-15.638,0-29.126,6.182-40.474,18.535c-11.1,12.613-16.644,28.5-16.644,47.662
			c0,18.156,5.675,33.286,17.022,45.391c11.348,12.104,24.965,18.157,40.852,18.157c16.893,0,30.64-5.923,41.231-17.779
			c10.84-12.104,16.266-27.737,16.266-46.905C600.321,629.544,594.517,614.036,582.921,601.677z"/>
	</g>
	<circle display="inline" fill="#FFFFFF" cx="624.468" cy="548.878" r="24.939"/>
	<circle display="inline" fill="#FFFFFF" cx="624.483" cy="731.981" r="24.955"/>
	<circle display="inline" fill="#8FC31F" cx="1838.949" cy="494.878" r="24.939"/>
	<circle display="inline" fill="#8FC31F" cx="1954.199" cy="562.795" r="23.356"/>
	<circle display="inline" fill="#8FC31F" cx="1965.336" cy="730.436" r="22.731"/>
	<circle display="inline" fill="#8FC31F" cx="1838.964" cy="731.981" r="24.955"/>
	<path display="inline" fill="#8FC31F" d="M1675.041,704.901c-18.048,0-32.623-5.35-43.719-16.054
		c-11.099-10.699-16.646-24.506-16.646-41.411c0-17.389,5.761-31.649,17.286-42.776c11.522-11.128,26.614-16.692,45.274-16.692
		c10.243,0,19.176,1.585,26.798,4.75c7.622,3.169,15.335,8.834,23.14,16.992l33.869-18.628l1.611-12.286
		c-8.893-10.496-19.969-19.182-32.508-25.451c-15.713-7.857-33.436-11.784-53.168-11.784c-21.318,0-40.593,4.631-57.828,13.885
		c-17.236,9.258-30.667,21.988-40.286,38.186c-9.624,16.202-14.434,33.925-14.434,53.168c0,27.772,9.894,52.013,29.69,72.718
		c19.793,20.709,47.167,31.061,82.127,31.061c38.853,0,67.639-12.198,88.956-39.924l-37.024-29.715
		C1715.742,696.167,1697.36,704.901,1675.041,704.901z"/>
	<path display="inline" fill="#FFFFFF" d="M387.487,523.017c-12.46-13.193-27.731-22.841-45.808-28.951
		c-18.083-6.104-38.971-9.162-62.666-9.162h-84.369v0.007c-10.989,0.08-19.875,9.007-19.875,20.015
		c0,11.058,8.965,20.023,20.023,20.023c0.101,0,0.199-0.014,0.3-0.015v176.898l0.062,0.061
		c0.662,30.632,25.682,55.264,56.472,55.264c0.003,0,0.007,0,0.01,0l0.032,0.031c25.653,0,74.922-3.298,93.858-9.895
		c18.931-6.597,34.265-17.224,45.992-31.883c21.255-27.118,31.882-58.508,31.882-94.182
		C423.4,581.165,411.427,548.429,387.487,523.017z M367.726,660.465c-3.803,10.728-9.277,19.669-16.427,26.819
		c-7.155,7.155-16.259,12.571-27.322,16.259s-24.42,5.532-40.061,5.532h-13.468c-0.091,0.001-0.181,0.007-0.273,0.007
		c-13.888,0-25.147-11.259-25.147-25.147v-39.387v-86.169h0.016c0-13.966,11.322-25.289,25.289-25.289v-0.016h12.913
		c15.196,0,28.27,1.959,39.223,5.867c10.948,3.913,20.224,9.554,27.825,16.929c7.595,7.375,13.352,16.427,17.265,27.155
		c3.907,10.727,5.867,23.466,5.867,38.217C373.425,636.663,371.523,649.737,367.726,660.465z"/>
	<rect x="691.294" y="565.56" display="inline" fill="#FFFFFF" width="66.765" height="46.151"/>
	<path display="inline" fill="#FFFFFF" d="M806.065,704.744c-9.489-3.305-18.083-8.795-25.775-16.488
		c-13.489-13.484-20.231-29.733-20.231-48.74v-27.973h23.971V565.56h-23.971v-20.318h-45.982v94.273
		c0,31.726,11.226,58.818,33.682,81.273c12.329,12.329,26.06,21.266,41.187,26.826L806.065,704.744z"/>
</g>
<g id="图层_1_x5F_复制_4" display="none">
	<rect display="inline" fill="#151515" width="2204" height="1244"/>
	<g display="inline">
		<path fill="#8FC31F" d="M1362.331,705.248c-1.445,1.287-2.93,2.408-4.454,3.371c-1.527,0.963-3.093,1.844-4.695,2.648
			c-8.668,4.172-17.738,6.26-27.207,6.26c-18.298,0-33.549-6.343-45.746-19.021c-12.2-12.678-18.298-28.411-18.298-47.19
			c0-19.42,5.936-35.552,17.817-48.395c12.039-13.002,27.207-19.503,45.505-19.503c9.789,0,18.938,2.25,27.448,6.742
			c3.529,1.768,6.742,3.852,9.631,6.26v-40.93v-3.598h32.027v153.466L1362.331,705.248z M1351.7,621.093
			c-7.277-7.921-16.009-11.886-26.197-11.886c-10.028,0-18.677,3.965-25.954,11.886c-7.118,8.088-10.673,18.276-10.673,30.563
			c0,11.642,3.639,21.345,10.916,29.107s16.009,11.643,26.197,11.643c10.832,0,19.648-3.798,26.439-11.401
			c6.951-7.762,10.431-17.787,10.431-30.078C1362.858,638.963,1359.136,629.018,1351.7,621.093z"/>
	</g>
	<path display="inline" fill="#FFFFFF" d="M957.103,510.66c0,12.71-10.303,23.014-23.013,23.014
		c-12.711,0-23.014-10.304-23.014-23.014c0-12.714,10.303-23.014,23.014-23.014C946.8,487.646,957.103,497.946,957.103,510.66z"/>
	<path display="inline" fill="#FFFFFF" d="M1002.127,552.584c0,12.773-10.354,23.128-23.127,23.128s-23.128-10.354-23.128-23.128
		c0-12.777,10.355-23.128,23.128-23.128S1002.127,539.807,1002.127,552.584z"/>
	<path display="inline" fill="#FFFFFF" d="M913.127,552.584c0,12.773-10.354,23.128-23.127,23.128s-23.128-10.354-23.128-23.128
		c0-12.777,10.355-23.128,23.128-23.128S913.127,539.807,913.127,552.584z"/>
	<path display="inline" fill="#FFFFFF" d="M1017.544,690.167c0,12.773-10.354,23.128-23.127,23.128s-23.128-10.354-23.128-23.128
		c0-12.777,10.354-23.128,23.128-23.128C1007.19,667.039,1017.544,677.39,1017.544,690.167z"/>
	<circle display="inline" fill="#8FC31F" cx="1524.48" cy="689.199" r="14.423"/>
	<circle display="inline" fill="#8FC31F" cx="1687.14" cy="615.673" r="15.113"/>
	<circle display="inline" fill="#8FC31F" cx="1688.543" cy="681.843" r="15.233"/>
	<path display="inline" fill="#8FC31F" d="M1533.159,700.719c-14.288,10.342-30.479,16.003-47.707,16.003
		c-18.494,0.001-34.286-6.544-47.372-19.632c-13.09-13.089-19.633-28.883-19.634-47.375c0.001-18.495,6.543-34.284,19.633-47.372
		c13.087-13.088,28.88-19.634,47.373-19.634c18.494,0,34.284,6.546,47.374,19.634c13.087,13.088,19.633,28.878,19.634,47.373
		c0,1.037-0.021,2.065-0.061,3.085c-0.139,3.546-11.316,10.317-11.316,10.317l-93.689-0.001c1.964,5.541,5.181,10.543,9.649,15.01
		c7.86,7.862,17.332,11.792,28.41,11.792c11.077,0.001,20.589-3.927,28.749-10.921
		C1514.778,678.504,1536.067,698.614,1533.159,700.719z M1523.511,636.313c-1.965-5.536-5.182-10.539-9.649-15.008
		c-7.862-7.861-17.334-11.795-28.41-11.795c-11.079,0.001-20.55,3.933-28.411,11.795c-4.469,4.47-7.685,9.472-9.649,15.008H1523.511
		z"/>
	<circle display="inline" fill="#8FC31F" cx="1541.647" cy="652.189" r="11.086"/>
	<path display="inline" fill="#8FC31F" d="M1732.021,553.156h31.986v85.221l47.099-52.554l22.761,19.367l-37.505,41.727
		l43.676,47.157l-21.902,19.222l-54.129-58.749v50.57h-31.986V553.156z"/>
	<circle display="inline" fill="#8FC31F" cx="1378.342" cy="552.607" r="15.993"/>
	<circle display="inline" fill="#8FC31F" cx="1378.352" cy="705.933" r="16.002"/>
	<g display="inline">
		<path fill="#FFFFFF" d="M1183.499,696.912c-2.253,2.007-4.569,3.755-6.945,5.257c-2.382,1.502-4.823,2.875-7.322,4.13
			c-13.517,6.506-27.661,9.763-42.428,9.763c-28.535,0-52.318-9.892-71.338-29.662c-19.025-19.771-28.535-44.305-28.535-73.591
			c0-30.284,9.257-55.44,27.784-75.469c18.773-20.275,42.428-30.413,70.963-30.413c15.265,0,29.532,3.508,42.803,10.513
			c5.503,2.757,10.514,6.007,15.019,9.762v-8.829v-5.611h49.945v184.321L1183.499,696.912z M1166.921,565.677
			c-11.348-12.353-24.966-18.535-40.853-18.535c-15.638,0-29.126,6.182-40.474,18.535c-11.1,12.613-16.644,28.5-16.644,47.662
			c0,18.156,5.675,33.286,17.022,45.391c11.348,12.104,24.965,18.157,40.852,18.157c16.892,0,30.64-5.923,41.231-17.779
			c10.84-12.104,16.266-27.737,16.266-46.905C1184.321,593.544,1178.517,578.036,1166.921,565.677z"/>
	</g>
	<circle display="inline" fill="#FFFFFF" cx="1208.468" cy="512.878" r="24.939"/>
	<circle display="inline" fill="#FFFFFF" cx="1208.483" cy="695.981" r="24.955"/>
	<g display="inline">
		<path fill="#FFFFFF" d="M796.499,696.912c-2.253,2.007-4.569,3.755-6.945,5.257c-2.382,1.502-4.823,2.875-7.322,4.13
			c-13.517,6.506-27.661,9.763-42.428,9.763c-28.535,0-52.318-9.892-71.338-29.662c-19.025-19.771-28.535-44.305-28.535-73.591
			c0-30.284,9.257-55.44,27.784-75.469c18.773-20.275,42.428-30.413,70.963-30.413c15.265,0,29.532,3.508,42.803,10.513
			c5.503,2.757,10.514,6.007,15.019,9.762v-8.829v-5.611h49.945v184.321L796.499,696.912z M779.921,565.677
			c-11.348-12.353-24.966-18.535-40.853-18.535c-15.638,0-29.126,6.182-40.474,18.535c-11.1,12.613-16.644,28.5-16.644,47.662
			c0,18.156,5.675,33.286,17.022,45.391c11.348,12.104,24.965,18.157,40.852,18.157c16.893,0,30.64-5.923,41.231-17.779
			c10.84-12.104,16.266-27.737,16.266-46.905C797.321,593.544,791.517,578.036,779.921,565.677z"/>
	</g>
	<circle display="inline" fill="#FFFFFF" cx="821.468" cy="512.878" r="24.939"/>
	<circle display="inline" fill="#FFFFFF" cx="821.483" cy="695.981" r="24.955"/>
	<circle display="inline" fill="#8FC31F" cx="1748.014" cy="552.607" r="15.993"/>
	<circle display="inline" fill="#8FC31F" cx="1821.918" cy="596.159" r="14.977"/>
	<circle display="inline" fill="#8FC31F" cx="1829.06" cy="703.66" r="14.576"/>
	<circle display="inline" fill="#8FC31F" cx="1748.023" cy="704.651" r="16.002"/>
	<path display="inline" fill="#8FC31F" d="M1642.907,687.286c-11.573,0-20.919-3.431-28.035-10.294
		c-7.117-6.861-10.674-15.714-10.674-26.555c0-11.151,3.694-20.295,11.085-27.431c7.389-7.136,17.067-10.704,29.032-10.704
		c6.568,0,12.297,1.016,17.185,3.046c4.888,2.032,9.834,5.665,14.839,10.896l21.719-11.945l1.033-7.878
		c-5.703-6.731-12.805-12.3-20.846-16.32c-10.076-5.038-21.441-7.557-34.094-7.557c-13.67,0-26.03,2.969-37.082,8.904
		c-11.053,5.937-19.665,14.1-25.834,24.487c-6.171,10.39-9.256,21.754-9.256,34.094c0,17.809,6.345,33.354,19.039,46.631
		c12.692,13.28,30.246,19.918,52.664,19.918c24.915,0,43.374-7.822,57.044-25.601l-23.742-19.055
		C1669.007,681.685,1657.219,687.286,1642.907,687.286z"/>
	<path display="inline" fill="#FFFFFF" d="M584.487,487.017c-12.46-13.193-27.731-22.841-45.808-28.951
		c-18.083-6.104-38.971-9.162-62.666-9.162h-84.369v0.007c-10.989,0.08-19.875,9.007-19.875,20.015
		c0,11.058,8.965,20.023,20.023,20.023c0.101,0,0.199-0.014,0.3-0.015v176.898l0.062,0.061
		c0.662,30.632,25.682,55.264,56.472,55.264c0.003,0,0.007,0,0.01,0l0.032,0.031c25.653,0,74.922-3.298,93.858-9.895
		c18.931-6.597,34.265-17.224,45.992-31.883c21.255-27.118,31.882-58.508,31.882-94.182
		C620.4,545.165,608.427,512.429,584.487,487.017z M564.726,624.465c-3.803,10.728-9.277,19.669-16.427,26.819
		c-7.155,7.155-16.259,12.571-27.322,16.259c-11.063,3.688-24.42,5.532-40.061,5.532h-13.468c-0.091,0.001-0.181,0.007-0.273,0.007
		c-13.888,0-25.147-11.259-25.147-25.147v-39.387v-86.169h0.016c0-13.966,11.322-25.289,25.289-25.289v-0.016h12.913
		c15.196,0,28.27,1.959,39.223,5.867c10.948,3.913,20.224,9.554,27.825,16.929c7.595,7.375,13.352,16.427,17.265,27.155
		c3.907,10.727,5.867,23.466,5.867,38.217C570.425,600.663,568.523,613.737,564.726,624.465z"/>
	<rect x="888.294" y="529.56" display="inline" fill="#FFFFFF" width="66.765" height="46.151"/>
	<path display="inline" fill="#FFFFFF" d="M1003.065,668.744c-9.489-3.305-18.083-8.795-25.775-16.488
		c-13.489-13.484-20.231-29.733-20.231-48.74v-27.973h23.971V529.56h-23.971v-20.318h-45.982v94.273
		c0,31.726,11.226,58.818,33.682,81.273c12.329,12.329,26.06,21.266,41.187,26.826L1003.065,668.744z"/>
</g>
<rect x="-108.168" y="-468.402" display="none" fill="#151515" width="2204" height="1244"/>
<g>
	<path fill="#040000" d="M603.218,76.721c0,12.71-10.303,23.014-23.013,23.014c-12.711,0-23.014-10.304-23.014-23.014
		c0-12.714,10.303-23.014,23.014-23.014C592.915,53.707,603.218,64.007,603.218,76.721z"/>
	<path fill="#040000" d="M648.242,118.645c0,12.773-10.354,23.128-23.127,23.128s-23.128-10.354-23.128-23.128
		c0-12.777,10.355-23.128,23.128-23.128C637.888,95.517,648.242,105.868,648.242,118.645z"/>
	<path fill="#040000" d="M559.242,118.645c0,12.773-10.354,23.128-23.127,23.128s-23.128-10.354-23.128-23.128
		c0-12.777,10.355-23.128,23.128-23.128C548.888,95.517,559.242,105.868,559.242,118.645z"/>
	<path fill="#040000" d="M663.659,256.228c0,12.773-10.354,23.128-23.127,23.128s-23.128-10.354-23.128-23.128
		c0-12.777,10.354-23.128,23.128-23.128C653.305,233.1,663.659,243.451,663.659,256.228z"/>
	<path fill="#8EC31E" d="M1361.969,237.946c-0.001,12.421-10.071,22.491-22.494,22.492c-12.422-0.001-22.49-10.072-22.49-22.493
		c-0.002-12.426,10.068-22.493,22.491-22.493C1351.897,215.452,1361.968,225.518,1361.969,237.946z"/>
	<path fill="#8EC31E" d="M1609.703,123.287c-0.001,13.014-10.552,23.567-23.569,23.568c-13.016-0.001-23.566-10.553-23.566-23.569
		c-0.002-13.02,10.55-23.569,23.567-23.569C1599.15,99.718,1609.702,110.265,1609.703,123.287z"/>
	<path fill="#8EC31E" d="M1612.078,226.475c-0.001,13.118-10.636,23.754-23.757,23.755c-13.12-0.001-23.753-10.637-23.753-23.756
		c-0.002-13.124,10.633-23.756,23.754-23.756C1601.441,202.718,1612.077,213.349,1612.078,226.475z"/>
	<path fill="#8EC31E" d="M1353.011,255.91c-22.281,16.128-47.531,24.956-74.396,24.956c-28.84,0.001-53.467-10.206-73.875-30.615
		c-20.413-20.412-30.616-45.041-30.617-73.878c0.001-28.841,10.204-53.465,30.616-73.875c20.408-20.411,45.036-30.618,73.875-30.618
		c28.84,0,53.464,10.208,73.876,30.618c20.408,20.41,30.616,45.033,30.617,73.875c0,1.616-0.032,3.221-0.095,4.81
		c-0.217,5.53-17.646,16.088-17.646,16.088l-146.103-0.001c3.062,8.641,8.08,16.442,15.047,23.407
		c12.257,12.26,27.027,18.389,44.304,18.389c17.274,0.001,32.108-6.123,44.833-17.031
		C1324.347,221.267,1357.545,252.628,1353.011,255.91z M1337.966,155.473c-3.064-8.634-8.081-16.435-15.046-23.404
		c-12.261-12.259-27.032-18.393-44.304-18.393c-17.277,0.001-32.047,6.134-44.305,18.393c-6.968,6.97-11.985,14.771-15.047,23.404
		L1337.966,155.473L1337.966,155.473z"/>
	<path fill="#8EC31E" d="M1383.534,180.232c-0.001,9.547-7.742,17.287-17.289,17.287c-9.549,0-17.287-7.741-17.286-17.288
		c-0.001-9.551,7.738-17.288,17.285-17.288C1375.792,162.944,1383.533,170.679,1383.534,180.232z"/>
	<path fill="#8EC31E" d="M1634.125,25.795h49.88v132.897l73.448-81.955l35.494,30.202l-58.486,65.071l68.111,73.538l-34.156,29.975
		l-84.411-91.616v78.86h-49.88V25.795z"/>
	<g>
		<path fill="#040000" d="M836.614,262.973c-2.253,2.007-4.569,3.755-6.945,5.257c-2.382,1.502-4.823,2.875-7.322,4.13
			c-13.517,6.506-27.661,9.763-42.428,9.763c-28.535,0-52.318-9.892-71.338-29.662c-19.025-19.771-28.535-44.305-28.535-73.591
			c0-30.284,9.257-55.44,27.784-75.469c18.773-20.275,42.428-30.413,70.963-30.413c15.265,0,29.532,3.508,42.803,10.513
			c5.503,2.757,10.514,6.007,15.019,9.762v-8.829v-5.611h49.945v184.321L836.614,262.973z M820.036,131.738
			c-11.348-12.353-24.966-18.535-40.853-18.535c-15.638,0-29.126,6.182-40.474,18.535c-11.1,12.613-16.644,28.5-16.644,47.662
			c0,18.156,5.675,33.286,17.022,45.391c11.348,12.104,24.965,18.157,40.852,18.157c16.893,0,30.64-5.923,41.231-17.779
			c10.84-12.104,16.266-27.737,16.266-46.905C837.436,159.605,831.632,144.097,820.036,131.738z"/>
	</g>
	<circle fill="#040000" cx="861.583" cy="78.939" r="24.939"/>
	<circle fill="#040000" cx="861.598" cy="262.042" r="24.955"/>
	<g>
		<path fill="#040000" d="M442.614,262.973c-2.253,2.007-4.569,3.755-6.945,5.257c-2.382,1.502-4.823,2.875-7.322,4.13
			c-13.517,6.506-27.661,9.763-42.428,9.763c-28.535,0-52.318-9.892-71.338-29.662c-19.025-19.771-28.535-44.305-28.535-73.591
			c0-30.284,9.257-55.44,27.784-75.469c18.773-20.275,42.428-30.413,70.963-30.413c15.265,0,29.532,3.508,42.803,10.513
			c5.503,2.757,10.514,6.007,15.019,9.762v-8.829v-5.611h49.945v184.321L442.614,262.973z M426.036,131.738
			c-11.348-12.353-24.966-18.535-40.853-18.535c-15.638,0-29.126,6.182-40.474,18.535c-11.1,12.613-16.644,28.5-16.644,47.662
			c0,18.156,5.675,33.286,17.022,45.391c11.348,12.104,24.965,18.157,40.852,18.157c16.893,0,30.64-5.923,41.231-17.779
			c10.84-12.104,16.266-27.737,16.266-46.905C443.436,159.605,437.632,144.097,426.036,131.738z"/>
	</g>
	<circle fill="#040000" cx="467.583" cy="78.939" r="24.939"/>
	<circle fill="#040000" cx="467.598" cy="262.042" r="24.955"/>
	<circle fill="#8EC31E" cx="1659.064" cy="24.939" r="24.939"/>
	<circle fill="#8EC31E" cx="1774.314" cy="92.856" r="23.356"/>
	<circle fill="#8EC31E" cx="1785.451" cy="260.497" r="22.731"/>
	<circle fill="#8EC31E" cx="1659.079" cy="262.042" r="24.955"/>
	<path fill="#8EC31E" d="M1517.156,234.962c-18.048,0-32.623-5.35-43.719-16.054c-11.099-10.699-16.646-24.506-16.646-41.411
		c0-17.389,5.761-31.649,17.286-42.776c11.522-11.128,26.614-16.692,45.274-16.692c10.243,0,19.176,1.585,26.798,4.75
		c7.622,3.169,15.335,8.834,23.14,16.992l33.869-18.628l1.611-12.286c-8.893-10.496-19.969-19.182-32.508-25.451
		c-15.713-7.857-33.436-11.784-53.168-11.784c-21.318,0-40.593,4.631-57.828,13.885c-17.236,9.258-30.667,21.988-40.286,38.186
		c-9.624,16.202-14.434,33.925-14.434,53.168c0,27.772,9.894,52.013,29.69,72.718c19.793,20.709,47.167,31.061,82.127,31.061
		c38.853,0,67.639-12.198,88.956-39.924l-37.024-29.715C1557.857,226.228,1539.475,234.962,1517.156,234.962z"/>
	<path fill="#040000" d="M230.602,53.078c-12.46-13.193-27.731-22.841-45.808-28.951c-18.083-6.104-38.971-9.162-62.666-9.162H37.76
		v0.007c-10.989,0.08-19.875,9.007-19.875,20.015c0,11.058,8.965,20.023,20.023,20.023c0.101,0,0.199-0.014,0.3-0.015v176.898
		l0.062,0.061c0.662,30.632,25.682,55.264,56.472,55.264c0.003,0,0.007,0,0.01,0l0.032,0.031c25.653,0,74.922-3.298,93.858-9.895
		c18.931-6.597,34.265-17.224,45.992-31.883c21.255-27.118,31.882-58.508,31.882-94.182
		C266.515,111.226,254.542,78.49,230.602,53.078z M210.841,190.526c-3.803,10.728-9.277,19.669-16.427,26.819
		c-7.155,7.155-16.259,12.571-27.322,16.259s-24.42,5.532-40.061,5.532h-13.468c-0.091,0.001-0.181,0.007-0.273,0.007
		c-13.888,0-25.147-11.259-25.147-25.147v-39.387v-86.17h0.016c0-13.966,11.322-25.289,25.289-25.289v-0.016h12.913
		c15.196,0,28.27,1.959,39.223,5.867c10.948,3.913,20.224,9.554,27.825,16.929c7.595,7.375,13.352,16.427,17.265,27.155
		c3.907,10.727,5.867,23.466,5.867,38.217C216.54,166.724,214.638,179.798,210.841,190.526z"/>
	<path fill="#8EC31E" d="M1114.276,53.078c-12.46-13.193-27.731-22.841-45.808-28.951c-18.083-6.104-38.971-9.162-62.666-9.162
		h-84.369v0.007c-10.989,0.08-19.875,9.007-19.875,20.015c0,11.058,8.965,20.023,20.023,20.023c0.101,0,0.199-0.014,0.3-0.015
		v176.898l0.062,0.061c0.662,30.632,25.682,55.264,56.472,55.264c0.003,0,0.007,0,0.01,0l0.032,0.031
		c25.653,0,74.922-3.298,93.858-9.895c18.931-6.597,34.265-17.224,45.992-31.883c21.255-27.118,31.882-58.508,31.882-94.182
		C1150.19,111.226,1138.216,78.49,1114.276,53.078z M1094.515,190.526c-3.803,10.728-9.277,19.669-16.427,26.819
		c-7.155,7.155-16.259,12.571-27.322,16.259s-24.42,5.532-40.061,5.532h-13.468c-0.091,0.001-0.181,0.007-0.273,0.007
		c-13.888,0-25.147-11.259-25.147-25.147v-39.387v-86.17h0.016c0-13.966,11.322-25.289,25.289-25.289v-0.016h12.913
		c15.196,0,28.27,1.959,39.223,5.867c10.948,3.913,20.224,9.554,27.825,16.929c7.595,7.375,13.352,16.427,17.265,27.155
		c3.907,10.727,5.867,23.466,5.867,38.217C1100.214,166.724,1098.313,179.798,1094.515,190.526z"/>
	<rect x="534.409" y="95.622" fill="#040000" width="66.765" height="46.151"/>
	<path fill="#040000" d="M649.18,234.805c-9.489-3.305-18.083-8.795-25.775-16.488c-13.489-13.484-20.231-29.733-20.231-48.74
		v-27.973h23.971V95.621h-23.971V75.303h-45.982v94.273c0,31.726,11.226,58.818,33.682,81.273
		c12.329,12.329,26.06,21.266,41.187,26.826L649.18,234.805z"/>
</g>
<g id="图层_1_x5F_复制_3" display="none">
	<rect display="inline" fill="#151515" width="2204" height="1244"/>
	<path display="inline" fill="#FFFFFF" d="M761.103,530.66c0,12.71-10.303,23.014-23.013,23.014
		c-12.711,0-23.014-10.304-23.014-23.014c0-12.714,10.303-23.014,23.014-23.014C750.8,507.646,761.103,517.946,761.103,530.66z"/>
	<path display="inline" fill="#FFFFFF" d="M806.127,572.584c0,12.773-10.354,23.128-23.127,23.128s-23.128-10.354-23.128-23.128
		c0-12.777,10.355-23.128,23.128-23.128S806.127,559.807,806.127,572.584z"/>
	<path display="inline" fill="#FFFFFF" d="M717.127,572.584c0,12.773-10.354,23.128-23.127,23.128s-23.128-10.354-23.128-23.128
		c0-12.777,10.355-23.128,23.128-23.128S717.127,559.807,717.127,572.584z"/>
	<path display="inline" fill="#FFFFFF" d="M821.544,710.167c0,12.773-10.354,23.128-23.127,23.128s-23.128-10.354-23.128-23.128
		c0-12.777,10.354-23.128,23.128-23.128C811.19,687.039,821.544,697.39,821.544,710.167z"/>
	<path display="inline" fill="#8FC31F" d="M1609.724,701.815c-0.001,9.919-8.043,17.961-17.964,17.962
		c-9.921-0.001-17.961-8.043-17.961-17.963c-0.001-9.923,8.04-17.963,17.961-17.963
		C1601.681,683.852,1609.724,691.891,1609.724,701.815z"/>
	<path display="inline" fill="#8FC31F" d="M1807.563,610.249c-0.001,10.393-8.427,18.82-18.823,18.821
		c-10.395-0.001-18.82-8.428-18.82-18.822c-0.001-10.398,8.425-18.822,18.82-18.822
		C1799.135,591.427,1807.562,599.85,1807.563,610.249z"/>
	<path display="inline" fill="#8FC31F" d="M1809.46,692.654c-0.001,10.476-8.494,18.97-18.972,18.971
		c-10.477-0.001-18.969-8.495-18.969-18.971c-0.002-10.48,8.492-18.971,18.97-18.971
		C1800.965,673.682,1809.459,682.172,1809.46,692.654z"/>
	<path display="inline" fill="#8FC31F" d="M1602.571,716.161c-17.794,12.879-37.958,19.929-59.413,19.929
		c-23.031,0.001-42.698-8.15-58.996-24.449c-16.302-16.301-24.45-35.969-24.451-58.999c0.001-23.032,8.149-42.697,24.45-58.996
		c16.298-16.3,35.966-24.452,58.996-24.452c23.032,0,42.696,8.152,58.997,24.452c16.298,16.299,24.45,35.963,24.451,58.996
		c0,1.291-0.025,2.572-0.076,3.842c-0.173,4.416-14.092,12.848-14.092,12.848l-116.677-0.001c2.446,6.901,6.452,13.13,12.017,18.692
		c9.788,9.791,21.584,14.686,35.381,14.685c13.795,0.001,25.641-4.89,35.803-13.601
		C1579.679,688.496,1606.192,713.54,1602.571,716.161z M1590.555,635.953c-2.447-6.895-6.454-13.125-12.016-18.69
		c-9.791-9.79-21.588-14.688-35.381-14.688c-13.797,0.001-25.592,4.899-35.381,14.688c-5.565,5.566-9.571,11.796-12.017,18.69
		H1590.555z"/>
	<circle display="inline" fill="#8FC31F" cx="1613.141" cy="655.725" r="13.806"/>
	<path display="inline" fill="#8FC31F" d="M1827.066,532.393h39.833v106.131l58.655-65.449l28.346,24.119l-46.707,51.965
		l54.393,58.727l-27.276,23.938l-67.41-73.164v62.977h-39.833L1827.066,532.393L1827.066,532.393z"/>
	<g display="inline">
		<path fill="#FFFFFF" d="M994.499,716.912c-2.253,2.007-4.569,3.755-6.945,5.257c-2.382,1.502-4.823,2.875-7.322,4.13
			c-13.517,6.506-27.661,9.763-42.428,9.763c-28.535,0-52.318-9.892-71.338-29.662c-19.025-19.771-28.535-44.305-28.535-73.591
			c0-30.284,9.257-55.44,27.784-75.469c18.773-20.275,42.428-30.413,70.963-30.413c15.265,0,29.532,3.508,42.803,10.513
			c5.503,2.757,10.514,6.007,15.019,9.762v-8.829v-5.611h49.945v184.321L994.499,716.912z M977.921,585.677
			c-11.348-12.353-24.966-18.535-40.853-18.535c-15.638,0-29.126,6.182-40.474,18.535c-11.1,12.613-16.644,28.5-16.644,47.662
			c0,18.156,5.675,33.286,17.022,45.391c11.348,12.104,24.965,18.157,40.852,18.157c16.893,0,30.64-5.923,41.231-17.779
			c10.84-12.104,16.266-27.737,16.266-46.905C995.321,613.544,989.517,598.036,977.921,585.677z"/>
	</g>
	<circle display="inline" fill="#FFFFFF" cx="1019.468" cy="532.878" r="24.939"/>
	<circle display="inline" fill="#FFFFFF" cx="1019.483" cy="715.981" r="24.955"/>
	<g display="inline">
		<path fill="#FFFFFF" d="M600.499,716.912c-2.253,2.007-4.569,3.755-6.945,5.257c-2.382,1.502-4.823,2.875-7.322,4.13
			c-13.517,6.506-27.661,9.763-42.428,9.763c-28.535,0-52.318-9.892-71.338-29.662c-19.025-19.771-28.535-44.305-28.535-73.591
			c0-30.284,9.257-55.44,27.784-75.469c18.773-20.275,42.428-30.413,70.963-30.413c15.265,0,29.532,3.508,42.803,10.513
			c5.503,2.757,10.514,6.007,15.019,9.762v-8.829v-5.611h49.945v184.321L600.499,716.912z M583.921,585.677
			c-11.348-12.353-24.966-18.535-40.853-18.535c-15.638,0-29.126,6.182-40.474,18.535c-11.1,12.613-16.644,28.5-16.644,47.662
			c0,18.156,5.675,33.286,17.022,45.391c11.348,12.104,24.965,18.157,40.852,18.157c16.893,0,30.64-5.923,41.231-17.779
			c10.84-12.104,16.266-27.737,16.266-46.905C601.321,613.544,595.517,598.036,583.921,585.677z"/>
	</g>
	<circle display="inline" fill="#FFFFFF" cx="625.468" cy="532.878" r="24.939"/>
	<circle display="inline" fill="#FFFFFF" cx="625.483" cy="715.981" r="24.955"/>
	<circle display="inline" fill="#8FC31F" cx="1846.982" cy="531.709" r="19.916"/>
	<circle display="inline" fill="#8FC31F" cx="1939.02" cy="585.947" r="18.652"/>
	<circle display="inline" fill="#8FC31F" cx="1947.914" cy="719.824" r="18.153"/>
	<circle display="inline" fill="#8FC31F" cx="1846.994" cy="721.058" r="19.929"/>
	<path display="inline" fill="#8FC31F" d="M1733.656,699.432c-14.413,0-26.052-4.273-34.913-12.82
		c-8.864-8.544-13.293-19.57-13.293-33.071c0-13.887,4.601-25.274,13.804-34.161c9.201-8.887,21.254-13.33,36.155-13.33
		c8.18,0,15.314,1.266,21.401,3.793c6.087,2.531,12.247,7.055,18.48,13.57l27.047-14.876l1.287-9.812
		c-7.102-8.382-15.947-15.318-25.96-20.325c-12.548-6.275-26.702-9.411-42.46-9.411c-17.024,0-32.417,3.698-46.181,11.088
		c-13.765,7.394-24.49,17.559-32.172,30.495c-7.685,12.939-11.527,27.092-11.527,42.46c0,22.179,7.902,41.537,23.71,58.072
		c15.806,16.538,37.667,24.805,65.586,24.805c31.028,0,54.016-9.741,71.04-31.883l-29.568-23.73
		C1766.159,692.457,1751.479,699.432,1733.656,699.432z"/>
	<path display="inline" fill="#FFFFFF" d="M388.487,507.017c-12.46-13.193-27.731-22.841-45.808-28.951
		c-18.083-6.104-38.971-9.162-62.666-9.162h-84.369v0.007c-10.989,0.08-19.875,9.007-19.875,20.015
		c0,11.058,8.965,20.023,20.023,20.023c0.101,0,0.199-0.014,0.3-0.015v176.898l0.062,0.061
		c0.662,30.632,25.682,55.264,56.472,55.264c0.003,0,0.007,0,0.01,0l0.032,0.031c25.653,0,74.922-3.298,93.858-9.895
		c18.931-6.597,34.265-17.224,45.992-31.883c21.255-27.118,31.882-58.508,31.882-94.182
		C424.4,565.165,412.427,532.429,388.487,507.017z M368.726,644.465c-3.803,10.728-9.277,19.669-16.427,26.819
		c-7.155,7.155-16.259,12.571-27.322,16.259s-24.42,5.532-40.061,5.532h-13.468c-0.091,0.001-0.181,0.007-0.273,0.007
		c-13.888,0-25.147-11.259-25.147-25.147v-39.387v-86.169h0.016c0-13.966,11.322-25.289,25.289-25.289v-0.016h12.913
		c15.196,0,28.27,1.959,39.223,5.867c10.948,3.913,20.224,9.554,27.825,16.929c7.595,7.375,13.352,16.427,17.265,27.155
		c3.907,10.727,5.867,23.466,5.867,38.217C374.425,620.663,372.523,633.737,368.726,644.465z"/>
	<path display="inline" fill="#8FC31F" d="M1411.918,554.181c-9.95-10.536-22.146-18.24-36.582-23.12
		c-14.441-4.875-31.122-7.316-50.044-7.316h-67.376v0.006c-8.776,0.064-15.872,7.193-15.872,15.984c0,8.831,7.159,15.99,15.99,15.99
		c0.081,0,0.159-0.011,0.24-0.012v141.269l0.05,0.049c0.528,24.462,20.509,44.133,45.098,44.133c0.003,0,0.005,0,0.008,0
		l0.025,0.025c20.486,0,59.833-2.634,74.954-7.902c15.118-5.268,27.364-13.755,36.729-25.461
		c16.974-21.656,25.461-46.724,25.461-75.213C1440.599,600.617,1431.037,574.475,1411.918,554.181z M1396.137,663.946
		c-3.037,8.567-7.408,15.708-13.118,21.418c-5.714,5.714-12.984,10.039-21.819,12.984s-19.502,4.418-31.993,4.418h-10.755
		c-0.073,0.001-0.145,0.005-0.218,0.005c-11.091,0-20.082-8.991-20.082-20.082v-31.454V582.42h0.012
		c0-11.154,9.042-20.195,20.195-20.195v-0.012h10.312c12.135,0,22.576,1.565,31.323,4.685c8.743,3.125,16.151,7.63,22.221,13.52
		c6.066,5.89,10.663,13.118,13.788,21.686c3.12,8.567,4.685,18.74,4.685,30.52C1400.689,644.938,1399.17,655.379,1396.137,663.946z"
		/>
	<rect x="692.294" y="549.56" display="inline" fill="#FFFFFF" width="66.765" height="46.151"/>
	<path display="inline" fill="#FFFFFF" d="M807.065,688.744c-9.489-3.305-18.083-8.795-25.775-16.488
		c-13.489-13.484-20.231-29.733-20.231-48.74v-27.973h23.971V549.56h-23.971v-20.318h-45.982v94.273
		c0,31.726,11.226,58.818,33.682,81.273c12.329,12.329,26.06,21.266,41.187,26.826L807.065,688.744z"/>
</g>
<g id="图层_3" display="none">
	<rect display="inline" fill="#151515" width="2204" height="1244"/>
	<path display="inline" fill="#FFFFFF" d="M717.992,509.41h49.88v52.266h15.599v42.936h-15.599v90.15h-49.88v-90.15h-15.059v-42.936
		h15.059V509.41z"/>
	<circle display="inline" fill="#FFFFFF" cx="702.642" cy="583.157" r="21.423"/>
	<circle display="inline" fill="#FFFFFF" cx="783.642" cy="583.137" r="21.423"/>
	<circle display="inline" fill="#FFFFFF" cx="742.946" cy="510.878" r="24.939"/>
	<circle display="inline" fill="#FFFFFF" cx="742.946" cy="692.891" r="24.939"/>
	<g display="inline">
		<path fill="#8FC31F" d="M1235.499,694.912c-2.253,2.007-4.569,3.755-6.945,5.257c-2.382,1.502-4.823,2.875-7.322,4.13
			c-13.517,6.506-27.661,9.763-42.428,9.763c-28.535,0-52.318-9.892-71.338-29.662c-19.025-19.771-28.535-44.305-28.535-73.591
			c0-30.284,9.257-55.44,27.784-75.469c18.773-20.275,42.428-30.413,70.963-30.413c15.265,0,29.532,3.508,42.803,10.513
			c5.503,2.757,10.514,6.007,15.019,9.762v-63.829v-5.611h49.945v239.321L1235.499,694.912z M1218.921,563.677
			c-11.348-12.353-24.966-18.535-40.853-18.535c-15.638,0-29.126,6.182-40.474,18.535c-11.1,12.613-16.644,28.5-16.644,47.662
			c0,18.156,5.675,33.286,17.022,45.391c11.348,12.104,24.965,18.157,40.852,18.157c16.892,0,30.64-5.923,41.231-17.779
			c10.84-12.104,16.266-27.737,16.266-46.905C1236.321,591.544,1230.517,576.036,1218.921,563.677z"/>
	</g>
	<path display="inline" fill="#8FC31F" d="M1510.854,669.885c-0.001,12.421-10.071,22.491-22.494,22.492
		c-12.422-0.001-22.49-10.072-22.49-22.493c-0.002-12.426,10.068-22.493,22.491-22.493
		C1500.782,647.391,1510.853,657.457,1510.854,669.885z"/>
	<path display="inline" fill="#8FC31F" d="M1765.588,555.226c-0.001,13.014-10.552,23.567-23.569,23.568
		c-13.016-0.001-23.566-10.553-23.566-23.569c-0.002-13.02,10.55-23.569,23.567-23.569
		C1755.035,531.657,1765.587,542.204,1765.588,555.226z"/>
	<path display="inline" fill="#8FC31F" d="M1767.963,658.414c-0.001,13.118-10.636,23.754-23.757,23.755
		c-13.12-0.001-23.753-10.637-23.753-23.756c-0.002-13.124,10.633-23.756,23.754-23.756
		C1757.326,634.657,1767.962,645.288,1767.963,658.414z"/>
	<path display="inline" fill="#8FC31F" d="M1501.896,687.849c-22.281,16.128-47.531,24.956-74.396,24.956
		c-28.84,0.001-53.467-10.206-73.875-30.615c-20.413-20.412-30.616-45.041-30.617-73.878c0.001-28.841,10.204-53.465,30.616-73.874
		c20.408-20.411,45.036-30.618,73.875-30.618c28.84,0,53.464,10.208,73.876,30.618c20.408,20.41,30.616,45.033,30.617,73.875
		c0,1.616-0.032,3.221-0.095,4.81c-0.217,5.53-17.646,16.089-17.646,16.089l-146.103-0.001c3.062,8.641,8.08,16.442,15.047,23.407
		c12.257,12.26,27.027,18.389,44.304,18.389c17.274,0.001,32.108-6.123,44.833-17.031
		C1473.232,653.206,1506.43,684.567,1501.896,687.849z M1486.851,587.412c-3.064-8.634-8.081-16.435-15.046-23.404
		c-12.261-12.259-27.032-18.393-44.304-18.393c-17.277,0.001-32.047,6.134-44.305,18.393c-6.968,6.97-11.985,14.771-15.047,23.404
		H1486.851z"/>
	<path display="inline" fill="#8FC31F" d="M1532.419,612.171c-0.001,9.547-7.742,17.287-17.289,17.287
		c-9.549,0-17.287-7.741-17.286-17.288c-0.001-9.551,7.738-17.288,17.285-17.288
		C1524.677,594.883,1532.418,602.618,1532.419,612.171z"/>
	<path display="inline" fill="#8FC31F" d="M1812.01,457.734h49.88v132.897l73.448-81.955l35.494,30.202l-58.486,65.07l68.111,73.538
		l-34.156,29.975l-84.411-91.616v78.86h-49.88V457.734z"/>
	<circle display="inline" fill="#8FC31F" cx="1260.468" cy="456.878" r="24.939"/>
	<circle display="inline" fill="#8FC31F" cx="1260.483" cy="695.981" r="24.955"/>
	<g display="inline">
		<path fill="#FFFFFF" d="M605.499,694.912c-2.253,2.007-4.569,3.755-6.945,5.257c-2.382,1.502-4.823,2.875-7.322,4.13
			c-13.517,6.506-27.661,9.763-42.428,9.763c-28.535,0-52.318-9.892-71.338-29.662c-19.025-19.771-28.535-44.305-28.535-73.591
			c0-30.284,9.257-55.44,27.784-75.469c18.773-20.275,42.428-30.413,70.963-30.413c15.265,0,29.532,3.508,42.803,10.513
			c5.503,2.757,10.514,6.007,15.019,9.762v5.171v-5.611h49.945v170.321L605.499,694.912z M588.921,563.677
			c-11.348-12.353-24.966-18.535-40.853-18.535c-15.638,0-29.126,6.182-40.474,18.535c-11.1,12.613-16.644,28.5-16.644,47.662
			c0,18.156,5.675,33.286,17.022,45.391c11.348,12.104,24.965,18.157,40.852,18.157c16.893,0,30.64-5.923,41.231-17.779
			c10.84-12.104,16.266-27.737,16.266-46.905C606.321,591.544,600.517,576.036,588.921,563.677z"/>
	</g>
	<circle display="inline" fill="#FFFFFF" cx="630.468" cy="524.878" r="24.939"/>
	<circle display="inline" fill="#FFFFFF" cx="630.483" cy="693.981" r="24.955"/>
	<g display="inline">
		<path fill="#FFFFFF" d="M987.499,694.912c-2.253,2.007-4.569,3.755-6.945,5.257c-2.382,1.502-4.823,2.875-7.322,4.13
			c-13.517,6.506-27.661,9.763-42.428,9.763c-28.535,0-52.318-9.892-71.338-29.662c-19.025-19.771-28.535-44.305-28.535-73.591
			c0-30.284,9.257-55.44,27.784-75.469c18.773-20.275,42.428-30.413,70.963-30.413c15.265,0,29.532,3.508,42.803,10.513
			c5.503,2.757,10.514,6.007,15.019,9.762v5.171v-5.611h49.945v170.321L987.499,694.912z M970.921,563.677
			c-11.348-12.353-24.966-18.535-40.853-18.535c-15.638,0-29.126,6.182-40.474,18.535c-11.1,12.613-16.644,28.5-16.644,47.662
			c0,18.156,5.675,33.286,17.022,45.391c11.348,12.104,24.965,18.157,40.852,18.157c16.893,0,30.64-5.923,41.231-17.779
			c10.84-12.104,16.266-27.737,16.266-46.905C988.321,591.544,982.517,576.036,970.921,563.677z"/>
	</g>
	<circle display="inline" fill="#FFFFFF" cx="1012.468" cy="524.878" r="24.939"/>
	<circle display="inline" fill="#FFFFFF" cx="1012.483" cy="693.981" r="24.955"/>
	<circle display="inline" fill="#8FC31F" cx="1836.949" cy="456.878" r="24.939"/>
	<circle display="inline" fill="#8FC31F" cx="1952.199" cy="524.795" r="23.356"/>
	<circle display="inline" fill="#8FC31F" cx="1963.336" cy="692.436" r="22.731"/>
	<circle display="inline" fill="#8FC31F" cx="1836.964" cy="693.981" r="24.955"/>
	<path display="inline" fill="#8FC31F" d="M1673.041,666.901c-18.048,0-32.623-5.35-43.719-16.054
		c-11.099-10.699-16.646-24.506-16.646-41.411c0-17.389,5.761-31.649,17.286-42.776c11.522-11.128,26.614-16.692,45.274-16.692
		c10.243,0,19.176,1.585,26.798,4.75c7.622,3.169,15.335,8.834,23.14,16.992l33.869-18.628l1.611-12.286
		c-8.893-10.496-19.969-19.182-32.508-25.451c-15.713-7.857-33.436-11.784-53.168-11.784c-21.318,0-40.593,4.631-57.828,13.885
		c-17.236,9.258-30.667,21.988-40.286,38.186c-9.624,16.202-14.434,33.925-14.434,53.168c0,27.772,9.894,52.013,29.69,72.718
		c19.793,20.709,47.167,31.061,82.127,31.061c38.853,0,67.639-12.198,88.956-39.924l-37.024-29.715
		C1713.742,658.167,1695.36,666.901,1673.041,666.901z"/>
	<path display="inline" fill="#FFFFFF" d="M393.487,485.017c-12.46-13.193-27.731-22.841-45.808-28.951
		c-18.083-6.104-38.971-9.162-62.666-9.162h-84.369v0.007c-10.989,0.08-19.875,9.007-19.875,20.015
		c0,11.058,8.965,20.023,20.023,20.023c0.101,0,0.199-0.014,0.3-0.015v176.898l0.062,0.061
		c0.662,30.632,25.682,55.264,56.472,55.264c0.003,0,0.007,0,0.01,0l0.032,0.031c25.653,0,74.922-3.298,93.858-9.895
		c18.931-6.597,34.265-17.224,45.992-31.883c21.255-27.118,31.882-58.508,31.882-94.182
		C429.4,543.165,417.427,510.429,393.487,485.017z M373.726,622.465c-3.803,10.728-9.277,19.669-16.427,26.819
		c-7.155,7.155-16.259,12.571-27.322,16.259s-24.42,5.532-40.061,5.532h-13.468c-0.091,0.001-0.181,0.007-0.273,0.007
		c-13.888,0-25.147-11.259-25.147-25.147v-39.387v-86.169h0.016c0-13.966,11.322-25.289,25.289-25.289v-0.016h12.913
		c15.196,0,28.27,1.959,39.223,5.867c10.948,3.913,20.224,9.554,27.825,16.929c7.595,7.375,13.352,16.427,17.265,27.155
		c3.907,10.727,5.867,23.466,5.867,38.217C379.425,598.663,377.523,611.737,373.726,622.465z"/>
</g>
</svg>
