<?xml version="1.0" encoding="utf-8"?>
<!-- Generator: Adobe Illustrator 16.0.0, SVG Export Plug-In . SVG Version: 6.00 Build 0)  -->
<!DOCTYPE svg PUBLIC "-//W3C//DTD SVG 1.1//EN" "http://www.w3.org/Graphics/SVG/1.1/DTD/svg11.dtd">
<svg version="1.1" id="图层_1" xmlns="http://www.w3.org/2000/svg" xmlns:xlink="http://www.w3.org/1999/xlink" x="0px" y="0px"
	 width="120px" height="70px" viewBox="0 0 120 70" enable-background="new 0 0 120 70" xml:space="preserve">
<g>
	<path fill="#3E4042" d="M0,60c0,5.522,4.477,10,10,10h100c5.523,0,10-4.478,10-10V0H0V60z"/>
</g>
<g>
	<path fill="#FFFFFF" d="M25.203,36.283c-2.119,0-4.102,0.749-5.6,2.249c-1.506,1.5-2.104,3.311-2.104,5.433v10.797
		c0,0.012,0-0.023,0,0c0,0.871,0.432,1.508,1.295,1.508c0.869,0,1.373-0.641,1.373-1.508c0-0.051,0,0.051,0,0v-4.639
		c1.998,1.014,2.906,1.521,4.66,1.521c2.113,0,4.113-0.752,5.611-2.252c1.498-1.499,2.342-3.31,2.342-5.428
		c0-2.122-0.697-3.933-2.199-5.433C29.084,37.032,27.322,36.283,25.203,36.283z M28.459,47.22c-0.904,0.899-1.988,1.352-3.256,1.352
		c-1.27,0-2.35-0.452-3.252-1.352c-0.9-0.901-1.352-1.988-1.352-3.255c0-1.271,0.451-2.359,1.352-3.26
		c0.902-0.9,1.982-1.352,3.252-1.352c1.268,0,2.352,0.451,3.256,1.352c0.896,0.9,1.348,1.988,1.348,3.26
		C29.807,45.231,29.355,46.318,28.459,47.22z"/>
	<path fill="#FFFFFF" d="M42.676,53.111c-0.016,0,0.275,0.003-0.049,0.003c-1.074-0.032-2.682-0.329-3.547-1.194
		c-0.902-0.901-1.563-2.156-1.563-3.426v-5.051h3.449h0.014l0,0c0.818,0,1.549-0.67,1.549-1.531c0-0.849-0.68-1.643-1.521-1.643
		H40.5h-2.982v-2.256c0-0.691-0.525-1.744-1.52-1.744c-1.111,0-1.637,1.053-1.637,1.744c0,0.064,0,10.48,0,10.48
		c0,2.121,0.875,4.168,2.369,5.667c1.279,1.277,3.531,2.2,5.746,2.101c0.846-0.037,1.885-0.727,1.885-1.57
		C44.361,53.846,43.523,53.111,42.676,53.111z"/>
	<path fill="#8BC34A" d="M100.539,49.645c0.971,0,1.852-0.672,1.955-1.623c0.123-1.118-1.5-7.73-7.965-7.755
		c-2.209-0.006-4.096,0.802-5.678,2.361c-1.58,1.56-2.352,3.45-2.352,5.649c0,2.201,0.805,4.088,2.385,5.648
		c1.582,1.557,3.496,2.341,5.732,2.341c2.068,0,4.189-0.651,5.793-1.923h0.004c0.4-0.32,0.666-0.805,0.666-1.353
		c0-0.948-0.779-1.716-1.744-1.716c-0.48,0-0.916,0.191-1.227,0.502H98.1c-0.988,0.834-2.141,1.158-3.479,1.214
		c-2.24,0.087-4.166-1.269-4.592-3.347H100.539C100.539,49.645,100.477,49.645,100.539,49.645z M94.621,43.672
		c2.57-0.068,4.361,1.819,4.602,3.203h-9.193C90.26,45.491,92.01,43.738,94.621,43.672z"/>
	<path fill="#8BC34A" d="M84.5,54.56v-6.247c0-2.219-0.693-4.115-2.279-5.686c-1.586-1.569-3.406-2.357-5.648-2.357
		c-2.238,0-4.125,0.788-5.713,2.357c-1.588,1.57-2.355,3.467-2.355,5.686v5.977v0.326L68.5,54.619l0.006,0.021
		c0.018,0.319,0.336,1.626,1.674,1.626c1.373,0,1.783-1.044,1.783-1.589c0-0.053,0-0.091,0-0.121c0-0.012,0.004-0.016,0.004-0.016
		c0-0.035-0.004-0.063-0.004-0.098v-6.131c0-1.33,0.393-2.463,1.348-3.408c0.953-0.943,2.064-1.418,3.404-1.418
		c1.342,0,2.436,0.475,3.387,1.418c0.955,0.945,1.203,2.078,1.203,3.408l-0.004,6.219c0,0,0.162,1.708,1.686,1.738
		C84.5,56.287,84.5,54.56,84.5,54.56z"/>
	<path fill="#8BC34A" d="M57.07,36.27c-5.232,0-9.475,4.479-9.475,10.002c0,5.521,4.242,9.998,9.475,9.998
		c5.23,0,9.473-4.477,9.473-9.998C66.543,40.748,62.301,36.27,57.07,36.27z M57.07,53.111c-3.49,0-6.316-3.061-6.316-6.84
		s2.826-6.844,6.316-6.844c3.486,0,6.314,3.064,6.314,6.844S60.557,53.111,57.07,53.111z"/>
</g>
</svg>
