<?xml version="1.0" encoding="utf-8"?>
<!-- Generator: Adobe Illustrator 16.0.0, SVG Export Plug-In . SVG Version: 6.00 Build 0)  -->
<!DOCTYPE svg PUBLIC "-//W3C//DTD SVG 1.1//EN" "http://www.w3.org/Graphics/SVG/1.1/DTD/svg11.dtd">
<svg version="1.1" id="图层_1" xmlns="http://www.w3.org/2000/svg" xmlns:xlink="http://www.w3.org/1999/xlink" x="0px" y="0px"
	 width="20px" height="20px" viewBox="0 0 20 20" enable-background="new 0 0 20 20" xml:space="preserve">
<path d="M15.5,13c-0.705,0-1.343,0.292-1.797,0.764l-6.734-3.367C6.989,10.267,7,10.135,7,10S6.989,9.733,6.969,9.604l6.734-3.367
	C14.157,6.708,14.795,7,15.5,7C16.881,7,18,5.881,18,4.5S16.881,2,15.5,2S13,3.119,13,4.5c0,0.135,0.011,0.267,0.031,0.396
	L6.297,8.264C5.843,7.792,5.205,7.5,4.5,7.5C3.119,7.5,2,8.619,2,10s1.119,2.5,2.5,2.5c0.705,0,1.343-0.292,1.797-0.764l6.734,3.367
	C13.011,15.233,13,15.365,13,15.5c0,1.381,1.119,2.5,2.5,2.5s2.5-1.119,2.5-2.5S16.881,13,15.5,13z"/>
</svg>
