<?xml version="1.0" encoding="utf-8"?>
<!-- Generator: Adobe Illustrator 16.0.0, SVG Export Plug-In . SVG Version: 6.00 Build 0)  -->
<!DOCTYPE svg PUBLIC "-//W3C//DTD SVG 1.1//EN" "http://www.w3.org/Graphics/SVG/1.1/DTD/svg11.dtd">
<svg version="1.1" id="图层_1" xmlns="http://www.w3.org/2000/svg" xmlns:xlink="http://www.w3.org/1999/xlink" x="0px" y="0px"
	 width="16px" height="16px" viewBox="0 0 16 16" enable-background="new 0 0 16 16" xml:space="preserve">
<g>
	<path fill="#F4D9C5" d="M1.21,9.603c0.066,0,0.132-0.005,0.195-0.014c0.521,2.041,2.039,3.681,4.004,4.375h4.199
		c1.966-0.694,3.483-2.334,4.004-4.375c0.064,0.009,0.129,0.014,0.195,0.014c0.869,0,1.211-0.706,1.211-1.574
		c0-0.87-0.342-1.575-1.211-1.575c-0.066,0-0.131,0.005-0.195,0.014C12.918,3.743,11.4,1,7.51,1C4.17,1,2.1,3.743,1.405,6.467
		C1.342,6.458,1.276,6.453,1.21,6.453C0.341,6.453,0,7.158,0,8.028C0,8.896,0.341,9.603,1.21,9.603z"/>
	<g>
		<path fill="#231F24" d="M6.549,11.869L6.418,11.6c0.835-0.405,1.531-0.421,2.19-0.041l-0.148,0.26
			C7.887,11.492,7.298,11.509,6.549,11.869z"/>
	</g>
	<g>
		<path fill="#231F24" d="M16,6.361c0,0-0.664-0.524-1.224-0.548c-0.271-0.012-0.603,0.111-0.857,0.229
			c0.213-0.174,0.459-0.416,0.572-0.681c0.229-0.537,0.031-1.34,0.031-1.34s-0.727,0.433-0.946,0.948
			c-0.141,0.328-0.104,0.831-0.067,1.118C12.771,3.496,11.22,1,7.508,1C4.239,1,2.187,3.63,1.451,6.297h12.09
			c0.002,0.009,0.003,0.014,0.003,0.014s0.008-0.004,0.021-0.012c0.164,0.12,0.703,0.49,1.172,0.509C15.32,6.832,16,6.361,16,6.361z
			"/>
		<g>
			<path fill="#FFFFFF" d="M9.168,4.656C9.034,4.594,8.876,4.648,8.807,4.777l-0.81-0.311l0.807-0.309
				c0.068,0.131,0.229,0.188,0.364,0.124c0.14-0.065,0.199-0.231,0.134-0.369C9.277,3.859,9.237,3.817,9.189,3.791
				c0.01-0.054,0.003-0.111-0.022-0.165c-0.064-0.138-0.23-0.198-0.369-0.133C8.667,3.555,8.607,3.706,8.656,3.84L7.51,4.28
				L6.361,3.84C6.41,3.706,6.351,3.555,6.22,3.493C6.081,3.428,5.915,3.488,5.85,3.626C5.824,3.68,5.818,3.737,5.827,3.791
				C5.78,3.817,5.741,3.859,5.716,3.913C5.651,4.051,5.71,4.217,5.849,4.282c0.137,0.064,0.297,0.007,0.365-0.124l0.807,0.309
				l-0.81,0.311C6.142,4.648,5.983,4.594,5.849,4.656C5.71,4.722,5.65,4.887,5.716,5.026C5.741,5.08,5.78,5.121,5.827,5.148
				C5.818,5.203,5.824,5.26,5.85,5.313c0.065,0.139,0.231,0.198,0.37,0.133c0.133-0.062,0.191-0.216,0.141-0.35L7.51,4.654
				l1.147,0.441c-0.052,0.134,0.009,0.288,0.141,0.35c0.139,0.065,0.305,0.006,0.369-0.133C9.192,5.26,9.199,5.203,9.189,5.148
				C9.237,5.121,9.276,5.08,9.302,5.026C9.367,4.887,9.308,4.722,9.168,4.656z"/>
			<g>
				<path fill="#FFFFFF" d="M7.51,1.703c-0.527,0-0.954,0.428-0.954,0.954c0,0.385,0.229,0.717,0.559,0.867v0.404h0.79V3.524
					c0.329-0.15,0.558-0.482,0.558-0.867C8.462,2.131,8.036,1.703,7.51,1.703z M7.146,2.627c-0.073,0-0.134-0.061-0.134-0.135
					c0-0.073,0.061-0.134,0.134-0.134c0.074,0,0.134,0.061,0.134,0.134C7.28,2.566,7.221,2.627,7.146,2.627z M7.779,2.627
					c-0.075,0-0.135-0.061-0.135-0.135c0-0.073,0.06-0.134,0.135-0.134c0.073,0,0.134,0.061,0.134,0.134
					C7.913,2.566,7.853,2.627,7.779,2.627z"/>
			</g>
		</g>
	</g>
	<path fill="#231F24" d="M7.51,10.402c-2.026,0-3.668,1.227-3.671,2.74c0.623,0.448,1.326,0.809,2.096,0.985
		c1.152,0.264,3.149,0,3.149,0c0.765-0.197,1.472-0.537,2.095-0.985C11.176,11.629,9.534,10.402,7.51,10.402z M9.328,12.904
		c-0.267,0.355-3.351,0.366-3.639,0c-0.417-0.53,0.361-1.991,1.82-1.991C8.967,10.913,9.733,12.365,9.328,12.904z"/>
	<g>
		<path fill="#231F24" d="M3.655,7.138C3.502,7.244,3.551,7.501,3.551,7.699c0,0.866,0.701,1.787,1.567,1.787
			c0.865,0,1.566-0.921,1.566-1.787c0-0.198,0.039-0.442-0.104-0.562C6.016,6.673,4.259,6.725,3.655,7.138z"/>
		<path fill="#231F24" d="M8.441,7.138C8.287,7.244,8.335,7.501,8.335,7.699c0,0.866,0.703,1.787,1.567,1.787
			c0.865,0,1.567-0.921,1.567-1.787c0-0.198,0.039-0.442-0.105-0.562C10.801,6.673,9.044,6.725,8.441,7.138z"/>
		<path fill="#231F24" d="M8.434,8.064c-0.506-0.508-1.393-0.508-1.898,0L6.322,7.852c0.641-0.641,1.684-0.641,2.324,0L8.434,8.064z
			"/>
	</g>
</g>
</svg>
