<?xml version="1.0" encoding="utf-8"?>
<!-- Generator: Adobe Illustrator 17.0.0, SVG Export Plug-In . SVG Version: 6.00 Build 0)  -->
<!DOCTYPE svg PUBLIC "-//W3C//DTD SVG 1.1//EN" "http://www.w3.org/Graphics/SVG/1.1/DTD/svg11.dtd">
<svg version="1.1" xmlns="http://www.w3.org/2000/svg" xmlns:xlink="http://www.w3.org/1999/xlink" x="0px" y="0px" width="40px"
	 height="40px" viewBox="0 0 40 40" enable-background="new 0 0 40 40" xml:space="preserve">
<g id="图层_1">
	<circle display="none" fill="#FFFFFF" stroke="#070707" stroke-miterlimit="10" cx="19.625" cy="19.755" r="19.125"/>
	<g id="youtube_3_">
		<g>
			<path d="M33.242,21.22H6.471v0.033c-3.51,0.173-6.309,3.049-6.309,6.602s2.799,6.429,6.309,6.602v0.033h26.771
				c3.664,0,6.634-2.97,6.634-6.634C39.876,24.19,36.906,21.22,33.242,21.22z M11.675,17.785h2.054v-5.26l2.918-7.68h-2.131
				l-0.902,3.091c-0.287,0.959-0.557,1.939-0.768,2.898h-0.038c-0.231-0.979-0.519-1.977-0.807-2.841l-0.998-3.149H8.833
				l2.842,7.757V17.785z M19.466,17.939h0.019c1.402,0,3.36-1.075,3.36-4.857c0-3.091-1.344-4.8-3.302-4.8
				c-1.748,0-3.418,1.458-3.418,4.857C16.125,16.288,17.488,17.939,19.466,17.939z M19.503,9.857c1.056,0,1.286,1.882,1.286,3.244
				c0,1.422-0.23,3.265-1.247,3.265h-0.02c-1.075,0-1.344-1.69-1.344-3.265C18.179,11.738,18.39,9.857,19.503,9.857z M25.87,17.939
				c0.979,0,1.728-0.576,2.093-1.133h0.038l0.115,0.979h1.785c-0.038-0.787-0.077-1.708-0.077-2.726V8.436H27.77v6.066
				c0,0.308-0.038,0.594-0.115,0.805c-0.096,0.385-0.422,0.923-1.056,0.923c-0.844,0-1.075-0.923-1.075-2.266V8.436H23.47v5.779
				C23.47,16.653,24.162,17.939,25.87,17.939z"/>
		</g>
	</g>
	<g id="youtube_1_">
		<g>
			<path fill="#FFFFFF" d="M18.971,25.647h-1.503v4.401c0,0.225-0.028,0.436-0.084,0.59c-0.07,0.281-0.159,0.674-0.623,0.674
				c-0.618,0-0.936-0.674-0.936-1.658v-4.008h-1.503v4.19c0,1.784,0.505,2.726,1.756,2.726c0.717,0,1.414-0.422,1.681-0.829h0.028
				l0.084,0.716h1.157c-0.029-0.575-0.056-1.25-0.056-1.994V25.647z M14.771,23.035H9.031v1.545h2.11v7.833h1.501V24.58h2.13V23.035
				z M30.06,28.63c0-1.826-1.23-3.133-2.663-3.133c-1.461,0-2.043,1.376-2.043,3.639c0,2.121,0.941,3.4,2.712,3.4
				c0.618,0,1.279-0.127,1.714-0.323l-0.225-1.068c-0.295,0.127-0.717,0.24-1.223,0.24c-0.8,0-1.503-0.571-1.517-2.103h3.204
				C30.047,29.098,30.06,29.023,30.06,28.63z M26.815,28.363c0.029-0.801,0.323-1.742,0.97-1.742c0.534,0,0.899,0.647,0.885,1.742
				H26.815z M22.906,25.497c-0.632,0-0.95,0.28-1.286,0.856h-0.029v-3.841h-1.56v8.084c0,0.562-0.029,1.46-0.056,1.966h1.35
				l0.084-0.954h0.042c0.323,0.631,0.556,0.955,1.202,0.955c1.18,0,2.164-1.236,2.164-3.667
				C24.817,26.873,24.115,25.497,22.906,25.497z M22.303,31.327c-0.253,0-0.458-0.154-0.655-0.871
				c-0.028-0.113-0.056-0.267-0.056-0.436v-1.925c0-0.127,0.029-0.309,0.056-0.436c0.084-0.449,0.261-0.899,0.641-0.899
				c0.73,0,1.026,0.97,1.026,2.235C23.314,30.371,23.033,31.327,22.303,31.327z"/>
		</g>
	</g>
</g>
<g id="图层_2">
</g>
</svg>
