<?xml version="1.0" encoding="utf-8"?>
<!-- Generator: Adobe Illustrator 16.0.0, SVG Export Plug-In . SVG Version: 6.00 Build 0)  -->
<!DOCTYPE svg PUBLIC "-//W3C//DTD SVG 1.1//EN" "http://www.w3.org/Graphics/SVG/1.1/DTD/svg11.dtd">
<svg version="1.1" id="图层_1" xmlns="http://www.w3.org/2000/svg" xmlns:xlink="http://www.w3.org/1999/xlink" x="0px" y="0px"
	 width="16px" height="16px" viewBox="0 0 16 16" enable-background="new 0 0 16 16" xml:space="preserve">
<path fill="#00546B" d="M16,14c0,1.1-0.9,2-2,2H2c-1.1,0-2-0.9-2-2V2c0-1.1,0.9-2,2-2h12c1.1,0,2,0.9,2,2V14z"/>
<path fill="#FFFFFF" d="M15.496,8.459c-0.334-0.52-0.568-1.055-0.954-1.524c-1.807-2.22-3.608-3.467-6.264-4.566
	C7.708,2.145,7.064,2.103,6.371,2.04C6.012,2.073,5.653,2.098,5.294,2.131C5.051,2.064,4.787,1.823,4.567,1.722
	C3.684,1.322,1.43,0.505,1.039,2.057c-0.258,0.98,0.825,1.76,1.217,2.186c0.29,0.294,0.657,0.621,0.88,0.968
	c0.131,0.229,0.196,0.482,0.332,0.724c0.316,0.598,0.626,1.266,1.008,1.809C4.677,8.02,4.89,8.311,5.128,8.552
	C5.265,8.696,5.474,8.736,5.553,8.99C5.392,9.3,5.439,9.73,5.374,10.103c-0.287,1.683,0.187,3.653,1.08,4.735
	c0.277,0.325,0.93,1.034,1.615,0.635c0.607-0.349,0.35-1.141,0.438-1.881c0.017-0.178-0.026-0.287,0.044-0.413
	c0.002,0.016,0.005,0.029,0.005,0.029c0.253,0.371,0.506,0.73,0.749,1.104c0.537,0.638,1.41,1.256,2.12,1.651
	c0.019,0.011,0.037,0.025,0.056,0.037h0.217c-0.134-0.118-0.265-0.239-0.374-0.356c-0.713-0.717-1.362-1.526-1.962-2.374
	c-0.289-0.412-0.558-0.868-0.803-1.283c-0.109-0.159-0.146-0.416-0.301-0.48c-0.17,0.342-0.447,0.656-0.549,1.063
	C7.522,13.221,7.6,13.981,7.608,14.78c-0.053,0.021-0.027,0.004-0.05,0.035c-0.476-0.052-0.697-0.496-0.926-0.876
	c-0.566-0.95-0.865-2.566-0.658-3.79c0.06-0.313,0.356-1.314,0.146-1.573C5.997,8.315,5.688,8.199,5.502,8.005
	C5.277,7.76,5.032,7.448,4.864,7.164c-0.457-0.75-0.752-1.611-1.232-2.36C3.407,4.46,3.056,4.116,2.766,3.808
	C2.438,3.459,2.103,3.229,1.824,2.802C1.729,2.658,1.597,2.416,1.687,2.226C1.698,2.109,1.75,2.058,1.861,2.013
	c0.163-0.182,0.721-0.056,0.916,0.005c0.557,0.14,1.027,0.277,1.513,0.516C4.507,2.649,4.759,2.89,5.025,2.925
	c0.1-0.014,0.202-0.027,0.301-0.043c0.472,0.039,0.973-0.107,1.42-0.038c0.79,0.139,1.526,0.4,2.192,0.698
	c2.032,0.924,3.807,2.394,5.127,4.261c0.22,0.304,0.332,0.592,0.536,0.911c0.397,0.66,0.868,1.321,1.264,1.964
	c0.044,0.071,0.091,0.14,0.135,0.211V9.264C15.83,8.995,15.657,8.725,15.496,8.459z"/>
<path fill="#FFFFFF" d="M6.105,4.199C5.864,4.232,5.698,4.286,5.532,4.351c0,0,0.002,0.015,0.004,0.029
	C5.55,4.377,5.55,4.377,5.563,4.376C5.709,4.59,5.93,4.718,6.102,4.898C6.246,5.11,6.38,5.325,6.525,5.535
	c0.011-0.013,0.024-0.03,0.024-0.03C6.729,5.334,6.797,5.092,6.749,4.75c-0.1-0.089-0.128-0.185-0.213-0.275
	C6.431,4.343,6.237,4.296,6.105,4.199z"/>
</svg>
