<?xml version="1.0" encoding="utf-8"?>
<!-- Generator: Adobe Illustrator 16.0.0, SVG Export Plug-In . SVG Version: 6.00 Build 0)  -->
<!DOCTYPE svg PUBLIC "-//W3C//DTD SVG 1.1//EN" "http://www.w3.org/Graphics/SVG/1.1/DTD/svg11.dtd">
<svg version="1.1" id="图层_1" xmlns="http://www.w3.org/2000/svg" xmlns:xlink="http://www.w3.org/1999/xlink" x="0px" y="0px"
	 width="170px" height="40px" viewBox="0 0 170 40" enable-background="new 0 0 170 40" xml:space="preserve">
<g>
	<g>
		<path fill="#FFFFFF" d="M15.405,0.025c-4.239,0-8.202,1.499-11.2,4.499C1.195,7.524,0,11.145,0,15.388v21.596c0,0.024,0-0.047,0,0
			c0,1.742,0.861,3.015,2.59,3.015c1.736,0,2.744-1.28,2.744-3.015c0-0.104,0,0.101,0,0v-9.278c3.997,2.028,5.815,3.042,9.32,3.042
			c4.229,0,8.227-1.504,11.226-4.502c2.996-2.999,4.683-6.621,4.683-10.858c0-4.243-1.396-7.864-4.4-10.864
			C23.166,1.524,19.646,0.025,15.405,0.025z M21.916,21.899c-1.807,1.798-3.974,2.704-6.511,2.704s-4.7-0.905-6.504-2.704
			c-1.8-1.804-2.704-3.976-2.704-6.511c0-2.541,0.904-4.717,2.704-6.518c1.804-1.803,3.967-2.705,6.504-2.705
			s4.704,0.902,6.511,2.705c1.793,1.801,2.694,3.977,2.694,6.518C24.61,17.923,23.709,20.095,21.916,21.899z"/>
		<path fill="#FFFFFF" d="M50.351,33.685c-0.031,0,0.552,0.005-0.098,0.005c-2.147-0.065-5.362-0.658-7.096-2.39
			c-1.805-1.802-3.122-4.312-3.122-6.852V14.347h6.896h0.028l0,0c1.639,0,3.098-1.34,3.098-3.063c0-1.697-1.359-3.285-3.043-3.285
			H46h-5.965V3.486C40.035,2.104,38.981,0,36.993,0c-2.219,0-3.272,2.104-3.272,3.486c0,0.131,0,20.962,0,20.962
			c0,4.243,1.751,8.335,4.741,11.334c2.557,2.556,7.06,4.402,11.491,4.203c1.69-0.074,3.767-1.455,3.767-3.143
			C53.72,35.152,52.045,33.685,50.351,33.685z"/>
		<path fill="#FFFFFF" d="M166.079,26.748c1.938,0,3.7-1.343,3.908-3.246c0.248-2.236-2.999-15.46-15.931-15.51
			c-4.418-0.012-8.19,1.603-11.353,4.723C139.541,15.834,138,19.615,138,24.014c0,4.404,1.609,8.176,4.77,11.298
			c3.164,3.113,6.992,4.682,11.465,4.682c4.137,0,8.379-1.304,11.585-3.847h0.008c0.803-0.639,1.331-1.608,1.331-2.705
			c0-1.896-1.559-3.433-3.485-3.433c-0.961,0-1.834,0.383-2.455,1.004h-0.02c-1.976,1.668-4.282,2.319-6.956,2.429
			c-4.48,0.174-8.332-2.537-9.186-6.694H166.079C166.079,26.748,165.953,26.748,166.079,26.748z M154.242,14.802
			c5.141-0.135,8.721,3.64,9.202,6.408h-18.388C145.518,18.442,149.018,14.938,154.242,14.802z"/>
		<path fill="#FFFFFF" d="M133.999,36.58V24.086c0-4.438-1.386-8.231-4.559-11.372c-3.171-3.139-6.812-4.715-11.296-4.715
			c-4.478,0-8.251,1.576-11.427,4.715c-3.177,3.14-4.71,6.934-4.71,11.372v11.953v0.651l-0.006,0.008l0.011,0.043
			c0.035,0.638,0.669,3.251,3.348,3.251c2.743,0,3.567-2.087,3.567-3.178c0-0.107,0-0.182,0-0.244c0-0.023,0.006-0.031,0.006-0.031
			c0-0.069-0.006-0.124-0.006-0.194V24.086c0-2.661,0.783-4.926,2.692-6.819c1.908-1.885,4.127-2.834,6.81-2.834
			c2.682,0,4.87,0.949,6.771,2.834c1.913,1.893,2.409,4.158,2.409,6.819l-0.008,12.437c0,0,0.322,3.417,3.368,3.476
			C133.999,40.034,133.999,36.58,133.999,36.58z"/>
		<path fill="#FFFFFF" d="M79.14,0c-10.465,0-18.95,8.955-18.95,20.004c0,11.042,8.485,19.995,18.95,19.995
			c10.462,0,18.945-8.952,18.945-19.995C98.085,8.955,89.602,0,79.14,0z M79.14,33.685c-6.979,0-12.633-6.125-12.633-13.682
			c0-7.558,5.654-13.688,12.633-13.688c6.973,0,12.631,6.13,12.631,13.688C91.771,27.56,86.112,33.685,79.14,33.685z"/>
	</g>
</g>
</svg>
