<?xml version="1.0" encoding="utf-8"?>
<!-- Generator: Adobe Illustrator 18.0.0, SVG Export Plug-In . SVG Version: 6.00 Build 0)  -->
<!DOCTYPE svg PUBLIC "-//W3C//DTD SVG 1.1//EN" "http://www.w3.org/Graphics/SVG/1.1/DTD/svg11.dtd">
<svg version="1.1" id="图层_1" xmlns="http://www.w3.org/2000/svg" xmlns:xlink="http://www.w3.org/1999/xlink" x="0px" y="0px"
	 viewBox="0 0 16 16" enable-background="new 0 0 16 16" xml:space="preserve">
<g>
	<path d="M5.731,1.43c0.424-0.096,0.913-0.148,1.422-0.148c1.107,0,3.661,0.268,5.425,2.491l0.009-0.009l1.143-2.636
		c0.038-0.09,0.131-0.143,0.227-0.126c0.047,0.006,0.089,0.027,0.122,0.058c0.031,0.033,0.055,0.076,0.062,0.126l0.858,6.57
		c0.009,0.062-0.014,0.131-0.06,0.178c-0.05,0.049-0.118,0.071-0.183,0.062l-6.57-0.861C8.09,7.125,8.015,7.049,8,6.958
		C7.987,6.86,8.039,6.767,8.13,6.731l2.639-1.148l0.233-0.232c-1.131-1.6-2.842-1.853-3.811-1.853c-0.575,0-0.968,0.085-0.984,0.085
		c-0.055,0.014-0.106-0.02-0.118-0.074L5.652,1.55C5.643,1.495,5.677,1.443,5.731,1.43z"/>
	<path d="M8.045,12.45c-0.956-0.133-2.174-0.564-3.048-1.798l0.237-0.235l2.637-1.146c0.089-0.035,0.14-0.131,0.126-0.227
		c-0.011-0.093-0.088-0.17-0.184-0.184L1.242,8.006C1.178,7.997,1.11,8.019,1.065,8.063c-0.048,0.046-0.07,0.114-0.064,0.18
		l0.86,6.571c0.006,0.049,0.028,0.09,0.061,0.123c0.032,0.032,0.073,0.055,0.123,0.06c0.096,0.017,0.188-0.038,0.228-0.126
		l1.142-2.639l0.007-0.002c1.764,2.223,4.316,2.488,5.428,2.488c0.076,0,0.148-0.009,0.223-0.012
		C8.509,14.099,8.144,13.318,8.045,12.45z"/>
	<g>
		<path d="M12.175,10.702c-0.047-0.054-0.105-0.081-0.178-0.081c-0.079,0-0.146,0.034-0.202,0.103
			c-0.042,0.051-0.072,0.105-0.09,0.165l-0.329,1.079h1.23l-0.323-1.079C12.264,10.826,12.228,10.763,12.175,10.702z"/>
		<path d="M12,9c-1.657,0-3,1.343-3,3s1.343,3,3,3s3-1.343,3-3S13.657,9,12,9z M13.068,13.486l-0.323-1.033h-1.483l-0.345,1.033
			l-0.531-0.003l0.771-2.605c0.064-0.217,0.15-0.389,0.256-0.517c0.142-0.174,0.334-0.261,0.575-0.261
			c0.24,0,0.426,0.067,0.556,0.204c0.103,0.108,0.181,0.247,0.233,0.417l0.839,2.765H13.068z"/>
	</g>
</g>
</svg>
