<?xml version="1.0" encoding="utf-8"?>
<!-- Generator: Adobe Illustrator 16.0.0, SVG Export Plug-In . SVG Version: 6.00 Build 0)  -->
<!DOCTYPE svg PUBLIC "-//W3C//DTD SVG 1.1//EN" "http://www.w3.org/Graphics/SVG/1.1/DTD/svg11.dtd">
<svg version="1.1" id="图层_1" xmlns="http://www.w3.org/2000/svg" xmlns:xlink="http://www.w3.org/1999/xlink" x="0px" y="0px"
	 width="16px" height="16px" viewBox="0 0 16 16" enable-background="new 0 0 16 16" xml:space="preserve">
<g>
	<path fill="#0A6E3D" d="M10.688,0H5.306c0,0,4.499,13.536,4.512,13.573c0.292,0.854,0.504,1.462,0.883,1.857V0.038L10.688,0z"/>
	<path fill="#0F9E59" d="M10.7,0.038v15.393C11.072,15.818,11.605,16,12.537,16c0.077,0,3.398,0,3.463,0v-0.018L10.7,0.038z"/>
	<path fill="#4285F5" d="M3.469,16C3.391,16,0,16,0,16L5.318,0H10.7c0,0-4.499,13.536-4.512,13.573C5.609,15.266,5.35,16,3.469,16z"
		/>
</g>
</svg>
