<?xml version="1.0" encoding="utf-8"?>
<!-- Generator: Adobe Illustrator 16.0.0, SVG Export Plug-In . SVG Version: 6.00 Build 0)  -->
<!DOCTYPE svg PUBLIC "-//W3C//DTD SVG 1.1//EN" "http://www.w3.org/Graphics/SVG/1.1/DTD/svg11.dtd">
<svg version="1.1" id="图层_1" xmlns="http://www.w3.org/2000/svg" xmlns:xlink="http://www.w3.org/1999/xlink" x="0px" y="0px"
	 width="16px" height="16px" viewBox="0 0 16 16" enable-background="new 0 0 16 16" xml:space="preserve">
<path d="M15.4,11.7c-0.129-0.172-3.188-4.2-6.4-4.2H3.207l4.146-4.146c0.195-0.195,0.195-0.512,0-0.707s-0.512-0.195-0.707,0
	L1.647,7.646C1.646,7.646,1.646,7.646,1.646,7.647L1.293,8l0.353,0.353c0.001,0.001,0.001,0.001,0.002,0.002l4.999,4.999
	C6.744,13.451,6.872,13.5,7,13.5s0.256-0.049,0.354-0.146c0.195-0.195,0.195-0.512,0-0.707L3.207,8.5H9
	c2.713,0,5.571,3.762,5.601,3.8c0.098,0.131,0.248,0.2,0.399,0.2c0.104,0,0.21-0.032,0.3-0.101
	C15.521,12.234,15.565,11.921,15.4,11.7z"/>
<rect fill="none" width="16" height="16"/>
</svg>
