<?xml version="1.0" encoding="utf-8"?>
<!-- Generator: Adobe Illustrator 16.0.0, SVG Export Plug-In . SVG Version: 6.00 Build 0)  -->
<!DOCTYPE svg PUBLIC "-//W3C//DTD SVG 1.1//EN" "http://www.w3.org/Graphics/SVG/1.1/DTD/svg11.dtd">
<svg version="1.1" id="图层_1" xmlns="http://www.w3.org/2000/svg" xmlns:xlink="http://www.w3.org/1999/xlink" x="0px" y="0px"
	 width="16px" height="16px" viewBox="0 0 16 16" enable-background="new 0 0 16 16" xml:space="preserve">
<g>
	<rect x="12.003" y="8.5" fill="#207245" width="2" height="1.25"/>
	<rect x="12.003" y="6.25" fill="#207245" width="2" height="1.25"/>
	<rect x="12.003" y="10.75" fill="#207245" width="2" height="1.25"/>
	<rect x="12.003" y="4" fill="#207245" width="2" height="1.25"/>
	<path fill="#207245" d="M15.518,1.482l-5.515,0.006V0H8.052L0,1.49v13.021L8.003,16h2v-1.675h5.547c0.28,0,0.446-0.196,0.446-0.453
		L16,2.002C16,1.59,15.909,1.482,15.518,1.482z M6.173,11.89l-1.27-3.033l-1.234,2.866l-1.666-0.052l1.955-3.644L2.169,4.331
		l1.676-0.092l1.104,2.843l1.263-2.984L7.939,4L5.893,7.956L8.003,12L6.173,11.89z M15.003,4v1.25v1V7.5v1v1.25v1V12v1h-1h-2h-1h-1
		v-1h1v-1.25h-1v-1h1V8.5h-1v-1h1V6.25h-1v-1h1V4h-1V3h1h1h2h1V4z"/>
</g>
</svg>
