<?xml version="1.0" encoding="utf-8"?>
<!-- Generator: Adobe Illustrator 16.0.0, SVG Export Plug-In . SVG Version: 6.00 Build 0)  -->
<!DOCTYPE svg PUBLIC "-//W3C//DTD SVG 1.1//EN" "http://www.w3.org/Graphics/SVG/1.1/DTD/svg11.dtd">
<svg version="1.1" id="图层_1" xmlns="http://www.w3.org/2000/svg" xmlns:xlink="http://www.w3.org/1999/xlink" x="0px" y="0px"
	 width="16px" height="16px" viewBox="0 0 16 16" enable-background="new 0 0 16 16" xml:space="preserve">
<rect opacity="0.5" fill="none" width="16" height="16"/>
<g>
	<g transform="translate(32.4187,40.9816)">
		<path id="XMLID_20_" fill="#003087" d="M-19.433-39.785c-0.741-0.844-2.08-1.206-3.793-1.206h-4.973
			c-0.351,0-0.648,0.255-0.703,0.601l-2.07,13.131c-0.041,0.259,0.159,0.493,0.422,0.493h3.069l0.771-4.89l-0.023,0.153
			c0.055-0.346,0.351-0.601,0.701-0.601h1.459c2.865,0,5.109-1.164,5.765-4.531c0.02-0.1,0.036-0.196,0.051-0.291
			C-18.563-38.171-18.76-39.018-19.433-39.785"/>
	</g>
	<g transform="translate(32.4187,40.9816)">
		<path id="XMLID_19_" fill="#003087" d="M-19.433-39.785c-0.741-0.844-2.08-1.206-3.793-1.206h-4.973
			c-0.351,0-0.648,0.255-0.703,0.601l-2.07,13.131c-0.041,0.259,0.159,0.493,0.422,0.493h3.069l0.771-4.89l-0.023,0.153
			c0.055-0.346,0.351-0.601,0.701-0.601h1.459c2.865,0,5.109-1.164,5.765-4.531c0.02-0.1,0.036-0.196,0.051-0.291
			C-18.563-38.171-18.76-39.018-19.433-39.785"/>
	</g>
	<g transform="translate(17.8489,34.4853)">
		<path id="XMLID_18_" fill="#003087" d="M-11.311-30.414c0.032-0.208,0.166-0.378,0.346-0.465c0.081-0.038,0.173-0.06,0.269-0.06
			h3.897c0.462,0,0.893,0.03,1.286,0.093c0.113,0.019,0.222,0.039,0.328,0.063c0.106,0.023,0.21,0.05,0.31,0.079
			c0.05,0.015,0.1,0.029,0.147,0.046c0.193,0.064,0.373,0.14,0.539,0.228c0.195-1.245-0.001-2.092-0.675-2.858
			c-0.741-0.845-2.079-1.207-3.793-1.207h-4.973c-0.351,0-0.648,0.255-0.703,0.601l-2.07,13.131
			c-0.041,0.259,0.159,0.493,0.422,0.493h3.07l0.771-4.891L-11.311-30.414z"/>
	</g>
	<g transform="translate(33.9429,34.5226)">
		<path id="XMLID_17_" fill="#009CDE" d="M-20.283-30.467L-20.283-30.467c-0.016,0.095-0.031,0.191-0.051,0.291
			c-0.655,3.366-2.899,4.531-5.765,4.531h-1.46c-0.35,0-0.646,0.255-0.7,0.601l-0.746,4.736l-0.212,1.343
			c-0.036,0.228,0.139,0.433,0.368,0.433h2.588c0.306,0,0.566-0.223,0.614-0.525l0.025-0.132l0.487-3.091l0.031-0.171
			c0.049-0.303,0.31-0.525,0.615-0.525h0.388c2.507,0,4.469-1.019,5.043-3.964c0.239-1.23,0.115-2.259-0.518-2.98
			C-19.766-30.139-20.004-30.319-20.283-30.467"/>
	</g>
	<g transform="translate(32.3922,35.1407)">
		<path id="XMLID_16_" fill="#012169" d="M-19.419-31.358c-0.1-0.029-0.203-0.056-0.309-0.08c-0.107-0.022-0.217-0.044-0.329-0.062
			c-0.394-0.064-0.824-0.094-1.286-0.094h-3.897c-0.096,0-0.188,0.021-0.269,0.061c-0.181,0.087-0.313,0.256-0.346,0.465
			l-0.829,5.253l-0.024,0.153c0.055-0.346,0.351-0.601,0.701-0.601h1.459c2.865,0,5.109-1.164,5.765-4.531
			c0.02-0.1,0.036-0.196,0.051-0.291c-0.166-0.088-0.346-0.164-0.539-0.228C-19.319-31.329-19.369-31.344-19.419-31.358"/>
	</g>
</g>
</svg>
