<?xml version="1.0" encoding="utf-8"?>
<!-- Generator: Adobe Illustrator 17.0.0, SVG Export Plug-In . SVG Version: 6.00 Build 0)  -->
<!DOCTYPE svg PUBLIC "-//W3C//DTD SVG 1.1//EN" "http://www.w3.org/Graphics/SVG/1.1/DTD/svg11.dtd">
<svg version="1.1" id="图层_1" xmlns="http://www.w3.org/2000/svg" xmlns:xlink="http://www.w3.org/1999/xlink" x="0px" y="0px"
	 width="16px" height="16px" viewBox="0 0 16 16" enable-background="new 0 0 16 16" xml:space="preserve">
<ellipse opacity="0.8" fill="#2BB2FC" cx="8.154" cy="3.092" rx="7.056" ry="3.092"/>
<path opacity="0.8" fill="#2BB2FC" d="M15.21,10.631c0,1.708-3.159,3.092-7.056,3.092s-7.056-1.384-7.056-3.092v2.268
	c0,1.708,3.159,3.092,7.056,3.092s7.056-1.384,7.056-3.092V10.631L15.21,10.631z"/>
<path opacity="0.8" fill="#2BB2FC" d="M15.21,7.539c0,1.708-3.159,3.092-7.056,3.092S1.099,9.247,1.099,7.539v2.268
	c0,1.708,3.159,3.092,7.056,3.092s7.056-1.384,7.056-3.092V7.539L15.21,7.539z"/>
<path opacity="0.8" fill="#2BB2FC" d="M15.21,4.161c0,1.708-3.159,3.092-7.056,3.092S1.099,5.869,1.099,4.161v2.268
	c0,1.708,3.159,3.092,7.056,3.092s7.056-1.384,7.056-3.092V4.161L15.21,4.161z"/>
<text transform="matrix(1 0 0 1 4.6278 4.4072)" fill="#FFFFFF" font-family="'Arial-Black'" font-size="4.2496">DB</text>
</svg>
