<?xml version="1.0" encoding="utf-8"?>
<!-- Generator: Adobe Illustrator 16.0.0, SVG Export Plug-In . SVG Version: 6.00 Build 0)  -->
<!DOCTYPE svg PUBLIC "-//W3C//DTD SVG 1.1//EN" "http://www.w3.org/Graphics/SVG/1.1/DTD/svg11.dtd">
<svg version="1.1" xmlns="http://www.w3.org/2000/svg" xmlns:xlink="http://www.w3.org/1999/xlink" x="0px" y="0px" width="16px"
	 height="16px" viewBox="0 0 16 16" enable-background="new 0 0 16 16" xml:space="preserve">
<g id="图层_1">
	<g>
		<path fill="#684C46" d="M15.405,11.424c-0.012,0.041-1.189,4.568-5.817,4.566c-4-0.001-5.896-3.479-5.896-3.479
			c-0.291,0.017-0.573-0.03-0.832-0.125c-1.174-0.432-1.736-1.774-1.332-2.9L0.883,8.993C-1.616,7.09,5.463-1.62,7.965,0.351
			c0.014,0.009,0.598,0.48,0.598,0.48c0.899-0.545,1.789-0.841,2.513-0.841c0.513,0,0.943,0.149,1.232,0.462
			c0.649,0.703,0.416,2.047-0.471,3.406c0.19,0.182,0.349,0.428,0.462,0.672c0.282,0.218,0.464,0.549,0.556,1.006
			c0.101,0.508,0.122,1.232,0.186,1.543c0.239,0.107,0.138,0.058,0.392,0.186c0.267,0.133,0.59,0.294,0.948,0.64
			c0.637,0.158,0.879,0.835,0.507,1.297c-0.01,0.012-0.055,0.065-0.102,0.118c0.011,0.03,0.134,0.227,0.221,0.63
			c0.265,0.062,0.475,0.224,0.585,0.459C15.781,10.869,15.405,11.424,15.405,11.424"/>
		<path fill="#F5DCBA" d="M4.636,9.721L4.636,9.721c0.101-0.257,0.152-0.467,0.152-0.467c0.114,0.353,0.173,0.724,0.15,1.099
			c0.096-0.127,0.198-0.367,0.198-0.367c0.179,1.047-0.586,2.007-1.594,2.007c-0.894,0-1.619-0.764-1.619-1.705
			c0-0.94,0.726-1.704,1.619-1.704c0.231,0,0.453,0.052,0.651,0.144C4.194,8.727,4.539,8.9,4.636,9.721 M13.445,13.414
			c1.255-0.986,1.475-2.174,1.495-2.215c0.309-0.371,0.225-0.735-0.184-0.735c-0.13,0-0.228,0.034-0.228,0.034
			s0.001-0.54-0.249-0.961c-0.192,0.216-0.727,0.646-1.43,0.979c-0.657,0.312-1.536,0.586-2.625,0.622l0,0
			c-0.304,0.014-0.492-0.036-0.599,0.318c-0.034,0.126-0.02,0.313,0.007,0.367c0.085,0.294,0.31,0.423,0.604,0.492
			c0.224,0.053,0.462,0.057,0.462,0.057c2.208,0.063,3.979-1.659,4.001-1.674c0.021-0.017,0.037-0.037,0.037-0.037
			s-0.02,0.046-0.021,0.051c-0.319,0.717-2.165,2.018-4.002,1.98l-0.007,0.002c-0.426-0.002-0.944-0.111-1.213-0.445
			c-0.425-0.527-0.204-1.406,0.475-1.427c0.001,0,0.156-0.003,0.227-0.005c1.681-0.052,3.188-0.669,4.268-1.959
			c0.148-0.184-0.018-0.438-0.339-0.445c-0.003,0-0.005-0.002-0.008-0.004c-0.382-0.407-0.717-0.552-1.015-0.704
			c-0.626-0.318-0.567-0.043-0.713-1.589c-0.039-0.416-0.117-0.984-0.484-1.203c-0.096-0.057-0.2-0.081-0.31-0.081
			c-0.107,0-0.159,0.021-0.181,0.027c-0.201,0.044-0.314,0.157-0.458,0.289c-0.674,0.622-1.215,0.453-2.019,0.446
			C8.182,5.589,7.515,6.117,7.387,6.927l0,0C7.324,7.352,7.364,7.781,7.431,7.976c0,0-0.205-0.136-0.303-0.258
			c0.118,0.74,0.793,1.224,0.793,1.224C7.814,8.966,7.662,8.956,7.662,8.956c0.001,0,0.385,0.305,0.719,0.411
			c-0.086,0.054-0.527,0.489-0.754,1.086c-0.213,0.56-0.126,1.231-0.126,1.231l0.185-0.275c0,0-0.121,0.613,0.112,1.207
			c0.077-0.177,0.246-0.492,0.246-0.492s-0.025,0.658,0.291,1.197c0.008-0.125,0.056-0.441,0.056-0.441s0.182,0.563,0.602,0.956
			C9.779,14.532,11.86,14.659,13.445,13.414"/>
		<path fill="#0788BF" d="M1.77,9.007c-0.006-0.002-0.608-0.444-0.694-0.59C0.567,7.561,1.45,5.804,2.078,4.804
			c1.552-2.47,4.135-4.419,5.308-4.14L8.59,1.285c-0.467,0.275-0.92,0.613-1.19,0.838L7.143,2.338c0,0-0.748,0.505-1.12,0.822
			C4.529,4.434,3.06,6.405,2.515,8.309C2.515,8.308,2.067,8.531,1.77,9.007"/>
		<path fill="#46B8E3" d="M7.386,0.664L7.386,0.664c-1.173-0.279-3.756,1.67-5.308,4.14c-0.001,0-0.001,0.001-0.002,0.002
			l0.007,0.001L3.319,5.78c1.357-2.155,3.064-3.267,3.112-3.299L6.236,1.162l0.366-0.176L7.34,1.225L7.284,0.979L7.386,0.664z"/>
		<path fill="#FFD14F" d="M8.59,1.285l-1.19,0.838L7.315,2.188L6.26,1.325L6.235,1.162l0.367-0.176
			C6.621,0.992,7.311,1.216,7.34,1.225l0.012-0.457l0.034-0.104L7.708,0.54C7.709,0.541,8.589,1.284,8.59,1.285"/>
		<path fill="#122030" d="M10.941,0.463c-0.788,0-1.673,0.415-2.352,0.822C8.495,1.342,8.4,1.4,8.309,1.46L7.954,1.162L8.083,1.61
			c-0.05,0.033-0.098,0.067-0.144,0.101L7.205,1.486l0.486,0.406c-0.11,0.084-0.21,0.163-0.292,0.23L6.236,1.162l0.062,0.432
			l0.845,0.744c0,0-0.748,0.505-1.12,0.822C4.529,4.434,3.06,6.405,2.515,8.308L2.546,8.29C2.55,8.288,2.554,8.286,2.559,8.284
			c0.015-0.008,0.03-0.017,0.046-0.023c0.009-0.005,0.02-0.01,0.028-0.015C2.649,8.239,2.664,8.231,2.68,8.225
			c0.01-0.004,0.019-0.008,0.028-0.012c0.017-0.008,0.033-0.014,0.05-0.02c0.009-0.004,0.017-0.007,0.023-0.01
			c0.025-0.009,0.05-0.017,0.074-0.024c0.37-0.11,0.874-0.182,1.465,0.069c0.296-0.747,0.65-1.508,1.208-2.239
			C5.98,5.397,6.416,4.868,6.938,4.577c0.988-0.928,3.651-1.912,4.504-1.059c0.203-0.33,0.377-0.644,0.521-1.035
			C12.32,1.542,12.326,0.463,10.941,0.463"/>
		<polygon fill="#122030" points="7.561,1.297 7.386,0.664 7.284,0.979 7.345,1.227 		"/>
		<path fill="#FFFFFF" d="M14.529,10.498c0,0,0.001-0.54-0.249-0.962c-0.192,0.217-0.727,0.646-1.43,0.979
			c-0.657,0.313-1.536,0.586-2.625,0.622c-0.304,0.014-0.492-0.036-0.599,0.319c-0.009,0.03-0.014,0.065-0.017,0.1v0.004H9.609
			c0,0.012-0.001,0.022-0.002,0.034c-0.001,0.032,0,0.062,0.001,0.086v0.001c0,0.002,0.001,0.004,0.001,0.006
			c0,0.016,0.002,0.031,0.004,0.045c0,0.001,0,0.002,0,0.003c0,0,0,0.001,0,0.002c0.007,0.056,0.019,0.083,0.021,0.085v0.001
			l0.001,0.004c0.086,0.292,0.31,0.42,0.604,0.488c0.224,0.053,0.462,0.058,0.462,0.058c1.801,0.05,3.313-1.087,3.82-1.515
			C14.528,10.737,14.533,10.653,14.529,10.498 M9.355,0.877c0.43-0.199,0.891-0.355,1.333-0.4C10.249,0.575,9.715,0.803,9.08,1.191
			C9.064,1.199,7.579,2.202,6.672,3.103c-0.495,0.49-2.48,2.872-2.479,2.87C4.557,5.285,4.795,4.949,5.37,4.226
			c0.324-0.408,0.672-0.807,1.026-1.173C6.516,2.93,6.636,2.81,6.757,2.693C6.803,2.649,7.84,1.587,9.355,0.877"/>
		<path fill="#EABE8D" d="M13.445,13.414c-0.216,0.169-0.44,0.313-0.67,0.434c-0.53-0.201-0.855-0.631-0.855-0.631
			s0.455-0.108,1.063-0.417c0.739-0.376,1.43-0.918,1.958-1.601C14.92,11.24,14.7,12.428,13.445,13.414 M12.002,7.689
			c-0.256-0.183-0.682-0.037-0.774,0.264c0.147,0.009,0.305,0.121,0.296,0.265c0.104-0.102,0.253-0.159,0.398-0.156
			C11.853,7.949,11.887,7.756,12.002,7.689 M9.311,11.373c0.081-0.301,0.309-0.538,0.659-0.55c0.001,0,0.156-0.003,0.227-0.005
			c1.681-0.052,3.188-0.669,4.268-1.959c0.148-0.184-0.018-0.438-0.339-0.445c-0.002,0-0.005,0-0.005,0
			c-0.055,0.059-0.063,0.163-0.154,0.32c-0.328,0.57-0.783,0.831-1.388,1.134c-1.857,0.925-2.82,0.494-3.207,1.06
			C9.26,11.095,9.257,11.281,9.311,11.373L9.311,11.373 M12.671,7.495c-0.178-0.127-0.184-0.349-0.281-1.378
			c-0.03-0.328-0.086-0.749-0.286-1.021c-0.042-0.036-0.101-0.078-0.185-0.078c-0.127-0.006-0.271,0.126-0.352,0.216
			c-0.23,0.333-0.451,0.548-0.841,0.732c-0.395,0.179-0.77,0.243-1.158,0.231C9.283,6.189,9.034,6.143,8.79,6.14
			C8.336,6.132,7.943,6.278,7.658,6.641C7.461,6.888,7.383,7.15,7.357,7.463C7.358,7.5,7.36,7.535,7.362,7.569
			C7.366,7.617,7.37,7.665,7.375,7.71c0.021,0.157,0.049,0.239,0.049,0.239c0,0.001,0,0.003,0,0.004
			c0.002,0.009,0.005,0.016,0.007,0.022c0,0-0.205-0.136-0.303-0.258c0.098,0.617,0.584,1.056,0.743,1.185
			C7.88,8.91,7.89,8.917,7.898,8.924C7.899,8.925,7.899,8.926,7.9,8.927c0.014,0.009,0.021,0.015,0.021,0.015
			C7.814,8.966,7.662,8.956,7.662,8.956c0.001,0,0.385,0.305,0.719,0.411C8.824,8.993,9.326,8.85,9.739,8.805
			c0.25-0.155,0.518-0.308,0.807-0.455c-0.088-0.544,0.395-1.092,1.002-1.144c0.458-0.033,0.682,0.172,0.842,0.391
			c0.087-0.026,0.185-0.058,0.295-0.09C12.68,7.504,12.676,7.5,12.671,7.495 M12.89,11.159c-0.004,0-0.009,0.001-0.017,0.003
			c-0.184,0.043-2.07,0.773-3.264,0.398c-0.005,0.065-0.003,0.203,0.024,0.263c0,0,0,0,0,0.001c0.18,0.035,0.407,0.059,0.673,0.059
			C11.877,11.883,13.009,11.169,12.89,11.159 M4.107,11.013C4.107,11.012,4.108,11.012,4.107,11.013
			c0.097-0.104,0.137-0.247,0.115-0.385c-0.037-0.197-0.261-0.237-0.408-0.391c-0.003-0.003-0.005-0.005-0.007-0.007
			c-0.002-0.003-0.005-0.006-0.007-0.009c-0.001,0-0.001,0-0.001-0.001c-0.066-0.076-0.09-0.163-0.084-0.24
			C3.727,9.777,3.906,9.721,4,9.758c0,0,0.11,0.026,0.196,0.146l0,0C4.184,9.864,4.186,9.8,4.119,9.706
			C4.009,9.55,3.756,9.392,3.397,9.467l0,0C3.332,9.48,3.368,9.473,3.303,9.491C3.293,9.494,3.284,9.497,3.276,9.5
			c-0.021,0.01-0.04,0.017-0.058,0.025C3.209,9.531,3.155,9.557,3.09,9.604C2.688,10.125,3.369,11.067,4.107,11.013"/>
		<path fill="#9C7356" d="M10.045,7.813c0.034,0.05,0.043,0.088,0.03,0.103C10.048,7.948,9.95,7.905,9.805,7.849
			C9.436,7.711,9.162,7.689,8.681,7.872c-0.122,0.047-0.209,0.082-0.25,0.076c-0.068-0.01-0.003-0.134,0.146-0.254
			c0.298-0.237,0.705-0.312,1.055-0.181C9.783,7.57,9.955,7.682,10.045,7.813 M9.973,8.191C9.87,8.114,9.684,8.062,9.49,8.095
			c-0.041,0.007-0.078,0.02-0.115,0.029C9.361,8.127,9.348,8.133,9.336,8.138c-0.08,0.033-0.149,0.069-0.217,0.135
			c-0.077,0.074-0.1,0.144-0.077,0.16C9.064,8.45,9.117,8.425,9.2,8.391c0.276-0.114,0.473-0.118,0.659-0.105
			c0.091,0.007,0.15,0.012,0.164-0.013C10.034,8.257,10.016,8.225,9.973,8.191 M4.013,9.61L4.013,9.61L4.013,9.61
			c0.046,0.037,0.08,0.075,0.106,0.112c0.085,0.12,0.058,0.19,0.093,0.225C4.225,9.96,4.243,9.964,4.261,9.956
			c0.049-0.02,0.071-0.097,0.076-0.149V9.806C4.35,9.677,4.281,9.532,4.19,9.43V9.429C4.136,9.365,4.063,9.306,3.976,9.258
			C3.891,9.209,3.789,9.173,3.68,9.155C3.488,9.125,3.3,9.164,3.248,9.18l0,0c-0.027,0.007-0.061,0.015-0.09,0.026
			C2.847,9.327,2.643,9.55,2.551,9.845l0,0l0,0c-0.033,0.113-0.046,0.222-0.046,0.321c0,0.087,0.01,0.167,0.024,0.238l0,0l0,0l0,0
			c0.026,0.12,0.081,0.256,0.165,0.345l0,0c0.105,0.114,0.22,0.093,0.171-0.013c-0.012-0.029-0.075-0.149-0.084-0.366
			c-0.005-0.141,0.015-0.289,0.065-0.424c0.03-0.072,0.069-0.144,0.121-0.207c0.104-0.13,0.235-0.188,0.251-0.196
			c0.018-0.01,0.037-0.017,0.058-0.025c0.007-0.004,0.017-0.007,0.026-0.01c0.065-0.019,0.029-0.01,0.095-0.024l0,0
			C3.646,9.432,3.861,9.489,4.013,9.61 M3.959,10.092c-0.034-0.026-0.05-0.051-0.06-0.087C3.886,9.94,3.893,9.902,3.948,9.863
			c0.043-0.029,0.078-0.044,0.078-0.063c0.002-0.034-0.142-0.07-0.242,0.028c-0.083,0.089-0.109,0.274,0.022,0.418
			c0.148,0.159,0.379,0.197,0.415,0.398c0.005,0.028,0.008,0.061,0.005,0.092c0.001,0.036-0.011,0.087-0.011,0.091
			c-0.045,0.193-0.229,0.379-0.533,0.331c-0.056-0.008-0.092-0.015-0.104,0.001c-0.023,0.033,0.107,0.182,0.346,0.176
			c0.233-0.005,0.465-0.179,0.538-0.441c0.001-0.004,0.023-0.078,0.024-0.145c0.005-0.05,0.001-0.1-0.009-0.153
			C4.418,10.26,4.084,10.191,3.959,10.092 M12.082,7.688c-0.093-0.014-0.183,0.076-0.203,0.202c-0.02,0.127,0.04,0.241,0.131,0.255
			c0.093,0.015,0.184-0.076,0.203-0.202C12.232,7.815,12.174,7.701,12.082,7.688 M11.07,8.056c-0.051,0.093,0.011,0.224,0.138,0.293
			c0.126,0.069,0.27,0.051,0.32-0.042c0.051-0.092-0.011-0.224-0.138-0.293C11.265,7.945,11.121,7.964,11.07,8.056 M7.362,4.319
			c1.743-1.13,3.483-1.26,4.079-0.801l0,0c-0.001-0.003-0.01-0.03-0.014-0.037c-0.151-0.322-0.505-0.546-0.819-0.636
			c0.056,0.057,0.136,0.161,0.167,0.224c-0.236-0.163-0.553-0.306-0.883-0.375c0,0,0.039,0.029,0.047,0.034
			c0.065,0.062,0.153,0.159,0.188,0.242C9.813,2.844,9.415,2.772,9.074,2.838C9.07,2.839,9.031,2.849,9.031,2.849
			s0.045,0.011,0.055,0.014C9.198,2.896,9.36,2.964,9.431,3.059c-0.565-0.1-1.188,0.011-1.522,0.198
			c0.043-0.002,0.043-0.002,0.079-0.001C8.11,3.26,8.359,3.275,8.464,3.342C8.106,3.415,7.591,3.574,7.313,3.814
			c0.05-0.007,0.328-0.041,0.441-0.023C6.225,4.666,5.527,5.989,5.527,5.989C5.979,5.402,6.564,4.836,7.362,4.319"/>
		<path fill="#684C46" d="M11.474,6.787c-0.002-0.12,0.017-0.318,0.13-0.355c0.001,0,0,0,0.001,0
			c0.192-0.067,0.448,0.428,0.461,0.866c-0.153-0.076-0.333-0.107-0.518-0.092C11.502,7.064,11.479,6.932,11.474,6.787"/>
	</g>
</g>
<g id="图层_2">
</g>
</svg>
