<?xml version="1.0" encoding="utf-8"?>
<!-- Generator: Adobe Illustrator 16.0.0, SVG Export Plug-In . SVG Version: 6.00 Build 0)  -->
<!DOCTYPE svg PUBLIC "-//W3C//DTD SVG 1.1//EN" "http://www.w3.org/Graphics/SVG/1.1/DTD/svg11.dtd">
<svg version="1.1" id="图层_1" xmlns="http://www.w3.org/2000/svg" xmlns:xlink="http://www.w3.org/1999/xlink" x="0px" y="0px"
	 width="16px" height="16px" viewBox="0 0 16 16" enable-background="new 0 0 16 16" xml:space="preserve">
<g>
	<path d="M14.34,8c-0.534-0.006-0.722,0.463-0.733,0.583c-0.124,1.239-0.652,2.444-1.604,3.395c-2.201,2.197-5.77,2.197-7.972,0
		c-2.201-2.197-2.201-5.758,0-7.955c2.152-2.147,5.604-2.181,7.813-0.129L11.12,4.617C10.909,4.827,10.98,5,11.278,5h2.539
		c0.118,0,0.169-0.067,0.169-0.243V2.292c0-0.298-0.173-0.369-0.383-0.158l-0.779,0.779C10.076,0.325,5.746,0.366,3.056,3.05
		c-2.738,2.734-2.737,7.167,0,9.9c2.739,2.732,7.182,2.733,9.921,0c1.216-1.213,1.89-2.761,2.025-4.347
		C15.013,8.475,14.825,8.005,14.34,8z"/>
	<path d="M7.499,4c-0.276,0-0.5,0.224-0.5,0.5v4c0,0.276,0.224,0.5,0.5,0.5h3c0.276,0,0.5-0.224,0.5-0.5S10.775,8,10.499,8h-2.5V4.5
		C7.999,4.224,7.775,4,7.499,4z"/>
</g>
</svg>
