<?xml version="1.0" encoding="utf-8"?>
<!-- Generator: Adobe Illustrator 16.0.4, SVG Export Plug-In . SVG Version: 6.00 Build 0)  -->
<!DOCTYPE svg PUBLIC "-//W3C//DTD SVG 1.1//EN" "http://www.w3.org/Graphics/SVG/1.1/DTD/svg11.dtd">
<svg version="1.1" id="图层_1" xmlns="http://www.w3.org/2000/svg" xmlns:xlink="http://www.w3.org/1999/xlink" x="0px" y="0px"
	 width="16px" height="16px" viewBox="0 0 16 16" enable-background="new 0 0 16 16" xml:space="preserve">
<g>
	<path d="M8,8c0.553,0,1-0.447,1-1V3c0-0.553-0.447-1-1-1S7,2.447,7,3v4C7,7.553,7.447,8,8,8z"/>
	<path d="M12.2,3.721c-0.393-0.385-1.025-0.382-1.414,0.014c-0.387,0.394-0.381,1.026,0.014,1.414C11.573,5.908,12,6.921,12,8
		c0,2.206-1.794,4-4,4s-4-1.794-4-4c0-1.079,0.427-2.092,1.2-2.852c0.395-0.388,0.4-1.021,0.014-1.414
		C4.825,3.339,4.193,3.336,3.8,3.721C2.639,4.86,2,6.38,2,8c0,3.309,2.691,6,6,6s6-2.691,6-6C14,6.38,13.361,4.86,12.2,3.721z"/>
</g>
</svg>
