<?xml version="1.0" encoding="utf-8"?>
<!-- Generator: Adobe Illustrator 16.0.4, SVG Export Plug-In . SVG Version: 6.00 Build 0)  -->
<!DOCTYPE svg PUBLIC "-//W3C//DTD SVG 1.1//EN" "http://www.w3.org/Graphics/SVG/1.1/DTD/svg11.dtd">
<svg version="1.1" id="图层_1" xmlns="http://www.w3.org/2000/svg" xmlns:xlink="http://www.w3.org/1999/xlink" x="0px" y="0px"
	 width="16px" height="16px" viewBox="0 0 16 16" enable-background="new 0 0 16 16" xml:space="preserve">
<g>
	<rect opacity="0" fill="none" stroke="#231815" stroke-miterlimit="10" width="16" height="16"/>
	<path d="M16,8.636c-0.41,4.388-3.499,7.396-7.803,7.396C2.972,16.031,0,12.062,0,7.968c0-4.262,3.177-7.937,8.197-7.937
		c3.136,0,5.779,1.481,7.05,4.363h-1.804C11.968,1.638,9.14,1.429,8.197,1.429c-4.774,0-6.681,3.845-6.681,6.56
		c0,3.134,2.5,6.644,6.742,6.644c2.541,0,5.205-1.589,6.065-4.597H6V8.636H16z"/>
</g>
</svg>
