<?xml version="1.0" encoding="utf-8"?>
<!-- Generator: Adobe Illustrator 17.0.0, SVG Export Plug-In . SVG Version: 6.00 Build 0)  -->
<!DOCTYPE svg PUBLIC "-//W3C//DTD SVG 1.1//EN" "http://www.w3.org/Graphics/SVG/1.1/DTD/svg11.dtd">
<svg version="1.1" id="图层_1" xmlns="http://www.w3.org/2000/svg" xmlns:xlink="http://www.w3.org/1999/xlink" x="0px" y="0px"
	 width="16px" height="16px" viewBox="0 0 16 16" enable-background="new 0 0 16 16" xml:space="preserve">
<circle cx="7.782" cy="7.833" r="5.645"/>
<path fill="#FFFFFF" d="M7.513,9.891L4.718,7.147L4.717,7.148C4.52,6.96,4.208,6.964,4.016,7.159
	C3.824,7.354,3.827,7.666,4.018,7.86L4.017,7.861l2.795,2.744c0.197,0.193,0.514,0.191,0.707-0.006
	C7.713,10.402,7.71,10.085,7.513,9.891z"/>
<path fill="#FFFFFF" d="M7.522,10.601l4.426-4.507l-0.001-0.001c0.188-0.197,0.185-0.509-0.01-0.701
	c-0.195-0.192-0.507-0.189-0.701,0.002l-0.001-0.001L6.808,9.9c-0.193,0.197-0.191,0.514,0.006,0.707
	C7.012,10.801,7.328,10.798,7.522,10.601z"/>
</svg>
