<?xml version="1.0" encoding="utf-8"?>
<!-- Generator: Adobe Illustrator 16.0.0, SVG Export Plug-In . SVG Version: 6.00 Build 0)  -->
<!DOCTYPE svg PUBLIC "-//W3C//DTD SVG 1.1//EN" "http://www.w3.org/Graphics/SVG/1.1/DTD/svg11.dtd">
<svg version="1.1" id="图层_1" xmlns="http://www.w3.org/2000/svg" xmlns:xlink="http://www.w3.org/1999/xlink" x="0px" y="0px"
	 width="90px" height="30px" viewBox="0 0 90 30" enable-background="new 0 0 90 30" xml:space="preserve">
<g>
	<g>
		<g>
			<path d="M6.44-0.053c-1.687,0-3.265,0.598-4.459,1.792C0.785,2.935,0.05,4.374,0.05,6.061v9.74c0,0.007,0-0.02,0,0
				c0,0.69,0.342,1.311,1.031,1.311s1.094-0.655,1.094-1.349c0-0.037,0,0.04,0,0v-4.798c1.591,0.804,2.575,1.21,3.963,1.21
				c1.688,0,3.278-0.599,4.474-1.792c1.195-1.194,1.867-2.635,1.867-4.322c0-1.687-0.557-3.126-1.753-4.321
				C9.529,0.545,8.128-0.053,6.44-0.053z M9.03,8.653C8.317,9.37,7.452,9.728,6.44,9.728c-1.009,0-1.875-0.357-2.592-1.074
				C3.132,7.935,2.771,7.072,2.771,6.061c0-1.01,0.36-1.875,1.077-2.592C4.565,2.752,5.432,2.395,6.44,2.395
				c1.012,0,1.877,0.357,2.589,1.074c0.721,0.717,1.081,1.582,1.081,2.592C10.111,7.072,9.75,7.935,9.03,8.653z"/>
			<path d="M53.968,4.838c-1.683,0-3.125,0.596-4.316,1.79c-1.195,1.193-1.792,2.636-1.792,4.322c0,1.684,0.598,3.127,1.792,4.318
				c1.191,1.196,2.633,1.792,4.316,1.792c1.396,0,2.619-0.402,3.674-1.21c0,1.002-0.326,1.861-1.047,2.581
				c-0.716,0.718-1.255,1.074-2.556,1.074c0,0-0.405,0.03-0.534,0.079c-0.147,0.056-0.324,0.147-0.438,0.257
				c-0.004,0.003-0.022,0.003-0.022,0.01c-0.022,0.02-0.044,0.034-0.061,0.05c-0.01,0.012-0.019,0.017-0.026,0.025
				c-0.015,0.02-0.027,0.035-0.044,0.054c-0.008,0.008-0.018,0.021-0.026,0.031c-0.009,0.017-0.026,0.035-0.036,0.052
				c-0.007,0.014-0.016,0.03-0.026,0.044c-0.017,0.024-0.031,0.05-0.045,0.077c-0.006,0.019-0.017,0.042-0.03,0.061
				c-0.004,0.017-0.012,0.029-0.012,0.045c-0.008,0.021-0.017,0.04-0.026,0.063c0,0.013-0.009,0.026-0.009,0.044
				c-0.008,0.019-0.018,0.043-0.018,0.064c-0.009,0.015-0.009,0.029-0.009,0.042c-0.008,0.025-0.008,0.051-0.014,0.079
				c-0.004,0.009-0.004,0.022-0.004,0.032c-0.009,0.041-0.009,0.076-0.009,0.117c0,0.673,0.545,1.22,1.222,1.22
				c0.009,0,0.018-0.002,0.025-0.002c0,0.002,0,0.002,0,0.002c1.768,0,2.866-0.595,4.062-1.791c1.195-1.194,1.53-2.636,1.53-4.321
				V10.95c0-1.687-0.298-3.129-1.495-4.322C56.798,5.434,55.655,4.838,53.968,4.838z M56.561,13.54
				c-0.718,0.716-1.583,1.072-2.593,1.072c-1.011,0-1.873-0.356-2.59-1.072c-0.715-0.716-1.076-1.579-1.076-2.59
				s0.361-1.875,1.076-2.592c0.717-0.717,1.579-1.076,2.59-1.076c1.01,0,1.875,0.359,2.593,1.076
				c0.72,0.717,1.081,1.581,1.081,2.592S57.281,12.824,56.561,13.54z"/>
			<path d="M62.274,0.595c-0.81,0-1.46,0.653-1.46,1.459c0,0.804,0.651,1.456,1.46,1.456c0.799,0,1.458-0.652,1.458-1.456
				C63.732,1.248,63.073,0.595,62.274,0.595z"/>
			<path d="M19.805,14.612c-0.017,0-0.027,0-0.043,0c-0.853-0.024-1.912-0.381-2.602-1.072c-0.72-0.716-1.19-1.579-1.19-2.59V7.226
				h2.604h0.014l0,0c0.65,0,1.235-0.661,1.235-1.348c0-0.675-0.545-1.305-1.212-1.305l0,0h-2.641V1.811
				c0-0.06-0.04-1.356-1.27-1.423c-0.678-0.034-1.38,0.554-1.38,1.237c0,0.053,0,0.104,0,0.155v9.17
				c0,1.684,0.826,3.127,2.021,4.318c1.01,1.017,2.325,1.6,3.699,1.753c0.058,0.011,0.357,0.048,0.65,0.028
				c0.023,0.002,0.067,0.005,0.088,0.005c0.677,0,1.23-0.548,1.23-1.223C21.009,15.156,20.473,14.612,19.805,14.612z"/>
			<path d="M63.346,15.886V5.951c0,0,0-1.008-1.157-0.997C61.192,4.96,61.144,5.95,61.144,5.95s-0.004,9.871,0,9.922
				c0.048,1.196,1.094,1.232,1.099,1.232C62.949,17.142,63.363,16.465,63.346,15.886z"/>
			<path d="M31.837,12.001c0.729,0,1.397-0.515,1.476-1.247c0.091-0.853-1.135-5.919-6.016-5.938
				c-1.666-0.006-3.091,0.614-4.284,1.808c-1.195,1.194-1.774,2.644-1.774,4.33c0,1.688,0.604,3.13,1.8,4.327
				c1.195,1.19,2.636,1.793,4.323,1.793c1.564,0,3.165-0.502,4.372-1.474c0.006,0,0.006,0,0.006-0.003
				c0.308-0.241,0.501-0.614,0.501-1.033c0-0.729-0.589-1.316-1.314-1.316c-0.365,0-0.691,0.147-0.927,0.388
				c-0.005-0.002-0.009-0.002-0.009-0.002c-0.747,0.637-1.613,0.891-2.625,0.931c-1.691,0.065-3.141-0.973-3.471-2.563H31.837
				C31.837,12.001,31.787,12.001,31.837,12.001z M27.366,7.427c1.938-0.053,3.292,1.39,3.473,2.449h-6.944
				C24.076,8.816,25.394,7.477,27.366,7.427z"/>
			<path d="M88.565,12.001c0.734,0,1.397-0.515,1.481-1.247c0.088-0.853-1.133-5.919-6.021-5.938
				c-1.666-0.006-3.089,0.614-4.284,1.808c-1.191,1.194-1.771,2.644-1.771,4.33c0,1.688,0.607,3.13,1.798,4.327
				c1.194,1.19,2.642,1.793,4.327,1.793c1.562,0,3.165-0.502,4.369-1.474c0.005,0,0.005,0,0.01-0.003
				c0.302-0.241,0.5-0.614,0.5-1.033c0-0.729-0.588-1.316-1.319-1.316c-0.36,0-0.688,0.147-0.927,0.388
				c-0.002-0.002-0.002-0.002-0.002-0.002c-0.748,0.637-1.619,0.891-2.631,0.931c-1.685,0.065-3.141-0.973-3.47-2.563H88.565
				C88.565,12.001,88.517,12.001,88.565,12.001z M84.094,7.427c1.944-0.053,3.298,1.39,3.474,2.449h-6.944
				C80.808,8.816,82.127,7.477,84.094,7.427z"/>
			<path d="M76.668,15.426V10.95c0-1.687-0.518-3.129-1.714-4.322c-1.194-1.194-2.562-1.79-4.25-1.79c-1.684,0-3.104,0.596-4.3,1.79
				c-1.192,1.193-1.767,2.636-1.767,4.322v4.538v0.248c0,0-0.01,0-0.01,0.003c0.005,0.007,0.01,0.012,0.01,0.017
				c0.008,0.243,0.25,1.235,1.257,1.235c1.036,0,1.344-0.791,1.344-1.204c0-0.041,0-0.069,0-0.097c0-0.007,0-0.01,0-0.013
				c0-0.025,0-0.046,0-0.068V10.95c0-1.011,0.297-1.875,1.011-2.592c0.719-0.717,1.553-1.076,2.566-1.076
				c1.008,0,1.826,0.359,2.542,1.076c0.717,0.717,1.033,1.581,1.033,2.592v4.453c0,0-0.009,1.491,1.138,1.507
				C76.668,16.933,76.668,15.426,76.668,15.426z"/>
			<path d="M46.356,15.426V10.95c0-1.687-0.528-3.129-1.719-4.322c-1.196-1.194-2.562-1.79-4.25-1.79
				c-1.688,0-3.103,0.596-4.298,1.79c-1.195,1.193-1.77,2.636-1.77,4.322v4.538v0.248c0,0-0.005,0-0.005,0.003
				c0,0.007,0.005,0.012,0.009,0.017c0.008,0.243,0.246,1.235,1.257,1.235c1.028,0,1.34-0.791,1.34-1.204c0-0.041,0-0.069,0-0.097
				c0-0.007,0.005-0.01,0.005-0.013c0-0.025-0.005-0.046-0.005-0.068V10.95c0-1.011,0.294-1.875,1.015-2.592
				c0.717-0.717,1.547-1.076,2.557-1.076c1.012,0,1.833,0.359,2.549,1.076c0.721,0.717,1.038,1.581,1.038,2.592l-0.009,4.453
				c0,0-0.004,1.491,1.143,1.507C46.356,16.933,46.356,15.426,46.356,15.426z"/>
		</g>
	</g>
	<g>
		<g>
			<g>
				<path d="M0.863,27.681v-5.715H0.243v-1.187h0.621v-0.686c0-0.593,0.112-1.014,0.34-1.262c0.227-0.248,0.606-0.373,1.139-0.373
					c0.107,0,0.225,0.003,0.352,0.009c0.127,0.006,0.267,0.015,0.418,0.026v1.2c-0.02,0-0.048-0.002-0.084-0.006
					c-0.036-0.005-0.06-0.007-0.071-0.007c-0.175,0-0.3,0.036-0.376,0.107s-0.113,0.189-0.113,0.352v0.639h0.645v1.187H2.467v5.715
					H0.863z"/>
				<path d="M3.869,24.232c0-1.392,0.18-2.346,0.537-2.863c0.358-0.516,0.988-0.774,1.891-0.774c0.907,0,1.539,0.259,1.896,0.774
					c0.358,0.518,0.537,1.472,0.537,2.863s-0.179,2.346-0.537,2.861c-0.358,0.513-0.99,0.771-1.896,0.771
					c-0.903,0-1.533-0.258-1.891-0.771C4.048,26.578,3.869,25.624,3.869,24.232z M5.503,24.161v0.161
					c0,1.069,0.054,1.724,0.161,1.963c0.108,0.237,0.315,0.357,0.621,0.357c0.318,0,0.533-0.113,0.644-0.337
					c0.111-0.226,0.167-0.809,0.167-1.752v-0.279v-0.394c0-0.901-0.057-1.47-0.17-1.703c-0.113-0.232-0.323-0.349-0.629-0.349
					c-0.302,0-0.51,0.106-0.624,0.319c-0.113,0.212-0.17,0.724-0.17,1.535V24.161z"/>
				<path d="M9.928,27.681v-6.901h1.527v1.122c0.219-0.466,0.453-0.798,0.701-0.997c0.249-0.199,0.552-0.301,0.91-0.305v1.939
					c-0.059-0.008-0.119-0.015-0.178-0.019c-0.06-0.004-0.134-0.006-0.221-0.006c-0.342,0-0.613,0.102-0.814,0.304
					c-0.201,0.203-0.301,0.477-0.301,0.817v4.045H9.928z"/>
				<path d="M15.482,27.681l2.07-9.187h2.296l2.087,9.187h-1.843l-0.453-2.31h-1.969l-0.441,2.31H15.482z M17.94,23.994h1.456
					l-0.734-3.854L17.94,23.994z"/>
				<path d="M22.753,30v-9.221h1.515V21.5c0.127-0.302,0.309-0.528,0.545-0.679c0.237-0.151,0.522-0.227,0.856-0.227
					c0.668,0,1.138,0.264,1.411,0.793c0.272,0.529,0.408,1.465,0.408,2.81c0,1.392-0.132,2.35-0.397,2.877
					c-0.264,0.526-0.727,0.79-1.387,0.79c-0.326,0-0.599-0.063-0.819-0.189c-0.221-0.128-0.399-0.321-0.534-0.579V30H22.753z
					 M24.304,23.94c0,1.117,0.059,1.826,0.176,2.127c0.117,0.3,0.334,0.449,0.653,0.449c0.282,0,0.476-0.129,0.579-0.388
					s0.155-0.898,0.155-1.921c0-0.989-0.052-1.619-0.155-1.891c-0.103-0.271-0.296-0.404-0.579-0.404
					c-0.318,0-0.536,0.123-0.653,0.369S24.304,23.081,24.304,23.94z"/>
				<path d="M28.688,30v-9.221h1.515V21.5c0.127-0.302,0.309-0.528,0.546-0.679c0.237-0.151,0.522-0.227,0.855-0.227
					c0.668,0,1.139,0.264,1.411,0.793c0.272,0.529,0.409,1.465,0.409,2.81c0,1.392-0.133,2.35-0.397,2.877
					c-0.264,0.526-0.726,0.79-1.386,0.79c-0.326,0-0.599-0.063-0.82-0.189c-0.22-0.128-0.398-0.321-0.534-0.579V30H28.688z
					 M30.238,23.94c0,1.117,0.059,1.826,0.176,2.127c0.117,0.3,0.335,0.449,0.653,0.449c0.282,0,0.475-0.129,0.578-0.388
					s0.155-0.898,0.155-1.921c0-0.989-0.052-1.619-0.155-1.891c-0.103-0.271-0.296-0.404-0.578-0.404
					c-0.318,0-0.536,0.123-0.653,0.369S30.238,23.081,30.238,23.94z"/>
				<path d="M34.377,25.384h1.438v0.196c0,0.397,0.06,0.68,0.181,0.847c0.122,0.168,0.323,0.251,0.605,0.251
					c0.223,0,0.397-0.059,0.525-0.179c0.127-0.119,0.191-0.285,0.191-0.495c0-0.263-0.256-0.564-0.77-0.906
					c-0.131-0.087-0.232-0.155-0.304-0.203l-0.072-0.054c-1.173-0.804-1.76-1.59-1.76-2.361c0-0.612,0.19-1.079,0.57-1.402
					c0.379-0.321,0.931-0.482,1.655-0.482c0.7,0,1.224,0.178,1.575,0.533c0.349,0.356,0.524,0.896,0.524,1.62v0.143H37.33v-0.143
					c0-0.334-0.064-0.578-0.191-0.734c-0.127-0.154-0.328-0.232-0.602-0.232c-0.199,0-0.358,0.054-0.478,0.164
					c-0.119,0.108-0.178,0.254-0.178,0.433c0,0.167,0.052,0.318,0.158,0.453c0.105,0.136,0.341,0.325,0.707,0.572
					c0.084,0.056,0.205,0.138,0.364,0.245c1.157,0.764,1.735,1.529,1.735,2.296c0,0.612-0.196,1.085-0.587,1.419
					c-0.392,0.335-0.95,0.501-1.673,0.501c-0.76,0-1.319-0.178-1.679-0.536c-0.36-0.358-0.54-0.916-0.54-1.677
					c0-0.027,0.002-0.071,0.006-0.13C34.375,25.462,34.377,25.415,34.377,25.384z"/>
			</g>
		</g>
	</g>
</g>
</svg>
