<?xml version="1.0" encoding="utf-8"?>
<!-- Generator: Adobe Illustrator 16.0.0, SVG Export Plug-In . SVG Version: 6.00 Build 0)  -->
<!DOCTYPE svg PUBLIC "-//W3C//DTD SVG 1.1//EN" "http://www.w3.org/Graphics/SVG/1.1/DTD/svg11.dtd">
<svg version="1.1" id="图层_1" xmlns="http://www.w3.org/2000/svg" xmlns:xlink="http://www.w3.org/1999/xlink" x="0px" y="0px"
	 width="16px" height="16px" viewBox="0 0 16 16" enable-background="new 0 0 16 16" xml:space="preserve">
<rect opacity="0.5" fill="none" width="16" height="16"/>
<path fill="#2196F3" d="M14.151,1.902C13.975,1.375,13.476,1,12.888,1H3.112C2.524,1,2.035,1.375,1.85,1.902L0,7.25v7.145
	c0,0.489,0.401,0.892,0.889,0.892h0.889c0.489,0,0.889-0.402,0.889-0.892v-0.822h10.668v0.822c0,0.489,0.399,0.892,0.889,0.892h0.89
	c0.486,0,0.888-0.402,0.888-0.892V7.25L14.151,1.902z M3.112,10.715c-0.74,0-1.335-0.596-1.335-1.333
	c0-0.739,0.595-1.335,1.335-1.335c0.737,0,1.332,0.596,1.332,1.335C4.444,10.119,3.85,10.715,3.112,10.715z M12.888,10.715
	c-0.736,0-1.332-0.596-1.332-1.333c0-0.739,0.596-1.335,1.332-1.335c0.74,0,1.335,0.596,1.335,1.335
	C14.223,10.119,13.628,10.715,12.888,10.715z M1.777,6.335l1.335-4.001h9.775l1.335,4.001H1.777z"/>
</svg>
