<?xml version="1.0" encoding="utf-8"?>
<!-- Generator: Adobe Illustrator 16.0.0, SVG Export Plug-In . SVG Version: 6.00 Build 0)  -->
<!DOCTYPE svg PUBLIC "-//W3C//DTD SVG 1.1//EN" "http://www.w3.org/Graphics/SVG/1.1/DTD/svg11.dtd">
<svg version="1.1" id="图层_1" xmlns="http://www.w3.org/2000/svg" xmlns:xlink="http://www.w3.org/1999/xlink" x="0px" y="0px"
	 width="16px" height="16px" viewBox="0 0 16 16" enable-background="new 0 0 16 16" xml:space="preserve">
<g>
	<g>
		<path fill="#009CDB" d="M12.516,3.676c-0.483,0-0.945,0.105-1.365,0.296c-0.496-0.915-1.42-1.534-2.482-1.534
			c-0.797,0-1.517,0.347-2.035,0.908C6.067,2.53,5.162,2,4.139,2C2.426,2,1.036,3.481,1.036,5.31c0,0.494,0.104,0.959,0.285,1.379
			c-0.79,0.504-1.32,1.422-1.32,2.476c0,1.594,1.211,2.887,2.704,2.887c0.179,0,0.354-0.02,0.521-0.056
			C3.629,13.165,4.679,14,5.913,14c1.186,0,2.202-0.77,2.638-1.863c0.338,0.176,0.713,0.276,1.112,0.276
			c0.944,0,1.769-0.552,2.207-1.367c0.209,0.043,0.425,0.065,0.646,0.065c1.926,0,3.484-1.666,3.484-3.719
			C16,5.341,14.439,3.676,12.516,3.676z"/>
	</g>
</g>
</svg>
