<?xml version="1.0" encoding="utf-8"?>
<!-- Generator: Adobe Illustrator 16.0.0, SVG Export Plug-In . SVG Version: 6.00 Build 0)  -->
<!DOCTYPE svg PUBLIC "-//W3C//DTD SVG 1.1//EN" "http://www.w3.org/Graphics/SVG/1.1/DTD/svg11.dtd">
<svg version="1.1" id="图层_1" xmlns="http://www.w3.org/2000/svg" xmlns:xlink="http://www.w3.org/1999/xlink" x="0px" y="0px"
	 width="110px" height="26px" viewBox="0 0 110 26" enable-background="new 0 0 110 26" xml:space="preserve">
<g>
	<path d="M9.967,0.017c-2.742,0-5.306,0.975-7.246,2.924C0.773,4.891,0,7.245,0,10.003V24.04c0,0.016,0-0.03,0,0
		C0,25.172,0.557,26,1.676,26C2.8,26,3.45,25.168,3.45,24.04c0-0.066,0,0.066,0,0v-6.03c2.586,1.318,3.764,1.978,6.031,1.978
		c2.737,0,5.323-0.977,7.263-2.926c1.939-1.95,3.031-4.303,3.031-7.058c0-2.758-0.904-5.112-2.847-7.062
		C14.99,0.991,12.711,0.017,9.967,0.017z M14.181,14.235c-1.169,1.169-2.572,1.757-4.214,1.757c-1.641,0-3.04-0.588-4.208-1.757
		C4.595,13.063,4.01,11.65,4.01,10.003c0-1.652,0.585-3.066,1.749-4.236c1.168-1.172,2.567-1.758,4.208-1.758
		c1.642,0,3.045,0.586,4.214,1.758c1.16,1.17,1.744,2.584,1.744,4.236C15.925,11.65,15.341,13.063,14.181,14.235z"/>
	<path d="M32.58,21.895c-0.02,0,0.356,0.003-0.063,0.003c-1.391-0.041-3.471-0.427-4.592-1.553
		c-1.167-1.172-2.021-2.802-2.021-4.454V9.326h4.462h0.019l0,0c1.06,0,2.003-0.872,2.003-1.991c0-1.103-0.879-2.135-1.968-2.135
		h-0.656h-3.859V2.266C25.905,1.368,25.224,0,23.938,0c-1.437,0-2.118,1.368-2.118,2.266c0,0.085,0,13.625,0,13.625
		c0,2.758,1.132,5.418,3.066,7.367c1.655,1.661,4.569,2.861,7.438,2.731c1.093-0.048,2.437-0.945,2.437-2.042
		C34.76,22.85,33.676,21.895,32.58,21.895z"/>
	<path d="M107.463,17.387c1.255,0,2.395-0.873,2.528-2.11c0.16-1.453-1.941-10.049-10.308-10.081c-2.858-0.008-5.3,1.042-7.347,3.07
		c-2.046,2.027-3.042,4.485-3.042,7.344c0,2.862,1.041,5.314,3.085,7.344c2.048,2.023,4.524,3.043,7.419,3.043
		c2.677,0,5.421-0.847,7.496-2.5h0.005c0.519-0.415,0.862-1.045,0.862-1.757c0-1.232-1.01-2.231-2.257-2.231
		c-0.622,0-1.187,0.249-1.588,0.652h-0.013c-1.277,1.085-2.771,1.507-4.5,1.579c-2.9,0.113-5.392-1.649-5.944-4.352H107.463
		C107.463,17.387,107.381,17.387,107.463,17.387z M99.805,9.622c3.325-0.087,5.642,2.366,5.953,4.165H93.86
		C94.158,11.988,96.423,9.709,99.805,9.622z"/>
	<path d="M86.706,23.777v-8.121c0-2.884-0.897-5.351-2.95-7.391C81.704,6.224,79.348,5.2,76.446,5.2
		c-2.897,0-5.339,1.024-7.395,3.065c-2.055,2.041-3.047,4.507-3.047,7.391v7.77v0.423L66,23.854l0.007,0.028
		c0.023,0.415,0.434,2.113,2.167,2.113c1.775,0,2.308-1.356,2.308-2.065c0-0.069,0-0.118,0-0.158c0-0.015,0.005-0.02,0.005-0.02
		c0-0.045-0.005-0.081-0.005-0.126v-7.97c0-1.729,0.508-3.203,1.742-4.432c1.235-1.226,2.672-1.842,4.407-1.842
		s3.15,0.616,4.381,1.842c1.238,1.229,1.559,2.703,1.559,4.432l-0.005,8.084c0,0,0.209,2.22,2.181,2.26
		C86.706,26.023,86.706,23.777,86.706,23.777z"/>
	<path d="M51.209,0c-6.773,0-12.263,5.821-12.263,13.003C38.946,20.181,44.436,26,51.209,26c6.769,0,12.257-5.819,12.257-12.997
		C63.466,5.821,57.978,0,51.209,0z M51.209,21.895c-4.517,0-8.176-3.98-8.176-8.893s3.659-8.897,8.176-8.897
		c4.51,0,8.171,3.984,8.171,8.897S55.719,21.895,51.209,21.895z"/>
</g>
</svg>
