<?xml version="1.0" encoding="utf-8"?>
<!-- Generator: Adobe Illustrator 16.0.0, SVG Export Plug-In . SVG Version: 6.00 Build 0)  -->
<!DOCTYPE svg PUBLIC "-//W3C//DTD SVG 1.1//EN" "http://www.w3.org/Graphics/SVG/1.1/DTD/svg11.dtd">
<svg version="1.1" id="图层_1" xmlns="http://www.w3.org/2000/svg" xmlns:xlink="http://www.w3.org/1999/xlink" x="0px" y="0px"
	 width="16px" height="16px" viewBox="0 0 16 16" enable-background="new 0 0 16 16" xml:space="preserve">
<g id="XMLID_193_">
	<path id="XMLID_198_" fill="#F60E0B" d="M5.75,2c3.26,0,5.749,2.598,5.749,5.999s-2.489,6-5.749,6S0,11.4,0,7.999S2.49,2,5.75,2z
		 M0,2 M11.5,14"/>
	<path id="XMLID_197_" fill="#FFFFFF" d="M5.56,6.306c0.014-0.199,0.028-0.398,0.056-0.597c-1.505,0-3.01,0-4.514,0
		c0,0.198,0,0.397,0,0.597c0.453,0.028,0.894,0.071,1.349,0.1C3.302,7.441,4.153,8.478,5.02,9.527c0,0.54,0,1.064,0,1.604
		c-0.483,0.043-0.966,0.071-1.448,0.114c0,0.171,0,0.354,0,0.524c1.49,0,2.981,0,4.458,0c0-0.17,0-0.354,0-0.524
		c-0.483-0.029-0.966-0.043-1.448-0.058c0.015-0.567,0.028-1.149,0.043-1.718c0.837-0.738,1.661-1.476,2.484-2.214
		c0.425-0.028,0.852-0.057,1.291-0.1c0-0.227,0-0.468,0-0.696C9.137,6.477,7.887,6.489,6.624,6.518c0,0.199,0,0.384,0,0.583
		c0.468,0.028,0.937,0.042,1.405,0.057c-0.61,0.525-1.222,1.036-1.832,1.562C5.573,7.952,4.948,7.172,4.323,6.405
		C4.735,6.362,5.146,6.334,5.56,6.306z"/>
	<path id="XMLID_194_" fill="#F60E0B" d="M16,2.171c-1.027-0.062-2.042-0.123-3.056-0.186c-0.051,2.935-0.102,5.885-0.152,8.821
		c0.481,0.06,0.977,0.121,1.458,0.184C14.833,8.04,15.417,5.105,16,2.171z M12.652,13.985c0.583,0,1.166,0,1.75,0
		c0-0.583,0-1.167,0-1.766c-0.634-0.063-1.268-0.124-1.902-0.185C12.551,12.695,12.602,13.341,12.652,13.985z"/>
</g>
</svg>
