<?xml version="1.0" encoding="utf-8"?>
<!-- Generator: Adobe Illustrator 21.0.0, SVG Export Plug-In . SVG Version: 6.00 Build 0)  -->
<svg version="1.1" id="图层_1" xmlns="http://www.w3.org/2000/svg" xmlns:xlink="http://www.w3.org/1999/xlink" x="0px" y="0px"
	 viewBox="0 0 16 16" enable-background="new 0 0 16 16" xml:space="preserve">
<path d="M14,0H2C0.9,0,0,0.9,0,2v12c0,1.1,0.9,2,2,2h12c1.1,0,2-0.9,2-2V2C16,0.9,15.1,0,14,0z M3.707,7.787
	c0.547,0,0.99,0.448,0.99,1.001c0,0.553-0.443,1.001-0.99,1.001s-0.99-0.448-0.99-1.001C2.717,8.235,3.16,7.787,3.707,7.787z
	 M3.509,14.342c-0.847,0-1.534-0.694-1.534-1.551c0-0.857,0.687-1.551,1.534-1.551c0.847,0,1.534,0.694,1.534,1.551
	C5.043,13.648,4.356,14.342,3.509,14.342z M4.919,5.01c0-0.705,0.565-1.276,1.262-1.276c0.697,0,1.262,0.571,1.262,1.276
	S6.878,6.286,6.181,6.286C5.484,6.286,4.919,5.715,4.919,5.01z M6.726,8.988c0-0.912,0.731-1.651,1.633-1.651
	c0.902,0,1.633,0.739,1.633,1.651c0,0.912-0.731,1.651-1.633,1.651C7.457,10.639,6.726,9.9,6.726,8.988z M9.992,13.942
	c-0.656,0-1.188-0.538-1.188-1.201c0-0.663,0.532-1.201,1.188-1.201c0.656,0,1.188,0.538,1.188,1.201
	C11.18,13.404,10.648,13.942,9.992,13.942z M13.06,9.088c-0.492,0-0.891-0.403-0.891-0.901s0.399-0.901,0.891-0.901
	c0.492,0,0.891,0.403,0.891,0.901S13.552,9.088,13.06,9.088z M11.971,5.811c-1.134,0-2.053-0.93-2.053-2.076
	s0.919-2.076,2.053-2.076s2.054,0.93,2.054,2.076S13.106,5.811,11.971,5.811z"/>
</svg>
