<?xml version="1.0" encoding="utf-8"?>
<!-- Generator: Adobe Illustrator 16.0.4, SVG Export Plug-In . SVG Version: 6.00 Build 0)  -->
<!DOCTYPE svg PUBLIC "-//W3C//DTD SVG 1.1//EN" "http://www.w3.org/Graphics/SVG/1.1/DTD/svg11.dtd">
<svg version="1.1" id="图层_1" xmlns="http://www.w3.org/2000/svg" xmlns:xlink="http://www.w3.org/1999/xlink" x="0px" y="0px"
	 width="16px" height="16px" viewBox="0 0 16 16" enable-background="new 0 0 16 16" xml:space="preserve">
<g>
	<rect opacity="0" fill="none" width="16" height="16"/>
	<path d="M2.985,5.806C2.985,4.281,3.268,0,7.987,0c4.715,0,4.998,4.281,4.998,5.806v4.388c0,1.524-0.283,5.807-4.998,5.807
		c-4.72,0-5.002-4.282-5.002-5.807V5.806z M4.484,9.837c0,1.63,0.261,4.763,3.503,4.763c3.237,0,3.499-3.133,3.499-4.763V6.161
		c0-1.63-0.262-4.762-3.499-4.762c-3.242,0-3.503,3.132-3.503,4.762V9.837z"/>
</g>
</svg>
