<?xml version="1.0" encoding="utf-8"?>
<!-- Generator: Adobe Illustrator 17.0.0, SVG Export Plug-In . SVG Version: 6.00 Build 0)  -->
<!DOCTYPE svg PUBLIC "-//W3C//DTD SVG 1.1//EN" "http://www.w3.org/Graphics/SVG/1.1/DTD/svg11.dtd">
<svg version="1.1" id="图层_1" xmlns="http://www.w3.org/2000/svg" xmlns:xlink="http://www.w3.org/1999/xlink" x="0px" y="0px"
	 width="40px" height="40px" viewBox="0 0 40 40" enable-background="new 0 0 40 40" xml:space="preserve">
<path fill="#4CAF50" d="M20,5.842v27.917h18.083V5.842H20z M26,29.083h-4.5v-3.167H26V29.083z M26,24.175h-4.5v-3.167H26V24.175z
	 M26,19.175h-4.5v-3.167H26V19.175z M26,14.008h-4.5v-3.167H26V14.008z M35.083,29.008h-7v-3.167h7V29.008z M35.083,24.175h-7
	v-3.167h7V24.175z M35.083,19.175h-7v-3.167h7V19.175z M35.083,14.008h-7v-3.167h7V14.008z"/>
<path fill="#2E7D32" d="M1.7,6.083V33.75l21.017,4.167V2.167L1.7,6.083z"/>
<text transform="matrix(1 0 0 1 4.7909 27.5)" fill="#FFFFFF" font-family="'Arial-BoldMT'" font-size="21.1814">X</text>
</svg>
