<?xml version="1.0" encoding="utf-8"?>
<!-- Generator: Adobe Illustrator 16.0.0, SVG Export Plug-In . SVG Version: 6.00 Build 0)  -->
<!DOCTYPE svg PUBLIC "-//W3C//DTD SVG 1.1//EN" "http://www.w3.org/Graphics/SVG/1.1/DTD/svg11.dtd">
<svg version="1.1" id="图层_1" xmlns="http://www.w3.org/2000/svg" xmlns:xlink="http://www.w3.org/1999/xlink" x="0px" y="0px"
	 width="16px" height="16px" viewBox="0 0 16 16" enable-background="new 0 0 16 16" xml:space="preserve">
<rect opacity="0.6" fill="none" width="16" height="16"/>
<path d="M14.744,13.506l-3.792-3.789C11.608,8.812,12,7.703,12,6.503C12,3.468,9.532,1,6.5,1S1,3.468,1,6.503
	C1,9.533,3.468,12,6.5,12c1.2,0,2.309-0.391,3.215-1.046l3.791,3.79C13.678,14.914,13.902,15,14.125,15
	c0.225,0,0.447-0.086,0.619-0.256C15.086,14.402,15.086,13.848,14.744,13.506z M2.833,6.501c0-2.021,1.645-3.668,3.667-3.668
	s3.667,1.646,3.667,3.668c0,2.022-1.645,3.666-3.667,3.666S2.833,8.523,2.833,6.501z"/>
</svg>
